<?xml version="1.0" encoding="UTF-8" standalone="no"?>
<!-- Created with Inkscape (http://www.inkscape.org/) -->

<svg
   xmlns:dc="http://purl.org/dc/elements/1.1/"
   xmlns:cc="http://creativecommons.org/ns#"
   xmlns:rdf="http://www.w3.org/1999/02/22-rdf-syntax-ns#"
   xmlns:svg="http://www.w3.org/2000/svg"
   xmlns="http://www.w3.org/2000/svg"
   xmlns:sodipodi="http://sodipodi.sourceforge.net/DTD/sodipodi-0.dtd"
   xmlns:inkscape="http://www.inkscape.org/namespaces/inkscape"
   width="414.465mm"
   height="56.089088mm"
   viewBox="0 0 414.465 56.089088"
   version="1.1"
   id="svg25781"
   inkscape:version="0.92.4 (5da689c313, 2019-01-14)"
   sodipodi:docname="lake7.svg">
  <defs
     id="defs25775" />
  <sodipodi:namedview
     id="base"
     pagecolor="#ffffff"
     bordercolor="#666666"
     borderopacity="1.0"
     inkscape:pageopacity="0.0"
     inkscape:pageshadow="2"
     inkscape:zoom="0.35"
     inkscape:cx="433.24096"
     inkscape:cy="248.85227"
     inkscape:document-units="mm"
     inkscape:current-layer="layer1"
     showgrid="false"
     inkscape:window-width="1858"
     inkscape:window-height="1057"
     inkscape:window-x="54"
     inkscape:window-y="-8"
     inkscape:window-maximized="1" />
  <metadata
     id="metadata25778">
    <rdf:RDF>
      <cc:Work
         rdf:about="">
        <dc:format>image/svg+xml</dc:format>
        <dc:type
           rdf:resource="http://purl.org/dc/dcmitype/StillImage" />
        <dc:title></dc:title>
      </cc:Work>
    </rdf:RDF>
  </metadata>
  <g
     inkscape:label="Calque 1"
     inkscape:groupmode="layer"
     id="layer1"
     transform="translate(141.46465,-158.58641)">
    <path
       style="opacity:1;fill:#372216;fill-opacity:1;fill-rule:nonzero;stroke:none;stroke-width:8.46284485;stroke-miterlimit:4;stroke-dasharray:none;stroke-opacity:1"
       d="m -84.401431,208.62291 c -10.507848,-3.25644 -27.358629,-8.13864 -37.446159,-10.84932 -10.08753,-2.71071 -18.89467,-5.39205 -19.57142,-5.95858 -1.67359,-1.40105 43.110312,-15.90249 63.895449,-20.68996 53.436736,-12.30816 103.731036,-15.55814 150.660316,-9.73556 7.08403,0.87895 33.169785,5.65695 57.968335,10.61781 24.79852,4.96086 65.64834,12.54972 90.77735,16.86417 25.12904,4.31443 47.13819,8.43002 48.90929,9.14577 3.0531,1.23383 3.02191,1.30667 -0.6009,1.40444 -2.10158,0.0567 -14.82563,1.09992 -28.27568,2.3183 -13.45004,1.21838 -48.52717,3.98831 -77.94916,6.15538 -29.42198,2.16707 -58.97877,4.60634 -65.681755,5.42062 -6.70296,0.81428 -46.2507,1.42364 -87.88384,1.35411 l -75.696634,-0.12636 z"
       id="path25764"
       inkscape:connector-curvature="0" />
  </g>
</svg>
