<?xml version="1.0" encoding="UTF-8" standalone="no"?>
<!-- Created with Inkscape (http://www.inkscape.org/) -->

<svg
   xmlns:dc="http://purl.org/dc/elements/1.1/"
   xmlns:cc="http://creativecommons.org/ns#"
   xmlns:rdf="http://www.w3.org/1999/02/22-rdf-syntax-ns#"
   xmlns:svg="http://www.w3.org/2000/svg"
   xmlns="http://www.w3.org/2000/svg"
   xmlns:sodipodi="http://sodipodi.sourceforge.net/DTD/sodipodi-0.dtd"
   xmlns:inkscape="http://www.inkscape.org/namespaces/inkscape"
   width="1543.1515mm"
   height="125.0338mm"
   viewBox="0 0 1543.1515 125.0338"
   version="1.1"
   id="svg23905"
   inkscape:version="0.92.4 (5da689c313, 2019-01-14)"
   sodipodi:docname="lake4.svg">
  <defs
     id="defs23899" />
  <sodipodi:namedview
     id="base"
     pagecolor="#ffffff"
     bordercolor="#666666"
     borderopacity="1.0"
     inkscape:pageopacity="0.0"
     inkscape:pageshadow="2"
     inkscape:zoom="0.12374369"
     inkscape:cx="4369.4313"
     inkscape:cy="-760.90591"
     inkscape:document-units="mm"
     inkscape:current-layer="layer1"
     showgrid="false"
     inkscape:window-width="1858"
     inkscape:window-height="1057"
     inkscape:window-x="54"
     inkscape:window-y="-8"
     inkscape:window-maximized="1" />
  <metadata
     id="metadata23902">
    <rdf:RDF>
      <cc:Work
         rdf:about="">
        <dc:format>image/svg+xml</dc:format>
        <dc:type
           rdf:resource="http://purl.org/dc/dcmitype/StillImage" />
        <dc:title></dc:title>
      </cc:Work>
    </rdf:RDF>
  </metadata>
  <g
     inkscape:label="Calque 1"
     inkscape:groupmode="layer"
     id="layer1"
     transform="translate(1043.7186,67.897852)">
    <path
       style="opacity:1;fill:#212e21;fill-opacity:1;fill-rule:nonzero;stroke:none;stroke-width:11.96826935;stroke-miterlimit:4;stroke-dasharray:none;stroke-opacity:1"
       d="m -869.53289,49.920428 c 0,-4.73078 -6.48394,-16.32135 -10.41244,-18.613069 -3.30736,-1.929368 -3.27017,-2.127832 0.40996,-2.187601 3.35088,-0.05443 3.58429,-0.623623 1.35646,-3.30798 -1.47995,-1.783239 -4.14985,-3.242257 -5.93309,-3.242257 -2.63735,0 -2.74008,-0.605075 -0.55063,-3.243209 2.27376,-2.739708 1.64916,-3.451702 -4.02327,-4.586182 -3.69318,-0.738637 -6.21708,-2.148417 -5.60867,-3.132852 1.12838,-1.8257565 -5.64173,-6.3297855 -9.51445,-6.3297855 -1.17577,0 -5.07707,2.473246 -8.66955,5.4961095 -5.49459,4.623409 -7.1916,5.084075 -10.68704,2.90113 -5.95361,-3.7180835 -11.51836,-0.972105 -10.41053,5.137177 0.49717,2.741718 -0.2758,6.598338 -1.71771,8.570277 -2.33955,3.199501 -3.0664,2.842736 -6.75493,-3.315573 -3.93022,-6.561852 -4.3923,-7.662466 -5.0281,-11.976338 -0.1486,-1.008274 -4.04579,-3.5357855 -8.66043,-5.6167065 -9.03436,-4.073922 -15.34504,-2.586885 -19.34356,4.5580825 -1.6938,3.026648 -2.41208,2.66012 -4.95596,-2.5290195 -1.63629,-3.337745 -4.89801,-7.13105 -7.24828,-8.429546 -4.47747,-2.473722 -9.90027,-8.361442 -8.75554,-9.506162 0.36717,-0.367188 11.06458,0.876221 23.77203,2.763097 49.08513,7.288424 119.98398,6.451415 194.59971,-2.29743 15.45476,-1.8121055 57.76621,-8.0902445 94.02545,-13.9514265 83.0593,-13.426255 128.23516,-18.791793 181.56643,-21.5646 65.71157,-3.416512 108.65522,-6.363758 114.55976,-7.862358 4.21844,-1.070637 1.79835,2.372598 -11.03291,15.697252 -9.04018,9.387788 -18.06244,20.22991 -20.04944,24.093594 -4.01584,7.8087275 -6.01609,8.5663885 -9.98625,3.7826425 -1.55096,-1.8688055 -6.26533,-3.2422575 -11.12906,-3.2422575 -7.11843,0 -9.95905,1.520825 -18.16145,9.7232265 -5.34776,5.347758 -10.27443,12.4791775 -10.94809,15.8475615 l -1.22486,6.124364 -6.12082,-6.120792 c -6.74796,-6.7479855 -14.19823,-7.8123245 -20.63035,-2.947299 -4.14015,3.131449 -4.13848,3.175053 0.12729,3.290331 3.97494,0.107395 3.88935,0.450004 -1.06349,4.255241 -2.96257,2.276158 -5.44738,5.41573 -5.5218,6.976851 -0.21204,4.446323 -5.0133,14.728137 -6.8706,14.712977 -2.62718,-0.0214 -9.40525,-13.100606 -7.98237,-15.402931 2.02123,-3.270488 -3.45988,-8.35996 -9.00332,-8.35996 -2.78019,0 -6.9355,2.018586 -9.23399,4.485719 -4.60507,4.942973 -5.58723,4.189175 -7.76234,-5.95749 -1.75178,-8.1719735 -6.00684,-12.2346505 -11.35931,-10.8457465 -3.05186,0.79195 -2.84207,1.062355 0.9769,1.259258 6.05456,0.312155 6.35251,3.809788 0.48323,5.6726395 -2.40906,0.764593 -4.15917,2.532327 -3.88908,3.928295 0.60267,3.115019 -5.08558,18.749356 -6.82162,18.749356 -1.50294,0 -7.1592,-12.858646 -7.43966,-16.912857 -0.10893,-1.574694 -2.09288,-3.923506 -4.40878,-5.219567 -4.15457,-2.3249995 -4.15499,-2.3760375 -0.0318,-3.8223555 3.95838,-1.388507 3.91533,-1.606947 -0.81605,-4.139116 -6.50785,-3.482869 -11.96308,1.105112 -18.86043,15.8620615 -5.46073,11.683365 -4.60772,12.359164 -8.63743,-6.842839 -2.06578,-9.8436375 -7.68815,-19.9939275 -11.0749,-19.9939275 -1.75104,0 -4.28516,2.918037 -5.63134,6.484515 -1.34622,3.566504 -3.6228,6.48454 -5.05915,6.48454 -1.43632,0 -4.43304,2.315713 -6.6594,5.1460665 l -4.04789,5.146093 -4.06024,-6.7672215 c -2.23322,-3.721973 -3.844,-7.983061 -3.57958,-9.469093 0.26443,-1.486033 -1.02086,-2.701873 -2.85623,-2.701873 -1.83536,0 -3.337,-0.972687 -3.337,-2.161513 0,-1.188826 -1.21587,-2.154846 -2.7019,-2.146723 -2.4946,0.01349 -8.8972,8.276299 -14.05646,18.1400445 -1.90789,3.647598 -2.4361,3.229477 -4.74036,-3.7525325 -1.42629,-4.321651 -3.48623,-8.409464 -4.57763,-9.083992 -2.11929,-1.309794 -12.64907,5.463593 -12.76284,8.209809 -0.0374,0.901938 -2.71283,4.6083005 -5.94546,8.2363995 -5.37493,6.03242 -6.10838,6.280864 -8.57678,2.905098 -1.48458,-2.03028 -2.18242,-4.527682 -1.5507,-5.549768 0.63167,-1.022085 -0.36658,-2.4397225 -2.21834,-3.1503135 -1.8518,-0.710591 -2.82361,-2.170959 -2.15964,-3.245273 0.66395,-1.074314 -0.55748,-2.674567 -2.71431,-3.556133 -2.15683,-0.881565 -3.92149,-3.061864 -3.92149,-4.845103 0,-4.95935 -10.39683,-5.230706 -14.78143,-0.385788 -2.06155,2.278009 -4.86552,10.149469 -6.23104,17.4921585 -1.76485,9.489996 -3.02326,12.384538 -4.35195,10.010246 -3.61603,-6.461442 -11.7122,-3.635375 -10.55639,3.684826 0.14078,0.891619 -2.66206,1.621128 -6.22853,1.621128 -4.32303,0 -6.48452,1.080744 -6.48452,3.242253 v 4.32301 c 0,0.59441 -1.94537,3.02611 -4.32303,5.40377 -2.37765,2.37765 -4.32662,6.02519 -4.33109,8.10564 -0.004,2.51783 -1.44024,1.43372 -4.29123,-3.24226 -2.66587,-4.37234 -6.0148,-7.0249 -8.8692,-7.0249 -2.8601,0 -4.18276,-1.0509 -3.51448,-2.79241 1.75132,-4.56388 -4.21491,-10.868343 -9.08103,-9.595829 -2.94915,0.771234 -4.74523,-0.119089 -5.58631,-2.769103 -3.50457,-11.041909 -13.28518,-9.723517 -19.6856,2.653533 l -3.52757,6.821569 -4.60044,-9.422106 c -4.77619,-9.782016 -11.42448,-14.020668 -16.68177,-10.635562 -2.60088,1.67468 -2.57249,2.269834 0.19304,4.047622 2.60254,1.67304 1.85621,2.567702 -3.78263,4.534482 -8.10494,2.826888 -9.25794,6.287373 -2.16151,6.487293 4.61762,0.130095 4.64493,0.225848 0.54038,1.895104 -2.64941,1.077467 -5.46138,5.626837 -7.26347,11.751257 -2.75662,9.36839 -6.78632,13.57426 -6.78632,7.08303 z"
       id="path23645"
       inkscape:connector-curvature="0" />
    <path
       style="opacity:1;fill:#032426;fill-opacity:1;fill-rule:nonzero;stroke:none;stroke-width:11.96826935;stroke-miterlimit:4;stroke-dasharray:none;stroke-opacity:1"
       d="m 372.37508,-7.5553545 c -2.084,-2.302722 -3.1916,-5.1535545 -2.4613,-6.3351575 0.7302,-1.181576 0.3233,-2.769103 -0.9043,-3.527822 -1.2276,-0.758693 -1.7175,-2.212022 -1.0885,-3.229636 1.7261,-2.793048 -3.3415,-12.560194 -7.3062,-14.081602 -2.2692,-0.870743 -5.5571,0.979885 -9.4179,5.300954 l -5.9318,6.638713 -4.3391,-4.339087 c -2.3865,-2.386515 -5.3757,-4.339114 -6.6427,-4.339114 -4.8099,0 -10.7468,4.69519 -14.0751,11.131339 l -3.4545,6.680173 -3.7828,-6.20387 c -2.0806,-3.412147 -5.5048,-7.626192 -7.6094,-9.364557 -3.3818,-2.793392 -4.1348,-2.73894 -6.4803,0.468683 -2.3989,3.280648 -3.3516,2.909411 -9.9169,-3.864213 -8.5143,-8.78459 -13.858,-9.871207 -12.4551,-2.532751 1.2484,6.531002 -6.6451,13.061077 -11.3411,9.382072 -1.7342,-1.358635 -3.4657,-3.925755 -3.8478,-5.704681 -1.2799,-5.95802 -4.4629,-7.36944 -8.4607,-3.751527 -3.5734,3.233896 -4.2226,3.104356 -8.924,-1.780302 -5.8984,-6.128517 -7.4544,-6.419426 -11.0651,-2.068777 -2.3062,2.778813 -3.145,2.594001 -6.3845,-1.406631 -2.8564,-3.527583 -5.0909,-4.263998 -9.5455,-3.145948 -4.9996,1.254813 -5.4953,2.059146 -3.5309,5.729604 1.5588,2.912666 1.5739,4.269873 0.048,4.269873 -1.2307,0 -2.2376,1.339929 -2.2376,2.977594 0,5.194168 -4.9978,7.778274 -9.1589,4.735618 -2.0586,-1.505294 -3.1325,-3.347323 -2.3864,-4.093421 0.7461,-0.746072 -0.1802,-1.946249 -2.0586,-2.667027 -1.8783,-0.720804 -2.8861,-2.689039 -2.2396,-4.373906 0.6465,-1.68484 0.2122,-3.063372 -0.9651,-3.063372 -1.1774,0 -2.6494,-1.945349 -3.2712,-4.323001 -1.5175,-5.80308 -4.9117,-5.44441 -10.6215,1.122389 l -4.7347,5.445389 -4.7144,-5.912378 c -4.3706,-5.481268 -5.1627,-5.708068 -10.864,-3.110363 -4.5734,2.083753 -6.3643,2.158418 -6.9867,0.291254 -0.5026,-1.507861 -3.2807,-0.169413 -6.955,3.350815 -5.656,5.418772 -6.3844,5.595329 -9.6425,2.337223 -4.6223,-4.622323 -8.7708,-4.453545 -13.7851,0.560758 -4.0058,4.005792 -4.1398,3.982879 -6.9028,-1.179803 -2.3728,-4.433623 -4.1744,-5.163926 -11.4104,-4.625446 -8.07,0.600498 -8.7058,0.212037 -10.4511,-6.385481 -1.8019,-6.811591 -2.2073,-7.024898 -13.3498,-7.024898 -8.7464,0 -12.426,-1.032669 -15.4037,-4.323001 -4.952,-5.471848 -6.8706,-5.515398 42.1493,0.95676 52.6098,6.946132 110.5984,11.389915 184.8087,14.162246 54.2203,2.02557 96.4098,3.904112 179.9453,8.01235 23.8418,1.172528 26.4784,1.699948 26.4784,5.296694 0,2.749418 -1.5799,3.99452 -5.0687,3.99452 -5.7731,0 -13.3631,7.214553 -11.2267,10.671334 0.781,1.263729 0.3899,2.297695 -0.8691,2.297695 -1.259,0 -2.289,1.516433 -2.289,3.369812 0,1.853407 -0.9727,2.76868 -2.1615,2.033958 -1.1889,-0.734748 -2.1615,-3.092661 -2.1615,-5.239835 0,-2.147173 -2.016,-6.466813 -4.4799,-9.599215 -6.8671,-8.730033 -15.9043,-7.7479 -25.6284,2.785216 l -7.8291,8.480478 -3.6266,-6.318965 c -1.9946,-3.475434 -5.0966,-6.318964 -6.8933,-6.318964 -3.5258,0 -8.6049,7.662439 -6.9037,10.415005 0.5709,0.923819 0.3666,2.766166 -0.4541,4.094083 -1.9595,3.170476 -6.1678,-0.02593 -14.3977,-10.935864 -5.5008,-7.292102 -6.5863,-7.885774 -8.8238,-4.825841 -1.4815,2.026073 -4.0261,2.923302 -6.0682,2.139659 -2.1319,-0.818065 -3.6466,-0.194389 -3.8462,1.583584 -0.1811,1.613218 -0.5552,3.905806 -0.8314,5.094632 -1.2699,5.465762 -1.526,6.622547 -1.9141,8.646027 -0.8127,4.2373825 -3.8984,9.7267715 -5.4675,9.7267715 -0.8774,0 -3.3003,-1.884071 -5.3842,-4.186819 z"
       id="path23647"
       inkscape:connector-curvature="0" />
    <path
       style="opacity:1;fill:#212e21;fill-opacity:1;fill-rule:nonzero;stroke:none;stroke-width:11.96826935;stroke-miterlimit:4;stroke-dasharray:none;stroke-opacity:1"
       d="m -1011.1812,0.4140805 c -1.5495,-3.97764 -9.657,-5.33863 -9.657,-1.621128 0,1.188852 -2.0417,0.119882 -4.537,-2.37543 -3.1587,-3.158754 -6.4417,-4.257357 -10.8075,-3.616616 -6.0856,0.893181 -6.2706,0.647647 -6.2706,-8.3217805 v -9.242134 l 7.984,3.335946 c 4.3912,1.834753 14.8475,5.135933 23.2362,7.335943 8.3887,2.20001 13.50303,4.053602 11.36519,4.1190605 -2.27159,0.06953 -5.12389,3.038475 -6.86329,7.143882 -2.4418,5.76326 -3.241,6.345555 -4.45,3.242257 z"
       id="path23649"
       inkscape:connector-curvature="0" />
    <path
       style="opacity:1;fill:#212e21;fill-opacity:1;fill-rule:nonzero;stroke:none;stroke-width:0.37400842;stroke-miterlimit:4;stroke-dasharray:none;stroke-opacity:1"
       d="m -1021.5249,3.6675825 c -0.025,-0.194336 -0.086,-0.414152 -0.1335,-0.488447 -0.048,-0.0743 -0.1093,-0.255112 -0.1366,-0.401823 -0.027,-0.146711 -0.093,-0.328242 -0.1453,-0.403437 -0.053,-0.07517 -0.097,-0.183118 -0.098,-0.239871 0,-0.05673 -0.077,-0.255138 -0.1683,-0.440902 -0.091,-0.185764 -0.1664,-0.372004 -0.1667,-0.413887 -4e-4,-0.04191 -0.046,-0.114009 -0.102,-0.160258 -0.056,-0.04625 -0.1013,-0.152268 -0.1013,-0.235585 0,-0.08332 -0.056,-0.22397 -0.1236,-0.312579 -0.068,-0.08858 -0.1454,-0.206666 -0.1721,-0.262414 -0.027,-0.05572 -0.1228,-0.222885 -0.2136,-0.371501 -0.091,-0.14859 -0.2093,-0.363802 -0.2631,-0.478208 -0.054,-0.114406 -0.1453,-0.247306 -0.2031,-0.295328 -0.058,-0.04805 -0.1053,-0.130175 -0.1053,-0.18251 0,-0.05233 -0.046,-0.112659 -0.1013,-0.134038 -0.056,-0.02143 -0.1013,-0.0789 -0.1013,-0.127793 0,-0.04892 -0.076,-0.179229 -0.1689,-0.289613 -0.093,-0.110385 -0.1688,-0.219102 -0.1688,-0.241591 0,-0.02249 -0.047,-0.09411 -0.1043,-0.159121 -0.057,-0.06501 -0.2465,-0.300593 -0.4204,-0.523478 -0.4034,-0.517181 -2.1262,-2.242846 -2.4812,-2.48539 -0.3874,-0.264769 -0.7547,-0.584068 -0.6741,-0.586184 0.1601,-0.0042 1.5614,1.13448 2.5317,2.057294 1.9992,1.901454 3.3003,2.797783 4.0681,2.802652 0.3164,0.0026 0.4254,-0.154411 0.4844,-0.695193 0.069,-0.635397 0.3924,-1.151334 0.9285,-1.483043 0.2339,-0.144674 0.9571,-0.387058 1.1533,-0.386529 0.1345,0 0.1108,0.0413 -0.186,0.32086 -0.3903,0.367744 -0.9095,0.983879 -0.9095,1.079368 0,0.03561 -0.061,0.134831 -0.1351,0.220503 -0.074,0.08567 -0.1351,0.211905 -0.1351,0.280512 0,0.06861 -0.061,0.185552 -0.1351,0.259847 -0.074,0.07432 -0.135,0.20738 -0.135,0.295698 0,0.08832 -0.043,0.196453 -0.096,0.240295 -0.053,0.04384 -0.1169,0.207142 -0.1424,0.362902 -0.026,0.155761 -0.086,0.328772 -0.1342,0.384519 -0.048,0.05572 -0.1101,0.283687 -0.1375,0.506598 -0.027,0.222885 -0.088,0.466064 -0.1349,0.540359 -0.047,0.07432 -0.1053,0.363087 -0.13,0.641693 -0.025,0.278633 -0.088,0.683843 -0.1414,0.900457 -0.053,0.216641 -0.097,0.571976 -0.097,0.789702 0,0.504719 -0.1037,0.577612 -0.1643,0.115464 z"
       id="path23651"
       inkscape:connector-curvature="0" />
    <path
       style="opacity:1;fill:#212e21;fill-opacity:1;fill-rule:nonzero;stroke:none;stroke-width:0.37400842;stroke-miterlimit:4;stroke-dasharray:none;stroke-opacity:1"
       d="m -1043.7186,-13.550522 v -11.15703 l 0.1563,0.14687 c 0.086,0.08078 0.2012,0.146871 0.2559,0.146871 0.055,0 0.2188,0.06077 0.3646,0.135069 0.1457,0.07432 0.3041,0.135097 0.352,0.135097 0.07,0 0.087,1.006184 0.089,5.218006 0,7.031064 0.091,9.1733165 0.4296,10.3124535 0.2602,0.876247 0.7227,1.405255 1.4139,1.617451 l 0.3975,0.122052 -0.2938,0.22987 c -0.6053,0.473499 -1.9488,1.956039 -1.9488,2.150507 0,0.03506 -0.051,0.114803 -0.1134,0.177218 -0.1287,0.128694 -0.1844,0.227013 -0.6872,1.213326 -0.1988,0.390102 -0.3736,0.709269 -0.3884,0.709269 -0.015,0 -0.027,-5.020654 -0.027,-11.1570295 z"
       id="path23653"
       inkscape:connector-curvature="0" />
    <path
       style="opacity:1;fill:#212e21;fill-opacity:1;fill-rule:nonzero;stroke:none;stroke-width:0.37400842;stroke-miterlimit:4;stroke-dasharray:none;stroke-opacity:1"
       d="m -1009.8412,9.6129815 c -0.015,-0.04643 -0.06,-0.373195 -0.1,-0.726122 -0.04,-0.352928 -0.1299,-0.991235 -0.1998,-1.418485 -0.07,-0.427222 -0.1778,-1.095957 -0.2399,-1.486032 -0.062,-0.390075 -0.1567,-0.846031 -0.2105,-1.013195 -0.054,-0.16719 -0.097,-0.36158 -0.097,-0.432012 6e-4,-0.170471 -0.2524,-1.254654 -0.4123,-1.768052 -0.07,-0.225504 -0.1277,-0.521996 -0.1277,-0.658812 0,-0.136843 -0.061,-0.362215 -0.1351,-0.500856 -0.074,-0.138616 -0.1351,-0.329327 -0.1351,-0.423757 0,-0.09446 -0.042,-0.231696 -0.093,-0.304985 -0.051,-0.07326 -0.1151,-0.239607 -0.1426,-0.36965 -0.027,-0.130016 -0.089,-0.281992 -0.1362,-0.337714 -0.048,-0.05575 -0.1082,-0.207724 -0.1351,-0.33774 -0.027,-0.130043 -0.087,-0.28202 -0.1346,-0.337741 -0.047,-0.05572 -0.1082,-0.177324 -0.1356,-0.270192 -0.027,-0.09287 -0.095,-0.220293 -0.15,-0.283158 -0.055,-0.06287 -0.086,-0.154066 -0.069,-0.202644 0.04,-0.115094 0.5204,0.391583 0.8627,0.910008 0.1417,0.214709 0.3542,0.625078 0.4722,0.91186 0.5578,1.355566 0.994,1.844384 1.5131,1.695503 0.3805,-0.109114 0.7581,-0.571447 1.3727,-1.680607 0.1955,-0.352928 0.3555,-0.602192 0.3555,-0.553932 0,0.04829 -0.041,0.169863 -0.092,0.270193 -0.051,0.10033 -0.1114,0.331311 -0.1352,0.513318 -0.024,0.182007 -0.072,0.365548 -0.1072,0.407908 -0.035,0.04233 -0.098,0.287391 -0.1386,0.544566 -0.041,0.257175 -0.1007,0.499189 -0.1324,0.537765 -0.032,0.03858 -0.077,0.222144 -0.1018,0.407882 -0.024,0.185764 -0.1011,0.596106 -0.1708,0.911886 -0.1749,0.791766 -0.2581,1.266746 -0.3671,2.093966 -0.051,0.390075 -0.1241,0.846031 -0.1616,1.013195 -0.038,0.16719 -0.1031,0.744723 -0.1457,1.283414 -0.068,0.86159 -0.2211,1.688677 -0.3123,1.688677 -0.017,0 -0.043,-0.03799 -0.058,-0.08445 z"
       id="path23655"
       inkscape:connector-curvature="0" />
    <path
       style="opacity:1;fill:#212e21;fill-opacity:1;fill-rule:nonzero;stroke:none;stroke-width:0.37400842;stroke-miterlimit:4;stroke-dasharray:none;stroke-opacity:1"
       d="m -996.33438,-8.2085055 c -0.1486,-0.108664 -0.46776,-0.292391 -0.70924,-0.408331 -0.24148,-0.11594 -0.49944,-0.242067 -0.57325,-0.2803 -0.0738,-0.03823 -0.45375,-0.139673 -0.84433,-0.225398 -0.74006,-0.162454 -1.44147,-0.195421 -1.9598,-0.09213 -0.1672,0.03334 -0.4711,0.09165 -0.6754,0.129619 -0.2044,0.03797 -0.4627,0.110861 -0.5742,0.162005 -0.1114,0.05117 -0.3546,0.163168 -0.5404,0.248893 -0.1857,0.08572 -0.4522,0.231431 -0.5922,0.323771 -0.6773,0.446775 -0.053,-0.193172 0.7273,-0.745252 0.6778,-0.479716 1.4057,-0.76745 2.11814,-0.8373 0.51501,-0.05048 0.64457,-0.1193015 0.55158,-0.2930535 -0.0802,-0.149886 -0.89382,-0.548058 -1.89292,-0.926412 -0.6606,-0.250137 -0.7264,-0.28747 -0.4402,-0.249476 0.1852,0.02461 0.4283,0.0821 0.5404,0.127821 0.1121,0.04572 0.3807,0.104457 0.597,0.130519 0.2163,0.02619 0.4898,0.08652 0.60792,0.134355 0.11809,0.04781 0.39268,0.106786 0.6102,0.131048 0.21753,0.02434 0.45743,0.07726 0.53313,0.117766 0.0757,0.04051 0.34499,0.0997 0.59844,0.131525 0.25344,0.0318 0.60626,0.101256 0.78404,0.154278 0.17777,0.05305 0.50561,0.127556 0.72851,0.165576 0.22291,0.03799 0.55726,0.103505 0.74302,0.145548 0.79311,0.1795195 2.07441,0.4359545 2.88837,0.5780885 0.32547,0.05683 0.66941,0.132847 0.7643,0.16891 0.0949,0.03609 0.25161,0.06559 0.34826,0.06559 0.0967,0 0.15721,0.01852 0.13458,0.04117 -0.0226,0.02249 -0.61283,-0.009 -1.31154,-0.07022 -0.69871,-0.06125 -1.61486,-0.11774 -2.03588,-0.125572 -0.73127,-0.01349 -0.77128,-0.0071 -0.895,0.14523 -0.16489,0.203015 -0.16351,0.429789 0.006,0.921279 0.0743,0.21598 0.1351,0.403093 0.1351,0.415872 0,0.05786 -0.12211,-0.0032 -0.37151,-0.18542 z"
       id="path23657"
       inkscape:connector-curvature="0" />
    <path
       style="opacity:1;fill:#212e21;fill-opacity:1;fill-rule:nonzero;stroke:none;stroke-width:0.37400842;stroke-miterlimit:4;stroke-dasharray:none;stroke-opacity:1"
       d="m -984.77089,2.2841295 c -0.198,-0.176451 -0.49469,-0.434949 -0.6593,-0.574411 -0.16462,-0.139435 -0.34745,-0.299032 -0.40629,-0.354621 -0.0588,-0.05556 -0.13772,-0.101044 -0.17528,-0.101044 -0.0376,0 -0.12332,-0.0608 -0.19056,-0.135096 -0.0672,-0.07429 -0.15942,-0.135097 -0.20484,-0.135097 -0.0454,0 -0.12188,-0.04736 -0.16991,-0.105224 -0.048,-0.05787 -0.18094,-0.148987 -0.29534,-0.202486 -0.11442,-0.05352 -0.29921,-0.158221 -0.41066,-0.232675 -0.11146,-0.07445 -0.29383,-0.182721 -0.40529,-0.240585 -0.11145,-0.05789 -0.27863,-0.148564 -0.37151,-0.201507 -0.0929,-0.05297 -0.21833,-0.09673 -0.2788,-0.09729 -0.0605,0 -0.148,-0.04686 -0.19453,-0.102923 -0.0465,-0.05604 -0.20165,-0.120624 -0.34473,-0.14351 -0.14308,-0.02302 -0.29416,-0.0826 -0.33575,-0.132715 -0.0416,-0.05009 -0.18654,-0.111681 -0.32212,-0.136843 -0.13558,-0.02513 -0.30731,-0.0844 -0.38161,-0.13163 -0.0743,-0.04723 -0.28707,-0.107897 -0.47283,-0.134805 -0.18575,-0.02693 -0.39853,-0.08692 -0.47283,-0.133324 -0.0743,-0.04641 -0.34787,-0.105807 -0.60792,-0.132027 -0.26006,-0.02619 -0.69588,-0.09017 -0.96849,-0.142134 -0.27261,-0.05196 -0.74755,-0.09448 -1.05542,-0.09448 -0.94318,0 -1.11723,-0.08649 -0.91923,-0.456856 0.22584,-0.422407 0.34836,-0.805021 0.4377,-1.36689 0.094,-0.591397 0.0925,-0.70149 -0.0193,-1.404144 -0.0668,-0.419364 -0.15671,-0.797771 -0.1999,-0.840978 -0.0432,-0.04318 -0.0785,-0.103955 -0.0785,-0.13507 0,-0.03109 0.50914,0.456327 1.13142,1.083178 1.94713,1.961462 3.70562,3.351927 5.75944,4.554114 0.79256,0.463894 1.65535,1.131967 2.49818,1.934316 0.66243,0.630634 0.75311,0.86614 0.11426,0.296757 z"
       id="path23659"
       inkscape:connector-curvature="0" />
    <path
       style="opacity:1;fill:#212e21;fill-opacity:1;fill-rule:nonzero;stroke:none;stroke-width:0.37400842;stroke-miterlimit:4;stroke-dasharray:none;stroke-opacity:1"
       d="m -977.27486,17.758047 c -0.0248,-0.02487 -0.045,-0.184812 -0.045,-0.355627 0,-0.18153 -0.0561,-0.415316 -0.13509,-0.562636 -0.0743,-0.138642 -0.13613,-0.366157 -0.13739,-0.505619 -10e-4,-0.139435 -0.061,-0.375126 -0.1328,-0.523743 -0.0718,-0.14859 -0.13174,-0.376555 -0.13325,-0.506597 -0.002,-0.130017 -0.0631,-0.327607 -0.13694,-0.43905 -0.0738,-0.111442 -0.1344,-0.316733 -0.13465,-0.456194 -2.4e-4,-0.139436 -0.0612,-0.366951 -0.13554,-0.505593 -0.0743,-0.138641 -0.13509,-0.336206 -0.13509,-0.439049 0,-0.10287 -0.0608,-0.300435 -0.1351,-0.439076 -0.0743,-0.138616 -0.13509,-0.33237 -0.13509,-0.43053 0,-0.09816 -0.043,-0.214128 -0.0955,-0.257705 -0.0525,-0.04355 -0.11644,-0.231827 -0.14209,-0.418359 -0.0257,-0.186531 -0.0859,-0.354224 -0.13398,-0.372639 -0.048,-0.01852 -0.10717,-0.165788 -0.13141,-0.327422 -0.0242,-0.161634 -0.0882,-0.330491 -0.14208,-0.375232 -0.0539,-0.04474 -0.098,-0.147188 -0.098,-0.227647 0,-0.08049 -0.059,-0.262097 -0.13118,-0.403622 -0.0721,-0.141499 -0.15009,-0.3434025 -0.1732,-0.4486535 -0.0231,-0.105278 -0.0825,-0.224975 -0.13195,-0.266012 -0.0494,-0.04104 -0.10912,-0.17698 -0.13259,-0.302102 -0.0235,-0.125121 -0.0874,-0.24466 -0.14216,-0.265668 -0.0547,-0.0209 -0.0995,-0.111019 -0.0995,-0.200051 0,-0.08903 -0.0608,-0.239157 -0.13509,-0.333613 -0.0743,-0.09446 -0.1351,-0.230638 -0.1351,-0.302604 0,-0.07197 -0.0608,-0.18587 -0.13509,-0.253127 -0.0743,-0.06723 -0.13509,-0.17862 -0.13509,-0.247544 0,-0.0689 -0.0608,-0.177324 -0.1351,-0.240956 -0.0743,-0.06361 -0.13509,-0.181187 -0.13509,-0.26125 0,-0.08006 -0.0473,-0.184891 -0.10523,-0.232913 -0.0579,-0.04802 -0.15015,-0.180948 -0.20507,-0.295354 -0.19056,-0.396981 -0.30531,-0.579517 -0.36431,-0.579517 -0.0326,0 -0.0801,-0.0684 -0.1054,-0.151976 -0.0254,-0.08358 -0.10664,-0.218202 -0.18065,-0.299138 -0.074,-0.08094 -0.12219,-0.184309 -0.10705,-0.229712 0.0663,-0.19886 1.39702,1.949662 2.19485,3.543618 1.24375,2.4848605 2.0353,3.7015735 2.60147,3.9988065 0.23595,0.123851 0.61755,0.122184 0.86114,-0.0037 0.29842,-0.154305 0.75078,-0.71493 1.21648,-1.507595 0.59391,-1.010868 0.91982,-1.5216455 1.34503,-2.1079355 2.06027,-2.840725 4.62534,-4.439549 7.79841,-4.860793 0.59888,-0.07951 2.45779,-0.08284 3.01784,-0.0056 0.27449,0.03794 0.0805,0.05395 -0.74302,0.06128 -0.80066,0.0071 -1.16492,0.03622 -1.29347,0.103293 -0.0984,0.05136 -0.39351,0.114909 -0.65577,0.141261 -0.27381,0.02749 -0.5103,0.08821 -0.55545,0.142637 -0.0433,0.0521 -0.14637,0.09475 -0.22915,0.09475 -0.19569,0 -0.57597,0.133086 -0.57597,0.20156 0,0.02932 -0.13429,0.07342 -0.29843,0.09803 -0.16414,0.02461 -0.33504,0.08887 -0.37978,0.142769 -0.0447,0.0539 -0.13432,0.098 -0.19906,0.098 -0.0647,0 -0.195,0.0608 -0.28946,0.135096 -0.0945,0.07429 -0.21604,0.135096 -0.27018,0.135096 -0.0541,0 -0.17573,0.0608 -0.27019,0.135096 -0.0945,0.0743 -0.2003,0.135097 -0.23519,0.135097 -0.0349,0 -0.13354,0.0608 -0.21921,0.135096 -0.0857,0.07429 -0.192,0.135096 -0.23628,0.135096 -0.0443,0 -0.13553,0.06077 -0.20278,0.135096 -0.0672,0.0743 -0.16163,0.135097 -0.20975,0.135097 -0.0481,0 -0.1118,0.03807 -0.14151,0.08461 -0.0297,0.04654 -0.1908,0.17526 -0.35798,0.285989 -0.16718,0.110754 -0.36573,0.262651 -0.44122,0.337555 -0.0755,0.07488 -0.3156,0.288158 -0.53358,0.473895 -0.21798,0.185764 -0.53616,0.486834 -0.70708,0.669052 -0.17092,0.182219 -0.37915,0.398489 -0.46274,0.480589 -0.0836,0.08207 -0.15198,0.183753 -0.15198,0.225954 0,0.04218 -0.0484,0.07668 -0.10764,0.07668 -0.0592,0 -0.12355,0.0608 -0.14298,0.135096 -0.0194,0.0743 -0.0549,0.135096 -0.0789,0.135096 -0.0407,0 -0.22924,0.237199 -0.98952,1.2445465 -0.16613,0.220107 -0.30205,0.437224 -0.30205,0.482468 0,0.04527 -0.0456,0.0998 -0.10132,0.121179 -0.0557,0.02143 -0.10132,0.08078 -0.10132,0.131974 0,0.05122 -0.0608,0.163222 -0.13509,0.248867 -0.0743,0.08567 -0.1351,0.192009 -0.1351,0.2363 0,0.04429 -0.0608,0.135519 -0.13509,0.202776 -0.0743,0.06723 -0.1351,0.173673 -0.1351,0.236538 0,0.06286 -0.0608,0.184388 -0.13509,0.27006 -0.0743,0.08567 -0.13509,0.199522 -0.13509,0.252968 0,0.05347 -0.0608,0.174519 -0.1351,0.268976 -0.0743,0.09446 -0.13509,0.216032 -0.13509,0.270192 0,0.05413 -0.0608,0.175736 -0.1351,0.270193 -0.0743,0.09446 -0.13509,0.239897 -0.13509,0.323215 0,0.08332 -0.0448,0.188674 -0.0995,0.234103 -0.0547,0.04543 -0.11939,0.193543 -0.14365,0.329115 -0.0243,0.135573 -0.0884,0.297339 -0.14261,0.35949 -0.0542,0.06212 -0.1151,0.244501 -0.13542,0.405262 -0.0203,0.160787 -0.0784,0.340148 -0.12902,0.398595 -0.0506,0.05842 -0.11225,0.256011 -0.13688,0.439049 -0.0246,0.183039 -0.0838,0.393594 -0.13153,0.467889 -0.0477,0.07429 -0.10789,0.370655 -0.13374,0.658575 -0.0385,0.428625 -0.0678,0.523504 -0.16152,0.523504 -0.063,0 -0.13479,-0.02037 -0.15956,-0.04503 z"
       id="path23661"
       inkscape:connector-curvature="0" />
    <path
       style="opacity:1;fill:#212e21;fill-opacity:1;fill-rule:nonzero;stroke:none;stroke-width:0.5289278;stroke-miterlimit:4;stroke-dasharray:none;stroke-opacity:1"
       d="m -937.60395,33.841008 c -0.0389,-0.0962 -0.0708,-0.29787 -0.0708,-0.4481 0,-0.15023 -0.0373,-0.2962 -0.083,-0.3244 -0.0456,-0.0282 -0.11062,-0.22418 -0.14441,-0.43551 -0.0338,-0.21132 -0.10392,-0.38422 -0.15584,-0.38422 -0.0519,0 -0.0944,-0.0901 -0.0944,-0.200189 0,-0.110119 -0.0612,-0.314298 -0.1359,-0.45376 -0.0747,-0.139462 -0.22608,-0.446987 -0.3363,-0.683419 -0.11023,-0.236431 -0.32792,-0.644789 -0.48376,-0.907494 -0.15585,-0.262705 -0.31368,-0.542105 -0.35074,-0.620924 -0.14843,-0.315648 -1.08674,-1.514687 -1.617,-2.066343 -0.95554,-0.994093 -2.49802,-2.041261 -3.00675,-2.041261 -0.10077,0 -0.18321,-0.0399 -0.18321,-0.08866 0,-0.04876 -0.24717,-0.11864 -0.54927,-0.155284 -0.3021,-0.03662 -0.6523,-0.11946 -0.77822,-0.184045 l -0.22894,-0.117422 0.25283,-0.06347 c 0.13905,-0.0349 0.25282,-0.105622 0.25282,-0.157163 0,-0.05151 0.0545,-0.09369 0.12105,-0.09369 0.18555,0 1.08007,-0.81907 1.32196,-1.210468 0.31468,-0.509165 0.31096,-1.378374 -0.008,-1.894126 -0.26175,-0.423122 -0.71135,-0.875824 -1.00503,-1.012005 -0.10508,-0.04871 -0.363,-0.193728 -0.57315,-0.322236 -0.21016,-0.128508 -0.45733,-0.235532 -0.54928,-0.237807 -0.0919,-0.0026 -0.16717,-0.04371 -0.16717,-0.09207 0,-0.04837 -0.1397,-0.115332 -0.31046,-0.148855 -0.17075,-0.0335 -0.39643,-0.0962 -0.50151,-0.139303 -0.26457,-0.108585 -1.39821,-0.304192 -2.17919,-0.376026 l -0.65078,-0.05985 0.3642,-0.177694 c 0.20031,-0.09771 0.42868,-0.213704 0.50749,-0.25773 0.0788,-0.04403 0.30692,-0.168858 0.50692,-0.277363 0.4551,-0.246909 0.53285,-0.30996 1.20238,-0.975175 0.29985,-0.297921 0.62827,-0.712496 0.72983,-0.921279 l 0.18466,-0.379651 0.24992,0.685536 c 0.13746,0.377031 0.42862,1.066826 0.64702,1.53289 0.78346,1.671849 3.74518,6.727031 5.18059,8.842401 2.0459,3.015086 2.9038,3.125311 4.83329,0.620924 0.45066,-0.584914 0.93871,-1.536223 1.25955,-2.455042 0.29657,-0.849339 0.68104,-2.625355 0.68104,-3.146028 0,-0.159332 0.0322,-0.273976 0.0716,-0.254794 0.13431,0.06546 0.64411,0.294164 0.94582,0.424312 0.16555,0.07144 0.34825,0.129858 0.40598,0.129858 0.0577,0 0.10497,0.043 0.10497,0.09554 0,0.05255 0.0778,0.09552 0.1728,0.09552 0.095,0 0.25623,0.06313 0.35822,0.140255 0.10198,0.07713 0.2714,0.142981 0.37648,0.146315 0.10508,0.0034 0.27449,0.06921 0.37648,0.146341 0.10198,0.07713 0.31197,0.140255 0.46663,0.140255 h 0.2812 l -0.22781,0.167164 c -0.1253,0.09194 -0.39977,0.250614 -0.60992,0.35261 -0.3292,0.159782 -0.88513,0.536761 -1.6214,1.099476 -0.6811,0.520568 -2.53398,2.679383 -2.53398,2.95238 0,0.05128 -0.033,0.107553 -0.0734,0.125069 -0.0886,0.03842 -0.69084,0.974672 -0.69084,1.073917 0,0.03855 -0.0645,0.134593 -0.14329,0.213386 -0.0788,0.07882 -0.14329,0.226193 -0.14329,0.327528 0,0.101335 -0.0347,0.184229 -0.0771,0.184229 -0.0424,0 -0.15149,0.182695 -0.24236,0.405977 -0.0909,0.223308 -0.22811,0.527685 -0.30496,0.676434 -0.0769,0.148749 -0.13974,0.344699 -0.13974,0.435478 0,0.09078 -0.0631,0.248496 -0.14025,0.350493 -0.0771,0.10197 -0.14162,0.298715 -0.1433,0.437198 -0.002,0.138482 -0.0673,0.37491 -0.14573,0.52538 -0.0785,0.1505 -0.14297,0.42625 -0.14329,0.61275 -2.7e-4,0.18651 -0.0399,0.37994 -0.088,0.42987 -0.0481,0.0499 -0.10221,0.1982 -0.12027,0.32956 -0.0283,0.20598 -0.0426,0.21477 -0.10361,0.0638 z"
       id="path23663"
       inkscape:connector-curvature="0" />
    <path
       style="opacity:1;fill:#212e21;fill-opacity:1;fill-rule:nonzero;stroke:none;stroke-width:0.5289278;stroke-miterlimit:4;stroke-dasharray:none;stroke-opacity:1"
       d="m -933.41971,19.716704 c -0.0351,-0.331496 -0.10405,-0.836321 -0.15333,-1.121807 -0.0493,-0.285485 -0.0879,-0.90879 -0.0859,-1.38512 0.004,-0.830315 0.009,-0.853255 0.13868,-0.555625 0.11775,0.270934 0.18115,0.310912 0.49777,0.313849 0.19956,0.0026 0.4703,0.06482 0.60165,0.139912 0.13134,0.07509 0.35449,0.138033 0.49587,0.139911 0.14138,0.0026 0.28158,0.04305 0.31156,0.09155 0.03,0.0485 0.1923,0.118454 0.36072,0.155443 0.16842,0.03699 0.37212,0.102314 0.45265,0.145177 0.2264,0.120438 1.83669,0.642382 2.10471,0.682175 0.13135,0.01958 -0.0509,0.06929 -0.40498,0.110649 -0.35409,0.04138 -0.66828,0.114829 -0.6982,0.163248 -0.0299,0.04842 -0.15788,0.08803 -0.28434,0.08803 -0.12647,0 -0.3926,0.06924 -0.5914,0.153882 -0.88432,0.376423 -1.03853,0.445135 -1.17344,0.522684 -0.0788,0.0453 -0.28102,0.151977 -0.44935,0.237094 -0.16834,0.08509 -0.35629,0.215238 -0.41768,0.289216 -0.0614,0.07398 -0.1567,0.134487 -0.21181,0.134487 -0.0551,0 -0.17428,0.06705 -0.26484,0.149014 -0.15375,0.139144 -0.16886,0.109114 -0.22838,-0.453761 z"
       id="path23665"
       inkscape:connector-curvature="0" />
    <path
       style="opacity:1;fill:#212e21;fill-opacity:1;fill-rule:nonzero;stroke:none;stroke-width:0.5289278;stroke-miterlimit:4;stroke-dasharray:none;stroke-opacity:1"
       d="m -918.59372,17.657188 c -0.4325,-0.530993 -1.94535,-2.036816 -2.31621,-2.305421 -0.49812,-0.360812 -1.06984,-0.867357 -0.98115,-0.869288 0.0383,0 0.38977,0.105939 0.78105,0.237278 2.09202,0.702284 3.81599,0.0032 7.65112,-3.102319 2.0106,-1.6281395 3.83791,-3.0590855 3.90639,-3.0590855 0.0319,0 0.0579,0.03966 0.0579,0.08813 0,0.11049 -2.05304,2.1683655 -2.86639,2.8731625 -0.33348,0.288951 -0.70274,0.611373 -0.8206,0.716439 -0.11785,0.105092 -0.31286,0.273711 -0.43336,0.374756 -1.65782,1.389962 -3.52172,3.273107 -3.52172,3.55809 0,0.06985 -0.0398,0.127 -0.0884,0.127 -0.0955,0 -0.96242,1.379855 -0.96242,1.531805 0,0.17309 -0.19206,0.09244 -0.40628,-0.17055 z"
       id="path23667"
       inkscape:connector-curvature="0" />
    <path
       style="opacity:1;fill:#212e21;fill-opacity:1;fill-rule:nonzero;stroke:none;stroke-width:0.5289278;stroke-miterlimit:4;stroke-dasharray:none;stroke-opacity:1"
       d="m -897.59583,13.630547 c -0.0361,-0.05845 -10e-4,-0.104855 0.0794,-0.104855 0.0793,0 0.17856,-0.06033 0.22057,-0.134064 0.042,-0.07374 0.3831,-0.299429 0.75797,-0.501518 0.37486,-0.202088 0.97668,-0.539379 1.33736,-0.749538 0.36069,-0.210158 0.68803,-0.396451 0.72743,-0.413967 0.0394,-0.01746 0.0717,0.06966 0.0717,0.193702 0,0.448151 0.41983,0.874236 1.41853,1.43965 l 0.63528,0.359649 -1.4329,-0.04593 c -2.04702,-0.06567 -2.0199,-0.06567 -2.92601,0 -0.55705,0.04101 -0.84546,0.0267 -0.88925,-0.04416 z"
       id="path23669"
       inkscape:connector-curvature="0" />
    <path
       style="opacity:1;fill:#212e21;fill-opacity:1;fill-rule:nonzero;stroke:none;stroke-width:0.5289278;stroke-miterlimit:4;stroke-dasharray:none;stroke-opacity:1"
       d="m -886.28286,21.809823 c -0.005,-0.05972 -0.128,-0.133165 -0.27248,-0.163248 -0.14448,-0.03008 -0.52061,-0.117343 -0.83585,-0.193887 -0.31524,-0.07657 -0.58917,-0.142795 -0.60873,-0.147214 -0.12186,-0.02741 0.27511,-0.326231 0.70116,-0.527791 0.55327,-0.261725 2.00757,-1.13866 2.27242,-1.37025 0.35761,-0.312658 0.26095,-0.0061 -0.16165,0.51263 -0.54256,0.666062 -0.91709,1.292992 -1.01301,1.695715 -0.0396,0.166423 -0.0765,0.253761 -0.0819,0.194045 z"
       id="path23671"
       inkscape:connector-curvature="0" />
    <path
       style="opacity:1;fill:#212e21;fill-opacity:1;fill-rule:nonzero;stroke:none;stroke-width:0.5289278;stroke-miterlimit:4;stroke-dasharray:none;stroke-opacity:1"
       d="m -869.67113,49.913128 c 0,-0.18079 -0.0417,-0.35449 -0.0928,-0.38603 -0.051,-0.0315 -0.12116,-0.27146 -0.15588,-0.53316 -0.0347,-0.26173 -0.10044,-0.49893 -0.14605,-0.52711 -0.0456,-0.0282 -0.0832,-0.16695 -0.0835,-0.30831 -2.6e-4,-0.1414 -0.0648,-0.38018 -0.14329,-0.53068 -0.0785,-0.15049 -0.1427,-0.38944 -0.1427,-0.53102 0,-0.14158 -0.0631,-0.34083 -0.14025,-0.44283 -0.0771,-0.102 -0.14298,-0.2929 -0.14633,-0.42423 -0.003,-0.13137 -0.0692,-0.32227 -0.14632,-0.42426 -0.0771,-0.10197 -0.14025,-0.26377 -0.14025,-0.35952 0,-0.0957 -0.0367,-0.24873 -0.0815,-0.33996 -0.0448,-0.0912 -0.14613,-0.31634 -0.22517,-0.50022 -0.23829,-0.55446 -1.06364,-2.24145 -1.12166,-2.29262 -0.0298,-0.0262 -0.17727,-0.24119 -0.32776,-0.47762 -0.36977,-0.58095 -1.37488,-1.52977 -1.8866,-1.78099 -0.78154,-0.38365 -0.89504,-0.41405 -1.65903,-0.44429 -0.53225,-0.0212 -0.69897,-0.0537 -0.54928,-0.10769 0.11822,-0.0426 0.21494,-0.11123 0.21494,-0.1525 0,-0.0413 0.11821,-0.12052 0.26269,-0.17614 0.14449,-0.0556 0.47763,-0.23116 0.74033,-0.39018 0.26269,-0.15901 0.54211,-0.31562 0.62092,-0.348 0.0788,-0.0324 0.27051,-0.11589 0.426,-0.18558 0.15549,-0.0697 0.31504,-0.10671 0.35457,-0.0823 0.11255,0.0696 1.32953,2.25324 1.99076,3.57208 1.53656,3.06481 2.49974,5.87272 2.63989,7.69597 0.0341,0.44323 0.0341,0.80586 9e-5,0.80586 -0.034,0 -0.0619,-0.14792 -0.0619,-0.32871 z"
       id="path23673"
       inkscape:connector-curvature="0" />
    <path
       style="opacity:1;fill:#212e21;fill-opacity:1;fill-rule:nonzero;stroke:none;stroke-width:0.5289278;stroke-miterlimit:4;stroke-dasharray:none;stroke-opacity:1"
       d="m -863.43745,45.202848 c 0.58092,-2.07607 2.06933,-6.36436 2.46667,-7.10681 l 0.11192,-0.2091 0.11323,0.21156 c 0.1862,0.34793 0.91267,1.05148 1.72564,1.67127 l 0.76421,0.58258 -0.4457,0.0638 c -0.77446,0.11094 -1.72612,0.68315 -2.58709,1.55559 -0.40117,0.40651 -0.47784,0.5075 -0.85042,1.12043 -0.17069,0.2808 -0.334,0.53205 -0.3629,0.55832 -0.0289,0.0262 -0.2432,0.42389 -0.47621,0.88363 -0.40708,0.80315 -0.55876,1.02394 -0.45935,0.66868 z"
       id="path23675"
       inkscape:connector-curvature="0" />
    <path
       style="opacity:1;fill:#212e21;fill-opacity:1;fill-rule:nonzero;stroke:none;stroke-width:0.5289278;stroke-miterlimit:4;stroke-dasharray:none;stroke-opacity:1"
       d="m -868.12475,54.926478 c -0.11496,-0.1555 -0.21038,-0.35968 -0.21206,-0.45376 -0.002,-0.0941 -0.0661,-0.25448 -0.14328,-0.35645 -0.0771,-0.102 -0.14025,-0.28215 -0.14025,-0.40037 0,-0.11819 -0.043,-0.24148 -0.0955,-0.27395 -0.0525,-0.0325 -0.0955,-0.14139 -0.0955,-0.24206 0,-0.15031 0.0487,-0.17328 0.2725,-0.12854 0.84874,0.16976 2.07711,-1.21801 3.3949,-3.83548 0.44423,-0.88233 0.62482,-1.16491 0.6275,-0.98184 0.002,0.14139 -0.0343,0.28062 -0.0809,0.3094 -0.0466,0.0288 -0.114,0.20857 -0.14982,0.3995 -0.0358,0.19095 -0.0994,0.41711 -0.14131,0.50257 -0.0969,0.19757 -0.28648,0.73986 -0.38838,1.11067 -0.0959,0.3492 -0.2745,0.8526 -0.44558,1.25627 -0.0702,0.16558 -0.12757,0.37034 -0.12757,0.45506 0,0.0847 -0.0386,0.22868 -0.0857,0.3199 -0.0472,0.0912 -0.15925,0.35931 -0.24912,0.59574 -0.0899,0.23643 -0.22324,0.54396 -0.29638,0.68342 -0.0731,0.13946 -0.13299,0.32216 -0.13299,0.40598 0,0.0838 -0.0401,0.15245 -0.0891,0.15245 -0.049,0 -0.11783,0.0906 -0.15297,0.20124 -0.11896,0.37484 -0.35839,0.56295 -0.71646,0.56295 -0.2692,0 -0.38784,-0.0608 -0.55193,-0.2827 z"
       id="path23677"
       inkscape:connector-curvature="0" />
    <path
       style="opacity:1;fill:#212e21;fill-opacity:1;fill-rule:nonzero;stroke:none;stroke-width:0.37400842;stroke-miterlimit:4;stroke-dasharray:none;stroke-opacity:1"
       d="m -855.61056,31.202055 c 0.26006,-0.124195 0.92877,-0.417909 1.48604,-0.652727 1.47741,-0.622512 1.92909,-0.968692 1.48444,-1.137735 -0.22977,-0.08736 -1.41166,-0.181927 -3.34199,-0.267414 -1.96797,-0.08713 -3.07405,-0.28493 -3.78263,-0.67646 -0.2938,-0.162322 -0.14876,-0.17399 0.42517,-0.03416 0.47031,0.114565 1.88705,0.273023 3.35746,0.375523 0.53869,0.03757 1.33389,0.12782 1.7671,0.200607 0.43322,0.07276 0.88307,0.132318 0.99968,0.132318 0.1166,0 0.29408,0.04125 0.3944,0.09168 0.10032,0.0504 0.28879,0.111072 0.41882,0.134832 0.36456,0.06654 0.8589,0.330597 0.93966,0.501888 0.0812,0.17235 0.0889,0.167032 -0.39929,0.27686 -0.44554,0.100224 -0.87144,0.213942 -1.21584,0.32467 -0.16718,0.05374 -0.45433,0.128509 -0.6381,0.166159 -0.18377,0.03762 -0.39571,0.111575 -0.47097,0.16428 -0.0753,0.05273 -0.20728,0.09586 -0.29337,0.09586 -0.0861,0 -0.27569,0.06077 -0.42133,0.135096 -0.14565,0.07429 -0.30447,0.135097 -0.35293,0.135097 -0.0485,0 -0.20156,0.06077 -0.34019,0.135069 -0.13863,0.07432 -0.30536,0.132689 -0.3705,0.129726 -0.0652,-0.0029 0.0943,-0.106998 0.35437,-0.231167 z"
       id="path23679"
       inkscape:connector-curvature="0" />
    <path
       style="opacity:1;fill:#212e21;fill-opacity:1;fill-rule:nonzero;stroke:none;stroke-width:0.37400842;stroke-miterlimit:4;stroke-dasharray:none;stroke-opacity:1"
       d="m -835.29468,53.850208 c -0.11574,-0.14264 -0.28818,-0.71663 -0.28818,-0.9593 0,-0.12404 -0.0429,-0.34708 -0.0953,-0.49562 -0.0524,-0.14854 -0.12896,-0.547 -0.17011,-0.88548 -0.0412,-0.33848 -0.10378,-0.69157 -0.13917,-0.78465 -0.0354,-0.0931 -0.0835,-0.37476 -0.10699,-0.62593 -0.0234,-0.25119 -0.0829,-0.62388 -0.13213,-0.82822 -0.0492,-0.20431 -0.10905,-0.58428 -0.13296,-0.84434 -0.0239,-0.26003 -0.0855,-0.6704 -0.13683,-0.91186 -0.10361,-0.48723 -0.26597,-1.55305 -0.4013,-2.63435 -0.0488,-0.39008 -0.10751,-0.75483 -0.13043,-0.81055 -0.0229,-0.0558 -0.0868,-0.40529 -0.14197,-0.77679 -0.2281,-1.53612 -0.34318,-2.169 -0.41829,-2.30055 -0.0437,-0.0765 -0.10918,-0.33483 -0.14559,-0.57415 -0.10201,-0.67035 -0.27694,-1.54747 -0.38316,-1.92114 -0.0528,-0.18576 -0.11403,-0.47453 -0.13609,-0.64172 -0.022,-0.16716 -0.0822,-0.44074 -0.13372,-0.60791 -0.0918,-0.29794 -0.21346,-0.77904 -0.4015,-1.58736 -0.0519,-0.22292 -0.15953,-0.61804 -0.23928,-0.8781 -0.0798,-0.26006 -0.17637,-0.59442 -0.2147,-0.74303 -0.0383,-0.14859 -0.1273,-0.42275 -0.19772,-0.60923 -0.0704,-0.18648 -0.12908,-0.38404 -0.13034,-0.43905 -0.001,-0.055 -0.061,-0.22159 -0.1328,-0.37021 -0.0718,-0.14859 -0.13154,-0.29998 -0.1328,-0.33641 -0.003,-0.0816 -0.40957,-1.148269 -0.64445,-1.690004 -0.87202,-2.011203 -1.70562,-3.50856 -2.66765,-4.791736 -0.0929,-0.123878 -0.21446,-0.293185 -0.27019,-0.376238 -0.0557,-0.08305 -0.13637,-0.187774 -0.17922,-0.232701 -0.0428,-0.04493 -0.23699,-0.272838 -0.43144,-0.506492 -0.49874,-0.599307 -1.22602,-1.314211 -1.85609,-1.824513 -0.2965,-0.240136 -0.55429,-0.455057 -0.57286,-0.477573 -0.0291,-0.03524 -0.70948,-0.504905 -1.02415,-0.70694 -0.0579,-0.03715 -0.18445,-0.123587 -0.28131,-0.192062 -0.2375,-0.167931 -0.99334,-0.15867 -1.66661,0.02037 -0.27864,0.07411 -0.58624,0.135441 -0.68356,0.136314 -0.0973,0 -0.36725,0.06239 -0.59984,0.136683 -0.23258,0.07429 -0.5329,0.134594 -0.66738,0.133985 -0.21475,0 -0.16046,-0.03746 0.44612,-0.299958 1.38053,-0.597429 2.19286,-1.195625 2.28411,-1.682009 l 0.0448,-0.238786 0.33387,0.229658 c 0.61882,0.425662 1.33488,1.012164 1.33801,1.095931 0.003,0.08273 -0.0761,0.109484 -0.54899,0.185234 l -0.24814,0.03977 0.16153,0.161528 c 0.0888,0.08885 0.22331,0.181134 0.2988,0.205105 0.0755,0.02408 0.13727,0.07149 0.13727,0.105649 0,0.03416 0.10638,0.106547 0.23641,0.160866 0.13003,0.05435 0.23641,0.130731 0.23641,0.169783 0,0.03905 0.0453,0.07099 0.10075,0.07099 0.0554,0 0.13872,0.0608 0.18512,0.135096 0.0464,0.07429 0.11177,0.135097 0.14527,0.135097 0.0673,0 0.69288,0.518027 1.04,0.861218 0.12212,0.120756 0.23672,0.219525 0.25465,0.219525 0.0179,0 0.11571,0.09364 0.21728,0.208068 0.10157,0.114433 0.29146,0.319617 0.42198,0.455957 0.33868,0.353748 0.87721,0.997638 0.87721,1.048835 0,0.02381 0.0622,0.11176 0.13823,0.195342 0.22278,0.244951 0.2938,0.337449 0.50562,0.6586 0.11027,0.167164 0.22404,0.314325 0.25283,0.327025 0.0288,0.0127 0.098,0.119089 0.15379,0.236406 0.14654,0.308186 0.26316,0.499215 0.3909,0.640371 0.0617,0.06821 0.11221,0.170074 0.11221,0.226404 0,0.05633 0.0608,0.157453 0.1351,0.224684 0.0743,0.06726 0.13509,0.173699 0.13509,0.236564 0,0.06284 0.0608,0.184361 0.1351,0.270034 0.0743,0.08567 0.13509,0.184335 0.13509,0.219207 0,0.0349 0.0608,0.140732 0.13509,0.235188 0.0743,0.09448 0.1351,0.224737 0.1351,0.289481 0,0.06474 0.0448,0.154887 0.0995,0.200316 0.0547,0.04543 0.1197,0.190103 0.14435,0.321468 0.0247,0.131392 0.10144,0.295513 0.17065,0.364728 0.0692,0.06921 0.12584,0.19812 0.12584,0.286438 0,0.08832 0.0436,0.196824 0.097,0.241089 0.0533,0.04426 0.11752,0.177165 0.14261,0.295328 0.0251,0.118189 0.0845,0.260455 0.13192,0.316203 0.0475,0.05572 0.10885,0.207248 0.13644,0.336735 0.0276,0.129487 0.088,0.296651 0.13438,0.371502 0.0463,0.07485 0.10349,0.24048 0.12704,0.368062 0.0235,0.127605 0.084,0.279585 0.13444,0.337735 0.0504,0.0582 0.10825,0.23731 0.12857,0.39807 0.0203,0.16079 0.081,0.34316 0.13488,0.40529 0.0539,0.0621 0.11693,0.25937 0.14014,0.43833 0.0232,0.17894 0.0881,0.39087 0.14419,0.47096 0.0561,0.0801 0.102,0.2381 0.102,0.35113 0,0.113 0.0608,0.3189 0.13509,0.45754 0.0743,0.13865 0.13509,0.35976 0.13509,0.49141 0,0.13163 0.0608,0.35851 0.1351,0.50417 0.0743,0.14562 0.13509,0.38769 0.13509,0.53792 0,0.15021 0.0608,0.38656 0.1351,0.52517 0.0864,0.16121 0.13509,0.38111 0.13509,0.61005 0,0.21582 0.0433,0.42416 0.1091,0.52451 0.0603,0.0921 0.12411,0.37034 0.14268,0.62244 0.0185,0.25077 0.0767,0.52474 0.1295,0.60888 0.0528,0.0841 0.11486,0.39852 0.13801,0.69866 0.0247,0.3202 0.0936,0.64672 0.16668,0.7901 0.087,0.17058 0.12459,0.39142 0.12459,0.7311 0,0.29236 0.0295,0.49651 0.0739,0.51133 0.0992,0.0331 0.18972,0.5302 0.19333,1.06204 0.002,0.2953 0.0367,0.47101 0.1086,0.55049 0.0768,0.0848 0.11655,0.32642 0.14548,0.88342 0.0231,0.4436 0.0765,0.82362 0.1269,0.90178 0.0479,0.0743 0.10863,0.45426 0.13498,0.84433 0.0264,0.39011 0.0863,0.77005 0.13315,0.84434 0.0469,0.0743 0.10541,0.43905 0.13007,0.81058 0.0247,0.3715 0.0848,0.76666 0.13361,0.8781 0.0488,0.11147 0.11055,0.50512 0.13716,0.87476 0.0266,0.36968 0.0873,0.73443 0.13481,0.81058 0.0475,0.0761 0.10195,0.3968 0.12092,0.71258 0.02,0.33261 0.0798,0.65939 0.14225,0.77679 0.0629,0.11835 0.10881,0.37123 0.11029,0.60793 0.002,0.28382 0.0498,0.50181 0.16037,0.72737 l 0.15783,0.3221 0.3254,-0.49096 c 0.17897,-0.27003 0.35776,-0.52186 0.39732,-0.55965 0.0921,-0.0879 0.28364,-0.41849 0.38097,-0.65743 0.0645,-0.15846 0.26509,-0.26797 0.26509,-0.14476 0,0.0375 -1.24654,1.94892 -1.35171,2.0727 -0.025,0.0294 -0.0774,0.0143 -0.11633,-0.0338 z"
       id="path23681"
       inkscape:connector-curvature="0" />
    <path
       style="opacity:1;fill:#212e21;fill-opacity:1;fill-rule:nonzero;stroke:none;stroke-width:0.5289278;stroke-miterlimit:4;stroke-dasharray:none;stroke-opacity:1"
       d="m -796.6983,32.210008 c -0.16373,-0.0662 0.30657,-0.446534 1.0456,-0.845525 1.47399,-0.795814 2.36857,-1.213459 2.49514,-1.164908 0.13098,0.05027 0.8293,0.943928 1.20947,1.547813 l 0.18042,0.28657 -1.78633,-0.03246 c -1.40532,-0.02566 -1.91133,-5.3e-5 -2.3724,0.1194 -0.32234,0.0835 -0.60135,0.14849 -0.62004,0.14433 -0.0187,-0.004 -0.087,-0.029 -0.15186,-0.0552 z"
       id="path23683"
       inkscape:connector-curvature="0" />
    <path
       style="opacity:1;fill:#212e21;fill-opacity:1;fill-rule:nonzero;stroke:none;stroke-width:0.5289278;stroke-miterlimit:4;stroke-dasharray:none;stroke-opacity:1"
       d="m -791.99445,38.888118 c -0.47246,-0.0177 -0.89473,-0.0679 -0.93837,-0.11152 -0.0436,-0.0436 0.085,-0.1801 0.28586,-0.30324 0.31533,-0.1933 0.76509,-0.56565 1.23825,-1.02513 0.10916,-0.10599 0.13008,-0.0448 0.13057,0.38212 2.7e-4,0.27958 0.0648,0.63145 0.14329,0.78195 0.16213,0.31085 0.17176,0.35525 0.0711,0.32766 -0.0394,-0.0109 -0.4582,-0.0341 -0.93066,-0.0518 z"
       id="path23685"
       inkscape:connector-curvature="0" />
    <path
       style="opacity:1;fill:#212e21;fill-opacity:1;fill-rule:nonzero;stroke:none;stroke-width:0.5289278;stroke-miterlimit:4;stroke-dasharray:none;stroke-opacity:1"
       d="m -776.7947,56.523478 c -0.0344,-0.37071 -0.10494,-0.75306 -0.15664,-0.84969 -0.0517,-0.0966 -0.094,-0.41211 -0.094,-0.70109 0,-0.289 -0.0469,-0.64648 -0.10414,-0.79438 -0.0573,-0.14791 -0.14269,-0.61281 -0.18976,-1.03312 -0.0471,-0.42032 -0.15243,-1.1081 -0.23415,-1.52842 -0.0817,-0.42032 -0.19125,-0.99547 -0.2434,-1.2781 -0.0521,-0.28265 -0.13633,-0.59147 -0.18706,-0.68627 -0.0507,-0.0948 -0.0938,-0.29345 -0.0956,-0.44138 -0.003,-0.14793 -0.0648,-0.37645 -0.13991,-0.50779 -0.0751,-0.13134 -0.13804,-0.32893 -0.13992,-0.43908 -0.003,-0.11014 -0.071,-0.33581 -0.15367,-0.50151 -0.0827,-0.16569 -0.13639,-0.37135 -0.1194,-0.45699 0.0183,-0.0919 0.33229,0.30956 0.76607,0.97917 1.32734,2.04898 2.37072,3.18865 2.91923,3.18865 0.22339,0 0.23027,-0.0441 -0.18621,1.19409 -0.053,0.15761 -0.11745,0.39404 -0.1432,0.52538 -0.0257,0.13137 -0.10734,0.37428 -0.18137,0.53983 -0.074,0.16558 -0.13457,0.39182 -0.13457,0.50282 0,0.11099 -0.0399,0.27643 -0.0886,0.36766 -0.1012,0.18939 -0.33896,0.97184 -0.43466,1.4305 -0.0355,0.17015 -0.10424,0.33388 -0.15274,0.36385 -0.0485,0.03 -0.0882,0.17942 -0.0882,0.33208 0,0.17285 -0.067,0.31345 -0.17767,0.37267 -0.16319,0.0873 -0.1828,0.0401 -0.24034,-0.57888 z"
       id="path23687"
       inkscape:connector-curvature="0" />
    <path
       style="opacity:1;fill:#212e21;fill-opacity:1;fill-rule:nonzero;stroke:none;stroke-width:0.5289278;stroke-miterlimit:4;stroke-dasharray:none;stroke-opacity:1"
       d="m -769.2299,41.180578 c 0.93795,-1.00383 1.61944,-1.78522 2.56882,-2.94526 0.1924,-0.23511 0.33446,-0.33684 0.38208,-0.27358 0.0658,0.0873 0.33243,0.23923 1.04796,0.59692 0.0958,0.0479 0.30978,0.1577 0.47551,0.244 0.16571,0.0863 0.36989,0.15693 0.45374,0.15693 0.0838,0 0.15242,0.0347 0.15242,0.0771 0,0.0424 0.11822,0.1238 0.26271,0.18089 0.26175,0.10343 0.26138,0.10383 -0.0986,0.11396 -0.19872,0.006 -0.51562,0.0746 -0.70424,0.15346 -0.18862,0.0788 -0.44024,0.14327 -0.55917,0.14327 -0.11893,0 -0.33935,0.0642 -0.48985,0.14272 -0.15047,0.0785 -0.34882,0.14295 -0.44077,0.14327 -0.0919,0 -0.16719,0.0436 -0.16719,0.0961 0,0.0525 -0.0901,0.0955 -0.20018,0.0955 -0.17642,0 -0.47649,0.12571 -0.94612,0.3963 -0.0788,0.0454 -0.20775,0.11173 -0.28657,0.1474 -0.40074,0.18134 -1.44222,0.86907 -1.87307,1.23687 -0.26834,0.2291 -0.51903,0.41653 -0.55708,0.41653 -0.0381,0 0.40278,-0.50508 0.97959,-1.12241 z"
       id="path23689"
       inkscape:connector-curvature="0" />
    <path
       style="opacity:1;fill:#212e21;fill-opacity:1;fill-rule:nonzero;stroke:none;stroke-width:0.5289278;stroke-miterlimit:4;stroke-dasharray:none;stroke-opacity:1"
       d="m -765.75954,33.409558 c 0.0336,-1.67323 0.0472,-1.780439 0.28363,-2.23076 0.26451,-0.503819 0.46681,-0.66204 0.46681,-0.365125 0,0.0994 0.0631,0.264187 0.14025,0.366184 0.0772,0.10197 0.14163,0.261223 0.1433,0.35388 0.003,0.09266 0.0434,0.243125 0.0927,0.334354 0.0493,0.09123 0.2437,0.488257 0.43196,0.882307 0.36703,0.76822 0.50794,1.01526 0.6963,1.22076 0.0657,0.0716 0.11941,0.17619 0.11941,0.2323 0,0.16561 -0.31441,0.35563 -0.59381,0.35891 -0.14269,0.003 -0.4006,0.0619 -0.57316,0.13385 -0.17254,0.0719 -0.44265,0.17413 -0.60027,0.22707 -0.15761,0.0529 -0.36665,0.12949 -0.4645,0.1701 -0.17052,0.0708 -0.17647,0 -0.14266,-1.68383 z"
       id="path23691"
       inkscape:connector-curvature="0" />
    <path
       style="opacity:1;fill:#212e21;fill-opacity:1;fill-rule:nonzero;stroke:none;stroke-width:0.5289278;stroke-miterlimit:4;stroke-dasharray:none;stroke-opacity:1"
       d="m -752.57792,31.781096 c -0.43685,-0.683578 -0.74626,-1.052222 -1.09855,-1.308973 -0.70779,-0.515832 -2.07732,-1.160648 -2.46512,-1.160648 -0.10126,0 -0.32171,-0.07218 -0.48985,-0.160391 l -0.3057,-0.160363 0.88249,-0.128509 c 0.48535,-0.07067 1.14848,-0.211269 1.4736,-0.312473 0.32512,-0.101176 0.62653,-0.162083 0.66982,-0.13536 0.0433,0.02675 0.0787,0.173593 0.0787,0.326337 0,0.152744 0.0703,0.440346 0.15624,0.639154 0.39571,0.915432 0.66212,1.433433 0.86521,1.682273 0.12121,0.148511 0.22037,0.308901 0.22037,0.356368 0,0.04749 0.15328,0.32594 0.3406,0.618754 0.1873,0.292843 0.32703,0.569093 0.31044,0.613913 -0.0167,0.0448 -0.30377,-0.34671 -0.63823,-0.870082 z"
       id="path23693"
       inkscape:connector-curvature="0" />
    <path
       style="opacity:1;fill:#212e21;fill-opacity:1;fill-rule:nonzero;stroke:none;stroke-width:0.5289278;stroke-miterlimit:4;stroke-dasharray:none;stroke-opacity:1"
       d="m -739.88578,27.544243 c -0.0499,-0.131339 -0.13483,-0.238812 -0.18867,-0.238812 -0.0538,0 -0.0979,-0.107474 -0.0979,-0.238813 0,-0.13134 -0.04,-0.238813 -0.0888,-0.238813 -0.0489,0 -0.18545,-0.193437 -0.3035,-0.429869 -0.11809,-0.236432 -0.25006,-0.429868 -0.29329,-0.429868 -0.0432,0 -0.0786,-0.06448 -0.0786,-0.143299 0,-0.07879 -0.0401,-0.143272 -0.0891,-0.143272 -0.049,0 -0.11636,-0.08599 -0.14972,-0.191082 -0.0334,-0.105119 -0.21315,-0.352292 -0.39958,-0.549275 l -0.3389,-0.358193 0.27371,-0.03154 c 0.76404,-0.088 1.38941,-1.415388 2.23544,-4.744773 0.37388,-1.471348 0.46244,-1.728496 0.4677,-1.358159 0.004,0.251248 -0.058,0.611135 -0.13679,0.799756 -0.11702,0.280061 -0.1433,0.891461 -0.1433,3.334703 0,1.891453 -0.0351,3.013471 -0.0955,3.050804 -0.0527,0.03254 -0.0955,0.460084 -0.0955,0.953082 0,0.491702 -0.0262,0.962025 -0.058,1.045131 -0.0878,0.228944 -0.3175,0.180922 -0.41966,-0.08771 z"
       id="path23695"
       inkscape:connector-curvature="0" />
    <path
       style="opacity:1;fill:#212e21;fill-opacity:1;fill-rule:nonzero;stroke:none;stroke-width:0.5289278;stroke-miterlimit:4;stroke-dasharray:none;stroke-opacity:1"
       d="m -718.50707,0.6635035 c 0,-0.05794 0.0564,-0.105331 0.1253,-0.105331 0.26575,0 1.34932,-0.830262 1.64643,-1.261533 l 0.30969,-0.449527 0.25871,0.373327 c 0.14232,0.205343 0.48424,0.586608 0.75983,0.847275 l 0.50109,0.473895 -0.96467,0.0535 c -0.53057,0.02942 -1.3408,0.08054 -1.80054,0.113612 -0.58174,0.04183 -0.83584,0.0281 -0.83584,-0.04522 z"
       id="path23697"
       inkscape:connector-curvature="0" />
    <path
       style="opacity:1;fill:#212e21;fill-opacity:1;fill-rule:nonzero;stroke:none;stroke-width:0.5289278;stroke-miterlimit:4;stroke-dasharray:none;stroke-opacity:1"
       d="m -711.05604,6.4819815 c -0.25101,-0.145547 -1.08024,-0.360944 -1.64663,-0.427699 -0.30144,-0.03551 -0.6867,-0.133746 -0.85614,-0.218254 l -0.30805,-0.153697 0.23521,-0.06713 c 1.00364,-0.286438 2.08259,-0.535172 2.65441,-0.611928 0.39785,-0.05342 0.41023,-0.04741 0.33485,0.16174 -0.10033,0.278421 -0.10072,0.919215 0,1.19634 0.0625,0.173249 0.0439,0.213863 -0.096,0.209338 -0.0955,-0.0032 -0.2381,-0.04302 -0.31689,-0.08871 z"
       id="path23699"
       inkscape:connector-curvature="0" />
    <path
       style="opacity:1;fill:#212e21;fill-opacity:1;fill-rule:nonzero;stroke:none;stroke-width:0.5289278;stroke-miterlimit:4;stroke-dasharray:none;stroke-opacity:1"
       d="m -706.51857,14.204772 c -0.46579,-0.365046 -1.72585,-1.037167 -1.94442,-1.037167 -0.0602,0 -0.10938,-0.08554 -0.10938,-0.190076 0,-0.249635 0.854,-0.817192 1.64592,-1.09392 l 0.6009,-0.209973 -0.0346,0.6849 c -0.0249,0.491913 0.0227,0.894424 0.16938,1.428406 0.11219,0.408887 0.1918,0.754406 0.1769,0.767794 -0.0148,0.01349 -0.24201,-0.144092 -0.50472,-0.349964 z"
       id="path23701"
       inkscape:connector-curvature="0" />
    <path
       style="opacity:1;fill:#212e21;fill-opacity:1;fill-rule:nonzero;stroke:none;stroke-width:0.5289278;stroke-miterlimit:4;stroke-dasharray:none;stroke-opacity:1"
       d="m -702.58696,21.645332 c -0.21762,-0.974143 -0.4309,-1.76329 -0.56145,-2.077509 -0.0546,-0.131339 -0.13171,-0.367771 -0.1714,-0.525383 -0.0397,-0.157612 -0.10493,-0.366368 -0.14501,-0.463894 -0.0513,-0.124804 0.0592,-0.07649 0.37327,0.163248 0.6059,0.462518 1.23923,0.558694 1.91752,0.29128 0.18277,-0.07207 0.18269,-0.06832 -0.004,0.206798 -0.46924,0.691489 -0.92433,1.882907 -1.04659,2.739999 -0.0356,0.249555 -0.0921,0.453654 -0.12554,0.453548 -0.0334,-1.32e-4 -0.14,-0.354753 -0.23681,-0.788087 z"
       id="path23703"
       inkscape:connector-curvature="0" />
    <path
       style="opacity:1;fill:#212e21;fill-opacity:1;fill-rule:nonzero;stroke:none;stroke-width:0.5289278;stroke-miterlimit:4;stroke-dasharray:none;stroke-opacity:1"
       d="m -695.94603,14.065892 c 0.48983,-0.55671 1.06127,-1.221078 1.26987,-1.476375 0.32046,-0.392165 0.40198,-0.445532 0.52541,-0.34409 0.16576,0.136286 1.08736,0.579014 1.41179,0.678259 0.3352,0.102526 0.25924,0.189838 -0.33433,0.384281 -0.3021,0.09898 -0.65675,0.23151 -0.78808,0.294481 -1.20283,0.576871 -1.7548,0.856641 -2.24486,1.137761 -0.31525,0.180843 -0.60854,0.330835 -0.65178,0.333349 -0.0432,0.0026 0.32216,-0.45093 0.81198,-1.007666 z"
       id="path23705"
       inkscape:connector-curvature="0" />
    <path
       style="opacity:1;fill:#212e21;fill-opacity:1;fill-rule:nonzero;stroke:none;stroke-width:0.5289278;stroke-miterlimit:4;stroke-dasharray:none;stroke-opacity:1"
       d="m -691.93494,9.1793825 c 0.0175,-0.0394 0.38314,-0.596794 0.81248,-1.23862 0.42934,-0.641853 0.80838,-1.254416 0.8423,-1.361255 0.0906,-0.285539 0.23982,-0.236458 0.23982,0.07887 0,0.245189 0.19235,0.670957 0.72977,1.615334 0.15571,0.273579 0.15997,0.323691 0.0344,0.404522 -0.0788,0.05072 -0.28045,0.09289 -0.44809,0.09372 -0.16764,0 -0.33139,0.04445 -0.36386,0.09697 -0.0325,0.05255 -0.26069,0.09742 -0.50715,0.09972 -0.24646,0.0026 -0.62005,0.06615 -0.83021,0.141843 -0.4323,0.155761 -0.55549,0.172403 -0.50948,0.0689 z"
       id="path23707"
       inkscape:connector-curvature="0" />
    <path
       style="opacity:1;fill:#212e21;fill-opacity:1;fill-rule:nonzero;stroke:none;stroke-width:0.5289278;stroke-miterlimit:4;stroke-dasharray:none;stroke-opacity:1"
       d="m -686.21931,1.5181335 c 0.29628,-0.253232 2.59908,-1.796653 2.7899,-1.869889 0.10911,-0.04186 0.12994,0.01191 0.0955,0.246459 -0.0669,0.456115 0.16526,1.026557 0.54541,1.339903 0.18603,0.153352 0.2962,0.280617 0.24485,0.282787 -0.0514,0.0026 -0.86718,0.0164 -1.81288,0.03175 -0.94572,0.01534 -1.80546,0.06046 -1.91053,0.100435 -0.15398,0.05858 -0.14472,0.03307 0.0478,-0.131445 z"
       id="path23709"
       inkscape:connector-curvature="0" />
    <path
       style="opacity:1;fill:#212e21;fill-opacity:1;fill-rule:nonzero;stroke:none;stroke-width:0.5289278;stroke-miterlimit:4;stroke-dasharray:none;stroke-opacity:1"
       d="m -669.78935,14.623105 c -0.21328,-0.600075 -0.68728,-2.106877 -0.68728,-2.184797 0,-0.02683 0.11327,0.0403 0.2517,0.149198 0.35362,0.278157 0.55134,0.248709 0.98986,-0.147478 0.43566,-0.393595 0.48376,-0.308108 0.24807,0.440981 -0.21185,0.673311 -0.43883,1.679151 -0.43883,1.944449 0,0.443944 -0.16677,0.351102 -0.36352,-0.202353 z"
       id="path23711"
       inkscape:connector-curvature="0" />
    <path
       style="opacity:1;fill:#212e21;fill-opacity:1;fill-rule:nonzero;stroke:none;stroke-width:0.5289278;stroke-miterlimit:4;stroke-dasharray:none;stroke-opacity:1"
       d="m -651.75355,-3.7144515 c -1.36599,-0.03561 -1.48299,-0.07348 -0.98631,-0.31922 0.51205,-0.253338 1.15925,-1.177872 1.29937,-1.856157 0.0526,-0.254371 0.13036,-0.05374 0.20981,0.541072 0.0692,0.517605 0.61053,1.208988 1.18386,1.511935 l 0.34708,0.18341 -0.47763,-0.01614 c -0.2627,-0.009 -0.97197,-0.0291 -1.57618,-0.04485 z"
       id="path23713"
       inkscape:connector-curvature="0" />
    <path
       style="opacity:1;fill:#212e21;fill-opacity:1;fill-rule:nonzero;stroke:none;stroke-width:0.5289278;stroke-miterlimit:4;stroke-dasharray:none;stroke-opacity:1"
       d="m -643.85806,4.6896675 c -0.0441,-0.07115 -0.92562,-0.518556 -1.6179,-0.821134 -0.19881,-0.08692 -0.45673,-0.159517 -0.57317,-0.161396 -0.11642,-0.0026 -0.31914,-0.06482 -0.45051,-0.139911 -0.13133,-0.07506 -0.42431,-0.138034 -0.65106,-0.139886 -0.22674,-0.0026 -0.49543,-0.04789 -0.59703,-0.102288 -0.23029,-0.123243 -0.24008,-0.367056 -0.0177,-0.43815 0.55559,-0.177561 1.59258,-0.685614 2.26448,-1.109424 l 0.66443,-0.4191 0.34795,1.056666 c 0.1914,0.581158 0.46196,1.324028 0.60132,1.650815 0.13933,0.326787 0.25331,0.616956 0.25331,0.644816 0,0.07681 -0.17362,0.06054 -0.22421,-0.0209 z"
       id="path23715"
       inkscape:connector-curvature="0" />
    <path
       style="opacity:1;fill:#212e21;fill-opacity:1;fill-rule:nonzero;stroke:none;stroke-width:0.5289278;stroke-miterlimit:4;stroke-dasharray:none;stroke-opacity:1"
       d="m -624.95911,4.3695485 c 0.23376,-0.215477 0.66638,-0.706887 0.96139,-1.092041 l 0.53636,-0.700273 0.76422,0.566658 c 0.42032,0.311653 0.82857,0.566632 0.90721,0.566632 0.24844,0 0.0812,0.220795 -0.26083,0.344382 -0.18071,0.0653 -0.50633,0.121972 -0.72358,0.125994 -0.21725,0.004 -0.60415,0.06763 -0.85974,0.14142 -1.26569,0.365416 -1.54077,0.438997 -1.64116,0.438997 -0.0599,0 0.0824,-0.176292 0.31613,-0.391769 z"
       id="path23717"
       inkscape:connector-curvature="0" />
    <path
       style="opacity:1;fill:#212e21;fill-opacity:1;fill-rule:nonzero;stroke:none;stroke-width:0.5289278;stroke-miterlimit:4;stroke-dasharray:none;stroke-opacity:1"
       d="m -620.18222,-0.1649605 c -0.2627,-0.0731 -0.76507,-0.133746 -1.11636,-0.134752 l -0.6387,-0.0026 0.48641,-1.190519 c 0.26755,-0.654764 0.51943,-1.17012 0.55973,-1.145196 0.0403,0.02487 0.10305,0.184494 0.13943,0.354648 0.0898,0.420132 0.81563,1.490556 1.2327,1.817978 0.1869,0.146712 0.3398,0.307922 0.3398,0.35822 0,0.12573 -0.43124,0.100568 -1.00301,-0.05853 z"
       id="path23719"
       inkscape:connector-curvature="0" />
    <path
       style="opacity:1;fill:#212e21;fill-opacity:1;fill-rule:nonzero;stroke:none;stroke-width:0.5289278;stroke-miterlimit:4;stroke-dasharray:none;stroke-opacity:1"
       d="m -601.53267,30.784304 c -0.0824,-0.197193 -0.14531,-0.626136 -0.14417,-0.98298 0,-0.348218 -0.0634,-1.073758 -0.1433,-1.612291 l -0.29061,-1.958261 c -0.19656,-1.324451 -0.17354,-1.400492 0.14525,-0.479663 0.50858,1.469073 0.87887,1.888596 1.41999,1.608799 0.14539,-0.07519 0.38611,-0.31242 0.53494,-0.527182 0.14885,-0.214762 0.28292,-0.378195 0.29795,-0.363141 0.022,0.02196 -0.30533,1.016027 -0.55851,1.695583 -0.0293,0.07879 -0.0764,0.229261 -0.10465,0.334327 -0.0791,0.294984 -0.58483,1.707621 -0.64973,1.815015 -0.0317,0.05252 -0.0876,0.234739 -0.12407,0.404866 -0.0954,0.444764 -0.21587,0.46519 -0.38309,0.06493 z"
       id="path23721"
       inkscape:connector-curvature="0" />
    <path
       style="opacity:1;fill:#212e21;fill-opacity:1;fill-rule:nonzero;stroke:none;stroke-width:0.5289278;stroke-miterlimit:4;stroke-dasharray:none;stroke-opacity:1"
       d="m -571.35188,20.997949 c -0.4716,-0.521123 -2.31434,-1.559454 -3.35161,-1.888569 -0.67069,-0.212805 -0.67413,-0.403649 -0.0132,-0.732288 0.27583,-0.13716 0.71644,-0.376131 0.97914,-0.531071 0.77153,-0.455057 1.47884,-0.77425 1.57877,-0.712497 0.0511,0.03159 0.0929,0.136234 0.0929,0.232543 0,0.247041 0.51893,2.207947 0.80827,3.05435 0.13338,0.390101 0.2425,0.723265 0.2425,0.74033 0,0.09462 -0.18466,0.0053 -0.33685,-0.162798 z"
       id="path23723"
       inkscape:connector-curvature="0" />
    <path
       style="opacity:1;fill:#212e21;fill-opacity:1;fill-rule:nonzero;stroke:none;stroke-width:0.5289278;stroke-miterlimit:4;stroke-dasharray:none;stroke-opacity:1"
       d="m -558.78211,20.318949 c -0.003,-0.03347 0.14065,-0.635265 0.31943,-1.337363 0.33076,-1.299078 0.63029,-2.878667 0.63016,-3.323273 -8e-5,-0.224207 0.0661,-0.182721 0.75075,0.470588 0.41297,0.394044 0.99124,0.866881 1.28508,1.050793 0.69157,0.432779 0.70882,0.764196 0.0398,0.764196 -0.45783,0 -1.41197,0.607139 -2.10306,1.33821 -0.37894,0.400843 -0.74017,0.811821 -0.80275,0.913262 -0.0626,0.101441 -0.11634,0.157057 -0.11943,0.123587 z"
       id="path23725"
       inkscape:connector-curvature="0" />
    <path
       style="opacity:1;fill:#212e21;fill-opacity:1;fill-rule:nonzero;stroke:none;stroke-width:0.5289278;stroke-miterlimit:4;stroke-dasharray:none;stroke-opacity:1"
       d="m -550.58643,8.9045335 c 0.71668,-0.705644 0.94128,-1.190466 0.8278,-1.786943 l -0.0575,-0.302472 0.27861,0.316468 c 0.34366,0.390367 0.73898,1.11424 0.82097,1.50331 0.0672,0.319061 0.0961,0.305567 -1.52156,0.713211 -1.08183,0.272653 -1.07916,0.27604 -0.3483,-0.443574 z"
       id="path23727"
       inkscape:connector-curvature="0" />
    <path
       style="opacity:1;fill:#212e21;fill-opacity:1;fill-rule:nonzero;stroke:none;stroke-width:0.5289278;stroke-miterlimit:4;stroke-dasharray:none;stroke-opacity:1"
       d="m -565.48509,34.111648 c -0.35161,-0.38912 -0.68265,-1.23134 -0.79695,-2.027525 l -0.0614,-0.427461 0.47688,0.679056 c 0.51861,0.73845 0.89083,1.08336 1.16917,1.08336 0.0981,0 0.35018,-0.17711 0.56028,-0.39362 0.21011,-0.21648 0.38201,-0.36034 0.38201,-0.31967 0,0.21029 -0.50766,1.1021 -0.77758,1.36599 -0.38021,0.37171 -0.64268,0.38272 -0.95245,0.0399 z"
       id="path23729"
       inkscape:connector-curvature="0" />
    <path
       style="opacity:1;fill:#212e21;fill-opacity:1;fill-rule:nonzero;stroke:none;stroke-width:0.5289278;stroke-miterlimit:4;stroke-dasharray:none;stroke-opacity:1"
       d="m -541.60557,27.486644 c -0.0337,-0.125942 -0.0621,-0.723318 -0.0631,-1.327521 0,-0.604202 -0.0407,-1.248992 -0.0882,-1.432904 -0.0475,-0.183885 -0.11517,-0.804227 -0.15031,-1.378558 l -0.0639,-1.044231 0.31801,0.414443 c 0.69217,0.902018 1.2945,1.061111 2.22506,0.587693 0.31332,-0.159412 0.58029,-0.279215 0.59328,-0.266224 0.013,0.01296 -0.1574,0.317262 -0.37862,0.676169 -0.22125,0.358907 -0.47011,0.765387 -0.55306,0.903287 -0.15409,0.25617 -0.73718,1.3217 -1.17073,2.139395 -0.13293,0.250693 -0.3239,0.568669 -0.42439,0.706623 l -0.18272,0.250825 z"
       id="path23731"
       inkscape:connector-curvature="0" />
    <path
       style="opacity:1;fill:#212e21;fill-opacity:1;fill-rule:nonzero;stroke:none;stroke-width:0.5289278;stroke-miterlimit:4;stroke-dasharray:none;stroke-opacity:1"
       d="m -517.93103,28.199881 c -0.0929,-0.14179 -0.70561,-0.808249 -1.36154,-1.480979 -0.70448,-0.72255 -1.1724,-1.275874 -1.14321,-1.351941 0.0272,-0.0708 0.30091,-0.25781 0.60827,-0.415555 0.30737,-0.157744 0.85678,-0.453099 1.2209,-0.656325 0.53797,-0.300276 0.64741,-0.334778 0.58412,-0.184124 -0.24511,0.583512 -0.33071,0.89109 -0.33446,1.201764 -0.005,0.444659 0.22905,1.672405 0.47072,2.465388 0.10324,0.338799 0.17341,0.63029 0.15592,0.647805 -0.0175,0.01746 -0.10782,-0.08422 -0.20072,-0.226033 z"
       id="path23733"
       inkscape:connector-curvature="0" />
    <path
       style="opacity:1;fill:#212e21;fill-opacity:1;fill-rule:nonzero;stroke:none;stroke-width:0.5289278;stroke-miterlimit:4;stroke-dasharray:none;stroke-opacity:1"
       d="m -510.72208,40.733038 c -0.35365,-0.23207 -1.33435,-1.71011 -1.33435,-2.011 0,-0.0308 0.26771,0.1668 0.59489,0.43908 0.57084,0.47506 1.06773,0.75375 1.34395,0.75375 0.27789,0 1.00031,-0.59085 1.44944,-1.18544 0.25897,-0.34282 0.48485,-0.60931 0.50197,-0.59219 0.0866,0.0866 -0.5883,1.48404 -1.00261,2.07602 -0.54785,0.7828 -0.94827,0.91678 -1.55329,0.51978 z"
       id="path23735"
       inkscape:connector-curvature="0" />
    <path
       style="opacity:1;fill:#212e21;fill-opacity:1;fill-rule:nonzero;stroke:none;stroke-width:0.5289278;stroke-miterlimit:4;stroke-dasharray:none;stroke-opacity:1"
       d="m -504.00029,29.024905 c 0.0254,-0.131366 0.17476,-0.733161 0.33208,-1.337363 0.15732,-0.604203 0.33525,-1.506935 0.39539,-2.006045 0.0601,-0.499136 0.13216,-0.999066 0.16005,-1.110959 l 0.0507,-0.203438 0.2413,0.223626 c 0.13271,0.123005 0.4195,0.313373 0.63733,0.423069 0.2178,0.109723 0.4605,0.235611 0.53932,0.27977 0.11457,0.06422 0.82434,0.403199 0.93361,0.445903 0.10695,0.04178 -0.15571,0.352874 -0.47794,0.566129 -0.7252,0.479927 -1.63531,1.368689 -2.09984,2.050626 -0.0895,0.131339 -0.29665,0.389255 -0.46038,0.573141 -0.27876,0.313081 -0.29477,0.319167 -0.25164,0.09554 z"
       id="path23737"
       inkscape:connector-curvature="0" />
    <path
       style="opacity:1;fill:#212e21;fill-opacity:1;fill-rule:nonzero;stroke:none;stroke-width:0.5289278;stroke-miterlimit:4;stroke-dasharray:none;stroke-opacity:1"
       d="m -423.36032,-2.3553665 c -0.239,-0.451908 -0.55332,-1.010232 -0.86042,-1.528418 -0.15568,-0.262705 -0.3315,-0.574358 -0.39071,-0.692573 -0.0592,-0.118216 -0.14372,-0.214921 -0.18783,-0.214921 -0.0441,0 -0.0802,-0.04556 -0.0802,-0.10123 0,-0.05567 -0.16936,-0.323347 -0.37637,-0.59481 -0.20701,-0.271462 -0.36652,-0.503423 -0.35448,-0.515461 0.0122,-0.01191 0.21365,0.04493 0.44801,0.126577 0.86694,0.302048 1.88146,-0.0098 2.84248,-0.873893 0.39557,-0.355679 0.4972,-0.409919 0.4972,-0.265403 0,0.09991 -0.0631,0.265112 -0.14025,0.367083 -0.0771,0.101997 -0.14161,0.255746 -0.14328,0.341683 -0.003,0.08594 -0.0672,0.279373 -0.14576,0.429868 -0.0785,0.150495 -0.14295,0.346313 -0.14327,0.435134 0,0.08885 -0.0388,0.185182 -0.0856,0.214048 -0.0467,0.02889 -0.10584,0.192643 -0.13132,0.363881 -0.0254,0.171239 -0.0912,0.440293 -0.1461,0.597906 -0.16274,0.467518 -0.3324,1.20896 -0.39343,1.719474 l -0.0571,0.477626 z"
       id="path23739"
       inkscape:connector-curvature="0" />
    <path
       style="opacity:1;fill:#212e21;fill-opacity:1;fill-rule:nonzero;stroke:none;stroke-width:0.5289278;stroke-miterlimit:4;stroke-dasharray:none;stroke-opacity:1"
       d="m -389.10675,-46.732341 c 0,-0.05255 0.0692,-0.153009 0.15391,-0.223282 0.29411,-0.244078 2.0802,-2.525871 2.6167,-3.342931 0.63331,-0.964486 0.84894,-1.591654 0.67694,-1.969109 -0.14341,-0.314748 -0.0241,-0.407167 0.52863,-0.409231 0.2167,0 0.57674,-0.06593 0.8001,-0.144753 0.22337,-0.07879 0.5755,-0.143272 0.78251,-0.143272 0.20701,0 0.45987,-0.04472 0.56195,-0.09933 0.10207,-0.05464 0.47537,-0.142743 0.82957,-0.195818 0.3542,-0.05308 0.80518,-0.120359 1.00222,-0.149542 0.19701,-0.02916 0.35782,-0.01614 0.35734,0.02865 0,0.04493 -0.44111,0.41365 -0.97914,0.819388 -0.53806,0.405739 -1.21827,0.92157 -1.51164,1.146307 -0.29335,0.224737 -0.67414,0.51607 -0.84619,0.647409 -0.72615,0.554329 -4.07832,3.332745 -4.49488,3.725519 -0.31414,0.296227 -0.47802,0.402484 -0.47802,0.309986 z"
       id="path23741"
       inkscape:connector-curvature="0" />
    <path
       style="opacity:1;fill:#212e21;fill-opacity:1;fill-rule:nonzero;stroke:none;stroke-width:2.11571121;stroke-miterlimit:4;stroke-dasharray:none;stroke-opacity:1"
       d="m -359.12279,-55.99297 c 0,-0.116707 0.98636,-0.66376 2.19191,-1.215681 l 2.19192,-1.003484 -1.13541,-0.464106 c -1.11659,-0.456406 -1.07844,-0.481118 2.2978,-1.48799 1.88828,-0.563113 4.72205,-1.4165 6.29724,-1.896428 l 2.86401,-0.872543 1.72125,0.761101 c 0.94668,0.418597 2.44239,1.044998 3.3238,1.391946 l 1.60261,0.630873 -4.46837,0.892122 c -2.4576,0.49067 -7.12763,1.473596 -10.37783,2.184241 -6.27348,1.371732 -6.50893,1.410784 -6.50893,1.079949 z"
       id="path23743"
       inkscape:connector-curvature="0" />
    <path
       style="opacity:1;fill:#032426;fill-opacity:1;fill-rule:nonzero;stroke:none;stroke-width:0.37400842;stroke-miterlimit:4;stroke-dasharray:none;stroke-opacity:1"
       d="m 72.31328,-59.304177 c -1.0182,-0.0209 -1.7018,-0.06247 -1.7851,-0.108691 -0.074,-0.04122 -0.3023,-0.16129 -0.5066,-0.266858 -0.2723,-0.140626 -0.5758,-0.413835 -1.1362,-1.022694 -0.4206,-0.456962 -0.7467,-0.830818 -0.7247,-0.830818 0.022,0 0.2776,0.119406 0.5678,0.265324 1.7531,0.881433 4.2927,1.409276 7.8022,1.621631 0.5893,0.03567 1.0883,0.08162 1.1089,0.102156 0.021,0.02037 -0.2164,0.03731 -0.5264,0.03731 -0.3101,0 -0.6571,0.03019 -0.7712,0.06707 -0.3331,0.107711 -2.2457,0.172058 -4.0287,0.135572 z"
       id="path23745"
       inkscape:connector-curvature="0" />
    <path
       style="opacity:1;fill:#032426;fill-opacity:1;fill-rule:nonzero;stroke:none;stroke-width:0.37400842;stroke-miterlimit:4;stroke-dasharray:none;stroke-opacity:1"
       d="m 98.40658,-44.846338 c -0.1217,-0.07583 -0.2775,-0.137875 -0.3464,-0.137875 -0.069,0 -0.163,-0.04559 -0.2093,-0.101309 -0.046,-0.05575 -0.122,-0.101335 -0.1683,-0.101335 -0.1899,0 -1.6554,-1.288415 -1.6554,-1.45542 0,-0.04104 -0.076,-0.145997 -0.1689,-0.233257 -0.093,-0.08726 -0.1689,-0.210396 -0.1689,-0.273685 0,-0.06329 -0.046,-0.152876 -0.1013,-0.199125 -0.056,-0.04625 -0.1013,-0.119539 -0.1013,-0.162878 0,-0.04331 -0.057,-0.189838 -0.1259,-0.325596 -0.069,-0.135758 -0.1459,-0.372295 -0.1704,-0.525648 -0.025,-0.153326 -0.092,-0.350493 -0.149,-0.438123 -0.057,-0.08763 -0.095,-0.257837 -0.083,-0.378249 0.019,-0.198516 0.042,-0.167745 0.2449,0.330306 0.6017,1.47873 1.5076,2.337541 2.8227,2.675943 0.9602,0.247042 2.8192,0.297418 5.2959,0.143457 0.2787,-0.0172 0.4458,-0.01402 0.3716,0.0071 -0.074,0.02117 -0.1807,0.07652 -0.2365,0.122873 -0.1173,0.09768 -0.565,0.341127 -0.8105,0.440795 -0.093,0.0377 -0.2145,0.09499 -0.2702,0.127265 -0.095,0.05479 -0.2823,0.125651 -0.7768,0.293211 -0.1115,0.03778 -0.2938,0.117766 -0.4053,0.177774 -0.1593,0.08575 -0.4556,0.113638 -1.3847,0.13036 -1.0936,0.01958 -1.1986,0.01085 -1.4032,-0.116575 z"
       id="path23747"
       inkscape:connector-curvature="0" />
    <path
       style="opacity:1;fill:#032426;fill-opacity:1;fill-rule:nonzero;stroke:none;stroke-width:0.37400842;stroke-miterlimit:4;stroke-dasharray:none;stroke-opacity:1"
       d="m 118.75078,-35.645824 c -0.023,-0.102182 -0.1,-0.30935 -0.1701,-0.460401 -0.07,-0.151024 -0.1279,-0.364649 -0.1279,-0.474689 0,-0.110014 -0.042,-0.260006 -0.093,-0.333296 -0.051,-0.07326 -0.1157,-0.239606 -0.1437,-0.369649 -0.028,-0.130016 -0.093,-0.29636 -0.1438,-0.369649 -0.051,-0.07326 -0.093,-0.192564 -0.093,-0.26506 0,-0.128402 0,-0.128191 0.1519,0.0079 0.4581,0.421244 1.0015,0.536681 1.5155,0.321945 0.1345,-0.05622 0.2529,-0.09395 0.263,-0.08382 0.01,0.01006 -0.055,0.170075 -0.1449,0.355495 -0.09,0.18542 -0.1635,0.367982 -0.1638,0.405659 0,0.0377 -0.061,0.18198 -0.1357,0.320622 -0.074,0.138615 -0.1351,0.297736 -0.1351,0.353589 0,0.157824 -0.3616,0.774991 -0.4547,0.776076 -0.046,0 -0.1021,-0.0826 -0.1254,-0.184759 z"
       id="path23749"
       inkscape:connector-curvature="0" />
    <path
       style="opacity:1;fill:#032426;fill-opacity:1;fill-rule:nonzero;stroke:none;stroke-width:0.37400842;stroke-miterlimit:4;stroke-dasharray:none;stroke-opacity:1"
       d="m 139.41848,-37.739789 c -0.056,-0.177774 -0.1463,-0.359384 -0.328,-0.658574 -0.21,-0.345943 -0.3178,-0.584994 -0.2805,-0.622274 0.016,-0.01614 0.1171,0.01588 0.2243,0.07138 0.3633,0.18788 0.9585,0.253126 1.405,0.154014 0.2229,-0.04948 0.4661,-0.114962 0.5404,-0.145521 0.074,-0.03056 -0.055,0.128825 -0.2871,0.354197 -0.2322,0.225373 -0.4221,0.437542 -0.4221,0.471488 0,0.03395 -0.1003,0.158856 -0.2228,0.277601 -0.2514,0.243734 -0.5678,0.292867 -0.6292,0.09768 z"
       id="path23751"
       inkscape:connector-curvature="0" />
    <path
       style="opacity:1;fill:#032426;fill-opacity:1;fill-rule:nonzero;stroke:none;stroke-width:0.2644639;stroke-miterlimit:4;stroke-dasharray:none;stroke-opacity:1"
       d="m 174.59128,-37.030177 c -0.045,-0.09853 -0.1187,-0.234923 -0.1645,-0.303133 -0.046,-0.06821 -0.096,-0.197167 -0.1106,-0.28657 -0.04,-0.238998 -0.1218,-0.473022 -0.1647,-0.473022 -0.021,0 -0.065,-0.134329 -0.098,-0.298529 -0.033,-0.164174 -0.1114,-0.374888 -0.1737,-0.46826 -0.062,-0.09334 -0.1133,-0.234262 -0.1133,-0.313108 0,-0.07887 -0.052,-0.213122 -0.1144,-0.29837 -0.063,-0.08525 -0.1282,-0.247624 -0.1452,-0.360839 -0.017,-0.113215 -0.084,-0.277495 -0.1484,-0.365072 -0.068,-0.09173 -0.1175,-0.224632 -0.1175,-0.313479 0,-0.09194 -0.045,-0.208756 -0.1125,-0.289242 -0.062,-0.07424 -0.1269,-0.213413 -0.1445,-0.309272 -0.018,-0.09583 -0.077,-0.231298 -0.1318,-0.301043 -0.055,-0.06972 -0.09,-0.136366 -0.078,-0.148113 0.035,-0.03508 2.9508,3.64019 2.9508,3.719433 0,0.12192 -0.9027,0.987716 -1.0298,0.987716 -0.012,0 -0.059,-0.08059 -0.1037,-0.179097 z"
       id="path23753"
       inkscape:connector-curvature="0" />
    <path
       style="opacity:1;fill:#032426;fill-opacity:1;fill-rule:nonzero;stroke:none;stroke-width:0.2644639;stroke-miterlimit:4;stroke-dasharray:none;stroke-opacity:1"
       d="m 154.52848,-43.549827 c -0.027,-0.03283 -0.064,-0.183595 -0.083,-0.334989 -0.019,-0.151421 -0.074,-0.325808 -0.1223,-0.387509 -0.049,-0.0617 -0.1079,-0.23786 -0.132,-0.391504 -0.024,-0.153617 -0.067,-0.286888 -0.094,-0.296148 -0.028,-0.0093 -0.087,-0.128349 -0.1312,-0.264583 -0.044,-0.136261 -0.1134,-0.285353 -0.1535,-0.331312 -0.04,-0.04598 -0.051,-0.08358 -0.024,-0.08358 0.027,0 0.074,0.02987 0.1045,0.06641 0.03,0.03651 0.1672,0.117131 0.3043,0.179096 0.2262,0.102262 0.3134,0.112501 0.9418,0.110305 0.712,-0.0026 1.1812,-0.08197 1.8587,-0.314907 0.1422,-0.04889 0.2678,-0.07967 0.2791,-0.06837 0.011,0.01138 -0.062,0.07297 -0.163,0.137028 -0.101,0.06405 -0.2957,0.221429 -0.4327,0.349726 -0.2751,0.257651 -0.5245,0.459264 -0.6136,0.495961 -0.032,0.01323 -0.1811,0.131339 -0.3317,0.262705 -0.1506,0.131339 -0.3384,0.29255 -0.4173,0.358219 -0.079,0.06567 -0.2107,0.185553 -0.2928,0.266436 -0.1346,0.132503 -0.3779,0.306731 -0.4284,0.306731 -0.011,0 -0.042,-0.02688 -0.069,-0.05972 z"
       id="path23755"
       inkscape:connector-curvature="0" />
    <path
       style="opacity:1;fill:#032426;fill-opacity:1;fill-rule:nonzero;stroke:none;stroke-width:0.37400842;stroke-miterlimit:4;stroke-dasharray:none;stroke-opacity:1"
       d="m 192.26958,-41.421334 c -0.1295,-0.07218 -0.2892,-0.131206 -0.3549,-0.131206 -0.066,0 -0.2329,-0.0608 -0.3716,-0.135097 -0.1386,-0.07432 -0.3171,-0.135096 -0.3967,-0.135096 -0.08,0 -0.1785,-0.04069 -0.2197,-0.09041 -0.041,-0.04969 -0.199,-0.127503 -0.3503,-0.172852 -0.3861,-0.115676 -0.3027,-0.236776 0.1908,-0.277125 0.3562,-0.0291 0.4462,-0.06575 0.6523,-0.265562 0.1315,-0.127503 0.2471,-0.218678 0.257,-0.202645 0.01,0.01614 0.094,0.181134 0.1866,0.366898 0.093,0.185738 0.2952,0.527712 0.4499,0.759883 0.1547,0.232199 0.2612,0.420423 0.2366,0.418306 -0.025,-0.0026 -0.1506,-0.06292 -0.28,-0.135096 z"
       id="path23757"
       inkscape:connector-curvature="0" />
    <path
       style="opacity:1;fill:#032426;fill-opacity:1;fill-rule:nonzero;stroke:none;stroke-width:0.37400842;stroke-miterlimit:4;stroke-dasharray:none;stroke-opacity:1"
       d="m 195.87818,-33.742834 c -0.072,-0.04958 -0.2736,-0.105754 -0.4479,-0.124804 -0.1744,-0.01905 -0.362,-0.07964 -0.417,-0.134647 -0.055,-0.05503 -0.2576,-0.118692 -0.4501,-0.141499 -0.1926,-0.02275 -0.3926,-0.0767 -0.4444,-0.119777 -0.052,-0.04305 -0.355,-0.104696 -0.6736,-0.137001 -0.6723,-0.06813 -0.9208,-0.160735 -0.6016,-0.224129 0.111,-0.02196 0.3993,-0.0898 0.6408,-0.150574 0.2414,-0.06077 0.628,-0.135017 0.859,-0.164994 0.2309,-0.02995 0.513,-0.102606 0.6268,-0.161423 0.2114,-0.109325 0.3379,-0.08893 0.338,0.05451 1e-4,0.145864 0.3808,0.886777 0.5721,1.113393 0.2051,0.243072 0.2042,0.332898 0,0.19095 z"
       id="path23759"
       inkscape:connector-curvature="0" />
    <path
       style="opacity:1;fill:#032426;fill-opacity:1;fill-rule:nonzero;stroke:none;stroke-width:0.37400842;stroke-miterlimit:4;stroke-dasharray:none;stroke-opacity:1"
       d="m 199.70228,-28.140124 c -0.044,-0.05334 -0.1772,-0.117422 -0.2953,-0.142372 -0.1182,-0.02487 -0.3097,-0.102923 -0.4255,-0.173223 -0.1159,-0.0703 -0.2603,-0.127793 -0.3211,-0.127793 -0.061,0 -0.2239,-0.0608 -0.3626,-0.135097 -0.1386,-0.07432 -0.3293,-0.135096 -0.4237,-0.135096 -0.094,0 -0.2404,-0.04805 -0.3242,-0.106786 -0.084,-0.05874 -0.3369,-0.132847 -0.5624,-0.164729 -0.4004,-0.0566 -0.6661,-0.205555 -0.6661,-0.373433 0,-0.117422 0.1598,-0.165629 0.5492,-0.165629 0.1846,0 0.4328,-0.05101 0.5517,-0.113374 0.1631,-0.08549 0.4547,-0.120862 1.1858,-0.143828 l 0.9696,-0.03043 -0.082,0.153273 c -0.1383,0.258339 -0.052,0.887677 0.1853,1.347259 0.1962,0.38047 0.2068,0.534749 0.021,0.311255 z"
       id="path23761"
       inkscape:connector-curvature="0" />
    <path
       style="opacity:1;fill:#032426;fill-opacity:1;fill-rule:nonzero;stroke:none;stroke-width:0.37400842;stroke-miterlimit:4;stroke-dasharray:none;stroke-opacity:1"
       d="m 206.34448,-22.35231 c -0.1514,-0.481701 -0.8266,-1.526567 -1.3197,-2.042187 l -0.2466,-0.25781 0.6662,0.03672 c 0.7303,0.04024 1.474,-0.05262 2.0735,-0.258894 0.4586,-0.157771 0.468,-0.158062 0.3387,-0.01085 -0.057,0.06501 -0.1268,0.194204 -0.1549,0.287073 -0.028,0.09287 -0.1076,0.241353 -0.1769,0.329961 -0.069,0.08861 -0.1257,0.214525 -0.1257,0.27985 0,0.06533 -0.042,0.134779 -0.093,0.154358 -0.051,0.01958 -0.1127,0.141367 -0.1369,0.270642 -0.024,0.129249 -0.086,0.269558 -0.1366,0.311759 -0.051,0.0422 -0.113,0.189627 -0.1381,0.327634 -0.053,0.289533 -0.2997,0.688816 -0.4265,0.689477 -0.048,2.65e-4 -0.1033,-0.05273 -0.1237,-0.117739 z"
       id="path23763"
       inkscape:connector-curvature="0" />
    <path
       style="opacity:1;fill:#032426;fill-opacity:1;fill-rule:nonzero;stroke:none;stroke-width:0.37400842;stroke-miterlimit:4;stroke-dasharray:none;stroke-opacity:1"
       d="m 211.01218,-28.769276 c 0.026,-0.102156 0.09,-0.440823 0.1407,-0.752555 0.051,-0.311758 0.1114,-0.585337 0.134,-0.607933 0.022,-0.02249 0.4108,-0.06257 0.8629,-0.08882 0.452,-0.02619 0.9283,-0.05665 1.0583,-0.06755 0.1977,-0.01667 0.2364,0.0026 0.2364,0.114671 0,0.127688 -0.1301,0.223202 -0.743,0.545121 -0.1114,0.05855 -0.3242,0.179731 -0.4728,0.269319 -0.1486,0.08959 -0.3158,0.18423 -0.3715,0.210318 -0.056,0.02619 -0.2401,0.163459 -0.4097,0.305302 -0.3737,0.312579 -0.5027,0.333957 -0.4353,0.07213 z"
       id="path23765"
       inkscape:connector-curvature="0" />
    <path
       style="opacity:1;fill:#032426;fill-opacity:1;fill-rule:nonzero;stroke:none;stroke-width:0.37400842;stroke-miterlimit:4;stroke-dasharray:none;stroke-opacity:1"
       d="m 214.59668,-35.017385 c -0.014,-0.04644 -0.06,-0.233231 -0.1026,-0.415105 -0.042,-0.181848 -0.1494,-0.508609 -0.2377,-0.726123 -0.1755,-0.431747 -0.1355,-0.483446 0.2013,-0.260376 0.1115,0.07382 0.2938,0.134593 0.4053,0.13507 0.1115,0 0.2938,0.04847 0.4053,0.106627 0.1114,0.05818 0.353,0.134329 0.5369,0.169254 0.3556,0.06755 0.4538,0.150918 0.426,0.36187 -0.011,0.08705 -0.097,0.151395 -0.2537,0.191506 -0.13,0.0332 -0.2844,0.103399 -0.343,0.155972 -0.059,0.05255 -0.1832,0.09557 -0.2768,0.09557 -0.093,0 -0.2402,0.06077 -0.3258,0.135096 -0.1754,0.152136 -0.3966,0.17788 -0.4352,0.05064 z"
       id="path23767"
       inkscape:connector-curvature="0" />
    <path
       style="opacity:1;fill:#032426;fill-opacity:1;fill-rule:nonzero;stroke:none;stroke-width:0.37400842;stroke-miterlimit:4;stroke-dasharray:none;stroke-opacity:1"
       d="m 212.72668,-39.374173 c -0.1696,-0.433123 -0.2616,-0.715248 -0.2616,-0.802164 0,-0.07472 0.2032,-0.09282 1.0426,-0.09282 0.5734,0 1.1247,-0.03125 1.2252,-0.06945 0.1004,-0.03818 0.2012,-0.04921 0.2239,-0.02461 0.023,0.02461 0,0.0585 -0.043,0.07509 -0.046,0.01667 -0.084,0.06831 -0.084,0.114987 0,0.09395 -0.2796,0.24138 -0.4591,0.242068 -0.063,2.64e-4 -0.2062,0.06085 -0.3177,0.134646 -0.1114,0.07382 -0.2434,0.134409 -0.2933,0.134673 -0.05,2.38e-4 -0.1679,0.06123 -0.2624,0.13552 -0.094,0.07432 -0.2247,0.135096 -0.2894,0.135096 -0.065,0 -0.1556,0.04559 -0.2018,0.101335 -0.1225,0.147611 -0.1967,0.125148 -0.2788,-0.08445 z"
       id="path23769"
       inkscape:connector-curvature="0" />
    <path
       style="opacity:1;fill:#032426;fill-opacity:1;fill-rule:nonzero;stroke:none;stroke-width:0.37400842;stroke-miterlimit:4;stroke-dasharray:none;stroke-opacity:1"
       d="m 219.06778,-43.111545 c -0.065,-0.03786 -0.1182,-0.102949 -0.1182,-0.144595 0,-0.04167 -0.045,-0.125756 -0.1005,-0.186848 -0.055,-0.06109 -0.119,-0.20328 -0.1415,-0.315992 -0.041,-0.20402 -0.039,-0.205132 0.32,-0.248285 0.4744,-0.05697 1.1379,-0.05649 1.1379,0 0,0.04366 -0.9211,0.970015 -0.9603,0.965835 -0.011,0 -0.072,-0.03305 -0.1374,-0.07091 z"
       id="path23771"
       inkscape:connector-curvature="0" />
    <path
       style="opacity:1;fill:#032426;fill-opacity:1;fill-rule:nonzero;stroke:none;stroke-width:1.05785561;stroke-miterlimit:4;stroke-dasharray:none;stroke-opacity:1"
       d="m 229.32568,-35.691914 c -0.1612,-0.260906 -0.6703,-1.984296 -0.6053,-2.049277 0.03,-0.02958 0.3744,0.109696 0.7663,0.309483 0.5489,0.279876 0.8501,0.323823 1.3117,0.191426 0.859,-0.246354 0.899,-0.05657 0.1392,0.660268 -0.8393,0.791845 -1.46,1.133818 -1.6119,0.8881 z"
       id="path23773"
       inkscape:connector-curvature="0" />
    <path
       style="opacity:1;fill:#032426;fill-opacity:1;fill-rule:nonzero;stroke:none;stroke-width:0.5289278;stroke-miterlimit:4;stroke-dasharray:none;stroke-opacity:1"
       d="m 248.81258,-32.15671 c -0.1142,-0.121603 -0.2077,-0.276014 -0.2077,-0.343138 0,-0.06715 -0.086,-0.232146 -0.1924,-0.36666 -0.2401,-0.305303 -0.189,-0.362691 0.2018,-0.226457 0.4011,0.139832 0.9081,0.12872 1.3519,-0.02966 0.197,-0.0703 0.3582,-0.115702 0.3582,-0.100859 0,0.04215 -1.2257,1.287886 -1.2672,1.287886 -0.02,0 -0.1304,-0.09951 -0.2446,-0.221112 z"
       id="path23775"
       inkscape:connector-curvature="0" />
    <path
       style="opacity:1;fill:#032426;fill-opacity:1;fill-rule:nonzero;stroke:none;stroke-width:0.5289278;stroke-miterlimit:4;stroke-dasharray:none;stroke-opacity:1"
       d="m 262.45618,-28.162349 c -0.087,-0.104695 -0.3173,-0.143272 -0.8555,-0.143272 -0.4051,0 -0.763,-0.02646 -0.7953,-0.05871 -0.083,-0.0835 0.2162,-0.514455 0.3578,-0.514455 0.065,0 0.2949,-0.128112 0.511,-0.284692 l 0.393,-0.284718 0.4333,0.669793 c 0.2383,0.368379 0.4333,0.689953 0.4333,0.71456 0,0.107738 -0.3697,0.03149 -0.4776,-0.0985 z"
       id="path23777"
       inkscape:connector-curvature="0" />
    <path
       style="opacity:1;fill:#032426;fill-opacity:1;fill-rule:nonzero;stroke:none;stroke-width:0.5289278;stroke-miterlimit:4;stroke-dasharray:none;stroke-opacity:1"
       d="m 268.41648,-22.265077 c -0.058,-0.0386 -0.1373,-0.24212 -0.1759,-0.452279 -0.039,-0.210158 -0.1738,-0.601186 -0.3003,-0.868945 -0.1266,-0.267784 -0.2302,-0.531177 -0.2302,-0.585337 0,-0.05419 -0.064,-0.15203 -0.1433,-0.217435 -0.301,-0.249846 -0.1573,-0.334989 0.5118,-0.303133 0.3606,0.0172 0.9053,-0.01508 1.2105,-0.07138 0.3052,-0.05644 0.5728,-0.08472 0.5947,-0.06284 0.04,0.04024 -0.2052,0.651589 -0.3673,0.915008 -0.049,0.07879 -0.1152,0.207751 -0.1483,0.286571 -0.3127,0.745357 -0.6728,1.431739 -0.7506,1.430946 -0.053,0 -0.143,-0.03257 -0.2011,-0.07117 z"
       id="path23779"
       inkscape:connector-curvature="0" />
    <path
       style="opacity:1;fill:#032426;fill-opacity:1;fill-rule:nonzero;stroke:none;stroke-width:0.5289278;stroke-miterlimit:4;stroke-dasharray:none;stroke-opacity:1"
       d="m 275.73588,-29.853592 c 0,-0.07154 0.6505,-1.61962 0.6948,-1.663911 0.027,-0.02754 0.1809,0.01746 0.3407,0.10025 0.1599,0.08268 0.3896,0.150601 0.5104,0.150919 0.1209,0 0.3428,0.0648 0.4933,0.143271 0.1505,0.0785 0.3522,0.142717 0.4481,0.142717 0.096,0 0.199,0.03953 0.2288,0.08787 0.076,0.122687 -0.408,0.484611 -0.6529,0.488394 -0.1923,0.0029 -1.0502,0.271727 -1.2528,0.39251 -0.1077,0.06414 -0.8129,0.201612 -0.8104,0.157982 z"
       id="path23781"
       inkscape:connector-curvature="0" />
    <path
       style="opacity:1;fill:#032426;fill-opacity:1;fill-rule:nonzero;stroke:none;stroke-width:0.5289278;stroke-miterlimit:4;stroke-dasharray:none;stroke-opacity:1"
       d="m 296.08018,-24.699508 c -0.1616,-0.223309 -0.4961,-0.686806 -0.7433,-1.030023 -0.4786,-0.664157 -0.9164,-1.218301 -1.4422,-1.825228 -0.1781,-0.205582 -0.3062,-0.391504 -0.2846,-0.413094 0.022,-0.0217 0.3703,0.188171 0.7748,0.466195 0.9481,0.65159 1.6526,0.884053 2.2588,0.745332 0.2422,-0.05543 0.4597,-0.08144 0.4833,-0.05781 0.023,0.02355 -0.012,0.224287 -0.079,0.445929 -0.067,0.221641 -0.1534,0.617908 -0.1917,0.880586 -0.08,0.547926 -0.3009,1.194091 -0.4088,1.194091 -0.04,0 -0.2055,-0.182695 -0.3671,-0.405976 z"
       id="path23783"
       inkscape:connector-curvature="0" />
    <path
       style="opacity:1;fill:#032426;fill-opacity:1;fill-rule:nonzero;stroke:none;stroke-width:0.37400842;stroke-miterlimit:4;stroke-dasharray:none;stroke-opacity:1"
       d="m 345.41258,-21.22881 c -0.1186,-0.09977 -0.2156,-0.21037 -0.2156,-0.245719 0,-0.0585 -0.2042,-0.374544 -0.3716,-0.575177 -0.037,-0.04453 -0.1891,-0.284454 -0.3377,-0.533136 -0.1486,-0.248708 -0.3344,-0.532262 -0.4129,-0.630105 -0.079,-0.09787 -0.1664,-0.253339 -0.1953,-0.345493 -0.051,-0.163724 -0.2531,-0.480827 -0.4219,-0.662887 -0.046,-0.05009 -0.084,-0.129805 -0.084,-0.177112 0,-0.04731 -0.061,-0.141049 -0.1351,-0.20828 -0.074,-0.06723 -0.1351,-0.155178 -0.1351,-0.195421 0,-0.04024 0.4838,0.409866 1.075,1.000283 l 1.0751,1.073468 0.1577,-0.178753 c 1.1402,-1.292569 1.7153,-1.909259 1.7341,-1.859359 0.013,0.03339 -0.037,0.162851 -0.111,0.287655 -0.074,0.12483 -0.1543,0.319802 -0.1792,0.433282 -0.025,0.113453 -0.089,0.242517 -0.1423,0.286782 -0.053,0.04426 -0.097,0.130413 -0.097,0.191426 0,0.06101 -0.057,0.216879 -0.126,0.346339 -0.069,0.129487 -0.1493,0.341815 -0.1775,0.471832 -0.028,0.130042 -0.093,0.296386 -0.1441,0.369649 -0.051,0.07329 -0.093,0.194866 -0.093,0.270193 -10e-5,0.07533 -0.061,0.236484 -0.1351,0.358113 -0.074,0.121656 -0.1348,0.275405 -0.1348,0.341709 0,0.0663 -0.04,0.174917 -0.088,0.241353 -0.083,0.11393 -0.1006,0.11049 -0.3039,-0.06064 z"
       id="path23785"
       inkscape:connector-curvature="0" />
    <path
       style="opacity:1;fill:#032426;fill-opacity:1;fill-rule:nonzero;stroke:none;stroke-width:0.37400842;stroke-miterlimit:4;stroke-dasharray:none;stroke-opacity:1"
       d="m 367.61618,-18.716406 c -0.3781,-0.343985 -0.7028,-0.61349 -0.871,-0.722974 -0.086,-0.05572 -0.2401,-0.177297 -0.3432,-0.270193 -0.1032,-0.09287 -0.2659,-0.223467 -0.3616,-0.290221 -0.2145,-0.149543 -0.2234,-0.288687 -0.022,-0.342662 0.084,-0.02249 0.507,-0.04114 0.941,-0.04165 h 0.7889 l -0.063,0.219075 c -0.099,0.34364 -0.07,0.861615 0.07,1.266243 0.07,0.203914 0.1215,0.377269 0.1135,0.385206 -0.01,0.0079 -0.1215,-0.08292 -0.2523,-0.201903 z"
       id="path23787"
       inkscape:connector-curvature="0" />
    <path
       style="opacity:1;fill:#032426;fill-opacity:1;fill-rule:nonzero;stroke:none;stroke-width:0.37400842;stroke-miterlimit:4;stroke-dasharray:none;stroke-opacity:1"
       d="m 370.28378,-9.9581685 c -0.3677,-0.3965045 -0.7294,-0.7844635 -0.8037,-0.8621445 -0.1915,-0.200211 -1.1575,-1.489128 -1.2556,-1.675289 -0.045,-0.08541 -0.1,-0.170498 -0.1223,-0.189071 -0.276,-0.229897 -0.4593,-0.795179 -0.3051,-0.941309 0.034,-0.03228 0.4964,-0.08025 1.0276,-0.106574 l 0.9657,-0.04789 -0.054,0.193278 c -0.03,0.106283 -0.05,0.451829 -0.045,0.767847 0.01,0.463921 0.055,0.713132 0.2494,1.294209 0.2379,0.710777 0.5794,1.454997 0.9028,1.9672835 0.091,0.144807 0.1533,0.276172 0.1375,0.291915 -0.016,0.01587 -0.3295,-0.295751 -0.6972,-0.692256 z"
       id="path23789"
       inkscape:connector-curvature="0" />
    <path
       style="opacity:1;fill:#032426;fill-opacity:1;fill-rule:nonzero;stroke:none;stroke-width:0.37400842;stroke-miterlimit:4;stroke-dasharray:none;stroke-opacity:1"
       d="m 377.83568,-2.0257485 c -0.045,-0.04458 -0.081,-0.105515 -0.081,-0.135387 0,-0.02987 -0.2865,-0.41111 -0.6366,-0.847143 -0.3501,-0.43606 -0.629,-0.800417 -0.6198,-0.809678 0.01,-0.0093 0.2274,0.08917 0.4847,0.218731 0.7253,0.365363 1.1695,0.308372 1.7343,-0.222541 0.144,-0.135361 0.1857,-0.150071 0.1857,-0.06548 0,0.06003 -0.044,0.153247 -0.098,0.207116 -0.054,0.0539 -0.119,0.185261 -0.1446,0.291914 -0.026,0.106654 -0.099,0.300303 -0.1631,0.430319 -0.064,0.130043 -0.1371,0.35052 -0.1624,0.489982 -0.025,0.139462 -0.1112,0.314245 -0.1907,0.388408 -0.1688,0.157215 -0.1996,0.162586 -0.3084,0.05376 z"
       id="path23791"
       inkscape:connector-curvature="0" />
    <path
       style="opacity:1;fill:#032426;fill-opacity:1;fill-rule:nonzero;stroke:none;stroke-width:0.37400842;stroke-miterlimit:4;stroke-dasharray:none;stroke-opacity:1"
       d="m 377.16078,-3.5690095 c -0.3991,-0.177245 -1.2072,-0.724535 -1.973,-1.336173 -0.9493,-0.758295 -2.9227,-2.76262 -3.5492,-3.604815 -0.9572,-1.28696 -1.6006,-2.5906155 -1.824,-3.6960715 -0.1488,-0.736467 -0.1054,-1.21232 0.1583,-1.734687 0.2949,-0.584121 0.39,-1.136227 0.2868,-1.665314 -0.1589,-0.815393 -0.5361,-1.329082 -1.5139,-2.061766 -0.987,-0.739616 -1.3122,-1.943973 -0.7993,-2.960079 0.2815,-0.557609 0.3801,-1.119002 0.3301,-1.879891 -0.2491,-3.791373 -3.8372,-9.984528 -6.8554,-11.832246 -0.7727,-0.473075 -1.1608,-0.589994 -1.9718,-0.594148 -0.8297,-0.0042 -1.4492,0.146341 -2.3619,0.574093 -0.6535,0.306228 -1.7915,1.049919 -2.6366,1.723046 -1.0153,0.808699 -3.0822,2.953199 -5.9495,6.172808 -1.5384,1.727518 -2.894,3.247311 -3.0123,3.377354 l -0.2151,0.236405 -2.5884,-2.56921 c -3.0646,-3.041783 -4.1349,-3.964332 -5.7805,-4.98221 -1.3635,-0.843439 -2.0063,-1.079368 -2.9108,-1.068335 -3.8728,0.04723 -8.8794,3.520546 -12.2301,8.484658 -0.8747,1.29585 -1.1069,1.713178 -3.1166,5.601785 -1.0098,1.953895 -1.857,3.565446 -1.8825,3.581215 -0.025,0.01588 -0.9102,-1.390438 -1.966,-3.124914 -2.8206,-4.633357 -3.9625,-6.296184 -5.9928,-8.726197 -1.7539,-2.099204 -2.8648,-3.199818 -4.4078,-4.366921 -1.5533,-1.174883 -2.434,-1.46476 -3.2773,-1.07868 -0.5124,0.23458 -1.2709,1.0042 -2.2157,2.24835 -0.9019,1.187714 -1.5183,1.786096 -2.007,1.948418 -0.7511,0.249449 -1.5307,0.02656 -2.5982,-0.742791 -0.9731,-0.701305 -1.8477,-1.514819 -4.7601,-4.427802 -1.58,-1.580277 -3.2442,-3.198019 -3.6983,-3.594974 -3.759,-3.286521 -6.5426,-4.744349 -8.1608,-4.273946 -1.2903,0.375099 -1.6991,1.974797 -1.2056,4.718182 0.2287,1.271376 0.1205,2.784237 -0.287,4.011718 -0.7571,2.28047 -2.6102,4.492652 -4.6716,5.576808 -1.3264,0.697627 -2.2637,0.91567 -3.7457,0.871353 l -0.3884,-0.01164 v -12.49622 c 0,-10.461069 0.015,-12.496191 0.091,-12.496191 0.05,0 0.6962,0.03016 1.4354,0.06705 3.7783,0.188463 15.2018,0.650161 29.2746,1.183164 22.16,0.839258 42.3927,1.661186 63.1565,2.565612 9.0609,0.394652 30.0281,1.335987 32.355,1.452562 0.7616,0.03818 4.9867,0.236882 9.3891,0.441616 4.4023,0.204735 8.9162,0.416904 10.0307,0.471488 1.1145,0.05461 2.1404,0.09951 2.2797,0.09983 h 0.2533 v 14.657705 c 0,8.525933 -0.025,14.657705 -0.06,14.657705 -0.1008,0 -1.2296,-0.764461 -1.696,-1.148636 -2.2529,-1.855655 -4.9473,-4.915588 -8.9512,-10.165477 -2.6093,-3.4213 -3.6468,-4.67151 -4.7187,-5.685975 -0.8546,-0.808805 -1.4485,-1.133978 -2.0686,-1.132655 -0.729,0.0026 -1.1755,0.31885 -2.1243,1.50958 -0.7259,0.911199 -1.1339,1.307121 -1.7719,1.71958 -1.4286,0.923634 -3.0513,1.144191 -4.476,0.608357 -0.5929,-0.222991 -1.5014,-0.374121 -1.9244,-0.320146 -0.8653,0.110384 -1.5245,0.596318 -1.7551,1.293733 -0.058,0.175366 -0.1967,0.972344 -0.3082,1.771095 -0.296,2.119947 -0.5206,3.274112 -1.275,6.552062 -0.3719,1.616075 -0.8146,3.607012 -0.9839,4.424336 -0.4731,2.284439 -0.6389,2.965238 -0.9568,3.929406 -1.0121,3.0699085 -2.9179,6.3307925 -4.1938,7.1759775 -0.375,0.248338 -0.7717,0.271171 -1.2236,0.07046 z"
       id="path23793"
       inkscape:connector-curvature="0" />
    <path
       style="opacity:1;fill:#032426;fill-opacity:1;fill-rule:nonzero;stroke:none;stroke-width:0.37400842;stroke-miterlimit:4;stroke-dasharray:none;stroke-opacity:1"
       d="m 382.62148,-10.642143 c 0,-0.04686 0.1,-0.426799 0.2263,-0.844338 0.1264,-0.417513 0.2834,-1.017508 0.3488,-1.333289 0.066,-0.31578 0.1369,-0.594148 0.1586,-0.618569 0.022,-0.02434 0.3618,-0.06578 0.7557,-0.09184 1.0011,-0.06623 1.001,-0.06967 0.018,1.002586 -0.1643,0.179281 -0.3507,0.407246 -0.4142,0.506624 -0.064,0.09935 -0.2831,0.394203 -0.488,0.655214 -0.2048,0.261011 -0.424,0.549778 -0.4871,0.641694 -0.063,0.09192 -0.1162,0.128773 -0.1182,0.08192 z"
       id="path23795"
       inkscape:connector-curvature="0" />
    <path
       style="opacity:1;fill:#032426;fill-opacity:1;fill-rule:nonzero;stroke:none;stroke-width:0.37400842;stroke-miterlimit:4;stroke-dasharray:none;stroke-opacity:1"
       d="m 384.40688,-18.441372 c 0.02,-0.08451 0.1682,-0.724323 0.3298,-1.421765 0.1615,-0.697468 0.313,-1.287462 0.3367,-1.311116 0.024,-0.02381 0.098,0.0071 0.1661,0.06834 0.068,0.06125 0.2215,0.131048 0.3419,0.155125 0.1203,0.02408 0.33,0.100409 0.4658,0.169677 0.1358,0.06924 0.2913,0.125889 0.3455,0.125889 0.054,0 0.1481,0.04482 0.2087,0.09956 0.061,0.05477 0.23,0.124513 0.3768,0.155019 0.238,0.04945 0.2668,0.07697 0.2668,0.255059 0,0.17772 -0.034,0.210714 -0.3122,0.300937 -0.1717,0.05572 -0.3541,0.132159 -0.4053,0.169862 -0.051,0.0377 -0.2677,0.159279 -0.4812,0.270193 -0.2135,0.110886 -0.3883,0.224419 -0.3884,0.25228 -2e-4,0.02786 -0.043,0.05067 -0.096,0.05067 -0.053,0 -0.1821,0.0713 -0.2871,0.158458 -0.105,0.08713 -0.3513,0.270272 -0.5473,0.406956 -0.3296,0.229923 -0.3536,0.237014 -0.3202,0.09485 z"
       id="path23797"
       inkscape:connector-curvature="0" />
    <path
       style="opacity:1;fill:#032426;fill-opacity:1;fill-rule:nonzero;stroke:none;stroke-width:0.74801683;stroke-miterlimit:4;stroke-dasharray:none;stroke-opacity:1"
       d="m 392.21928,-27.192095 -0.9233,-0.77597 0.9275,-0.218784 c 1.1142,-0.262837 1.579,-0.442383 2.0933,-0.808646 0.2132,-0.151818 0.3877,-0.237834 0.3877,-0.191162 0,0.154993 -1.3977,2.770532 -1.4806,2.770532 -0.045,0 -0.4968,-0.349197 -1.0046,-0.77597 z"
       id="path23799"
       inkscape:connector-curvature="0" />
    <path
       style="opacity:1;fill:#032426;fill-opacity:1;fill-rule:nonzero;stroke:none;stroke-width:0.74801683;stroke-miterlimit:4;stroke-dasharray:none;stroke-opacity:1"
       d="m 417.33268,-10.633385 c -0.2972,-0.325332 -0.8731,-0.98515 -1.2798,-1.466215 -0.4067,-0.481066 -0.7729,-0.905087 -0.8137,-0.942234 -0.041,-0.03715 -0.5497,-0.645055 -1.131,-1.350937 -1.4174,-1.721035 -1.3889,-1.703625 -2.3134,-1.412848 -0.4125,0.129752 -0.7794,0.206587 -0.8152,0.170762 -0.036,-0.03585 0.1935,-0.146579 0.5096,-0.246115 0.3162,-0.09951 0.6728,-0.263049 0.7924,-0.363406 0.1888,-0.158353 0.3048,-0.105383 0.8781,0.400765 1.8205,1.607476 2.8696,2.175483 4.0379,2.186331 l 0.8106,0.0074 -0.036,1.215839 c -0.02,0.668708 -0.05,1.480503 -0.068,1.803956 l -0.032,0.588116 z"
       id="path23801"
       inkscape:connector-curvature="0" />
    <path
       style="opacity:1;fill:#032426;fill-opacity:1;fill-rule:nonzero;stroke:none;stroke-width:0.74801683;stroke-miterlimit:4;stroke-dasharray:none;stroke-opacity:1"
       d="m 436.27938,-16.115208 c -0.04,-0.873046 -0.054,-1.60655 -0.033,-1.630019 0.022,-0.02355 0.1782,0.204523 0.348,0.506598 0.1698,0.302101 0.3542,0.549275 0.4097,0.549275 0.056,0 0.5416,-0.485563 1.0801,-1.07905 0.5385,-0.59346 1.0007,-1.057381 1.0272,-1.030923 0.026,0.02646 -0.182,0.423545 -0.4633,0.882412 -0.2812,0.458867 -0.5734,0.938001 -0.6492,1.06471 -0.076,0.126709 -0.3038,0.487548 -0.5067,0.801846 -0.2028,0.314325 -0.3687,0.608886 -0.3687,0.654632 0,0.145336 -0.5543,0.86786 -0.6658,0.86786 -0.059,0 -0.1394,-0.714295 -0.1788,-1.587341 z"
       id="path23803"
       inkscape:connector-curvature="0" />
    <path
       style="opacity:1;fill:#032426;fill-opacity:1;fill-rule:nonzero;stroke:none;stroke-width:0.5289278;stroke-miterlimit:4;stroke-dasharray:none;stroke-opacity:1"
       d="m 478.14158,-10.009286 c 0,-0.133482 -0.06,-0.451776 -0.1333,-0.70739 -0.2315,-0.806715 -0.3731,-1.40843 -0.4163,-1.768634 -0.042,-0.34626 -0.039,-0.348668 0.3139,-0.348668 0.8171,0 1.2526,-0.718979 1.3792,-2.277216 0.1415,-1.740614 0.6267,-2.699411 1.5887,-3.13944 0.2966,-0.135678 0.5581,-0.227965 0.5809,-0.205078 0.023,0.02302 -0.1936,0.176239 -0.4812,0.340783 -0.4448,0.254503 -0.5455,0.365496 -0.6743,0.743691 -0.083,0.244528 -0.1515,0.563086 -0.1515,0.707919 0,0.144833 -0.043,0.375682 -0.095,0.513027 -0.052,0.137319 -0.1356,0.47326 -0.1854,0.746549 -0.05,0.273261 -0.1594,0.797745 -0.2437,1.165542 -0.084,0.367771 -0.1895,0.840608 -0.2341,1.050766 -0.045,0.210159 -0.1261,0.511069 -0.1813,0.668682 -0.055,0.157612 -0.1711,0.565996 -0.258,0.907494 -0.087,0.341524 -0.1913,0.686806 -0.2322,0.767345 -0.041,0.08054 -0.1038,0.280273 -0.1398,0.443838 -0.036,0.163592 -0.1488,0.373036 -0.2509,0.4654295 -0.1792,0.162189 -0.1857,0.159596 -0.1857,-0.074643 z"
       id="path23805"
       inkscape:connector-curvature="0" />
    <path
       style="opacity:1;fill:#032426;fill-opacity:1;fill-rule:nonzero;stroke:none;stroke-width:0.5289278;stroke-miterlimit:4;stroke-dasharray:none;stroke-opacity:1"
       d="m 499.36778,-28.341022 -0.019,-4.168113 -0.2149,-0.0576 c -0.1182,-0.0317 -0.4612,-0.05821 -0.7621,-0.05892 h -0.5472 l 0.2883,-0.45376 c 0.7354,-1.157288 0.8355,-3.051651 0.2175,-4.115144 -0.4991,-0.858891 -1.9561,-1.499447 -4.4743,-1.967177 l -1.2419,-0.230664 3.3558,-0.0077 3.3558,-0.0077 0.067,6.806221 c 0.037,3.743405 0.051,7.171611 0.031,7.618175 -0.02,0.44659 -0.045,-1.063678 -0.056,-3.356134 z"
       id="path23807"
       inkscape:connector-curvature="0" />
  </g>
</svg>
