<?xml version="1.0" encoding="UTF-8" standalone="no"?>
<!-- Created with Inkscape (http://www.inkscape.org/) -->

<svg
   xmlns:dc="http://purl.org/dc/elements/1.1/"
   xmlns:cc="http://creativecommons.org/ns#"
   xmlns:rdf="http://www.w3.org/1999/02/22-rdf-syntax-ns#"
   xmlns:svg="http://www.w3.org/2000/svg"
   xmlns="http://www.w3.org/2000/svg"
   xmlns:sodipodi="http://sodipodi.sourceforge.net/DTD/sodipodi-0.dtd"
   xmlns:inkscape="http://www.inkscape.org/namespaces/inkscape"
   width="1543.0642mm"
   height="308.75552mm"
   viewBox="0 0 1543.0642 308.75552"
   version="1.1"
   id="svg28493"
   inkscape:version="0.92.4 (5da689c313, 2019-01-14)"
   sodipodi:docname="lake10.svg">
  <defs
     id="defs28487" />
  <sodipodi:namedview
     id="base"
     pagecolor="#ffffff"
     bordercolor="#666666"
     borderopacity="1.0"
     inkscape:pageopacity="0.0"
     inkscape:pageshadow="2"
     inkscape:zoom="0.98994949"
     inkscape:cx="3445.9572"
     inkscape:cy="833.77725"
     inkscape:document-units="mm"
     inkscape:current-layer="layer1"
     showgrid="false"
     inkscape:window-width="1858"
     inkscape:window-height="1057"
     inkscape:window-x="54"
     inkscape:window-y="-8"
     inkscape:window-maximized="1" />
  <metadata
     id="metadata28490">
    <rdf:RDF>
      <cc:Work
         rdf:about="">
        <dc:format>image/svg+xml</dc:format>
        <dc:type
           rdf:resource="http://purl.org/dc/dcmitype/StillImage" />
        <dc:title></dc:title>
      </cc:Work>
    </rdf:RDF>
  </metadata>
  <g
     inkscape:label="Calque 1"
     inkscape:groupmode="layer"
     id="layer1"
     transform="translate(744.31785,7.0563293)">
    <path
       style="opacity:1;fill:#957b4b;fill-opacity:1;fill-rule:nonzero;stroke:none;stroke-width:4.23142242;stroke-miterlimit:4;stroke-dasharray:none;stroke-opacity:1"
       d="m -704.02658,271.2783 c -2.21266,-2.44496 -4.32355,-8.2622 -5.36546,-14.78624 l -1.02092,-6.39259 -0.56229,3.43893 c -0.94204,5.76147 -2.67355,11.21123 -3.88022,12.21267 -2.99708,2.48738 -6.49489,-1.35461 -6.52615,-7.1683 -0.0111,-2.05614 -0.37291,-1.62933 -2.73513,3.22601 -2.19891,4.51967 -3.40081,6.02589 -6.25054,7.83312 -3.94156,2.49965 -6.11034,2.76262 -9.27747,1.12483 -4.45553,-2.30405 -4.65034,-3.69359 -4.65034,-33.17064 v -26.79233 l 11.70645,7.90573 c 10.445,7.05383 24.59021,14.83534 25.43393,13.99163 0.17348,-0.17348 -1.09063,-5.27105 -2.80913,-11.32793 -3.16098,-11.14093 -5.44088,-21.43453 -4.8732,-22.00221 0.38375,-0.38375 7.53883,5.85311 20.5987,17.95524 9.9116,9.18473 21.82555,21.58993 30.88342,32.15685 4.39628,5.12868 4.61106,5.55139 3.20346,6.30471 -2.76003,1.47713 -6.56325,0.92778 -9.79761,-1.41518 -3.29146,-2.38432 -7.09577,-8.9349 -7.09577,-12.21809 0,-2.99452 -1.15242,-0.97446 -2.60189,4.56084 -2.49676,9.53466 -7.24117,15.5787 -12.95694,16.50625 -2.42511,0.39355 -2.5772,0.59555 -2.50556,3.32799 0.0979,3.73271 -1.93403,6.09401 -5.24393,6.09401 -1.37021,0 -2.97895,-0.59793 -3.67341,-1.3653 z"
       id="path28323"
       inkscape:connector-curvature="0" />
    <path
       style="opacity:1;fill:#d0b576;fill-opacity:1;fill-rule:nonzero;stroke:none;stroke-width:4.23142242;stroke-miterlimit:4;stroke-dasharray:none;stroke-opacity:1"
       d="m -664.44015,247.59283 c -10.39725,-12.49298 -48.00525,-49.07736 -50.45053,-49.07736 -1.10277,0 0.39551,8.11376 3.80247,20.59174 1.88727,6.91217 3.31087,12.68811 3.16355,12.83543 -0.95566,0.95566 -22.16887,-11.52096 -32.24744,-18.96643 l -4.123,-3.04584 V 195.7381 181.54583 l 12.41837,0.30125 c 11.1036,0.26936 12.9045,0.5031 17.01001,2.20774 10.73694,4.45808 19.43514,12.07523 37.45689,32.80163 6.39566,7.3555 12.3219,13.9932 13.16943,14.75045 1.51041,1.34954 1.57514,1.30619 3.26679,-2.18829 5.29455,-10.93708 39.36611,-53.2977 50.92868,-63.3188 19.95358,-17.29345 43.65036,-30.66782 57.14824,-32.25423 4.96389,-0.58341 5.83544,-0.0626 11.60878,6.93666 5.52403,6.69704 7.83306,8.05328 13.71703,8.05689 6.45021,0.004 12.11746,-2.14517 22.1168,-8.38712 9.18257,-5.73208 17.51188,-9.94943 19.65214,-9.9504 1.19172,-5.3e-4 1.33571,0.89408 1.32222,8.21463 -0.0135,7.32639 -0.58476,13.68916 -1.92434,21.43351 l -0.43579,2.51938 4.66265,-4.59083 c 5.37313,-5.29035 12.36644,-9.05265 18.08609,-9.73006 8.49853,-1.00653 17.00006,3.18361 33.50316,16.51265 8.72638,7.04803 16.6569,13.02161 17.28594,13.02044 0.15994,-2.7e-4 0.34139,-0.87558 0.40317,-1.94506 0.34886,-6.03737 10.63459,-14.10276 17.98511,-14.10276 5.47965,0 10.92544,4.42523 15.11194,12.27994 2.02682,3.80265 2.28629,4.80628 1.49053,5.7651 -1.3503,1.62702 -4.88799,3.35277 -6.87297,3.35277 -1.46863,0 -1.24564,0.45469 1.84142,3.75502 4.29032,4.58668 4.99819,6.91907 3.22715,10.633 l -1.31789,2.76363 -3.56151,-3.8022 c -1.95881,-2.09121 -5.5083,-5.93691 -7.88773,-8.54599 l -4.32625,-4.74379 -2.02274,2.65194 c -1.1125,1.45858 -3.44628,3.37819 -5.18618,4.26583 -6.3233,3.2259 -16.31913,0.6907 -25.68154,-6.5135 l -4.46358,-3.43464 -0.49546,8.67459 c -0.69482,12.16563 -3.58335,26.15604 -6.04091,29.2586 -1.73331,2.18825 -4.29657,1.06567 -6.54135,-2.86478 -2.29409,-4.01679 -3.19865,-4.2082 -3.19865,-0.67683 v 2.12626 l -2.86578,-1.19384 c -1.57618,-0.65661 -6.86366,-3.39079 -11.74994,-6.07594 -7.93041,-4.35798 -8.93659,-5.14414 -9.37233,-7.32287 -1.23677,-6.18382 -2.12183,-8.5226 -2.81231,-7.43162 -0.37825,0.59761 -0.69297,2.37615 -0.6994,3.95233 -0.006,1.57618 -0.24077,2.86578 -0.52073,2.86578 -1.28504,0 -32.30903,-20.26313 -42.6687,-27.86881 -8.20274,-6.02213 -7.55309,-6.13249 -7.04307,1.19645 0.24839,3.56931 1.31253,9.13598 2.39613,12.53452 1.0721,3.36252 1.95444,6.58076 1.96075,7.15165 0.006,0.5709 -3.80939,-4.40555 -8.47932,-11.05877 -10.08852,-14.37303 -12.95377,-18.78251 -16.81041,-25.87034 -1.79281,-3.29489 -3.04673,-4.89624 -3.2912,-4.20314 -2.76933,7.85101 -4.86734,12.71773 -11.5191,26.72063 -8.98531,18.91538 -11.2002,24.26652 -13.57856,32.80562 -1.46705,5.26721 -1.95374,6.15821 -3.36652,6.16317 -3.37296,0.0118 -6.6937,-6.15392 -8.33151,-15.46941 -0.75067,-4.2696 -2.29446,-3.48872 -4.15479,2.10157 -0.90916,2.73204 -1.81988,4.96735 -2.02381,4.96735 -0.20394,0 -1.55367,-0.90223 -2.9994,-2.00495 -3.92573,-2.99429 -8.47838,-3.25789 -13.53545,-0.7837 -4.95324,2.4234 -11.76783,8.47894 -17.69599,15.72492 -2.43197,2.97259 -4.71283,5.40471 -5.06858,5.40471 -0.35575,0 -1.0438,-1.46155 -1.52898,-3.24789 -1.485,-5.46734 -1.65035,-5.69886 -2.23259,-3.12579 -0.87174,3.85247 -3.29608,7.41988 -5.95436,8.76185 -2.11477,1.06757 -2.29881,1.37564 -1.31137,2.19514 2.55075,2.11694 0.50398,5.35138 -3.38637,5.35138 -2.07403,0 -1.99188,0.6013 0.33187,2.42916 1.05078,0.82655 1.91051,2.22459 1.91051,3.10676 0,1.72038 -5.13136,7.00276 -8.84783,9.10821 l -2.24263,1.27052 z"
       id="path28325"
       inkscape:connector-curvature="0" />
    <path
       style="opacity:1;fill:#dfc584;fill-opacity:1;fill-rule:nonzero;stroke:none;stroke-width:4.23142242;stroke-miterlimit:4;stroke-dasharray:none;stroke-opacity:1"
       d="m -666.79481,228.12851 c -2.10957,-2.20665 -6.54289,-7.10713 -9.85182,-10.88996 -8.8148,-10.07724 -20.78308,-22.17929 -25.78436,-26.07257 -2.40374,-1.8712 -7.039,-4.66948 -10.30059,-6.2184 -5.86532,-2.78543 -6.06817,-2.82201 -18.55578,-3.34638 -6.9441,-0.29159 -12.71161,-0.55994 -12.81669,-0.59634 -0.10508,-0.0364 -0.19105,-1.24662 -0.19105,-2.68939 0,-3.124 -1.35311,-2.62725 16.81256,-6.17216 15.91233,-3.10518 27.89834,-4.92556 32.56832,-4.94635 2.82786,-0.0126 3.35008,0.29389 5.15925,3.02774 2.05983,3.11261 5.86999,5.53823 10.14963,6.46144 2.57928,0.55642 2.69693,0.84879 3.70996,9.21991 0.95577,7.89805 0.87124,7.82459 4.03793,3.50898 1.56023,-2.12631 3.1422,-3.76985 3.51548,-3.65232 1.08132,0.34046 5.68017,9.58484 7.67482,15.42748 l 1.82626,5.34946 1.30331,-3.05683 c 2.38517,-5.59425 7.90999,-13.3113 14.2972,-19.97025 11.18048,-11.65613 23.41102,-20.69746 54.84359,-40.5427 8.61644,-5.44006 18.3295,-11.80842 21.58459,-14.1519 11.60766,-8.35688 23.15462,-9.67982 42.46102,-4.86476 6.01326,1.49972 11.4831,2.72676 12.15519,2.72676 0.6721,0 2.28613,-0.81094 3.58675,-1.8021 7.02149,-5.35083 15.27581,-7.83298 35.98987,-10.82252 15.37618,-2.21915 18.81383,-2.93629 45.5557,-9.50362 10.34462,-2.54046 19.34839,-4.619019 20.0084,-4.619019 0.66,0 1.98056,1.117649 2.93457,2.483669 6.30833,9.03256 12.39472,14.35085 30.39065,26.55527 15.91125,10.79065 16.76649,12.05287 4.66079,6.87881 -3.93361,-1.68126 -7.41571,-3.05683 -7.73797,-3.05683 -0.32229,0 0.0967,1.97739 0.93125,4.39419 0.83447,2.41681 2.36784,7.74073 3.40746,11.83094 l 1.89027,7.43675 -1.49122,6.83248 c -1.56546,7.17266 -4.36237,14.59388 -5.50016,14.59388 -0.36857,0 -0.67011,-0.47665 -0.67011,-1.05923 0,-0.58257 -1.4337,-3.20621 -3.18601,-5.83031 -5.67774,-8.5025 -12.63605,-11.13624 -20.26777,-7.67141 -4.69212,2.13025 -10.0072,7.33998 -11.05442,10.83531 -0.488,1.62879 -1.09077,2.9487 -1.33948,2.93313 -0.24868,-0.0155 -5.26669,-3.82746 -11.15108,-8.47088 -13.53418,-10.67991 -22.86339,-16.91752 -28.46676,-19.03317 -9.0334,-3.41069 -18.86942,-0.62623 -28.3295,8.01977 l -4.18458,3.82446 0.50338,-2.66379 c 0.27687,-1.46509 0.71924,-8.42401 0.98306,-15.46427 l 0.47968,-12.80047 h -1.696 c -2.0115,0 -10.20909,4.01468 -18.89624,9.25421 -12.25101,7.38903 -19.89529,9.82443 -26.34165,8.39222 -2.80846,-0.62396 -4.36495,-1.83038 -9.88926,-7.66506 -6.39547,-6.75479 -6.64172,-6.92454 -10.04524,-6.92454 -11.11413,0 -35.60956,12.88576 -54.91734,28.88912 -4.02895,3.33942 -10.68007,9.81189 -14.78028,14.38327 -14.64106,16.32353 -35.98298,43.96637 -39.87599,51.64883 -1.02049,2.01384 -1.94736,3.66153 -2.05972,3.66153 -0.11235,0 -1.93029,-1.80543 -4.03987,-4.01208 z"
       id="path28327"
       inkscape:connector-curvature="0" />
    <path
       style="opacity:1;fill:#feefd3;fill-opacity:1;fill-rule:nonzero;stroke:none;stroke-width:4.23142242;stroke-miterlimit:4;stroke-dasharray:none;stroke-opacity:1"
       d="m -660.60493,200.07512 c -1.42046,-4.69147 -6.89654,-15.33373 -7.86852,-15.29175 -0.30097,0.013 -1.73698,1.60212 -3.19112,3.53139 -1.45415,1.92927 -2.73812,3.20823 -2.85326,2.84215 -0.11515,-0.36609 -0.67508,-3.84663 -1.2443,-7.73454 l -1.03494,-7.06892 h 4.03981 c 7.55371,0 21.97891,-5.59772 38.60178,-14.97947 20.28892,-11.45084 68.13463,-35.76901 69.48771,-35.31799 0.48318,0.16106 -5.18199,4.23615 -12.58927,9.05575 -34.16413,22.22911 -45.72078,30.07235 -53.17115,36.08606 -12.69226,10.24481 -21.70769,20.45357 -26.65523,30.18345 -0.90833,1.78633 -1.76202,3.24788 -1.89709,3.24788 -0.13507,0 -0.86605,-2.04931 -1.62442,-4.55401 z"
       id="path28329"
       inkscape:connector-curvature="0" />
    <path
       style="opacity:1;fill:#feefd3;fill-opacity:1;fill-rule:nonzero;stroke:none;stroke-width:4.23142242;stroke-miterlimit:4;stroke-dasharray:none;stroke-opacity:1"
       d="m -613.45914,247.94972 c -2.22566,-2.60046 -4.34416,-5.21435 -4.70777,-5.80864 -0.52464,-0.85749 -1.38904,-0.43979 -4.18743,2.02345 -4.26044,3.75019 -6.79317,4.53861 -9.30109,2.89536 -2.70459,-1.77211 -2.39788,-4.4209 0.65408,-5.64866 1.65335,-0.66512 2.10045,-1.12304 1.33736,-1.36973 -2.31972,-0.74994 -4.58524,-2.06233 -4.58524,-2.65618 0,-0.33587 0.86784,-1.06538 1.92854,-1.62113 l 1.92855,-1.01047 -2.2742,-2.17883 -2.2742,-2.17882 4.69702,-5.67842 c 13.20694,-15.96639 23.08047,-21.02215 30.85014,-15.79688 1.63483,1.09946 3.09266,2.1081 3.23963,2.24142 0.8497,0.77079 -1.91896,5.9797 -4.28041,8.05309 l -2.77357,2.43522 1.68414,1.36373 c 0.92628,0.75006 2.10941,1.52255 2.62917,1.71666 0.65107,0.24314 0.4194,0.89978 -0.74474,2.11093 -1.29654,1.3489 -2.76661,1.83591 -6.31693,2.09272 -2.54492,0.18408 -4.8121,0.63397 -5.03817,0.99976 -0.66617,1.07789 3.23796,4.4718 7.13704,6.20431 l 3.61522,1.60639 -2.29262,0.98437 c -1.26095,0.5414 -4.52793,1.01519 -7.25997,1.05287 -4.56199,0.0629 -4.84263,0.1602 -3.43894,1.19212 0.84063,0.61799 3.07437,2.25247 4.96386,3.63217 3.88244,2.83494 4.55938,4.56059 2.62676,6.69611 -2.09174,2.31135 -3.4769,1.71716 -7.81623,-3.35292 z"
       id="path28331"
       inkscape:connector-curvature="0" />
    <path
       style="opacity:1;fill:#957b4b;fill-opacity:1;fill-rule:nonzero;stroke:none;stroke-width:4.23142242;stroke-miterlimit:4;stroke-dasharray:none;stroke-opacity:1"
       d="m -554.24229,235.21892 c -4.37673,-1.7101 -5.58194,-2.6247 -6.10763,-4.63496 -0.41352,-1.58129 -0.20519,-1.67652 5.76931,-2.6371 3.66774,-0.58971 3.63846,-1.44649 -0.0876,-2.56284 -6.1598,-1.84552 -8.4205,-5.36858 -5.82385,-9.07583 1.06777,-1.52445 1.01325,-1.79677 -0.70339,-3.51342 -1.08888,-1.08887 -2.53265,-4.19904 -3.48016,-7.49693 -3.22757,-11.23383 -3.81526,-11.37354 -6.1808,-1.46937 -1.68897,7.07145 -3.28103,10.27706 -5.6231,11.32213 -1.52729,0.68149 -1.51183,0.73908 0.47836,1.78185 l 2.05667,1.07759 -2.56972,3.05319 c -1.41334,1.67925 -2.74892,2.87737 -2.96795,2.66247 -0.6663,-0.65372 1.54335,-9.90192 4.10621,-17.18605 1.33096,-3.78283 5.70492,-13.75574 9.71991,-22.16202 4.01498,-8.40628 8.57072,-18.4709 10.12385,-22.36581 1.55313,-3.89491 3.01178,-7.26956 3.24144,-7.49923 0.22966,-0.22966 1.85652,2.28306 3.61524,5.58382 1.75872,3.30077 7.17525,11.66187 12.03674,18.58024 4.86149,6.91837 9.86028,14.22956 11.10843,16.24711 1.24814,2.01754 2.43889,3.49871 2.64611,3.29149 0.20722,-0.20722 -0.69406,-3.9213 -2.00285,-8.2535 -2.1385,-7.07866 -4.35193,-19.52632 -3.60497,-20.27328 0.16058,-0.16058 2.64772,1.469 5.52698,3.62129 2.87926,2.15229 11.25819,7.89856 18.61985,12.7695 7.36167,4.87093 13.51324,8.95905 13.67017,9.08471 0.43203,0.34594 -2.11292,14.80216 -2.83207,16.08721 -0.4735,0.8461 -2.55763,-1.142 -8.49106,-8.09982 -4.32495,-5.07162 -7.97135,-9.22114 -8.10313,-9.22114 -0.23829,0 1.01482,3.50364 7.51653,21.01571 3.17166,8.54273 3.31999,9.26739 2.16692,10.58609 -3.68008,4.20869 -11.0781,4.8406 -15.88706,1.35701 -4.88757,-3.54054 -10.65377,-11.8441 -17.11974,-24.65313 -1.28806,-2.55161 -2.47242,-4.5088 -2.63191,-4.34931 -0.1595,0.1595 -1.00146,5.1599 -1.87103,11.11199 -1.92764,13.1945 -3.78859,19.33544 -7.30244,24.09727 -2.96916,4.02371 -3.70452,4.19694 -9.01228,2.12307 z"
       id="path28333"
       inkscape:connector-curvature="0" />
    <path
       style="opacity:1;fill:#957b4b;fill-opacity:1;fill-rule:nonzero;stroke:none;stroke-width:4.23142242;stroke-miterlimit:4;stroke-dasharray:none;stroke-opacity:1"
       d="m -499.74872,222.70056 c 0,-0.56857 -2.07281,-6.63457 -4.60623,-13.48002 -2.53343,-6.84544 -4.48382,-12.56867 -4.3342,-12.71829 0.14962,-0.14962 3.57806,3.52242 7.61875,8.16008 l 7.34671,8.43211 -1.0819,3.06643 c -1.97272,5.59127 -4.94313,9.52109 -4.94313,6.53969 z"
       id="path28335"
       inkscape:connector-curvature="0" />
    <path
       style="opacity:1;fill:#957b4b;fill-opacity:1;fill-rule:nonzero;stroke:none;stroke-width:4.23142242;stroke-miterlimit:4;stroke-dasharray:none;stroke-opacity:1"
       d="m -484.77433,207.49491 c -1.91059,-3.26155 -3.64714,-7.13854 -4.60914,-10.2903 -0.46269,-1.51589 0.0445,-1.35603 4.84872,1.52841 3.27691,1.96743 5.37599,3.73594 5.39253,4.54328 0.0375,1.83057 -2.28774,7.46649 -3.0805,7.46649 -0.35696,0 -1.50518,-1.46155 -2.55161,-3.24788 z"
       id="path28337"
       inkscape:connector-curvature="0" />
    <path
       style="opacity:1;fill:#957b4b;fill-opacity:1;fill-rule:nonzero;stroke:none;stroke-width:4.23142242;stroke-miterlimit:4;stroke-dasharray:none;stroke-opacity:1"
       d="m -462.56142,226.31851 c -1.76961,-0.959 -2.08121,-1.52692 -1.69095,-3.08185 0.40516,-1.61429 0.12298,-2.04037 -1.84272,-2.78234 -2.83855,-1.07144 -2.88287,-1.52562 -0.31305,-3.20942 l 2.00808,-1.31574 -2.94778,-1.6535 c -2.51632,-1.4115 -6.36442,-6.41271 -6.40527,-8.32463 -0.007,-0.32374 1.79287,0.47362 3.99952,1.77191 2.20665,1.29828 7.2989,3.9969 11.31613,5.99693 4.87111,2.42516 7.20923,3.99864 7.01945,4.72386 -2.19576,8.39027 -5.66643,10.84292 -11.14341,7.87478 z"
       id="path28339"
       inkscape:connector-curvature="0" />
    <path
       style="opacity:1;fill:#957b4b;fill-opacity:1;fill-rule:nonzero;stroke:none;stroke-width:4.23142242;stroke-miterlimit:4;stroke-dasharray:none;stroke-opacity:1"
       d="m -430.36295,238.17392 c -8.14512,-8.21424 -16.44174,-19.54511 -13.66615,-18.66418 2.38336,0.75646 3.58206,-0.575 5.36477,-5.95901 2.12521,-6.41834 3.01503,-11.49627 3.89623,-22.23473 0.41119,-5.0105 0.90654,-9.26896 1.10082,-9.46325 0.19431,-0.19428 1.63656,0.7735 3.20501,2.15062 3.67842,3.22969 12.66428,7.48461 17.07689,8.08612 5.14893,0.70189 9.54553,-0.79611 13.23951,-4.51089 l 3.18305,-3.20097 4.64632,4.96735 c 2.55548,2.73204 5.94804,6.42843 7.53904,8.2142 l 2.89266,3.24686 -4.90503,2.29534 c -2.69777,1.26244 -6.69213,2.71985 -8.87638,3.2387 -2.4131,0.57322 -3.97134,1.35747 -3.97134,1.99874 0,2.143 5.71823,6.76986 10.53132,8.52133 2.63988,0.96064 4.99718,2.06604 5.23846,2.45645 0.2413,0.3904 -0.34378,1.54274 -1.30017,2.56075 -1.82094,1.93831 -3.14012,1.94908 -1.53294,0.0125 0.8015,-0.96575 0.11301,-1.09773 -5.08,-0.97373 -4.76663,0.11382 -6.46197,-0.15414 -8.20949,-1.29754 l -2.20231,-1.44098 2.5687,-2.09647 2.56871,-2.09648 -2.46335,-0.54104 c -3.25152,-0.71415 -4.29292,-2.55977 -5.83332,-10.33812 -1.27196,-6.42266 -2.28494,-8.75281 -3.48316,-8.01227 -0.33994,0.21009 -1.38044,2.69954 -2.31222,5.53209 -2.32201,7.05865 -4.88291,11.96885 -7.18799,13.78203 -1.06471,0.8375 -1.93585,1.72295 -1.93585,1.96765 0,0.2447 1.2214,1.07153 2.71423,1.83739 2.67729,1.37354 2.69364,1.41111 1.20219,2.76087 -1.66632,1.508 -5.99459,2.71458 -9.83901,2.7428 -1.36604,0.01 -2.4837,0.3265 -2.4837,0.70328 0,1.20201 5.15078,5.25783 7.97362,6.27859 1.49892,0.54201 2.72529,1.21559 2.72529,1.49685 0,0.78147 -6.0384,2.20746 -10.27208,2.42578 l -3.77632,0.19474 4.68604,2.88448 c 4.66026,2.86864 6.41905,5.33186 4.89516,6.85575 -0.55452,0.55452 -2.97011,-1.39257 -7.91721,-6.38164 z"
       id="path28341"
       inkscape:connector-curvature="0" />
    <path
       style="opacity:1;fill:#957b4b;fill-opacity:1;fill-rule:nonzero;stroke:none;stroke-width:4.23142242;stroke-miterlimit:4;stroke-dasharray:none;stroke-opacity:1"
       d="m -234.08945,212.08015 c -0.5964,-0.9457 -1.32284,-2.51696 -1.61428,-3.49168 -0.49577,-1.65803 -0.59393,-1.68466 -1.52349,-0.41339 -0.90543,1.23823 -1.20891,1.02251 -3.42001,-2.43093 -3.35523,-5.24049 -7.79264,-14.68313 -10.8432,-23.07403 -2.4447,-6.72442 -3.70306,-8.66757 -3.71938,-5.74351 -0.0119,2.14717 -3.44358,8.82516 -5.51337,10.72917 -4.83163,4.44463 -12.22322,2.266 -19.88269,-5.86033 -2.63046,-2.7908 -6.06229,-7.47822 -7.6263,-10.41649 l -2.84361,-5.34231 -0.0222,5.58517 c -0.0233,5.8965 -1.34755,16.21361 -2.1952,17.1036 -0.27593,0.28971 -3.6807,-0.41726 -7.56616,-1.57106 -5.47555,-1.62596 -6.85924,-2.30306 -6.15188,-3.01042 0.70737,-0.70735 0.54695,-0.91262 -0.71318,-0.91262 -0.89416,0 -2.29944,-0.85642 -3.1228,-1.90316 -1.35109,-1.71761 -2.11778,-4.09592 -4.76073,-14.76778 -1.07066,-4.32322 -2.29031,-3.80211 -4.06511,1.73684 l -1.42353,4.44274 -1.55327,-2.45321 c -0.85428,-1.34927 -2.27705,-5.43671 -3.16169,-9.08321 -0.88466,-3.6465 -1.95236,-6.56717 -2.37265,-6.49038 -0.42032,0.0768 -1.17628,2.60068 -1.67992,5.60864 -1.26574,7.55967 -3.08314,10.82304 -6.7006,12.03177 -2.8136,0.94013 -2.99521,0.88618 -6.42794,-1.90941 -4.35515,-3.54681 -10.07171,-9.17508 -14.95523,-14.72431 -2.99223,-3.40012 -3.44861,-3.71589 -2.38871,-1.65279 2.57373,5.00987 9.87552,17.39469 12.80157,21.71324 l 2.9773,4.39419 h -2.70319 c -1.48678,0 -2.7032,0.31638 -2.7032,0.70307 0,0.38669 2.05539,2.75845 4.5675,5.2706 4.07737,4.07735 4.43503,4.67747 3.33293,5.59214 -0.699,0.58012 -3.69416,1.14882 -6.90424,1.31093 -4.83037,0.24391 -5.82203,0.0779 -6.69918,-1.12169 -0.93813,-1.28295 -0.62878,-1.63385 3.48303,-3.95105 2.48193,-1.39868 4.51258,-2.66105 4.51258,-2.80527 0,-0.14421 -1.19515,-0.22833 -2.65586,-0.18692 -5.38033,0.15251 -8.96123,-6.16505 -12.68185,-22.37379 -3.39411,-14.78631 -4.27977,-16.34293 -6.42197,-11.28685 -1.20915,2.85388 -1.20502,2.86113 -3.41008,-5.97382 -0.84625,-3.39068 -2.06783,-7.43143 -2.71463,-8.97944 -0.6468,-1.54801 -0.99383,-2.81456 -0.77118,-2.81456 0.33433,0 17.33333,6.9787 19.86719,8.15618 2.8501,1.32445 -7.13454,-6.39644 -17.09486,-13.21908 -6.56976,-4.50017 -14.29954,-10.10248 -17.17725,-12.44957 -4.76745,-3.88838 -14.25506,-14.57229 -14.25506,-16.052499 0,-0.87318 7.93461,-2.35278 12.61724,-2.35278 4.64277,0 9.38683,1.54935 19.86158,6.486519 10.85273,5.11535 15.23621,6.50383 20.56217,6.51316 l 4.65667,0.008 12.6094,11.81564 c 16.29061,15.26509 41.27831,33.24567 60.67846,43.66283 8.78853,4.71913 8.87595,4.69395 11.97488,-3.44784 l 2.5871,-6.79702 2.08097,4.31335 c 3.09963,6.42476 10.55453,15.24947 23.53657,27.86131 l 11.61198,11.28084 -1.57644,5.19008 c -2.50661,8.25241 -7.53658,11.93982 -10.30303,7.55303 z"
       id="path28343"
       inkscape:connector-curvature="0" />
    <path
       style="opacity:1;fill:#957b4b;fill-opacity:1;fill-rule:nonzero;stroke:none;stroke-width:4.23142242;stroke-miterlimit:4;stroke-dasharray:none;stroke-opacity:1"
       d="m -346.86053,176.14867 c -3.62193,-5.51054 -11.50982,-18.81044 -11.50982,-19.40687 0,-0.26873 3.36851,2.78006 7.48559,6.77509 4.11707,3.99503 9.45758,8.57303 11.86783,10.17334 2.41022,1.6003 4.25892,3.28407 4.10821,3.74169 -0.44706,1.35755 -3.7811,2.72022 -6.64908,2.71757 -2.38011,-0.002 -2.96418,-0.44286 -5.30273,-4.00082 z"
       id="path28345"
       inkscape:connector-curvature="0" />
    <path
       style="opacity:1;fill:#d0b576;fill-opacity:1;fill-rule:nonzero;stroke:none;stroke-width:4.23142242;stroke-miterlimit:4;stroke-dasharray:none;stroke-opacity:1"
       d="m -176.7281,236.87508 c -1.12943,-1.17886 -2.05351,-2.92151 -2.05351,-3.87254 0,-1.39453 -0.30268,-1.63308 -1.56409,-1.23272 -2.27462,0.72193 -8.61155,-4.54406 -7.95551,-6.61104 0.39568,-1.24669 0.18616,-1.41515 -1.30937,-1.0527 -1.33567,0.32369 -2.63258,-0.30872 -5.19158,-2.53158 l -3.41114,-2.96308 2.07378,-2.46453 c 1.14056,-1.3555 2.07378,-2.78204 2.07378,-3.17012 0,-0.38806 -2.42988,-0.70557 -5.3997,-0.70557 -6.00255,0 -7.16267,-0.45002 -12.30122,-4.77177 -3.63564,-3.05774 -5.82533,-7.01925 -7.64929,-13.83879 -1.1045,-4.12967 -2.13799,-4.62789 -2.21499,-1.06778 -0.14001,6.4743 -0.43145,6.34532 -12.51915,-5.5405 -15.78565,-15.52203 -21.87737,-23.41011 -24.49214,-31.71461 -0.35875,-1.13939 -1.20838,0.31943 -3.33814,5.73155 -2.80747,7.13441 -2.89922,7.25802 -5.30434,7.14676 -3.03776,-0.14053 -13.69534,-6.15265 -28.62969,-16.15054 -15.66169,-10.48479 -27.5889,-19.87086 -40.26053,-31.68285 l -10.81691,-10.08308 4.43648,-1.23137 c 5.44391,-1.511 5.66581,-1.43643 20.48486,6.88375 14.49464,8.13805 18.58267,9.45591 27.89357,8.99207 3.99298,-0.19891 10.59759,-0.81707 14.67688,-1.3737 6.67859,-0.91129 7.83334,-0.88077 11.59992,0.30654 10.65033,3.35722 21.88972,14.69976 36.72824,37.06527 6.04187,9.10669 12.60906,18.44903 14.59376,20.76075 1.98469,2.31173 13.6221,14.64462 25.86093,27.40642 12.23883,12.7618 22.3638,23.68145 22.49992,24.26589 0.29599,1.27061 -3.88448,5.64325 -5.39522,5.64325 -0.58417,0 -1.9862,-0.96452 -3.1156,-2.14338 z"
       id="path28347"
       inkscape:connector-curvature="0" />
    <path
       style="opacity:1;fill:#dfc584;fill-opacity:1;fill-rule:nonzero;stroke:none;stroke-width:4.23142242;stroke-miterlimit:4;stroke-dasharray:none;stroke-opacity:1"
       d="m -132.40375,268.97214 -2.05314,-2.14305 2.74084,-2.63324 c 1.50747,-1.4483 3.40654,-3.55706 4.22019,-4.68614 l 1.47931,-2.0529 -5.97048,0.14237 c -4.68133,0.11163 -6.43475,-0.16139 -8.12059,-1.2644 l -2.15011,-1.40678 2.51441,-2.09913 2.51444,-2.09914 -2.4007,-0.48014 c -3.19084,-0.63817 -4.50199,-2.85626 -5.84858,-9.89419 -0.61712,-3.22542 -1.51855,-6.60531 -2.00319,-7.51086 -1.24606,-2.32824 -2.42051,-0.85373 -4.57017,5.73768 l -1.72697,5.29532 -1.72431,-3.39287 c -2.24923,-4.42574 -4.6432,-11.77961 -5.77128,-17.72824 -0.49578,-2.61453 -1.15155,-5.03303 -1.45719,-5.37445 -0.30567,-0.34143 -1.29911,2.58166 -2.20761,6.49576 -0.90852,3.91409 -1.92497,7.55145 -2.2588,8.08299 -0.41672,0.66353 -7.80703,-6.64415 -23.57813,-23.31445 -27.54201,-29.11236 -26.14522,-27.46731 -38.01665,-44.77424 -16.04722,-23.39465 -25.3246,-33.69936 -34.53829,-38.36292 -4.37674,-2.21529 -4.69448,-2.26043 -13.65152,-1.93909 -5.04375,0.18094 -13.46914,0.35289 -18.72308,0.3821 -9.53347,0.053 -9.56482,0.0473 -15.66625,-2.85929 -3.36251,-1.60181 -9.82794,-4.97923 -14.36766,-7.50536 -4.5397,-2.52612 -9.4392,-4.78529 -10.88777,-5.02036 -2.54079,-0.41231 -2.42477,-0.5008 3.28666,-2.50662 7.02294,-2.46642 16.12323,-6.951639 20.59421,-10.150189 3.61146,-2.58364 2.44856,-2.74206 14.97402,2.0398 7.38158,2.818079 12.64401,2.663979 23.55712,-0.68979 16.03822,-4.928813 18.10541,-4.01838 29.49255,12.989189 10.95888,16.36796 21.58238,28.29965 32.49366,36.49497 6.0357,4.53333 33.82796,22.73111 34.71572,22.73111 0.30022,0 -0.33528,-0.94571 -1.41222,-2.10157 -2.51655,-2.70099 -11.81004,-15.38214 -15.26153,-20.82466 -4.63683,-7.31161 -10.94105,-19.20701 -14.58032,-27.51146 -5.77744,-13.18359 -10.49935,-29.804091 -8.46741,-29.804091 2.22803,0 8.94041,2.651371 13.5368,5.347022 2.89854,1.69989 5.38266,2.97811 5.52027,2.84049 0.13764,-0.13762 -0.64035,-1.56083 -1.72884,-3.16268 -4.65749,-6.854085 -8.12536,-17.138751 -10.32666,-30.625783 -1.32996,-8.148421 -1.15255,-38.741922 0.32702,-56.3974663 0.62693,-7.48101706 1.31895,-13.7809062 1.53779,-13.9997528 0.21883,-0.2188466 1.72098,0.010249 3.33809,0.509101 2.05324,0.6333976 3.87524,2.0901906 6.03993,4.8292639 6.52703,8.2589579 10.18236,14.0681272 12.47249,19.8217692 1.30579,3.280648 5.11347,10.690391 8.46148,16.4661 6.36262,10.976237 10.30404,18.909305 11.16031,22.462895 l 0.50559,2.098188 -3.71197,-0.444259 c -2.04161,-0.244343 -5.3449,-0.711608 -7.34068,-1.038368 l -3.62868,-0.594109 -0.84297,3.130521 c -1.38631,5.148326 -4.43224,10.426338 -8.49794,14.725216 -2.47263,2.61443 -3.67233,4.473496 -3.37941,5.236787 0.93604,2.439326 6.69472,10.246646 14.3787,19.493967 8.62256,10.376859 13.75278,16.952219 13.43969,17.225599 -0.10924,0.0954 -3.80949,-0.51052 -8.2228,-1.34645 -9.39196,-1.77894 -26.13046,-2.27995 -27.58577,-0.8257 -0.71207,0.71155 2.4515,4.37349 14.19439,16.43046 17.17657,17.63597 24.88494,26.54319 30.7358,35.51604 5.04111,7.73101 9.85263,17.70734 8.93641,18.52905 -0.37394,0.33538 -2.82922,1.04941 -5.45619,1.58674 -2.62696,0.53733 -4.77628,1.1564 -4.77628,1.37571 0,0.21932 2.71153,5.62766 6.02562,12.01854 7.66945,14.78977 19.58274,34.6022 31.80405,52.89187 l 9.58324,14.34166 -2.88182,1.27437 c -1.58498,0.70091 -4.15596,1.51006 -5.71328,1.79808 -2.65882,0.49178 -2.8612,0.39079 -3.3189,-1.65645 -1.17912,-5.27404 -1.17571,-5.27243 -3.23538,-1.52709 -2.25896,4.10776 -3.64517,4.40692 -6.51928,1.407 z"
       id="path28349"
       inkscape:connector-curvature="0" />
    <path
       style="opacity:1;fill:#e5d2aa;fill-opacity:1;fill-rule:nonzero;stroke:none;stroke-width:4.23142242;stroke-miterlimit:4;stroke-dasharray:none;stroke-opacity:1"
       d="m -196.04425,157.32133 c -8.78922,-5.8442 -18.35597,-12.66398 -21.25945,-15.15505 -6.69954,-5.74791 -15.96959,-16.22106 -22.07281,-24.93744 -14.19461,-20.272239 -16.55922,-22.645579 -22.56237,-22.645579 -1.89953,0 -7.43694,1.07301 -12.30535,2.38446 -10.9202,2.94168 -16.20065,3.088049 -23.37163,0.64783 l -5.34945,-1.82036 4.20315,-0.56309 c 8.20528,-1.09924 14.09089,-4.11103 21.28155,-10.890269 8.65005,-8.155077 16.69229,-19.733765 31.10407,-44.781507 12.83967,-22.315441 20.92362,-34.4300533 27.34127,-40.9737533 4.65355,-4.7449704 5.93347,-5.642901 8.04339,-5.642901 2.02525,0 2.43575,0.2579243 2.12847,1.337363 -1.17438,4.1253319 -2.29455,26.3477433 -2.30164,45.6613953 -0.008,20.411487 0.13057,22.765647 1.74818,29.80409 2.15371,9.370962 5.53731,18.822077 8.15425,22.776529 1.07905,1.630563 1.81044,3.116123 1.62531,3.301243 -0.18511,0.18512 -3.53888,-1.222 -7.45279,-3.126949 -3.91392,-1.904941 -7.96284,-3.463533 -8.9976,-3.463533 -1.8119,0 -1.86444,0.143044 -1.42267,3.873092 0.64773,5.46904 6.05274,20.963039 10.81908,31.013919 6.73523,14.20268 16.01655,29.18566 24.66329,39.81426 1.7952,2.20665 2.97151,4.01209 2.61406,4.01209 -0.35745,0 -7.84108,-4.78163 -16.63031,-10.62584 z"
       id="path28351"
       inkscape:connector-curvature="0" />
    <path
       style="opacity:1;fill:#c0a26c;fill-opacity:1;fill-rule:nonzero;stroke:none;stroke-width:4.23142242;stroke-miterlimit:4;stroke-dasharray:none;stroke-opacity:1"
       d="m -116.45054,258.57478 c -22.92562,-34.92243 -42.20938,-68.32855 -40.4163,-70.01502 0.34613,-0.32557 2.76845,-1.05824 5.3829,-1.62816 l 4.75356,-1.03622 -2.50929,-5.77224 c -5.11029,-11.75543 -14.52073,-24.35412 -31.07113,-41.59795 -21.52607,-22.42802 -21.73816,-22.67457 -20.23017,-23.51847 1.89325,-1.05952 19.65089,-0.18323 27.76429,1.37008 3.51285,0.67254 6.57378,1.03604 6.80204,0.80777 0.44487,-0.44487 -4.26998,-6.67515 -14.79061,-19.544479 -7.64585,-9.352789 -12.5363,-16.290281 -12.5363,-17.783732 0,-0.580268 0.90869,-1.888736 2.0193,-2.90771 3.12373,-2.86598 7.77013,-10.427967 9.20573,-14.982267 l 1.29701,-4.114535 3.48263,0.474271 c 1.91543,0.26085 5.28807,0.735756 7.4947,1.055349 2.20665,0.319593 4.01209,0.515027 4.01209,0.4343 0,-1.952628 -4.69215,-12.049286 -10.30105,-22.165961 -7.30803,-13.181399 -11.49094,-21.64045 -10.96235,-22.169056 0.62825,-0.62825 16.13963,13.452752 27.47777,24.943932 l 11.94594,12.107159 1.87989,-1.478725 1.87989,-1.478724 5.66148,4.639019 c 22.28725,18.262211 50.761904,36.921675 77.496964,50.783819 7.71797,4.00177 31.85107,14.92415 32.20005,14.5734 0.0824,-0.0828 -0.32678,-6.85655 -0.90937,-15.05267 -0.58259,-8.196129 -1.06942,-15.331916 -1.08185,-15.857307 -0.0159,-0.671378 1.51032,-0.957477 5.13577,-0.962727 14.37031,-0.0208 20.4817396,-9.546203 17.5568796,-27.364592 -1.27321,-7.756376 -6.1108196,-23.829687 -9.4500496,-31.398331 -1.00205,-2.271258 -1.7314,-4.220075 -1.62078,-4.330706 0.11065,-0.11063 6.39114,3.59019 13.9566896,8.224044 18.2560404,11.181728 41.5786604,24.839888 56.1690604,32.893648 13.27589,7.328178 46.85178,24.286692 47.26916,23.874728 0.14875,-0.146799 -1.3612,-5.18899 -3.35539,-11.204866 -4.79719,-14.47169 -7.30605,-19.3278 -17.44541,-33.767096 -3.20913,-4.570061 -5.83478,-8.603023 -5.83478,-8.962136 0,-0.359117 3.41752,1.586253 7.5945,4.323043 16.80953,11.013757 30.544466,15.550599 36.955086,12.206795 1.61129,-0.840446 2.20059,-0.886227 2.39871,-0.186343 0.14444,0.510312 0.95896,3.906081 1.81007,7.546155 4.33118,18.523913 15.68794,39.198472 36.874,67.127701 21.01252,27.70044 34.93296,42.66283 52.21938,56.12808 7.19358,5.60341 14.40638,11.56883 16.02849,13.25648 2.79871,2.91184 2.90552,3.20089 2.09288,5.66328 -1.56649,4.7465 -6.06568,11.07518 -8.79393,12.36983 -3.33132,1.58081 -9.03052,1.57543 -12.09913,-0.0114 -3.14611,-1.62692 -10.11465,-8.24805 -12.15443,-11.54848 -1.87317,-3.03084 -2.30251,-2.749 -4.05884,2.66454 -0.71591,2.20664 -1.61793,4.01208 -2.00446,4.01208 -0.38653,0 -1.43243,-0.72963 -2.3242,-1.62141 l -1.62142,-1.62141 2.38561,-1.51046 c 2.72471,-1.72515 2.99919,-2.90217 0.97203,-4.16814 -1.52191,-0.9505 -4.70006,-7.09695 -4.70006,-9.08987 0,-1.47567 1.40319,-1.22878 13.18257,2.3194 4.5184,1.36103 8.21524,2.3529 8.21524,2.20415 0,-0.14875 -2.86028,-3.79481 -6.35622,-8.10236 -3.49591,-4.30756 -13.70507,-17.28898 -22.68704,-28.84762 -23.42174,-30.14077 -28.86999,-36.50154 -48.19904,-56.27194 -16.97104,-17.358531 -25.03795,-26.948407 -29.768426,-35.388462 -1.3094,-2.336194 -2.16384,-3.387892 -1.89876,-2.337107 1.56914,6.220129 4.268176,20.189272 4.695986,24.304644 l 0.50077,4.817356 -15.584936,-7.733226 C 50.891884,68.969244 30.529444,58.158769 9.0476136,45.551138 c -4.92483,-2.890359 -9.47393997,-5.454634 -10.10915,-5.698387 -0.74488,-0.285845 1.37305003,5.755971 5.96561,17.017918 14.2925004,35.048269 21.2137904,49.986021 27.5116404,59.376491 1.93043,2.87839 3.00247,5.03872 2.38231,4.80074 -0.97221,-0.37308 -18.42101,-4.16811 -29.5966904,-6.43715 -2.20602,-0.44789 -3.62998,-0.45936 -3.62998,-0.0293 0,0.38929 9.3273304,14.87708 20.7274404,32.19512 11.40007,17.31805 22.98824,35.09823 25.75149,39.51152 9.4955,15.16574 21.6089,25.60343 47.90067,41.27435 18.992636,11.32035 28.289516,17.46027 30.056406,19.85013 2.46845,3.33877 1.40266,4.25506 -2.41742,2.07828 -1.75139,-0.99794 -17.45591,-10.00748 -34.898936,-20.02113 -17.44305,-10.01366 -42.20337,-23.59112 -55.02294,-30.17214 -34.40366037,-17.66135 -40.9675204,-21.98608 -56.82496,-37.44033 -16.79535,-16.3683 -24.69033,-27.71108 -25.49956,-36.63536 l -0.39656,-4.37323 -6.59349,-4.22658 c -3.62641,-2.32461 -14.84691,-9.14605 -24.93444,-15.15873 -10.08753,-6.012689 -20.404354,-12.313963 -22.926234,-14.002832 -5.46809,-3.661913 -17.1051,-13.173808 -27.12212,-22.169165 -3.98899,-3.582152 -7.34255,-6.42315 -7.45238,-6.313329 -0.10981,0.10982 0.28313,1.803895 0.87323,3.764608 0.59007,1.960713 0.80047,3.564935 0.46752,3.564935 -1.51562,0 -10.49113,-7.526758 -20.46486,-17.161584 -11.11134,-10.733799 -14.5755,-13.798153 -15.03836,-13.302784 -0.35701,0.382034 12.22705,27.264135 17.98441,38.418362 8.06942,15.633666 14.06729,24.93516 27.88738,43.247899 3.01339,3.99299 7.42921,10.18307 9.81294,13.75574 4.42643,6.63425 10.11418,17.33065 9.52744,17.91738 -0.17913,0.17913 -2.72632,-1.22965 -5.66042,-3.13063 -6.68234,-4.32945 -14.78772,-8.4448 -27.03526,-13.72665 -5.25047,-2.26431 -9.65155,-4.11693 -9.78019,-4.11693 -1.52738,0 9.40819,16.36226 25.02678,37.44616 22.26649,30.05804 36.048634,53.34604 38.280324,64.68318 1.66153,8.44066 -1.82055,13.87118 -10.88338,16.9733 -2.27173,0.7776 -5.420014,1.65271 -6.996214,1.9447 -1.57618,0.29199 -2.86576,0.63343 -2.86576,0.75873 0,0.7612 3.09536,9.02383 4.1302,11.02498 l 1.24135,2.40049 -4.40524,2.18718 -4.40526,2.1872 z"
       id="path28353"
       inkscape:connector-curvature="0" />
    <path
       style="opacity:1;fill:#957b4b;fill-opacity:1;fill-rule:nonzero;stroke:none;stroke-width:8.46284485;stroke-miterlimit:4;stroke-dasharray:none;stroke-opacity:1"
       d="m -91.791076,276.35134 c -3.20339,-4.03908 -6.8507,-8.20349 -8.10517,-9.25428 -1.254474,-1.05076 -1.829944,-1.9105 -1.278814,-1.9105 0.5511,0 -0.34912,-3.15206 -2.00051,-7.00458 -1.65137,-3.85252 -3.0025,-7.2098 -3.0025,-7.46063 0,-0.25083 2.93188,-1.19431 6.515294,-2.09662 7.54885,-1.90083 12.90608,-6.33985 14.28589,-11.83735 2.10909,-8.40342 -9.38729,-30.9601 -31.107384,-61.03473 -21.76299,-30.13401 -31.14472,-44.24116 -29.73451,-44.71122 1.6615,-0.55384 24.7995,10.25191 33.54493,15.66594 3.57267,2.21173 6.49578,3.61559 6.49578,3.11968 0,-2.86096 -8.9727,-17.65479 -19.97363,-32.93172 -6.94751,-9.64798 -15.61177,-22.442329 -19.25389,-28.431885 -8.50162,-13.981051 -24.06531,-46.307131 -22.87032,-47.502103 0.50393,-0.503939 6.67915,4.616357 13.72267,11.378432 7.04353,6.762076 14.3405,13.115695 16.21549,14.119154 3.09745,1.657707 3.31656,1.533073 2.39721,-1.363538 -0.5565,-1.753407 -0.70139,-3.18801 -0.32195,-3.18801 0.37942,0 6.96722,5.367549 14.63956,11.927885 7.67233,6.560339 22.367614,17.014143 32.656144,23.230676 34.64081,20.930629 39.34005,24.221199 39.34005,27.547239 0,6.37954 8.25413,19.04159 21.12666,32.40893 16.71868,17.3613 26.0091796,23.97739 55.40566,39.45624 12.96836,6.82856 40.26588,21.81442 60.6611,33.30191 32.158936,18.11334 36.736646,21.14001 34.479306,22.79687 -4.43172,3.25285 -14.7442,2.32015 -20.95609,-1.89534 -3.084536,-2.09322 -6.103616,-3.64716 -6.709036,-3.45318 -0.60544,0.19399 -6.77963,-3.07983 -13.72042,-7.27514 -9.09444,-5.49707 -12.86589,-8.6952 -13.50129,-11.44887 -1.87825,-8.14014 -2.24205,-8.62529 -4.01137,-5.34945 -0.90808,1.68125 -1.87301,3.32291 -2.14429,3.64812 -0.61539,0.73771 -6.29679,-2.9124 -85.41136,-54.87421 -68.8611,-45.22739 -75.656554,-49.56875 -75.656554,-48.33418 0,0.44012 5.930294,8.9216 13.178454,18.84774 24.98749,34.21972 75.62032,107.69536 74.82356,108.57996 -0.17635,0.19578 -2.67777,-0.32006 -5.55874,-1.14631 -5.84832,-1.67728 -23.31281,-2.0435 -24.83549,-0.52081 -0.53983,0.53981 3.50589,7.41768 8.99044,15.28415 6.16437,8.8415 9.13225,14.30269 7.77285,14.30269 -9.91082,0 -53.12378,-11.21796 -61.76164,-16.03314 -3.57266,-1.9916 -6.49578,-3.2879 -6.49578,-2.88068 0,0.40722 2.07611,5.61911 4.61351,11.58198 2.53744,5.96288 4.33385,11.12128 3.99201,11.4631 -0.34182,0.34184 -3.24244,-2.68317 -6.44583,-6.72222 z"
       id="path28355"
       inkscape:connector-curvature="0" />
    <path
       style="opacity:1;fill:#564424;fill-opacity:1;fill-rule:nonzero;stroke:none;stroke-width:8.46284485;stroke-miterlimit:4;stroke-dasharray:none;stroke-opacity:1"
       d="m -64.146676,299.97961 c -7.59512,-1.95413 -7.74991,-2.09658 -5.38009,-4.95202 1.67529,-2.01864 1.14337,-2.33161 -3.98534,-2.34495 l -5.9187,-0.0154 -5.81684,-13.90978 c -3.19923,-7.6504 -5.54016,-14.18648 -5.20202,-14.52462 0.33816,-0.33813 2.99855,0.38119 5.91198,1.59851 9.70457,4.05482 60.29706,15.7458 61.76918,14.27372 0.34054,-0.34055 -3.87623,-7.10351 -9.37057,-15.02881 l -9.98971,-14.40962 5.03941,-0.78376 c 2.7717,-0.43108 9.46417,-0.27057 14.8722,0.35666 5.40801,0.62724 10.10553,0.86766 10.43893,0.53428 1.07111,-1.07114 -27.55067,-43.31728 -62.60918,-92.41192 -11.64113,-16.30185 -20.86221,-29.94325 -20.49123,-30.31421 0.82251,-0.82252 2.4698,0.23157 75.82024,48.5166 32.36418,21.30466 64.12412,41.95122 70.57766,45.88125 l 11.73371,7.14551 -2.92285,4.80624 c -1.60758,2.64343 -3.7927,4.82812 -4.85585,4.85485 -1.22221,0.0307 -0.96522,0.78369 0.69893,2.0477 2.4294,1.84529 2.27883,2.33736 -1.95752,6.39603 -4.56203,4.37069 -4.56925,4.40441 -1.21055,5.64687 3.06046,1.13214 3.15428,1.47448 0.99571,3.63306 -2.15861,2.1586 -2.68796,2.12217 -5.6179,-0.38651 -1.77911,-1.52332 -3.65816,-5.02661 -4.17563,-7.78509 -1.27185,-6.77947 -2.74738,-6.31123 -5.86893,1.86244 -1.44468,3.78283 -3.3418,6.87788 -4.21582,6.87788 -1.04373,0 -1.00489,0.704 0.11313,2.05113 2.18493,2.63268 0.71708,4.04998 -4.25746,4.11083 l -3.9484,0.0483 4.28836,3.77275 4.28837,3.77272 -5.05256,0.034 -5.05259,0.034 3.82103,2.98886 c 3.78942,2.96413 3.79294,2.98913 0.42434,3.02284 -5.97225,0.0598 -49.48904,11.7824 -67.6746,18.23032 -9.66721,3.42765 -17.92065,6.16691 -18.34097,6.08722 -0.42031,-0.0796 -3.51536,-0.85268 -6.87787,-1.71781 z"
       id="path28357"
       inkscape:connector-curvature="0" />
    <path
       style="opacity:1;fill:#d0b576;fill-opacity:1;fill-rule:nonzero;stroke:none;stroke-width:8.46284485;stroke-miterlimit:4;stroke-dasharray:none;stroke-opacity:1"
       d="M -89.341006,87.838687 C -107.93194,76.296864 -123.94383,65.072025 -135.61743,55.397469 c -4.56531,-3.783537 -8.17949,-5.684936 -9.69817,-5.102162 -1.68765,0.647613 -8.72657,-5.131792 -23.24106,-19.082387 -20.22916,-19.443276 -29.04265,-29.7068649 -27.14188,-31.60762646 0.51027,-0.5102693 7.96512,6.28857016 16.56633,15.10853246 22.13504,22.697987 19.9771,21.974709 65.5629,21.974709 20.733334,0 38.104774,0.406014 38.603134,0.902253 0.4984,0.496237 -1.19305,3.800147 -3.75877,7.342024 -7.17712,9.907709 -8.10136,13.400108 -4.49951,17.001977 5.21134,5.211341 22.65569,3.364039 49.65965,-5.258803 6.71756,-2.145041 12.71423,-3.908851 13.32592,-3.919583 1.43463,-0.02516 -8.73834,9.129266 -23.27417,20.943943 -6.30471,5.124445 -14.8762,12.820833 -19.04773,17.103082 -4.17155,4.282253 -8.0074,7.785913 -8.52416,7.785913 -0.51673,0 -8.73196,-4.8378 -18.25606,-10.750654 z"
       id="path28359"
       inkscape:connector-curvature="0" />
    <path
       style="opacity:1;fill:#feefd3;fill-opacity:1;fill-rule:nonzero;stroke:none;stroke-width:8.46284485;stroke-miterlimit:4;stroke-dasharray:none;stroke-opacity:1"
       d="m -60.325636,32.145523 c 0,-3.457472 -0.84453,-5.8117 -2.28283,-6.363626 -1.25555,-0.481801 -8.13678,-0.0051 -15.29164,1.059394 -7.15489,1.064467 -13.30632,1.63794 -13.66986,1.274387 -0.36356,-0.363553 6.68965,-3.993168 15.67376,-8.065812 11.11393,-5.038111 19.14369,-7.660488 25.12316,-8.204771 4.83362,-0.439981 8.7884,-0.301002 8.7884,0.308842 0,1.428649 -15.31612,23.609737 -17.03699,24.673298 -0.71718,0.443251 -1.304,-1.663517 -1.304,-4.681712 z"
       id="path28361"
       inkscape:connector-curvature="0" />
    <path
       style="opacity:1;fill:#e5d2aa;fill-opacity:1;fill-rule:nonzero;stroke:none;stroke-width:8.46284485;stroke-miterlimit:4;stroke-dasharray:none;stroke-opacity:1"
       d="m -34.342576,116.5421 c -2.10156,-0.94036 -10.90187,-5.04457 -19.5562,-9.12048 l -15.73514,-7.41073 2.74362,-3.438799 c 3.41889,-4.285149 16.87309,-16.495736 35.39786,-32.125941 7.81,-6.589646 13.96376,-12.217384 13.67507,-12.506084 -0.28871,-0.288703 -8.42364,1.87937 -18.07765,4.817941 -11.52623,3.508454 -22.13478,5.644258 -30.89836,6.220724 -19.66632,1.293643 -22.10644,-1.872853 -12.46997,-16.182192 4.35906,-6.472803 5.08082,-8.4685 3.43895,-9.508786 -1.1429,-0.724141 -10.67533,-1.373158 -21.18318,-1.442265 -18.955814,-0.124666 -19.051434,-0.143126 -12.227324,-2.361065 8.16988,-2.655342 33.256434,-6.730584 41.432404,-6.730584 h 5.78096 l 0.46585,7.25997 0.46585,7.259971 8.40629,-12.056041 c 13.40953,-19.2315613 11.37502,-17.905341 22.92623,-14.944819 9.17051,2.350367 9.97413,2.892866 10.4476,7.052825 0.2821,2.47863 2.62096,10.732071 5.19745,18.340977 2.96304,8.750406 4.9514096,18.159976 5.4107296,25.605095 0.70945,11.500048 0.61899,11.87787 -3.9335896,16.430461 -2.56286,2.562857 -6.26018,4.669133 -8.21624,4.680611 -1.95609,0.01146 -5.10225,0.435123 -6.99151,0.941435 -3.35555,0.899279 -3.41209,1.269958 -2.44496,16.027486 0.54451,8.30881 0.71467,15.06037 0.37814,15.00348 -0.33649,-0.0569 -2.33132,-0.87283 -4.43288,-1.81319 z"
       id="path28363"
       inkscape:connector-curvature="0" />
    <path
       style="opacity:1;fill:#d0b576;fill-opacity:1;fill-rule:nonzero;stroke:none;stroke-width:8.46284485;stroke-miterlimit:4;stroke-dasharray:none;stroke-opacity:1"
       d="M 72.646454,76.262817 C 53.049114,66.026104 31.774494,53.916892 -6.8310964,31.02528 -14.699886,26.359411 -18.447366,23.186348 -18.782616,20.905727 c -0.26863,-1.827309 -0.16518,-3.322378 0.22992,-3.322378 0.39508,0 6.46462,2.642245 13.4879096,5.871654 15.9134104,7.317245 21.2852004,9.02803 31.7402304,10.108512 10.47494,1.082537 19.98798,3.613679 19.98798,5.318223 0,0.721143 -2.40726,3.424767 -5.34945,6.008052 -2.94222,2.583284 -5.34946,5.005232 -5.34946,5.382102 0,0.376872 7.78069,0.302022 17.29045,-0.166333 26.56967,-1.308555 30.99384,1.079936 38.26954,20.660701 5.12726,13.798738 6.01014,17.128842 4.53329,17.09855 -0.68712,-0.0141 -11.22222,-5.23499 -23.41134,-11.601993 z"
       id="path28365"
       inkscape:connector-curvature="0" />
    <path
       style="opacity:1;fill:#e5d2aa;fill-opacity:1;fill-rule:nonzero;stroke:none;stroke-width:8.46284485;stroke-miterlimit:4;stroke-dasharray:none;stroke-opacity:1"
       d="m 73.410684,49.48242 c -2.58329,-0.824418 -11.59211,-1.037743 -20.63361,-0.488595 l -16.04836,0.974719 5.27005,-5.496668 c 5.98374,-6.241045 5.38234,-7.795998 -3.76804,-9.742244 l -6.08727,-1.294734 9.93471,-3.197487 c 14.46991,-4.65715 15.59372,-4.764584 20.63361,-1.972561 4.06533,2.252133 17.38805,18.823406 17.52426,21.797314 0.0637,1.391378 -0.90739,1.308892 -6.82535,-0.579744 z"
       id="path28367"
       inkscape:connector-curvature="0" />
    <path
       style="opacity:1;fill:#ff00e9;fill-opacity:1;fill-rule:nonzero;stroke:none;stroke-width:8.46284485;stroke-miterlimit:4;stroke-dasharray:none;stroke-opacity:1"
       d="m 207.14697,179.71378 c -32.438,-27.00408 -72.00154,-79.836999 -82.61025,-110.317231 -2.45769,-7.061242 -4.4777,-13.881764 -4.48895,-15.156717 -0.0159,-1.799807 -1.9854,-2.319827 -8.80882,-2.325846 -7.49411,-0.0066 -10.58916,-0.994251 -21.015716,-6.706214 -6.72502,-3.684156 -13.76948,-7.452032 -15.65431,-8.373057 -1.88487,-0.921028 -3.43239,-2.165639 -3.43895,-2.765806 -0.007,-0.600165 -2.59112,-2.905919 -5.74347,-5.1239 l -5.73156,-4.032692 12.22732,0.941092 c 6.72502,0.517601 20.82464,2.987079 31.332476,5.487733 10.50788,2.500654 21.80752,4.554866 25.11034,4.564914 3.30285,0.01003 8.19499,0.810128 10.87146,1.777956 l 4.86633,1.75968 -5.80827,8.291589 c -9.30854,13.288362 -9.72434,21.429049 -1.27331,24.929573 6.37749,2.641648 16.06101,0.287409 37.87746,-9.208706 l 17.38527,-7.567332 -1.02298,7.976629 c -0.56264,4.387149 -3.13614,18.293432 -5.71892,30.902856 -2.58278,12.609419 -5.04145,24.645689 -5.46373,26.747259 -0.6505,3.23727 0.6095,2.47838 8.24736,-4.96735 4.95834,-4.83361 9.76103,-8.78839 10.67263,-8.78839 4.07289,0 12.30574,25.03674 18.09321,55.02294 1.37909,7.14534 3.53825,16.67634 4.79814,21.17999 1.25989,4.50365 2.07807,8.39603 1.81814,8.64973 -0.2599,0.25369 -7.6943,-5.55073 -16.5209,-12.8987 z"
       id="path28369"
       inkscape:connector-curvature="0" />
    <path
       style="opacity:1;fill:#ff00e9;fill-opacity:1;fill-rule:nonzero;stroke:none;stroke-width:8.46284485;stroke-miterlimit:4;stroke-dasharray:none;stroke-opacity:1"
       d="m 224.99176,192.04685 c -1.29606,-3.23921 -4.8151,-17.59085 -7.82007,-31.89254 -3.00501,-14.30169 -6.75818,-29.76578 -8.34044,-34.36466 -2.53733,-7.37487 -7.16198,-17.64585 -8.74286,-19.41722 -0.30591,-0.34276 -4.68905,2.97147 -9.74035,7.36493 -5.05126,4.39347 -9.18413,7.62963 -9.18413,7.19148 0,-0.43816 2.34177,-12.69361 5.20393,-27.234329 6.1986,-31.491054 7.17576,-37.900789 5.77791,-37.900789 -0.5793,0 -9.30534,3.502104 -19.39118,7.782454 -19.45886,8.25818 -31.49375,10.685693 -37.37414,7.538604 -5.12453,-2.742565 -3.65336,-12.388678 3.51221,-23.028947 3.20112,-4.753404 4.97459,-8.80236 4.19635,-9.580605 -0.74134,-0.741339 -5.02986,-1.940745 -9.53006,-2.665349 -6.97293,-1.122754 -6.26062,-1.216769 4.81987,-0.636151 11.89119,0.623099 26.12226,-0.722453 33.96392,-3.211301 2.84994,-0.904536 3.02371,-0.525327 2.07547,4.529185 -0.56917,3.034006 -0.62372,5.516375 -0.12123,5.516375 1.43666,0 26.52837,-16.767953 27.53924,-18.403546 0.49826,-0.806217 2.16866,-1.465848 3.71202,-1.465848 3.41278,0 4.48022,5.840154 5.30768,29.039884 0.46011,12.899766 1.78525,20.396406 6.75428,38.210371 3.40003,12.189112 6.92809,26.632622 7.84016,32.096712 1.77591,10.63933 4.1289,76.42074 2.73357,76.42074 -0.45961,0 -1.89606,-2.65025 -3.19215,-5.88945 z"
       id="path28371"
       inkscape:connector-curvature="0" />
    <path
       style="opacity:1;fill:#c0a26c;fill-opacity:1;fill-rule:nonzero;stroke:none;stroke-width:8.46284485;stroke-miterlimit:4;stroke-dasharray:none;stroke-opacity:1"
       d="m 200.33064,207.02981 c -5.24174,-4.95742 -8.40597,-7.00799 -8.84433,-5.73156 -0.40955,1.1925 -1.99914,-0.15228 -3.97394,-3.36195 -4.06366,-6.60468 -2.39022,-7.32606 9.08764,-3.91751 4.4055,1.30829 8.20958,2.17912 8.45352,1.93519 1.31464,-1.31465 -55.98821,-71.39243 -75.60283,-92.4575 -12.60814,-13.54047 -25.11097,-27.79785 -27.78409,-31.683063 -2.673076,-3.885215 -5.161616,-6.76257 -5.530076,-6.394124 -0.36843,0.368448 0.0249,3.683767 0.87419,7.367381 2.95301,12.808805 1.48717,12.732025 -3.44385,-0.18039 -2.72867,-7.145338 -7.86426,-17.252456 -11.4124,-22.460257 -3.54814,-5.207799 -6.45118,-9.868141 -6.45118,-10.356313 0,-0.48817 4.98644,1.837589 11.08102,5.168352 13.339856,7.290438 24.085166,10.334718 28.145656,7.97401 2.27626,-1.323401 1.44105,-1.639403 -4.43278,-1.677122 -5.6691,-0.03641 -10.47171,-1.730005 -22.161996,-7.81522 -8.20849,-4.27281 -16.97466,-9.775103 -19.48037,-12.22732 l -4.55586,-4.458575 6.84847,0.01212 c 3.76666,0.0067 15.10191,1.734902 25.18947,3.840525 10.087526,2.105621 22.811576,4.519629 28.275676,5.364459 5.46407,0.844831 11.99803,1.909474 14.51993,2.365873 2.98834,0.540816 3.888,0.347189 2.58324,-0.555975 -1.30196,-0.901226 2.70626,-1.73473 11.46312,-2.383718 7.4058,-0.548862 15.01262,-1.422778 16.90405,-1.942039 3.03262,-0.832567 3.43892,-0.381326 3.43892,3.819398 0,2.619928 0.58116,4.763505 1.29146,4.763505 1.6905,0 19.61986,-11.581124 25.30514,-16.345371 6.97577,-5.845677 8.33261,-2.980954 9.94,20.986713 1.08239,16.13934 2.89716,26.638644 8.41423,48.679932 6.89972,27.565179 7.06345,28.789769 8.56297,64.056219 0.84085,19.7746 1.25056,36.23205 0.91049,36.57212 -1.11578,1.11577 -5.23417,-13.67248 -10.94984,-39.3185 -5.44287,-24.42211 -13.04798,-47.87191 -16.14659,-49.78696 -0.8314,-0.51384 -5.06997,1.83838 -9.41904,5.22717 -4.34906,3.38878 -8.13315,5.93565 -8.40909,5.6597 -0.27596,-0.27594 2.04899,-13.99935 5.16655,-30.496446 3.11756,-16.497104 5.23118,-30.431827 4.69696,-30.96605 -0.53422,-0.53422 -9.40816,2.361443 -19.71987,6.434812 -15.40304,6.084565 -20.52132,7.420951 -28.68324,7.48923 l -9.93471,0.0831 -0.47948,-5.817515 c -0.35441,-4.299905 0.76819,-8.028326 4.3034,-14.292318 6.61188,-11.715649 4.89222,-11.851497 -2.02423,-0.159906 -6.84302,11.567456 -7.37848,18.283335 -1.75172,21.970135 5.73632,3.758588 15.88746,1.971677 36.13406,-6.360711 9.52188,-3.91868 18.16955,-7.468854 19.21704,-7.889274 2.19204,-0.879793 2.50158,-3.082015 -5.06297,36.022724 -2.98524,15.432109 -5.06012,28.425979 -4.61084,28.875269 0.44929,0.44929 4.55422,-2.37603 9.1221,-6.27847 4.56784,-3.90244 8.97054,-7.09535 9.78373,-7.09535 1.77607,0 6.72008,11.33134 10.00297,22.92622 3.50531,12.38028 13.26626,57.04435 12.60999,57.70063 -0.3103,0.3103 -6.73092,-4.60981 -14.26803,-10.93358 -34.75659,-29.16137 -73.65002,-82.218779 -83.57973,-114.017303 -1.44378,-4.623453 -2.93174,-9.364456 -3.3066,-10.535557 -0.37486,-1.171104 -0.98126,-1.829612 -1.3475,-1.463352 -0.36626,0.366257 0.39854,4.763368 1.69955,9.771351 8.07173,31.070102 50.35177,89.108671 86.68134,118.988931 8.66082,7.12332 16.63353,14.01978 17.71713,15.32546 4.42651,5.33362 -4.15279,17.69783 -12.28018,17.69783 -3.44768,0 -6.6792,-1.95234 -12.77665,-7.71906 z"
       id="path28373"
       inkscape:connector-curvature="0" />
    <path
       style="opacity:1;fill:#feefd3;fill-opacity:1;fill-rule:nonzero;stroke:none;stroke-width:8.46284485;stroke-miterlimit:4;stroke-dasharray:none;stroke-opacity:1"
       d="m 175.589,35.905355 c 0.97026,-4.851334 0.92096,-4.900628 -3.98129,-3.981085 -6.34881,1.190879 -31.4448,2.709617 -29.41838,1.780316 2.88078,-1.321086 47.37531,-11.28698 55.02293,-12.324049 l 7.64209,-1.036312 -10.6989,7.93736 c -5.88441,4.365546 -12.69016,8.972037 -15.1239,10.236642 l -4.425,2.299287 z"
       id="path28375"
       inkscape:connector-curvature="0" />
    <path
       style="opacity:1;fill:#78633a;fill-opacity:1;fill-rule:nonzero;stroke:none;stroke-width:8.46284485;stroke-miterlimit:4;stroke-dasharray:none;stroke-opacity:1"
       d="M 100.56084,229.5148 C 76.651694,214.80127 69.311384,209.42402 60.213134,199.95748 52.897854,192.3461 2.9452636,117.34337 4.2934136,115.99523 c 0.41699,-0.41699 8.0471704,0.87547 16.9559804,2.87214 l 16.19782,3.63031 -3.09618,-4.6942 C 26.525774,105.93945 0.01039363,46.561912 1.1431836,43.439038 c 0.23759,-0.655032 8.34154,3.320637 18.0087604,8.834821 20.65205,11.779925 79.02662,41.730232 81.334206,41.730232 1.54988,0 0.75732,-10.942784 -1.438936,-19.86728 -0.67288,-2.734255 1.142076,-1.214874 6.390166,5.349452 4.03151,5.042606 14.00564,16.046248 22.16475,24.452527 8.15912,8.40628 18.64363,19.75476 23.29889,25.21884 13.23676,15.53651 50.26298,63.04379 49.62912,63.67767 -0.31335,0.31333 -4.28308,-0.36744 -8.82166,-1.51282 -7.21003,-1.81956 -8.4373,-2.69393 -9.71997,-6.92495 -1.64121,-5.41362 -4.38034,-5.60805 -5.14895,-0.36548 -0.45421,3.09795 -1.08829,3.33425 -6.49576,2.42066 -3.29584,-0.55683 -5.99245,-0.74169 -5.99245,-0.4108 0,0.33088 1.73414,2.9521 3.85366,5.82494 2.1195,2.87283 3.48321,6.18867 3.03046,7.36853 -0.45276,1.17986 -0.0775,3.04368 0.83389,4.14185 1.25634,1.51382 0.68715,2.63214 -2.35376,4.62462 -3.83099,2.51016 -4.19534,2.49177 -8.12647,-0.41008 -2.61305,-1.92887 -4.64132,-5.36207 -5.55551,-9.40359 -0.79192,-3.50104 -1.92693,-6.36554 -2.52227,-6.36554 -0.59534,0 -1.91003,3.44982 -2.92153,7.66624 -1.06368,4.4339 -3.16386,8.59414 -4.98105,9.86696 -2.64363,1.85167 -2.82641,2.58093 -1.15239,4.59801 2.27076,2.73609 2.3358,2.63568 -3.79545,5.85922 l -4.58525,2.41071 4.96734,1.03883 c 2.73206,0.57137 4.96736,1.52444 4.96736,2.11794 0,1.24917 -5.27774,4.00995 -10.44749,5.46509 l -3.56963,1.00475 3.44829,3.67052 c 1.89653,2.01881 2.9501,4.16871 2.34125,4.77756 -0.60886,0.60888 -4.85228,1.12743 -9.42981,1.15235 -7.74803,0.0422 -9.66734,-0.78212 -27.79215,-11.93602 z"
       id="path28377"
       inkscape:connector-curvature="0" />
    <path
       style="opacity:1;fill:#ff00e9;fill-opacity:1;fill-rule:nonzero;stroke:none;stroke-width:8.46284485;stroke-miterlimit:4;stroke-dasharray:none;stroke-opacity:1"
       d="m 169.17828,191.82264 c -3.25559,-4.40343 -3.27197,-4.58524 -0.41243,-4.58524 5.52561,0 7.39002,1.52266 6.64384,5.42602 -0.93331,4.88234 -2.11836,4.72244 -6.23141,-0.84078 z"
       id="path28379"
       inkscape:connector-curvature="0" />
    <path
       style="opacity:1;fill:#c0a26c;fill-opacity:1;fill-rule:nonzero;stroke:none;stroke-width:8.46284485;stroke-miterlimit:4;stroke-dasharray:none;stroke-opacity:1"
       d="m 241.13196,214.36769 c -1.79332,-1.90888 -4.98843,-7.37767 -7.10023,-12.15284 -3.54084,-8.00647 -3.96147,-11.45469 -5.40504,-44.30861 -1.59724,-36.35111 -2.27518,-40.82236 -10.73182,-70.780015 -4.88185,-17.293963 -7.36684,-37.025437 -5.56643,-44.198857 l 1.02068,-4.066757 4.62309,2.730923 c 2.5427,1.502008 12.30559,9.756968 21.69533,18.344357 26.08951,23.860217 35.95171,28.094029 49.10901,21.082418 6.3125,-3.363958 8.1424,-3.732091 11.5453,-2.322584 3.4753,1.439521 4.2828,3.070635 5.7443,11.602669 1.1211,6.544887 5.337,17.590986 12.3728,32.417636 5.8698,12.36948 11.4257,25.24111 12.3466,28.60362 2.1916,8.0023 2.0379,23.3313 -0.288,28.72564 l -1.8416,4.271 -8.2842,-11.14887 c -4.5563,-6.13187 -16.5802,-21.64743 -26.7196,-34.47901 -19.3651,-24.50663 -20.437,-25.15953 -20.6659,-12.58761 -0.054,2.9422 1.2736,14.52457 2.9494,25.73859 4.53,30.31461 5.1074,28.71466 -7.6882,21.30657 -5.9043,-3.41833 -11.0509,-5.89927 -11.437,-5.51321 -0.3861,0.38606 -0.1041,2.78651 0.6266,5.33435 1.5605,5.44099 -1.1131,21.7617 -3.05119,18.62582 -1.32974,-2.15157 -1.13927,-2.50315 -4.40536,8.13164 -0.94748,3.08511 -2.70473,6.42431 -3.90502,7.42046 -1.49666,1.24212 -1.74572,2.62698 -0.79266,4.40776 2.48319,4.6399 -0.52189,6.67781 -4.15086,2.81491 z"
       id="path28381"
       inkscape:connector-curvature="0" />
    <path
       style="opacity:1;fill:#d0b576;fill-opacity:1;fill-rule:nonzero;stroke:none;stroke-width:8.46284485;stroke-miterlimit:4;stroke-dasharray:none;stroke-opacity:1"
       d="m 399.72725,167.91683 c -39.7135,-27.89987 -39.8255,-27.99814 -59.1956,-51.9372 -11.4033,-14.09305 -21.8088,-25.27737 -27.365,-29.413387 -13.6564,-10.165594 -14.6398,-10.435992 -23.9382,-6.582024 -16.0095,6.635552 -20.4685,4.613934 -52.99404,-24.026334 -8.01214,-7.055048 -16.80744,-14.175533 -19.54514,-15.823297 -4.82518,-2.90417 -6.09542,-5.375773 -6.87673,-13.380749 -0.34179,-3.501687 0.0977,-3.79389 5.25851,-3.496231 7.05086,0.406675 37.70599,11.969022 60.8546,22.952832 25.4468,12.074308 42.4103,18.394201 54.413,20.272065 17.24,2.697245 17.0226,2.397017 7.5193,10.387248 -4.6408,3.901874 -8.4378,7.56657 -8.4378,8.143772 0,1.806495 8.8809,4.250023 22.2374,6.118513 15.5655,2.177493 21.5646,5.502373 24.803,13.746362 1.8389,4.68154 3.083,5.97728 5.2058,5.42214 3.0194,-0.78957 3.1159,-0.54116 5.7818,14.87433 1.8287,10.57469 7.0879,22.67088 12.7853,29.40589 2.2883,2.70514 8.381,6.62959 14,9.01767 8.6512,3.67683 9.9414,4.74633 9.8943,8.20201 -0.03,2.18562 -0.8895,5.46746 -1.9106,7.29297 -1.8075,3.23194 -2.3984,2.93833 -22.4899,-11.17658 z"
       id="path28383"
       inkscape:connector-curvature="0" />
    <path
       style="opacity:1;fill:#78633a;fill-opacity:1;fill-rule:nonzero;stroke:none;stroke-width:8.46284485;stroke-miterlimit:4;stroke-dasharray:none;stroke-opacity:1"
       d="m 264.42605,217.76767 c -3.2773,-3.42081 -3.9381,-5.00509 -2.6321,-6.31105 1.306,-1.30595 0.851,-2.44583 -1.8123,-4.54077 -4.65707,-3.66329 -5.56819,-9.13823 -2.839,-17.05988 1.2181,-3.53543 1.9878,-9.69807 1.7105,-13.69475 -0.2774,-3.99668 -0.2504,-7.26627 0.06,-7.26575 0.3104,5.3e-4 4.527,2.4082 9.3704,5.3504 9.3867,5.7021 12.2334,6.50339 12.2173,3.43893 -0.01,-1.05078 -1.3811,-11.08562 -3.0568,-22.29965 -1.6758,-11.21402 -3.0186,-24.28197 -2.9841,-29.03988 l 0.063,-8.65075 5.9478,6.57606 c 5.089,5.62655 35.2428,44.0151 45.357,57.74368 l 3.285,4.45893 1.8858,-4.58524 c 2.8767,-6.9944 3.5891,-19.76065 1.5553,-27.87022 -1.0047,-4.00583 -6.1666,-16.56845 -11.4708,-27.91693 -10.8055,-23.11844 -15.0473,-34.974673 -14.3176,-40.019425 0.4421,-3.056398 1.5846,-2.388465 11.0502,6.460075 5.8064,5.427911 17.1114,18.04714 25.1223,28.04275 15.2214,18.99248 19.0949,22.29075 59.3932,50.5727 15.7345,11.04268 18.9866,14.55208 13.485,14.55208 -1.1396,0 -19.4691,-13.38267 -40.7323,-29.73928 -21.2632,-16.3566 -38.8694,-29.53017 -39.125,-29.2746 -0.2555,0.25557 1.8554,5.55675 4.6911,11.7804 2.8357,6.22366 8.0903,19.46203 11.6769,29.41862 l 6.5212,18.10288 -3.6327,7.84381 c -4.4041,9.5093 -11.4079,17.85123 -14.9878,17.85123 -3.4756,0 -8.7952,-5.79929 -10.9257,-11.91097 -0.9398,-2.69588 -2.1573,-4.89936 -2.7055,-4.89662 -0.5483,0.003 -2.9704,4.81724 -5.3825,10.6989 -2.4122,5.88166 -5.0084,10.69393 -5.7694,10.69393 -0.761,0 -2.1627,-1.89141 -3.1148,-4.20314 -1.3673,-3.31965 -1.8648,-3.64092 -2.3669,-1.52842 -0.7823,3.29148 -3.968,3.4634 -6.549,0.35344 -1.5766,-1.89966 -1.4288,-2.87132 0.8139,-5.34945 2.44,-2.69614 2.4674,-3.02816 0.2502,-3.02816 -2.7886,0 -6.2415,-5.87831 -7.8556,-13.37363 -1.27,-5.89758 -3.8837,-6.61794 -3.8837,-1.07041 0,4.66713 -3.7503,12.38013 -6.4636,13.29319 -1.5652,0.52672 -1.5678,1.10808 -0.013,2.99213 1.5703,1.90324 1.5026,2.69257 -0.364,4.24172 -1.8678,1.55009 -2.4386,1.44589 -3.0757,-0.56142 -0.4303,-1.35561 -1.1213,-3.54003 -1.5357,-4.85425 -1.2408,-3.93542 -3.4873,-1.10629 -6.0088,7.56724 -3.3043,11.36647 -5.3885,12.71319 -10.851,7.01155 z"
       id="path28385"
       inkscape:connector-curvature="0" />
    <path
       style="opacity:1;fill:#564424;fill-opacity:1;fill-rule:nonzero;stroke:none;stroke-width:8.46284485;stroke-miterlimit:4;stroke-dasharray:none;stroke-opacity:1"
       d="m 398.84585,227.15405 c -7.8274,-4.77316 -22.3812,-27.07185 -29.0454,-44.5019 -3.8078,-9.95937 -4.7754,-10.36032 -7.6522,-3.17069 l -2.5824,6.45412 -7.2145,-19.60059 c -3.968,-10.78032 -8.9935,-23.55536 -11.1677,-28.38897 -2.1743,-4.83361 -3.649,-8.78839 -3.2771,-8.78839 0.3719,0 17.9461,13.06795 39.0539,29.03988 21.1078,15.97194 37.6165,29.03989 36.686,29.03989 -3.2891,0 -1.6254,2.99178 3.6614,6.58431 l 5.3534,3.63768 -5.395,5.55499 c -2.9672,3.05524 -7.6115,6.15421 -10.3206,6.88659 l -4.9258,1.3316 7.26,3.59113 c 3.993,1.97511 7.26,4.08908 7.26,4.6977 0,2.40569 -8.0646,10.51128 -10.4527,10.5059 -1.3964,-0.003 -4.6549,-1.2961 -7.2413,-2.87325 z"
       id="path28387"
       inkscape:connector-curvature="0" />
    <path
       style="opacity:1;fill:#e5d2aa;fill-opacity:1;fill-rule:nonzero;stroke:none;stroke-width:8.46284485;stroke-miterlimit:4;stroke-dasharray:none;stroke-opacity:1"
       d="m 393.40985,142.04464 c -1.8136,-4.10014 -4.3723,-13.14765 -5.6859,-20.10559 -2.0631,-10.92813 -2.8133,-12.65293 -5.5093,-12.66636 -2.1753,-0.0108 -3.8808,-1.82526 -5.6285,-5.98795 -3.0759,-7.325999 -8.2051,-10.171079 -22.1374,-12.279138 -12.577,-1.903 -23.4886,-4.680024 -23.5305,-5.988529 -0.017,-0.521221 3.5942,-4.165719 8.0242,-8.09888 8.0438,-7.141721 8.0494,-7.153143 4.2335,-8.615953 -3.6744,-1.408509 -3.5864,-1.512543 2.2926,-2.709579 3.3625,-0.684657 12.2981,-1.278091 19.8568,-1.318744 l 13.7432,-0.07391 3.3814,12.851495 c 1.8598,7.06832 5.1824,23.231308 7.3835,35.917748 2.201,12.68644 4.9763,25.76748 6.1672,29.06898 3.1498,8.73191 1.271,8.73657 -2.5908,0.006 z"
       id="path28389"
       inkscape:connector-curvature="0" />
    <path
       style="opacity:1;fill:#957b4b;fill-opacity:1;fill-rule:nonzero;stroke:none;stroke-width:8.46284485;stroke-miterlimit:4;stroke-dasharray:none;stroke-opacity:1"
       d="m 468.57155,166.45402 c -11.3123,-2.84842 -22.831,-5.41112 -25.597,-5.69487 -2.766,-0.28376 -5.4894,-0.97621 -6.052,-1.53878 -0.5625,-0.56257 -2.2374,-1.02286 -3.7219,-1.02286 -1.4845,0 -3.1357,-1.37557 -3.6693,-3.05682 -1.2839,-4.04522 -3.8211,-3.9161 -3.8211,0.19445 0,2.98688 -0.6307,3.19069 -7.7559,2.50605 -8.6745,-0.83351 -14.5468,-4.47164 -18.7202,-11.59782 -1.5632,-2.66916 -5.1071,-17.35602 -8.0752,-33.46536 -2.9091,-15.789739 -6.0095,-30.949915 -6.8897,-33.689284 -0.8803,-2.739366 -1.334,-5.779825 -1.0085,-6.756577 0.3256,-0.976749 11.4675,8.438597 24.7597,20.922992 26.3072,24.708379 26.6506,24.790809 19.0395,4.56999 -1.5821,-4.20314 -2.8769,-8.178874 -2.8773,-8.834964 0,-1.829175 21.1682,12.882543 30.0749,20.900593 4.3525,3.91827 14.3255,15.41308 22.162,25.54402 7.8366,10.13094 15.4497,19.91287 16.918,21.73763 2.2223,2.76174 2.4023,4.27822 1.0745,9.04928 -0.8774,3.15236 -2.4226,5.6595 -3.4339,5.57142 -1.0112,-0.0881 -11.0942,-2.49067 -22.4066,-5.33909 z"
       id="path28391"
       inkscape:connector-curvature="0" />
    <path
       style="opacity:1;fill:#d0b576;fill-opacity:1;fill-rule:nonzero;stroke:none;stroke-width:8.46284485;stroke-miterlimit:4;stroke-dasharray:none;stroke-opacity:1"
       d="m 478.61885,137.03275 c -17.8379,-23.32312 -24.5685,-30.03764 -41.8323,-41.732329 -15.8038,-10.705605 -16.0102,-10.710174 -11.8691,-0.26285 5.0457,12.729619 5.972,16.237729 4.1133,15.577809 -2.4344,-0.86433 -49.1729,-44.582219 -49.1729,-45.994965 0,-1.220255 2.2945,-0.876186 14.5199,2.177331 9.6275,2.404628 26.5386,11.237465 38.2104,19.95765 5.8844,4.396333 22.957,20.377894 37.9391,35.514584 26.0675,26.33636 27.1851,27.71351 25.9602,31.98685 -1.2573,4.38621 -1.5749,4.08005 -17.8686,-17.22408 z"
       id="path28393"
       inkscape:connector-curvature="0" />
    <path
       style="opacity:1;fill:#e5d2aa;fill-opacity:1;fill-rule:nonzero;stroke:none;stroke-width:8.46284485;stroke-miterlimit:4;stroke-dasharray:none;stroke-opacity:1"
       d="m 415.77565,163.70077 c -8.3551,-3.81684 -17.5768,-10.92468 -17.5768,-13.54762 0,-0.91243 1.5569,-0.19633 3.4598,1.59133 4.5256,4.25163 13.5996,7.98145 19.4173,7.98145 3.9244,0 4.6343,0.58539 4.6343,3.82104 0,4.58341 -0.2305,4.58698 -9.9346,0.1538 z"
       id="path28395"
       inkscape:connector-curvature="0" />
    <path
       style="opacity:1;fill:#e5d2aa;fill-opacity:1;fill-rule:nonzero;stroke:none;stroke-width:8.46284485;stroke-miterlimit:4;stroke-dasharray:none;stroke-opacity:1"
       d="m 439.96835,179.97743 c -3.3494,-3.99299 -6.8229,-10.18307 -7.7188,-13.75574 -1.4778,-5.89273 -1.3658,-6.49576 1.2058,-6.49576 4.3849,0 8.9453,5.98302 11.6273,15.25435 1.3421,4.63984 2.7644,9.29581 3.1606,10.3466 1.5706,4.16567 -2.5016,1.53314 -8.2749,-5.34945 z"
       id="path28397"
       inkscape:connector-curvature="0" />
    <path
       style="opacity:1;fill:#78633a;fill-opacity:1;fill-rule:nonzero;stroke:none;stroke-width:2.11571121;stroke-miterlimit:4;stroke-dasharray:none;stroke-opacity:1"
       d="m 478.58685,199.69571 c -0.9457,-0.27087 -2.2783,-0.50633 -2.9613,-0.52325 -1.2588,-0.0312 -1.5353,-0.34656 -0.8813,-1.00511 0.524,-0.5277 4.6433,-7.14191 4.52,-7.25769 -0.057,-0.0538 -1.1582,-0.52444 -2.4464,-1.04585 -7.2966,-2.95332 -13.7799,-10.13527 -16.5682,-18.35357 -0.5692,-1.67764 -1.1248,-2.89577 -1.2348,-2.70696 -0.11,0.18881 -0.3231,1.19097 -0.4734,2.22701 -0.4316,2.97242 -2.3474,8.4325 -4.6218,13.17211 -1.15,2.39631 -2.0455,4.39199 -1.9899,4.43484 0.056,0.0429 0.9177,0.38388 1.9159,0.75786 1.6509,0.61848 2.4127,1.34033 1.4144,1.34033 -0.2203,0 -1.0651,0.32108 -1.8773,0.7135 l -1.4768,0.71349 -1.1288,-2.52849 c -1.5333,-3.43402 -1.7032,-3.93561 -3.7055,-10.93477 -2.666,-9.31919 -4.9723,-14.52226 -7.7716,-17.53305 l -1.0251,-1.10259 0.9553,0.22535 c 0.5253,0.12395 2.2448,0.41987 3.821,0.65762 5.7166,0.86226 44.2931,10.00883 48.6199,11.52788 l 1.4302,0.50208 -1.1085,2.34373 c -2.1511,4.5485 -5.2681,6.98391 -8.9598,7.00058 l -1.8585,0.008 2.336,2.25055 c 5.0685,4.88318 5.1245,9.26236 0.1761,13.78492 -2.2385,2.04583 -2.4299,2.0958 -5.0998,1.3311 z"
       id="path28399"
       inkscape:connector-curvature="0" />
    <path
       style="opacity:1;fill:#957b4b;fill-opacity:1;fill-rule:nonzero;stroke:none;stroke-width:2.11571121;stroke-miterlimit:4;stroke-dasharray:none;stroke-opacity:1"
       d="m 511.71315,176.69312 c -1.5431,-2.10875 -4.0864,-6.64397 -4.0864,-7.28696 0,-0.24263 0.9027,0.13311 2.0061,0.83498 1.1033,0.70187 2.966,1.77881 4.1394,2.39319 l 2.1333,1.11707 -1.0968,2.37836 c -0.6033,1.30809 -1.2478,2.37835 -1.4322,2.37835 -0.1844,0 -0.9329,-0.81674 -1.6634,-1.81499 z"
       id="path28401"
       inkscape:connector-curvature="0" />
    <path
       style="opacity:1;fill:#d0b576;fill-opacity:1;fill-rule:nonzero;stroke:none;stroke-width:2.11571121;stroke-miterlimit:4;stroke-dasharray:none;stroke-opacity:1"
       d="m 513.35415,172.1426 c -2.8766,-1.59329 -5.7949,-3.53118 -6.2001,-4.11712 -0.4176,-0.60389 -1.9609,-5.5881 -3.1431,-10.15097 -0.5717,-2.20665 -1.1965,-4.51282 -1.3883,-5.12483 -0.1918,-0.61202 -0.3005,-1.16108 -0.2414,-1.22015 0.059,-0.0591 1.6002,0.82404 3.4247,1.96246 3.5799,2.23368 11.3123,6.31268 13.2418,6.9853 0.6536,0.22787 1.1884,0.5761 1.1884,0.77385 0,0.50628 -3.4311,10.39033 -3.9634,11.41748 l -0.4391,0.84733 z"
       id="path28403"
       inkscape:connector-curvature="0" />
    <path
       style="opacity:1;fill:#957b4b;fill-opacity:1;fill-rule:nonzero;stroke:none;stroke-width:2.11571121;stroke-miterlimit:4;stroke-dasharray:none;stroke-opacity:1"
       d="m 541.86315,187.11519 c -2.6444,-1.08657 -4.4608,-2.71058 -5.9939,-5.3592 -0.6083,-1.05078 -1.1075,-1.99649 -1.1094,-2.10157 0,-0.10508 3.1345,-0.192 6.9698,-0.19316 5.6338,-0.002 7.4032,-0.1345 9.2114,-0.6913 1.231,-0.37905 2.3169,-0.61047 2.4131,-0.51428 0.1881,0.18813 -3.7455,4.84325 -5.3121,6.28637 l -0.9505,0.87553 -0.4838,-1.72833 c -0.5964,-2.12994 -1.14,-1.91196 -1.1908,0.47744 -0.045,2.11837 -0.4109,3.60165 -0.9277,3.76057 -0.2044,0.0628 -1.3861,-0.30258 -2.6261,-0.81207 z"
       id="path28405"
       inkscape:connector-curvature="0" />
    <path
       style="opacity:1;fill:#957b4b;fill-opacity:1;fill-rule:nonzero;stroke:none;stroke-width:2.11571121;stroke-miterlimit:4;stroke-dasharray:none;stroke-opacity:1"
       d="m 553.16655,201.16146 c -1.2881,-2.69317 -1.4895,-3.38737 -1.0535,-3.63137 0.2965,-0.16592 2.9175,-0.40948 5.8244,-0.54124 l 5.2854,-0.23955 -1.3203,1.39091 c -0.7262,0.765 -1.8868,1.59576 -2.5792,1.84612 -0.6924,0.25037 -1.2589,0.59104 -1.2589,0.75704 0,0.16601 0.5818,0.6832 1.2928,1.14931 1.1375,0.74564 1.2449,0.95268 0.894,1.72298 -0.3578,0.78512 -0.6618,0.87551 -2.9455,0.87551 h -2.5466 z"
       id="path28407"
       inkscape:connector-curvature="0" />
    <path
       style="opacity:1;fill:#957b4b;fill-opacity:1;fill-rule:nonzero;stroke:none;stroke-width:2.11571121;stroke-miterlimit:4;stroke-dasharray:none;stroke-opacity:1"
       d="m 541.67735,199.94496 -0.9119,-0.69421 1.1029,-0.21183 c 1.344,-0.2581 1.5146,-0.12259 1.0675,0.84786 -0.3367,0.73088 -0.3727,0.73254 -1.2585,0.0582 z"
       id="path28409"
       inkscape:connector-curvature="0" />
    <path
       style="opacity:1;fill:#d0b576;fill-opacity:1;fill-rule:nonzero;stroke:none;stroke-width:2.11571121;stroke-miterlimit:4;stroke-dasharray:none;stroke-opacity:1"
       d="m 538.69635,197.45298 c -1.8571,-1.68132 -1.9583,-2.51441 -0.3057,-2.51441 1.0671,0 2.4604,-0.56509 4.5418,-1.84196 l 1.4894,-0.91377 -0.2724,1.47339 c -0.1499,0.81037 -0.3679,2.18848 -0.4845,3.06247 -0.196,1.46922 -0.3243,1.61759 -1.7008,1.96699 -1.4292,0.36276 -1.5601,0.31336 -3.2678,-1.23271 z"
       id="path28411"
       inkscape:connector-curvature="0" />
    <path
       style="opacity:1;fill:#d0b576;fill-opacity:1;fill-rule:nonzero;stroke:none;stroke-width:2.99206734;stroke-miterlimit:4;stroke-dasharray:none;stroke-opacity:1"
       d="m 644.04125,228.19314 c -3.137,-0.47101 -12.689,-11.66355 -12.706,-14.88828 0,-0.52944 0.3596,-1.10259 0.8055,-1.27366 1.2882,-0.49436 0.9407,-1.27617 -0.5672,-1.27617 -4.178,0 -5.9875,-3.38907 -3.0804,-5.76931 l 1.4861,-1.21671 -2.1191,-0.0195 c -1.7823,-0.0164 -2.4761,-0.39212 -4.3664,-2.36493 -1.3049,-1.36181 -2.8247,-3.78844 -3.6239,-5.78607 l -1.3766,-3.44058 -0.3959,3.48947 c -0.2178,1.91922 -0.7455,4.33725 -1.1727,5.37342 -0.7703,1.86852 -2.7307,4.33038 -3.4484,4.33038 -0.2054,0 -1.8821,-1.82377 -3.7259,-4.05282 -1.8438,-2.22905 -3.6395,-4.0461 -3.9904,-4.03788 -0.3509,0.008 -3.429,2.07515 -6.8402,4.59319 l -6.2022,4.57827 -4.3352,-0.0119 c -4.3318,-0.0119 -8.2502,-1.1557 -9.1949,-2.68413 -0.248,-0.40131 0.5989,-1.5422 2.2299,-3.00412 2.3016,-2.06282 2.4759,-2.36012 1.3967,-2.38131 -0.6783,-0.0133 -2.0241,-0.35466 -2.9907,-0.75855 -2.3122,-0.96607 -3.2794,-3.24757 -4.9198,-11.60454 -1.3462,-6.85857 -2.5034,-9.29256 -3.8763,-8.15318 -0.3835,0.31834 -1.4679,2.93155 -2.4097,5.80714 -0.9417,2.87558 -2.5454,6.99131 -3.5638,9.14606 l -1.8516,3.91773 -4.708,0.007 c -2.5894,0.004 -5.2291,0.14721 -5.8661,0.31811 -1.0265,0.27544 -1.344,-0.17129 -2.7949,-3.93382 -2.7553,-7.14459 -2.7986,-6.63371 0.9299,-10.96576 1.8113,-2.10455 3.2933,-4.05259 3.2933,-4.32898 0,-0.27639 -1.0335,-0.12382 -2.2966,0.33905 -2.8463,1.04302 -14.1302,1.61361 -16.1638,0.81736 -1.1137,-0.43607 -1.6235,-1.21107 -2.2573,-3.43168 -1.1148,-3.90537 -2.1838,-9.59758 -1.8627,-9.91861 0.1443,-0.14436 2.5959,0.35859 5.4479,1.11768 15.3712,4.09122 34.4199,5.60802 49.6751,3.95553 5.3699,-0.58169 6.2284,-0.53646 11.7297,0.61797 5.2799,1.10796 6.8489,1.20886 14.1999,0.91316 4.5454,-0.18284 9.9057,-0.66633 11.9118,-1.07443 2.0061,-0.40811 3.6452,-0.59774 3.6423,-0.42142 0,0.17633 -1.2095,1.92388 -2.6814,3.88345 -3.3793,4.49864 -9.2009,10.00882 -13.9175,13.17293 -2.0066,1.34616 -3.3665,2.44757 -3.0218,2.44757 0.3447,0 2.7738,-0.7533 5.398,-1.674 9.6123,-3.37244 19.0522,-8.61081 25.5331,-14.16879 l 2.9293,-2.51218 0.8895,1.47712 c 0.4892,0.81242 1.5841,2.76023 2.4331,4.32847 0.8489,1.56824 1.722,2.66251 1.9402,2.4317 0.7986,-0.84493 3.8728,-10.27365 4.8058,-14.73963 l 0.9595,-4.5932 0.6272,2.4317 c 3.7261,14.44584 7.9245,26.39953 13.1089,37.32341 l 3.2234,6.79216 -1.4129,3.2048 c -1.6648,3.77615 -3.8332,7.0536 -4.9505,7.48233 -0.5707,0.21901 -1.2672,-0.70205 -2.4625,-3.25628 l -1.6667,-3.56168 -1.1817,3.70191 c -1.5142,4.74393 -2.5855,6.76507 -5.0049,9.44312 -2.9182,3.23003 -5.8722,4.41956 -9.5895,3.86145 z"
       id="path28413"
       inkscape:connector-curvature="0" />
    <path
       style="opacity:1;fill:#e5d2aa;fill-opacity:1;fill-rule:nonzero;stroke:none;stroke-width:2.99206734;stroke-miterlimit:4;stroke-dasharray:none;stroke-opacity:1"
       d="m 610.78275,188.70635 c 3.7565,-2.57567 9.3952,-7.48361 11.7666,-10.2416 3.1082,-3.61487 6.1673,-7.78933 5.9023,-8.05431 -0.1013,-0.10129 -2.5955,0.18125 -5.5426,0.62786 -7.221,1.09428 -19.3768,1.10946 -24.4421,0.0305 -2.1742,-0.46311 -5.0922,-0.87167 -6.4845,-0.90791 l -2.5315,-0.0659 3.1496,-0.46035 c 3.7748,-0.55172 18.2258,-4.31706 30.8941,-8.04973 8.1771,-2.40934 20.7135,-5.26028 27.1539,-6.17519 l 2.2966,-0.32625 v 3.48232 c 0,3.88278 -2.4136,14.04517 -4.4267,18.63849 l -1.2603,2.87565 -2.3899,-4.33646 -2.3899,-4.33645 -3.0073,2.57451 c -6.1535,5.26789 -14.5918,10.06682 -24.281,13.80881 -5.3948,2.08344 -6.421,2.29674 -4.4073,0.91598 z"
       id="path28415"
       inkscape:connector-curvature="0" />
    <path
       style="opacity:1;fill:#957b4b;fill-opacity:1;fill-rule:nonzero;stroke:none;stroke-width:2.99206734;stroke-miterlimit:4;stroke-dasharray:none;stroke-opacity:1"
       d="m 588.91065,220.24747 c -0.8917,-0.40282 -2.0763,-1.08038 -2.6326,-1.5057 -0.9525,-0.7283 -0.8517,-0.89049 1.7324,-2.78743 2.7372,-2.00926 8.1952,-8.31908 8.1952,-9.47414 0,-0.38968 -0.5354,-0.48221 -1.486,-0.25683 -1.13,0.26791 -0.6445,-0.28774 2.0264,-2.3193 4.8591,-3.69587 8.4684,-6.11807 9.1167,-6.11807 0.8315,0 6.8455,7.5479 6.675,8.37758 -0.082,0.3998 0.3114,0.87314 0.8744,1.05185 0.5631,0.17871 1.4408,0.78571 1.9505,1.34888 0.8812,0.97381 0.8649,1.05914 -0.334,1.74243 -0.6934,0.39516 -1.9902,0.98842 -2.8819,1.31835 l -1.6211,0.59987 2.0924,0.88616 c 1.1509,0.48739 2.3059,0.88617 2.5668,0.88617 0.8908,0 0.4766,2.55329 -0.6456,3.97994 -2.1954,2.79101 -7.0043,1.43779 -11.2468,-3.16491 -1.2768,-1.38507 -2.39,-2.43903 -2.4738,-2.34214 -0.084,0.0969 -0.5817,1.02726 -1.1063,2.06748 -0.5246,1.04023 -1.691,2.92479 -2.592,4.18792 -1.525,2.1379 -1.8093,2.29514 -4.1134,2.27545 -1.3614,-0.0116 -3.2047,-0.35074 -4.0963,-0.75356 z"
       id="path28417"
       inkscape:connector-curvature="0" />
    <path
       style="opacity:1;fill:#957b4b;fill-opacity:1;fill-rule:nonzero;stroke:none;stroke-width:2.99206734;stroke-miterlimit:4;stroke-dasharray:none;stroke-opacity:1"
       d="m 758.58875,229.44079 c -3.2693,-0.68063 -8.8097,-2.03216 -12.312,-3.00339 l -6.3679,-1.76588 -4.1024,-4.79674 c -2.2563,-2.63821 -4.2761,-4.79674 -4.4884,-4.79674 -0.2123,0 -0.711,1.35456 -1.1082,3.01014 -0.5494,2.29029 -0.9254,2.95272 -1.5723,2.77007 -3.7619,-1.06218 -20.5862,-6.53308 -21.6547,-7.04165 -1.8766,-0.89317 -3.892,-4.88187 -5.6534,-11.18852 -2.1582,-7.72797 -3.4836,-8.22209 -4.2909,-1.59982 -0.7852,6.44012 -3.2768,10.88285 -7.2452,12.91876 l -1.9595,1.00528 2.4883,1.57806 2.4884,1.57805 -2.4304,2.82086 c -3.184,3.69566 -4.0349,4.12932 -6.054,3.08522 -0.8754,-0.45272 -1.7464,-1.07334 -1.9354,-1.37918 -0.189,-0.30582 0.8291,-1.63533 2.2624,-2.95445 2.1601,-1.98805 2.4117,-2.40207 1.4707,-2.41986 -2.0871,-0.0394 -4.4584,-1.16942 -5.3684,-2.55812 -0.4955,-0.75627 -1.5926,-4.77739 -2.4379,-8.93581 -1.5862,-7.8028 -2.7419,-10.33614 -4.0802,-8.94355 -0.3659,0.38076 -1.3935,2.75923 -2.2835,5.28549 l -1.6183,4.5932 -2.5322,-5.40376 c -5.6048,-11.96072 -9.8626,-23.87753 -12.7369,-35.64832 -2.4312,-9.9561 -2.4679,-9.91658 3.704,-3.99269 8.9714,8.61096 20.8217,16.87694 37.1347,25.9026 20.1192,11.13163 46.0203,22.29674 59.1711,25.50681 2.8894,0.70526 3.0149,0.81481 4.5101,3.93511 0.8458,1.76531 2.852,5.44546 4.4581,8.1781 1.6061,2.73264 2.9201,5.10354 2.9201,5.26867 0,0.53331 -2.3053,0.25589 -8.3758,-1.00794 z"
       id="path28419"
       inkscape:connector-curvature="0" />
    <path
       style="opacity:1;fill:#78633a;fill-opacity:1;fill-rule:nonzero;stroke:none;stroke-width:2.99206734;stroke-miterlimit:4;stroke-dasharray:none;stroke-opacity:1"
       d="m 793.98345,244.23387 c -4.1024,-1.0585 -10.6044,-4.04548 -12.8365,-5.89693 -0.906,-0.75149 -1.4357,-2.16552 -2.0662,-5.51514 -0.4664,-2.4775 -1.0539,-4.71625 -1.3056,-4.97501 -0.2527,-0.25985 -0.6286,0.70784 -0.8396,2.1615 -0.21,1.44759 -0.4966,2.8302 -0.6369,3.07246 -0.3908,0.67506 -2.2116,-1.18491 -4.6144,-4.71367 l -2.1739,-3.19244 -1.175,3.24514 c -1.6356,4.51696 -3.0226,6.71791 -5.1274,8.13638 -2.2417,1.51069 -5.8959,1.59661 -8.9422,0.21027 -3.6186,-1.64675 -13.9094,-10.39079 -13.1375,-11.16274 0.1613,-0.16124 2.94,0.42207 6.175,1.29623 11.9675,3.23389 19.6613,4.5453 19.6613,3.35127 0,-0.27376 -1.2415,-2.64466 -2.7589,-5.26867 -1.5173,-2.624 -3.482,-6.20032 -4.3657,-7.94738 l -1.6069,-3.17648 1.3467,0.33801 c 4.6421,1.16508 19.4889,3.8319 28.4595,5.11196 l 10.5374,1.50362 0.1452,12.26343 c 0.08,6.74489 -0.042,12.25004 -0.2702,12.23368 -0.2285,-0.0164 -2.2392,-0.50034 -4.4682,-1.07549 z"
       id="path28421"
       inkscape:connector-curvature="0" />
    <path
       style="opacity:1;fill:#5d5931;fill-opacity:1;fill-rule:nonzero;stroke:none;stroke-width:2.99206734;stroke-miterlimit:4;stroke-dasharray:none;stroke-opacity:1"
       d="m 709.68465,233.99219 c -1.0402,-0.54158 -2.5976,-1.72777 -3.4608,-2.63597 l -1.5695,-1.65128 1.4696,-0.55875 c 2.7613,-1.04983 3.5265,-0.72825 4.6821,1.96764 1.4891,3.47385 1.2417,4.10868 -1.1214,2.87836 z"
       id="path28423"
       inkscape:connector-curvature="0" />
    <path
       style="opacity:1;fill:#78633a;fill-opacity:1;fill-rule:nonzero;stroke:none;stroke-width:2.99206734;stroke-miterlimit:4;stroke-dasharray:none;stroke-opacity:1"
       d="m 717.43225,232.23499 -0.4662,-4.45811 -2.096,3.10717 c -1.9821,2.93813 -3.0238,3.81345 -3.0238,2.54068 0,-0.31157 -0.4647,-1.52822 -1.0326,-2.70368 l -1.0326,-2.13719 1.4379,-0.3058 c 0.7908,-0.16818 2.0457,-0.56149 2.7888,-0.87401 l 1.3509,-0.56823 -1.3509,-0.54906 c -6.0141,-2.44424 -6.7292,-2.97913 -7.7213,-5.77538 -0.7276,-2.05052 -0.8248,-2.98936 -0.3929,-3.79622 1.2503,-2.33632 2.0662,-2.26393 12.3538,1.09605 5.4072,1.76603 10.1775,3.21097 10.6007,3.21097 0.5924,0 0.4209,0.84482 -0.7456,3.67359 -1.992,4.83059 -3.7241,7.50725 -6.4544,9.97392 -3.3003,2.98158 -3.6718,2.76705 -4.2158,-2.4347 z"
       id="path28425"
       inkscape:connector-curvature="0" />
  </g>
</svg>
