<?xml version="1.0" encoding="UTF-8" standalone="no"?>
<!-- Created with Inkscape (http://www.inkscape.org/) -->

<svg
   xmlns:dc="http://purl.org/dc/elements/1.1/"
   xmlns:cc="http://creativecommons.org/ns#"
   xmlns:rdf="http://www.w3.org/1999/02/22-rdf-syntax-ns#"
   xmlns:svg="http://www.w3.org/2000/svg"
   xmlns="http://www.w3.org/2000/svg"
   xmlns:sodipodi="http://sodipodi.sourceforge.net/DTD/sodipodi-0.dtd"
   xmlns:inkscape="http://www.inkscape.org/namespaces/inkscape"
   width="1542.2065mm"
   height="88.187958mm"
   viewBox="0 0 1542.2065 88.187958"
   version="1.1"
   id="svg25209"
   inkscape:version="0.92.4 (5da689c313, 2019-01-14)"
   sodipodi:docname="lake6.svg">
  <defs
     id="defs25203" />
  <sodipodi:namedview
     id="base"
     pagecolor="#ffffff"
     bordercolor="#666666"
     borderopacity="1.0"
     inkscape:pageopacity="0.0"
     inkscape:pageshadow="2"
     inkscape:zoom="0.175"
     inkscape:cx="3421.2807"
     inkscape:cy="-391.29767"
     inkscape:document-units="mm"
     inkscape:current-layer="layer1"
     showgrid="false"
     inkscape:window-width="1858"
     inkscape:window-height="1057"
     inkscape:window-x="54"
     inkscape:window-y="-8"
     inkscape:window-maximized="1" />
  <metadata
     id="metadata25206">
    <rdf:RDF>
      <cc:Work
         rdf:about="">
        <dc:format>image/svg+xml</dc:format>
        <dc:type
           rdf:resource="http://purl.org/dc/dcmitype/StillImage" />
        <dc:title></dc:title>
      </cc:Work>
    </rdf:RDF>
  </metadata>
  <g
     inkscape:label="Calque 1"
     inkscape:groupmode="layer"
     id="layer1"
     transform="translate(784.71039,23.016597)">
    <path
       style="opacity:1;fill:#557325;fill-opacity:1;fill-rule:nonzero;stroke:none;stroke-width:8.46284485;stroke-miterlimit:4;stroke-dasharray:none;stroke-opacity:1"
       d="m -742.6431,63.880533 c -15.97193,-0.595021 -31.96297,-1.577023 -35.53564,-2.182257 l -6.49576,-1.100428 0.002,-8.654045 0.002,-8.654045 48.52525,0.06503 c 26.6889,0.03577 118.33561,0.990071 203.65937,2.120662 208.86361,2.767542 327.89076,1.50495 423.37092,-4.491038 42.245377,-2.652924 77.949157,-6.846332 77.949157,-9.155112 0,-0.608515 2.74756,-0.37301 6.10571,0.523319 3.35814,0.896329 5.58684,2.148549 4.95271,2.782703 -7.10996,7.109967 -201.802737,20.666529 -413.031537,28.759631 -44.61354,1.70934 -263.50632,1.699127 -309.50401,-0.01429 z"
       id="path25186"
       inkscape:connector-curvature="0" />
    <path
       style="opacity:1;fill:#6f8124;fill-opacity:1;fill-rule:nonzero;stroke:none;stroke-width:8.46284485;stroke-miterlimit:4;stroke-dasharray:none;stroke-opacity:1"
       d="M -655.90555,43.654275 -784.6745,42.137048 V 21.800697 c 0,-22.9146898 -1.47579,-20.5048118 14.49982,-23.6774308 5.55695,-1.10355 10.20865,-3.03739 11.84521,-4.924372 2.0097,-2.317194 2.69485,-2.529601 2.69485,-0.835421 0,1.249468 1.03168,2.271738 2.29262,2.271738 1.26094,0 2.29262,-0.458522 2.29262,-1.018936 0,-1.123792 1.34902,-1.311143 11.46311,-1.592104 5.27059,-0.146394 6.90607,-0.786342 6.99853,-2.7384112 0.0799,-1.687036 0.38821,-1.880579 0.91284,-0.573035 0.60832,1.5160632 1.2898,1.5613062 2.93617,0.194945 1.64484,-1.365091 2.14399,-1.335458 2.14399,0.127265 0,2.4257792 9.2464,0.794464 10.98162,-1.937438 0.89223,-1.404699 1.20488,-1.421553 1.22229,-0.06591 0.0431,3.3556582 44.78336,-0.936148 69.56629,-6.673294 15.67988,-3.629845 18.50014,-3.826431 41.8618,-2.917957 28.40383,1.104529 34.6639,2.207074 49.49791,8.717782 5.79869,2.545054 11.56535,4.2350802 12.81481,3.755628 1.24947,-0.479478 3.54903,-0.188171 5.11012,0.6473032 2.31252,1.237615 3.5631,0.599493 6.7502,-3.4444252 l 3.91182,-4.963451 0.017,4.730459 c 0.0206,5.7359552 4.61828,10.6904372 7.3685,7.9402252 1.39105,-1.391046 2.2869,-1.151863 3.88829,1.038146 2.02499,2.769367 2.1263,2.767171 3.78027,-0.08215 0.93474,-1.610281 1.72042,-2.118492 1.74598,-1.129348 0.0721,2.789502 5.16914,3.170873 7.34812,0.549805 1.70801,-2.054543 1.89915,-1.965908 1.52839,0.70858 -0.27808,2.006045 0.4586,3.063531 2.1431,3.076337 1.41176,0.01058 3.07541,0.52805496 3.69702,1.14964096 0.62156,0.621586 2.38958,-0.0095 3.9289,-1.40268796 2.06127,-1.865419 2.79874,-2.000541 2.79874,-0.512816 0,1.11103796 0.42577,1.59427296 0.94618,1.07389096 0.52038,-0.52040896 1.96881,0.07649 3.21873,1.326436 1.78268,1.78265604 2.74593,1.87978504 4.4681,0.45050604 1.66291,-1.38012004 2.62464,-1.39289904 3.96478,-0.05276 0.97311,0.973137 3.29025,1.769321 5.14916,1.769321 1.85891,0 10.83453,1.762126 19.9458,3.915808 19.78851,4.6775678 27.66036,5.2472958 29.6231,2.144077 0.7788,-1.231371 1.42655,-1.465448 1.43944,-0.520197 0.0308,2.2614728 36.60444,2.5979428 57.4318,0.528373 8.45736,-0.840396 21.52531,-3.272129 29.03988,-5.403824 7.51459,-2.131722 19.56194,-4.41370004 26.77189,-5.071057 12.63843,-1.152314 30.45081,-6.81699 30.45081,-9.6839352 0,-0.715513 1.37557,-0.564754 3.05684,0.335015 2.7609,1.4776192 3.06851,1.1499062 3.17749,-3.385158 l 0.12065,-5.021104 1.48648,4.0572 c 1.76464,4.816396 5.75445,6.0144292 15.08477,4.529534 7.72139,-1.228831 47.05308,0.527897 68.01445,3.0378672 7.56566,0.905907 25.79201,4.747048 40.503,8.53582796 14.71099,3.78878104 30.87396,7.86820604 35.91774,9.06539304 25.479477,6.0477928 75.766587,21.0229188 73.915987,22.0116398 -5.28249,2.822258 -55.92107,7.548668 -115.947397,10.822093 -42.21404,2.302061 -344.85623,2.880995 -507.05163,0.969963 z"
       id="path25188"
       inkscape:connector-curvature="0" />
    <path
       style="opacity:1;fill:#534027;fill-opacity:1;fill-rule:nonzero;stroke:none;stroke-width:8.46284485;stroke-miterlimit:4;stroke-dasharray:none;stroke-opacity:1"
       d="m 626.05241,40.920679 c -103.383,-5.557149 -146.1416,-6.458955 -209.2297,-4.4128 -57.2647,1.857296 -219.18699,0.975625 -260.75787,-1.419807 l -16.81255,-0.968798 10.6989,-1.11215 c 5.88439,-0.611664 34.08365,-2.853478 62.665,-4.981787 28.58132,-2.128308 63.65852,-4.909343 77.94912,-6.180058 14.2907,-1.270714 30.1098,-2.67499 35.1536,-3.120628 48.9632,-4.326096 123.9652,-13.3496838 177.2961,-21.3307078 63.1056,-9.4438262 95.882,-13.3584422 133.7363,-15.9726582 25.1275,-1.735296 85.7622,-2.057718 106.7543,-0.567664 l 13.9905,0.993061 v 28.781904 c 0,28.60384 -0.021,28.786588 -3.439,29.541656 -4.769,1.053623 -57.8762,3.925966 -68.2841,3.693212 -4.6853,-0.104801 -31.5596,-1.429041 -59.7206,-2.942775 z"
       id="path25190"
       inkscape:connector-curvature="0" />
  </g>
</svg>
