<?xml version="1.0" encoding="UTF-8" standalone="no"?>
<!-- Created with Inkscape (http://www.inkscape.org/) -->

<svg
   xmlns:dc="http://purl.org/dc/elements/1.1/"
   xmlns:cc="http://creativecommons.org/ns#"
   xmlns:rdf="http://www.w3.org/1999/02/22-rdf-syntax-ns#"
   xmlns:svg="http://www.w3.org/2000/svg"
   xmlns="http://www.w3.org/2000/svg"
   xmlns:sodipodi="http://sodipodi.sourceforge.net/DTD/sodipodi-0.dtd"
   xmlns:inkscape="http://www.inkscape.org/namespaces/inkscape"
   width="1542.1323mm"
   height="284.41559mm"
   viewBox="0 0 1542.1323 284.41559"
   version="1.1"
   id="svg21847"
   inkscape:version="0.92.4 (5da689c313, 2019-01-14)"
   sodipodi:docname="lake2.svg">
  <defs
     id="defs21841" />
  <sodipodi:namedview
     id="base"
     pagecolor="#ffffff"
     bordercolor="#666666"
     borderopacity="1.0"
     inkscape:pageopacity="0.0"
     inkscape:pageshadow="2"
     inkscape:zoom="0.175"
     inkscape:cx="3068.4168"
     inkscape:cy="708.11096"
     inkscape:document-units="mm"
     inkscape:current-layer="layer1"
     showgrid="false"
     inkscape:window-width="1858"
     inkscape:window-height="1057"
     inkscape:window-x="54"
     inkscape:window-y="-8"
     inkscape:window-maximized="1" />
  <metadata
     id="metadata21844">
    <rdf:RDF>
      <cc:Work
         rdf:about="">
        <dc:format>image/svg+xml</dc:format>
        <dc:type
           rdf:resource="http://purl.org/dc/dcmitype/StillImage" />
        <dc:title></dc:title>
      </cc:Work>
    </rdf:RDF>
  </metadata>
  <g
     inkscape:label="Calque 1"
     inkscape:groupmode="layer"
     id="layer1"
     transform="translate(1205.7388,134.73756)">
    <path
       style="opacity:1;fill:#345544;fill-opacity:1;fill-rule:nonzero;stroke:none;stroke-width:2.99206734;stroke-miterlimit:4;stroke-dasharray:none;stroke-opacity:1"
       d="m -1205.7388,-73.420527 v -4.885664 l 2.0313,-2.135373 c 2.5799,-2.711979 5.1065,-3.283664 8.988,-2.033561 1.5182,0.488924 3.312,1.317229 3.9863,1.840654 l 1.2259,0.95168 -7.6989,5.393822 c -4.2345,2.966614 -7.8865,5.47489 -8.1158,5.573977 -0.2292,0.09906 -0.4168,-2.018427 -0.4168,-4.705535 z"
       id="path21686"
       inkscape:connector-curvature="0" />
    <path
       style="opacity:1;fill:#345544;fill-opacity:1;fill-rule:nonzero;stroke:none;stroke-width:2.99206734;stroke-miterlimit:4;stroke-dasharray:none;stroke-opacity:1"
       d="m -1176.8126,-58.76306 c 0.534,-3.888846 2.477,-12.231503 2.9727,-12.76403 0.2409,-0.258762 0.594,0.713899 0.7848,2.161488 0.1908,1.447588 0.5584,3.118326 0.8169,3.712739 0.3836,0.882041 0.4767,0.724058 0.5066,-0.859235 0.051,-2.70465 1.9022,-9.68158 3.2913,-12.404513 1.7996,-3.527557 3.5129,-4.838859 6.3223,-4.838859 1.9483,0 2.7012,0.306864 4.0416,1.647217 1.4312,1.431184 1.6096,1.927251 1.3608,3.782615 -0.2804,2.0905 -0.2506,2.13622 1.4183,2.17342 1.111,0.02487 1.4042,0.16592 0.8416,0.405262 -0.4747,0.202036 -3.3927,2.708963 -6.4845,5.570988 -7.1408,6.61027 -15.5358,13.979683 -15.9253,13.979683 -0.1648,0 -0.1409,-1.155065 0.053,-2.566775 z"
       id="path21688"
       inkscape:connector-curvature="0" />
    <path
       style="opacity:1;fill:#345544;fill-opacity:1;fill-rule:nonzero;stroke:none;stroke-width:2.99206734;stroke-miterlimit:4;stroke-dasharray:none;stroke-opacity:1"
       d="m -1204.5229,-39.797912 -1.2159,-0.262255 v -14.224582 c 0,-11.277759 0.1477,-14.28123 0.7128,-14.498056 0.392,-0.150442 4.0585,-2.610776 8.1478,-5.467429 4.0892,-2.856653 7.6561,-5.057299 7.9263,-4.89032 0.9246,0.571473 3.8081,5.123735 4.4864,7.08279 l 0.6776,1.957308 0.6636,-2.96553 c 0.7954,-3.554015 2.2383,-5.285713 4.4043,-5.285713 1.8348,0 3.5011,1.562312 4.3232,4.053364 0.4573,1.385623 0.3073,2.683007 -0.7798,6.745181 -1.5451,5.773817 -2.3096,11.356869 -1.5549,11.356869 0.2788,0 3.5322,-2.696448 7.2298,-5.992098 3.6975,-3.29565 8.6089,-7.672705 10.9142,-9.726771 2.3052,-2.054066 4.5642,-3.734673 5.02,-3.734673 1.5344,0 5.0555,2.14802 7.2291,4.410049 l 2.1578,2.245624 -1.5446,1.940825 c -3.265,4.102708 -14.3036,14.734222 -18.8153,18.121524 -9.9201,7.447756 -14.8579,9.034489 -28.7696,9.244938 -5.4983,0.08316 -10.5441,0.03321 -11.2128,-0.111045 z"
       id="path21690"
       inkscape:connector-curvature="0" />
    <path
       style="opacity:1;fill:#597e64;fill-opacity:1;fill-rule:nonzero;stroke:none;stroke-width:2.99206734;stroke-miterlimit:4;stroke-dasharray:none;stroke-opacity:1"
       d="m -872.32662,41.795774 c -1.93186,-0.44077 -11.78021,-2.83871 -21.88525,-5.32878 -21.85604,-5.38573 -28.96365,-6.81649 -42.95992,-8.64786 -12.10369,-1.58374 -17.89426,-2.8389 -23.556,-5.10598 -3.91983,-1.56956 -9.1461,-4.57851 -11.29825,-6.50478 -1.04424,-0.93461 -1.4418,-0.87879 -11.76675,1.65256 -17.21921,4.22164 -22.85191,4.43198 -33.79101,1.26198 -9.4268,-2.73179 -17.8101,-6.57571 -37.9304,-17.3920097 -6.3899,-3.43511 -14.9008,-7.81892 -18.9131,-9.7418 -4.0123,-1.92283 -11.7937,-6.0578503 -17.2921,-9.1889003 -15.4699,-8.80938 -26.8405,-13.97257 -35.935,-16.31744 -4.8656,-1.254519 -11.8382,-1.534184 -15.1625,-0.60814 -3.389,0.94403 -7.003,3.63733 -8.948,6.6684 l -1.7672,2.75391 -5.4339,-0.33922 c -6.8542,-0.42786 -15.2534,-1.78768 -32.8581,-5.31971 l -13.9147,-2.7917 v -3.280568 -3.280543 l 11.2107,-0.03574 c 11.9933,-0.03823 15.3017,-0.537183 20.9374,-3.15759 5.0403,-2.3436 12.3178,-8.127365 20.9695,-16.665496 4.7433,-4.681008 8.6877,-8.510931 8.7653,-8.510931 0.271,0 2.7974,6.776005 3.5151,9.427263 l 0.7233,2.672556 0.9952,-2.942749 c 2.2621,-6.689222 7.3455,-11.030373 12.9163,-11.030373 2.5481,0 3.8917,0.418623 8.1856,2.550213 8.2637,4.102311 10.4888,7.662677 6.4879,10.381324 -1.7515,1.190201 -1.8558,1.370435 -0.7932,1.370435 1.8361,0 4.9391,1.448409 5.3398,2.492428 0.2354,0.61349 -0.1143,1.322097 -1.0491,2.126218 l -1.4022,1.206104 1.6693,0.333851 c 2.3108,0.462174 5.6912,4.161446 6.4727,7.083213 0.6297,2.354316 1.5063,2.793418 1.5063,0.754539 0,-1.929474 3.2316,-7.511838 4.3485,-7.511838 0.2192,0 2.1747,2.127726 4.3457,4.728289 12.6847,15.19473 18.5009,20.84406 31.136,30.24285 16.7852,12.4858803 32.9003,20.5723403 44.6324,22.3963003 5.0759,0.78911 5.156,0.74313 11.4643,-6.58387 6.01303,-6.98407 7.92524,-8.27328 12.66896,-8.54133 7.02853,-0.39714 13.02785,1.94752 26.30936,10.28231 7.47998,4.69406 12.69432,7.2843797 16.48919,8.1913197 1.43634,0.34327 1.44099,0.33404 1.80308,-3.5723297 0.37913,-4.08998 -0.29445,-13.17662 -1.64196,-22.1506203 -0.43483,-2.89581 -0.7906,-5.55874 -0.7906,-5.91765 0,-0.35888 1.76298,1.13544 3.91773,3.32071 7.32805,7.4318603 13.43839,10.4757503 20.93956,10.4311703 9.28325,-0.0552 15.14819,-3.26694 34.31389,-18.7910003 4.4581,-3.611 8.76562,-6.99267 9.57226,-7.51477 l 1.46658,-0.9493 1.59092,2.50859 c 0.875,1.37975 2.38114,4.50239 3.34698,6.93923 2.79828,7.06009 4.00163,7.69006 5.36792,2.81022 l 0.67487,-2.41041 1.51828,1.08112 c 2.3802,1.69484 5.91088,2.7577 9.2124,2.77328 3.13976,0.0148 5.2837,-0.78454 8.43957,-3.14653 l 1.74228,-1.30403 2.05381,1.35911 c 5.28351,3.49647 4.95704,7.46766 -1.00108,12.17729 -2.84279,2.2471103 -2.81522,2.3732603 0.64341,2.9447103 2.46798,0.40778 5.87679,3.31335 7.51904,6.409 l 1.27494,2.40328995 -1.4511,3.98674005 c -0.79812,2.19271 -1.44992,4.15724 -1.44849,4.3656 0.003,0.20839 1.03579,-0.0837 2.29857,-0.64907 2.54767,-1.14062 2.82509,-1.02032 3.28027,1.4224197 0.30367,1.62952 0.14029,1.80875 -4.38663,4.81217 -13.0297,8.64462 -21.92872,16.43671 -26.97689,23.62123 -1.61846,2.30335 -3.22635,4.16644 -3.57312,4.14022 -0.34676,-0.0262 -2.21109,-0.40833 -4.14292,-0.8491 z"
       id="path21692"
       inkscape:connector-curvature="0" />
    <path
       style="opacity:1;fill:#446b56;fill-opacity:1;fill-rule:nonzero;stroke:none;stroke-width:2.99206734;stroke-miterlimit:4;stroke-dasharray:none;stroke-opacity:1"
       d="m -950.14658,10.581504 c -3.14503,-1.1700397 -8.14477,-3.8242597 -14.91894,-7.9200397 -8.03072,-4.85552 -13.67677,-7.70765 -17.46084,-8.82041 -3.81409,-1.1216 -10.34915,-1.13123 -12.6276,-0.0185 -0.95116,0.46448 -4.68534,3.90604 -8.29814,7.64791 l -6.5688,6.80339 -3.6984,-0.3143 c -10.1727,-0.86455 -27.2264,-9.04679 -43.2825,-20.7666103 -13.1673,-9.6112 -19.153,-15.16719 -30.3438,-28.165507 -3.6662,-4.258283 -7.0302,-7.882176 -7.4755,-8.05307 -0.5856,-0.224711 -0.2561,-0.644842 1.19,-1.517623 l 1.9998,-1.206897 -2.4857,-0.949299 c -2.3594,-0.901038 -2.4306,-0.987901 -1.4016,-1.708626 0.5962,-0.417618 1.9927,-1.073917 3.1034,-1.458436 l 2.0193,-0.699082 -2.418,-0.805736 c -2.8035,-0.934217 -3.1766,-1.84068 -1.5887,-3.859424 2.0723,-2.63443 7.2703,-1.515057 11.5033,2.477241 l 2.0484,1.931855 3.8872,-4.028625 3.8873,-4.028626 3.3774,0.365522 c 2.6773,0.289745 3.3773,0.556234 3.3773,1.285531 0,1.258438 -1.2044,2.202683 -5.9441,4.660159 l -4.0529,2.101321 4.8634,0.327502 c 4.3847,0.295275 9.8592,1.355301 9.3761,1.815517 -0.1043,0.09935 -1.7427,0.809308 -3.6408,1.577711 -3.8373,1.553395 -7.0862,3.792379 -7.0862,4.883362 0,0.509428 1.2064,0.783484 4.2162,0.957712 4.1068,0.237728 8.2067,1.616313 8.5962,2.89044 0.095,0.310198 -0.9254,1.097333 -2.2672,1.749214 -1.3418,0.65188 -2.4396,1.372182 -2.4396,1.600703 0,0.22852 0.7094,0.729509 1.5765,1.113313 2.3375,1.034653 4.2956,3.954754 6.9314,10.336958 1.2972,3.14078 2.5986,5.95167 2.892,6.24638 0.7662,0.76965 1.3589,-0.41304 2.4278,-4.84441 1.6976,-7.037785 4.1511,-10.551795 7.3673,-10.551795 2.0905,0 1.8759,-0.688896 -0.7573,-2.431521 -2.1201,-1.403006 -2.1964,-1.53961 -1.2477,-2.233322 1.3908,-1.017005 2.2487,-0.930354 4.233,0.427567 2.1872,1.496801 5.217,4.325514 5.217,4.870741 0,0.231802 -0.9119,0.902864 -2.0264,1.491245 -1.5664,0.826955 -1.767,1.075214 -0.8835,1.093655 2.8885,0.06038 4.9915,3.55716 7.0372,11.70122 0.8848,3.52238 2.0286,4.84222 2.9438,3.39686 0.2627,-0.41482 1.0014,-2.33482 1.6417,-4.26665 0.6403,-1.93185 1.7658,-4.71371 2.5011,-6.18191 l 1.337,-2.66946 0.7286,1.3185 c 1.4371,2.60078 5.3133,11.67532 6.9955,16.37702 l 1.7142,4.79137 2.5776,-4.79137 c 1.4177,-2.63522 4.5539,-7.81833 6.9693,-11.518 l 4.3917,-6.72666 1.02774,6.34026 c 0.6215,3.83421 1.25437,6.2647 1.60114,6.1491 0.31538,-0.10511 1.92146,-2.36294 3.56907,-5.01734 l 2.99564,-4.82621 0.27019,2.27647 0.27019,2.2765 3.78263,-2.86673 c 6.40086,-4.85098 22.02772,-15.465849 22.76836,-15.465849 1.58619,0 4.65039,3.576055 6.66138,7.774146 1.85657,3.875693 3.15271,8.369983 4.77092,16.542783 0.38339,1.93633 0.56347,2.21155 0.88401,1.35093 1.16086,-3.11665 4.33386,-8.90251 5.89956,-10.75764 l 1.78219,-2.11164 1.18388,1.91556 c 1.11133,1.79816 2.32559,6.09285 3.07873,10.88903 0.18111,1.15324 0.51773,1.88275 0.74808,1.62113 0.23037,-0.26162 1.21023,-3.02895 2.17747,-6.14963 1.5689,-5.06179 2.03613,-5.94315 4.3307,-8.16904 1.636,-1.58705 3.33724,-2.67676 4.67463,-2.994258 l 2.10259,-0.499163 -2.29658,-1.293178 c -1.26315,-0.711226 -2.29661,-1.472671 -2.29661,-1.692116 0,-0.219419 0.91188,-0.692917 2.02642,-1.052195 1.11453,-0.359278 2.18328,-0.741495 2.37503,-0.849365 0.19174,-0.107845 -0.11211,-1.099767 -0.67522,-2.204297 -0.9653,-1.893385 -0.97031,-2.038138 -0.0875,-2.532168 1.44412,-0.808197 7.2431,-0.662544 9.06012,0.227568 1.99988,0.979646 4.43535,5.55871 4.92676,9.263036 0.19211,1.448166 0.52922,2.744256 0.74917,2.880206 0.21994,0.13591 1.32093,-1.14618 2.44662,-2.849118 1.95877,-2.963148 5.91844,-7.920672 10.43231,-13.061235 l 2.10717,-2.399745 0.39397,6.305312 0.39396,6.305312 2.53733,-2.139474 c 2.53545,-2.137939 2.54005,-2.139288 6.29687,-1.847956 5.00057,0.3878 8.09723,1.212586 9.223,2.456551 1.07575,1.188693 1.14822,1.085691 -1.81591,2.580481 -1.26312,0.636985 -2.29658,1.343078 -2.29658,1.569085 0,0.226007 0.79028,0.720831 1.75619,1.099607 l 1.75623,0.68869 -1.85304,1.45618 c -1.01917,0.80092 -6.12574,4.83288 -11.3479,8.95993 -15.63576,12.35684 -21.11398,15.6026703 -28.17984,16.6963503 -8.22412,1.27299 -14.62178,-1.18399 -23.25118,-8.9294003 l -5.52085,-4.9553 0.32727,2.94796 c 0.18,1.62137 0.71557,6.23075 1.19015,10.2430303 0.47459,4.0123 0.79204,9.84551 0.70545,12.9627 -0.17469,6.2884297 -0.28427,6.4428997 -3.67567,5.1812297 z"
       id="path21694"
       inkscape:connector-curvature="0" />
    <path
       style="opacity:1;fill:#345544;fill-opacity:1;fill-rule:nonzero;stroke:none;stroke-width:2.99206734;stroke-miterlimit:4;stroke-dasharray:none;stroke-opacity:1"
       d="m -1015.7539,-15.965546 c -0.7967,-2.24409 -2.7642,-7.02415 -4.3724,-10.62241 -1.6082,-3.59825 -2.7973,-6.74716 -2.6425,-6.99759 0.1547,-0.25043 0.6318,-0.45532 1.06,-0.45532 1.1254,0 0.9661,-0.55587 -0.6396,-2.231844 -2.5642,-2.676419 -0.6298,-5.416444 5.2299,-7.408227 1.5135,-0.514456 2.7949,-1.169961 2.8475,-1.45669 0.053,-0.286729 -1.7282,-0.737579 -3.9572,-1.001924 -2.2291,-0.264346 -4.1255,-0.539592 -4.2142,-0.611717 -0.089,-0.0721 -0.01,-0.733478 0.1746,-1.469734 0.4028,-1.60491 3.4222,-3.239585 8.285,-4.485375 l 3.3844,-0.867067 1.9159,1.461321 c 3.3937,2.588524 6.2629,8.138557 7.9237,15.327418 0.4123,1.784959 0.5592,3.314909 0.3262,3.399899 -0.549,0.20031 -9.54,14.488 -11.6105,18.45042 -0.8756,1.6755 -1.7428,3.04697 -1.9271,3.04766 -0.1844,0 -0.987,-1.83475 -1.7837,-4.07882 z"
       id="path21696"
       inkscape:connector-curvature="0" />
    <path
       style="opacity:1;fill:#345544;fill-opacity:1;fill-rule:nonzero;stroke:none;stroke-width:2.99206734;stroke-miterlimit:4;stroke-dasharray:none;stroke-opacity:1"
       d="m -990.33891,-28.271896 c -0.61253,-2.28375 -0.30474,-3.23559 2.16594,-6.697926 5.80768,-8.138742 11.42761,-12.063148 17.19869,-12.009861 2.90056,0.02675 9.71882,2.020517 7.18536,2.101109 -1.01535,0.03231 -13.14276,8.072649 -21.2887,14.114228 -4.61304,3.42135 -4.96716,3.5891 -5.26129,2.49245 z"
       id="path21698"
       inkscape:connector-curvature="0" />
    <path
       style="opacity:1;fill:#345544;fill-opacity:1;fill-rule:nonzero;stroke:none;stroke-width:5.98413467;stroke-miterlimit:4;stroke-dasharray:none;stroke-opacity:1"
       d="m -896.1551,-45.861712 c 0,-5.707275 0.0881,-5.866607 5.63448,-10.188337 5.36845,-4.183089 7.84297,-4.948688 6.72838,-2.081742 -0.28146,0.723979 -2.57032,2.532195 -5.08637,4.018227 l -4.57462,2.701872 4.323,0.288078 c 2.37768,0.158433 5.53887,0.563748 7.0249,0.900695 2.67139,0.605737 2.6615,0.629655 -0.87622,2.119074 -1.96795,0.828517 -5.36155,2.976484 -7.54132,4.773243 -2.17976,1.796732 -4.33874,3.26681 -4.79774,3.26681 -0.45897,0 -0.83449,-2.609056 -0.83449,-5.79792 z"
       id="path21700"
       inkscape:connector-curvature="0" />
    <path
       style="opacity:1;fill:#446b56;fill-opacity:1;fill-rule:nonzero;stroke:none;stroke-width:5.98413467;stroke-miterlimit:4;stroke-dasharray:none;stroke-opacity:1"
       d="m -864.00273,-22.309166 c -3.42389,-1.85748 -3.53179,-2.43467 -1.40607,-7.52218 1.13353,-2.71293 2.25272,-3.75785 4.05281,-3.78389 l 2.48684,-0.036 -2.53566,-2.112773 -2.53563,-2.112777 2.65126,-1.00801 c 3.88006,-1.475184 15.18041,-1.804961 15.63002,-0.456115 0.2082,0.624522 -1.88444,1.76911 -4.65032,2.543519 -6.97714,1.953472 -14.58502,8.621846 -9.83657,8.621846 0.78372,0 4.04066,0.77679 7.23765,1.72617 l 5.81268,1.72619 -2.64446,2.03242 c -3.20291,2.46164 -10.08882,2.64584 -14.26255,0.38156 z"
       id="path21702"
       inkscape:connector-curvature="0" />
    <path
       style="opacity:1;fill:#345544;fill-opacity:1;fill-rule:nonzero;stroke:none;stroke-width:5.98413467;stroke-miterlimit:4;stroke-dasharray:none;stroke-opacity:1"
       d="m -864.66847,43.354384 c -2.55355,-0.76861 -2.55098,-0.77737 1.85896,-6.35638 4.2326,-5.35461 12.76117,-12.70124 24.60805,-21.19772 l 5.53718,-3.97121 0.68992,4.31464 c 1.23764,7.73972 4.23752,5.14921 7.11999,-6.1483097 0.68914,-2.70105 2.33979,-5.44076 4.10337,-6.8107 2.62488,-2.03901 2.68595,-2.21927005 0.55343,-1.63369 -2.24943,0.61767 -2.32748,0.45868 -1.26751,-2.58194 1.41671,-4.06397 5.79739,-8.52056 8.88119,-9.0350703 2.03967,-0.34031 1.8216,-0.65651 -1.65793,-2.4039 -2.20359,-1.10662 -3.7555,-2.41821 -3.44866,-2.91467 0.76962,-1.24527 13.12352,-1.14255 13.90107,0.11559 0.34613,0.56005 -1.44893,2.97955 -3.98904,5.3767303 l -4.61835,4.35848 6.48454,0.0436 c 7.47413,0.0503 10.9153,1.51104 7.83545,3.32621 -2.61131,1.53902995 -2.36572,2.81539995 0.68926,3.58214 1.72564,0.43312 3.15786,2.09045 4.323,5.00243 2.94421,7.3582697 2.47859,8.5000297 -7.00272,17.1716097 -8.58187,7.84895 -8.85741,8.00084 -14.85977,8.19251 -4.8817,0.15586 -8.6237,1.36549 -18.54444,5.99456 -11.10906,5.18353 -13.28925,5.82821 -20.53428,6.07203 -4.4581,0.15001 -9.25632,-0.0736 -10.66271,-0.49692 z"
       id="path21704"
       inkscape:connector-curvature="0" />
    <path
       style="opacity:1;fill:#345544;fill-opacity:1;fill-rule:nonzero;stroke:none;stroke-width:2.99206734;stroke-miterlimit:4;stroke-dasharray:none;stroke-opacity:1"
       d="m -787.91591,11.041064 c 0.82976,-3.4524697 2.58595,-7.4409297 3.94716,-8.9643797 l 1.44036,-1.61205005 0.8423,2.63393005 0.8423,2.63395 -3.72332,3.43337 c -3.41275,3.1469797 -3.69207,3.3033997 -3.3488,1.8751797 z"
       id="path21710"
       inkscape:connector-curvature="0" />
    <path
       style="opacity:1;fill:#345544;fill-opacity:1;fill-rule:nonzero;stroke:none;stroke-width:2.99206734;stroke-miterlimit:4;stroke-dasharray:none;stroke-opacity:1"
       d="m -776.06406,1.0437043 c 0.57787,-2.64975 2.64062,-7.1115 3.6875,-7.97616 0.49569,-0.40942 1.67867,-0.90339 2.62882,-1.09773 l 1.72754,-0.35332 -2.00107,-1.18065 c -1.10059,-0.6493403 -2.00104,-1.4417703 -2.00104,-1.7609403 0,-1.01412 4.49349,-4.82415 7.26183,-6.15725 l 2.66864,-1.28511 -3.20903,-0.93951 c -1.76495,-0.51673 -3.54065,-1.03293 -3.94599,-1.1471 -1.26561,-0.35655 0.5361,-2.47224 3.38675,-3.97698 l 2.55934,-1.35093 2.85911,3.05157 c 1.90788,2.03631 3.4017,4.35123 4.48995,6.95791 l 1.63082,3.90631 -7.90507,5.2697003 c -4.34776,2.89835 -9.32968,6.30435995 -11.0709,7.56893995 l -3.16588,2.29925005 z"
       id="path21712"
       inkscape:connector-curvature="0" />
    <path
       style="opacity:1;fill:#ff00e9;fill-opacity:1;fill-rule:nonzero;stroke:none;stroke-width:2.99206734;stroke-miterlimit:4;stroke-dasharray:none;stroke-opacity:1"
       d="m -804.88094,33.275134 -4.48887,-1.18067 3.67829,-3.17799 c 2.02308,-1.74792 6.18193,-5.61602 9.24189,-8.59581 4.15105,-4.04226 5.67918,-5.23076 6.01883,-4.6812 0.62505,1.01132 1.50762,0.34489 1.89984,-1.43452 0.19735,-0.89529 1.78583,-2.80196 4.02142,-4.8269497 l 3.69525,-3.34714 0.62111,1.36316 c 0.8658,1.90027 1.81068,1.36991 2.80125,-1.57231 0.99076,-2.94277 0.91657,-2.88012 13.33125,-11.25773 l 9.60059,-6.4786403 0.64108,2.8632903 c 0.35261,1.57483 0.83894,5.53818 1.08077,8.80744995 l 0.43963,5.94413005 1.68527,-2.97206 c 6.174,-10.88837 18.16775,-18.5762103 25.30552,-16.2205503 3.81709,1.25976 6.15058,4.2477803 8.65835,11.0869703 0.35251,0.96139 0.49081,0.87188 1.25209,-0.81055 3.83035,-8.4648703 7.26932,-15.3902803 8.99332,-18.1107003 2.66846,-4.21082 6.26544,-8.90813 6.82146,-8.90813 0.24104,0 0.60037,0.51083 0.79851,1.13517 0.44255,1.39433 1.00153,0.84664 1.85206,-1.81477 0.73528,-2.3008 1.87338,-3.10301 4.40211,-3.10301 1.36938,0 2.25841,0.53133 4.09353,2.44657 l 2.34423,2.44658 -1.03018,1.47116 c -0.5666,0.80912 -4.30707,6.4561 -8.31212,12.54885 -4.00505,6.0927403 -8.89191,12.9519803 -10.85969,15.24275025 -6.45263,7.51173005 -16.646,15.68832975 -22.22789,17.83007975 -3.90456,1.49818 -6.73404,1.58499 -14.49361,0.44469 -4.58438,-0.67368 -10.1941,-1.09218 -14.58126,-1.0877 -6.43078,0.007 -7.56373,0.15808 -11.54764,1.54487 -2.42951,0.84572 -8.79472,4.01077 -14.14494,7.03345 -8.47188,4.78631 -16.49685,8.87044 -16.95564,8.6292 -0.0808,-0.0425 -2.16693,-0.60857 -4.63581,-1.25794 z"
       id="path21714"
       inkscape:connector-curvature="0" />
    <path
       style="opacity:1;fill:#ff00e9;fill-opacity:1;fill-rule:nonzero;stroke:none;stroke-width:2.99206734;stroke-miterlimit:4;stroke-dasharray:none;stroke-opacity:1"
       d="m -676.91611,147.36857 c -7.61455,-5.99837 -13.73593,-14.72991 -29.99121,-42.7795 -9.63967,-16.633956 -12.61833,-21.535336 -17.5822,-28.931626 -9.20729,-13.7191 -19.74257,-23.7059 -28.50764,-27.02354 -4.21859,-1.59673 -10.76388,-1.96606 -15.03188,-0.84817 l -3.30179,0.86482 -4.53366,-3.05234 c -5.06473,-3.40987 -12.02155,-6.81355 -18.71715,-9.1575 -2.45118,-0.85809 -4.45733,-1.69195 -4.4581,-1.85301 0,-0.16107 1.39682,-0.94504 3.10576,-1.74217 1.70894,-0.79714 7.36264,-3.76658 12.56374,-6.59876 5.20113,-2.83218 11.40195,-5.91794 13.77961,-6.85729 4.10109,-1.62017 4.69751,-1.70765 11.61809,-1.70386 4.0123,0.003 10.84217,0.44034 15.17753,0.97366 9.24325,1.13708 11.6459,0.90438 16.43446,-1.5916 11.23522,-5.85618 20.42816,-15.7418797 34.56559,-37.17044 2.89219,-4.3838 5.36858,-7.97054 5.50307,-7.97054 0.63704,0 1.88002,4.22627 2.64964,9.00903 0.46821,2.9096 0.94131,5.38017 1.05133,5.49019 0.11001,0.11001 0.47836,-0.83365 0.81856,-2.09704 0.86051,-3.19569 3.01604,-7.95787 4.71774,-10.42278 3.13023,-4.53417 8.7758,-6.84279 16.73352,-6.84279 2.46382,0 4.47966,-0.17666 4.47966,-0.39256 0,-0.21593 -1.74953,-2.153894 -3.8879,-4.306597 l -3.88789,-3.914034 2.13167,-0.895483 c 1.70267,-0.715274 3.14888,-0.829495 7.18606,-0.56761 l 5.05438,0.327898 -1.32675,-1.745403 c -1.23724,-1.627691 -3.10806,-4.903391 -3.10806,-5.442109 0,-0.130837 0.87463,-0.340016 1.94363,-0.464794 1.68378,-0.196585 2.01673,-0.04194 2.49042,1.156706 l 0.54676,1.383638 0.59026,-1.274154 c 0.52443,-1.132046 0.86444,-1.244838 3.04845,-1.011105 1.35202,0.144701 2.92118,0.454501 3.48705,0.688446 0.93382,0.38608 1.00155,0.229923 0.73329,-1.690793 -0.16256,-1.163876 -0.38238,-2.460414 -0.48847,-2.881154 -0.25239,-1.00084 2.91877,-1.75387 5.63488,-1.338077 4.30556,0.65913 7.32578,5.167153 9.58355,14.304592 0.66154,2.677292 1.30609,4.76451 1.43232,4.638251 0.12626,-0.126232 0.93046,-2.901156 1.78718,-6.166511 1.64405,-6.266339 3.83657,-11.633332 6.13315,-15.013067 1.38012,-2.031021 1.38398,-2.032529 1.72461,-0.675375 0.25223,1.004861 -0.36838,2.774606 -2.37564,6.774524 l -2.71703,5.414327 4.97295,1.145196 c 2.7351,0.629867 5.29328,1.143529 5.68481,1.141465 0.9625,-0.005 0.54139,1.257327 -2.63734,7.906121 -1.4405,3.012992 -4.55444,8.362712 -6.91989,11.888282 -7.07602,10.54637 -12.39533,16.5397403 -36.78595,41.44762 -8.18361,8.35713 -8.8238,9.15061 -7.84786,9.72677 0.69824,0.41219 4.21307,0.62068 10.24906,0.60796 7.59638,-0.0161 10.62445,-0.27713 17.49478,-1.50847 4.56959,-0.81899 8.39544,-1.40203 8.50186,-1.29559 0.23781,0.23781 -6.70587,8.99787 -14.87369,18.76452 -6.24739,7.47027 -11.07937,14.00945 -12.70534,17.19432 l -0.9157,1.79358 3.68115,3.88038 c 4.05794,4.27754 7.14055,9.6007 8.60036,14.85135 0.68488,2.46327 1.15094,3.31224 1.70225,3.10068 0.41757,-0.16023 2.98908,-0.53954 5.71447,-0.84291 2.72542,-0.30337 5.74559,-0.69535 6.7115,-0.87109 0.96594,-0.17573 1.75623,-0.17639 1.75623,-0.003 0,2.00543 -5.50133,13.45798 -10.36492,21.577456 -4.24731,7.09059 -9.72558,17.79664 -10.702,20.91454 -1.21441,3.87792 -8.56819,14.52079 -13.73479,19.87783 -2.01586,2.09018 -3.469,3.06824 -5.4193,3.64755 -4.32157,1.28365 -5.64697,1.05412 -8.95323,-1.55038 z"
       id="path21716"
       inkscape:connector-curvature="0" />
    <path
       style="opacity:1;fill:#597e64;fill-opacity:1;fill-rule:nonzero;stroke:none;stroke-width:2.99206734;stroke-miterlimit:4;stroke-dasharray:none;stroke-opacity:1"
       d="m -676.73249,147.08795 c -7.87424,-6.26901 -12.64714,-13.1088 -30.97602,-44.3902 -10.24771,-17.489456 -17.80294,-29.310776 -22.55689,-35.293696 -7.0348,-8.85343 -15.99417,-16.42393 -22.23135,-18.78507 -3.88956,-1.47246 -10.72253,-1.9359 -15.43429,-1.04688 l -3.5933,0.67803 -3.70483,-2.46357 c -4.64502,-3.08872 -13.12042,-7.35279 -18.3519,-9.23306 -2.1981,-0.79001 -4.22185,-1.57564 -4.49725,-1.74585 -0.54271,-0.33541 20.36066,-11.49022 27.40694,-14.62532 3.69427,-1.6437 5.06963,-1.96101 9.45658,-2.18181 2.82348,-0.14208 8.17319,0.0193 11.88829,0.35881 14.16907,1.29458 16.47168,1.33646 19.47481,0.35417 5.93421,-1.94096 14.69607,-8.37084 20.67838,-15.1747797 3.05014,-3.46909005 2.84255,-3.32460005 -2.50428,1.74294 -6.66626,6.3180097 -14.22887,11.6192297 -18.30086,12.8284797 -3.46633,1.02939 -5.49897,1.03153 -13.65359,0.0145 -3.55518,-0.44344 -9.82445,-0.80626 -13.93171,-0.80626 -10.30116,0 -10.27467,-0.01 -32.56116,11.98718 -9.63742,5.18785 -9.34765,5.10707 -14.08732,3.92682 -2.20842,-0.54994 -4.01529,-1.13718 -4.01529,-1.30501 0,-0.32266 9.5272,-9.33897 14.4162,-13.64316 1.59094,-1.40062 3.21119,-2.42435 3.60055,-2.27494 0.42312,0.16238 1.35602,-0.7697 2.31884,-2.31677 0.88601,-1.42364 2.82607,-3.60463 4.31125,-4.8466097 2.56352,-2.14376 2.73336,-2.20535 3.35132,-1.21587 0.98764,1.5815 1.68272,1.26971 2.79993,-1.25592 0.55917,-1.26407 1.70055,-2.9469 2.5364,-3.73962 2.14884,-2.03795005 19.76181,-13.9336503 20.21535,-13.6533503 0.37505,0.2318 1.16565,5.5625503 1.95866,13.2067303 l 0.42043,4.05281 1.68544,-2.97206 c 3.9175,-6.90796 10.93891,-13.4413403 16.84272,-15.6720703 3.71136,-1.40232 7.94477,-1.4084 10.23054,-0.0148 2.22784,1.35837 4.6505,4.7083403 5.88226,8.1337403 0.53195,1.47931 1.15343,2.68965 1.38108,2.68965 0.22762,0 1.44629,-2.24933 2.70814,-4.99849 3.61111,-7.8674303 6.84339,-13.8591903 9.7527,-18.0787903 3.46485,-5.02539 4.01542,-5.48648 4.97843,-4.16952 0.68812,0.94107 0.83103,0.82439 2.00951,-1.64078 2.00985,-4.20431 4.88569,-4.42426 8.50087,-0.65016 l 1.82843,1.90881 -5.21824,8.00541 c -2.87004,4.40299 -6.7945,10.25475 -8.72104,13.0039003 -1.92654,2.74916 -3.3895,4.99849 -3.25107,4.99849 0.38741,0 5.43013,-6.9680403 11.61902,-16.0551803 3.07896,-4.52086 5.77604,-8.10977 5.99353,-7.97537 0.40166,0.24824 1.59814,4.98618 2.70187,10.69909 0.33473,1.73252 0.74883,3.00977 0.92025,2.83835 0.17142,-0.17143 1.07323,-2.31844 2.00403,-4.77116 3.99447,-10.52578 7.91517,-13.37061 19.61023,-14.22897 2.74915,-0.20177 4.99846,-0.52745 4.99846,-0.72371 0,-0.19627 -1.5993,-2.109183 -3.55399,-4.25088 l -3.55402,-3.894031 1.42769,-0.542819 c 0.78523,-0.29853 3.84353,-0.542793 6.79625,-0.542793 2.95272,0 5.36858,-0.09716 5.36858,-0.215874 0,-0.118745 -0.85918,-1.492647 -1.90931,-3.053133 -2.14622,-3.189287 -2.15995,-3.950282 -0.0757,-4.197032 1.15776,-0.137054 1.56294,0.130783 2.04345,1.350936 l 0.59934,1.52191 0.59327,-1.280875 c 0.55534,-1.199038 0.81291,-1.263253 4.03127,-1.004914 l 3.43803,0.275987 -0.13894,-2.259383 c -0.18904,-3.074114 0.25361,-3.566609 3.20366,-3.564255 5.70172,0.0045 8.67479,4.14274 11.98597,16.683276 0.34351,1.300956 0.81301,2.152041 1.04333,1.891321 0.23034,-0.260694 1.08789,-2.87909 1.90566,-5.818611 1.82054,-6.543966 3.9188,-11.785944 5.85994,-14.63966 1.36837,-2.01168 1.46373,-2.061925 1.46373,-0.77134 0,0.759275 -1.09607,3.632465 -2.4357,6.384899 -1.33962,2.752407 -2.32522,5.183134 -2.1902,5.401601 0.13504,0.218492 2.5822,0.856694 5.43814,1.418219 6.15,1.209225 6.04578,0.677069 1.79366,9.15752 -6.97632,13.913721 -13.43855,21.941631 -38.46758,47.787641 -7.02472,7.254 -12.77221,13.61969 -12.77221,14.146 0,0.75755 0.63522,1.03627 3.04914,1.33787 4.90686,0.61309 17.73468,-0.0903 25.21871,-1.38285 3.80762,-0.6576 7.05895,-1.05966 7.22513,-0.89347 0.35762,0.35761 -0.59708,1.59414 -12.16252,15.75273 -8.80361,10.77752 -15.22481,19.66786 -15.22481,21.07928 0,0.40939 1.30513,2.15643 2.90031,3.88231 4.11805,4.45553 7.07448,9.28127 8.72818,14.24689 0.7861,2.36048 1.5917,4.28707 1.79019,4.2813 0.19852,-0.006 2.79263,-0.36282 5.76469,-0.79343 2.97207,-0.43061 6.09883,-0.79063 6.94838,-0.80005 1.4159,-0.0156 1.51411,0.10668 1.17862,1.46889 -0.56036,2.27515 -5.73569,12.65391 -9.76778,19.588636 -3.32285,5.71489 -9.71693,18.26757 -11.55952,22.69336 -1.29164,3.10245 -7.82666,12.47751 -11.45275,16.42996 -3.82948,4.17418 -6.57305,5.69855 -10.2878,5.71604 -2.11862,0.0101 -2.9333,-0.31856 -5.13357,-2.07029 z m -28.013,-148.6828057 c 0.53795,-0.59441 0.85648,-1.08074 0.70789,-1.08074 -0.14862,0 -0.71033,0.48633 -1.24825,1.08074 -0.53795,0.59441 -0.85648,1.08073995 -0.70789,1.08073995 0.14861,0 0.71032,-0.48632995 1.24825,-1.08073995 z"
       id="path21718"
       inkscape:connector-curvature="0" />
    <path
       style="opacity:1;fill:#446b56;fill-opacity:1;fill-rule:nonzero;stroke:none;stroke-width:2.99206734;stroke-miterlimit:4;stroke-dasharray:none;stroke-opacity:1"
       d="m -661.53549,144.65919 c 5.35025,-5.80433 11.43474,-14.97357 13.38157,-20.16586 1.29971,-3.46638 4.98028,-10.49589 12.61078,-24.08534 3.41582,-6.083346 7.4091,-14.554056 7.71649,-16.368546 0.0993,-0.58597 -0.003,-1.15578 -0.2242,-1.26619 -0.38333,-0.19018 -8.97658,0.73517 -12.62203,1.35919 -1.64365,0.28136 -1.72577,0.20042 -2.63393,-2.59551 -1.69304,-5.21232 -5.13921,-11.14433 -8.72294,-15.0151 l -3.47819,-3.75674 1.0645,-2.08656 c 1.53898,-3.01665 6.65078,-9.77365 16.24627,-21.47499 9.5087,-11.59552 11.09302,-13.7056 10.63479,-14.16386 -0.17711,-0.17711 -3.66882,0.25903 -7.7593,0.9692 -6.02716,1.04637 -9.34961,1.29265 -17.52304,1.29879 -5.54715,0.004 -10.25842,-0.16449 -10.46948,-0.37487 -0.54848,-0.54665 0.87431,-2.12687 16.88856,-18.7572597 7.8935,-8.19719005 16.54784,-17.57884 19.23188,-20.8481103 7.87998,-9.59821 14.3891,-20.05129 17.67168,-28.37926 l 1.05526,-2.677239 -1.20496,-0.253047 c -0.66276,-0.139171 -3.16432,-0.689716 -5.55906,-1.223407 l -4.35404,-0.970386 2.54233,-5.397527 2.54236,-5.397526 1.74895,3.911494 c 0.96194,2.151327 1.95397,3.911494 2.20453,3.911494 0.97084,0 2.11098,-2.660888 3.23853,-7.558034 1.35123,-5.868697 2.96846,-8.112866 5.84642,-8.112866 2.26277,0 2.08804,-0.805604 -0.49464,-2.28047 -1.18655,-0.677598 -2.15921,-1.361943 -2.16152,-1.520746 -0.003,-0.158829 0.78613,-0.766763 1.75208,-1.350963 1.46984,-0.888947 2.74756,-1.062169 7.83558,-1.062169 3.34367,0 6.0793,-0.129196 6.07922,-0.2871 0,-0.585152 -6.27745,-6.404663 -8.03859,-7.452518 l -1.82415,-1.085321 2.17715,-1.110695 c 1.19743,-0.610896 3.20892,-1.17856 4.46995,-1.26148 2.21724,-0.145812 2.35617,-0.05744 4.21619,2.681711 l 1.92342,2.83247 0.86585,-2.83247 0.86587,-2.832497 2.1041,0.172085 c 2.44912,0.200316 10.76613,2.78638 15.04024,4.67659 l 2.95857,1.308444 3.17471,-6.320817 c 3.35796,-6.685703 9.84824,-17.398524 10.54073,-17.398524 0.22604,0 0.92986,1.017138 1.56409,2.260283 0.99044,1.941486 1.11715,2.913274 0.89826,6.889803 -0.2961,5.378953 -1.04878,7.793619 -5.0405,16.169957 -6.18815,12.985433 -14.52512,25.814788 -33.90871,52.180491 -11.72845,15.9531303 -25.02738,35.27396 -24.5846,35.71674 0.3679,0.3679 17.99325,-7.3823797 25.6613,-11.2838697 3.91424,-1.99157005 9.47962,-5.20078 12.36747,-7.13158 2.88785,-1.9308 5.36861,-3.39257 5.51281,-3.2484 0.47762,0.47766 -5.85849,12.59478 -9.54405,18.25199 -1.99398,3.0606997 -7.60749,10.9146497 -12.47445,17.4531897 -14.71049,19.763 -21.02046,30.04172 -30.85084,50.25501 -5.21319,10.71933 -12.92616,27.511666 -12.92616,28.142196 0,0.7045 6.10055,-4.79394 15.66457,-14.118486 5.5018,-5.36405 11.46231,-10.8503 13.24555,-12.19163 3.2131,-2.41689 7.2989,-5.05809 7.29096,-4.71313 -0.003,0.0985 -0.48093,1.74718 -1.06368,3.66366 -0.58274,1.91649 -0.96358,3.58045 -0.84632,3.69771 0.11726,0.11729 4.38296,-3.50776 9.47928,-8.05561 17.43033,-15.55448 21.61614,-18.52128 49.71473,-35.23673 10.25364,-6.09973 20.95307,-12.62877 23.77655,-14.50896 5.09111,-3.39026 5.13212,-3.43524 4.95779,-5.43684 -0.69311,-7.95729 9.04158,-22.7282597 25.38103,-38.51203 15.42909,-14.90438 25.61783,-21.663902 54.6286,-36.242285 21.07908,-10.592594 28.94443,-14.962505 84.71072,-47.064219 4.4347,-2.5528 5.54005,-2.75015 8.49315,-1.51627 1.86449,0.77904 1.91595,0.86511 0.92831,1.55239 -3.21791,2.23917 -19.28677,12.198825 -29.12673,18.053022 -16.99379,10.110312 -23.50133,14.597989 -31.83295,21.952427 -4.68077,4.131786 -10.64696,11.212988 -14.13126,16.772202 -2.79194,4.454551 -8.88934,13.792123 -33.67715,51.5731933 -8.07455,12.3070697 -14.60405,22.4534097 -14.51001,22.5474497 0.36515,0.36515 26.29514,-5.11723 33.88095,-7.16347 l 1.35094,-0.36441 -1.15816,1.29591 c -3.72732,4.1706 -12.85018,21.67305 -19.96935,38.31166 -4.46164,10.42763 -17.42448,42.391806 -17.2624,42.566166 0.075,0.0807 3.87999,-2.07693 8.45558,-4.794616 20.39189,-12.11175 43.61831,-24.55913 73.16444,-39.2099 15.80237,-7.8358 21.1187,-10.24559 21.2507,-9.63266 0.42838,1.98948 -3.40477,23.26431 -5.06159,28.09288 -0.20396,0.59441 0.63897,-0.60389 1.8732,-2.66288 6.10304,-10.18135 11.84397,-16.92756 31.06282,-36.50215 17.89872,-18.23003 22.90223,-24.09402 47.04059,-55.13062 9.59271,-12.33411 19.89154,-25.458395 22.88633,-29.165128 2.99476,-3.706707 5.3852,-6.799316 5.31206,-6.872446 -0.0731,-0.07313 -1.94429,0.482705 -4.15808,1.235207 -4.07683,1.385782 -18.49321,5.081667 -19.82179,5.081667 -0.55065,0 -0.58772,-0.252492 -0.15566,-1.059815 0.31198,-0.582904 1.31266,-3.171825 2.22375,-5.753153 1.99194,-5.643642 3.74454,-8.55308 5.96598,-9.904016 l 1.65571,-1.006898 -2.56262,-1.501802 -2.56262,-1.501801 1.45828,-1.254337 c 1.85274,-1.593691 3.37449,-1.608825 3.87151,-0.03852 0.21167,0.668708 0.83241,2.261156 1.37943,3.538723 l 0.99457,2.322883 3.72647,-3.673819 c 4.51633,-4.452515 8.39962,-6.857842 12.94421,-8.017722 7.73269,-1.97358 13.75805,1.259787 18.32907,9.835885 3.1211,5.855812 3.11726,5.643907 0.16319,9.019726 -3.80259,4.34541 -5.44052,9.848347 -10.88019,36.553846 -6.22385,30.55538 -9.33913,40.9325 -15.63984,52.09673 l -1.70426,3.01977 -1.38872,-1.09239 c -4.27117,-3.35968 -14.44797,-12.95966 -16.6538,-15.70979 -1.40994,-1.75787 -2.64523,-3.11441 -2.74511,-3.01453 -0.0999,0.0999 0.89503,4.41751 2.21091,9.59479 1.31586,5.17729 3.27041,13.79027 4.34343,19.14002 2.24142,11.17502 7.42042,41.32344 7.19288,41.8719 -0.0839,0.20222 -4.40801,-1.64291 -9.60913,-4.10031 -31.65743,-14.95739 -46.23742,-17.50573 -50.6997,-8.86147 -2.77223,5.37027 -0.54991,12.21242 7.48988,23.06018 2.36651,3.19302 4.30273,5.940766 4.30273,6.106126 0,0.16537 -2.66679,1.20883 -5.92616,2.31884 -4.89019,1.66537 -6.67817,2.01819 -10.22805,2.01819 -6.44258,0 -11.44212,0.84976 -25.72497,4.37248 -15.99406,3.9448 -25.20651,5.36016 -34.58408,5.31336 -3.86368,-0.0193 -7.51123,-0.24403 -8.10564,-0.49946 l -1.08075,-0.46442 1.08075,-0.0499 c 3.51483,-0.16211 9.64075,-4.81508 12.42351,-9.43631 1.03759,-1.72308 4.27884,-6.572306 7.20278,-10.776026 6.73856,-9.68799 6.62572,-9.48262 4.39166,-7.99267 -3.1092,2.07357 -8.16478,4.24066 -11.58928,4.96776 -4.22863,0.89784 -13.83223,0.78986 -22.966,-0.25826 -4.0123,-0.46042 -8.85674,-0.83947 -10.76541,-0.84232 l -3.47033,-0.005 6.13722,5.83378 c 3.68435,3.502206 5.98511,6.079876 5.75664,6.449526 -0.20931,0.33867 -1.77413,1.14269 -3.47744,1.78671 -3.34751,1.26574 -14.742,3.801 -15.36795,3.41939 -0.21053,-0.12835 -2.52066,0.0312 -5.13358,0.35447 -5.47534,0.67749 -11.64855,2.62575 -19.34094,6.10396 -2.97206,1.34387 -8.92492,4.03979 -13.22858,5.99093 l -7.82482,3.54754 -0.7521,-1.43547 c -1.28196,-2.44669 -0.48323,-6.5526 2.26184,-11.62733 2.73408,-5.05441 6.81707,-17.252336 8.52758,-25.476146 1.56779,-7.53755 1.59443,-16.21816 0.0629,-20.46877 -2.85247,-7.91634 -8.19359,-11.22394 -18.12478,-11.22394 h -4.83507 l 0.33933,-4.18794 c 0.18661,-2.30335 0.58594,-8.44338 0.88736,-13.64451 0.30144,-5.2011 0.69524,-10.49784 0.87516,-11.77049 l 0.3271,-2.31391 -2.88795,1.13832 c -9.98461,3.93557 -35.42726,15.95003 -38.01549,17.95158 -1.02828,0.7952 -0.99047,0.90643 1.35096,3.97544 4.10734,5.38372 13.95431,14.88483 21.82024,21.05388 14.30597,11.21979 17.89422,14.17074 22.62418,18.60589 2.61231,2.44949 4.67188,4.53136 4.57687,4.62638 -0.095,0.095 -4.2993,-1.16115 -9.34284,-2.79154 -30.21417,-9.76699 -48.36837,-12.54382 -54.31676,-8.30819 -4.9085,3.49518 -4.23836,7.23027 3.17174,17.67782 4.67675,6.593816 5.24309,7.639126 4.307,7.949826 -4.57764,1.51932 -21.59447,1.87518 -38.92611,0.81402 -13.76275,-0.84265 -30.13247,-0.47773 -35.53402,0.79211 -8.92027,2.09709 -15.63433,6.57915 -24.99352,16.68484 -14.6699,15.83996 -18.37526,19.31334 -24.22819,22.71143 -3.43741,1.9957 -3.67466,1.81065 -1.16681,-0.91006 z"
       id="path21720"
       inkscape:connector-curvature="0" />
    <path
       style="opacity:1;fill:#345544;fill-opacity:1;fill-rule:nonzero;stroke:none;stroke-width:2.99206734;stroke-miterlimit:4;stroke-dasharray:none;stroke-opacity:1"
       d="m -632.22164,103.94693 c 0,-0.68974 6.59313,-14.945306 12.44899,-26.917036 9.54535,-19.51453 15.87262,-29.81664 30.53342,-49.71463 4.37965,-5.94413 9.61424,-13.29716 11.63246,-16.34006 3.90808,-5.8922697 10.69102,-18.7739597 10.16339,-19.3016197 -0.17384,-0.1738 -3.57347,1.66862 -7.55476,4.09435 -9.87811,6.01853 -33.96287,17.4319397 -34.87028,16.5245297 -0.58082,-0.58082 6.57865,-11.0161397 25.655,-37.3937 19.2573,-26.627718 27.52477,-39.648657 32.98883,-51.956227 3.20252,-7.213547 3.84202,-9.745901 3.84202,-15.214309 0,-3.648313 -0.19481,-4.565597 -1.32276,-6.227683 l -1.32276,-1.949215 3.0089,-4.20544 c 6.34719,-8.87127 14.80912,-18.08647 20.97876,-22.84632 3.34341,-2.57943 4.98909,-3.10293 18.04469,-5.74022 l 7.41037,-1.49691 5.53156,2.09484 c 3.53629,1.33922 5.44047,2.33223 5.27905,2.75291 -0.13888,0.36193 -3.02432,4.63389 -6.41205,9.49323 -7.39968,10.614 -8.69013,12.71042 -8.06278,13.09814 0.26321,0.16267 2.27727,0.57571 4.47575,0.91787 4.91609,0.76515 10.47379,0.35248 19.34104,-1.43611 3.68379,-0.74303 6.90388,-1.28164 7.15573,-1.19692 1.35028,0.45426 -57.76542,85.972464 -81.9124,118.4964543 -7.4295,10.0069097 -7.26879,9.7544697 -5.66248,8.8947897 5.67899,-3.0393 19.83869,-12.2209997 68.85794,-44.65022 40.77142,-26.972731 49.31238,-32.556419 74.83809,-48.925687 19.44632,-12.470606 17.77666,-11.863123 18.62724,-6.777566 0.46361,2.771881 1.72107,2.632181 2.4319,-0.270193 0.30935,-1.263121 0.92778,-3.537453 1.37432,-5.054071 l 0.81185,-2.757461 11.70202,-7.239502 c 6.43609,-3.981714 12.02571,-7.432754 12.42136,-7.668974 0.51126,-0.30522 1.0645,0.28096 1.91252,2.02642 0.65624,1.35075 1.36091,2.45589 1.56593,2.45589 0.20503,0 2.03478,-0.97121 4.0661,-2.15824 2.03133,-1.18705 4.89473,-2.5573 6.36314,-3.04503 2.97003,-0.98648 8.37306,-1.20907 12.489,-0.51451 2.69052,0.45402 2.69507,0.45826 1.08077,1.00711 -0.89162,0.30316 -12.32059,6.67345 -25.3977,14.156238 -34.49928,19.740668 -41.75625,23.736035 -61.87308,34.064601 -19.88499,10.20953 -29.0863,15.391897 -36.4754,20.543679 -15.09731,10.526106 -32.57058,28.3305563 -40.31663,41.0807963 -2.98577,4.91469 -4.3638,8.5929497 -4.74572,12.6673797 l -0.32925,3.51245 -4.323,2.86244 c -2.37765,1.57435 -12.83393,7.99079 -23.23619,14.25872 -28.56978,17.2149 -33.43452,20.64231 -49.98479,35.21649 -5.20112,4.58009 -9.50748,8.28495 -9.56966,8.23299 -0.0622,-0.052 0.25617,-1.5085 0.70747,-3.23671 0.4513,-1.72823 0.68315,-3.27964 0.5152,-3.44757 -0.16796,-0.16796 -2.00549,0.8563 -4.08345,2.27608 -3.73851,2.55442 -6.94804,5.44044 -22.12263,19.89275 -7.21035,6.867126 -8.67704,8.060656 -8.67704,7.060986 z"
       id="path21722"
       inkscape:connector-curvature="0" />
    <path
       style="opacity:1;fill:#153024;fill-opacity:1;fill-rule:nonzero;stroke:none;stroke-width:2.99206734;stroke-miterlimit:4;stroke-dasharray:none;stroke-opacity:1"
       d="m -560.49061,17.183204 c 0.29353,-0.3715 3.55576,-4.80933 7.2494,-9.8618697 30.6207,-41.8858903 81.44407,-115.6597443 80.37734,-116.6736843 -0.11932,-0.11342 -3.13499,0.41051 -6.70147,1.16428 -5.15532,1.08955 -8.14602,1.38274 -14.59015,1.43025 -5.05177,0.0373 -8.48532,-0.16499 -9.11334,-0.53678 -0.923,-0.54642 -0.43042,-1.45476 5.86073,-10.80754 3.77764,-5.61602 7.30092,-10.65993 7.82947,-11.20868 0.93253,-0.96811 1.18367,-0.92511 8.45924,1.44772 13.68485,4.46315 31.40987,8.54107 44.10868,10.14788 2.89777,0.36666 5.26865,0.80928 5.26865,0.98365 0,0.17433 -0.48633,0.62071 -1.08074,0.99192 -1.81147,1.13128 -1.23756,1.60382 2.42392,1.99594 2.10188,0.2251 3.98923,0.76771 4.7153,1.35564 l 1.21063,0.98031 -2.08801,0.87241 -2.08801,0.87241 1.83081,1.21227 c 1.2805,0.84786 2.51685,2.59149 4.11305,5.80067 1.25524,2.52362 2.51542,4.666138 2.8004,4.761124 0.72753,0.242517 1.56607,-1.507014 2.24933,-4.692914 0.73753,-3.439 2.28177,-5.461 4.19026,-5.48661 l 1.4468,-0.0193 -1.59999,-1.3076 c -0.88003,-0.71916 -1.43899,-1.46862 -1.24219,-1.66542 0.62198,-0.62198 5.91653,1.59631 7.63293,3.19802 1.90865,1.78112 1.71352,1.9925 -2.81834,3.05342 l -2.89097,0.67678 2.89097,1.57919 c 1.59004,0.86855 3.80725,2.47267 4.9271,3.564733 l 2.03613,1.985593 -2.29714,1.171892 -2.29714,1.171919 2.13254,0.891064 c 1.17292,0.490061 2.59289,1.307306 3.1555,1.816073 0.98975,0.895033 3.32243,4.970145 2.97204,5.192051 -30.71215,19.450447 -48.72908,31.160482 -95.279,61.926179 -47.62651,31.4772403 -64.96113,42.69263 -65.98624,42.69263 -0.18819,0 -0.10202,-0.30395 0.19151,-0.67548 z"
       id="path21724"
       inkscape:connector-curvature="0" />
    <path
       style="opacity:1;fill:#597e64;fill-opacity:1;fill-rule:nonzero;stroke:none;stroke-width:2.99206734;stroke-miterlimit:4;stroke-dasharray:none;stroke-opacity:1"
       d="m -516.81317,129.96542 c -5.10865,-0.96848 -11.65608,-3.5069 -20.84263,-8.08062 -14.92141,-7.42891 -30.73776,-12.90939 -45.20221,-15.66291 l -4.24222,-0.80758 6.48451,0.26183 c 21.99844,0.88818 33.57573,0.90281 39.13137,0.0494 3.09539,-0.47545 5.74072,-0.97721 5.87849,-1.11498 0.13777,-0.13774 -1.42216,-2.71153 -3.46652,-5.719496 -6.57635,-9.67613 -7.40145,-11.21222 -7.65318,-14.24781 -0.22095,-2.66438 -0.13488,-2.89219 1.70188,-4.50487 1.06402,-0.93425 2.85311,-1.95369 3.97576,-2.26545 4.95472,-1.37593 15.22492,-0.18415 29.9864,3.47975 8.59583,2.13355 9.35347,2.35778 22.21497,6.57516 5.00036,1.63965 9.20226,2.87052 9.33754,2.73524 0.13526,-0.13528 -1.88902,-2.26952 -4.49839,-4.74276 -4.4718,-4.2385 -9.87422,-8.67217 -23.67272,-19.4278 -6.5201,-5.08225 -19.65418,-17.86456 -22.1315,-21.53875 -1.55779,-2.3104 -1.56789,-2.37064 -0.52824,-3.15225 3.05726,-2.29843 37.85965,-18.53909 39.72777,-18.53909 0.26152,0 0.36878,0.30396 0.23836,0.67546 -0.13041,0.37152 -0.61042,6.51155 -1.06666,13.64451 -0.45625,7.13295 -0.96489,13.84337 -1.13028,14.91202 l -0.3007,1.94299 5.32302,0.34883 c 9.95913,0.65267 14.15598,3.01135 17.22599,9.68124 1.46114,3.17444 1.55332,3.79536 1.54422,10.40087 -0.006,4.67297 -0.33565,8.56269 -0.98327,11.6181 -1.47355,6.95216 -5.89704,19.860226 -8.72355,25.455896 -2.60403,5.15528 -3.17731,8.08694 -2.27106,11.61407 l 0.43043,1.67532 -5.29381,1.51154 c -13.27108,3.78928 -22.93604,4.7876 -31.19377,3.22212 z"
       id="path21726"
       inkscape:connector-curvature="0" />
    <path
       style="opacity:1;fill:#618c79;fill-opacity:1;fill-rule:nonzero;stroke:none;stroke-width:2.99206734;stroke-miterlimit:4;stroke-dasharray:none;stroke-opacity:1"
       d="m -413.36926,114.62757 c -1.93183,-0.51789 -6.06573,-1.80242 -9.18639,-2.85451 -3.12068,-1.05206 -6.52504,-2.16214 -7.56528,-2.46684 -1.43417,-0.4201 -1.59192,-0.56732 -0.65267,-0.60915 4.94207,-0.22013 16.3236,-3.97108 16.3236,-5.37969 0,-0.28488 -2.71987,-3.10587 -6.04417,-6.268906 l -6.04414,-5.75098 3.47736,0.33044 c 1.91254,0.18171 6.81043,0.67984 10.88419,1.10691 15.38396,1.61282 24.4366,0.72615 31.01536,-3.03784 1.60414,-0.91781 2.91661,-1.50389 2.91661,-1.30247 0,0.20146 -1.909,3.07655 -4.2422,6.38908 -2.33317,3.31256 -5.33254,7.725016 -6.6652,9.805456 -3.05786,4.77369 -7.70985,9.07002 -11.05492,10.20982 -3.24776,1.10662 -8.65799,1.03622 -13.16215,-0.17132 z"
       id="path21728"
       inkscape:connector-curvature="0" />
    <path
       style="opacity:1;fill:#5d8574;fill-opacity:1;fill-rule:nonzero;stroke:none;stroke-width:2.99206734;stroke-miterlimit:4;stroke-dasharray:none;stroke-opacity:1"
       d="m -265.30615,120.47053 c -5.3788,-0.61024 -14.09631,-2.44769 -34.31389,-7.2326 -9.21343,-2.18056 -18.81863,-4.35872 -21.34487,-4.84039 -7.99422,-1.52419 -7.65865,-1.3257 -4.31839,-2.5544 1.63211,-0.60034 4.1225,-1.45036 5.53423,-1.88894 1.41174,-0.43854 2.56678,-0.93665 2.56678,-1.10685 0,-0.17024 -1.65653,-2.52283 -3.68118,-5.228036 -6.67154,-8.91397 -9.26398,-14.07424 -9.36696,-18.64495 -0.11779,-5.22851 1.90227,-8.25645 6.37585,-9.55696 7.23908,-2.10444 21.10404,1.96157 44.60208,13.07994 5.26508,2.49121 9.83202,4.52951 10.14876,4.52951 0.31676,0 0.45799,-0.54713 0.31385,-1.21587 -0.14415,-0.6687 -1.25659,-7.29506 -2.47209,-14.72525 -2.78339,-17.01416 -5.91801,-32.7942 -8.58744,-43.23008 -1.14036,-4.4581 -2.22713,-8.76306 -2.41507,-9.56654 -0.26789,-1.14536 0.79709,-0.28586 4.93096,3.97965 2.89997,2.99228 7.51163,7.35819 10.24814,9.702 l 4.97546,4.26151 1.5046,-2.5672 c 2.5367,-4.32816 7.06213,-15.40594 9.03873,-22.12586 2.22721,-7.5719997 3.95734,-15.0638097 6.27777,-27.18384 3.68702,-19.258124 7.05342,-32.701709 9.19829,-36.733165 0.55708,-1.047063 1.76601,-2.754842 2.68655,-3.795078 l 1.67373,-1.891321 -0.2716,2.972091 c -0.14935,1.634622 -0.5316,11.726148 -0.84941,22.425603 -1.47897,49.7917 -1.99988,54.13717 -9.79467,81.70741 -2.41961,8.55819 -5.10947,18.9647 -5.97749,23.12559 -2.07828,9.9623 -2.57969,19.75956 -1.34483,26.2768 l 0.88329,4.661776 -1.91024,4.02246 c -2.31087,4.86603 -2.87491,8.57234 -1.72384,11.32723 l 0.81931,1.96091 -1.63719,0.32742 c -2.08873,0.41775 -6.60683,0.31311 -11.76922,-0.27257 z"
       id="path21730"
       inkscape:connector-curvature="0" />
    <path
       style="opacity:1;fill:#264636;fill-opacity:1;fill-rule:nonzero;stroke:none;stroke-width:2.99206734;stroke-miterlimit:4;stroke-dasharray:none;stroke-opacity:1"
       d="m -462.25304,100.40117 c 0.52853,-1.768976 12.5472,-31.259566 16.35178,-40.122946 7.15848,-16.6768 15.70132,-33.21389 19.37499,-37.50572 1.97344,-2.30553 2.25774,-3.04009 0.98806,-2.55286 -3.04761,1.16946 -33.19968,7.56891 -33.63082,7.13777 -0.34396,-0.34396 0.9521,-2.37413 24.17524,-37.86849 10.88954,-16.64359 21.14108,-32.32801 22.78118,-34.854252 6.43306,-9.908751 12.73612,-16.562043 22.97303,-24.249512 5.46375,-4.103026 10.02872,-7.006325 33.1502,-21.083482 6.68716,-4.071355 14.0688,-8.662908 16.40364,-10.203448 3.46276,-2.28473 4.43545,-2.69912 5.27765,-2.24837 0.93974,0.50292 0.71506,0.87315 -2.50008,4.120116 -1.94291,1.962123 -3.43022,3.669903 -3.30507,3.795051 0.12512,0.125121 2.09309,-0.03196 4.37325,-0.349118 6.50811,-0.905193 10.21484,-0.755518 11.70805,0.472757 l 1.27571,1.049338 -3.10626,2.956137 -3.10626,2.95611 2.29568,0.382508 c 4.28236,0.713555 8.87807,2.400617 10.41194,3.822144 1.88582,1.747706 1.41153,2.097379 -3.54031,2.610194 -3.73907,0.387192 -5.77789,1.127258 -4.29059,1.557391 0.43749,0.126523 2.15665,0.626692 3.82037,1.111514 3.7066,1.080109 5.16157,2.454646 4.30083,4.063021 -0.32771,0.612326 -1.11863,1.393085 -1.75757,1.735032 -1.10419,0.590947 -1.04357,0.67855 1.22343,1.768607 3.58555,1.724078 4.68929,3.721312 6.97955,12.629886 0.70506,2.742406 1.94651,3.019848 2.418,0.540358 1.18525,-6.232763 3.11354,-9.402471 6.98997,-11.490087 2.27928,-1.227455 2.36451,-1.501431 0.7325,-2.354818 -1.07727,-0.563324 -0.97464,-0.605737 0.90059,-0.372136 2.41332,0.300619 6.84866,2.390113 9.21226,4.339907 l 1.60195,1.321488 -2.11979,1.832425 -2.11981,1.832425 2.02967,0.380762 c 1.4777,0.27723 2.3118,0.844682 3.06707,2.086636 0.57058,0.938239 0.84884,1.836923 0.61839,1.997102 -0.6967,0.484214 -11.03908,14.648841 -10.82368,14.823784 0.11006,0.08938 3.23974,-0.521997 6.95484,-1.358662 3.71509,-0.836666 7.60579,-1.665711 8.64602,-1.842321 3.46049,-0.587586 10.95238,-2.425858 16.64542,-4.084267 3.09372,-0.901223 5.74191,-1.521565 5.88491,-1.378585 0.14301,0.143008 -6.00525,8.243068 -13.66274,18.000135 -7.65751,9.75706 -18.19587,23.19062 -23.41856,29.8523503 -13.20945,16.8491997 -20.78355,25.5309197 -35.25652,40.4124397 -6.8793,7.07347 -14.82193,15.41412 -17.65036,18.5348 -5.23499,5.77596 -12.42557,15.04151 -13.92848,17.94788 -0.45681,0.88334 -0.94703,1.4896 -1.0894,1.34726 -0.14234,-0.14235 0.37079,-3.50854 1.1403,-7.48038 1.78941,-9.236 2.9056,-17.97656 2.32596,-18.21344 -0.56785,-0.23204 -43.69057,21.21924 -57.43554,28.57116 -12.11273,6.47885 -25.65347,14.06334 -36.29742,20.33111 -4.21161,2.48002 -7.81476,4.509136 -8.00698,4.509136 -0.1922,0 -0.18601,-0.54713 0.0138,-1.21584 z"
       id="path21732"
       inkscape:connector-curvature="0" />
    <path
       style="opacity:1;fill:#41604e;fill-opacity:1;fill-rule:nonzero;stroke:none;stroke-width:2.99206734;stroke-miterlimit:4;stroke-dasharray:none;stroke-opacity:1"
       d="m -296.34746,-44.36179 c 0.23971,-0.403357 2.63744,-3.724566 5.32825,-7.380472 l 4.89244,-6.647101 0.8985,4.485614 c 0.49419,2.46708 1.14668,5.117941 1.45002,5.890842 l 0.5515,1.405228 -5.76495,1.199886 c -3.17074,0.659923 -6.22097,1.330245 -6.77829,1.48963 -0.74683,0.213546 -0.89871,0.09686 -0.57747,-0.443627 z"
       id="path21734"
       inkscape:connector-curvature="0" />
    <path
       style="opacity:1;fill:#153024;fill-opacity:1;fill-rule:nonzero;stroke:none;stroke-width:2.99206734;stroke-miterlimit:4;stroke-dasharray:none;stroke-opacity:1"
       d="m -389.57719,-95.60584 c -0.90016,-0.840872 -1.63663,-1.91762 -1.63663,-2.392786 0,-1.861502 4.10295,-4.459344 8.60441,-5.448004 2.39167,-0.52531 1.28516,-1.2092 -2.65562,-1.64137 -4.38105,-0.48043 -5.94879,-0.83146 -5.94879,-1.33186 0,-1.04505 5.17364,-3.74671 8.78867,-4.58944 5.87097,-1.36858 5.71989,-1.27944 4.17681,-2.46496 l -1.34739,-1.03521 3.0234,-0.0119 c 3.58576,-0.0143 4.09006,0.41487 6.36389,5.41504 1.40957,3.09962 1.48693,3.52753 0.69289,3.83299 -0.49157,0.1891 -4.8383,2.78567 -9.65938,5.770168 l -8.7656,5.426313 z"
       id="path21736"
       inkscape:connector-curvature="0" />
    <path
       style="opacity:1;fill:#446b56;fill-opacity:1;fill-rule:nonzero;stroke:none;stroke-width:8.46284485;stroke-miterlimit:4;stroke-dasharray:none;stroke-opacity:1"
       d="m -252.22036,116.08429 c 0,-2.2643 0.77316,-5.56151 1.71812,-7.32721 0.97504,-1.8219 1.60618,-9.215726 1.45929,-17.095966 -0.22233,-11.92716 0.7,-17.65782 6.53946,-40.63109 8.38121,-32.97301 8.35118,-32.74851 10.04822,-75.11044 1.10162,-27.498889 1.9195,-35.663084 3.981,-39.738805 3.29009,-6.504729 8.28971,-12.007427 10.90967,-12.007427 2.32833,0 2.7169,2.449565 0.59647,3.760047 -0.78636,0.485986 0.24533,2.558679 2.29262,4.605972 2.04729,2.047293 3.72234,4.568137 3.72234,5.601891 0,1.033753 1.54752,5.019781 3.43895,8.857853 2.53025,5.134425 3.43895,9.68547 3.43895,17.223581 v 10.245218 l 11.081,-6.0816 c 6.8085,-3.736713 11.0771,-5.329742 11.071,-4.131577 -0.01,1.072517 -1.3811,11.125147 -3.0568,22.339167 -3.1597,21.1441203 -3.9669,38.45483 -1.7933,38.45483 1.2538,0 31.2685,-37.53897 45.4715,-56.87065 4.1435,-5.639699 7.9406,-10.282263 8.438,-10.316818 1.6353,-0.113533 4.4451,11.618858 4.4451,18.560208 0,9.88327 -3.4059,19.9133603 -14.5058,42.71801 -9.13,18.75745 -13.9229,33.33525 -12.7338,38.73 0.9723,4.41123 16.7045,-10.37186 34.2328,-32.16754 9.5649,-11.89361 21.0175,-24.3911197 25.450301,-27.7723097 7.6037,-5.79988 53.2358,-38.1627863 57.3509,-40.6740793 1.4394,-0.87839 1.9105,0.93607 1.9105,7.358275 v 8.524164 l -11.2,5.31619 c -16.1986,7.68884 -23.0431,18.0454803 -27.0075,40.86617 -2.3624,13.59847 -2.4643,13.79667 -6.0938,11.85418 -2.5031,-1.33962 -3.0795,-1.1806 -3.0795,0.84941 0,5.06371 -4.9524,12.71985 -9.6708,14.95058 -2.667,1.26095 -10.656101,3.08451 -17.753501,4.05241 -7.0974,0.96787 -14.9229,2.80363 -17.3901,4.07945 l -4.4858,2.31971 7.8485,6.8657 c 4.3167,3.77613 7.5151,7.40515 7.1076,8.0645 -0.4075,0.65934 -4.2027,1.65803 -8.4338,2.21929 -12.6698,1.68072 -27.0205,6.73048 -51.2197,18.02332 -26.3066,12.276236 -59.56945,25.274236 -68.21791,26.657156 -5.6324,0.90067 -5.91018,0.75158 -5.91018,-3.17177 z"
       id="path21738"
       inkscape:connector-curvature="0" />
    <path
       style="opacity:1;fill:#597e64;fill-opacity:1;fill-rule:nonzero;stroke:none;stroke-width:8.46284485;stroke-miterlimit:4;stroke-dasharray:none;stroke-opacity:1"
       d="m -114.25257,77.106644 c -7.1395,-1.1635 -10.4497,-3.14862 -5.2504,-3.14862 5.0753,0 4.0247,-2.17511 -4.4965,-9.30944 -6.9066,-5.78252 -7.5155,-6.75111 -5.2747,-8.38965 2.3354,-1.7077 11.0181,-3.58783 28.3304,-6.1346 8.315601,-1.2233 16.849101,-8.82894 16.849101,-15.01717 0,-3.43813 0.5066,-3.87583 3.5904,-3.10187 3.4294,0.86074 3.71,0.29938 6.255,-12.51551 3.1441,-15.8312897 7.0146,-24.7088497 13.6166,-31.23117 4.6854,-4.62886 20.565,-13.64756 24.0298,-13.64756 2.9965,0 16.8234,-14.215397 21.1828,-21.77793 2.3011,-3.991874 4.5223,-6.919409 4.9361,-6.505654 1.3343,1.33432 -9.2055,30.279474 -12.068,33.141974 -2.0212,2.02123 -5.9879,2.98222 -14.6912,3.5592 -12.6427,0.83815 -18.0329,2.823 -23.4414,8.6318503 -4.6975,5.04526 -6.0922,9.45279 -9.7209,30.7211897 -3.935,23.06323 -6.9248,37.40399 -10.0124,48.02508 l -2.3653,8.13649 -12.501,-0.19129 c -6.875601,-0.10523 -15.411301,-0.66562 -18.968401,-1.24532 z"
       id="path21740"
       inkscape:connector-curvature="0" />
    <path
       style="opacity:1;fill:#264636;fill-opacity:1;fill-rule:nonzero;stroke:none;stroke-width:8.46284485;stroke-miterlimit:4;stroke-dasharray:none;stroke-opacity:1"
       d="m -153.88887,50.371634 c 0.5107,-3.72557 4.1303,-13.87043 8.0435,-22.54411 16.1173,-35.7232997 17.3842,-39.46369 17.2486,-50.92385 -0.1406,-11.873734 -1.3668,-17.836966 -3.8371,-18.660429 -0.9011,-0.300329 -5.9893,5.150961 -11.3073,12.113999 -5.318,6.96304 -16.9154,21.7504703 -25.7722,32.8609603 -16.3794,20.5474097 -19.1103,22.2577797 -17.7743,11.1316297 4.3166,-35.94589 5.7372,-50.584338 4.9824,-51.339141 -0.4981,-0.498105 -5.4282,1.62351 -10.9557,4.714691 l -10.0501,5.62033 v -8.345646 c 0,-4.590124 -0.9872,-11.143641 -2.1937,-14.563407 -2.59375,-7.351316 -0.87473,-16.105161 3.7269,-18.978933 2.097,-1.309635 2.4584,-2.336959 1.3091,-3.721761 -1.1764,-1.417532 -0.2869,-2.703698 3.4357,-4.967553 6.0292,-3.666569 7.5998,-2.71854 11.2258,6.776085 3.0794,8.063257 4.7877,8.640207 6.2237,2.101956 0.9695,-4.414017 1.2243,-4.574116 3.5604,-2.237343 2.0985,2.099098 2.1648,2.734125 0.3992,3.825716 -1.6946,1.047697 -1.4925,1.643116 1.0131,2.984051 1.7215,0.921358 4.1416,4.606157 5.378,8.188457 1.8816,5.45211 2.4247,6.015249 3.3333,3.456464 3.4557,-9.732434 4.4763,-11.45413 7.3259,-12.358529 2.8084,-0.891355 2.872,-1.147816 0.5998,-2.419377 -3.5198,-1.96977 -3.1759,-4.178855 0.8973,-5.764635 2.5223,-0.981949 3.9482,-0.687229 5.3495,1.105588 1.0508,1.344427 1.9105,1.756621 1.9105,0.916013 0,-0.840634 0.8999,-2.759075 1.9997,-4.263204 1.8078,-2.472267 2.4927,-1.809856 7.1356,6.901047 4.5683,8.571072 5.3184,9.311931 6.7886,6.704965 2.8019,-4.968293 9.7,-11.455479 12.181,-11.455479 3.8085,0 12.2372,8.363373 16.7089,16.579347 l 4.147,7.619339 -7.0619,19.615259 c -3.884,10.78841 -9.6971,25.2895103 -12.9181,32.2246903 -3.221,6.9351697 -5.6124,12.6094297 -5.3143,12.6094297 0.2981,0 15.9006,-11.7975097 34.672301,-26.21669 18.7717,-14.41916 37.7551,-28.89467 42.1854,-32.167778 7.2957,-5.390065 11.0501,-6.341745 11.0501,-2.801038 0,0.714481 -13.5838,10.934436 -30.1862,22.710956 -31.526,22.36230025 -34.994901,25.4739003 -54.768301,49.12802 -13.5756,16.23992 -27.6859,30.61372 -30.0525,30.61372 -0.9756,0 -1.2172,-2.55955 -0.6396,-6.77381 z"
       id="path21742"
       inkscape:connector-curvature="0" />
    <path
       style="opacity:1;fill:#153024;fill-opacity:1;fill-rule:nonzero;stroke:none;stroke-width:8.46284485;stroke-miterlimit:4;stroke-dasharray:none;stroke-opacity:1"
       d="m -123.83357,12.502194 c 0,-0.37512 2.6422,-6.8187897 5.8714,-14.3192497 3.2292,-7.50046 8.5485,-21.0716803 11.8206,-30.1582403 4.9357,-13.705944 6.188701,-15.984748 7.353801,-13.373628 0.7724,1.731063 1.8439,3.147404 2.3809,3.147404 0.5371,0 2.7535,-3.610874 4.9254,-8.024177 5.5232,-11.222884 17.4885,-26.677594 24.6972,-31.899622 7.7651,-5.624962 13.7289,-5.698702 18.7949,-0.232357 4.2679,4.605152 4.6034,4.170627 -6.3013,8.160253 l -4.5852,1.677564 5.9864,2.075153 c 3.2926,1.14136 7.6651,3.753776 9.7167,5.805382 l 3.7302,3.730202 -4.7493,2.805483 c -2.6121,1.542997 -4.7493,3.177063 -4.7493,3.631247 0,0.454157 2.1138,1.761437 4.6973,2.905019 l 4.6974,2.079255 -4.5489,2.766325 c -2.5019,1.521486 -18.8872,13.696847 -36.4119,27.056347 -41.002101,31.25684 -43.326301,32.98243 -43.326301,32.16764 z"
       id="path21744"
       inkscape:connector-curvature="0" />
    <path
       style="opacity:1;fill:#345544;fill-opacity:1;fill-rule:nonzero;stroke:none;stroke-width:8.46284485;stroke-miterlimit:4;stroke-dasharray:none;stroke-opacity:1"
       d="m -78.820969,68.472414 c 2.0562,-8.00166 8.0935,-37.75284 10.7456,-52.95389 4.2249,-24.2154297 9.4271,-29.47241 31.3615,-31.69216 14.2003,-1.43703 46.7563,-8.21714 61.8295,-12.87658 4.1639,-1.28718 7.9023,-2.00877 8.3074,-1.60359 0.4052,0.40518 1.5454,3.08882 2.5337,5.96365 1.7073,4.96615 1.535,5.4795 -3.4528,10.28825 -2.8874,2.78373 -11.0541,12.7379703 -18.1482,22.1205403 -7.0941,9.3825797 -16.6638,20.5004997 -21.2658,24.7065297 -8.8762,8.11231 -29.5064,22.47032 -30.6472,21.32952 -0.3731,-0.37315 1.0396,-5.7295 3.1393,-11.90305 2.0998,-6.17355 3.8178,-11.85162 3.8178,-12.61793 0,-0.76631 -9.6244,7.71152 -21.3875,18.83966 -11.7631,11.12811 -22.8701,21.27136 -24.6821,22.54054 -3.1938,2.23705 -3.2596,2.17157 -2.1512,-2.14149 z"
       id="path21746"
       inkscape:connector-curvature="0" />
    <path
       style="opacity:1;fill:#446b56;fill-opacity:1;fill-rule:nonzero;stroke:none;stroke-width:8.46284485;stroke-miterlimit:4;stroke-dasharray:none;stroke-opacity:1"
       d="m -81.480769,75.486414 c 0.4397,-1.68124 1.5789,-3.06234 2.5317,-3.06911 0.9527,-0.007 11.7051,-9.2387 23.8942,-20.51545 12.1891,-11.27675 22.3427,-20.01451 22.5634,-19.41724 0.2208,0.59727 -1.2843,6.04213 -3.3447,12.09969 l -3.7459,11.01373 4.873,-2.48089 c 15.0764,-7.67541 31.3859,-22.3579 48.1565,-43.3525697 19.3588,-24.2346403 29.3207,-34.6701203 37.1807,-38.9480403 l 7.4975,-4.08067 1.6662,4.77983 c 2.0824,5.97355 6.0634,5.61179 8.1907,-0.7443 2.8449,-8.499894 3.4413,-8.836656 14.1292,-7.978744 l 9.8898,0.793855 -7.1887,-7.298451 c -4.6348,-4.705615 -6.5699,-7.680934 -5.4468,-8.375068 0.9581,-0.592111 2.6857,-0.29337 3.8391,0.663892 1.636,1.357789 2.3026,1.092967 3.0318,-1.204357 0.7963,-2.509017 1.9718,-2.827919 7.9428,-2.154899 6.727299,0.758243 6.964199,0.650955 5.907999,-2.676498 -1.909399,-6.016096 2.3406,-1.8161 5.5857,5.519896 1.6253,3.674348 3.6134,6.680623 4.4179,6.680623 0.8045,0 2.3118,-3.174365 3.3495,-7.054135 1.3604,-5.086483 2.914,-7.44474 5.5698,-8.45447 3.5497,-1.349586 3.5781,-1.477115 0.784,-3.520202 -2.7546,-2.014246 -2.6836,-2.173948 1.4251,-3.205188 3.1411,-0.788353 5.4406,-0.272442 8.4045,1.885553 2.2441,1.633987 6.3187,4.605337 9.0548,6.603021 l 4.9746,3.63212 5.0605,-4.904925 c 5.2714,-5.10921 7.1188,-5.014066 7.2007,0.370919 0.044,2.907136 0.3213,2.818448 3.1843,-1.018936 1.7248,-2.311718 4.1838,-4.203145 5.4646,-4.203145 1.5021,0 1.9971,-0.863944 1.3946,-2.434061 -0.6221,-1.621208 0.083,-2.700073 2.1119,-3.230589 1.6753,-0.438097 2.6584,-1.423537 2.1848,-2.189903 -1.4552,-2.35458 9.4217,-12.014835 13.5281,-12.014835 4.5133,0 11.2543,4.973691 12.6344,9.321985 0.9164,2.887531 1.2009,2.940368 3.6922,0.685774 2.9208,-2.643293 4.0291,-1.938655 7.5097,4.774644 1.4163,2.731664 0.9239,5.095875 -2.7814,13.354262 -5.493,12.242932 -12.2252,33.198302 -12.4683,38.810382 -0.098,2.26832 -0.7866,0.47045 -1.5296,-3.99529 -0.743,-4.46574 -2.2929,-9.91746 -3.4443,-12.1149 l -2.0933,-3.995341 -1.9336,3.708611 c -1.0634,2.03973 -2.1552,3.96613 -2.4262,4.28088 -0.2709,0.31477 -2.7569,-1.339 -5.5245,-3.67504 -5.3637,-4.527414 -21.9492,-12.942381 -25.5127,-12.944392 -1.1769,0 0.5693,1.961303 3.8805,4.35991 4.8947,3.545708 11.261,10.778962 11.248,12.779772 0,0.23974 -16.3364,0.53657 -36.2998,0.65963 -39.457999,0.24321 -52.832099,2.17633 -71.172999,10.28756 -14.4825,6.40485 -22.0853,12.5598703 -53.0079,42.91367 -36.9064,36.22754 -50.5815,45.73609 -74.8044,52.01287 -11.473,2.97297 -12.1887,2.92569 -11.2297,-0.74144 z"
       id="path21748"
       inkscape:connector-curvature="0" />
    <path
       style="opacity:1;fill:#446b56;fill-opacity:1;fill-rule:nonzero;stroke:none;stroke-width:8.46284485;stroke-miterlimit:4;stroke-dasharray:none;stroke-opacity:1"
       d="m -29.937069,-35.323649 c 0.5928,-2.521876 2.268,-6.641571 3.7227,-9.154848 2.8386,-4.903894 10.0331,-9.796648 11.8029,-8.026797 1.3491,1.349084 -5.515,11.382084 -11.8396,17.305443 l -4.7636,4.461455 z"
       id="path21750"
       inkscape:connector-curvature="0" />
    <path
       style="opacity:1;fill:#446b56;fill-opacity:1;fill-rule:nonzero;stroke:none;stroke-width:1.05785561;stroke-miterlimit:4;stroke-dasharray:none;stroke-opacity:1"
       d="m -32.034269,-29.670776 c 0.4123,-1.27844 0.9437,-3.18799 0.9437,-3.39116 0,-0.49988 2.1706,-7.269085 2.5866,-8.066672 0.1522,-0.291862 0.2773,-0.599625 0.278,-0.683895 0,-0.287787 1.5377,-3.233102 2.2476,-4.311306 0.9907,-1.504659 0.9494,-1.454203 2.4343,-2.978891 1.3575,-1.393851 3.046,-2.530025 4.4075,-2.965794 0.413,-0.132159 0.8326,-0.315912 0.9324,-0.408278 0.1,-0.09239 0.4008,-0.166079 0.6687,-0.163777 0.4162,0.0037 0.3712,0.05686 -0.3093,0.365813 -1.2227,0.555149 -3.4577,2.130134 -4.8825,3.440641 -2.5426,2.338626 -4.4782,5.486877 -6.1733,10.040594 -0.6806,1.828377 -2.2849,7.897445 -2.1289,8.053465 0.1453,0.14528 6.7418,-6.207705 8.2843,-7.978509 4.2924,-4.927732 7.675,-9.899041 8.3835,-12.321037 0.334,-1.14165 0.2371,-1.516036 -0.4582,-1.770697 l -0.509,-0.186399 0.5255,-0.01508 c 0.7504,-0.0217 0.6405,-0.416427 -0.2702,-0.970359 -0.4318,-0.262678 -1.3785,-1.036452 -2.1036,-1.719448 l -1.3184,-1.241848 1.4443,-1.024758 1.4443,-1.024731 1.1898,0.425582 c 0.6545,0.234051 1.4478,0.538057 1.7631,0.675561 0.3152,0.137504 0.93,0.360918 1.3661,0.496464 0.5893,0.183171 0.7319,0.297392 0.5552,0.444712 -0.1308,0.109008 -0.5199,0.929005 -0.8647,1.822159 -2.6857,6.95698 -7.0785,13.391409 -14.1189,20.680938 -1.6468,1.70516 -5.9806,5.30212 -6.3882,5.30212 -0.054,0 -0.023,-0.23643 0.07,-0.52541 z"
       id="path21752"
       inkscape:connector-curvature="0" />
    <path
       style="opacity:1;fill:#446b56;fill-opacity:1;fill-rule:nonzero;stroke:none;stroke-width:1.05785561;stroke-miterlimit:4;stroke-dasharray:none;stroke-opacity:1"
       d="m -11.412269,-47.822831 c 0,-0.115014 0.2088,-0.989171 0.4639,-1.942597 0.6074,-2.269463 0.7925,-3.744013 0.4933,-3.928957 -0.2642,-0.163274 -1.548,1.018355 -2.1373,1.967178 -0.596,0.95967 -0.6295,0.592269 -0.06,-0.660903 0.2788,-0.614019 0.5763,-1.288309 0.6609,-1.498468 1.3312,-3.306921 1.2938,-3.268901 2.6181,-2.662184 0.3331,0.152611 0.8722,0.330782 1.198,0.395948 0.3258,0.06517 0.6387,0.193358 0.6952,0.284851 0.057,0.09152 0.2697,0.166396 0.4737,0.166396 0.2039,0 0.3708,0.117264 0.3708,0.260615 0,0.319537 -1.4798,0.905616 -2.6077,1.032722 -0.8544,0.09633 -1.0411,0.363431 -0.5924,0.847486 0.1313,0.141685 0.43,0.528135 0.6636,0.858785 l 0.4248,0.60116 -1.2285,2.139712 c -1.3047,2.272559 -1.4361,2.468165 -1.4361,2.138256 z"
       id="path21754"
       inkscape:connector-curvature="0" />
    <path
       style="opacity:1;fill:#446b56;fill-opacity:1;fill-rule:nonzero;stroke:none;stroke-width:1.05785561;stroke-miterlimit:4;stroke-dasharray:none;stroke-opacity:1"
       d="m -18.982569,-57.499781 c -0.8662,-1.349295 -1.0697,-2.031603 -0.995,-3.336158 0.062,-1.088839 0.1768,-1.42277 0.8184,-2.387652 l 0.746,-1.121754 0.969,0.120755 c 0.533,0.06644 1.3989,0.199576 1.9243,0.29591 0.5254,0.09631 1.9225,0.236988 3.1046,0.312579 1.1821,0.07562 2.1493,0.200131 2.1493,0.276701 0,0.120306 -4.2075,2.60784 -5.8094,3.434557 -0.6727,0.347212 -0.6799,0.647276 -0.017,0.729853 0.4509,0.0562 0.4055,0.118242 -0.572,0.781685 -0.584,0.396372 -1.2592,0.892281 -1.5004,1.102069 l -0.4387,0.381397 z"
       id="path21756"
       inkscape:connector-curvature="0" />
    <path
       style="opacity:1;fill:#264636;fill-opacity:1;fill-rule:nonzero;stroke:none;stroke-width:1.05785561;stroke-miterlimit:4;stroke-dasharray:none;stroke-opacity:1"
       d="m -22.402069,-19.120856 c 0.9342,-0.98909 2.2743,-2.90947 3.0623,-4.38849 1.2446,-2.33598 3.049,-7.3003 4.479,-12.322833 0.2244,-0.788087 0.5315,-1.862772 0.6825,-2.388155 0.151,-0.525383 0.4549,-1.600068 0.6755,-2.388156 0.6713,-2.399056 1.7264,-5.376677 2.3695,-6.686814 1.0702,-2.180246 2.4324,-4.413806 2.648,-4.341919 0.1149,0.03829 0.3416,0.291783 0.5037,0.563325 2.3415,3.921072 4.1968,8.136096 4.8747,11.07432 0.4907,2.127144 0.724,2.410275 0.9545,1.15832 0.282,-1.53207 2.15949995,-4.910032 4.0613,-7.307104 2.5676,-3.236092 6.7373,-6.30256 11.0379,-8.117311 1.2047,-0.508344 3.4095,-1.24206 3.7368,-1.243515 0.1638,0 0.4519,-0.113983 0.6402,-0.251672 0.3191,-0.233389 0.2949,-0.299191 -0.3582,-0.971682 -0.3853,-0.396716 -1.3014,-1.531355 -2.0358,-2.5214 -0.7344,-0.990071 -1.5549,-2.035863 -1.8233,-2.323994 l -0.4879,-0.523875 1.2149,-0.161422 c 0.6682,-0.08877 2.2036,-0.355018 3.412,-0.591688 2.484,-0.486489 2.4991,-0.483976 4.3579,0.729403 1.5945,1.040871 2.8674,2.279677 3.5643,3.468899 0.7125,1.215787 0.7593,2.883165 0.1155,4.118319 -0.886,1.699948 -1.2651,2.063195 -5.4585,5.230337 -0.3498,0.264213 -0.2772,0.279479 0.8597,0.180789 2.4328,-0.211163 5.1754,0.706808 7.0741,2.367757 1.7096,1.495478 3.562,4.526597 4.5763,7.48829 0.2339,0.683022 0.4981,1.413801 0.587,1.62396 0.1831,0.432858 0.6727,2.306002 1.0493,4.014891 0.1393,0.63204 0.3448,1.38988 0.4567,1.68415 0.2503,0.65829 0.2677,1.09858 0.029,0.72086 -0.1405,-0.22177 -0.3096,-0.22714 -1.0001,-0.0318 -0.4571,0.1293 -1.7674,0.44326 -2.9116,0.69766 -1.1443,0.25439 -3.1217,0.76623 -4.3942,1.13741 -10.3616,3.02242 -20.2078,5.43118 -33.1686,8.11443 -4.1013,0.84907 -13.469,2.6453 -15.4238,2.95746 l -0.8083,0.12906 z"
       id="path21758"
       inkscape:connector-curvature="0" />
    <path
       style="opacity:1;fill:#264636;fill-opacity:1;fill-rule:nonzero;stroke:none;stroke-width:1.05785561;stroke-miterlimit:4;stroke-dasharray:none;stroke-opacity:1"
       d="m 44.183831,-35.565267 c 0,-0.433943 2.5971,-5.176097 3.5712,-6.520841 l 0.5572,-0.769197 0.5628,0.391107 c 0.9309,0.646959 2.0087,1.725031 2.322,2.322592 0.2844,0.542449 0.2763,0.577215 -0.2273,0.978773 -0.7486,0.596927 -3.1847,2.023004 -5.0087,2.932139 -1.606,0.800418 -1.7772,0.864526 -1.7772,0.665427 z"
       id="path21760"
       inkscape:connector-curvature="0" />
    <path
       style="opacity:1;fill:#345544;fill-opacity:1;fill-rule:nonzero;stroke:none;stroke-width:1.05785561;stroke-miterlimit:4;stroke-dasharray:none;stroke-opacity:1"
       d="m 36.923831,-20.764346 c 0,-1.07997 0.051,-1.33757 0.2293,-1.15927 0.3797,0.37976 1.4256,0.27112 1.9314,-0.20061 0.6627,-0.61804 1.1289,-1.62771 2.0509,-4.44195 3.1118,-9.498174 2.6451,-8.534377 4.5874,-9.472827 2.0238,-0.9779 4.9861,-2.736744 5.4238,-3.220429 0.4851,-0.53602 0.262,-0.964698 -1.2391,-2.380774 -0.7313,-0.689769 -1.3293,-1.320139 -1.3289,-1.40081 0,-0.148325 2.07,-2.345399 2.7955,-2.967884 0.3854,-0.330676 0.4084,-0.315092 1.129,0.764196 0.7393,1.107466 3.1948,5.843085 4.1374,7.979622 1.1292,2.559316 1.683,3.978436 1.5892,4.072256 -0.054,0.0545 -0.099,0.043 -0.099,-0.0254 0,-0.16634 -7.3805,3.60749 -9.075,4.64021 -3.7229,2.26904 -7.8298,5.29889 -10.6453,7.85352 l -1.4865,1.34879 z"
       id="path21762"
       inkscape:connector-curvature="0" />
    <path
       style="opacity:1;fill:#345544;fill-opacity:1;fill-rule:nonzero;stroke:none;stroke-width:4.23142242;stroke-miterlimit:4;stroke-dasharray:none;stroke-opacity:1"
       d="m 70.146031,-38.560482 c 1.6015,-6.551401 4.7872,-12.527915 6.6601,-12.494657 0.4968,0.0087 3.9804,3.3206 7.7414,7.359517 3.7611,4.038918 6.1683,7.142745 5.3495,6.89737 -2.5279,-0.757475 -15.8872,-0.925406 -18.148,-0.22815 -2.0645,0.63672 -2.1206,0.583089 -1.603,-1.53408 z"
       id="path21764"
       inkscape:connector-curvature="0" />
    <path
       style="opacity:1;fill:#345544;fill-opacity:1;fill-rule:nonzero;stroke:none;stroke-width:4.23142242;stroke-miterlimit:4;stroke-dasharray:none;stroke-opacity:1"
       d="m 78.530831,-58.62262 -2.9996,-1.324398 2.5054,-1.784032 c 2.0532,-1.462009 2.627,-1.592078 3.1789,-0.720487 0.3705,0.584967 0.6788,1.465289 0.6852,1.956329 0.01,0.491014 0.2205,1.436714 0.4756,2.101559 0.5723,1.491271 -0.031,1.455367 -3.8455,-0.228971 z"
       id="path21766"
       inkscape:connector-curvature="0" />
    <path
       style="opacity:1;fill:#345544;fill-opacity:1;fill-rule:nonzero;stroke:none;stroke-width:4.23142242;stroke-miterlimit:4;stroke-dasharray:none;stroke-opacity:1"
       d="m 90.127731,-55.448916 c -1.5762,-0.164862 -2.8658,-0.506545 -2.8658,-0.759275 0,-0.25273 1.2751,-2.639219 2.8335,-5.303335 2.3396,-3.999547 3.1832,-4.843806 4.84,-4.843806 2.5111,0 3.2614,0.7053 2.161,2.031259 -0.6279,0.756603 -0.6212,1.025578 0.025,1.025578 0.9467,0 1.8567,1.98665 2.7127,5.922619 l 0.540199,2.48367 -3.690699,-0.128482 c -2.0299,-0.07064 -4.9803,-0.263366 -6.5565,-0.428228 z"
       id="path21768"
       inkscape:connector-curvature="0" />
    <path
       style="opacity:1;fill:#345544;fill-opacity:1;fill-rule:nonzero;stroke:none;stroke-width:4.23142242;stroke-miterlimit:4;stroke-dasharray:none;stroke-opacity:1"
       d="m 138.46383,-59.567341 c -8.5568,-6.427205 -10.5954,-7.720965 -13.1674,-8.356256 -1.5468,-0.382058 -0.1696,-0.456089 3.6148,-0.19431 l 6.1137,0.422963 -3.0569,-3.199368 c -1.6812,-1.759638 -4.2168,-3.91967 -5.6345,-4.800071 l -2.5777,-1.600729 1.8135,-0.925222 c 0.9974,-0.508899 3.0662,-1.151149 4.5974,-1.427241 2.6002,-0.468895 2.9883,-0.26969 5.8837,3.019636 l 3.0999,3.521631 3.4993,-2.407603 c 4.346,-2.990135 8.0425,-3.722819 9.819,-1.946248 1.9506,1.950614 1.5387,3.283347 -1.2043,3.896545 l -2.4837,0.555228 3.0568,1.318684 3.0568,1.318656 -2.1553,1.008724 c -2.1479,1.005232 -2.1498,1.012931 -0.5633,2.209642 1.5633,1.179195 1.4987,1.292278 -3.5762,6.258665 l -5.1683,5.057749 z"
       id="path21770"
       inkscape:connector-curvature="0" />
    <path
       style="opacity:1;fill:#5d8574;fill-opacity:1;fill-rule:nonzero;stroke:none;stroke-width:4.23142242;stroke-miterlimit:4;stroke-dasharray:none;stroke-opacity:1"
       d="m 187.37313,-13.380936 c -7.6683,-1.25219 -16.046,-3.28604 -30.7723,-7.47059 -9.3449,-2.65541 -19.0541,-5.27023 -21.5759,-5.81072 l -4.5853,-0.98275 3.439,-0.6627 c 1.8914,-0.36446 9.9968,-0.56292 18.0121,-0.44103 l 14.5732,0.22167 -1.4559,-2.46629 c -1.6974,-2.87547 -7.1213,-8.598429 -12.0243,-12.687353 -2.8332,-2.362809 -3.1024,-2.789714 -1.5284,-2.42398 3.8004,0.883099 18.8364,8.865843 23.6904,12.577443 2.7321,2.08905 5.2195,3.8108 5.5277,3.82606 0.3081,0.0154 1.4677,-1.76297 2.5768,-3.95168 l 2.0166,-3.979495 1.4409,2.808764 c 3.2209,6.278091 5.7774,22.103421 3.5312,21.858711 -0.5255,-0.0572 -1.815,-0.24447 -2.8658,-0.41606 z"
       id="path21772"
       inkscape:connector-curvature="0" />
    <path
       style="opacity:1;fill:#345544;fill-opacity:1;fill-rule:nonzero;stroke:none;stroke-width:4.23142242;stroke-miterlimit:4;stroke-dasharray:none;stroke-opacity:1"
       d="m 192.39553,-17.063936 c 0.6289,-4.39454 4.7001,-18.805866 7.336,-25.967449 3.4253,-9.306772 9.1195,-22.561815 9.6842,-22.543188 0.2758,0.009 1.0173,1.126754 1.6478,2.48367 2.2024,4.74009 3.5213,3.245406 6.1193,-6.934729 1.0068,-3.945149 3.1267,-6.264381 5.7259,-6.264381 2.631,0 2.3931,-1.239626 -0.5276,-2.75 -2.3107,-1.194911 -2.363,-1.315773 -1.0003,-2.312246 2.1583,-1.578187 3.5573,-1.2963 6.7896,1.368001 l 2.9351,2.419403 -2.4925,1.288918 -2.4924,1.288918 3.0225,1.698757 c 3.6438,2.047954 4.8558,3.827674 5.9898,8.795411 0.4737,2.075154 1.2332,3.896995 1.6877,4.048522 0.4546,0.151501 1.792,-2.185405 2.9721,-5.193162 1.18,-3.007757 2.5064,-5.5685 2.9476,-5.690579 0.4411,-0.122079 6.2328,-1.93847 12.8703,-4.036457 l 12.0684,-3.814498 0.9732,2.385298 0.9733,2.385272 4.3427,-4.107074 c 3.9435,-3.729567 5.0276,-4.298818 11.7951,-6.192838 8.5249,-2.385853 18.3373,-4.259924 18.9735,-3.623733 0.2373,0.237331 -1.5113,4.069662 -3.8858,8.516276 -4.127,7.728188 -4.4579,8.121518 -7.5047,8.918628 -19.5877,5.124715 -55.7116,22.274239 -77.4786,36.7824 -8.3589,5.57139 -20.5686,15.46529 -22.644,18.34909 -1.2451,1.73011 -1.2585,1.70908 -0.8282,-1.29823 z"
       id="path21774"
       inkscape:connector-curvature="0" />
    <path
       style="opacity:1;fill:#264636;fill-opacity:1;fill-rule:nonzero;stroke:none;stroke-width:4.23142242;stroke-miterlimit:4;stroke-dasharray:none;stroke-opacity:1"
       d="m 243.49733,-72.87538 c 0.8159,-0.617114 1.8216,-1.122018 2.2348,-1.122018 0.4133,0 -0.056,-0.859737 -1.0435,-1.91053 -0.9871,-1.050766 -1.4283,-1.910503 -0.9802,-1.910503 0.448,0 1.0233,-0.831956 1.2786,-1.848803 0.3503,-1.395942 1.4219,-2.166964 4.3749,-3.147801 3.981,-1.322281 3.9914,-2.607971 0.021,-2.633768 -1.4231,-0.0093 -1.6807,-0.292497 -1.2269,-1.349084 0.3159,-0.735542 0.5983,-1.939158 0.6276,-2.674726 0.082,-2.055786 1.2386,-1.609249 3.9591,1.528419 l 2.4848,2.865781 0.5487,-3.629977 c 0.3018,-1.996493 0.7868,-3.629978 1.0777,-3.629978 0.9167,0 5.3258,3.50565 6.8194,5.422001 1.8474,2.370296 4.148,6.85329 3.731,7.270273 -0.3616,0.361606 -24.3121,7.955122 -24.9708,7.917022 -0.2309,-0.01349 0.2476,-0.52922 1.0635,-1.146308 z"
       id="path21776"
       inkscape:connector-curvature="0" />
    <path
       style="opacity:1;fill:#264636;fill-opacity:1;fill-rule:nonzero;stroke:none;stroke-width:4.23142242;stroke-miterlimit:4;stroke-dasharray:none;stroke-opacity:1"
       d="m 282.75593,-86.160426 c 7.7307,-6.614769 16.4899,-8.515192 20.5494,-4.458494 l 2.1031,2.101585 h -2.7669 c -1.5218,0 -6.8443,1.030738 -11.8279,2.290551 -4.9835,1.259814 -9.4048,2.277533 -9.8251,2.261579 -0.4203,-0.01588 0.375,-1.003803 1.7674,-2.195221 z"
       id="path21778"
       inkscape:connector-curvature="0" />
    <path
       style="opacity:1;fill:#264636;fill-opacity:1;fill-rule:nonzero;stroke:none;stroke-width:4.23142242;stroke-miterlimit:4;stroke-dasharray:none;stroke-opacity:1"
       d="m 301.07553,-79.938405 4.3312,-8.376841 1.1645,2.617735 1.1645,2.617734 3.0209,-3.10089 c 3.3168,-3.404658 4.2331,-3.784812 4.2508,-1.763527 0.01,0.735568 0.3148,1.815967 0.6852,2.400908 0.4717,0.744908 0.9594,-0.214286 1.628,-3.201643 0.9229,-4.12422 1.0834,-4.320911 4.8553,-5.95175 4.2545,-1.839462 10.7609,-3.731921 12.8803,-3.746288 1.2054,-0.0082 1.3373,0.969328 1.3373,9.911054 0,9.672822 -0.043,9.929018 -1.7195,10.275384 -0.9457,0.195395 -5.8461,0.917364 -10.8899,1.604407 -8.0948,1.102625 -19.4513,3.185981 -25.1133,4.607031 -1.849,0.464079 -1.7522,0.146447 2.4047,-7.893314 z"
       id="path21780"
       inkscape:connector-curvature="0" />
    <path
       style="opacity:1;fill:#264636;fill-opacity:1;fill-rule:nonzero;stroke:none;stroke-width:1.05785561;stroke-miterlimit:4;stroke-dasharray:none;stroke-opacity:1"
       d="m 244.93713,-85.864093 c -0.8631,-0.178409 -1.6223,-0.377375 -1.6871,-0.442172 -0.4968,-0.496781 2.3797,-2.750158 4.6694,-3.657785 l 0.8396,-0.332872 -0.1074,1.041267 c -0.059,0.572691 -0.2546,1.544188 -0.4343,2.158868 -0.1798,0.614707 -0.3561,1.225074 -0.3919,1.35644 -0.085,0.313398 -0.9531,0.276225 -2.8883,-0.123746 z"
       id="path21782"
       inkscape:connector-curvature="0" />
  </g>
</svg>
