<?xml version="1.0" encoding="UTF-8" standalone="no"?>
<!-- Created with Inkscape (http://www.inkscape.org/) -->

<svg
   xmlns:dc="http://purl.org/dc/elements/1.1/"
   xmlns:cc="http://creativecommons.org/ns#"
   xmlns:rdf="http://www.w3.org/1999/02/22-rdf-syntax-ns#"
   xmlns:svg="http://www.w3.org/2000/svg"
   xmlns="http://www.w3.org/2000/svg"
   xmlns:sodipodi="http://sodipodi.sourceforge.net/DTD/sodipodi-0.dtd"
   xmlns:inkscape="http://www.inkscape.org/namespaces/inkscape"
   width="1411.8485mm"
   height="159.93419mm"
   viewBox="0 0 1411.8485 159.93419"
   version="1.1"
   id="svg27604"
   inkscape:version="0.92.4 (5da689c313, 2019-01-14)"
   sodipodi:docname="lake9.svg">
  <defs
     id="defs27598" />
  <sodipodi:namedview
     id="base"
     pagecolor="#ffffff"
     bordercolor="#666666"
     borderopacity="1.0"
     inkscape:pageopacity="0.0"
     inkscape:pageshadow="2"
     inkscape:zoom="0.175"
     inkscape:cx="3281.0092"
     inkscape:cy="-115.25756"
     inkscape:document-units="mm"
     inkscape:current-layer="layer1"
     showgrid="false"
     inkscape:window-width="1858"
     inkscape:window-height="1057"
     inkscape:window-x="54"
     inkscape:window-y="-8"
     inkscape:window-maximized="1" />
  <metadata
     id="metadata27601">
    <rdf:RDF>
      <cc:Work
         rdf:about="">
        <dc:format>image/svg+xml</dc:format>
        <dc:type
           rdf:resource="http://purl.org/dc/dcmitype/StillImage" />
        <dc:title></dc:title>
      </cc:Work>
    </rdf:RDF>
  </metadata>
  <g
     inkscape:label="Calque 1"
     inkscape:groupmode="layer"
     id="layer1"
     transform="translate(690.04928,49.818283)">
    <path
       style="opacity:1;fill:#293b1b;fill-opacity:1;fill-rule:nonzero;stroke:none;stroke-width:2.99206734;stroke-miterlimit:4;stroke-dasharray:none;stroke-opacity:1"
       d="m -628.77653,49.111844 c -2.47323,-1.08118 -1.79752,-3.493662 2.09474,-7.478888 1.23367,-1.263128 2.10847,-2.296599 1.944,-2.296599 -0.16446,0 0.62088,-0.96702 1.74521,-2.148935 4.33111,-4.552942 6.79057,-11.973256 8.68613,-26.206492 0.63436,-4.7631914 1.30931,-8.8407564 1.49991,-9.0612604 0.19059,-0.220501 2.00586,2.69753 4.03392,6.484517 4.93757,9.2198514 8.75607,14.9997114 12.15553,18.3991754 4.00865,4.008649 6.53049,5.205759 10.93504,5.190832 l 3.5871,-0.01215 -0.78681,2.7315 c -1.61341,5.601132 -5.48583,10.030265 -8.76389,10.023811 -1.9128,-0.0038 -5.11446,-2.028536 -6.83216,-4.320751 -1.69019,-2.255499 -4.97992,-8.730718 -6.72592,-13.23871 -0.69067,-1.783242 -1.41225,-3.424495 -1.6035,-3.647229 -0.19125,-0.222734 -1.16239,2.452129 -2.15808,5.94414 -3.05528,10.715255 -6.51208,18.511774 -8.56102,19.308633 -1.56494,0.608623 -10.04306,0.856112 -11.2502,0.328409 z"
       id="path27325"
       inkscape:connector-curvature="0" />
    <path
       style="opacity:1;fill:#293b1b;fill-opacity:1;fill-rule:nonzero;stroke:none;stroke-width:2.99206734;stroke-miterlimit:4;stroke-dasharray:none;stroke-opacity:1"
       d="m -579.54236,31.843323 c -2.27331,-0.302011 -2.50339,-0.429488 -1.45053,-0.803651 6.12008,-2.174941 11.64083,-14.179812 13.39335,-29.1238514 l 0.36432,-3.106643 1.71804,4.260959 c 0.94492,2.343528 2.71297,5.847778 3.929,7.7872274 l 2.21096,3.526266 -1.17374,1.102672 c -1.75721,1.650818 -4.86995,2.775382 -7.68212,2.775382 h -2.50503 l 1.67711,1.910119 c 1.87475,2.135227 2.20418,4.545582 0.78231,5.724075 -0.5376,0.445588 -1.98975,0.70724 -3.63779,0.655466 l -2.743,-0.08617 2.82723,1.70244 c 1.55497,0.936344 2.82722,1.828511 2.82722,1.982597 0,0.154085 -0.51609,0.602456 -1.14686,0.996384 -1.38627,0.865737 -5.70588,1.186233 -9.39047,0.696727 z"
       id="path27327"
       inkscape:connector-curvature="0" />
    <path
       style="opacity:1;fill:#293b1b;fill-opacity:1;fill-rule:nonzero;stroke:none;stroke-width:2.99206734;stroke-miterlimit:4;stroke-dasharray:none;stroke-opacity:1"
       d="m -219.58815,79.824017 c -5.82441,-1.42324 -13.60662,-7.67643 -18.90744,-15.19256 -3.30976,-4.69296 -6.94786,-11.97815 -8.75321,-17.528039 l -1.436,-4.414512 -2.27153,3.319304 c -4.4886,6.559117 -10.72703,10.055917 -16.6819,9.350657 -5.19576,-0.61537 -12.11183,-4.89891 -10.94857,-6.78113 0.18116,-0.293105 1.47876,-0.69963 2.88357,-0.903396 5.04441,-0.731681 5.02187,-1.02104 -0.38063,-4.885801 -5.70204,-4.07902 -6.51008,-5.560473 -4.14335,-7.596248 l 1.46132,-1.256964 -1.3157,-1.75759 c -1.88552,-2.518823 -3.00021,-4.877343 -4.74593,-10.041919 -1.49797,-4.431549 -2.34543,-6.035641 -3.18868,-6.035641 -0.22815,0 -1.45283,2.492486 -2.72148,5.538856 -1.26865,3.046373 -3.39741,7.204988 -4.73059,9.24137 -2.60384,3.97724 -2.62353,3.789021 0.57817,5.522224 1.77633,0.961599 1.57564,1.5322 -1.74512,4.961999 -2.92171,3.017649 -4.46254,3.983995 -7.1303,4.471828 -4.93681,0.902764 -9.15379,-2.140868 -12.972,-9.362659 -2.28576,-4.323287 -2.34698,-4.385911 -2.48459,-2.541201 -0.94001,12.599757 -3.8825,22.050602 -7.79439,25.034342 -2.42213,1.84743 -5.56567,3.13815 -6.63948,2.72609 -0.8786,-0.33716 -2.16786,-2.28153 -1.77398,-2.6754 0.12105,-0.12105 1.53898,-0.46729 3.15095,-0.76941 5.51511,-1.03369 7.47541,-3.92334 3.47123,-5.11689 -3.22456,-0.96117 -5.56088,-2.3125 -6.5146,-3.768079 -0.77562,-1.183764 -0.77359,-1.447882 0.0233,-2.988625 0.4807,-0.92956 1.22603,-1.825196 1.6563,-1.990309 1.10847,-0.425358 0.97144,-0.925317 -0.42273,-1.542466 -1.64322,-0.727395 -3.85379,-5.357085 -5.77953,-12.10447 -1.68431,-5.901423 -2.90155,-8.063296 -3.48332,-6.18653 -0.17148,0.553252 -0.6794,2.768502 -1.12866,4.922777 -0.44929,2.154277 -1.14821,4.707554 -1.55316,5.673952 -0.94953,2.265947 -3.40116,5.163304 -5.39496,6.375813 l -1.5689,0.954098 2.21716,1.26641 c 1.21946,0.696523 2.21903,1.440325 2.22134,1.652886 0.0127,1.171152 -5.02021,6.050483 -7.75298,7.516523 l -1.63682,0.87812 1.70735,0.8829 c 0.93904,0.4856 2.58205,1.06465 3.65115,1.28677 l 1.94379,0.40386 -1.26598,1.88794 c -1.64156,2.44807 -6.44573,5.09359 -8.37187,4.61014 -0.77033,-0.19333 -2.89417,-1.85761 -4.71966,-3.69837 -4.92535,-4.96658 -7.98947,-11.473617 -12.5177,-26.583014 l -1.45754,-4.863385 -0.9982,7.769151 c -2.47406,19.256368 -6.8821,34.019018 -11.16343,37.386708 -4.02275,3.16429 -8.96731,-1.28476 -6.90729,-6.21508 l 0.77999,-1.86675 -2.25218,-0.16422 c -2.76167,-0.20138 -3.21416,-1.42222 -1.25373,-3.38265 l 1.35236,-1.35236 -1.99064,-0.5366 c -5.26505,-1.41921 -11.1914,-6.81712 -12.61645,-11.491486 -0.33681,-1.104794 -0.80031,-1.892567 -1.03002,-1.750605 -0.22971,0.141963 -1.0605,2.188433 -1.84621,4.547711 -1.81888,5.4616 -3.23866,7.57419 -6.04467,8.99423 l -2.24592,1.1366 2.19221,1.84266 c 1.81668,1.52702 2.12381,2.05814 1.79292,3.10065 -0.45738,1.44116 -2.67872,2.50918 -6.36155,3.05864 -2.31595,0.34554 -2.50172,0.47873 -1.99308,1.42909 1.33628,2.49685 -0.55219,5.72323 -2.61292,4.46408 -3.31438,-2.0252 -12.7308,-18.48736 -14.33055,-25.053266 l -0.71652,-2.940801 -1.25624,4.832117 c -3.43918,13.22859 -5.6829,18.07134 -8.37274,18.07134 -1.91442,0 -3.77306,-2.3839 -3.80304,-4.87778 -0.0249,-2.06145 -0.0945,-2.14376 -1.8175,-2.1454 -4.26479,-0.004 -6.31873,-3.40514 -4.66267,-7.72075 0.21987,-0.573 -0.22074,-0.89315 -1.58028,-1.14821 -1.03682,-0.1945 -2.44964,-0.83223 -3.13955,-1.41715 l -1.25441,-1.0635 1.29238,-1.094264 c 0.71083,-0.60185 1.19716,-1.167543 1.08077,-1.257104 -0.11641,-0.08956 -1.06275,-0.675362 -2.10296,-1.301777 -2.58146,-1.554551 -5.17379,-4.327101 -6.39686,-6.841569 l -1.01822,-2.093375 -0.39039,2.080995 c -0.55854,2.977161 -2.21758,5.97126 -4.06599,7.337833 -1.84935,1.367292 -1.70764,1.89952 0.6698,2.515571 l 1.71415,0.44419 -2.65784,2.84144 c -1.54131,1.6478 -3.29409,2.9687 -4.17246,3.14437 -2.18371,0.43674 -1.86399,1.11347 0.78198,1.65504 l 2.29661,0.47007 -2.23303,2.26362 c -2.04414,2.07214 -2.46695,2.26362 -4.99848,2.26362 h -2.76545 l 1.08074,1.08074 c 2.62985,2.62986 0.18759,8.41775 -3.96949,9.40729 -2.36045,0.5619 -7.10896,-1.06103 -9.54566,-3.26245 -4.82024,-4.35477 -7.51055,-14.41091 -8.41526,-31.455308 l -0.38259,-7.207864 -1.46047,2.344476 c -2.18806,3.512516 -5.61764,6.397305 -7.60543,6.397305 -2.48875,0 -3.55539,-0.816888 -4.58419,-3.510788 -1.24087,-3.249168 -0.80788,-7.11604 1.29198,-11.538225 0.89604,-1.887011 1.93014,-5.115105 2.29802,-7.17355 l 0.66884,-3.742619 1.41972,2.580346 c 4.25861,7.739944 10.39413,15.950978 16.95855,22.695305 5.91987,6.082086 8.85862,8.273505 9.57554,7.140477 1.486,-2.348481 0.24328,-4.323646 -4.70734,-7.48185 l -4.0654,-2.593491 4.50538,-0.294629 c 2.93007,-0.191612 5.45007,-0.712412 7.20725,-1.489488 2.63779,-1.166522 2.66983,-1.208238 1.35093,-1.758617 -4.99972,-2.086409 -6.96563,-3.10566 -8.51093,-4.412625 -2.55399,-2.160075 -2.31113,-3.010406 0.85979,-3.010406 3.38815,0 7.44035,-1.23471 9.06677,-2.762662 0.70744,-0.664597 1.28625,-1.386039 1.28625,-1.603193 0,-0.217162 -1.09427,-1.036119 -2.43168,-1.819902 -1.33744,-0.783788 -2.43171,-1.618956 -2.43171,-1.855928 0,-0.236971 0.61082,-0.709157 1.35737,-1.049308 1.8153,-0.827109 4.18385,-4.675865 5.9895,-9.7326134 3.15489,-8.835411 3.55206,-9.816336 3.97431,-9.816336 0.74004,0 1.61187,2.73599001 2.70068,8.475218 1.50598,7.9382864 2.74526,9.8755844 6.34182,9.9137004 1.52136,0.01611 1.52125,0.01638 -0.86034,2.075079 -2.67034,2.30826 -2.61266,2.810156 0.50572,4.401034 1.66317,0.848487 3.18209,1.073031 7.25842,1.073031 2.8353,0 5.15509,0.147381 5.15509,0.327523 0,0.180133 -0.79028,1.325882 -1.7562,2.546106 l -1.75622,2.21859 2.38337,-1.330259 c 1.31087,-0.73165 3.12152,-2.248517 4.02367,-3.370821 1.62097,-2.016532 1.62791,-2.05237 0.58867,-3.044571 -0.57837,-0.552214 -2.75378,-1.548638 -4.83422,-2.214277 -4.90078,-1.56801 -7.03779,-2.892104 -8.96787,-5.556522 -1.83817,-2.537521 -1.98678,-3.6255514 -0.49517,-3.6255514 2.24092,0 11.33176,-3.326519 14.13388,-5.171877 3.5845,-2.360578 5.32612,-4.77712099 5.32612,-7.390132 0,-2.904279 -0.78031,-4.477065 -3.81127,-7.6818436 -2.83528,-2.997896 -2.84977,-3.147237 -0.36301,-3.741894 0.82481,-0.197239 2.4851,-1.248897 3.68951,-2.337022 3.85866,-3.486055 6.10656,-9.336216 8.36533,-21.770717 1.49291,-8.218388 2.04536,-9.927249 3.09864,-9.584614 1.0889,0.354219 1.83478,2.548766 3.62498,10.665365 3.29578,14.9426 6.00213,21.356211 10.19794,24.167454 1.00989,0.676626 2.46891,1.23485 3.24226,1.240496 1.24849,0.0091 1.10725,0.197887 -1.25968,1.683763 -1.46622,0.9204246 -3.35053,1.9121806 -4.18738,2.2039046 -1.50079,0.523185 -1.50937,0.550995 -0.62886,2.041584 0.99086,1.677371 2.7649,2.166281 7.75224,2.13646 3.27672,-0.01961 6.54604,-0.990632 8.11463,-2.410169 0.9852,-0.891601 0.93533,-0.986981 -1.53922,-2.942995 -2.38606,-1.8860686 -7.1158,-7.0635356 -7.1158,-7.7893966 0,-0.177869 1.76299,-0.176694 3.91773,0.0026 4.37719,0.364236 7.86617,-0.347456 10.34039,-2.109272 l 1.56922,-1.117364 -2.34812,-2.002277 -2.3481,-2.002276 1.70132,-0.373676 c 3.74748,-0.823074 5.97776,-4.752358 7.2249,-12.728829 0.34851,-2.229051 0.82521,-4.417576 1.05934,-4.863386 0.51898,-0.988221 0.41137,-1.301416 2.3074,6.715745 1.32901,5.619527 3.7232,10.826697 4.91721,10.694511 0.28154,-0.03117 1.02891,-1.848009 1.66076,-4.037425 2.01374,-6.977478 2.36842,-6.867375 4.29112,1.332129 2.08952,8.910914 4.38639,13.394604 6.86168,13.394604 0.75506,0 0.54395,0.40123 -0.92398,1.756223 l -1.90259,1.756224 2.496,2.8406246 c 1.37281,1.562344 3.61492,3.49635 4.98247,4.297791 l 2.48647,1.457164 -1.8561,0.778073 c -1.02084,0.42794001 -2.56741,0.93187901 -3.43681,1.11986301 -0.86939,0.187983 -1.67235,0.616637 -1.78432,0.952566 -0.28054,0.84165999 2.9055,4.36933699 4.85817,5.37911599 1.55607,0.80467 1.65569,0.777725 3.40937,-0.921988 3.28589,-3.184824 6.99492,-11.681756 8.28538,-18.9808826 0.29927,-1.692719 0.7127,-5.897144 0.91871,-9.34317 l 0.3746,-6.265499 1.9458,3.55791 c 5.88883,10.767718 15.0918,18.6408766 21.78939,18.6408766 4.68757,0 8.79318,-4.0922016 10.95893,-10.9231246 l 1.18113,-3.725331 1.79692,5.023358 c 3.72816,10.4224006 9.01324,21.3655436 12.82919,26.5639416 1.69344,2.3069104 2.02465,2.5338204 2.58326,1.7698754 0.91427,-1.250373 1.08492,-1.130575 1.80284,1.265653 1.29805,4.332443 4.96663,5.078963 8.20907,1.670447 2.81922,-2.963617 5.91042,-12.0184424 5.91042,-17.3129424 0,-3.544451 0.72734,-3.420224 1.74596,0.298204 2.1213,7.743764 5.96911,13.5106754 10.56624,15.8361724 2.66745,1.349341 6.99815,2.229549 10.9696,2.229549 3.84911,0 3.86345,-0.07451 -1.12109,5.822749 l -3.32298,3.931433 2.57662,1.139746 c 2.18924,0.968412 3.23781,1.093083 6.97521,0.829336 l 4.39859,-0.31042 -2.12643,4.058087 c -1.16954,2.231943 -2.00139,4.183126 -1.84854,4.335968 0.15283,0.152839 1.28455,0.412916 2.51492,0.577942 1.99319,0.267341 2.27195,0.16655 2.5573,-0.92466 l 0.32028,-1.224709 0.92993,1.232868 c 0.84072,1.114566 1.1311,1.179182 3.0262,0.673413 1.15292,-0.307695 2.5491,-0.746509 3.10264,-0.975141 0.8904,-0.367781 0.96827,-0.219474 0.67548,1.286561 -1.01706,5.23137 -1.1026,4.78437 1.05153,5.4953 2.55014,0.841616 5.69365,0.411464 7.76341,-1.062313 2.24959,-1.601866 4.76789,-7.146125 6.16942,-13.582562 0.6414,-2.945522 1.30651,-5.356389 1.47804,-5.357474 0.17153,-0.0011 0.61002,1.616123 0.97443,3.593814 1.34597,7.304876 6.79186,21.801886 8.19,21.801886 0.2372,0 1.3218,-2.672437 2.41017,-5.938752 1.08839,-3.266311 2.19056,-6.069571 2.44927,-6.229461 0.81965,-0.506582 1.63632,1.776269 2.7645,7.727762 1.64266,8.665446 2.00096,9.287556 6.13592,10.653736 0.97962,0.32366 0.8785,0.53148 -1.08074,2.22096 l -2.16151,1.86389 1.59528,1.30775 c 2.2733,1.86357 6.03474,2.62848 10.64765,2.16522 l 3.86157,-0.3878 -1.13311,1.54909 c -1.65558,2.26335 -4.41587,5.09714 -6.81352,6.99495 l -2.10135,1.66325 1.64365,1.17038 c 0.904,0.6437 2.94565,1.50368 4.53699,1.91106 l 2.89338,0.7407 -1.85624,1.7344 c -3.66551,3.42492 -8.3689,4.82634 -12.67029,3.77526 z"
       id="path27329"
       inkscape:connector-curvature="0" />
    <path
       style="opacity:1;fill:#293b1b;fill-opacity:1;fill-rule:nonzero;stroke:none;stroke-width:2.99206734;stroke-miterlimit:4;stroke-dasharray:none;stroke-opacity:1"
       d="m -685.19676,56.885527 c -0.37595,-0.45299 -0.5881,-0.87854 -0.47144,-0.94566 0.11665,-0.0671 0.93563,-0.49276 1.81995,-0.94587 0.88432,-0.45311 1.96112,-1.45321 2.39287,-2.22244 1.29142,-2.30082 0.0953,-4.18276 -4.56534,-7.183183 -2.21572,-1.426424 -4.02857,-2.626365 -4.02856,-2.666534 2e-5,-0.04017 1.80145,-0.128887 4.00319,-0.197147 2.46094,-0.0763 5.16728,-0.559659 7.02487,-1.254672 2.9611,-1.107887 3.95167,-2.128473 2.07604,-2.138942 -2.39344,-0.01336 -10.40224,-5.014963 -10.40224,-6.496333 0,-0.245031 1.39822,-0.60629 3.10716,-0.802796 1.70894,-0.196506 3.9873,-0.579583 5.06303,-0.851281 2.19027,-0.553202 4.80781,-2.396041 4.78176,-3.366527 -0.009,-0.349938 -1.14169,-1.319287 -2.51621,-2.15411 l -2.49913,-1.517859 1.99152,-1.641573 c 2.44631,-2.016459 3.68716,-4.354095 6.55265,-12.344562 1.2257,-3.4178794 2.45324,-6.1683664 2.72787,-6.1121954 0.27462,0.05617 0.65693,0.78568 0.84959,1.621129 0.19265,0.835448 0.772,3.342767 1.28745,5.5718204 0.51544,2.229051 1.38417,4.934117 1.93051,6.011257 1.13168,2.231184 3.92754,4.786432 5.2701,4.816557 0.61295,0.01376 0.21165,0.612868 -1.24586,1.859965 l -2.15006,1.839675 1.24392,1.324088 c 0.90482,0.963145 1.04901,1.389153 0.52893,1.562762 -0.65937,0.220104 4.88355,2.579616 6.05999,2.579616 1.0684,0 0.45192,1.176959 -1.7765,3.391575 -2.05894,2.046195 -3.65521,2.845874 -8.99347,4.505438 -0.46962,0.145997 0.24174,0.941062 1.89132,2.113868 1.45423,1.03392 2.64405,2.154198 2.64405,2.489501 0,1.301168 -5.39156,3.664607 -9.95733,4.36489 l -4.54409,0.696957 3.15499,2.093146 c 3.1537,2.09229 3.15446,2.09345 1.84695,2.8231 -5.92705,3.30755 -13.6425,4.93069 -15.09848,3.17634 z"
       id="path27331"
       inkscape:connector-curvature="0" />
    <path
       style="opacity:1;fill:#293b1b;fill-opacity:1;fill-rule:nonzero;stroke:none;stroke-width:2.99206734;stroke-miterlimit:4;stroke-dasharray:none;stroke-opacity:1"
       d="m -41.383918,72.991127 c 0.81809,-0.57684 0.46164,-0.88717 -1.57649,-1.37252 -1.52453,-0.36306 -5.91138,-3.3586 -5.91138,-4.03657 0,-0.23497 1.61949,-0.70463 3.59886,-1.04367 2.34276,-0.40132 3.99307,-1.01632 4.72829,-1.76207 1.22058,-1.23802 1.22465,-1.2305 -1.66073,-3.06531 -0.94472,-0.60076 -0.93351,-0.67405 0.23333,-1.52365 1.46204,-1.06453 3.40172,-4.75171 5.00346,-9.51102 1.6337,-4.854379 1.88463,-5.234088 2.58908,-3.91782 0.31517,0.58888 0.86016,2.755495 1.21108,4.8147 0.95871,5.62551 1.75339,7.20834 3.82719,7.62311 l 1.74602,0.3492 -1.76602,1.47434 c -1.22923,1.02618 -1.56588,1.59803 -1.10754,1.88129 0.44143,0.27284 0.15459,0.61294 -0.87022,1.03182 l -1.52871,0.62487 2.53529,1.82073 c 1.39441,1.00137 2.53529,1.98496 2.53529,2.18572 0,0.70641 -1.9577,2.12429 -4.46365,3.23276 -2.5862,1.14401 -10.52587,2.18318 -9.12315,1.19409 z"
       id="path27333"
       inkscape:connector-curvature="0" />
    <path
       style="opacity:1;fill:#293b1b;fill-opacity:1;fill-rule:nonzero;stroke:none;stroke-width:2.99206734;stroke-miterlimit:4;stroke-dasharray:none;stroke-opacity:1"
       d="m -39.633568,75.564437 -2.92026,-2.14463 h 2.21819 c 4.74858,0 9.83811,-1.62258 12.06053,-3.845 l 1.08566,-1.08567 -2.46533,-1.88243 c -1.35594,-1.03534 -2.46534,-1.9798 -2.46534,-2.09883 0,-0.11901 1.50702,-0.76589 3.34894,-1.43748 3.16111,-1.15261 7.99896,-4.90693 7.99896,-6.20746 0,-0.29197 -1.1916,-0.83625 -2.648,-1.20951 -2.76749,-0.70929 -5.33606,-2.17801 -3.86556,-2.21035 1.35863,-0.0299 4.86844,-2.8044 7.11176,-5.621892 l 2.16334,-2.717046 -1.88614,-0.967645 c -1.03735,-0.532204 -2.0235,-1.18995 -2.19144,-1.461659 -0.16793,-0.271708 0.73081,-1.10123 1.99721,-1.843383 3.45006,-2.02187 5.71318,-6.722394 6.61956,-13.748904 0.60497,-4.689838 1.2828,-3.583202 2.73063,4.458105 0.8982402,4.988655 4.1901802,9.996961 6.5710302,9.996961 0.55449,0 0.37405,0.489262 -0.61325,1.662589 -3.38836,4.026842 -0.88498,7.510014 7.51724,10.459374 0.96356,0.33823 0.98467,0.43332 0.19468,0.8769 -0.48734,0.27365 -2.67070004,0.75065 -4.85196,1.06001 -2.18125,0.30935 -4.17367,0.77024 -4.42764,1.02421 -0.68852,0.68852 2.88999,4.00656 5.79254996,5.37094 1.39602,0.65619 3.80214004,1.47259 5.34696004,1.81419 1.54483,0.3416 2.89121,0.68025 2.99194,0.75253 0.10073,0.0723 -0.80267,1.02203 -2.00753,2.11058 -1.20488,1.08852 -2.59474,2.89491 -3.08856,4.01418 l -0.89786,2.03507 -8.71268,0.90974 c -7.5615202,0.78955 -24.4123602,3.05512 -28.4364402,3.82326 -0.98025,0.18711 -2.15225,-0.3306 -4.27119,-1.88675 z"
       id="path27335"
       inkscape:connector-curvature="0" />
    <path
       style="opacity:1;fill:#293b1b;fill-opacity:1;fill-rule:nonzero;stroke:none;stroke-width:2.99206734;stroke-miterlimit:4;stroke-dasharray:none;stroke-opacity:1"
       d="m -48.061208,76.625317 -3.24226,-2.11323 2.80178,-0.006 c 1.54099,-0.003 3.42413,-0.24236 4.18476,-0.53155 1.18059,-0.44886 1.81633,-0.2222 4.34504,1.54916 l 2.96209,2.07497 -3.04904,0.61233 c -4.17493,0.83846 -4.32987,0.80774 -8.00237,-1.58592 z"
       id="path27337"
       inkscape:connector-curvature="0" />
    <path
       style="opacity:1;fill:#293b1b;fill-opacity:1;fill-rule:nonzero;stroke:none;stroke-width:2.99206734;stroke-miterlimit:4;stroke-dasharray:none;stroke-opacity:1"
       d="m 270.22039,107.94722 c -6.24133,-1.16417 -26.91074,-4.80155 -45.93198,-8.083053 -52.39541,-9.03912 -71.69854,-12.67978 -99.69942,-18.80385 -21.37492,-4.6749 -34.086158,-6.67848 -54.037618,-8.5176 -10.97643,-1.0118 -45.81451,-1.36755 -57.42329,-0.5864 l -6.3577298,0.42781 2.30492,-2.32339 c 3.0279998,-3.05229 4.8440198,-6.58318 6.6101598,-12.85221 0.79545,-2.82347 1.77713,-5.58313 2.18152,-6.13259 0.69564,-0.945167 0.92287,-0.86515 4.21566,1.48454 1.91423,1.36596 4.86066,3.11546 6.54764,3.88779 5.24981,2.40343 12.44153,1.74486 19.47244,-1.78317 4.37845,-2.19707 4.34697,-2.03296 1.11992,-5.836953 -1.59842,-1.884238 -3.18928,-3.9547 -3.53517,-4.601035 -0.58957,-1.101611 -0.53295,-1.155033 0.90469,-0.853745 8.0664,1.690447 13.24901,1.504337 14.57769,-0.523496 1.01002,-1.541476 0.46704,-2.768915 -2.66366,-6.021504 -2.37218,-2.46452 -2.43351,-2.345817 1.769,-3.424484 3.45723,-0.887372 7.28123,-2.941261 8.60176,-4.620069 2.0778,-2.641489 1.71098,-2.946464 -4.53988,-3.774435 -4.30612,-0.570375 -4.59843,-1.068877 -1.2052,-2.055315 3.40183,-0.988938 6.33878,-3.158188 6.33878,-4.68186 0,-0.557652 -0.7547,-1.873467 -1.67711,-2.924032 -1.21399,-1.382671 -1.44301,-1.91012 -0.82937,-1.91012 1.49326,0 4.49443,-3.148214 5.72244,-6.0028014 0.65503,-1.522626 1.6365,-5.068969 2.18107,-7.88076199 1.38435,-7.14802901 1.7736,-7.37007501 2.70451,-1.54279901 0.87236,5.460688 2.40784,8.560932 5.75541,11.620413 l 2.907,2.6568324 -1.63949,0.968478 c -1.41222,0.834207 -1.5067,1.020979 -0.68162,1.347145 0.77012,0.304434 0.69307,0.388299 -0.39307,0.427831 -1.06875,0.0389 -0.56083,0.49408 2.43171,2.17924 2.08044,1.171538 5.22216,2.670615 6.98159,3.331279 l 3.19894,1.201209 -2.31277,2.052391 c -1.71358,1.520672 -3.1305,2.221296 -5.46918,2.704346 -2.95931,0.611235 -3.0874,0.700315 -2.05089,1.42631 0.81486,0.570752 2.21506,0.710132 5.32527,0.530083 3.5188,-0.203695 4.9698,-0.604184 8.735188,-2.410937 7.47884,-3.588604 10.98322,-8.084338 13.97214,-17.9246664 0.64678,-2.129359 1.34827,-3.978061 1.55887,-4.108225 0.21064,-0.130167 1.69543,1.484318 3.29957,3.587742 3.29808,4.3246204 7.10335,7.5632474 11.07213,9.4233714 5.75971,2.699533 12.89084,1.071859 16.3232,-3.725759 2.07917,-2.906223 5.22989,-9.1607704 6.1314,-12.1716254 0.38105,-1.27266899 0.85124,-2.12376299 1.04484,-1.89131799 0.19362,0.232444 1.04053,2.24639699 1.88203,4.47544799 3.10701,8.2301724 6.52095,13.7946244 9.62422,15.6867734 2.36633,1.442812 2.93082,1.349706 4.19132,-0.691333 1.30559,-2.114012 1.02238,-3.849576 -0.96994,-5.944137 -0.77745,-0.817319 -1.13331,-1.486035 -0.79084,-1.486035 0.34248,0 1.47024,-0.744177 2.50616,-1.6537274 2.09558,-1.839947 3.63787,-5.410089 4.66532,-10.799493 0.36571,-1.918332 0.85773,-3.852632 1.09337,-4.298445 0.55631,-1.052586 0.752,-0.48546 1.57982,4.57854901 1.07691,6.58773799 3.24668,10.26815099 7.25647,12.30860239 l 1.58049,0.804267 -2.25182,1.286346 c -1.23849,0.70749 -2.25367,1.454864 -2.25597,1.660826 -0.01,0.848948 6.05332,6.836431 7.5502,7.456459 2.09585,0.868121 1.71326,1.374484 -1.89881,2.513086 -3.03022,0.955188 -3.57777,1.704523 -2.12595,2.909427 1.17594,0.975943 4.60134,-0.135368 7.0535,-2.288386 2.52905,-2.220534 4.45064,-6.173436 7.23691,-14.887035 1.25997,-3.9403244 2.50817,-7.2985344 2.77376,-7.4626904 0.63553,-0.392774 1.45738,1.815717 2.52735,6.7914634 0.47932,2.229051 1.00526,4.174405 1.16875,4.323008 0.34089,0.309843 0.56962,2.614044 0.54546,5.495034 -0.009,1.090424 0.23921,2.140696 0.55187,2.33394 0.31268,0.193241 0.43765,0.563062 0.27773,0.821822 -0.57057,0.923197 1.89304,10.397937 3.62622,13.946031 2.17289,4.448204 7.67842,10.367407 9.6392,10.363438 0.73022,-0.0016 2.05258,-0.582665 2.93854,-1.291531 l 1.61089,-1.288844 -1.88106,-0.829101 c -1.0346,-0.456001 -2.85374,-1.713188 -4.04257,-2.793738 l -2.16151,-1.964648 1.97252,0.317014 c 2.41684,0.388426 6.8579,-0.54732 8.15081,-1.717408 1.22261,-1.106448 1.22716,-2.316837 0.009,-2.319052 -0.52012,-0.0011 -2.32682,-0.920046 -4.01494,-2.042446 l -3.0693,-2.040723 2.90568,-1.521312 c 1.59811,-0.836724 3.26652,-2.072023 3.70752,-2.745121 0.44104,-0.6731 1.18925,-1.611167 1.66267,-2.084599 1.26339,-1.263375 3.60342,-6.556155 2.99069,-6.764451 -0.28882,-0.09818 -0.1629,-0.540734 0.2798,-0.983446 0.44273,-0.442709 0.94718,-1.45664 1.12107,-2.253176 0.17388,-0.796536 0.4192,-1.776777 0.54517,-2.178314 0.12597,-0.401537 1.1892,1.18823 2.3627,3.532817 2.52201,5.038836 7.9289,10.998168 11.38082,12.543634 l 2.31806,1.037825 -2.5165,1.773786 c -1.38404,0.975582 -2.51645,2.074076 -2.51645,2.441106 0,1.149602 2.79283,2.928022 5.99731,3.818946 l 3.07895,0.856022 -1.31413,1.142561 c -2.44192,2.123144 -2.36802,7.599241 0.14285,10.583231 1.72985,2.0558 4.03651,2.16479 6.7527,0.3191 3.55819,-2.417863 4.93548,-7.100094 6.12936,-20.837486 0.45201,-5.201121 0.83063,-9.942922 0.84135,-10.537335 0.0298,-1.651109 0.67585,-0.286724 2.91602,6.158352 1.07397,3.089883 2.61097,6.827456 3.41554,8.305715 2.7999,5.144328 6.98965,6.884091 11.63256,4.830315 4.50975,-1.994881 5.59536,-6.02311 2.09431,-7.771204 l -1.81345,-0.905478 2.32455,-1.185897 c 2.448,-1.248876 2.4435,-1.289291 -0.32809,-2.956372 -0.84206,-0.506492 -0.81817,-0.711039 0.30576,-2.615912 1.59869,-2.709579 2.6567,-7.337105 2.66718,-11.665677 l 0.008,-3.4831474 1.53461,2.4023954 c 3.01141,4.714296 12.98855,13.11147 17.40963,14.65267 l 1.65718,0.577678 -1.23133,1.310672 c -0.94334,1.004128 -1.10072,1.517732 -0.67286,2.196007 0.7298,1.156994 3.71529,2.213481 6.43029,2.27551 3.7254,0.08512 3.8023,0.776343 0.2737,2.462855 -1.7852,0.853234 -3.2458,1.850665 -3.2458,2.216515 0,1.389796 12.1142,8.947518 15.4612,9.64587 2.6556,0.55408 6.4293,-0.68376 9.0101,-2.95547 5.5061,-4.846587 9.032,-18.054714 9.032,-33.8333354 v -5.24696 l 3.0114,3.327623 c 2.2873,2.527535 4.0738,3.8528574 7.4301,5.5121224 2.4304,1.201476 5.3381,2.331773 6.4617,2.511772 l 2.0427,0.327274 -2.448,-5.274456 c -1.3464,-2.9009524 -2.4461,-5.4264484 -2.4437,-5.6122154 0,-0.185766 1.4006,-0.377552 3.1072,-0.42619 4.6736,-0.133205 13.0997,-1.337607 13.0997,-1.872425 0,-0.258961 -0.1824,-0.478679 -0.4053,-0.488267 -0.2229,-0.0096 -1.7023,-0.955686 -3.2876,-2.10244299 l -2.8824,-2.08500901 5.4877,-2.686836 5.4878,-2.686838 -2.2084,-0.883621 -2.2084,-0.883621 1.6447,-3.2581636 c 1.9351,-3.833503 4.8564,-12.308231 4.8564,-14.088668 0,-1.676021 0.6527,-0.829577 2.0652,2.678155 1.4838,3.684928 5.3597,9.129659 8.33,11.701613 1.267,1.097092 3.8843,2.7577966 5.8161,3.6904556 1.9319,0.932661 3.6016,1.746713 3.7106,1.809003 0.1743,0.09966 -1.9323,3.713599 -4.062,6.96856201 -0.7217,1.10305599 -0.5921,1.15519399 6.0449,2.43169299 6.3501,1.221332 6.7996,1.390562 7.0535,2.655406 1.0748,5.3542354 2.601,8.1051454 5.6387,10.1631804 2.1999,1.490469 4.3834,1.355122 7.3091,-0.453057 3.5068,-2.167318 5.6953,-7.7122334 6.4985,-16.4648254 l 0.3471,-3.782634 2.0086,5.13357301 c 6.4337,16.44375639 13.2966,24.85730839 20.2761,24.85730839 4.9994,0 8.8427,-5.691971 12.4122,-18.3821184 1.0435,-3.709958 2.1766,-8.812316 2.5181,-11.338576 0.3414,-2.526257 0.7762,-5.6874586 0.9661,-7.0248906 l 0.3453,-2.431693 0.9862,3.589015 c 3.5662,12.9784946 13.7212,28.841004 21.9498,34.286462 l 2.1842,1.445419 v 13.545675 c 0,8.358788 -0.1924,13.349095 -0.5026,13.032315 -0.2764,-0.28235 -0.9831,-1.729207 -1.5704,-3.215239 l -1.0679,-2.701883 -0.6045,1.556613 c -1.0115,2.604614 -2.6181,4.477129 -4.6811,5.456119 -1.7495,0.83016 -1.8746,1.02037 -1.1488,1.74621 0.7259,0.72584 0.659,1.19986 -0.6141,4.35178 -0.7858,1.94547 -2.3604,4.53288 -3.4992,5.7498 -2.0117,2.14969 -2.0929,2.18189 -2.8541,1.13263 -1.6197,-2.23255 -5.8939,-7.28672 -6.1653,-7.29043 -0.1553,-0.002 -0.7213,0.81115 -1.2578,1.80729 -1.4026,2.60456 -5.1432,7.01995 -7.5854,8.95395 -3.5447,2.80701 -4.7005,2.2778 -8.464,-3.87533 -1.6157,-2.64147 -2.6742,-3.283 -2.675,-1.62113 0,2.56149 -5.9522,12.02338 -7.5621,12.02338 -0.2266,0 -0.7141,-0.7295 -1.0835,-1.62112 -0.7795,-1.88193 -1.4078,-2.06381 -1.8892,-0.54692 -0.3368,1.06127 -0.365,1.0619 -2.333,0.0526 -2.1393,-1.0971 -4.0574,-2.97672 -4.5965,-4.50414 -0.2632,-0.74583 -0.033,-0.94567 1.0903,-0.94567 1.4058,0 1.3972,-0.023 -0.6649,-1.80573 l -2.089,-1.80573 1.5937,-0.37438 c 0.8764,-0.20593 2.2708,-0.6422 3.0985,-0.96954 l 1.5049,-0.59515 -2.5857,-1.75366 c -2.2556,-1.5298 -4.477,-4.21587 -4.477,-5.41362 0,-0.21594 0.8681,-0.25175 1.9291,-0.0796 l 1.929,0.31304 -1.9815,-2.19333 c -1.0899,-1.20633 -2.5271,-3.370864 -3.1939,-4.810068 l -1.2124,-2.616745 -1.7022,2.414985 c -1.6578,2.351958 -6.044,5.639738 -7.5238,5.639738 -0.4052,0 -0.5864,0.24317 -0.4027,0.54038 0.1837,0.2972 1.2923,0.54037 2.4636,0.54037 1.1713,0 2.1296,0.22547 2.1296,0.50104 0,0.79157 -3.8748,3.78195 -5.8091,4.48317 -1.7661,0.64027 -2.3666,1.5003 -1.0475,1.5003 1.1775,0 3.0739,2.12187 3.0739,3.43931 0,1.57004 -1.7945,3.24602 -4.7201,4.40836 -2.1801,0.86617 -2.2504,0.96337 -1.486,2.05475 1.3048,1.86286 0.9917,4.0412 -0.8448,5.87772 -1.4458,1.44574 -1.9164,1.6111 -3.848,1.35202 -2.9912,-0.40118 -5.0645,-2.53928 -8.5088,-8.77469 -1.5469,-2.8003 -3.0118,-5.21462 -3.2554,-5.3652 -0.2436,-0.15054 -0.9704,1.36393 -1.6151,3.3655 -1.5231,4.72819 -3.7152,8.67725 -5.5796,10.05147 -2.9339,2.16263 -6.935,0.86075 -11.3612,-3.69676 l -1.8755,-1.93108 -1.0134,3.25069 c -0.5574,1.7879 -1.2896,3.25279 -1.627,3.25533 -0.8246,0.006 -6.4184,-6.02353 -9.6955,-10.4512 l -2.6486,-3.57852 -1.1889,2.33932 c -1.3633,2.68248 -4.4224,5.57609 -6.427,6.07922 -4.6833,1.17544 -10.1964,-2.76251 -12.3495,-8.82113 -0.8581,-2.41487 -0.8144,-2.54137 -2.1405,6.18692 -0.462,3.04125 -1.3191,6.46866 -1.9047,7.61642 -1.3961,2.73664 -4.3553,5.28712 -7.0822,6.10413 -2.8551,0.85542 -5.2544,-0.21823 -7.5407,-3.37429 l -1.636,-2.2584 v 2.42633 c 0,3.22792 -1.7532,9.93513 -3.4959,13.37432 -3.0982,6.113943 -7.3486,9.189773 -12.71534,9.201683 -4.06524,0.009 -7.74266,-1.79139 -10.95356,-5.362713 -1.83174,-2.03732 -2.55596,-2.5582 -2.55625,-1.83859 -0.003,3.31751 -7.41476,13.784133 -9.66964,13.652213 -0.47702,-0.0279 -5.97385,-1.00325 -12.21518,-2.16744 z"
       id="path27339"
       inkscape:connector-curvature="0" />
    <path
       style="opacity:1;fill:#293b1b;fill-opacity:1;fill-rule:nonzero;stroke:none;stroke-width:8.46284485;stroke-miterlimit:4;stroke-dasharray:none;stroke-opacity:1"
       d="m 498.89302,66.439547 c -0.9714,-1.17055 -1.4025,-4.19315 -0.9579,-6.71685 0.5672,-3.21924 0.1262,-4.85039 -1.4776,-5.46584 -1.7984,-0.6901 -2.2861,-3.85693 -2.2861,-14.844466 0,-12.700924 0.2425,-13.86781 2.6747,-12.870643 1.4711,0.60312 5.5902,1.453075 9.1535,1.888789 5.9647,0.729355 6.9563,0.31465 12.4978,-5.226926 5.9401,-5.940042 6.0658,-5.983245 9.5697,-3.287668 1.9527,1.502304 4.7299,2.746759 6.1714,2.765452 3.3879,0.04393 6.236,-5.017622 4.0522,-7.201432 -1.1011,-1.10113 -1.0563,-1.919925 0.1458,-2.662841 1.2317,-0.761233 1.2649,-1.640194 0.1143,-3.0265504 -1.1736,-1.414177 -0.9831,-2.483572 0.69,-3.872114 1.2713,-1.055092 2.339,-3.381652 2.3726,-5.17013499 0.055,-2.91363701 0.2984,-2.81470701 2.3415,0.95135399 1.2541,2.311726 2.9461,4.203139 3.7598,4.203139 0.8138,0 1.4796,1.397162 1.4796,3.104801 0,1.7076394 1.0317,3.5006894 2.2927,3.9845594 1.2609,0.48387 2.2926,1.734661 2.2926,2.77954 0,3.608814 9.1546,14.523522 12.9886,15.485785 5.052,1.267965 10.868,-2.599018 14.0988,-9.374124 l 2.5119,-5.267621 2.6851,4.093067 c 1.4767,2.251189 4.1485,4.876339 5.9373,5.833665 2.908,1.556306 2.9986,1.951133 0.8563,3.729133 -3.1241,2.592758 -3.0516,4.671079 0.163,4.671079 2.149,0 2.0086,0.585869 -0.876,3.656412 -2.2876,2.435037 -2.8135,3.86358 -1.5745,4.276606 1.4559,0.485288 1.4432,1.93404 -0.059,6.660385 -4.6341,14.585084 -9.6368,16.536834 -16.853,6.575084 -2.5272,-3.48864 -4.5949,-7.271467 -4.5949,-8.406281 0,-3.560003 -2.1958,-2.191118 -4.714,2.938751 -1.932,3.93589 -3.4859,5.02447 -7.6898,5.38708 -6.5014,0.56078 -10.9581,-3.67529 -14.961,-14.220586 l -2.7757,-7.312356 -4.1063,8.96938 c -6.5329,14.269762 -12.0626,18.438552 -14.0348,10.580712 -0.5275,-2.10157 -1.4726,-3.82104 -2.1003,-3.82104 -0.6277,0 -4.036,4.12672 -7.574,9.17049 -6.5645,9.35829 -9.0861,10.81207 -12.2148,7.04221 z"
       id="path27341"
       inkscape:connector-curvature="0" />
    <path
       style="opacity:1;fill:#293b1b;fill-opacity:1;fill-rule:nonzero;stroke:none;stroke-width:8.46284485;stroke-miterlimit:4;stroke-dasharray:none;stroke-opacity:1"
       d="m 618.93432,59.086407 c -1.8869,-7.08913 -3.5006,-8.27326 -6.9816,-5.12296 -2.3745,2.14884 -3.1525,2.32205 -3.1596,0.70343 -0.01,-1.18108 -0.9961,-4.03882 -2.202,-6.350548 -1.9065,-3.654875 -1.9053,-4.203139 0.01,-4.203139 2.592,0 2.8552,-1.792325 0.5951,-4.052359 -1.1236,-1.123582 -0.434,-2.375389 2.2927,-4.161956 4.3374,-2.84199 5.1202,-5.54142 1.6069,-5.54142 -3.1552,0 -2.9097,-0.77247 1.7159,-5.398082 2.9496,-2.949605 3.5582,-4.459129 2.3034,-5.71391 -1.2548,-1.254782 -0.9125,-2.54925 1.2958,-4.899867 1.6506,-1.757013 3.5698,-5.9229364 4.2648,-9.2576074 l 1.2637,-6.06303799 2.0287,7.23092799 c 1.1157,3.9770104 2.9437,7.9904354 4.0623,8.9187264 1.6152,1.340524 1.6546,2.323129 0.1916,4.775612 -1.5402,2.58176 -1.3821,3.374488 0.965,4.837007 7.8408,4.885788 8.1504,5.470483 2.9244,5.521621 -5.8733,0.05747 -6.3764,2.111664 -1.3274,5.419889 l 3.6398,2.38492 -6.577,11.54107 c -7.9806,14.004103 -7.7577,13.768253 -8.9119,9.431683 z"
       id="path27343"
       inkscape:connector-curvature="0" />
    <path
       style="opacity:1;fill:#293b1b;fill-opacity:1;fill-rule:nonzero;stroke:none;stroke-width:8.46284485;stroke-miterlimit:4;stroke-dasharray:none;stroke-opacity:1"
       d="m 674.36832,57.435587 c -2.8564,-1.9196 -7.3842,-7.14497 -10.0618,-11.611953 l -4.8683,-8.12178 -1.6678,6.193713 c -2.8411,10.5512 -8.75,13.9881 -12.8558,7.47759 -4.3822,-6.948912 -4.513,-10.249645 -0.5303,-13.382439 2.0528,-1.614699 5.2627,-6.49333 7.1332,-10.8414 l 3.4009,-7.905586 9.4209,9.205233 c 5.1815,5.062876 11.0324,10.0292 13.0021,11.036276 5.1484,2.632268 10.36,0.771123 12.7106,-4.539128 2.471,-5.582359 3.2788,-5.674424 6.5106,-0.742011 3.4575,5.27676 0.8095,14.878521 -5.974,21.661975 -5.9712,5.9712 -9.205,6.28409 -16.2203,1.56951 z"
       id="path27345"
       inkscape:connector-curvature="0" />
    <path
       style="opacity:1;fill:#293b1b;fill-opacity:1;fill-rule:nonzero;stroke:none;stroke-width:8.46284485;stroke-miterlimit:4;stroke-dasharray:none;stroke-opacity:1"
       d="m 714.90302,57.754177 c -6.0581,-1.75905 -9.5104,-5.6455 -10.8167,-12.177114 l -1.0427,-5.213411 3.8821,2.543638 c 2.1351,1.398998 6.207,3.142163 9.0487,3.873699 4.5608,1.174102 5.2222,1.991767 5.641,6.973208 0.5076,6.03896 0.4428,6.07756 -6.7124,3.99998 z"
       id="path27347"
       inkscape:connector-curvature="0" />
    <path
       style="opacity:1;fill:#293b1b;fill-opacity:1;fill-rule:nonzero;stroke:none;stroke-width:8.46284485;stroke-miterlimit:4;stroke-dasharray:none;stroke-opacity:1"
       d="m 604.21732,36.598481 c 0,-0.770575 0.6752,-1.630307 1.5006,-1.910517 0.8254,-0.280209 -0.074,-3.773686 -1.9988,-7.76328 l -3.4994,-7.253808 -2.9686,3.890139 c -2.7886,3.654415 -3.1725,3.744489 -6.3348,1.486477 -3.3311,-2.378535 -3.3368,-2.45523 -0.55,-7.335237 1.549,-2.712365 3.633,-7.510772 4.6312,-10.6631264 2.3732,-7.49521499 4.1142,-7.25072699 5.4419,0.764206 1.395,8.4215214 3.2616,11.8336464 6.5064,11.8938234 2.4041,0.04458 2.3913,0.222689 -0.1543,2.152483 -2.3852,1.808216 -2.4946,2.553142 -0.7786,5.300843 1.0981,1.758333 2.8627,3.196971 3.9215,3.196971 2.7479,0 2.3781,2.172954 -0.8701,5.112565 -3.1235,2.826686 -4.847,3.227956 -4.847,1.128461 z"
       id="path27349"
       inkscape:connector-curvature="0" />
    <path
       style="opacity:1;fill:#293b1b;fill-opacity:1;fill-rule:nonzero;stroke:none;stroke-width:8.46284485;stroke-miterlimit:4;stroke-dasharray:none;stroke-opacity:1"
       d="m 494.84202,24.436 c -2.5733,-1.569257 -7.2615,-5.865355 -10.4182,-9.546878 l -5.7393,-6.6936834 4.3045,-0.796613 c 2.9118,-0.538877 3.6774,-1.191726 2.3663,-2.017821 -1.5056,-0.948698 -1.2972,-2.13519 0.9342,-5.31704799 1.5798,-2.25270801 3.7387,-6.84698301 4.7976,-10.20949561 2.9671,-9.422461 4.1778,-9.457364 6.1046,-0.176001 1.1007,5.3022076 2.9252,9.36166961 4.7964,10.67234961 2.7727,1.94207899 2.8044,2.19798599 0.3871,3.12558899 -4.5918,1.762051 1.4189,6.084382 8.5833,6.172266 3.3712,0.04136 6.1316,0.3863404 6.1343,0.7666334 0,0.380294 -2.1621,2.92708 -4.8104,5.659522 l -4.8153,4.968082 4.0031,1.823944 c 2.2017,1.003168 3.6402,2.411156 3.1967,3.128862 -1.5084,2.440525 -15.0065,1.378564 -19.8249,-1.559708 z"
       id="path27351"
       inkscape:connector-curvature="0" />
    <path
       style="opacity:1;fill:#293b1b;fill-opacity:1;fill-rule:nonzero;stroke:none;stroke-width:8.46284485;stroke-miterlimit:4;stroke-dasharray:none;stroke-opacity:1"
       d="m 445.64672,20.511825 c -2.4393,-2.052585 -6.7493,-8.752592 -9.5777,-14.8889064 l -5.1426,-11.156932 -2.1237,8.382479 c -2.6167,10.3281694 -4.3344,12.5080134 -9.3928,11.9200114 -2.8295,-0.328914 -4.7472,-2.087144 -6.7525,-6.1909354 -1.5403,-3.152354 -3.7756,-5.731555 -4.9673,-5.731555 -1.5734,0 -1.3296,-0.83715 0.8901,-3.05682899 3.6389,-3.63893401 3.8329,-6.03170901 0.8128,-10.02467361 -2.8936,-3.825671 -2.9007,-5.259474 -0.026,-5.259474 3.5998,0 7.9193,-8.518276 9.9698,-19.660962 2.5974,-14.114338 3.8427,-15.917088 5.8933,-8.531151 0.9208,3.316554 1.678,6.754789 1.6827,7.640521 0.018,3.336245 8.0628,17.612094 9.6307,17.089445 0.9003,-0.300083 3.7683,-6.349782 6.3734,-13.443775 2.6051,-7.093992 5.3992,-12.898168 6.2093,-12.898168 0.8101,0 2.6945,5.846186 4.1876,12.991526 2.8088,13.441809 5.9198,19.430806 11.5862,22.304475 3.1809,1.6132086 3.198,1.7582666 0.4965,4.2031416 -1.539,1.392745 -3.6037,2.532266 -4.5883,2.532266 -2.8442,0 -2.0831,2.48952301 1.4855,4.858969 2.9463,1.956285 3.0998,2.705061 1.5265,7.446397 -2.8324,8.5359984 -7.5593,15.2061014 -10.7761,15.2061014 -1.6291,0 -4.9579,-1.679387 -7.3972,-3.731971 z"
       id="path27353"
       inkscape:connector-curvature="0" />
    <path
       style="opacity:1;fill:#293b1b;fill-opacity:1;fill-rule:nonzero;stroke:none;stroke-width:8.46284485;stroke-miterlimit:4;stroke-dasharray:none;stroke-opacity:1"
       d="m 252.98755,49.921164 c -2.31558,-2.315593 -2.38511,-8.343847 -0.11242,-9.748446 1.02759,-0.63509 -0.35877,-1.945153 -3.43895,-3.249678 -4.82539,-2.043663 -4.97744,-2.320886 -2.34114,-4.267833 2.6683,-1.970555 2.54887,-2.323994 -2.22742,-6.591606 l -5.0469,-4.509403 4.38095,-10.882521 c 2.40953,-5.9853864 4.78745,-10.85042039 5.28428,-10.81118539 0.49681,0.03923 2.32479,2.96190999 4.06215,6.49483599 2.0406,4.1495294 4.67868,6.9579944 7.45202,7.9333274 3.92202,1.3793 4.78602,0.954469 9.99386,-4.9140374 3.13537,-3.533124 8.29787,-12.252571 11.47218,-19.3765456 l 5.77151,-12.952683 8.9244,17.8676486 c 10.22816,20.4778744 17.70645,31.2087444 24.73635,35.4950824 6.5339,3.983916 8.1677,3.806187 13.4354,-1.461511 6.0037,-6.003729 5.6366,-8.296706 -1.8705,-11.681952 l -6.3383,-2.858148 4.0354,-1.649453 c 4.0496,-1.655267 14.7548,-11.1385934 14.7548,-13.07070739 0,-0.567365 -2.3496,-2.64153401 -5.2213,-4.60926401 l -5.2213,-3.577691 4.3829,-2.6653956 c 6.4481,-3.921329 9.1165,-10.310974 9.1165,-21.829857 0,-5.505829 0.5502,-10.010598 1.2226,-10.010598 0.6724,0 2.0439,3.954772 3.0477,8.788384 2.3408,11.271331 7.3742,21.38895 11.2534,22.620154 2.1348,0.677577 2.709,1.7186326 1.9307,3.5009776 -0.6092,1.395155 -1.422,4.771953 -1.8062,7.50399601 -0.5122,3.64277499 -1.4834,4.96734799 -3.6419,4.96734799 -2.4364,0 -2.6709,0.509199 -1.3612,2.956348 4.0064,7.4860294 -0.4335,8.3768074 -8.119,1.628897 -2.8722,-2.521887 -5.6473,-4.585245 -6.1668,-4.585245 -0.5195,0 -0.9553,3.266985 -0.9684,7.2599714 -0.03,9.205883 -3.3765,23.564934 -6.659,28.574682 -3.5837,5.469319 -8.6213,6.26423 -15.9628,2.518857 -7.7612,-3.959457 -8.9809,-5.896744 -5.401,-8.578572 2.6337,-1.973014 2.4812,-2.190067 -2.2233,-3.162943 -3.3768,-0.698317 -4.78752,-1.731623 -4.25576,-3.11732 0.46706,-1.217026 -0.95088,-2.975796 -3.43445,-4.260091 -2.3264,-1.203029 -7.06834,-5.266759 -10.53764,-9.03051 l -6.30782,-6.8431834 -1.05037,6.3437324 c -0.57769,3.489052 -1.66013,7.505618 -2.40541,8.925703 -0.86124,1.641046 -0.7371,2.963886 0.34068,3.629985 1.19745,0.740058 1.11524,1.406763 -0.27969,2.26889 -1.59885,0.988131 -1.56811,1.711663 0.16124,3.795379 1.85856,2.239428 1.75799,2.851367 -0.77251,4.701733 -5.9717,4.366609 -10.88718,0.94629 -15.31959,-10.659782 -3.29533,-8.628756 -5.3463,-9.08041 -5.3463,-1.177338 0,9.723581 -2.91716,22.241817 -5.65832,24.281149 -3.18569,2.370052 -3.96023,2.379502 -6.26333,0.07642 z"
       id="path27355"
       inkscape:connector-curvature="0" />
    <path
       style="opacity:1;fill:#293b1b;fill-opacity:1;fill-rule:nonzero;stroke:none;stroke-width:8.46284485;stroke-miterlimit:4;stroke-dasharray:none;stroke-opacity:1"
       d="m 216.17663,42.773951 c -4.72734,-5.060646 -8.77239,-16.897382 -7.18664,-21.029785 0.54988,-1.432986 0.19124,-3.105144 -0.79698,-3.715906 -1.28659,-0.795144 -0.83642,-2.459172 1.5852,-5.86006 2.98455,-4.1914244 3.09174,-4.8609734 0.91194,-5.6974404 -2.1595,-0.82868 -2.08259,-1.219261 0.6118,-3.106481 1.69502,-1.187241 3.89683,-5.056534 4.89291,-8.598429 l 1.81107,-6.4398046 1.33461,6.0630386 c 0.73401,3.33467 2.74164,7.560778 4.46138,9.391351 2.02152,2.151803 2.54587,3.687331 1.48344,4.343966 -2.91722,1.802937 -1.75199,5.2639354 2.55976,7.6031064 l 4.20315,2.28024 -4.20315,0.0612 c -4.71365,0.06863 -5.88914,4.095393 -1.66833,5.715072 2.1389,0.820769 1.85529,1.514506 -1.81575,4.441708 l -4.35057,3.469013 3.72628,3.076832 3.72629,3.076829 -5.21832,1.081016 -5.2183,1.081019 3.34065,2.705078 c 2.03618,1.648807 2.71447,3.092069 1.73705,3.696145 -0.88197,0.545084 -3.54934,-1.09188 -5.92749,-3.637701 z"
       id="path27357"
       inkscape:connector-curvature="0" />
    <path
       style="opacity:1;fill:#293b1b;fill-opacity:1;fill-rule:nonzero;stroke:none;stroke-width:8.46284485;stroke-miterlimit:4;stroke-dasharray:none;stroke-opacity:1"
       d="m 93.934982,24.382496 3.60373,-2.918126 -6.60213,-2.641651 -6.60214,-2.641653 5.84245,-3.310649 c 4.37009,-2.476328 5.80284,-4.2408004 5.6852,-7.0015684 -0.0865,-2.030008 0.67861,-4.526769 1.70022,-5.54835999 1.02158,-1.021593 2.38331,-5.51384001 3.026038,-9.98277201 l 1.16861,-8.1253296 2.72288,8.8453376 c 1.49757,4.864936 3.55782,9.85139001 4.5783,11.081007 1.46282,1.762585 1.42377,2.755805 -0.18452,4.693687 -1.72215,2.075051 -1.64476,2.747013 0.49675,4.3129204 2.35268,1.720316 2.33386,2.188509 -0.25934,6.452696 -2.80631,4.614571 -11.284088,9.702591 -16.166708,9.702591 -2.11923,0 -1.93201,-0.551498 0.99066,-2.91813 z"
       id="path27359"
       inkscape:connector-curvature="0" />
    <path
       style="opacity:1;fill:#293b1b;fill-opacity:1;fill-rule:nonzero;stroke:none;stroke-width:0.74801683;stroke-miterlimit:4;stroke-dasharray:none;stroke-opacity:1"
       d="m -658.89863,22.921951 c 0.2306,-0.262641 0.41927,-0.553995 0.41927,-0.647451 0,-0.09346 -0.28876,-0.252508 -0.64169,-0.353446 -0.3717,-0.106302 -0.54521,-0.206949 -0.41237,-0.239202 0.12614,-0.03062 0.35011,0.009 0.49773,0.08796 0.14761,0.079 0.52867,0.143637 0.8468,0.143637 h 0.57842 l -0.73379,0.743016 c -0.81367,0.823905 -1.21227,1.014794 -0.55437,0.265488 z"
       id="path27361"
       inkscape:connector-curvature="0" />
    <path
       style="opacity:1;fill:#293b1b;fill-opacity:1;fill-rule:nonzero;stroke:none;stroke-width:0.74801683;stroke-miterlimit:4;stroke-dasharray:none;stroke-opacity:1"
       d="m -667.51999,4.1373176 c 0.006,-0.157377 0.0385,-0.189389 0.0816,-0.08162 0.039,0.09752 0.0342,0.21404 -0.0107,0.258929 -0.0449,0.04489 -0.0768,-0.0349 -0.071,-0.17731 z"
       id="path27363"
       inkscape:connector-curvature="0" />
    <path
       style="opacity:1;fill:#293b1b;fill-opacity:1;fill-rule:nonzero;stroke:none;stroke-width:0.74801683;stroke-miterlimit:4;stroke-dasharray:none;stroke-opacity:1"
       d="m -669.41553,5.9367376 c -0.004,-0.131034 0.048,-0.343807 0.11445,-0.472829 0.0665,-0.129018 0.31876,-0.644929 0.56059,-1.146466 0.43958,-0.911656 0.69969,-1.097798 1.04772,-0.749771 0.0892,0.08916 0.16211,0.298347 0.16211,0.464858 0,0.166507 0.0608,0.340315 0.13509,0.386236 0.0743,0.04592 0.13376,0.277479 0.13213,0.514575 l -0.003,0.431082 -0.24581,-0.540377 c -0.1352,-0.297206 -0.33857,-0.617116 -0.45194,-0.710909 -0.26237,-0.217066 -0.34705,-0.119311 -0.97182,1.121934 -0.26021,0.516954 -0.476,0.832705 -0.47955,0.701667 z"
       id="path27365"
       inkscape:connector-curvature="0" />
    <path
       style="opacity:1;fill:#293b1b;fill-opacity:1;fill-rule:nonzero;stroke:none;stroke-width:0.74801683;stroke-miterlimit:4;stroke-dasharray:none;stroke-opacity:1"
       d="m -582.82668,31.948606 -0.87812,-0.05796 1.00851,-0.322565 c 0.71403,-0.228377 1.0359,-0.278235 1.10232,-0.170759 0.0516,0.08349 0.44887,0.227997 0.88282,0.321125 0.56445,0.121131 0.6694,0.17254 0.36879,0.180639 -0.23111,0.0062 -0.68705,0.03296 -1.01321,0.0594 -0.32615,0.02646 -0.98815,0.02199 -1.47111,-0.0099 z"
       id="path27367"
       inkscape:connector-curvature="0" />
    <path
       style="opacity:1;fill:#293b1b;fill-opacity:1;fill-rule:nonzero;stroke:none;stroke-width:0.37400842;stroke-miterlimit:4;stroke-dasharray:none;stroke-opacity:1"
       d="m -272.31001,16.586429 c 0.0285,-0.07111 0.0675,-0.238908 0.0866,-0.372885 0.0404,-0.283657 -0.13825,-0.501391 -0.46244,-0.563605 -0.62688,-0.120301 -0.60852,-0.1129 -0.5262,-0.212079 0.0605,-0.07292 0.28247,-0.09524 0.94676,-0.09524 0.79793,0 0.86423,0.0095 0.82428,0.118208 -0.0238,0.06501 -0.0837,0.142512 -0.13298,0.172223 -0.0492,0.02971 -0.0895,0.09703 -0.0895,0.149606 0,0.05257 -0.0608,0.128121 -0.1351,0.167886 -0.0743,0.03976 -0.13509,0.112114 -0.13509,0.160776 0,0.04866 -0.0608,0.143492 -0.1351,0.210733 -0.0743,0.06724 -0.13509,0.161348 -0.13509,0.209124 0,0.04778 -0.0356,0.108842 -0.079,0.135705 -0.0555,0.03432 -0.0636,0.01042 -0.0271,-0.08045 z"
       id="path27369"
       inkscape:connector-curvature="0" />
    <path
       style="opacity:1;fill:#293b1b;fill-opacity:1;fill-rule:nonzero;stroke:none;stroke-width:0.2644639;stroke-miterlimit:4;stroke-dasharray:none;stroke-opacity:1"
       d="m -218.56165,55.848377 c 0,-0.01 0.2418,-0.2291 0.53734,-0.48792 1.31602,-1.15258 1.62963,-1.48149 1.68723,-1.76952 0.0321,-0.1605 -0.047,-0.25253 -0.33936,-0.39473 l -0.18412,-0.0896 0.74951,0.004 c 0.41225,0.002 0.74951,0.023 0.74951,0.0461 0,0.023 -0.10745,0.14994 -0.23881,0.28198 -0.13134,0.13204 -0.23881,0.25995 -0.23881,0.28425 0,0.065 -0.26718,0.31495 -0.37241,0.34835 -0.0499,0.0159 -0.11501,0.0821 -0.1447,0.14728 -0.0297,0.0652 -0.0842,0.11849 -0.12118,0.11849 -0.0369,0 -0.10236,0.0537 -0.14541,0.11941 -0.043,0.0657 -0.11044,0.11941 -0.14981,0.11941 -0.0393,0 -0.096,0.0537 -0.12597,0.1194 -0.0299,0.0657 -0.0944,0.11941 -0.14329,0.11941 -0.0489,0 -0.11261,0.0521 -0.14161,0.11573 -0.029,0.0637 -0.10562,0.12901 -0.17026,0.14524 -0.0646,0.0162 -0.16872,0.0807 -0.23127,0.14325 -0.0626,0.0626 -0.15552,0.12702 -0.20656,0.14321 -0.051,0.0162 -0.12745,0.0824 -0.16981,0.147 -0.0424,0.0647 -0.11703,0.11754 -0.16595,0.11754 -0.0489,0 -0.12414,0.0537 -0.16716,0.11941 -0.043,0.0657 -0.12073,0.11941 -0.17267,0.11941 -0.0519,0 -0.0944,-0.008 -0.0944,-0.0173 z"
       id="path27371"
       inkscape:connector-curvature="0" />
    <path
       style="opacity:1;fill:#293b1b;fill-opacity:1;fill-rule:nonzero;stroke:none;stroke-width:0.5289278;stroke-miterlimit:4;stroke-dasharray:none;stroke-opacity:1"
       d="m -49.121528,67.429797 c -0.11274,-0.23643 -0.17314,-0.46254 -0.1342,-0.50247 0.0773,-0.0794 2.52929,-0.35869 3.06838,-0.34956 0.21942,0.004 0.006,0.0822 -0.62093,0.22846 -1.39263,0.32486 -2.03425,0.58555 -2.07502,0.8431 -0.0275,0.17364 -0.069,0.13536 -0.23823,-0.21953 z"
       id="path27373"
       inkscape:connector-curvature="0" />
    <path
       style="opacity:1;fill:#293b1b;fill-opacity:1;fill-rule:nonzero;stroke:none;stroke-width:2.11571121;stroke-miterlimit:4;stroke-dasharray:none;stroke-opacity:1"
       d="m 86.450182,27.786938 c -0.67382,-0.390573 -0.47355,-0.517343 1.71947,-1.088464 1.36517,-0.355521 2.80302,-0.779254 3.19524,-0.941623 0.62159,-0.257318 0.66011,-0.196115 0.30004,0.476683 -0.53491,0.999456 -0.23754,1.256702 1.43867,1.244627 1.87838,-0.01355 5.92503,-1.446617 8.616178,-3.051344 5.06466,-3.020045 9.61949,-8.548291 9.29974,-11.287205 -0.15489,-1.326668 0.17531,-1.605687 1.16096,-0.980998 1.2522,0.793641 -3.47985,8.123446 -6.89096,10.673897 -2.62073,1.959507 -6.985608,4.131213 -9.750898,4.851477 -2.57594,0.670947 -8.00246,0.732415 -9.08844,0.10295 z"
       id="path27375"
       inkscape:connector-curvature="0" />
    <path
       style="opacity:1;fill:#293b1b;fill-opacity:1;fill-rule:nonzero;stroke:none;stroke-width:1.05785561;stroke-miterlimit:4;stroke-dasharray:none;stroke-opacity:1"
       d="m 94.603392,3.7091946 c -1.08397,-1.112424 -1.53019,-1.930259 -0.92683,-1.698738 0.36687,0.140787 2.46581,-0.427265 2.85475,-0.772605 0.425,-0.37737199 0.41965,-0.28803299 -0.0458,0.764162 -0.20907,0.47263 -0.45333,1.3218 -0.54282,1.887043 l -0.16266,1.027713 z"
       id="path27377"
       inkscape:connector-curvature="0" />
    <path
       style="opacity:1;fill:#293b1b;fill-opacity:1;fill-rule:nonzero;stroke:none;stroke-width:1.05785561;stroke-miterlimit:4;stroke-dasharray:none;stroke-opacity:1"
       d="m 109.52677,6.0474956 c 0.90072,-1.277845 0.85867,-2.19202 -0.16772,-3.647768 -1.03593,-1.46927099 -1.53911,-2.49059699 -2.81387,-5.711524 -1.45759,-3.682788 -4.76851,-14.4311686 -4.52147,-14.6782096 0.2654,-0.265401 0.69152,0.339278 1.06341,1.508966 0.5065,1.593133 1.0722,3.570997 1.33877,4.680773 0.90226,3.7562046 2.08875,7.7622136 2.40207,8.1101506 0.0899,0.09983 0.16423,0.314757 0.16518,0.477629 0,0.162872 0.2132,0.725998 0.47165,1.251389 0.25844,0.525394 0.4726,1.01218701 0.47588,1.08176501 0.003,0.06958 0.35819,0.737396 0.78867,1.484035 0.93657,1.62446999 2.24949,2.99249499 3.03823,3.16572899 0.31531,0.06925 0.57328,0.190812 0.57328,0.270134 0,0.319421 -2.97694,2.882249 -3.34796,2.882249 -0.0457,0 0.19455,-0.393893 0.53388,-0.875318 z"
       id="path27381"
       inkscape:connector-curvature="0" />
    <path
       style="opacity:1;fill:#293b1b;fill-opacity:1;fill-rule:nonzero;stroke:none;stroke-width:1.05785561;stroke-miterlimit:4;stroke-dasharray:none;stroke-opacity:1"
       d="m 99.158272,-4.0798494 c 0,-0.202095 0.0878,-0.667785 0.195,-1.034865 0.10726,-0.367081 0.32398,-1.785073 0.48162,-3.151095 0.421718,-3.6544776 1.521518,-9.3680996 1.594878,-8.2856466 0.0442,0.651724 -1.14871,8.3447626 -1.622468,10.4635646 -0.49686,2.222124 -0.64903,2.692897 -0.64903,2.008042 z"
       id="path27385"
       inkscape:connector-curvature="0" />
    <path
       style="opacity:1;fill:#293b1b;fill-opacity:1;fill-rule:nonzero;stroke:none;stroke-width:1.05785561;stroke-miterlimit:4;stroke-dasharray:none;stroke-opacity:1"
       d="m 83.587542,15.621594 -0.57316,-0.46981 0.58272,-0.0069 c 0.32049,-0.0038 0.66436,-0.08207 0.76419,-0.173969 0.0998,-0.0919 0.95528,-0.402891 1.90098,-0.691086 0.9457,-0.288195 1.82404,-0.60801 1.95186,-0.7107 0.12782,-0.102687 0.32784,-0.154892 0.4445,-0.116004 0.16798,0.05599 -4.17444,2.642793 -4.43037,2.639198 -0.0372,-5.29e-4 -0.32549,-0.212363 -0.64072,-0.47076 z"
       id="path27387"
       inkscape:connector-curvature="0" />
    <path
       style="opacity:1;fill:#293b1b;fill-opacity:1;fill-rule:nonzero;stroke:none;stroke-width:1.05785561;stroke-miterlimit:4;stroke-dasharray:none;stroke-opacity:1"
       d="m 95.104942,22.9174 c 0.54808,-0.554966 0.9965,-1.099052 0.9965,-1.209079 0,-0.11003 -0.83823,-0.474909 -1.86275,-0.810848 -1.81041,-0.593632 -8.34483,-3.639727 -8.17409,-3.810455 0.0893,-0.0893 10.78712,4.12532 11.04585,4.351732 0.14322,0.125315 -2.57487,2.487679 -2.86226,2.487679 -0.0769,0 0.30869,-0.454062 0.85675,-1.009029 z"
       id="path27389"
       inkscape:connector-curvature="0" />
    <path
       style="opacity:1;fill:#293b1b;fill-opacity:1;fill-rule:nonzero;stroke:none;stroke-width:1.05785561;stroke-miterlimit:4;stroke-dasharray:none;stroke-opacity:1"
       d="m 215.29517,-3.4184184 c -0.008,-0.171053 0.10385,-0.600921 0.24979,-0.955259 0.14597,-0.354338 0.32478,-1.117103 0.39735,-1.695035 0.0726,-0.577932 0.20548,-1.351693 0.29533,-1.719466 0.0898,-0.367776 0.25361,-1.594588 0.36391,-2.7262506 0.11255,-1.154954 0.33835,-2.324097 0.51472,-2.665137 l 0.31417,-0.607566 0.34517,0.426244 c 0.18981,0.234434 0.4376,0.917906 0.55057,1.518825 0.11298,0.600919 0.28364,1.350499 0.3792,1.665735 0.0956,0.3152366 0.22141,1.0460086 0.27964,1.6239406 0.12563,1.246827 -0.0573,0.727146 -0.56036,-1.5917466 -0.17851,-0.82292 -0.39116,-1.424734 -0.47252,-1.337363 -0.0814,0.08737 -0.58369,1.7203126 -1.11627,3.6287576 -0.96314,3.45136 -1.51096,5.027999 -1.5407,4.434321 z"
       id="path27391"
       inkscape:connector-curvature="0" />
    <path
       style="opacity:1;fill:#293b1b;fill-opacity:1;fill-rule:nonzero;stroke:none;stroke-width:1.05785561;stroke-miterlimit:4;stroke-dasharray:none;stroke-opacity:1"
       d="m 208.60126,5.6572006 c -0.36308,-0.257778 -0.68963,-0.49816 -0.72567,-0.534189 -0.036,-0.03602 0.50779,-0.380613 1.20846,-0.765751 0.70067,-0.385139 1.30429,-0.669923 1.34136,-0.632855 0.0371,0.03707 -0.23117,0.348994 -0.59606,0.693166 -0.69013,0.650955 -0.82507,1.120855 -0.43415,1.511771 0.38873,0.388729 -0.0981,0.221859 -0.79394,-0.272142 z"
       id="path27393"
       inkscape:connector-curvature="0" />
    <path
       style="opacity:1;fill:#293b1b;fill-opacity:1;fill-rule:nonzero;stroke:none;stroke-width:1.05785561;stroke-miterlimit:4;stroke-dasharray:none;stroke-opacity:1"
       d="m 207.7102,18.820343 -0.97808,-0.28531 -0.0996,-1.841784 -0.0997,-1.841783 1.17639,-1.146312 c 0.64701,-0.630471 1.50952,-1.556867 1.91669,-2.058657 1.15988,-1.429396 1.02463,-0.915905 -0.26323,0.999416 -2.16705,3.222863 -2.39147,4.299458 -1.152,5.526595 1.09437,1.083482 1.07572,1.107612 -0.50046,0.647835 z"
       id="path27395"
       inkscape:connector-curvature="0" />
    <path
       style="opacity:1;fill:#293b1b;fill-opacity:1;fill-rule:nonzero;stroke:none;stroke-width:1.05785561;stroke-miterlimit:4;stroke-dasharray:none;stroke-opacity:1"
       d="m 219.9126,47.098999 c -2.92814,-1.612196 -7.44106,-7.087063 -9.0905,-11.028153 -1.42605,-3.40741 -2.97241,-9.20255 -3.11309,-11.666786 l -0.0873,-1.528416 0.69665,-0.764207 c 0.39918,-0.437909 0.63547,-0.601059 0.55337,-0.382103 -0.0788,0.210156 -0.18147,1.155864 -0.22822,2.101569 -0.15301,3.096417 1.19755,8.138528 3.37753,12.609423 1.52848,3.134725 2.8362,5.067075 4.66924,6.89951 3.11917,3.118136 5.84925,4.188333 5.84925,2.292922 0,-0.94007 -0.83751,-1.949365 -3.21056,-3.869095 -1.15128,-0.931344 -1.97623,-1.720823 -1.83325,-1.754399 0.14298,-0.03357 0.97094,0.558853 1.83992,1.316509 1.91603,1.670592 3.45694,2.698676 4.73215,3.15723 0.52546,0.188958 0.95541,0.402222 0.95541,0.473919 0,0.172583 -1.85275,1.566188 -2.58694,1.945852 -0.98539,0.509571 -1.83467,0.575604 -2.5237,0.196225 z"
       id="path27397"
       inkscape:connector-curvature="0" />
    <path
       style="opacity:1;fill:#293b1b;fill-opacity:1;fill-rule:nonzero;stroke:none;stroke-width:1.05785561;stroke-miterlimit:4;stroke-dasharray:none;stroke-opacity:1"
       d="m 225.8694,7.3268646 c 0.15886,-0.257027 -0.2685,-1.377712 -0.79631,-2.088304 -0.56137,-0.755724 -0.46509,-0.946481 0.27125,-0.537456 0.8787,0.488109 1.98651,0.884346 2.47247,0.884346 0.24988,0 0.45429,0.08597 0.45429,0.191053 0,0.105077 -0.0782,0.19105 -0.17388,0.19105 -0.0956,0 -0.60897,0.343895 -1.1407,0.764207 -0.94014,0.743154 -1.30056,0.940438 -1.08712,0.595104 z"
       id="path27399"
       inkscape:connector-curvature="0" />
    <path
       style="opacity:1;fill:#293b1b;fill-opacity:1;fill-rule:nonzero;stroke:none;stroke-width:1.05785561;stroke-miterlimit:4;stroke-dasharray:none;stroke-opacity:1"
       d="m 229.22831,16.392765 c -2.24202,-1.236607 -4.20216,-2.655623 -4.36541,-3.160289 -0.0501,-0.154895 0.30107,0.06004 0.78042,0.477628 1.21557,1.059011 4.07802,2.437569 6.01898,2.898759 0.2364,0.05618 0.42711,0.156599 0.42378,0.223158 -0.008,0.153889 -0.48906,0.792707 -0.58814,0.780595 -0.041,-0.005 -1.06228,-0.55394 -2.26963,-1.219851 z"
       id="path27401"
       inkscape:connector-curvature="0" />
    <path
       style="opacity:1;fill:#293b1b;fill-opacity:1;fill-rule:nonzero;stroke:none;stroke-width:1.05785561;stroke-miterlimit:4;stroke-dasharray:none;stroke-opacity:1"
       d="m 221.58429,30.571952 c 0.0525,-0.0562 0.98232,-0.805749 2.06616,-1.665679 2.85639,-2.266251 3.85646,-3.276044 3.85646,-3.893936 0,-0.59867 0.0608,-0.620559 0.55295,-0.199144 0.35568,0.304549 0.33869,0.348708 -0.58851,1.528538 -1.20494,1.533244 -2.05433,2.259501 -3.81691,3.263545 -1.30386,0.742746 -2.29232,1.204312 -2.07015,0.966676 z"
       id="path27403"
       inkscape:connector-curvature="0" />
    <path
       style="opacity:1;fill:#293b1b;fill-opacity:1;fill-rule:nonzero;stroke:none;stroke-width:1.05785561;stroke-miterlimit:4;stroke-dasharray:none;stroke-opacity:1"
       d="m 224.00507,34.877133 c -1.86161,-1.534737 -3.34706,-2.828142 -3.30097,-2.874229 0.0461,-0.04608 0.86498,0.441457 1.81972,1.083431 2.5403,1.708095 3.5569,2.275338 4.5062,2.514378 1.04857,0.264028 1.30781,0.543695 1.07405,1.158566 -0.42304,1.112676 -0.52078,1.0678 -4.099,-1.882146 z"
       id="path27405"
       inkscape:connector-curvature="0" />
    <path
       style="opacity:1;fill:#293b1b;fill-opacity:1;fill-rule:nonzero;stroke:none;stroke-width:1.05785561;stroke-miterlimit:4;stroke-dasharray:none;stroke-opacity:1"
       d="m 245.47762,6.9948626 c -0.0124,-0.223306 0.41563,-1.266643 1.32482,-3.229864 0.29337,-0.633474 0.76129,-1.70814 1.03981,-2.388148 0.27853,-0.68000799 0.58394,-1.40832399 0.67869,-1.61848299 0.0947,-0.210156 0.36136,-0.83808301 0.59253,-1.39539101 0.23117,-0.55731 0.47977,-0.944189 0.55248,-0.859734 0.0727,0.08446 0.32819,0.712382 0.56771,1.395394 0.23953,0.68300801 0.60331,1.61559001 0.80839,2.07240101 0.20505,0.45681099 0.33819,0.86520899 0.29585,0.90754799 -0.0423,0.04234 -0.40267,-0.395894 -0.80073,-0.97385499 -0.39804,-0.577958 -0.83598,-1.050835 -0.97317,-1.050835 -0.41047,0 -0.96829,0.86392 -2.13952,3.31363399 -0.61071,1.277318 -1.29593,2.709275 -1.52268,3.182128 -0.22677,0.472855 -0.41765,0.763196 -0.42418,0.645205 z"
       id="path27407"
       inkscape:connector-curvature="0" />
    <path
       style="opacity:1;fill:#293b1b;fill-opacity:1;fill-rule:nonzero;stroke:none;stroke-width:1.05785561;stroke-miterlimit:4;stroke-dasharray:none;stroke-opacity:1"
       d="m 284.05826,-14.227814 c 0,-0.177961 0.28258,-0.889735 1.04627,-2.635329 0.26908,-0.615024 0.972,-2.240095 1.23957,-2.865776 0.0899,-0.210159 0.33444,-0.768985 0.54343,-1.241838 0.20902,-0.472853 0.61862,-1.418561 0.91022,-2.101569 0.67723,-1.586245 0.75001,-1.66108 0.98578,-1.013653 0.10737,0.294812 0.64143,1.739648 1.18682,3.210747 1.39163,3.753753 1.36398,3.811159 -0.28427,0.590376 l -1.45777,-2.84856 -1.98268,4.449749 c -1.94191,4.358288 -2.18737,4.858314 -2.18737,4.455853 z"
       id="path27409"
       inkscape:connector-curvature="0" />
    <path
       style="opacity:1;fill:#293b1b;fill-opacity:1;fill-rule:nonzero;stroke:none;stroke-width:1.05785561;stroke-miterlimit:4;stroke-dasharray:none;stroke-opacity:1"
       d="m 326.04422,13.909529 -0.9052,-0.434063 1.732,-0.122938 c 0.9526,-0.06762 2.2045,-0.260316 2.7821,-0.428223 0.5776,-0.167907 1.0905,-0.264885 1.1399,-0.215506 0.071,0.07108 -2.8253,1.320694 -3.6526,1.575861 -0.105,0.03241 -0.5984,-0.136398 -1.0962,-0.375131 z"
       id="path27411"
       inkscape:connector-curvature="0" />
    <path
       style="opacity:1;fill:#293b1b;fill-opacity:1;fill-rule:nonzero;stroke:none;stroke-width:1.05785561;stroke-miterlimit:4;stroke-dasharray:none;stroke-opacity:1"
       d="m 353.79492,-32.372567 c -1.8506,-7.894887 -3.1033,-11.366048 -3.8372,-10.632194 -0.1035,0.103531 -0.3079,0.740388 -0.4543,1.41524 l -0.2661,1.227 -0.013,-1.050785 c -0.027,-2.137016 0.4806,-3.418787 1.2556,-3.172828 0.624,0.198041 1.5431,2.473878 1.9758,4.892295 0.1222,0.683011 0.2906,1.413785 0.3743,1.623941 0.084,0.210158 0.2989,1.155864 0.4781,2.101572 0.1793,0.945705 0.4076,2.149332 0.5072,2.674726 0.1,0.525391 0.2571,1.127204 0.3497,1.337363 0.2261,0.512659 0.6325,2.783956 0.5186,2.897888 -0.05,0.04977 -0.4497,-1.44163 -0.8886,-3.314218 z"
       id="path27413"
       inkscape:connector-curvature="0" />
    <path
       style="opacity:1;fill:#293b1b;fill-opacity:1;fill-rule:nonzero;stroke:none;stroke-width:1.05785561;stroke-miterlimit:4;stroke-dasharray:none;stroke-opacity:1"
       d="m 365.63742,-5.3891614 c 0,-0.04656 0.2579,-0.854496 0.5731,-1.79541 0.6484,-1.935207 0.7056,-2.622111 0.2704,-3.2435396 -0.2966,-0.42345 -0.2917,-0.429668 0.2388,-0.302744 0.2979,0.07127 0.6318,0.199847 0.7419,0.285723 0.1102,0.08587 0.7467,0.224473 1.4145,0.307996 l 1.2141,0.1518606 -1.0985,0.938 c -0.6042,0.515901 -1.5735,1.569075 -2.154,2.340386 -0.975,1.295376 -1.2003,1.542719 -1.2003,1.317728 z"
       id="path27415"
       inkscape:connector-curvature="0" />
    <path
       style="opacity:1;fill:#293b1b;fill-opacity:1;fill-rule:nonzero;stroke:none;stroke-width:1.05785561;stroke-miterlimit:4;stroke-dasharray:none;stroke-opacity:1"
       d="m 362.89102,3.9094976 c 0.6278,-0.510397 1.0585,-1.298927 1.409,-2.579338 l 0.3208,-1.17209899 0.1215,0.755415 c 0.1246,0.77456199 0.5471,1.72530499 1.1421,2.57040599 0.3329,0.472826 0.3309,0.478842 -0.1942,0.598312 -0.2917,0.06638 -1.1323,0.128945 -1.8678,0.139042 -1.2953,0.01778 -1.3246,0.008 -0.9314,-0.311738 z"
       id="path27417"
       inkscape:connector-curvature="0" />
    <path
       style="opacity:1;fill:#293b1b;fill-opacity:1;fill-rule:nonzero;stroke:none;stroke-width:1.05785561;stroke-miterlimit:4;stroke-dasharray:none;stroke-opacity:1"
       d="m 361.72082,15.253924 c -3.5918,-0.878821 -9.2388,-3.790773 -11.6541,-6.0096484 -1.1961,-1.098769 -3.9287,-4.092572 -3.8276,-4.19358 0.1348,-0.134834 1.6743,1.02243 4.4007,3.308078 5.1231,4.2948624 7.9332,5.7701444 9.6425,5.0621514 1.3205,-0.547002 1.1901,-2.35481 -0.4159,-5.7643904 -0.5275,-1.120092 -0.9233,-2.144186 -0.8795,-2.275763 0.044,-0.131575 0.6681,1.085771 1.3872,2.705214 0.7191,1.619443 1.7676,3.9242814 2.3301,5.1218604 0.5625,1.19758 1.0227,2.207768 1.0227,2.24486 0,0.135514 -1.0752,0.02897 -2.0061,-0.198782 z"
       id="path27419"
       inkscape:connector-curvature="0" />
    <path
       style="opacity:1;fill:#293b1b;fill-opacity:1;fill-rule:nonzero;stroke:none;stroke-width:1.05785561;stroke-miterlimit:4;stroke-dasharray:none;stroke-opacity:1"
       d="m 326.18522,45.728069 c -3.403,-1.23466 -11.4901,-6.154582 -13.9033,-8.458229 l -0.8077,-0.771078 0.6043,-0.50687 c 0.5675,-0.476057 4.4199,-2.51287 4.7528,-2.51287 0.084,0 -0.3768,0.479369 -1.0242,1.065268 -1.7951,1.62451 -1.8882,2.68691 -0.371,4.237286 1.0478,1.070748 3.115,2.393937 6.0063,3.844571 5.2925,2.655369 8.922,3.13844 12.0983,1.610217 1.2839,-0.617773 3.6534,-2.952949 4.5524,-4.486593 2.1942,-3.743108 4.7002,-12.711972 5.7667,-20.638902 0.2162,-1.607121 0.4797,-4.985401 0.5854,-7.507285 0.1058,-2.5218844 0.2721,-4.9291374 0.3695,-5.3494514 0.2382,-1.027743 0.072,8.6336084 -0.1988,11.5586374 -1.1697,12.632248 -4.608,22.223421 -9.2172,25.711515 -2.9571,2.237873 -6.6711,3.12623 -9.2135,2.203784 z"
       id="path27421"
       inkscape:connector-curvature="0" />
    <path
       style="opacity:1;fill:#293b1b;fill-opacity:1;fill-rule:nonzero;stroke:none;stroke-width:1.05785561;stroke-miterlimit:4;stroke-dasharray:none;stroke-opacity:1"
       d="m 306.60843,24.48072 c -5.13924,-2.801138 -12.58779,-9.366454 -15.47656,-13.641342 -1.01648,-1.5042414 -1.60226,-2.5737274 -1.47783,-2.6981634 0.0459,-0.0459 2.02131,2.0039574 4.38978,4.5552364 2.36847,2.551279 4.52221,4.810636 4.78605,5.020794 0.26382,0.210156 1.22976,1.049735 2.14649,1.865728 2.09793,1.867384 4.00187,3.295007 5.73748,4.302091 2.452,1.422783 2.36054,1.939724 -0.10541,0.595656 z"
       id="path27423"
       inkscape:connector-curvature="0" />
    <path
       style="opacity:1;fill:#293b1b;fill-opacity:1;fill-rule:nonzero;stroke:none;stroke-width:1.05785561;stroke-miterlimit:4;stroke-dasharray:none;stroke-opacity:1"
       d="m 279.43258,39.583502 c -2.74024,-0.326107 -5.31268,-2.521334 -7.1033,-6.061697 -1.20131,-2.375194 -4.45854,-11.048312 -4.2337,-11.27316 0.1184,-0.118396 0.97486,1.761543 2.22522,4.884383 4.54914,11.361764 9.24605,14.559618 15.22135,10.363337 2.72463,-1.913437 2.75953,-2.390285 0.40227,-5.49666 -0.33835,-0.44585 -0.56557,-0.860221 -0.50495,-0.920824 0.21904,-0.219051 1.66573,0.693211 2.18995,1.380958 0.43175,0.566465 0.53388,0.89304 0.5233,1.673469 -0.0159,1.162296 -0.41051,1.974119 -1.45074,2.983634 -1.87484,1.819471 -4.68749,2.773823 -7.2694,2.46656 z"
       id="path27425"
       inkscape:connector-curvature="0" />
    <path
       style="opacity:1;fill:#293b1b;fill-opacity:1;fill-rule:nonzero;stroke:none;stroke-width:1.05785561;stroke-miterlimit:4;stroke-dasharray:none;stroke-opacity:1"
       d="m 406.22862,-13.919108 -1.2301,-1.129041 h 1.1439 1.144 l -0.076,0.64693 c -0.042,0.355812 0.026,0.836028 0.1493,1.067147 0.1237,0.231121 0.1965,0.448072 0.1617,0.482113 -0.035,0.03404 -0.6168,-0.446178 -1.2933,-1.067149 z"
       id="path27427"
       inkscape:connector-curvature="0" />
    <path
       style="opacity:1;fill:#293b1b;fill-opacity:1;fill-rule:nonzero;stroke:none;stroke-width:1.05785561;stroke-miterlimit:4;stroke-dasharray:none;stroke-opacity:1"
       d="m 428.81002,-30.85769 c -1.1442,-2.432965 -1.6485,-3.991819 -1.9601,-6.059366 -0.2658,-1.764054 -1.3543,-6.320803 -1.9411,-8.126235 -1.5153,-4.661948 -2.628,-3.892151 -4.2804,2.961304 l -0.4606,1.910519 0.1135,-1.521045 c 0.062,-0.836573 0.1812,-1.698974 0.2638,-1.916443 0.083,-0.217472 0.2579,-1.080521 0.3893,-1.91789 0.1314,-0.83737 0.3008,-1.608463 0.3764,-1.71354 0.076,-0.105079 0.1979,-0.448971 0.2718,-0.764209 0.1752,-0.747369 0.8975,-1.812023 1.2306,-1.813687 0.2706,-0.0013 1.354,1.116499 1.3594,1.40271 0,0.0892 0.1315,0.433093 0.2884,0.764209 0.3768,0.79516 0.8545,2.485972 1.8162,6.42911 1.2494,5.122453 1.5953,6.387489 1.7673,6.463922 0.079,0.03503 0.1433,0.225809 0.1433,0.423963 0,0.411792 0.8312,3.048574 1.2315,3.906544 0.3071,0.658246 0.5705,1.623941 0.443,1.623941 -0.047,0 -0.521,-0.924213 -1.0523,-2.053807 z"
       id="path27429"
       inkscape:connector-curvature="0" />
    <path
       style="opacity:1;fill:#293b1b;fill-opacity:1;fill-rule:nonzero;stroke:none;stroke-width:1.05785561;stroke-miterlimit:4;stroke-dasharray:none;stroke-opacity:1"
       d="m 406.73992,3.2249386 c -1.0257,-0.217871 -1.8425,-0.454305 -1.815,-0.525412 0.095,-0.244679 2.0868,-1.73228499 2.1864,-1.632688 0.055,0.05484 -0.038,0.296346 -0.2063,0.536678 -0.5816,0.830247 -0.3119,1.307208 0.7391,1.307208 0.2425,0 0.6438,0.169088 0.8919,0.375748 0.531,0.442315 0.5848,0.444159 -1.7961,-0.06153 z"
       id="path27431"
       inkscape:connector-curvature="0" />
    <path
       style="opacity:1;fill:#293b1b;fill-opacity:1;fill-rule:nonzero;stroke:none;stroke-width:1.05785561;stroke-miterlimit:4;stroke-dasharray:none;stroke-opacity:1"
       d="m 453.42512,-32.166518 c -1.6474,-7.423028 -3.3558,-12.841309 -4.1444,-13.143915 -0.1458,-0.05596 -0.4828,0.131712 -0.7489,0.417041 -0.7311,0.783802 -2.9371,5.412876 -4.572,9.593747 -1.7677,4.520722 -1.8697,4.742429 -1.7164,3.732112 0.063,-0.416681 0.2262,-0.97551 0.3621,-1.241837 0.136,-0.266327 0.3105,-0.785138 0.3878,-1.152912 0.077,-0.367776 0.2035,-0.754655 0.2804,-0.859734 0.077,-0.105079 0.3757,-0.964811 0.664,-1.910519 0.2883,-0.945706 0.6363,-1.977385 0.7733,-2.292623 0.1369,-0.315235 0.3092,-0.858359 0.3827,-1.206942 0.073,-0.348583 0.254,-0.864423 0.4011,-1.146313 0.1471,-0.281887 0.2679,-0.657902 0.2685,-0.835588 0,-0.177686 0.075,-0.368911 0.1661,-0.424945 0.091,-0.05603 0.2786,-0.508312 0.4177,-1.005067 0.2653,-0.947539 0.9106,-2.264355 1.5491,-3.161073 0.4643,-0.65198 1.1383,-0.691933 1.7034,-0.100959 0.6479,0.677648 1.8847,3.563252 2.1906,5.110636 0.073,0.367776 0.1955,0.754655 0.2731,0.859734 0.078,0.105077 0.2521,0.878838 0.3881,1.719467 0.1358,0.840629 0.3108,1.614387 0.3888,1.719466 0.078,0.105079 0.2048,0.746421 0.282,1.425205 0.077,0.678783 0.213,1.36657 0.3019,1.528416 0.089,0.161843 0.2988,1.19698 0.4661,2.300306 0.1674,1.103323 0.3862,2.518179 0.4863,3.144125 0.4048,2.532322 0.01,1.246585 -0.9514,-3.067828 z"
       id="path27433"
       inkscape:connector-curvature="0" />
    <path
       style="opacity:1;fill:#293b1b;fill-opacity:1;fill-rule:nonzero;stroke:none;stroke-width:1.05785561;stroke-miterlimit:4;stroke-dasharray:none;stroke-opacity:1"
       d="m 462.93462,-3.9498444 c 2.006,-1.138526 4.4188,-3.3699 4.4188,-4.086582 0,-0.489389 -0.5344,-1.062194 -1.4329,-1.535867 -0.6224,-0.32812 -0.3863,-0.4286666 0.3254,-0.138567 0.2413,0.09839 0.769,0.232711 1.1726,0.298495 l 0.7338,0.119605 -0.1266,1.182158 c -0.1731,1.615612 -0.2054,1.689769 -0.9743,2.232941 -0.3719,0.262696 -0.7815,0.572775 -0.9102,0.689062 -0.5026,0.453879 -2.8749,1.599433 -3.5356,1.707343 -0.6847,0.111807 -0.6788,0.103388 0.329,-0.468588 z"
       id="path27435"
       inkscape:connector-curvature="0" />
    <path
       style="opacity:1;fill:#293b1b;fill-opacity:1;fill-rule:nonzero;stroke:none;stroke-width:1.05785561;stroke-miterlimit:4;stroke-dasharray:none;stroke-opacity:1"
       d="m 484.49592,5.2033476 c -0.2671,-0.210159 -0.5439,-0.382104 -0.615,-0.382104 -0.071,0 -0.6459,-0.405809 -1.2772,-0.9018 -1.0666,-0.838023 -1.1161,-0.910286 -0.699,-1.021818 0.5859,-0.156692 1.6862,-0.728634 2.0609,-1.071245 1.1453,-1.04733499 2.3217,-2.31229999 2.4117,-2.59340399 0.097,-0.30296901 0.4634,-0.48350701 0.4634,-0.228333 0,0.05831 -0.3485,0.619081 -0.7743,1.246167 -1.795,2.64321899 -2.0976,3.85769099 -1.196,4.79879299 0.5914,0.617318 0.344,0.718896 -0.3745,0.153744 z"
       id="path27437"
       inkscape:connector-curvature="0" />
    <path
       style="opacity:1;fill:#293b1b;fill-opacity:1;fill-rule:nonzero;stroke:none;stroke-width:1.05785561;stroke-miterlimit:4;stroke-dasharray:none;stroke-opacity:1"
       d="m 504.10972,2.6103066 c 0.1725,-0.4493 -0.1688,-0.943862 -1.1254,-1.63081799 -1.0018,-0.719389 -1.0007,-0.887447 0,-0.468103 0.3926,0.164039 1.2599,0.29777 1.9312,0.29777 0.6701,0 1.2185,0.06771 1.2185,0.150468 0,0.19879499 -1.7831,1.95110099 -1.9853,1.95110099 -0.087,0 -0.1053,-0.135189 -0.042,-0.300418 z"
       id="path27439"
       inkscape:connector-curvature="0" />
    <path
       style="opacity:1;fill:#293b1b;fill-opacity:1;fill-rule:nonzero;stroke:none;stroke-width:1.05785561;stroke-miterlimit:4;stroke-dasharray:none;stroke-opacity:1"
       d="m 498.13382,-6.8738204 c -0.121,-0.450358 -0.5984,-2.420845 -1.0609,-4.3788616 -1.5313,-6.482554 -2.3723,-7.415581 -3.9987,-4.436605 -0.6842,1.253082 -0.7098,1.276718 -0.5914,0.54561 0.068,-0.420312 0.1901,-0.85018 0.2712,-0.955257 0.081,-0.105079 0.2092,-0.447622 0.2844,-0.761206 0.2062,-0.859906 0.9794,-2.466668 1.325,-2.753455 0.4602,-0.381913 0.767,-0.16025 1.3357,0.964935 0.6911,1.367314 1.3796,4.201623 2.1276,8.7589096 0.1465,0.893167 0.3624,2.084131 0.4795,2.646585 0.2586,1.241321 0.1337,1.508926 -0.1724,0.369345 z"
       id="path27441"
       inkscape:connector-curvature="0" />
    <path
       style="opacity:1;fill:#293b1b;fill-opacity:1;fill-rule:nonzero;stroke:none;stroke-width:1.05785561;stroke-miterlimit:4;stroke-dasharray:none;stroke-opacity:1"
       d="m 510.34012,18.26117 c 0,-0.09393 0.6939,-0.856556 1.542,-1.694719 1.6651,-1.645555 4.5001,-4.836973 5.0329,-5.665627 0.3145,-0.489251 0.313,-0.520263 -0.035,-0.706612 -0.5109,-0.2734124 -3.2299,-0.5906984 -5.3884,-0.6287874 -1.9768,-0.03489 -1.8634,-0.0487 2.9563,-0.360072 1.7863,-0.115406 3.5703,-0.28017 3.9643,-0.366141 0.394,-0.08597 0.7164,-0.121144 0.7164,-0.07816 0,0.266829 -4.1789,5.3909414 -5.4449,6.6765034 -1.6363,1.661536 -3.3434,3.103235 -3.3434,2.823615 z"
       id="path27443"
       inkscape:connector-curvature="0" />
    <path
       style="opacity:1;fill:#293b1b;fill-opacity:1;fill-rule:nonzero;stroke:none;stroke-width:1.05785561;stroke-miterlimit:4;stroke-dasharray:none;stroke-opacity:1"
       d="m 506.23242,28.388251 c -2.7302,-0.383254 -6.4272,-1.097807 -7.4042,-1.431073 -4.5943,-1.567156 -9.5185,-5.14504 -13.5048,-9.812576 -2.1855,-2.558939 -5.112,-6.521926 -4.9419,-6.692088 0.04,-0.04039 1.1449,1.187027 2.4543,2.72759 4.5685,5.374627 10.09,10.45283 12.7473,11.723934 2.9719,1.421595 7.1942,2.262446 12.0822,2.406134 4.7984,0.141052 6.9092,-0.336177 7.0313,-1.589723 0.049,-0.507569 -0.09,-0.727165 -0.9553,-1.507297 -0.5572,-0.502242 -0.8411,-0.860107 -0.631,-0.795255 0.2102,0.06485 0.9839,0.207304 1.7195,0.316558 0.7355,0.109252 1.6251,0.262456 1.9768,0.340453 l 0.6395,0.141811 -1.6903,1.48595 c -0.9296,0.817272 -2.2466,1.762144 -2.9266,2.099715 -1.1804,0.586002 -1.3446,0.614952 -3.63,0.640043 -1.3165,0.01445 -2.6515,-0.0099 -2.9668,-0.05418 z"
       id="path27445"
       inkscape:connector-curvature="0" />
    <path
       style="opacity:1;fill:#293b1b;fill-opacity:1;fill-rule:nonzero;stroke:none;stroke-width:1.05785561;stroke-miterlimit:4;stroke-dasharray:none;stroke-opacity:1"
       d="m 532.78862,22.320532 c -1.2691,-0.403511 -3.1604,-1.428848 -4.7762,-2.589363 -1.9545,-1.403721 -2.218,-1.536295 -3.0538,-1.536295 -0.8108,0 -1.6032,0.375917 -2.7256,1.293053 -0.4466,0.364921 -0.8119,0.60452 -0.8119,0.532439 0,-0.07208 0.4111,-0.834702 0.9136,-1.694717 0.5025,-0.860015 1.0743,-1.92905 1.2708,-2.375635 0.1965,-0.446583 0.4125,-0.811969 0.48,-0.811969 0.068,0 0.4364,0.408373 0.8196,0.907497 2.4822,3.232845 5.9894,5.610309 9.3164,6.315429 l 0.8598,0.182208 -0.7642,0.01016 c -0.4204,0.0056 -1.1081,-0.09918 -1.5285,-0.232809 z"
       id="path27447"
       inkscape:connector-curvature="0" />
    <path
       style="opacity:1;fill:#293b1b;fill-opacity:1;fill-rule:nonzero;stroke:none;stroke-width:1.05785561;stroke-miterlimit:4;stroke-dasharray:none;stroke-opacity:1"
       d="m 478.40122,7.5488126 -0.3127,-0.530474 3.182,-0.01505 3.182,-0.01505 -2.1015,0.42858 c -3.6376,0.741809 -3.5913,0.740264 -3.9498,0.132019 z"
       id="path27449"
       inkscape:connector-curvature="0" />
    <path
       style="opacity:1;fill:#293b1b;fill-opacity:1;fill-rule:nonzero;stroke:none;stroke-width:1.05785561;stroke-miterlimit:4;stroke-dasharray:none;stroke-opacity:1"
       d="m 450.59332,24.396601 c -5.2093,-1.403061 -10.4352,-7.66608 -15.3111,-18.3498074 -1.6287,-3.568567 -4.4613,-10.72276 -4.3829,-11.069589 0.032,-0.142907 0.9111,1.605166 1.953,3.884607 5.2366,11.4572764 8.3445,16.9449324 11.6911,20.6430274 1.8489,2.04315 6.0067,4.495975 8.0265,4.735195 1.3754,0.162901 2.4885,-0.381609 4.0691,-1.990712 3.0048,-3.058909 6.0366,-8.88892 7.776,-14.9530334 0.5862,-2.043438 0.5562,-3.284762 -0.1,-4.118456 -0.2329,-0.295992 -0.9986,-0.955665 -1.7017,-1.46594 -2.1068,-1.52890799 -3.4755,-3.014155 -3.4755,-3.771223 0,-0.117001 0.781,0.565333 1.7356,1.51630401 1.5928,1.58674499 2.1483,2.03625699 4.2347,3.42637499 0.3941,0.262543 0.7165,0.604115 0.7165,0.759044 0,0.15493 -0.3088,1.401874 -0.6863,2.770987 -2.3407,8.4908184 -5.3537,14.6043254 -8.2961,16.8329954 -1.8005,1.363795 -3.9723,1.763525 -6.2493,1.150226 z"
       id="path27451"
       inkscape:connector-curvature="0" />
    <path
       style="opacity:1;fill:#293b1b;fill-opacity:1;fill-rule:nonzero;stroke:none;stroke-width:1.05785561;stroke-miterlimit:4;stroke-dasharray:none;stroke-opacity:1"
       d="m 537.18282,9.3975016 c -0.6304,-0.301726 -1.2752,-0.555461 -1.4328,-0.563859 -0.1577,-0.0084 0,-0.139168 0.3473,-0.290603 0.3486,-0.151437 0.8897,-0.457525 1.2025,-0.680201 l 0.5686,-0.404863 -0.1104,0.448863 c -0.066,0.26905 0.044,0.749787 0.2752,1.200039 0.2122,0.413147 0.3655,0.770983 0.3408,0.795195 -0.025,0.02421 -0.5607,-0.202846 -1.1912,-0.504571 z"
       id="path27453"
       inkscape:connector-curvature="0" />
    <path
       style="opacity:1;fill:#293b1b;fill-opacity:1;fill-rule:nonzero;stroke:none;stroke-width:1.05785561;stroke-miterlimit:4;stroke-dasharray:none;stroke-opacity:1"
       d="m 536.23712,15.182098 -1.7099,-0.695669 1.0466,-0.31069 c 0.5757,-0.170878 1.2804,-0.463891 1.5662,-0.651137 l 0.5196,-0.340447 -0.1193,0.59659 c -0.091,0.457327 0,0.774565 0.3852,1.359048 0.3069,0.463725 0.41,0.757661 0.2631,0.750216 -0.1329,-0.0067 -1.011,-0.325292 -1.9515,-0.707911 z"
       id="path27455"
       inkscape:connector-curvature="0" />
    <path
       style="opacity:1;fill:#293b1b;fill-opacity:1;fill-rule:nonzero;stroke:none;stroke-width:1.05785561;stroke-miterlimit:4;stroke-dasharray:none;stroke-opacity:1"
       d="m 549.17112,8.0811776 c -0.26,-1.398436 -0.7048,-2.101799 -1.4196,-2.244743 -1.0356,-0.207132 -2.4034,-1.884961 -4.5362,-5.56467999 -0.7411,-1.27841901 -1.213,-1.76654901 -1.4647,-1.51486901 -0.053,0.05308 -0.1429,0.72999101 -0.1996,1.50425401 -0.057,0.77426099 -0.2374,1.83761299 -0.4013,2.36300699 -0.2938,0.941647 -1.5241,3.079599 -1.6816,2.922127 -0.044,-0.0445 0.1688,-0.562073 0.4739,-1.150154 0.8023,-1.546482 1.313,-3.56556699 1.5301,-6.04959 0.1046,-1.196826 0.2192,-2.205061 0.2547,-2.24052 0.035,-0.03546 0.2223,0.384934 0.4153,0.934209 0.9426,2.68358701 2.6056,5.464707 4.2913,7.176744 1.3309,1.351721 2.6284,2.102458 4.0807,2.360996 l 1.1039,0.196527 -0.6981,0.520533 c -0.384,0.286293 -0.8873,0.834036 -1.1186,1.217205 l -0.4204,0.696672 z"
       id="path27457"
       inkscape:connector-curvature="0" />
    <path
       style="opacity:1;fill:#293b1b;fill-opacity:1;fill-rule:nonzero;stroke:none;stroke-width:1.05785561;stroke-miterlimit:4;stroke-dasharray:none;stroke-opacity:1"
       d="m 554.28202,14.182785 c 0,-0.105079 0.091,-0.191053 0.2023,-0.191053 0.1113,0 0.1492,0.08597 0.084,0.191053 -0.065,0.105079 -0.156,0.19105 -0.2024,0.19105 -0.046,0 -0.084,-0.08597 -0.084,-0.19105 z"
       id="path27459"
       inkscape:connector-curvature="0" />
    <path
       style="opacity:1;fill:#293b1b;fill-opacity:1;fill-rule:nonzero;stroke:none;stroke-width:1.05785561;stroke-miterlimit:4;stroke-dasharray:none;stroke-opacity:1"
       d="m 553.80722,15.638223 c -0.026,-0.64404 -0.6405,-1.710346 -1.2317,-2.136166 -0.3951,-0.284565 -0.3789,-0.29223 0.35,-0.165992 0.9151,0.158478 2.0541,0.617559 1.5881,0.640083 -0.1774,0.0086 -0.3244,0.166039 -0.3267,0.349925 0,0.183888 -0.084,0.678235 -0.181,1.09855 -0.1543,0.667236 -0.1795,0.69434 -0.1987,0.2136 z"
       id="path27461"
       inkscape:connector-curvature="0" />
    <path
       style="opacity:1;fill:#293b1b;fill-opacity:1;fill-rule:nonzero;stroke:none;stroke-width:1.05785561;stroke-miterlimit:4;stroke-dasharray:none;stroke-opacity:1"
       d="m 567.40132,30.862952 c 0.1859,-0.04844 0.4438,-0.04525 0.5732,0.0071 0.1293,0.05233 -0.023,0.09197 -0.338,0.08808 -0.3152,-0.0039 -0.4211,-0.04671 -0.2352,-0.09515 z"
       id="path27465"
       inkscape:connector-curvature="0" />
    <path
       style="opacity:1;fill:#293b1b;fill-opacity:1;fill-rule:nonzero;stroke:none;stroke-width:1.05785561;stroke-miterlimit:4;stroke-dasharray:none;stroke-opacity:1"
       d="m 579.95942,23.054865 c 0,-0.05905 0.2233,-0.596379 0.4963,-1.194073 0.972,-2.128202 1.3307,-3.132513 1.9921,-5.576438 0.538,-1.988026 0.4771,-1.903341 0.7554,-1.050784 0.1372,0.420314 0.3662,0.933791 0.5088,1.141058 0.3623,0.526237 0.3513,1.063662 -0.012,0.567462 -0.149,-0.203806 -0.3186,-0.322934 -0.3768,-0.264731 -0.058,0.0582 -0.7929,1.541108 -1.6327,3.295343 -1.3392,2.797307 -1.7316,3.495855 -1.7316,3.082163 z"
       id="path27469"
       inkscape:connector-curvature="0" />
    <path
       style="opacity:1;fill:#293b1b;fill-opacity:1;fill-rule:nonzero;stroke:none;stroke-width:1.05785561;stroke-miterlimit:4;stroke-dasharray:none;stroke-opacity:1"
       d="m 601.31282,11.675281 c -0.2783,-1.195298 -0.6005,-2.7320934 -0.7159,-3.4151044 -0.9701,-5.740792 -2.0383,-7.70429399 -3.4018,-6.252903 -0.5602,0.596283 -1.5421,2.818132 -2.544,5.756441 -0.4623,1.355662 -0.8659,2.3353884 -0.8969,2.177167 -0.031,-0.158224 0.082,-0.665589 0.2505,-1.12748 0.1688,-0.461891 0.3917,-1.140709 0.4953,-1.508485 0.1036,-0.367773 0.2613,-0.840629 0.3505,-1.050784 0.089,-0.210156 0.3936,-1.112878 0.6765,-2.006045 0.2829,-0.893167 0.6261,-1.881862 0.7628,-2.197097 0.1367,-0.315235 0.3122,-0.783368 0.3901,-1.040297 0.2168,-0.71587199 0.7402,-1.57985299 1.0913,-1.80129099 0.3711,-0.23409301 1.0157,0.248219 1.2142,0.908505 0.067,0.222567 0.2314,0.662588 0.3655,0.97782299 0.4571,1.074214 1.1471,4.182716 1.8023,8.119706 0.2011,1.2084024 0.4633,2.6548054 0.5826,3.2142274 0.4282,2.00747 0.072,1.372854 -0.423,-0.754383 z"
       id="path27471"
       inkscape:connector-curvature="0" />
    <path
       style="opacity:1;fill:#293b1b;fill-opacity:1;fill-rule:nonzero;stroke:none;stroke-width:1.05785561;stroke-miterlimit:4;stroke-dasharray:none;stroke-opacity:1"
       d="m 593.32002,27.269836 c -0.4772,-0.315235 -1.2929,-0.845484 -1.8125,-1.17833 -1.3053,-0.836089 -3.099,-2.495209 -4.099,-3.791442 -0.7916,-1.026044 -0.8174,-1.097624 -0.4659,-1.290286 0.5794,-0.317486 2.5331,-2.381641 2.8689,-3.031072 0.166,-0.320952 0.3464,-0.538932 0.4009,-0.484401 0.055,0.05453 -0.2881,0.814787 -0.7614,1.689459 -1.6856,3.115138 -1.5956,3.700537 0.8478,5.51216 3.813,2.827176 4.137,2.741089 7.7688,-2.064054 0.5779,-0.764548 1.0937,-1.3471 1.1462,-1.294561 0.1456,0.145542 -2.3522,3.4251 -4.4456,5.837002 l -0.5804,0.668681 z"
       id="path27473"
       inkscape:connector-curvature="0" />
    <path
       style="opacity:1;fill:#293b1b;fill-opacity:1;fill-rule:nonzero;stroke:none;stroke-width:1.05785561;stroke-miterlimit:4;stroke-dasharray:none;stroke-opacity:1"
       d="m 606.32452,22.37827 c 1.834,-1.494193 2.4973,-2.152947 2.4063,-2.389929 -0.071,-0.184007 0.05,-0.265051 0.3934,-0.265051 0.4407,0 0.4662,0.03538 0.2328,0.32249 -0.8428,1.036574 -2.8953,2.739255 -3.2885,2.727983 -0.1219,-0.0035 -0.01,-0.181469 0.256,-0.395493 z"
       id="path27477"
       inkscape:connector-curvature="0" />
    <path
       style="opacity:1;fill:#293b1b;fill-opacity:1;fill-rule:nonzero;stroke:none;stroke-width:1.05785561;stroke-miterlimit:4;stroke-dasharray:none;stroke-opacity:1"
       d="m 619.65662,61.133777 c -0.1025,-0.23643 -0.4915,-1.50384 -0.8646,-2.8165 -0.3731,-1.31265 -0.9756,-3.00467 -1.3389,-3.76005 -1.3929,-2.89597 -2.7186,-3.01888 -5.7127,-0.52963 -2.3993,1.99481 -2.6597,2.03397 -2.879,0.43296 -0.209,-1.52563 -0.9552,-3.59544 -2.3118,-6.413132 -0.6702,-1.391904 -1.2186,-2.787333 -1.2186,-3.100951 0,-0.6247 0.1127,-0.677408 1.775,-0.830255 2.0405,-0.187621 2.2482,-1.594482 0.5403,-3.660301 -1.3705,-1.65775 -1.1134,-2.284542 1.8113,-4.415989 3.1287,-2.280017 4.3239,-3.891002 3.7218,-5.016105 -0.249,-0.465323 -1.2875,-0.790134 -2.5311,-0.791618 -1.1488,-0.0013 -1.4962,-0.143679 -1.4962,-0.612931 0,-0.557075 0.6141,-1.357344 2.6827,-3.495749 3.2305,-3.33951 4.2063,-4.804357 3.931,-5.901052 -0.06,-0.239678 -0.3692,-0.762773 -0.6868,-1.162437 -0.9514,-1.197176 -0.6786,-2.343258 1.0042,-4.218551 2.423,-2.700282 3.9462,-6.2320224 5.1042,-11.8352364 0.3257,-1.576178 0.639,-2.99473599 0.6962,-3.15235399 0.057,-0.157617 0.6464,1.60483599 1.3095,3.91656399 0.6631,2.311725 1.4376,4.847939 1.7211,5.636027 0.8292,2.3050764 2.1517,4.8629124 2.9185,5.6444964 0.9921,1.011219 1.3771,1.628831 1.3786,2.211488 0,0.27527 -0.4716,1.445858 -1.0496,2.60131 -0.5779,1.155451 -1.0507,2.29254 -1.0507,2.526863 0,0.915358 0.6806,1.562068 3.7237,3.538109 4.3299,2.811685 5.2417,3.653462 4.3482,4.014499 -0.1839,0.0743 -1.538,0.208 -3.0091,0.297101 -3.8628,0.233971 -4.8718,0.61123 -4.8718,1.821622 0,0.988475 1.4116,2.38057 4.4804,4.418393 l 2.529,1.679424 -5.4629,9.557605 c -5.8867,10.29874 -7.0369,12.22091 -7.9035,13.20794 -0.6548,0.74575 -1.0294,0.80637 -1.2884,0.20844 z"
       id="path27479"
       inkscape:connector-curvature="0" />
    <path
       style="opacity:1;fill:#293b1b;fill-opacity:1;fill-rule:nonzero;stroke:none;stroke-width:1.05785561;stroke-miterlimit:4;stroke-dasharray:none;stroke-opacity:1"
       d="m 606.09112,27.053809 c -0.5231,-0.801317 -0.9511,-1.535819 -0.9511,-1.632228 0,-0.09641 0.3932,0.124952 0.8738,0.491913 0.4806,0.366964 1.2539,0.851194 1.7184,1.076069 0.4645,0.224872 0.8838,0.472323 0.9318,0.549891 0.048,0.07757 -0.2974,0.32784 -0.7673,0.556162 l -0.8545,0.415134 z"
       id="path27481"
       inkscape:connector-curvature="0" />
    <path
       style="opacity:1;fill:#293b1b;fill-opacity:1;fill-rule:nonzero;stroke:none;stroke-width:1.05785561;stroke-miterlimit:4;stroke-dasharray:none;stroke-opacity:1"
       d="m 607.89902,29.206229 -0.7437,-0.642808 0.8074,-0.411858 c 0.444,-0.226526 0.8073,-0.49339 0.8073,-0.593035 0,-0.09965 0.1082,-0.139652 0.2404,-0.08891 0.1323,0.05075 0.8348,-0.38137 1.5613,-0.960257 0.7264,-0.57889 1.3605,-1.01277 1.4091,-0.964176 0.049,0.04859 -0.5725,0.790879 -1.3803,1.649526 -0.8674,0.922062 -1.5134,1.784932 -1.5779,2.10775 -0.06,0.300614 -0.1702,0.546574 -0.2447,0.546574 -0.074,0 -0.47,-0.289264 -0.8789,-0.642808 z"
       id="path27483"
       inkscape:connector-curvature="0" />
    <path
       style="opacity:1;fill:#293b1b;fill-opacity:1;fill-rule:nonzero;stroke:none;stroke-width:1.05785561;stroke-miterlimit:4;stroke-dasharray:none;stroke-opacity:1"
       d="m 613.18672,18.306848 -1.6013,-1.031603 1.2126,-0.601636 c 0.6669,-0.330898 1.5739,-0.897741 2.0156,-1.259652 1.0065,-0.824775 1.2068,-0.837189 0.5986,-0.0371 -1.165,1.532644 -1.3827,2.600315 -0.7058,3.460933 0.2178,0.276868 0.3253,0.50278 0.2389,0.502026 -0.086,-7.94e-4 -0.8778,-0.465588 -1.7586,-1.032968 z"
       id="path27485"
       inkscape:connector-curvature="0" />
    <path
       style="opacity:1;fill:#293b1b;fill-opacity:1;fill-rule:nonzero;stroke:none;stroke-width:1.05785561;stroke-miterlimit:4;stroke-dasharray:none;stroke-opacity:1"
       d="m 630.13202,16.535949 c 0.1379,-0.05519 0.3027,-0.0484 0.3661,0.01508 0.063,0.06349 -0.049,0.10864 -0.2507,0.100346 -0.2226,-0.0092 -0.2679,-0.05444 -0.1154,-0.115428 z"
       id="path27487"
       inkscape:connector-curvature="0" />
    <path
       style="opacity:1;fill:#293b1b;fill-opacity:1;fill-rule:nonzero;stroke:none;stroke-width:1.05785561;stroke-miterlimit:4;stroke-dasharray:none;stroke-opacity:1"
       d="m 629.29392,17.210883 c -0.012,-0.786291 0.035,-0.920536 0.2866,-0.813962 0.1654,0.07019 0.4941,0.169577 0.7306,0.220853 0.5629,0.12209 0.5309,0.221044 -0.3028,0.93498 l -0.7002,0.599715 z"
       id="path27489"
       inkscape:connector-curvature="0" />
    <path
       style="opacity:1;fill:#293b1b;fill-opacity:1;fill-rule:nonzero;stroke:none;stroke-width:1.05785561;stroke-miterlimit:4;stroke-dasharray:none;stroke-opacity:1"
       d="m 635.64442,29.740034 c 0.074,-0.191937 -0.149,-0.570569 -0.618,-1.050785 -0.4032,-0.412904 -0.6779,-0.750732 -0.6105,-0.750732 0.3744,0 3.2029,1.019294 3.2029,1.154203 0,0.211513 -0.33,0.414208 -1.1463,0.70413 -0.8708,0.309253 -0.9661,0.302713 -0.8281,-0.05682 z"
       id="path27491"
       inkscape:connector-curvature="0" />
    <path
       style="opacity:1;fill:#293b1b;fill-opacity:1;fill-rule:nonzero;stroke:none;stroke-width:1.05785561;stroke-miterlimit:4;stroke-dasharray:none;stroke-opacity:1"
       d="m 641.09842,41.34868 c -0.3131,-1.989571 -0.3217,-1.946434 0.3892,-1.951299 0.3415,-0.0024 0.8358,-0.172371 1.0985,-0.377854 0.7499,-0.586529 0.8476,-0.447416 0.2348,0.33434 -0.7451,0.950651 -0.9549,1.373413 -1.2462,2.511748 l -0.2446,0.955667 z"
       id="path27493"
       inkscape:connector-curvature="0" />
    <path
       style="opacity:1;fill:#293b1b;fill-opacity:1;fill-rule:nonzero;stroke:none;stroke-width:1.05785561;stroke-miterlimit:4;stroke-dasharray:none;stroke-opacity:1"
       d="m 652.96772,23.162222 c 0.047,-0.262697 0.2752,-1.165415 0.5066,-2.006044 0.2314,-0.840629 0.5062,-1.872308 0.6107,-2.292623 0.3429,-1.379289 0.3252,-1.363575 0.8469,-0.754801 0.2657,0.310063 0.7131,0.823511 0.9943,1.140995 1.3876,1.56677 2.3626,2.793465 2.2833,2.872711 -0.048,0.04847 -0.8228,-0.599226 -1.7207,-1.439334 l -1.6326,-1.527474 -0.9872,2.242101 c -0.543,1.233154 -0.9486,2.027166 -0.9013,1.764469 z"
       id="path27495"
       inkscape:connector-curvature="0" />
    <path
       style="opacity:1;fill:#293b1b;fill-opacity:1;fill-rule:nonzero;stroke:none;stroke-width:1.05785561;stroke-miterlimit:4;stroke-dasharray:none;stroke-opacity:1"
       d="m 691.55952,31.435486 c 0.063,-0.189537 0.3025,-1.010907 0.5329,-1.825265 0.2305,-0.814358 0.4832,-1.480651 0.5616,-1.480651 0.078,0 0.3793,0.408374 0.6687,0.907497 0.2894,0.499124 0.6845,1.112531 0.8779,1.363128 0.4937,0.639699 0.4373,0.886294 -0.1193,0.5216 -0.7215,-0.472784 -1.3949,-0.382595 -2.0524,0.274878 -0.3868,0.386781 -0.545,0.467273 -0.4694,0.238813 z"
       id="path27497"
       inkscape:connector-curvature="0" />
    <path
       style="opacity:1;fill:#293b1b;fill-opacity:1;fill-rule:nonzero;stroke:none;stroke-width:1.05785561;stroke-miterlimit:4;stroke-dasharray:none;stroke-opacity:1"
       d="m 698.19452,39.974786 c -0.025,-1.629777 -0.4697,-3.683891 -1.0537,-4.864904 -0.5452,-1.102577 -0.4869,-1.354982 0.1296,-0.561478 0.2371,0.305007 0.7541,0.908066 1.149,1.340131 0.395,0.432067 0.7162,0.947907 0.7139,1.146312 0,0.198406 -0.2102,1.22047 -0.462,2.271258 l -0.4578,1.910516 z"
       id="path27499"
       inkscape:connector-curvature="0" />
    <path
       style="opacity:1;fill:#293b1b;fill-opacity:1;fill-rule:nonzero;stroke:none;stroke-width:1.05785561;stroke-miterlimit:4;stroke-dasharray:none;stroke-opacity:1"
       d="m 721.64762,53.144687 c -0.077,-1.2362 -0.4537,-2.92566 -0.8054,-3.611248 -0.4165,-0.811972 -0.9846,-1.350696 -2.0073,-1.903487 l -0.7642,-0.413094 0.8598,0.118798 c 1.8272,0.252487 2.6731,0.407006 2.7726,0.506452 0.057,0.05688 0.077,1.42653 0.045,3.043679 -0.032,1.61714 -0.077,2.63365 -0.1006,2.2589 z"
       id="path27501"
       inkscape:connector-curvature="0" />
    <path
       style="opacity:1;fill:#293b1b;fill-opacity:1;fill-rule:nonzero;stroke:none;stroke-width:1.05785561;stroke-miterlimit:4;stroke-dasharray:none;stroke-opacity:1"
       d="m 606.87862,37.365637 c 0.105,-0.09994 0.8072,-0.675309 1.5602,-1.278596 2.0923,-1.676207 3.3199,-3.339015 3.3541,-4.543385 0.015,-0.529863 0.054,-0.55789 0.6077,-0.441394 0.8513,0.179001 0.9386,0.333859 0.6193,1.098246 -0.4298,1.028541 -1.7293,2.32719 -3.7925,3.790034 -1.6409,1.163418 -2.9034,1.902553 -2.3488,1.375095 z"
       id="path27503"
       inkscape:connector-curvature="0" />
  </g>
</svg>
