<?xml version="1.0" encoding="UTF-8" standalone="no"?>
<!-- Created with Inkscape (http://www.inkscape.org/) -->

<svg
   xmlns:dc="http://purl.org/dc/elements/1.1/"
   xmlns:cc="http://creativecommons.org/ns#"
   xmlns:rdf="http://www.w3.org/1999/02/22-rdf-syntax-ns#"
   xmlns:svg="http://www.w3.org/2000/svg"
   xmlns="http://www.w3.org/2000/svg"
   xmlns:sodipodi="http://sodipodi.sourceforge.net/DTD/sodipodi-0.dtd"
   xmlns:inkscape="http://www.inkscape.org/namespaces/inkscape"
   width="1543.092mm"
   height="114.14735mm"
   viewBox="0 0 1543.092 114.14735"
   version="1.1"
   id="svg26612"
   inkscape:version="0.92.4 (5da689c313, 2019-01-14)"
   sodipodi:docname="lake8.svg">
  <defs
     id="defs26606" />
  <sodipodi:namedview
     id="base"
     pagecolor="#ffffff"
     bordercolor="#666666"
     borderopacity="1.0"
     inkscape:pageopacity="0.0"
     inkscape:pageshadow="2"
     inkscape:zoom="0.12374369"
     inkscape:cx="4684.5901"
     inkscape:cy="-1022.0492"
     inkscape:document-units="mm"
     inkscape:current-layer="layer1"
     showgrid="false"
     inkscape:window-width="1858"
     inkscape:window-height="1057"
     inkscape:window-x="54"
     inkscape:window-y="-8"
     inkscape:window-maximized="1" />
  <metadata
     id="metadata26609">
    <rdf:RDF>
      <cc:Work
         rdf:about="">
        <dc:format>image/svg+xml</dc:format>
        <dc:type
           rdf:resource="http://purl.org/dc/dcmitype/StillImage" />
        <dc:title></dc:title>
      </cc:Work>
    </rdf:RDF>
  </metadata>
  <g
     inkscape:label="Calque 1"
     inkscape:groupmode="layer"
     id="layer1"
     transform="translate(1208.4865,209.86534)">
    <path
       style="opacity:1;fill:#526525;fill-opacity:1;fill-rule:nonzero;stroke:none;stroke-width:8.46284485;stroke-miterlimit:4;stroke-dasharray:none;stroke-opacity:1"
       d="m -862.30051,-105.59615 c -6.72502,-1.48622 -16.69794,-3.56452 -22.16201,-4.61842 -5.46409,-1.05391 -11.21941,-2.58643 -12.78961,-3.40558 -1.87145,-0.97629 -3.38355,-0.96076 -4.38939,0.0451 -2.58167,2.58167 -5.94722,0.2495 -4.87047,-3.375 0.95909,-3.22855 0.94615,-3.23038 -1.43428,-0.20111 -1.65304,2.10362 -2.41724,2.3872 -2.4507,0.90943 -0.0365,-1.61682 -0.85908,-1.42799 -3.32873,0.76422 -2.37164,2.10518 -3.46609,2.37982 -3.95158,0.99155 -0.3693,-1.056 -1.3005,-1.53127 -2.06933,-1.05611 -2.79098,1.72492 -4.51355,-0.9258 -2.84411,-4.37658 1.61488,-3.33801 1.61211,-3.33862 -1.14218,-0.25133 -2.83022,3.17241 -8.11049,3.38204 -8.11049,0.322 0,-0.93964 -0.93376,-0.43145 -2.07504,1.12935 -2.01692,2.75831 -2.1213,2.75577 -3.72584,-0.09 -1.31291,-2.32852 -2.04144,-2.54101 -3.55923,-1.03815 -2.85809,2.83001 -7.44839,-1.99919 -7.46939,-7.85807 l -0.017,-4.73046 -3.91183,4.96345 c -3.1871,4.04392 -4.43767,4.68204 -6.7502,3.44443 -1.56109,-0.83548 -3.86065,-1.12678 -5.11012,-0.6473 -1.24946,0.47945 -7.01612,-1.21058 -12.81481,-3.75563 -14.83401,-6.51071 -21.09408,-7.61326 -49.49795,-8.71778 -23.3616,-0.90848 -26.1819,-0.71189 -41.8618,2.91795 -24.7829,5.73715 -69.5231,10.02895 -69.5662,6.6733 -0.017,-1.35565 -0.3301,-1.33879 -1.2223,0.0659 -1.7353,2.7319 -10.9817,4.36321 -10.9817,1.93743 0,-1.46272 -0.4991,-1.49235 -2.1439,-0.12726 -1.6464,1.36639 -2.3279,1.32112 -2.9362,-0.19495 -0.5246,-1.30754 -0.8329,-1.114 -0.9128,0.57304 -0.092,1.95207 -1.728,2.59202 -6.9986,2.73841 -10.3691,0.28805 -11.4631,0.46429 -11.4631,1.84685 0,1.54778 -3.4602,1.00105 -4.7452,-0.74978 -0.5083,-0.69257 -2.0242,-0.15923 -3.3687,1.18523 -1.3444,1.34441 -6.4308,3.15305 -11.3031,4.01916 -4.8722,0.86609 -10.0623,1.92662 -11.5334,2.3567 -2.3909,0.69903 -2.6747,-0.5262 -2.6747,-11.54832 0,-12.3303 0,-12.3303 3.0569,-9.27349 1.6812,1.68127 4.0645,3.05684 5.2962,3.05684 3.1664,0 13.0206,-8.98462 13.1654,-12.00354 0.067,-1.39406 0.8053,-0.64175 1.6558,1.68675 2.2232,6.08703 6.4933,5.38757 9.3307,-1.52842 1.9386,-4.72523 2.3776,-5.10123 2.5,-2.14151 0.268,6.47766 4.7902,13.98672 8.4233,13.98672 3.9088,0 7.0094,-2.67454 7.0094,-6.04623 0,-1.30794 2.0208,-3.27255 4.4907,-4.36581 4.6164,-2.04346 10.7913,-12.31827 10.7958,-17.96409 0,-2.05393 0.8182,-1.3566 2.6748,2.28443 1.4698,2.88244 4.4885,6.57148 6.7084,8.19785 3.49,2.55701 4.7623,2.71735 9.4046,1.18527 7.9975,-2.63944 13.8101,-8.58877 12.7025,-13.00153 -0.6137,-2.4452 -0.1493,-3.88538 1.4509,-4.49942 1.2943,-0.49671 2.1983,-1.77204 2.0088,-2.83407 -0.1896,-1.06204 0.9437,-4.07815 2.5185,-6.70248 l 2.8632,-4.7715 2.7325,5.09822 c 1.5029,2.80402 2.327,6.15482 1.8315,7.44623 -0.5093,1.32709 -0.084,2.348 0.978,2.348 1.42,0 1.4535,0.51288 0.1372,2.0989 -2.29,2.75929 -0.55,7.07159 2.8534,7.07159 1.478,0 4.4675,-1.40035 6.6434,-3.11189 l 3.9561,-3.11189 5.3791,5.78661 c 2.9585,3.18265 5.3977,6.30246 5.4205,6.93293 0.067,1.84692 4.1038,1.33076 10.9185,-1.39596 5.7348,-2.29463 6.0918,-2.73385 3.6641,-4.50898 -2.4579,-1.79728 -2.3113,-2.05733 1.7014,-3.01861 2.415,-0.57854 5.6516,-1.69928 7.1925,-2.49052 2.5973,-1.33377 2.62,-1.63919 0.3112,-4.19034 -2.3292,-2.5738 -2.2414,-2.81417 1.3575,-3.71745 2.1163,-0.53115 4.5549,-2.28699 5.4192,-3.90188 1.2726,-2.37794 0.9911,-3.12031 -1.4806,-3.9048 -2.8461,-0.90333 -2.7401,-1.23109 1.5734,-4.8606 3.3995,-2.86053 4.2036,-4.4 3.0342,-5.80906 -1.1288,-1.36019 -0.9689,-2.43346 0.5506,-3.69453 1.1779,-0.97758 2.9523,-4.99649 3.943,-8.9309 l 1.8012,-7.15348 3.701,9.10613 c 2.0356,5.00837 3.3404,10.24248 2.8996,11.63134 -0.4992,1.57286 0.7699,3.76123 3.365,5.80258 4.1118,3.23433 4.1225,3.28886 0.8184,4.1529 -5.2293,1.3675 -3.9502,4.53139 2.9478,7.29142 5.9119,2.36549 6.1449,2.68581 3.821,5.25365 -4.1675,4.60508 -2.9859,6.31492 4.3639,6.31492 7.6979,0 8.7599,-1.28634 13.80912,-16.72661 l 2.72088,-8.32032 3.57586,7.40927 c 4.39313,9.10267 7.84091,13.05241 11.3936,13.05241 3.67531,0 7.48878,-4.07519 8.48779,-9.07031 0.7082,-3.54097 1.44313,-4.02565 5.25564,-3.46609 6.51111,0.95563 9.90915,-0.64125 7.51166,-3.53004 -1.54821,-1.86548 -1.40969,-2.27454 0.77024,-2.27454 2.01098,0 2.48016,-0.93006 1.92752,-3.82103 -0.50528,-2.64321 -0.0529,-3.82104 1.4678,-3.82104 3.31973,0 11.1336,-8.49896 11.1336,-12.10975 0,-4.47995 2.53077,-3.95013 3.7175,0.77827 0.54563,2.17396 2.63914,5.59975 4.65225,7.61286 2.34585,2.34584 3.06366,4.02888 1.99893,4.68692 -1.08408,0.66999 -0.71766,1.7167 1.0546,3.0126 1.49558,1.0936 2.3214,3.01385 1.83793,4.27371 -1.01365,2.64158 3.6286,4.63723 7.75451,3.33356 2.13231,-0.67375 2.70939,0.11298 2.84562,3.87942 0.15553,4.29922 2.48587,7.37481 5.63364,7.43523 0.67059,0.0128 2.80565,-1.68831 4.74454,-3.7804 l 3.52523,-3.80379 0.97983,11.59127 c 1.0061,11.90235 4.73726,22.74543 9.05227,26.3068 1.34265,1.10815 4.72141,1.79594 7.50837,1.52842 4.1738,-0.40063 5.1489,-1.19071 5.53072,-4.4813 0.28749,-2.47793 1.88354,-4.64191 4.20314,-5.69878 3.83241,-1.74617 5.11204,-4.82626 2.00507,-4.82626 -0.95401,0 0.1357,-1.47109 2.42146,-3.2691 2.70214,-2.12551 3.55135,-3.6428 2.42756,-4.33734 -1.23119,-0.7609 -0.98576,-2.36231 0.85299,-5.56617 l 2.58146,-4.49793 4.37843,4.37844 c 2.40816,2.40814 3.9855,5.01426 3.50522,5.79137 -0.48029,0.77711 0.37457,1.92296 1.89969,2.54632 1.52508,0.62335 2.77291,2.50895 2.77291,4.19021 0,1.68126 1.50516,3.71752 3.34486,4.52506 1.83968,0.80753 3.68231,2.75876 4.0948,4.33607 1.56191,5.97278 6.2067,2.16437 9.55498,-7.83442 l 3.23889,-9.6722 4.56298,9.6722 c 5.62123,11.91543 9.9735,17.4398 12.5063,15.87445 1.0341,-0.63911 1.54006,-2.04828 1.1244,-3.13151 -0.47339,-1.23362 0.91535,-2.30372 3.71684,-2.86401 4.33885,-0.86778 6.0307,-4.41282 2.99992,-6.28594 -0.82364,-0.50906 -0.16721,-2.21562 1.48956,-3.87237 1.62919,-1.62921 3.39815,-4.69916 3.93096,-6.82212 1.2205,-4.86281 2.73085,-4.89738 4.91104,-0.1124 0.93911,2.06114 3.85641,4.85878 6.48287,6.21698 3.02967,1.5667 4.46826,3.2698 3.93528,4.65875 -0.48302,1.25868 0.0709,2.18933 1.303,2.18933 1.20179,0 2.35558,1.84621 2.62678,4.20314 0.34801,3.02456 1.45823,4.34144 3.95933,4.69635 2.82115,0.40035 4.02177,-0.75104 6.37516,-6.11364 3.06912,-6.99355 7.66773,-27.2662 7.81143,-34.43603 0.0605,-3.02319 1.29871,-0.90984 4.24617,7.24765 7.02066,19.43061 13.3573,25.65578 21.01069,20.64108 3.98463,-2.61083 3.72613,-5.40904 -0.49972,-5.40904 -1.87441,0 -1.40213,-1.13377 1.91424,-4.59532 3.31853,-3.46382 3.9697,-5.02823 2.64448,-6.35345 -1.32522,-1.32522 -0.83349,-2.85698 1.99702,-6.22085 2.06531,-2.4545 3.75513,-6.08883 3.75513,-8.07629 0,-6.33509 2.85181,-5.64681 4.67069,1.12725 0.96607,3.59804 2.51081,7.91746 3.43275,9.59871 0.92197,1.68126 1.48765,4.62216 1.25709,6.53534 -0.32406,2.68927 0.65823,3.85409 4.32954,5.13391 3.81667,1.3305 4.4024,2.0727 2.98423,3.78147 -0.97044,1.16933 -3.0558,2.12605 -4.63412,2.12605 -1.57835,0 -2.8697,0.68779 -2.8697,1.52841 0,2.61601 5.96601,1.67606 9.07124,-1.42916 3.2335,-3.23349 6.19096,-12.20561 6.20437,-18.82233 0.005,-2.31172 0.69634,-4.20314 1.53697,-4.20314 0.84061,0 1.52839,0.52287 1.52839,1.16193 0,0.63906 1.74731,3.04631 3.88289,5.34945 4.78343,5.1587 9.89375,5.3376 15.4695,0.54155 3.36003,-2.89015 3.87051,-4.08961 2.46267,-5.78598 -1.38504,-1.66888 -0.8694,-4.04479 2.34227,-10.79206 2.2651,-4.75864 4.58087,-8.68892 5.14615,-8.73396 0.56525,-0.045 1.85587,2.49729 2.86795,5.64965 1.01208,3.15236 2.77551,6.80701 3.91869,8.12147 1.65121,1.89859 1.69005,2.78368 0.18889,4.30533 -1.50511,1.52563 -0.87879,2.82338 3.07768,6.37693 5.79041,5.20074 6.05396,6.03301 1.91053,6.03301 -1.68127,0 -3.05683,0.64879 -3.05683,1.44175 0,2.84245 6.90342,6.20033 12.7472,6.20033 4.84669,0 7.02402,-1.07063 11.71273,-5.75934 l 5.75935,-5.75933 2.48475,6.90564 c 3.11309,8.65176 12.37128,21.02932 19.14292,25.59272 7.49792,5.05285 15.23905,4.64476 20.73632,-1.09316 l 4.37653,-4.56811 3.66514,6.47862 c 2.01581,3.56325 5.16149,8.13628 6.99042,10.1623 2.89809,3.21043 2.96318,3.55314 0.50673,2.6675 -7.39531,-2.66623 -38.09957,-7.12846 -49.79693,-7.23691 -7.20847,-0.0669 -18.9525,-0.61531 -26.09784,-1.21885 -7.14534,-0.60352 -16.39187,-0.5692 -20.54784,0.0763 -9.9338,1.54283 -14.12367,0.3298 -15.93474,-4.61339 l -1.48648,-4.0572 -0.1206,4.96734 c -0.1189,4.89736 -2.04414,6.5092 -3.99822,3.34749 -0.6612,-1.06985 -1.60007,-0.87659 -2.76492,0.56909 -0.9701,1.20391 -3.13936,2.57545 -4.82063,3.04781 -1.68124,0.47239 -5.80798,1.90559 -9.17049,3.18487 -3.36251,1.27929 -9.99148,2.35617 -14.73105,2.39308 -4.73958,0.0369 -14.36862,1.72664 -21.39783,3.75499 -21.32719,6.15419 -29.85074,7.2425 -62.07178,7.92536 -24.25843,0.51411 -30.95545,0.23834 -30.97379,-1.27553 -0.0164,-1.35165 -0.36047,-1.41978 -1.14631,-0.22693 -2.11018,3.20313 -7.23648,3.38222 -19.46388,0.68001 z"
       id="path26338"
       inkscape:connector-curvature="0" />
    <path
       style="opacity:1;fill:#526525;fill-opacity:1;fill-rule:nonzero;stroke:none;stroke-width:8.46284485;stroke-miterlimit:4;stroke-dasharray:none;stroke-opacity:1"
       d="m -101.55438,-96.052614 c -1.3581,-0.51617 -0.79,-2.09301 1.910504,-5.302296 2.1139,-2.51222 3.8434,-5.54659 3.8434,-6.74304 0,-2.79858 2.4808,-2.82414 3.5505,-0.0366 1.3024,3.39375 10.6059,5.85642 15.3338,4.05884 4.9341,-1.8759 9.6281,-9.25093 10.9796,-17.25058 0.9626,-5.69727 1.1321,-5.84634 3.8509,-3.38584 6.3984,5.79046 15.1945,-2.3885 15.1945,-14.12844 v -4.21073 l 4.4991,4.92588 c 5.4341,5.94958 9.0464,6.20932 13.9382,1.00226 l 3.686,-3.92358 5.7583,6.59831 c 5.0727,5.81279 5.9449,6.286 7.3266,3.97481 1.4709,-2.46055 1.8664998,-2.44221 6.3683998,0.29559 6.15910001,3.7456 9.6658,2.03446 13.2825,-6.48139 l 2.6716002,-6.29068 3.7333,6.78577 c 2.8045,5.09757 4.7741,6.90613 7.9166,7.26943 2.607,0.30138 4.271,-0.27451 4.4161,-1.52842 0.1281,-1.10662 0.3079,-2.84793 0.3997,-3.86959 0.092,-1.02166 1.5345,-2.87118 3.2061,-4.11006 2.5214,-1.86867 2.7323,-2.7559 1.238,-5.20684 -1.5562,-2.55228 -1.2443,-3.21429 2.2926,-4.86459 3.5559,-1.65923 3.7334,-2.04223 1.3507,-2.91434 -2.3942,-0.87632 -2.1431,-1.44773 1.9731,-4.49101 l 4.7164,-3.48693 2.8555,3.52647 c 2.0518,2.53388 2.3568,3.85355 1.0837,4.68852 -1.2182,0.79898 -0.6391,2.04021 1.8534,3.97262 3.0236,2.34416 3.226,2.96378 1.2194,3.73378 -1.5133,0.5807 -2.1627,2.18543 -1.7505,4.3258 0.7378,3.83109 3.6434,6.21848 6.3597,5.22552 0.9965,-0.36425 2.0688,0.10864 2.3829,1.05087 0.9305,2.79173 4.343,-0.29763 6.7853,-6.1428 l 2.2618,-5.41319 3.4109,4.27768 c 2.9409,3.68826 3.8603,4.03711 6.6728,2.53193 1.7941,-0.96018 4.4729,-3.79561 5.9528,-6.301 l 2.6909,-4.55522 4.1712,3.99631 4.1713,3.99632 3.1468,-5.16165 c 1.7307,-2.83888 3.1494,-5.74092 3.1525,-6.44896 0,-0.70803 1.3273,-2.96744 2.942596,-5.02091 2.8574,-3.63271 2.9635,-3.64938 3.9259,-0.617 0.5441,1.71411 2.8334,4.11794 5.0874,5.34182 2.254,1.22389 3.3244,2.25279 2.3787,2.28645 -2.1457,0.0764 -2.3076,7.79735 -0.2177,10.37799 2.8617,3.53362 5.2188,1.95874 11.9712,-7.99875 6.715,-9.90222 6.7212,-9.90656 8.7085,-6.11366 1.0938,2.08759 2.9634,3.79561 4.1547,3.79561 2.7751,0 8.8363,-8.193 11.8397,-16.00394 l 2.3337,-6.06925 3.457,8.03587 c 7.0665,16.42654 18.8914,18.79168 24.1754,4.8354 1.3991,-3.6953 1.5006,-3.62724 4.0789,2.73477 1.4543,3.58841 4.3919,7.89917 6.5281,9.57948 3.4135,2.6851 4.2713,2.79892 7.0826,0.93983 3.9085,-2.58475 9.5777,-16.70049 7.0461,-17.54434 -1.1374,-0.37913 -0.8629,-1.85619 0.8232,-4.42948 1.9994,-3.05151 2.1203,-4.11366 0.5766,-5.06769 -1.4646,-0.90521 -0.8362,-2.54922 2.5135,-6.57525 2.4566,-2.95253 4.8104,-5.41091 5.2307,-5.46305 0.4203,-0.0521 1.9017,2.61408 3.292,5.92494 1.8065,4.30221 2.0246,6.20032 0.7642,6.65265 -1.0979,0.39402 -0.3779,2.14058 1.9074,4.62704 l 3.671,3.99411 -3.671,1.46812 c -2.6575,1.06281 -2.9325,1.49487 -0.9962,1.56501 1.7904,0.0648 2.6747,1.33038 2.6747,3.82771 0,4.60561 2.4458,6.32109 5.4534,3.82502 2.5863,-2.14647 2.5464,-2.17319 5.5791,3.73593 l 2.2653,4.41392 4.5096,-8.23496 c 6.7013,-12.23733 8.664,-15.40776 11.6146,-18.76213 2.6589,-3.02271 2.6747,-3.0209 2.6747,0.30428 0,1.83977 0.5159,3.34706 1.1463,3.34953 0.6305,0.002 1.2024,2.51586 1.2708,5.58531 0.1517,6.79373 5.4124,12.04803 9.7425,9.73057 2.9073,-1.55593 5.7599,-7.61576 6.4924,-13.79196 0.397,-3.34709 1.0583,-2.75342 5.3315,4.78634 2.683,4.73405 6.7305,10.0644 8.9945,11.84521 4.8161,3.78835 12.3478,4.20089 17.0148,0.932 3.4261,-2.39975 10.2619,-18.33786 8.8469,-20.62731 -0.4454,-0.72064 -0.1094,-1.74307 0.7464,-2.27206 1.8353,-1.13428 4.6073,5.42513 4.6073,10.90234 0,5.07237 7.7621,12.77445 12.874,12.77445 3.6933,0 3.9386,0.46353 3.9386,7.44259 v 7.44257 l -44.7061,-0.77158 c -66.8055,-1.15303 -100.829,1.6423 -209.774996,17.23475 -55.8874,7.99867 -111.424,14.80982 -172.7109,21.181716 -3.3625,0.3496 -6.983404,0.30507 -8.046504,-0.099 z"
       id="path26340"
       inkscape:connector-curvature="0" />
    <path
       style="opacity:1;fill:#526525;fill-opacity:1;fill-rule:nonzero;stroke:none;stroke-width:0.74801683;stroke-miterlimit:4;stroke-dasharray:none;stroke-opacity:1"
       d="m -1208.346,-137.22149 c -0.01,-1.05881 0.01,-1.92508 0.037,-1.92508 0.027,0 0.1585,0.28874 0.292,0.64169 0.1335,0.35293 0.4764,1.02823 0.7619,1.50067 0.373,0.61724 0.4524,0.83156 0.2822,0.76147 -0.7517,-0.3094 -1.0311,-0.19114 -1.2385,0.52427 -0.088,0.30417 -0.1258,-0.11573 -0.1346,-1.50302 z"
       id="path26342"
       inkscape:connector-curvature="0" />
    <path
       style="opacity:1;fill:#526525;fill-opacity:1;fill-rule:nonzero;stroke:none;stroke-width:0.74801683;stroke-miterlimit:4;stroke-dasharray:none;stroke-opacity:1"
       d="m -1185.9749,-143.63033 c -0.2087,-0.3737 -0.4967,-0.71009 -0.64,-0.74758 -0.2912,-0.0761 -0.2954,-0.0412 0.2068,-1.72601 0.2415,-0.81029 0.3244,-0.9715 0.3313,-0.64421 0.011,0.53168 0.2455,2.16469 0.4376,3.05012 0.078,0.35732 0.1191,0.67159 0.092,0.69837 -0.027,0.0268 -0.2194,-0.25702 -0.428,-0.63069 z"
       id="path26344"
       inkscape:connector-curvature="0" />
    <path
       style="opacity:1;fill:#526525;fill-opacity:1;fill-rule:nonzero;stroke:none;stroke-width:0.74801683;stroke-miterlimit:4;stroke-dasharray:none;stroke-opacity:1"
       d="m -1176.4649,-142.95501 c -0.01,-0.19994 0.043,-0.39695 0.1091,-0.4378 0.066,-0.0409 0.1529,-0.27242 0.1929,-0.51459 0.04,-0.24218 0.1417,-0.71387 0.226,-1.04823 0.1435,-0.56891 0.2168,-0.92321 0.5447,-2.63432 0.2049,-1.06878 0.4043,-2.34232 0.5501,-3.51246 0.074,-0.59441 0.1792,-1.41511 0.2337,-1.82377 l 0.099,-0.74301 0.1128,0.54037 c 0.062,0.29721 0.1649,1.08751 0.2286,1.75623 0.2114,2.22025 0.36,3.37447 0.468,3.63592 0.075,0.18201 0.06,0.22977 -0.051,0.16127 -0.37,-0.22868 -0.8177,0.57878 -2.501,4.51109 -0.1952,0.45601 -0.2028,0.4599 -0.2134,0.1093 z"
       id="path26346"
       inkscape:connector-curvature="0" />
    <path
       style="opacity:1;fill:#526525;fill-opacity:1;fill-rule:nonzero;stroke:none;stroke-width:0.74801683;stroke-miterlimit:4;stroke-dasharray:none;stroke-opacity:1"
       d="m -1159.5837,-134.1632 c 0,-0.0455 0.1678,-0.47098 0.3796,-0.94564 0.7119,-1.59518 0.7746,-3.37844 0.1718,-4.89088 -0.083,-0.20915 -0.1516,-0.39843 -0.1516,-0.42058 0,-0.0452 1.2853,-0.30165 2.0602,-0.411 0.2786,-0.0393 0.7345,-0.10827 1.0132,-0.1532 l 0.5066,-0.0817 -0.7793,0.7026 c -1.2072,1.08853 -1.5915,1.73477 -1.7392,2.92495 -0.1552,1.25007 -0.5287,2.27332 -1.0542,2.88816 -0.2209,0.25847 -0.4041,0.43275 -0.4071,0.3873 z"
       id="path26348"
       inkscape:connector-curvature="0" />
    <path
       style="opacity:1;fill:#526525;fill-opacity:1;fill-rule:nonzero;stroke:none;stroke-width:0.74801683;stroke-miterlimit:4;stroke-dasharray:none;stroke-opacity:1"
       d="m -1141.1569,-159.83142 c -0.1196,-0.2314 -0.4595,-0.68322 -0.7552,-1.00403 l -0.5376,-0.58329 0.2298,-1.15748 c 0.2687,-1.35276 0.5363,-1.53972 0.6417,-0.44824 0.072,0.74141 0.2347,1.55241 0.4961,2.46547 0.2585,0.90309 0.306,1.1483 0.2226,1.1483 -0.044,0 -0.1777,-0.18933 -0.2974,-0.42073 z"
       id="path26350"
       inkscape:connector-curvature="0" />
    <path
       style="opacity:1;fill:#526525;fill-opacity:1;fill-rule:nonzero;stroke:none;stroke-width:0.74801683;stroke-miterlimit:4;stroke-dasharray:none;stroke-opacity:1"
       d="m -1111.6308,-162.36966 c 0,-0.32555 -2.3997,-2.27646 -2.8654,-2.32956 -0.096,-0.0109 0.1601,-0.0645 0.5688,-0.11897 1.5903,-0.2121 2.0036,-0.31606 2.7338,-0.6875 0.5618,-0.28576 0.6765,-0.12503 0.2542,0.35598 -0.5087,0.57938 -0.6246,0.96336 -0.6213,2.05771 0,0.46438 -0.014,0.84433 -0.034,0.84433 -0.02,0 -0.036,-0.0549 -0.036,-0.12199 z"
       id="path26352"
       inkscape:connector-curvature="0" />
    <path
       style="opacity:1;fill:#526525;fill-opacity:1;fill-rule:nonzero;stroke:none;stroke-width:0.74801683;stroke-miterlimit:4;stroke-dasharray:none;stroke-opacity:1"
       d="m -1109.4783,-166.5207 c 1.1518,-1.03558 1.4568,-1.98587 0.9819,-3.05948 -0.2866,-0.64795 -1.5439,-1.98898 -1.8647,-1.98898 -0.1039,0 -0.189,-0.0563 -0.189,-0.12519 0,-0.0689 -0.1063,-0.15299 -0.2364,-0.18696 -0.13,-0.034 0.1444,-0.0688 0.6098,-0.0774 0.4654,-0.009 0.9517,-0.0694 1.0807,-0.13501 0.1291,-0.0656 0.417,-0.20165 0.6399,-0.30226 0.4885,-0.22049 1.3489,-0.85964 1.8422,-1.3684 0.1981,-0.20433 0.3926,-0.37151 0.4323,-0.37151 0.04,0 -0.1453,0.47055 -0.4111,1.04567 -0.8028,1.73755 -1.1363,2.85837 -1.2437,4.18008 -0.1134,1.39465 -0.3694,1.87462 -1.3969,2.61894 -0.8535,0.61826 -1.0173,0.46489 -0.245,-0.22944 z"
       id="path26354"
       inkscape:connector-curvature="0" />
    <path
       style="opacity:1;fill:#526525;fill-opacity:1;fill-rule:nonzero;stroke:none;stroke-width:0.74801683;stroke-miterlimit:4;stroke-dasharray:none;stroke-opacity:1"
       d="m -1101.8353,-179.20631 c -0.2966,-0.55488 -0.5716,-1.00887 -0.611,-1.00887 -0.039,0 -0.1865,0.21314 -0.3268,0.47364 -0.2742,0.50902 -0.4861,0.53683 -0.2498,0.0328 0.078,-0.16706 0.2165,-0.57732 0.307,-0.91168 0.091,-0.33436 0.219,-0.74757 0.2856,-0.91824 0.067,-0.17068 0.1275,-0.47464 0.1354,-0.67547 0.01,-0.25077 0.052,-0.17472 0.1342,0.24277 0.3277,1.6644 0.5848,2.65247 0.8315,3.19516 0.073,0.15985 0.1098,0.35548 0.083,0.43472 -0.027,0.0792 -0.2922,-0.30991 -0.5887,-0.86479 z"
       id="path26356"
       inkscape:connector-curvature="0" />
    <path
       style="opacity:1;fill:#526525;fill-opacity:1;fill-rule:nonzero;stroke:none;stroke-width:0.74801683;stroke-miterlimit:4;stroke-dasharray:none;stroke-opacity:1"
       d="m -1097.7161,-168.98505 c 0,-0.78224 -0.5136,-2.88535 -0.9967,-4.08131 -0.1897,-0.46962 -0.3268,-0.87189 -0.3047,-0.89394 0.022,-0.0221 0.247,0.24856 0.4999,0.60137 0.774,1.07961 2.2984,2.5905 3.134,3.10627 l 0.7929,0.48943 -0.5157,0.20111 c -0.2837,0.1106 -0.9567,0.43378 -1.4956,0.71816 -0.5389,0.28438 -1.0101,0.51706 -1.047,0.51706 -0.037,0 -0.067,-0.29617 -0.067,-0.65815 z"
       id="path26358"
       inkscape:connector-curvature="0" />
    <path
       style="opacity:1;fill:#526525;fill-opacity:1;fill-rule:nonzero;stroke:none;stroke-width:0.74801683;stroke-miterlimit:4;stroke-dasharray:none;stroke-opacity:1"
       d="m -1097.0407,-162.60186 c 0,-0.0386 0.2642,-0.44587 0.5871,-0.90499 0.3229,-0.45913 0.6232,-0.93663 0.6674,-1.06112 0.075,-0.21022 0.1314,-0.20874 0.7976,0.0208 0.3946,0.13594 0.8846,0.28454 1.0889,0.33024 0.3913,0.0875 0.5164,0.34813 0.167,0.34813 -0.1124,0 -0.31,0.0537 -0.439,0.11933 -0.1291,0.0656 -0.3866,0.18102 -0.5724,0.25641 -0.1857,0.0754 -0.5505,0.22868 -0.8105,0.34063 -1.1023,0.47449 -1.4861,0.61668 -1.4861,0.55056 z"
       id="path26360"
       inkscape:connector-curvature="0" />
    <path
       style="opacity:1;fill:#526525;fill-opacity:1;fill-rule:nonzero;stroke:none;stroke-width:0.74801683;stroke-miterlimit:4;stroke-dasharray:none;stroke-opacity:1"
       d="m -1097.6547,-165.68642 c -0.5075,-0.50749 -0.3943,-0.67369 0.175,-0.25689 0.7664,0.56119 0.7878,0.58848 0.4599,0.58848 -0.1668,0 -0.4525,-0.14922 -0.6349,-0.33159 z"
       id="path26362"
       inkscape:connector-curvature="0" />
    <path
       style="opacity:1;fill:#526525;fill-opacity:1;fill-rule:nonzero;stroke:none;stroke-width:0.74801683;stroke-miterlimit:4;stroke-dasharray:none;stroke-opacity:1"
       d="m -1081.7851,-160.81929 c -0.7746,-0.84775 -1.4484,-1.54634 -1.4973,-1.55242 -0.049,-0.006 -0.4248,0.26251 -0.8353,0.59687 -0.4104,0.33436 -0.7787,0.60793 -0.8184,0.60793 -0.1,0 1.796,-2.35475 1.9354,-2.40381 0.062,-0.0218 0.1481,0.10162 0.1915,0.27429 0.1176,0.46864 1.331,2.43533 1.983,3.21407 1.0778,1.2873 0.4495,0.80442 -0.9589,-0.73693 z"
       id="path26364"
       inkscape:connector-curvature="0" />
    <path
       style="opacity:1;fill:#526525;fill-opacity:1;fill-rule:nonzero;stroke:none;stroke-width:0.74801683;stroke-miterlimit:4;stroke-dasharray:none;stroke-opacity:1"
       d="m -1070.9,-148.73826 c -0.046,-0.0743 -0.2622,-0.13509 -0.4808,-0.13509 -0.2185,0 -0.3973,-0.0464 -0.3973,-0.10306 0,-0.0567 -0.1364,-0.16307 -0.3031,-0.23642 -0.1668,-0.0734 -0.3249,-0.24822 -0.3513,-0.3886 -0.047,-0.24818 -0.037,-0.24799 0.3369,0.007 0.7185,0.48856 1.1384,0.58637 2.5867,0.6025 l 1.4459,0.0161 -0.8781,0.18023 c -1.0605,0.21768 -1.8457,0.24083 -1.9589,0.0577 z"
       id="path26366"
       inkscape:connector-curvature="0" />
    <path
       style="opacity:1;fill:#526525;fill-opacity:1;fill-rule:nonzero;stroke:none;stroke-width:0.74801683;stroke-miterlimit:4;stroke-dasharray:none;stroke-opacity:1"
       d="m -1060.4901,-157.18568 c -1.9517,-1.32907 -2.0413,-1.20923 0.9185,-1.22967 1.4225,-0.01 2.5255,7.9e-4 2.4512,0.0237 -0.074,0.0228 -0.5733,0.17535 -1.109,0.33891 -0.5357,0.16355 -1.0812,0.41593 -1.2124,0.56083 -0.2244,0.24794 -0.2251,0.28672 -0.012,0.65839 0.1247,0.21721 0.1839,0.39128 0.1317,0.38681 -0.052,-0.004 -0.578,-0.33699 -1.1683,-0.73893 z"
       id="path26368"
       inkscape:connector-curvature="0" />
    <path
       style="opacity:1;fill:#526525;fill-opacity:1;fill-rule:nonzero;stroke:none;stroke-width:0.74801683;stroke-miterlimit:4;stroke-dasharray:none;stroke-opacity:1"
       d="m -1049.0147,-164.89333 c -0.5201,-0.4086 -1.0977,-0.8654 -1.2834,-1.01511 -0.1858,-0.1497 -0.7792,-0.55337 -1.3187,-0.89704 l -0.9809,-0.62484 0.5756,-0.179 c 1.9885,-0.61829 2.0889,-0.64141 1.8929,-0.43556 -0.2424,0.25451 -0.2073,0.80225 0.082,1.27156 0.2218,0.36038 0.8768,1.14285 1.8943,2.26283 0.5341,0.588 0.1663,0.42451 -0.8614,-0.38284 z"
       id="path26370"
       inkscape:connector-curvature="0" />
    <path
       style="opacity:1;fill:#526525;fill-opacity:1;fill-rule:nonzero;stroke:none;stroke-width:0.74801683;stroke-miterlimit:4;stroke-dasharray:none;stroke-opacity:1"
       d="m -1042.1249,-175.95398 c -0.074,-0.0223 -0.4087,-0.1157 -0.743,-0.20764 -0.7065,-0.19425 -1.2933,-0.38327 -1.7225,-0.55475 -0.1672,-0.0668 -0.4407,-0.17605 -0.6079,-0.24277 -0.4487,-0.17909 -1.1711,-0.48962 -1.8455,-0.79336 -0.5581,-0.2513 -0.578,-0.278 -0.3129,-0.41986 0.1557,-0.0833 0.3669,-0.1515 0.4692,-0.1515 0.1731,0 1.0802,-0.38104 1.6198,-0.68042 0.4449,-0.2468 0.4993,-0.12868 0.1666,0.36154 -0.1835,0.27042 -0.3336,0.56765 -0.3336,0.6605 0,0.40434 0.5623,0.77206 1.9427,1.27041 0.8084,0.29186 1.5349,0.59568 1.6144,0.67516 0.1381,0.1381 0.043,0.16978 -0.2473,0.0827 z"
       id="path26372"
       inkscape:connector-curvature="0" />
    <path
       style="opacity:1;fill:#526525;fill-opacity:1;fill-rule:nonzero;stroke:none;stroke-width:0.74801683;stroke-miterlimit:4;stroke-dasharray:none;stroke-opacity:1"
       d="m -1039.2879,-187.56882 c -0.1486,-0.0903 -0.635,-0.39871 -1.0808,-0.68543 -0.4458,-0.28672 -0.9478,-0.59285 -1.1154,-0.68029 -0.2791,-0.14552 -0.2468,-0.16587 0.3807,-0.2402 0.3772,-0.0447 0.8733,-0.17477 1.1025,-0.28912 0.2292,-0.11434 0.434,-0.2079 0.455,-0.2079 0.021,0 0.01,0.19757 -0.03,0.43905 -0.048,0.3065 0.035,0.64099 0.2741,1.1079 0.1883,0.36787 0.3292,0.68038 0.3131,0.69448 -0.016,0.0141 -0.1507,-0.0482 -0.2993,-0.13849 z"
       id="path26376"
       inkscape:connector-curvature="0" />
    <path
       style="opacity:1;fill:#526525;fill-opacity:1;fill-rule:nonzero;stroke:none;stroke-width:0.74801683;stroke-miterlimit:4;stroke-dasharray:none;stroke-opacity:1"
       d="m -1025.7653,-187.4569 c -0.044,-0.1158 -0.081,-0.39052 -0.081,-0.61048 0,-0.56626 -0.3505,-2.23514 -0.8288,-3.94621 -0.225,-0.80503 -0.3811,-1.49172 -0.3469,-1.52595 0.034,-0.0342 0.2464,0.264 0.4714,0.66275 0.8109,1.43683 2.2307,2.66465 3.0812,2.66465 0.1988,0 0.325,0.0787 0.325,0.20264 0,0.11145 -0.05,0.20264 -0.1108,0.20264 -0.2291,0 -1.3046,1.03251 -1.8565,1.7822 -0.4205,0.57119 -0.5945,0.72229 -0.6538,0.56776 z"
       id="path26378"
       inkscape:connector-curvature="0" />
    <path
       style="opacity:1;fill:#526525;fill-opacity:1;fill-rule:nonzero;stroke:none;stroke-width:0.74801683;stroke-miterlimit:4;stroke-dasharray:none;stroke-opacity:1"
       d="m -1035.4378,-197.03605 c 0,-0.13714 0.057,-0.43604 0.126,-0.66422 0.069,-0.22818 0.1858,-0.65804 0.259,-0.95525 0.073,-0.2972 0.1934,-0.78354 0.2671,-1.08075 0.074,-0.29721 0.2032,-0.87473 0.2879,-1.28339 0.6189,-2.98582 1.2021,-5.32658 1.5039,-6.03596 0.245,-0.57573 0.5932,-0.8666 0.9042,-0.75528 0.4397,0.15737 1.0121,1.72555 2.2078,6.04822 0.082,0.2972 0.2086,0.70275 0.2808,0.9012 0.072,0.19845 0.1108,0.45372 0.086,0.56726 -0.025,0.11354 -0.6762,-1.35586 -1.4467,-3.26534 -0.7705,-1.90949 -1.4452,-3.52033 -1.4993,-3.57967 -0.054,-0.0593 -0.5345,1.62451 -1.0675,3.74186 -0.9055,3.59721 -1.6938,6.39565 -1.8439,6.54573 -0.036,0.0357 -0.065,-0.0473 -0.065,-0.18441 z"
       id="path26380"
       inkscape:connector-curvature="0" />
    <path
       style="opacity:1;fill:#526525;fill-opacity:1;fill-rule:nonzero;stroke:none;stroke-width:0.74801683;stroke-miterlimit:4;stroke-dasharray:none;stroke-opacity:1"
       d="m -1021.0581,-176.62363 c 1.4765,-0.45601 1.6965,-0.59033 1.6965,-1.03562 0,-0.28422 -0.209,-0.56201 -0.8976,-1.19302 -0.9581,-0.87793 -0.9641,-0.99516 -0.027,-0.53316 0.3228,0.15915 0.7237,0.34153 0.8909,0.40528 0.1671,0.0637 0.4559,0.17671 0.6417,0.25101 0.8264,0.33056 0.9796,0.38362 1.5535,0.53804 1.1121,0.29918 1.2341,0.46759 0.5917,0.81651 -0.677,0.36768 -2.2364,0.73214 -3.6988,0.86446 -0.4087,0.037 -0.9862,0.10112 -1.2834,0.14254 -0.3299,0.046 -0.1226,-0.0537 0.5325,-0.25604 z"
       id="path26382"
       inkscape:connector-curvature="0" />
    <path
       style="opacity:1;fill:#526525;fill-opacity:1;fill-rule:nonzero;stroke:none;stroke-width:0.74801683;stroke-miterlimit:4;stroke-dasharray:none;stroke-opacity:1"
       d="m -1013.5954,-165.9965 c 0.056,-0.42944 0.01,-0.56343 -0.3256,-0.87949 -0.2157,-0.20508 -0.7833,-0.58811 -1.2615,-0.85119 -0.7568,-0.41644 -0.8081,-0.4676 -0.3964,-0.39548 0.26,0.0456 0.6248,0.13333 0.8105,0.19503 0.6909,0.2295 1.864,0.44412 1.9927,0.36458 0.073,-0.0453 0.3522,0.0243 0.6198,0.15445 l 0.4867,0.23672 -0.8403,0.74764 c -1.1506,1.02367 -1.1649,1.02928 -1.0859,0.42774 z"
       id="path26384"
       inkscape:connector-curvature="0" />
    <path
       style="opacity:1;fill:#526525;fill-opacity:1;fill-rule:nonzero;stroke:none;stroke-width:0.74801683;stroke-miterlimit:4;stroke-dasharray:none;stroke-opacity:1"
       d="m -959.37981,-178.94299 c -0.78016,-0.48826 -1.52487,-0.98366 -1.6549,-1.1009 -0.25663,-0.23139 -0.32699,-0.5134 -0.0918,-0.36806 0.0795,0.0491 0.58106,0.14414 1.11452,0.2111 0.53347,0.067 0.99251,0.18925 1.0201,0.27175 0.0276,0.0825 0.31596,0.53823 0.6408,1.01272 0.32485,0.47449 0.54545,0.86235 0.49021,0.86191 -0.0552,-5.3e-4 -0.73874,-0.40027 -1.51891,-0.88852 z"
       id="path26386"
       inkscape:connector-curvature="0" />
    <path
       style="opacity:1;fill:#526525;fill-opacity:1;fill-rule:nonzero;stroke:none;stroke-width:0.74801683;stroke-miterlimit:4;stroke-dasharray:none;stroke-opacity:1"
       d="m -956.58519,-187.18955 -1.05557,-1.09778 1.73104,-0.0982 c 0.95207,-0.054 2.21321,-0.18224 2.80253,-0.28493 0.58933,-0.1027 1.0948,-0.16342 1.12328,-0.13494 0.0848,0.0848 -1.19812,0.4561 -1.90778,0.55217 -0.74635,0.10103 -1.24381,0.50177 -1.36903,1.10286 -0.24272,1.16505 -0.16433,1.16737 -1.32447,-0.0392 z"
       id="path26388"
       inkscape:connector-curvature="0" />
    <path
       style="opacity:1;fill:#526525;fill-opacity:1;fill-rule:nonzero;stroke:none;stroke-width:0.74801683;stroke-miterlimit:4;stroke-dasharray:none;stroke-opacity:1"
       d="m -938.18854,-198.01076 c -0.22477,-0.50322 -0.51507,-1.3101 -0.64511,-1.79306 -0.54674,-2.03052 -1.62883,-3.64754 -2.44089,-3.64754 -0.18653,0 -0.49419,0.15502 -0.68365,0.34449 l -0.34449,0.34449 0.0759,-0.716 c 0.0417,-0.3938 0.13444,-1.14154 0.20595,-1.66165 0.17465,-1.26987 0.42598,-3.2093 0.53398,-4.12037 0.0485,-0.40866 0.13309,-0.67381 0.18807,-0.58921 0.0821,0.1263 1.01121,3.59183 1.46182,5.45259 0.063,0.26006 0.18249,0.7464 0.26554,1.08076 0.0831,0.33435 0.18375,0.80606 0.22376,1.04823 0.04,0.24217 0.12679,0.47373 0.19288,0.51457 0.0661,0.0408 0.12017,0.24947 0.12017,0.46361 0,0.21413 0.0608,0.42691 0.13507,0.47283 0.0743,0.0459 0.1351,0.25012 0.1351,0.45378 0,0.20366 0.0546,0.42804 0.12134,0.49863 0.1588,0.16798 0.9975,2.63453 0.92162,2.71041 -0.0321,0.0321 -0.24228,-0.35334 -0.46704,-0.85656 z"
       id="path26390"
       inkscape:connector-curvature="0" />
    <path
       style="opacity:1;fill:#526525;fill-opacity:1;fill-rule:nonzero;stroke:none;stroke-width:0.74801683;stroke-miterlimit:4;stroke-dasharray:none;stroke-opacity:1"
       d="m -932.68521,-186.27198 c 0,-0.30759 0.14203,-0.55791 0.54036,-0.95227 0.2972,-0.29426 0.54038,-0.65229 0.54038,-0.79563 0,-0.42462 -0.28323,-1.13884 -0.70167,-1.76937 -0.42172,-0.63545 -0.40209,-0.85681 0.0509,-0.57394 0.94157,0.58802 2.08592,1.07023 3.26059,1.37396 l 0.65091,0.1683 -0.786,0.42329 c -1.22232,0.65826 -2.29106,1.37746 -2.95143,1.98617 l -0.60399,0.55675 z"
       id="path26392"
       inkscape:connector-curvature="0" />
    <path
       style="opacity:1;fill:#526525;fill-opacity:1;fill-rule:nonzero;stroke:none;stroke-width:0.74801683;stroke-miterlimit:4;stroke-dasharray:none;stroke-opacity:1"
       d="m -929.07426,-180.97227 c -0.0542,-0.0542 -0.0991,-0.22515 -0.0998,-0.37995 -0.003,-0.42589 -0.58383,-1.58766 -1.07567,-2.14782 -0.47985,-0.54651 -0.4554,-0.58911 0.17844,-0.31097 0.23415,0.10274 0.62328,0.25472 0.86476,0.33774 0.24149,0.083 0.61831,0.2178 0.83738,0.29953 l 0.39831,0.1486 -0.45014,0.89838 c -0.24757,0.49411 -0.47368,0.97817 -0.50244,1.07569 -0.0288,0.0975 -0.0967,0.13298 -0.15082,0.0788 z"
       id="path26394"
       inkscape:connector-curvature="0" />
    <path
       style="opacity:1;fill:#526525;fill-opacity:1;fill-rule:nonzero;stroke:none;stroke-width:0.74801683;stroke-miterlimit:4;stroke-dasharray:none;stroke-opacity:1"
       d="m -919.0022,-175.65221 c -0.24088,-0.90065 -0.68623,-1.23554 -1.62621,-1.22287 -0.5565,0.007 -0.67853,-0.0187 -0.43074,-0.0926 0.99187,-0.29587 2.38246,-1.13631 3.00826,-1.81815 0.41417,-0.45127 0.40976,-0.41613 -0.10229,0.81581 -0.18897,0.45465 -0.42236,1.29289 -0.51861,1.86276 l -0.175,1.03614 z"
       id="path26398"
       inkscape:connector-curvature="0" />
    <path
       style="opacity:1;fill:#526525;fill-opacity:1;fill-rule:nonzero;stroke:none;stroke-width:0.74801683;stroke-miterlimit:4;stroke-dasharray:none;stroke-opacity:1"
       d="m -903.67987,-160.89673 c -0.44203,-4.55572 -0.51958,-5.84248 -0.59277,-9.83421 l -0.0725,-3.95762 -0.47442,0.91801 c -0.26091,0.5049 -0.54298,1.05431 -0.62683,1.22091 -0.0839,0.1666 -0.19804,0.30338 -0.25376,0.30396 -0.0557,5.3e-4 -0.10366,0.077 -0.10652,0.16992 -0.009,0.28333 -1.2047,1.55409 -1.20788,1.28339 -0.003,-0.13003 0.0477,-0.23641 0.10949,-0.23641 0.0618,0 0.19854,-0.16718 0.30395,-0.37151 0.10544,-0.20433 0.29808,-0.48936 0.42812,-0.63339 0.13002,-0.14404 0.23641,-0.34162 0.23641,-0.43906 0,-0.0974 0.0608,-0.17717 0.13509,-0.17717 0.0743,0 0.1351,-0.12158 0.1351,-0.27019 0,-0.1486 0.0608,-0.27018 0.1351,-0.27018 0.0743,0 0.13509,-0.12159 0.13509,-0.27019 0,-0.14861 0.0456,-0.27067 0.10131,-0.27124 0.12134,-0.001 0.43908,-0.65546 0.43908,-0.904 0,-0.0966 0.0608,-0.17571 0.13509,-0.17571 0.0743,0 0.13507,-0.12664 0.13507,-0.28144 0,-0.16491 0.0699,-0.2583 0.16889,-0.22554 0.11282,0.0374 0.18206,0.43308 0.20862,1.19257 0.022,0.62517 0.0979,1.19476 0.16888,1.26577 0.076,0.076 0.12909,1.6991 0.12909,3.94428 0,2.39774 0.0502,3.84621 0.1351,3.89869 0.0795,0.0491 0.1351,0.84799 0.1351,1.93981 0,1.10462 0.0569,1.9132 0.14044,1.99678 0.0833,0.0833 0.12454,0.65795 0.10133,1.41173 -0.0391,1.26942 -0.0395,1.26762 -0.28165,-1.22796 z"
       id="path26400"
       inkscape:connector-curvature="0" />
    <path
       style="opacity:1;fill:#526525;fill-opacity:1;fill-rule:nonzero;stroke:none;stroke-width:0.74801683;stroke-miterlimit:4;stroke-dasharray:none;stroke-opacity:1"
       d="m -904.4896,-170.28576 c -0.0586,-0.74302 -0.14282,-1.64259 -0.18711,-1.99904 l -0.0805,-0.6481 -0.31948,0.30014 c -0.42601,0.40021 -0.39466,0.22191 0.14557,-0.82771 l 0.45196,-0.87811 0.0895,0.74301 c 0.0492,0.40866 0.0708,1.62451 0.0481,2.70188 l -0.0414,1.95887 z"
       id="path26404"
       inkscape:connector-curvature="0" />
    <path
       style="opacity:1;fill:#526525;fill-opacity:1;fill-rule:nonzero;stroke:none;stroke-width:0.74801683;stroke-miterlimit:4;stroke-dasharray:none;stroke-opacity:1"
       d="m -881.08506,-140.85255 c -0.16925,-0.67432 -1.37554,-2.06568 -1.79774,-2.07354 -0.0929,-0.003 -0.16885,-0.0706 -0.16885,-0.15301 0,-0.0987 0.17282,-0.11988 0.5066,-0.062 0.27863,0.0483 1.1971,0.12253 2.04107,0.16492 l 1.53445,0.0771 -0.74512,0.76176 c -0.40981,0.41894 -0.86484,0.96303 -1.01116,1.20904 l -0.26601,0.4473 z"
       id="path26406"
       inkscape:connector-curvature="0" />
    <path
       style="opacity:1;fill:#526525;fill-opacity:1;fill-rule:nonzero;stroke:none;stroke-width:0.74801683;stroke-miterlimit:4;stroke-dasharray:none;stroke-opacity:1"
       d="m -877.54657,-148.77153 c -0.92411,-0.27945 -1.18483,-0.50711 -0.58074,-0.50711 0.4666,0 1.70376,-0.33664 2.44957,-0.66654 0.34703,-0.15351 0.65325,-0.27912 0.68045,-0.27912 0.0272,0 -0.16287,0.27823 -0.42246,0.61828 -0.25955,0.34005 -0.47193,0.7352 -0.47193,0.87811 0,0.33677 -0.43493,0.32531 -1.65489,-0.0436 z"
       id="path26408"
       inkscape:connector-curvature="0" />
    <path
       style="opacity:1;fill:#526525;fill-opacity:1;fill-rule:nonzero;stroke:none;stroke-width:0.74801683;stroke-miterlimit:4;stroke-dasharray:none;stroke-opacity:1"
       d="m -871.49378,-156.40174 c -0.31091,-0.0791 -1.09503,-0.56741 -1.53688,-0.95709 l -0.31369,-0.27666 0.38123,-0.23268 c 0.20969,-0.12797 0.70946,-0.44284 1.11059,-0.69969 0.55965,-0.35835 0.70459,-0.40857 0.62294,-0.21586 -0.23469,0.55376 -0.24302,1.79258 -0.0143,2.1415 0.22593,0.3448 0.2122,0.35801 -0.24979,0.24048 z"
       id="path26410"
       inkscape:connector-curvature="0" />
    <path
       style="opacity:1;fill:#526525;fill-opacity:1;fill-rule:nonzero;stroke:none;stroke-width:0.74801683;stroke-miterlimit:4;stroke-dasharray:none;stroke-opacity:1"
       d="m -866.64016,-165.6275 c -0.28887,-0.29584 -0.56266,-0.53789 -0.60841,-0.53789 -0.0457,0 -0.18727,0.19757 -0.31448,0.43905 -0.18986,0.36035 -0.21794,0.37851 -0.15661,0.10132 0.0411,-0.18575 0.17463,-0.85447 0.29668,-1.48603 0.23437,-1.21248 0.44752,-1.68639 0.44752,-0.99499 0,0.44066 0.44288,1.89978 0.76713,2.52735 0.29438,0.56972 0.15698,0.55419 -0.43183,-0.0488 z"
       id="path26412"
       inkscape:connector-curvature="0" />
    <path
       style="opacity:1;fill:#526525;fill-opacity:1;fill-rule:nonzero;stroke:none;stroke-width:0.74801683;stroke-miterlimit:4;stroke-dasharray:none;stroke-opacity:1"
       d="m -859.46056,-157.32844 c -0.13533,-0.32719 -0.48199,-0.95994 -0.77036,-1.40611 -0.28839,-0.44618 -0.50146,-0.81124 -0.47352,-0.81124 0.0279,0 0.43696,0.23086 0.90892,0.51302 0.47199,0.28215 1.20925,0.66857 1.63841,0.85869 0.82476,0.36541 0.82658,0.41292 0.0303,0.79052 -0.22288,0.1057 -0.55882,0.29519 -0.74647,0.42109 l -0.34123,0.22891 z"
       id="path26414"
       inkscape:connector-curvature="0" />
    <path
       style="opacity:1;fill:#526525;fill-opacity:1;fill-rule:nonzero;stroke:none;stroke-width:0.74801683;stroke-miterlimit:4;stroke-dasharray:none;stroke-opacity:1"
       d="m -855.21667,-151.38986 c -0.18243,-0.34386 -0.60785,-0.90262 -0.94543,-1.24169 -0.35518,-0.35676 -0.49993,-0.5722 -0.34359,-0.51135 0.14862,0.0578 0.77166,0.20626 1.38457,0.32981 0.61288,0.12356 1.11442,0.28116 1.11453,0.35024 2.1e-4,0.17451 -0.72692,1.69818 -0.81042,1.69818 -0.0374,0 -0.21725,-0.28134 -0.39966,-0.62519 z"
       id="path26416"
       inkscape:connector-curvature="0" />
    <path
       style="opacity:1;fill:#526525;fill-opacity:1;fill-rule:nonzero;stroke:none;stroke-width:0.74801683;stroke-miterlimit:4;stroke-dasharray:none;stroke-opacity:1"
       d="m -849.05812,-143.20837 -0.79317,-0.77999 1.09747,-0.0446 c 0.60359,-0.0246 1.09731,0 1.09712,0.0522 -1.8e-4,0.0532 -0.0854,0.29636 -0.18931,0.54035 -0.10393,0.24403 -0.24072,0.57153 -0.30395,0.72785 -0.10716,0.26484 -0.16889,0.23116 -0.90816,-0.49581 z"
       id="path26418"
       inkscape:connector-curvature="0" />
    <path
       style="opacity:1;fill:#526525;fill-opacity:1;fill-rule:nonzero;stroke:none;stroke-width:0.74801683;stroke-miterlimit:4;stroke-dasharray:none;stroke-opacity:1"
       d="m -835.75722,-154.42138 c -0.006,-0.1165 0.26789,-1.30195 0.60936,-2.63434 0.3415,-1.33238 0.65254,-2.5593 0.69122,-2.72648 0.0911,-0.39368 0.30901,-0.39368 0.30914,0 1.3e-4,0.34645 0.29848,1.81489 0.60775,2.9913 0.11512,0.4378 0.18566,0.81965 0.15677,0.84853 -0.0289,0.0289 -0.25834,-0.40524 -0.50991,-0.96473 -0.25154,-0.55949 -0.48937,-1.01733 -0.52853,-1.01741 -0.0391,-8e-5 -0.35311,0.83575 -0.69773,1.8574 -0.34462,1.02165 -0.63175,1.76223 -0.63807,1.64573 z"
       id="path26422"
       inkscape:connector-curvature="0" />
    <path
       style="opacity:1;fill:#526525;fill-opacity:1;fill-rule:nonzero;stroke:none;stroke-width:0.74801683;stroke-miterlimit:4;stroke-dasharray:none;stroke-opacity:1"
       d="m -816.50868,-136.55095 c -0.0471,-0.14841 -0.29205,-0.47162 -0.5443,-0.71829 -0.25228,-0.24665 -0.42905,-0.49639 -0.39285,-0.55499 0.0362,-0.0586 0.74615,-0.10367 1.57765,-0.1002 l 1.51186,0.006 -0.62847,0.32731 c -0.34562,0.18 -0.81063,0.54835 -1.03333,0.81852 -0.36832,0.44683 -0.41267,0.46683 -0.49056,0.22138 z"
       id="path26426"
       inkscape:connector-curvature="0" />
    <path
       style="opacity:1;fill:#526525;fill-opacity:1;fill-rule:nonzero;stroke:none;stroke-width:0.74801683;stroke-miterlimit:4;stroke-dasharray:none;stroke-opacity:1"
       d="m -808.19129,-142.18621 c -0.0719,-0.77832 -1.71617,-2.29449 -3.61331,-3.33184 l -0.90506,-0.49491 0.59515,-0.16002 c 1.14316,-0.30739 2.21914,-0.71106 2.58779,-0.97089 0.45333,-0.31951 0.45577,-0.29448 0.044,0.44879 -0.18015,0.32512 -0.36973,0.82148 -0.42129,1.103 -0.0898,0.49027 -0.0623,0.54147 0.65333,1.21584 0.87249,0.82219 1.21327,1.42991 1.13824,2.02977 -0.0296,0.23675 -0.0651,0.30888 -0.0788,0.16026 z"
       id="path26430"
       inkscape:connector-curvature="0" />
    <path
       style="opacity:1;fill:#526525;fill-opacity:1;fill-rule:nonzero;stroke:none;stroke-width:0.74801683;stroke-miterlimit:4;stroke-dasharray:none;stroke-opacity:1"
       d="m -803.48126,-157.89023 c 0,-0.15877 0.0608,-0.32624 0.1351,-0.37216 0.0743,-0.0459 0.13509,-0.20232 0.13509,-0.34754 0,-0.14523 0.0559,-0.36961 0.12431,-0.49863 0.0684,-0.12902 0.25683,-0.58175 0.41881,-1.00607 0.26119,-0.68415 0.60928,-1.18755 0.7176,-1.03776 0.0212,0.0292 0.18256,0.50896 0.3588,1.06623 0.17624,0.55726 0.37031,1.07096 0.43122,1.14154 0.21669,0.25107 0.10657,0.38258 -0.13629,0.16279 -0.25466,-0.23047 -0.77319,-0.29016 -1.17642,-0.13542 -0.12636,0.0485 -0.40489,0.36435 -0.61899,0.70192 -0.29609,0.46691 -0.38923,0.5447 -0.38923,0.3251 z"
       id="path26432"
       inkscape:connector-curvature="0" />
    <path
       style="opacity:1;fill:#526525;fill-opacity:1;fill-rule:nonzero;stroke:none;stroke-width:0.74801683;stroke-miterlimit:4;stroke-dasharray:none;stroke-opacity:1"
       d="m -788.62091,-145.34914 c 0,-0.47162 -0.38171,-1.10628 -1.12429,-1.86931 -0.75285,-0.77357 -0.69332,-0.83577 0.43981,-0.45961 1.00878,0.33488 1.96589,0.56092 2.37509,0.56092 0.44715,0 0.43074,0.31202 -0.0324,0.61545 -0.20248,0.13268 -0.65841,0.51276 -1.01319,0.8446 -0.56946,0.53266 -0.64503,0.56875 -0.64503,0.30795 z"
       id="path26434"
       inkscape:connector-curvature="0" />
    <path
       style="opacity:1;fill:#526525;fill-opacity:1;fill-rule:nonzero;stroke:none;stroke-width:0.74801683;stroke-miterlimit:4;stroke-dasharray:none;stroke-opacity:1"
       d="m -785.72666,-141.10771 -0.41555,-0.70054 0.88839,-0.17296 c 0.48861,-0.0951 0.99475,-0.22794 1.1248,-0.29506 0.31504,-0.16267 0.30091,0.003 -0.0244,0.28453 -0.1434,0.12441 -0.46257,0.53181 -0.70924,0.90538 l -0.44847,0.67918 z"
       id="path26436"
       inkscape:connector-curvature="0" />
    <path
       style="opacity:1;fill:#526525;fill-opacity:1;fill-rule:nonzero;stroke:none;stroke-width:0.74801683;stroke-miterlimit:4;stroke-dasharray:none;stroke-opacity:1"
       d="m -763.78815,-170.52316 c -0.62984,-1.66198 -1.60448,-3.78494 -2.0148,-4.38865 -0.16378,-0.24097 -0.40825,-0.43855 -0.5433,-0.43906 -0.16909,-5.3e-4 -0.22465,-0.0745 -0.17854,-0.23734 0.0369,-0.13002 0.1061,-0.81394 0.15388,-1.5198 0.0478,-0.70587 0.117,-1.38978 0.15386,-1.51981 0.0855,-0.30188 0.31896,-0.30846 0.31896,-0.009 0,0.12508 0.11345,0.56583 0.25209,0.97943 0.13867,0.41361 0.32808,1.02558 0.42095,1.35994 0.0929,0.33435 0.21556,0.7599 0.27263,0.94566 0.0571,0.18575 0.17108,0.5809 0.25339,0.87811 0.17523,0.63291 0.50744,1.75333 1.09487,3.69268 0.2326,0.76785 0.40434,1.45133 0.38164,1.51883 -0.0228,0.0675 -0.27721,-0.49994 -0.56563,-1.26099 z"
       id="path26438"
       inkscape:connector-curvature="0" />
    <path
       style="opacity:1;fill:#526525;fill-opacity:1;fill-rule:nonzero;stroke:none;stroke-width:0.74801683;stroke-miterlimit:4;stroke-dasharray:none;stroke-opacity:1"
       d="m -744.09971,-152.51441 c -0.90329,-0.42534 -1.1775,-0.68195 -0.72871,-0.68195 0.37981,0 1.87036,-0.68678 2.64038,-1.21657 0.34422,-0.23683 0.65638,-0.4001 0.69366,-0.36281 0.0373,0.0373 -0.24138,0.45149 -0.61926,0.92044 -0.37788,0.46895 -0.75925,1.05222 -0.84746,1.29616 -0.0882,0.24394 -0.19376,0.44172 -0.23455,0.43951 -0.0408,-0.002 -0.44763,-0.17986 -0.90406,-0.39478 z"
       id="path26440"
       inkscape:connector-curvature="0" />
    <path
       style="opacity:1;fill:#526525;fill-opacity:1;fill-rule:nonzero;stroke:none;stroke-width:0.74801683;stroke-miterlimit:4;stroke-dasharray:none;stroke-opacity:1"
       d="m -738.34036,-163.42974 c 0,-0.0557 -0.36555,-0.31094 -0.81056,-0.56714 -0.44502,-0.25619 -0.80647,-0.49937 -0.80324,-0.54037 0.006,-0.0708 2.29073,-1.22105 2.29073,-1.15309 0,0.0178 -0.0912,0.25057 -0.20264,0.51731 -0.11145,0.26675 -0.20265,0.79091 -0.20265,1.1648 0,0.3739 -0.0608,0.67981 -0.13509,0.67981 -0.0743,0 -0.13573,-0.0456 -0.13655,-0.10132 z"
       id="path26442"
       inkscape:connector-curvature="0" />
    <path
       style="opacity:1;fill:#526525;fill-opacity:1;fill-rule:nonzero;stroke:none;stroke-width:0.74801683;stroke-miterlimit:4;stroke-dasharray:none;stroke-opacity:1"
       d="m -728.27408,-179.37115 c -0.21915,-0.41859 -0.62497,-0.99919 -0.90183,-1.29022 -0.453,-0.4762 -0.55854,-0.52388 -1.05474,-0.47656 -0.55015,0.0525 -0.55118,0.0517 -0.46752,-0.35667 0.16571,-0.80898 0.51195,-1.35254 0.88937,-1.39625 0.6018,-0.0697 0.9656,0.62666 1.87452,3.58823 0.25562,0.83287 0.11759,0.80504 -0.3398,-0.0685 z"
       id="path26444"
       inkscape:connector-curvature="0" />
    <path
       style="opacity:1;fill:#526525;fill-opacity:1;fill-rule:nonzero;stroke:none;stroke-width:0.74801683;stroke-miterlimit:4;stroke-dasharray:none;stroke-opacity:1"
       d="m -722.19615,-161.35669 c -0.0241,-0.0814 -0.079,-0.48901 -0.12179,-0.90585 -0.0652,-0.63548 -0.28697,-1.49386 -0.85119,-3.29493 -0.0535,-0.17065 0.0586,-0.096 0.30427,0.20264 0.7598,0.92374 1.2909,1.37197 2.02253,1.70692 0.40762,0.18661 0.74112,0.36648 0.74112,0.39971 0,0.16236 -2.05687,2.01951 -2.09494,1.89151 z"
       id="path26446"
       inkscape:connector-curvature="0" />
    <path
       style="opacity:1;fill:#526525;fill-opacity:1;fill-rule:nonzero;stroke:none;stroke-width:0.74801683;stroke-miterlimit:4;stroke-dasharray:none;stroke-opacity:1"
       d="m -715.20059,-150.28284 c 0.73146,-0.73147 1.09937,-1.45686 0.98001,-1.93234 -0.0479,-0.19077 -0.28114,-0.52863 -0.51837,-0.75079 -0.32433,-0.30374 -0.3643,-0.38455 -0.16113,-0.32578 0.14862,0.043 0.52856,0.15245 0.84434,0.24325 0.41672,0.11982 0.57414,0.23564 0.57414,0.4224 0,0.49481 -0.72839,1.73888 -1.3689,2.33798 -0.83751,0.7834 -1.13265,0.78784 -0.35009,0.005 z"
       id="path26448"
       inkscape:connector-curvature="0" />
    <path
       style="opacity:1;fill:#526525;fill-opacity:1;fill-rule:nonzero;stroke:none;stroke-width:0.74801683;stroke-miterlimit:4;stroke-dasharray:none;stroke-opacity:1"
       d="m -706.35504,-172.75543 c 0.0653,-2.4359 0.0427,-2.39357 0.62968,-1.17787 0.94067,1.94815 1.27648,2.69795 1.22944,2.74499 -0.0254,0.0255 -0.16912,-0.0194 -0.3192,-0.0997 -0.38888,-0.20813 -1.10939,-0.18051 -1.36675,0.0524 -0.20143,0.18229 -0.21553,0.0585 -0.17317,-1.51981 z"
       id="path26450"
       inkscape:connector-curvature="0" />
    <path
       style="opacity:1;fill:#526525;fill-opacity:1;fill-rule:nonzero;stroke:none;stroke-width:0.74801683;stroke-miterlimit:4;stroke-dasharray:none;stroke-opacity:1"
       d="m -684.1959,-171.74065 -1.04291,-0.68909 0.64191,-0.68424 c 0.645,-0.68754 1.65145,-1.97496 2.1018,-2.68859 0.36938,-0.58535 0.37883,-0.3736 0.0295,0.66034 -0.4831,1.42978 -0.6608,2.4684 -0.57034,3.33386 0.0448,0.42877 0.0368,0.77447 -0.0177,0.7682 -0.0546,-0.006 -0.56857,-0.32148 -1.14218,-0.70048 z"
       id="path26452"
       inkscape:connector-curvature="0" />
    <path
       style="opacity:1;fill:#526525;fill-opacity:1;fill-rule:nonzero;stroke:none;stroke-width:0.74801683;stroke-miterlimit:4;stroke-dasharray:none;stroke-opacity:1"
       d="m -677.4092,-186.24806 c -0.003,-0.2322 1.16924,-2.98657 1.54297,-3.62432 0.7108,-1.21289 1.38927,-1.069 2.11034,0.44758 0.23569,0.49574 0.48228,1.0069 0.54798,1.13592 0.0657,0.12902 0.11943,0.34686 0.11943,0.48409 0,0.13722 0.0417,0.29116 0.0926,0.34209 0.10985,0.10986 0.44402,1.04215 0.44299,1.23584 0,0.0743 -0.3283,-0.53362 -0.72867,-1.35094 -1.01962,-2.08154 -1.38612,-2.41767 -1.96212,-1.79942 -0.24844,0.26667 -1.1299,1.5887 -1.87529,2.81262 -0.15838,0.26006 -0.289,0.4025 -0.29024,0.31654 z"
       id="path26454"
       inkscape:connector-curvature="0" />
    <path
       style="opacity:1;fill:#526525;fill-opacity:1;fill-rule:nonzero;stroke:none;stroke-width:0.74801683;stroke-miterlimit:4;stroke-dasharray:none;stroke-opacity:1"
       d="m -667.08246,-172.42536 c 0.20089,-0.34284 0.34343,-0.79412 0.34343,-1.08748 v -0.50146 l 0.60367,0.50461 c 0.464,0.38786 0.56957,0.54569 0.45627,0.68219 -0.0811,0.0977 -0.20497,0.17759 -0.27538,0.17759 -0.0704,0 -0.39303,0.18238 -0.71702,0.40528 -0.32398,0.22291 -0.62627,0.40528 -0.67175,0.40528 -0.0454,0 0.0719,-0.2637 0.26078,-0.58601 z"
       id="path26456"
       inkscape:connector-curvature="0" />
    <path
       style="opacity:1;fill:#526525;fill-opacity:1;fill-rule:nonzero;stroke:none;stroke-width:0.74801683;stroke-miterlimit:4;stroke-dasharray:none;stroke-opacity:1"
       d="m -659.98435,-159.99976 c 0,-0.45008 -0.53589,-1.20159 -1.73456,-2.43241 -0.56917,-0.58444 -0.9593,-1.04039 -0.86693,-1.01321 0.0923,0.0272 1.01814,0.62694 2.05729,1.33281 2.11093,1.4339 2.21141,1.59955 1.28722,2.12186 -0.67907,0.38378 -0.74302,0.383 -0.74302,-0.009 z"
       id="path26458"
       inkscape:connector-curvature="0" />
    <path
       style="opacity:1;fill:#526525;fill-opacity:1;fill-rule:nonzero;stroke:none;stroke-width:0.74801683;stroke-miterlimit:4;stroke-dasharray:none;stroke-opacity:1"
       d="m -637.58573,-161.35232 c 0,-0.0608 0.11982,-0.27892 0.2663,-0.48462 0.14647,-0.2057 0.50308,-0.82029 0.79245,-1.36576 0.28935,-0.54546 0.58494,-1.01135 0.65683,-1.03532 0.13412,-0.0447 0.36137,0.61139 0.50221,1.44998 0.0746,0.44417 0.0696,0.45236 -0.0826,0.13509 -0.0891,-0.18575 -0.18212,-0.36479 -0.20678,-0.39786 -0.0246,-0.0331 -0.46865,0.36046 -0.98665,0.87449 -0.51801,0.51404 -0.94181,0.88483 -0.94181,0.824 z"
       id="path26460"
       inkscape:connector-curvature="0" />
    <path
       style="opacity:1;fill:#526525;fill-opacity:1;fill-rule:nonzero;stroke:none;stroke-width:0.74801683;stroke-miterlimit:4;stroke-dasharray:none;stroke-opacity:1"
       d="m -587.34948,-133.53724 -1.55864,-2.75762 -0.72321,0.73231 c -0.76512,0.77473 -1.02155,0.87995 -0.558,0.22894 0.38163,-0.53596 2.17783,-4.06908 2.20548,-4.33821 0.0122,-0.11978 0.0691,0.23815 0.12629,0.79542 0.10218,0.99655 0.29681,2.23837 0.43405,2.76944 0.0384,0.14859 0.14816,0.63492 0.24394,1.08075 0.32777,1.52564 0.5611,2.01665 1.00344,2.1115 0.29757,0.0638 0.32411,0.0896 0.10443,0.10158 -0.32748,0.0177 -0.30716,0.18727 0.16047,1.33874 0.49109,1.2093 0.0693,0.60433 -1.43825,-2.06285 z"
       id="path26462"
       inkscape:connector-curvature="0" />
    <path
       style="opacity:1;fill:#526525;fill-opacity:1;fill-rule:nonzero;stroke:none;stroke-width:0.74801683;stroke-miterlimit:4;stroke-dasharray:none;stroke-opacity:1"
       d="m -103.11098,-96.520394 c -0.4298,-0.094 -0.8103,-0.19979 -0.8456,-0.23503 -0.035,-0.0352 0.3164,-0.39232 0.7815,-0.79349 0.465,-0.40118 0.9627,-0.83566 1.1059,-0.96554 0.3809,-0.34549 0.4046,-0.20502 0.075,0.4418 -0.2031,0.39817 -0.2775,0.75092 -0.2448,1.16139 0.026,0.32422 0.016,0.58327 -0.022,0.57565 -0.038,-0.008 -0.4202,-0.0907 -0.85,-0.18478 z"
       id="path26464"
       inkscape:connector-curvature="0" />
    <path
       style="opacity:1;fill:#526525;fill-opacity:1;fill-rule:nonzero;stroke:none;stroke-width:0.74801683;stroke-miterlimit:4;stroke-dasharray:none;stroke-opacity:1"
       d="m -95.039576,-110.52013 c 0.2216,-1.09678 0.3055,-1.12435 0.7528,-0.24752 l 0.271,0.5312 h -0.3294 c -0.1812,0 -0.4324,0.0395 -0.5583,0.0878 -0.1973,0.0757 -0.2161,0.0243 -0.1361,-0.3715 z"
       id="path26466"
       inkscape:connector-curvature="0" />
    <path
       style="opacity:1;fill:#526525;fill-opacity:1;fill-rule:nonzero;stroke:none;stroke-width:0.74801683;stroke-miterlimit:4;stroke-dasharray:none;stroke-opacity:1"
       d="m -65.372776,-125.83983 c -0.01,-0.59441 -0.049,-1.49108 -0.097,-1.99263 -0.056,-0.59026 -0.037,-0.91188 0.053,-0.91188 0.076,0 0.1727,0.10639 0.214,0.23643 0.041,0.13001 0.3224,0.67715 0.6247,1.21584 0.4747,0.84577 0.5156,0.97943 0.2994,0.97943 -0.3297,0 -0.6493,0.3674 -0.8891,1.02217 l -0.1946,0.53141 z"
       id="path26468"
       inkscape:connector-curvature="0" />
    <path
       style="opacity:1;fill:#526525;fill-opacity:1;fill-rule:nonzero;stroke:none;stroke-width:0.74801683;stroke-miterlimit:4;stroke-dasharray:none;stroke-opacity:1"
       d="m -8.0914762,-131.79322 c -1.1219,-0.5684 -1.5719,-0.63658 -2.2051998,-0.33411 -0.2787,0.13306 -0.5066,0.20309 -0.5066,0.15565 0,-0.0475 0.1215,-0.41891 0.2701,-0.82547 0.1486,-0.40656 0.2702,-0.90366 0.2702,-1.10466 0,-0.20098 0.049,-0.39548 0.1081,-0.4322 0.059,-0.0367 0.7917998,0.62839 1.6275998,1.47804 0.8358,0.84966 1.4711,1.53535 1.4118,1.52374 -0.059,-0.0116 -0.4986,-0.21905 -0.976,-0.46099 z"
       id="path26472"
       inkscape:connector-curvature="0" />
    <path
       style="opacity:1;fill:#526525;fill-opacity:1;fill-rule:nonzero;stroke:none;stroke-width:0.74801683;stroke-miterlimit:4;stroke-dasharray:none;stroke-opacity:1"
       d="m 27.053324,-135.42539 c -0.098,-0.18238 -0.3825,-0.42889 -0.633,-0.54777 -0.6361,-0.30186 -0.5506,-0.37449 1.5078,-1.28079 0.3715,-0.16359 0.852,-0.38277 1.0678,-0.4871 0.6283,-0.30385 0.6047,-0.23609 -0.2196,0.63016 -0.4291,0.4509 -0.938,1.08921 -1.1309,1.41848 -0.193,0.32925 -0.3652,0.59865 -0.3828,0.59865 -0.017,0 -0.1117,-0.14923 -0.2093,-0.33163 z"
       id="path26474"
       inkscape:connector-curvature="0" />
    <path
       style="opacity:1;fill:#526525;fill-opacity:1;fill-rule:nonzero;stroke:none;stroke-width:0.74801683;stroke-miterlimit:4;stroke-dasharray:none;stroke-opacity:1"
       d="m 30.488224,-145.21087 c -0.071,-0.0661 -0.4899,-0.20823 -0.9317,-0.31584 -0.9396,-0.22889 -1.0934,-0.44055 -0.4129,-0.56821 0.2663,-0.05 0.7592,-0.20876 1.0954,-0.35285 l 0.6112,-0.26199 -0.109,0.30292 c -0.06,0.16661 -0.1003,0.53088 -0.09,0.80952 0.021,0.55729 0.021,0.55853 -0.1632,0.38645 z"
       id="path26476"
       inkscape:connector-curvature="0" />
    <path
       style="opacity:1;fill:#526525;fill-opacity:1;fill-rule:nonzero;stroke:none;stroke-width:0.74801683;stroke-miterlimit:4;stroke-dasharray:none;stroke-opacity:1"
       d="m 32.197724,-152.05852 c -0.3265,-0.10252 -0.6228,-0.21549 -0.6584,-0.25105 -0.059,-0.0591 0.4561,-0.31319 1.3197,-0.65109 0.1858,-0.0727 0.4434,-0.18583 0.5724,-0.25147 0.3958,-0.20138 0.5341,-0.14948 0.3781,0.14198 -0.1877,0.3506 -0.1769,0.86346 0.022,1.06261 0.2279,0.22796 -0.8529,0.19423 -1.634,-0.051 z"
       id="path26478"
       inkscape:connector-curvature="0" />
    <path
       style="opacity:1;fill:#526525;fill-opacity:1;fill-rule:nonzero;stroke:none;stroke-width:0.74801683;stroke-miterlimit:4;stroke-dasharray:none;stroke-opacity:1"
       d="m 40.019024,-158.13018 c 0,-0.0437 0.2318,-0.42571 0.5152,-0.84887 0.4915,-0.73413 0.8212,-1.36119 1.0871,-2.06757 0.12,-0.31869 0.1243,-0.31671 0.3291,0.14989 0.4275,0.97365 1.0388,2.61372 0.9918,2.66074 -0.027,0.0268 -0.2548,-0.22463 -0.5065,-0.55879 -0.2518,-0.33415 -0.4943,-0.60944 -0.539,-0.61173 -0.045,-0.002 -0.4854,0.30182 -0.9794,0.67582 -0.4941,0.374 -0.8983,0.64423 -0.8983,0.60051 z"
       id="path26480"
       inkscape:connector-curvature="0" />
    <path
       style="opacity:1;fill:#526525;fill-opacity:1;fill-rule:nonzero;stroke:none;stroke-width:0.74801683;stroke-miterlimit:4;stroke-dasharray:none;stroke-opacity:1"
       d="m 46.982524,-151.55772 c -0.3795,-0.0814 -0.3995,-0.1205 -0.4053,-0.79444 0,-0.38987 0.029,-0.7089 0.072,-0.70898 0.043,-7e-5 0.2216,0.15301 0.3975,0.34019 0.1758,0.18718 0.612,0.52788 0.9692,0.7571 0.3572,0.22923 0.6495,0.44084 0.6495,0.47025 0,0.0804 -1.2266,0.0337 -1.6826,-0.0641 z"
       id="path26482"
       inkscape:connector-curvature="0" />
    <path
       style="opacity:1;fill:#526525;fill-opacity:1;fill-rule:nonzero;stroke:none;stroke-width:0.74801683;stroke-miterlimit:4;stroke-dasharray:none;stroke-opacity:1"
       d="m 50.016024,-144.00995 c 0.3017,-0.30168 0.3379,-0.5668 0.1303,-0.95457 -0.1724,-0.3221 -0.089,-0.32694 0.4568,-0.0265 0.9765,0.53838 0.9845,0.59304 0.1369,0.9379 -0.9424,0.3834 -1.0721,0.3911 -0.724,0.043 z"
       id="path26484"
       inkscape:connector-curvature="0" />
    <path
       style="opacity:1;fill:#526525;fill-opacity:1;fill-rule:nonzero;stroke:none;stroke-width:0.74801683;stroke-miterlimit:4;stroke-dasharray:none;stroke-opacity:1"
       d="m 48.101424,-138.86323 c -0.4215,-0.0452 -0.7955,-0.11229 -0.8313,-0.14901 -0.036,-0.0368 -0.1093,-0.42492 -0.1635,-0.86265 -0.1106,-0.89278 -0.1467,-0.8881 0.8711,-0.11313 0.3279,0.2496 0.8902,0.60285 1.2497,0.78499 0.3594,0.18216 0.6535,0.36057 0.6535,0.39645 0,0.0787 -0.7368,0.0552 -1.7795,-0.0566 z"
       id="path26486"
       inkscape:connector-curvature="0" />
    <path
       style="opacity:1;fill:#526525;fill-opacity:1;fill-rule:nonzero;stroke:none;stroke-width:0.74801683;stroke-miterlimit:4;stroke-dasharray:none;stroke-opacity:1"
       d="m 55.014524,-133.87792 c -0.1115,-0.072 -0.3698,-0.13187 -0.5742,-0.13301 -0.2043,0 -0.3715,-0.0236 -0.3715,-0.0495 0,-0.20034 0.3201,-0.89826 0.412,-0.89826 0.063,0 0.3036,0.27355 0.5337,0.60794 0.4086,0.59385 0.4086,0.73686 0,0.47281 z"
       id="path26488"
       inkscape:connector-curvature="0" />
    <path
       style="opacity:1;fill:#526525;fill-opacity:1;fill-rule:nonzero;stroke:none;stroke-width:0.74801683;stroke-miterlimit:4;stroke-dasharray:none;stroke-opacity:1"
       d="m 97.763024,-152.14734 c -0.2181,-0.25049 -0.6206,-0.63149 -0.8945,-0.84666 -0.2739,-0.21518 -0.4722,-0.43291 -0.4407,-0.48385 0.032,-0.0509 0.3417,-0.13527 0.6893,-0.18741 0.3477,-0.0521 0.9639,-0.24152 1.3694,-0.42087 0.4056,-0.17934 0.7543,-0.32608 0.7751,-0.32608 0.021,0 -0.1518,0.34955 -0.3835,0.77679 -0.2318,0.42724 -0.4882,1.0393 -0.5699,1.36015 l -0.1486,0.58337 z"
       id="path26490"
       inkscape:connector-curvature="0" />
    <path
       style="opacity:1;fill:#526525;fill-opacity:1;fill-rule:nonzero;stroke:none;stroke-width:0.74801683;stroke-miterlimit:4;stroke-dasharray:none;stroke-opacity:1"
       d="m 103.24312,-159.61658 c 0,-0.11541 0.2042,-0.78718 0.4405,-1.44901 0.073,-0.20433 0.1708,-0.37091 0.2176,-0.37018 0.075,0.001 0.4362,0.92939 0.6566,1.68734 0.075,0.25938 0.068,0.26073 -0.1896,0.0338 -0.3352,-0.29533 -0.5622,-0.29865 -0.8781,-0.0128 -0.1359,0.12297 -0.247,0.17288 -0.247,0.11091 z"
       id="path26492"
       inkscape:connector-curvature="0" />
    <path
       style="opacity:1;fill:#526525;fill-opacity:1;fill-rule:nonzero;stroke:none;stroke-width:0.74801683;stroke-miterlimit:4;stroke-dasharray:none;stroke-opacity:1"
       d="m 111.04002,-146.41899 c 0.034,-0.34681 0.071,-0.67024 0.083,-0.71868 0.012,-0.0484 0.4054,0.14419 0.8733,0.42814 l 0.8508,0.51623 -0.7832,0.15399 c -0.4308,0.0847 -0.8512,0.17579 -0.9343,0.20246 -0.1022,0.0328 -0.1313,-0.15505 -0.09,-0.58214 z"
       id="path26494"
       inkscape:connector-curvature="0" />
    <path
       style="opacity:1;fill:#526525;fill-opacity:1;fill-rule:nonzero;stroke:none;stroke-width:0.74801683;stroke-miterlimit:4;stroke-dasharray:none;stroke-opacity:1"
       d="m 131.97102,-155.71662 c -0.4534,-0.5323 -0.8646,-0.57833 -1.5243,-0.17061 -0.5147,0.31812 -0.5948,0.16026 -0.2006,-0.39544 0.1399,-0.19723 0.3891,-0.60176 0.5538,-0.89897 0.1648,-0.29721 0.4263,-0.76835 0.5811,-1.04698 0.3284,-0.59096 0.502,-0.64667 0.502,-0.16114 0,0.19 0.056,0.60035 0.1242,0.91188 0.283,1.29025 0.4375,2.14314 0.3944,2.17702 -0.025,0.0198 -0.2189,-0.16726 -0.4306,-0.41576 z"
       id="path26496"
       inkscape:connector-curvature="0" />
    <path
       style="opacity:1;fill:#526525;fill-opacity:1;fill-rule:nonzero;stroke:none;stroke-width:0.74801683;stroke-miterlimit:4;stroke-dasharray:none;stroke-opacity:1"
       d="m 201.42942,-164.08542 c 0,-0.12568 2.0581,-2.36349 2.1184,-2.30328 0.029,0.0292 -0.071,0.3672 -0.2221,0.75112 -0.1513,0.38392 -0.2751,0.90856 -0.2751,1.16586 v 0.46783 h -0.8106 c -0.4458,0 -0.8106,-0.0367 -0.8106,-0.0815 z"
       id="path26498"
       inkscape:connector-curvature="0" />
    <path
       style="opacity:1;fill:#526525;fill-opacity:1;fill-rule:nonzero;stroke:none;stroke-width:0.74801683;stroke-miterlimit:4;stroke-dasharray:none;stroke-opacity:1"
       d="m 204.09752,-172.34504 c -0.5758,-0.0253 -1.0469,-0.1055 -1.0469,-0.17816 0,-0.19501 1.1566,-2.44663 1.4183,-2.76104 l 0.2248,-0.27019 -0.095,0.27019 c -0.052,0.1486 -0.1261,0.563 -0.1642,0.92089 -0.069,0.6499 -0.068,0.65163 0.7256,1.38467 0.7753,0.71591 0.7849,0.73328 0.3896,0.70681 -0.2229,-0.0149 -0.8764,-0.0479 -1.4523,-0.0732 z"
       id="path26500"
       inkscape:connector-curvature="0" />
    <path
       style="opacity:1;fill:#526525;fill-opacity:1;fill-rule:nonzero;stroke:none;stroke-width:0.74801683;stroke-miterlimit:4;stroke-dasharray:none;stroke-opacity:1"
       d="m 213.75232,-184.20185 c -0.3075,-0.48219 -0.6562,-0.87671 -0.7751,-0.87671 -0.1188,0 -0.5468,0.31278 -0.951,0.69506 -0.4042,0.38229 -0.7349,0.65237 -0.7349,0.60018 0,-0.0522 0.2626,-0.47136 0.5835,-0.93149 0.321,-0.46012 0.7579,-1.13485 0.9709,-1.4994 l 0.3873,-0.66281 0.1625,0.39263 c 0.2871,0.69366 1.0221,3.05283 0.968,3.10694 -0.029,0.0288 -0.3038,-0.34221 -0.6112,-0.8244 z"
       id="path26502"
       inkscape:connector-curvature="0" />
    <path
       style="opacity:1;fill:#526525;fill-opacity:1;fill-rule:nonzero;stroke:none;stroke-width:0.74801683;stroke-miterlimit:4;stroke-dasharray:none;stroke-opacity:1"
       d="m 217.65472,-172.94626 c 0.2129,-0.39784 0.1774,-1.62809 -0.073,-2.54062 -0.3867,-1.40719 -0.3901,-1.42561 -0.242,-1.2834 0.077,0.0743 0.2681,0.36307 0.4237,0.6417 0.6985,1.25074 0.8762,1.54288 1.5095,2.48146 l 0.673,0.99721 h -1.2248 c -1.2189,0 -1.2239,-0.001 -1.0661,-0.29635 z"
       id="path26504"
       inkscape:connector-curvature="0" />
    <path
       style="opacity:1;fill:#526525;fill-opacity:1;fill-rule:nonzero;stroke:none;stroke-width:0.74801683;stroke-miterlimit:4;stroke-dasharray:none;stroke-opacity:1"
       d="m 225.47622,-152.98313 c 0,-0.17076 3.0222,-3.05181 3.1037,-2.95869 0.1059,0.12112 0.951,2.21914 0.9498,2.35805 0,0.047 -0.2367,-0.15059 -0.5252,-0.43905 -0.7717,-0.7717 -1.0654,-0.72062 -2.5343,0.44066 -0.7696,0.60847 -0.994,0.74371 -0.994,0.59903 z"
       id="path26506"
       inkscape:connector-curvature="0" />
    <path
       style="opacity:1;fill:#526525;fill-opacity:1;fill-rule:nonzero;stroke:none;stroke-width:0.74801683;stroke-miterlimit:4;stroke-dasharray:none;stroke-opacity:1"
       d="m 253.17432,-169.20501 c -0.2708,-0.57679 -0.3308,-0.9775 -0.4107,-2.74274 -0.052,-1.137 -0.1573,-2.13092 -0.2351,-2.2087 -0.2601,-0.26015 -0.694,0.0282 -1.6716,1.11086 -0.5337,0.59102 -0.9932,1.05169 -1.0212,1.0237 -0.047,-0.0469 0.6633,-1.12314 2.4971,-3.78457 0.3938,-0.57146 0.7737,-1.00332 0.8444,-0.95968 0.073,0.0454 0.1283,1.12128 0.1283,2.51382 0,1.33896 0.066,2.99452 0.1468,3.67902 0.081,0.68451 0.1226,1.42438 0.093,1.64416 -0.053,0.39006 -0.061,0.38347 -0.371,-0.27587 z"
       id="path26508"
       inkscape:connector-curvature="0" />
    <path
       style="opacity:1;fill:#526525;fill-opacity:1;fill-rule:nonzero;stroke:none;stroke-width:0.74801683;stroke-miterlimit:4;stroke-dasharray:none;stroke-opacity:1"
       d="m 272.80662,-168.285 c -0.449,-0.48817 -0.6189,-0.59063 -0.8552,-0.51565 -0.2888,0.0917 -0.2939,0.0712 -0.2502,-0.99966 0.025,-0.60128 0.084,-1.09326 0.1326,-1.0933 0.093,-8e-5 1.6326,3.12088 1.5699,3.18208 -0.02,0.0197 -0.2889,-0.2384 -0.5971,-0.57347 z"
       id="path26510"
       inkscape:connector-curvature="0" />
    <path
       style="opacity:1;fill:#526525;fill-opacity:1;fill-rule:nonzero;stroke:none;stroke-width:0.74801683;stroke-miterlimit:4;stroke-dasharray:none;stroke-opacity:1"
       d="m 314.71132,-170.39188 c -0.532,-1.01831 -1.1155,-1.67654 -1.6609,-1.87378 -0.3395,-0.12276 -0.4492,-0.2295 -0.3895,-0.3789 0.046,-0.11439 0.1437,-0.57274 0.2177,-1.01856 0.074,-0.44581 0.1904,-1.11452 0.2585,-1.48603 0.068,-0.37151 0.1622,-0.93618 0.2092,-1.25482 0.047,-0.31865 0.1489,-0.5582 0.2265,-0.53233 0.1779,0.0593 0.5676,1.58243 1.0447,4.08375 0.071,0.37151 0.1906,0.97943 0.2661,1.35094 0.1909,0.93959 0.313,1.82383 0.2518,1.82345 -0.028,-1.8e-4 -0.2191,-0.32135 -0.4241,-0.71372 z"
       id="path26512"
       inkscape:connector-curvature="0" />
    <path
       style="opacity:1;fill:#526525;fill-opacity:1;fill-rule:nonzero;stroke:none;stroke-width:0.74801683;stroke-miterlimit:4;stroke-dasharray:none;stroke-opacity:1"
       d="m 332.98402,-132.8089 c -0.7801,-0.0554 -2.2392,-0.16671 -3.2422,-0.24733 -2.4571,-0.19743 -5.369,-0.41024 -7.4977,-0.54793 -1.2615,-0.0816 -0.4622,-0.0979 2.8369,-0.0578 2.5263,0.0306 5.5051,0.0616 6.6196,0.0688 l 2.0264,0.0132 0.039,-4.10046 c 0.041,-4.38716 -0.1318,-8.36596 -0.4007,-9.21509 -0.091,-0.28681 -0.3293,-0.69715 -0.5298,-0.91188 l -0.3647,-0.39042 h 1.0673 1.0674 v 7.7679 c 0,4.27236 -0.045,7.75755 -0.1013,7.74491 -0.056,-0.0127 -0.7396,-0.0684 -1.5198,-0.12383 z"
       id="path26514"
       inkscape:connector-curvature="0" />
  </g>
</svg>
