<?xml version="1.0" encoding="UTF-8" standalone="no"?>
<!-- Created with Inkscape (http://www.inkscape.org/) -->

<svg
   xmlns:dc="http://purl.org/dc/elements/1.1/"
   xmlns:cc="http://creativecommons.org/ns#"
   xmlns:rdf="http://www.w3.org/1999/02/22-rdf-syntax-ns#"
   xmlns:svg="http://www.w3.org/2000/svg"
   xmlns="http://www.w3.org/2000/svg"
   xmlns:sodipodi="http://sodipodi.sourceforge.net/DTD/sodipodi-0.dtd"
   xmlns:inkscape="http://www.inkscape.org/namespaces/inkscape"
   width="682.05511mm"
   height="513.47906mm"
   viewBox="0 0 682.05511 513.47906"
   version="1.1"
   id="svg3315"
   inkscape:version="0.92.4 (5da689c313, 2019-01-14)"
   sodipodi:docname="parallax2.svg">
  <defs
     id="defs3309" />
  <sodipodi:namedview
     id="base"
     pagecolor="#ffffff"
     bordercolor="#666666"
     borderopacity="1.0"
     inkscape:pageopacity="0.0"
     inkscape:pageshadow="2"
     inkscape:zoom="0.35"
     inkscape:cx="1400.8133"
     inkscape:cy="933.21125"
     inkscape:document-units="mm"
     inkscape:current-layer="layer1"
     showgrid="false"
     inkscape:window-width="1858"
     inkscape:window-height="1057"
     inkscape:window-x="54"
     inkscape:window-y="-8"
     inkscape:window-maximized="1" />
  <metadata
     id="metadata3312">
    <rdf:RDF>
      <cc:Work
         rdf:about="">
        <dc:format>image/svg+xml</dc:format>
        <dc:type
           rdf:resource="http://purl.org/dc/dcmitype/StillImage" />
        <dc:title></dc:title>
      </cc:Work>
    </rdf:RDF>
  </metadata>
  <g
     inkscape:label="Calque 1"
     inkscape:groupmode="layer"
     id="layer1"
     transform="translate(570.08113,268.92404)">
    <path
       style="opacity:1;fill:#092543;fill-opacity:1;fill-rule:nonzero;stroke:none;stroke-width:4.76425934;stroke-miterlimit:4;stroke-dasharray:none;stroke-opacity:1"
       d="m -497.50812,242.66945 c -4.12437,-1.79546 -6.0991,-5.94421 -8.03439,-16.87965 -2.51552,-14.2141 -9.09691,-58.117 -11.32481,-75.54515 -1.98098,-15.4966 -1.97457,-15.57465 1.37559,-16.75937 0.54948,-0.19434 0.51289,-0.74354 -0.10126,-1.51977 -2.78135,-3.51531 -3.8521,-10.08761 -3.61453,-22.18592 0.24452,-12.451774 -0.26543,-14.679914 -3.10989,-13.588394 -0.76652,0.29413 -1.35979,1.55032 -1.37466,2.91068 -0.1246,11.396584 -7.91925,-30.46984 -12.45018,-66.87214 -2.60311,-20.91378 -3.61196,-25.1028798 -11.58403,-48.10072 -8.28155,-23.89066 -9.29268,-28.32995 -10.83268,-47.56008 -0.73232,-9.1446 -1.89292,-20.66272 -2.57911,-25.59583 -0.68618,-4.9331 -1.27482,-11.709056 -1.30809,-15.057686 -0.0354,-3.56711 -0.32352,-5.41867 -0.69569,-4.47115 -0.40234,1.02435 -1.37454,-3.18343 -2.65186,-11.47754 -1.72252,-11.18496 -1.93754,-14.93465 -1.47428,-25.70956 0.44233,-10.28797 0.2305,-14.5986 -1.14848,-23.37025 -1.99408,-12.68439 -2.17865,-17.50736 -0.65048,-16.99797 1.41889,0.47297 1.98803,3.1819 3.66161,17.42819 1.68415,14.33628 2.0218,15.91813 3.39775,15.91813 0.68668,0 1.77471,4.3855 3.13337,12.62968 1.14477,6.94632 2.51245,12.7689 3.03929,12.93907 1.62565,0.52508 2.00338,-5.73316 2.58189,-42.77754 0.30671,-19.63953 0.86373,-37.25702 1.23783,-39.14999 0.45546,-2.30467 0.63142,0.15896 0.5326,7.45693 -0.13096,9.67142 0.30198,13.03087 1.52207,11.81078 0.68048,-0.68049 2.20201,-14.78371 2.21551,-20.5358 0.007,-3.08848 0.38851,-6.19622 0.84726,-6.90608 0.54807,-0.84808 0.8386,8.22479 0.84726,26.4585 0.013,27.3483 0.60269,32.79356 2.51594,23.23187 2.26192,-11.30419 2.91474,-17.79484 3.52661,-35.06291 0.79874,-22.54222 2.56406,-32.37778 4.99575,-27.83412 0.52388,0.97887 0.97483,17.21963 1.15534,41.60857 0.21131,28.55045 0.5847,40.49221 1.30421,41.71173 0.97074,1.64533 1.02458,1.62938 1.45152,-0.43022 0.24385,-1.17641 0.66578,-8.52769 0.93761,-16.33618 0.27183,-7.80849 1.07354,-18.06923 1.78156,-22.80165 1.30799,-8.74256 3.64502,-18.13642 4.3393,-17.44214 0.21001,0.21001 0.74959,9.64117 1.19906,20.95814 0.9071,22.83944 2.16947,30.90158 4.83857,30.90158 1.43135,0 1.73114,-0.86485 2.23696,-6.4533 0.32126,-3.54931 1.18519,-9.16368 1.91987,-12.47637 0.73467,-3.31269 1.59377,-9.60465 1.90911,-13.98214 0.31534,-4.37748 0.84231,-7.95906 1.17105,-7.95906 0.99195,0 4.17198,14.38738 5.61037,25.38296 0.74288,5.6789 1.58972,18.16603 1.88187,27.74917 0.42517,13.94684 0.76711,17.42389 1.71347,17.42389 1.5988,0 1.88943,-0.97454 3.23269,-10.84004 l 1.16004,-8.51984 0.0887,8.31891 c 0.0953,8.94151 0.51742,11.04097 2.21991,11.04097 1.53156,0 1.921,-4.32737 3.1554,-35.0629 0.59395,-14.7888 1.33342,-26.88873 1.64326,-26.88873 0.55971,0 3.36465,8.93805 5.13045,16.34835 0.50746,2.12959 1.15458,10.74474 1.43804,19.14478 0.38787,11.49391 0.7855,15.27279 1.60704,15.27279 1.16598,0 1.88389,-3.2222 2.8137,-12.62867 1.22713,-12.41449 5.47584,-3.23562 6.69484,14.46351 0.80094,11.62906 2.27512,12.06133 4.74664,1.39181 0.63033,-2.72114 1.37082,-4.94753 1.64552,-4.94753 0.50683,0 4.15763,26.81618 4.50995,33.12692 0.13401,2.40032 0.58269,3.441756 1.48281,3.441756 2.09221,0 4.16763,-10.446456 5.14135,-25.878686 0.8854,-14.03236 1.30947,-16.71306 2.64388,-16.71306 1.80219,0 2.13677,3.84425 2.54004,29.18459 0.30864,19.394046 0.71201,27.127026 1.42739,27.364516 1.64576,0.54636 2.31738,-4.64096 2.38268,-18.402646 0.0341,-7.17733 0.32654,-13.31447 0.64999,-13.63809 1.90662,-1.90763 2.42345,1.49015 2.42345,15.93228 0,15.256336 0.49223,17.920696 2.8714,15.542346 0.68278,-0.68255 1.04447,-6.38404 1.13877,-17.951236 0.076,-9.32305 0.53547,-17.91899 1.02102,-19.1021 0.68578,-1.67101 0.89498,-0.0867 0.93735,7.09863 0.0442,7.4953 0.29195,9.24972 1.30621,9.24972 1.35329,0 1.60826,-1.15932 2.89479,-13.16269 0.84929,-7.92386 1.17302,-8.88469 2.67981,-7.95345 0.61026,0.37716 0.91768,7.75624 0.91768,22.02736 0,20.443586 0.0768,21.460196 1.62053,21.460196 2.38925,0 2.7499,-2.16576 3.39118,-20.364426 0.52223,-14.82049 1.02043,-18.63308 2.27136,-17.38215 0.21976,0.21975 1.0165,5.40474 1.77055,11.52219 0.75405,6.11746 1.5487,11.300346 1.76589,11.517526 1.21674,1.21675 2.2922,-2.428776 3.05105,-10.342326 1.45,-15.12097 1.7401,-16.89122 2.45176,-14.96123 0.349,0.94648 0.90769,5.98005 1.24153,11.18571 0.74649,11.64042 1.50167,16.106816 2.79632,16.538356 2.52768,0.84256 3.6761,-14.049496 3.70556,-48.051946 0.0273,-31.45714 0.30552,-36.0309 2.19194,-36.0309 1.19461,0 3.9889,13.5696 5.6699,27.53406 1.49172,12.39217 2.80295,12.17331 5.15515,-0.86044 l 1.16462,-6.4533 0.65565,5.10882 c 0.77577,6.04495 1.95208,7.69861 3.74668,5.26711 1.13842,-1.54243 1.23274,-1.38947 1.23274,1.99908 0,3.03048 0.26216,3.61925 1.50577,3.38179 1.31007,-0.25014 1.57143,-1.74005 2.01102,-11.46391 0.52548,-11.62353 1.98781,-20.65082 3.67509,-22.68721 0.54026,-0.65205 1.40786,-3.74963 1.92799,-6.88352 0.90044,-5.42534 0.9437,-5.10101 0.90393,6.77839 -0.0414,12.35257 1.14134,19.15586 3.31301,19.05745 1.95329,-0.0885 3.98793,-14.96835 3.98832,-29.16761 2.3e-4,-8.06918 0.33958,-13.98214 0.80247,-13.98214 0.44114,0 0.80206,1.5488 0.80206,3.44176 0,2.32881 0.37853,3.44176 1.17059,3.44176 0.78065,0 1.42555,-1.79139 1.93598,-5.37775 l 0.76541,-5.37774 2.09473,6.02307 c 2.05323,5.90377 2.10684,6.77523 2.70605,43.99546 0.33622,20.8848 0.87168,38.7927 1.1899,39.79532 0.31821,1.00261 1.16393,1.82294 1.87936,1.82294 1.14137,0 1.26607,-3.6908 1.01757,-30.11585 -0.15577,-16.56372 0.007,-30.11564 0.36211,-30.11538 0.35493,2.6e-4 0.64533,7.49403 0.64533,16.65282 0,20.96374 0.59454,27.411 2.49283,27.03247 1.19773,-0.23883 1.34254,-1.74358 1.10081,-11.43953 -0.19558,-7.84545 0.12384,-13.03422 1.07446,-17.45374 0.74403,-3.45907 1.63388,-9.65424 1.97744,-13.76703 l 0.62467,-7.47781 0.582,4.73241 c 0.3201,2.60283 0.65889,7.6364 0.75286,11.18572 0.094,3.54931 0.44386,7.42129 0.77753,8.60439 0.59622,2.11402 0.62589,2.09919 1.72076,-0.86044 0.61275,-1.65634 1.36594,-7.52943 1.67376,-13.0513 0.30783,-5.52187 0.82433,-10.30382 1.14778,-10.62655 1.89081,-1.88661 2.42418,1.47311 2.43519,15.33935 0.0122,15.38638 0.40627,18.95388 2.0338,18.41329 1.4939,-0.4962 3.06223,-10.20622 3.67714,-22.76627 0.30698,-6.27045 0.88735,-11.40082 1.28971,-11.40082 0.40236,0 0.77016,4.16237 0.81733,9.24972 0.0889,9.58448 0.62117,13.10609 2.02355,13.3876 0.45026,0.0904 1.53544,-5.06285 2.4115,-11.45161 2.47948,-18.08176 5.77416,-20.92924 6.91956,-5.98031 0.78566,10.2537 2.3649,18.14935 3.61731,18.08511 0.50871,-0.0261 1.03632,-4.95462 1.29066,-12.05688 0.41037,-11.4585 1.37806,-15.59753 3.024,-12.93432 0.35031,0.56681 0.83775,10.48617 1.08318,22.04302 0.42082,19.81693 0.97166,23.83421 2.85934,20.85389 0.41309,-0.65219 0.757,-9.80094 0.76425,-20.33056 0.0109,-15.9081 0.21857,-19.14478 1.22819,-19.14478 0.74084,0 1.41166,1.25927 1.71887,3.22664 0.95941,6.1444 2.21176,28.22739 2.22023,39.15 0.008,10.17502 0.8024,13.68074 2.0475,9.03461 0.28535,-1.06479 0.57473,-11.22873 0.64304,-22.58653 0.10406,-17.29967 0.98023,-36.4853 1.48106,-32.43081 0.29676,2.40249 1.86455,-0.10588 1.94577,-3.1131 0.0471,-1.74672 0.36084,-4.14386 0.69707,-5.32696 0.59016,-2.07663 0.63188,-2.05056 1.20489,0.75288 0.32647,1.59719 0.60534,6.04996 0.61973,9.89505 0.0306,8.17352 1.20777,7.30505 1.98316,-1.46308 0.28567,-3.23006 1.17888,-8.2233 1.98493,-11.09609 l 1.46558,-5.22325 1.56104,1.92781 c 2.12461,2.62377 3.1473,6.86244 3.74748,15.53195 0.68099,9.83626 1.19891,12.90659 2.17723,12.90659 0.45181,0 0.85016,-2.22639 0.88525,-4.94753 0.0351,-2.72114 0.3738,-6.68991 0.75274,-8.8195 0.5797,-3.25803 0.70604,-2.54176 0.79666,4.51731 0.084,6.54801 0.37092,8.38928 1.30701,8.38928 0.89988,0 1.33488,-1.98713 1.74236,-7.95906 0.29869,-4.37749 0.79097,-10.66945 1.094,-13.98214 0.49012,-5.35806 0.61971,-5.69057 1.17375,-3.01154 0.3425,1.65634 1.11617,9.3035 1.71923,16.99368 0.60304,7.69017 1.36708,13.98214 1.69783,13.98214 0.92612,0 1.76046,-8.39216 2.52363,-25.38297 0.51339,-11.43086 1.08706,-16.45239 2.18995,-19.16987 1.78377,-4.39511 4.31157,-6.13898 6.18424,-4.26633 1.61742,1.61744 5.65229,21.64728 7.58095,37.63345 0.82788,6.86201 1.83494,12.83533 2.23792,13.27405 1.63896,1.78431 3.9338,-7.64998 5.42645,-22.30866 0.19277,-1.89297 0.16851,2.01004 -0.0538,8.67336 -0.4176,12.5116 0.0591,17.01979 1.74045,16.46156 1.35446,-0.44967 2.90539,-11.3906 3.98992,-28.14646 0.50543,-7.80849 1.14554,-14.97164 1.42245,-15.91813 1.46235,-4.99782 4.17679,-4.49817 4.98904,0.91834 0.31459,2.09775 0.89347,3.81408 1.2864,3.81408 1.04008,0 1.70312,-3.26398 2.62189,-12.90659 1.0596,-11.121 1.54138,-12.90659 3.48231,-12.90659 1.87368,0 1.95075,0.44906 4.17727,24.34161 0.87276,9.36534 1.83602,17.27708 2.14059,17.58165 1.57908,1.57907 2.67761,-2.13923 2.80093,-9.48055 0.18936,-11.27196 0.24847,-12.136 0.79288,-11.59158 0.9041,0.9041 3.65286,19.94612 4.26886,29.57253 0.57907,9.04936 0.52195,9.57617 -1.08384,9.99609 -2.07309,0.54213 -2.60421,3.4034 -3.71816,20.03133 -0.81613,12.18182 -3.22837,33.01508 -3.96026,34.20247 -0.97581,1.58315 -2.73029,0.40166 -3.19426,-2.1511 -1.09934,-6.04843 -2.25139,-18.60711 -2.26928,-24.73763 -0.022,-7.48651 -0.55266,-10.02485 -2.23118,-10.66897 -3.34192,-1.28241 -4.37684,1.13831 -6.74412,15.77491 -2.01253,12.44303 -2.90875,12.02883 -3.90281,-1.80369 -0.81863,-11.39098 -1.28733,-12.95542 -3.77439,-12.59747 -1.4632,0.21059 -2.1476,1.499 -3.56635,6.7139 -2.72801,10.02733 -4.7113,8.55744 -6.00255,-4.44871 -0.63963,-6.44274 -2.33505,-8.21177 -4.86992,-5.08134 -1.08283,1.33725 -1.55662,4.40365 -1.96903,12.74413 -0.54329,10.98724 -1.93836,26.10408 -2.82008,30.55816 -0.26528,1.33998 -1.03654,2.36621 -1.77832,2.36621 -1.15179,0 -1.23486,-2.258 -0.68834,-18.7074 0.34184,-10.28906 0.44169,-18.51701 0.22185,-18.28433 -0.21984,0.23268 -1.67695,6.23102 -3.23807,13.32965 -1.56113,7.09862 -3.19585,13.29379 -3.63271,13.76703 -0.48768,0.52827 -0.64571,-2.7104 -0.40941,-8.38929 0.21169,-5.08734 0.0896,-9.24972 -0.27125,-9.24972 -0.3609,0 -0.83323,0.6776 -1.04966,1.50577 -0.21643,0.82817 -0.43841,-2.52754 -0.49332,-7.45714 -0.0549,-4.9296 -0.2609,-8.80157 -0.4578,-8.6044 -0.19691,0.19719 -1.42441,6.26329 -2.72781,13.48022 -1.30341,7.21694 -2.69107,13.1217 -3.08377,13.1217 -0.39266,0 -0.71395,-2.8445 -0.71395,-6.32111 0,-9.58614 -1.05248,-22.38697 -1.73323,-21.0804 -0.33187,0.63696 -1.51429,4.71221 -2.6276,9.05609 -1.88214,7.3436 -3.36532,9.60269 -3.3963,5.17294 -0.007,-1.03686 -0.37362,-2.45515 -0.81415,-3.15175 -0.99978,-1.58093 -0.98838,-1.61237 -3.58061,9.87094 -1.64859,7.30308 -2.03234,8.214 -2.53738,6.02307 -0.32726,-1.41972 -0.64677,-5.6789 -0.71001,-9.46483 -0.0632,-3.78593 -0.40764,-7.34379 -0.76533,-7.90635 -0.36767,-0.57825 -1.91021,3.83002 -3.54886,10.14177 -1.75305,6.75256 -3.27599,11.04025 -3.85376,10.84991 -0.52541,-0.1731 -1.34247,-2.4816 -1.81573,-5.13001 -1.82954,-10.23872 -2.58731,-6.64968 -3.8612,18.28808 -1.42537,27.903496 -5.34406,58.509866 -7.49126,58.509866 -0.61815,0 -1.1239,-0.33726 -1.1239,-0.74948 0,-4.81094 -3.59989,-75.414136 -3.85837,-75.672606 -0.60161,-0.60161 -3.86331,5.27755 -4.77448,8.6059 -0.47731,1.74353 -1.43006,7.97649 -2.11725,13.851006 -1.3695,11.70757 -1.88487,13.75734 -3.33804,13.27636 -0.64779,-0.2144 -1.11231,-5.34248 -1.39976,-15.45283 -0.23662,-8.322556 -0.67215,-15.373736 -0.96784,-15.669286 -0.98183,-0.98135 -3.43231,6.63259 -4.26136,13.24054 -0.44948,3.582596 -1.04172,10.288996 -1.31608,14.903106 -0.27435,4.6141 -0.79923,8.38928 -1.16639,8.38928 -1.18644,0 -1.73401,-6.16306 -1.74369,-19.62578 -0.0101,-13.963776 -0.48995,-15.168926 -3.42761,-8.607446 -1.08779,2.42966 -1.66445,3.00929 -2.0345,2.04495 -0.28404,-0.74017 -0.86183,-1.34578 -1.28399,-1.34578 -1.37076,0 -6.02961,9.790526 -7.79377,16.378556 -2.14799,8.0214 -2.55205,11.77817 -3.51339,32.66648 -0.77482,16.83534 -2.02317,25.81319 -3.58927,25.81319 -0.46196,0 -0.65874,-0.29317 -0.43728,-0.6515 0.91835,-1.48591 2.13416,-23.4348 1.58443,-28.60344 -0.51275,-4.82095 -0.83236,-5.59286 -2.31573,-5.59286 -2.74454,0 -4.64487,6.92867 -4.71986,17.20879 -0.14398,19.74095 -2.54183,40.4653102 -4.60084,39.7646902 -0.73965,-0.25167 -0.96137,-6.8447602 -0.84074,-25.0007702 0.1541,-23.19219 0.0721,-24.65897 -1.37806,-24.65897 -1.58343,0 -2.61857,2.9921 -5.61161,16.22075 -2.26998,10.03281 -3.23411,8.50622 -3.75602,-5.9472 -0.38887,-10.76923 -1.14334,-13.71531 -3.5124,-13.71531 -3.07876,0 -6.0164,8.60369 -8.06015,23.60638 l -1.06253,7.79965 -0.8679,-8.94845 c -1.00556,-10.36769 -2.25411,-12.23832 -5.88914,-8.82339 -4.85614,4.56209 -8.28977,14.99041 -14.43251,43.8329902 -2.25697,10.59733 -3.06378,13.10114 -4.15029,12.87981 -1.74604,-0.35565 -1.42081,-9.50965 0.76399,-21.5037202 1.68677,-9.25993 1.52608,-11.70707 -0.94274,-14.35703 -2.83087,-3.03859 -5.25068,-2.28399 -9.4163,2.93638 -5.02354,6.2955 -5.83712,9.03597 -6.48369,21.8398902 -0.51231,10.14521 -0.79707,11.49776 -4.30766,20.4614698 -2.58727,6.60615 -4.3121,12.90937 -5.53316,20.22031 -2.6324,15.76123 -3.15187,17.47621 -8.57577,28.31155 -5.21876,10.42559 -7.72424,17.47221 -7.72424,21.72441 0,1.39303 2.37195,8.52972 5.271,15.859314 4.24453,10.73129 5.04045,13.47256 4.08709,14.07644 -2.51727,1.59446 -4.10629,0.8359 -4.68245,-2.23527 -0.76029,-4.05273 -2.66386,-3.83813 -3.37661,0.38068 -0.31521,1.86573 -1.02685,3.74605 -1.5814,4.17851 -0.55457,0.43243 -7.68356,2.43559 -15.84224,4.45143 -13.87139,3.42736 -14.80785,3.78433 -14.43177,5.50145 0.22119,1.00994 0.79485,4.84172 1.2748,8.51504 1.10854,8.48423 2.3269,11.3384 7.16571,16.78667 2.14966,2.42038 5.53377,7.52472 7.52024,11.34298 1.98648,3.81825 5.49163,8.94461 7.78925,11.39185 l 4.17747,4.44957 -0.86062,13.39485 c -1.21463,18.90467 -3.33118,38.77358 -4.32897,40.63799 -0.99691,1.86272 -5.27128,2.14374 -6.68565,0.43953 -0.5213,-0.62815 -1.35442,-4.00897 -1.85138,-7.51298 -0.49695,-3.50398 -1.3421,-7.8346 -1.87811,-9.62364 -1.01795,-3.39762 -2.89982,-5.61755 -3.90769,-4.60967 -0.32382,0.32382 -0.8368,4.92858 -1.13996,10.23279 -0.67102,11.74009 -2.09236,15.64195 -6.34527,17.41892 -3.53472,1.4769 -2.85462,1.47346 -6.16729,0.0313 z m 2.19808,-105.9166 1.46847,-8.26743 -2.10596,0.52856 c -1.15828,0.29072 -3.22238,0.75186 -4.5869,1.02475 -1.36451,0.2729 -2.48094,0.6586 -2.48094,0.85712 0,0.19852 0.63604,2.9573 1.41341,6.13064 1.29583,5.28976 3.44698,9.37029 4.42448,8.39279 0.21944,-0.21944 1.05979,-4.11932 1.86744,-8.66643 z m -16.30972,-2.52653 c 0,-0.74102 1.49958,-1.68259 3.65687,-2.29613 2.01128,-0.57203 3.93577,-1.27305 4.27665,-1.55779 0.97635,-0.81563 -3.79755,-19.84269 -4.97854,-19.84269 -1.04507,0 -1.51487,2.83705 -2.59119,15.64777 -0.38614,4.59603 -0.93666,6.75937 -1.8049,7.09253 -0.6871,0.26368 -1.00829,0.86934 -0.71374,1.34591 0.79837,1.2918 2.15485,1.04656 2.15485,-0.3896 z"
       id="path3182"
       inkscape:connector-curvature="0" />
    <path
       style="opacity:1;fill:#092543;fill-opacity:1;fill-rule:nonzero;stroke:none;stroke-width:4.76425934;stroke-miterlimit:4;stroke-dasharray:none;stroke-opacity:1"
       d="m -181.53744,-147.38698 c -1.17337,-3.99447 -1.61372,-9.00035 -1.71468,-19.49304 -0.11166,-11.60251 -0.91564,-14.74152 -3.51973,-13.74223 -0.62304,0.23907 -2.24033,3.41044 -3.59396,7.04748 l -2.46119,6.61279 -0.2559,-4.87604 c -0.26514,-5.05147 -1.55988,-7.14475 -3.8707,-6.25799 -1.70619,0.65472 -2.11592,1.77587 -4.00515,10.95926 -0.85643,4.16304 -1.79713,7.80916 -2.09045,8.10247 -1.35832,1.35832 -1.37303,-1.01768 -0.0498,-8.0454 0.78978,-4.19444 1.88127,-13.43422 2.42557,-20.53285 l 0.98962,-12.90659 2.42647,10.54039 c 4.01547,17.44278 5.20155,14.72453 7.90519,-18.11732 0.45662,-5.54652 0.79508,-6.66985 1.94305,-6.44877 0.76457,0.14724 1.6007,1.15972 1.85809,2.24996 0.25736,1.09024 0.82288,2.0562 1.25667,2.14658 0.8084,0.16843 1.3663,-1.24853 3.15367,-8.00984 1.01277,-3.83108 1.03219,-3.84699 1.83893,-1.50577 0.98518,2.859 2.3672,3.10065 2.46042,0.43022 0.0371,-1.0648 1.32815,1.74239 2.86887,6.23818 3.8844,11.33463 6.13754,10.73251 6.43954,-1.72088 0.11909,-4.91147 1.64671,-10.54054 3.0457,-11.22291 0.44315,-0.21616 1.13741,0.96217 1.54281,2.61852 1.5634,6.38789 2.27817,6.63218 3.17465,1.08505 0.39196,-2.42512 0.97719,-3.30137 2.33527,-3.4964 1.23304,-0.17708 1.95985,0.30419 2.27407,1.50576 0.61179,2.33946 2.09378,2.24839 2.7659,-0.16996 0.95779,-3.44627 3.26385,-8.38928 3.91382,-8.38928 0.34806,0 1.10633,3.96877 1.68508,8.8195 0.57875,4.85073 1.36832,10.0879 1.75461,11.63816 0.50133,2.01195 -0.0106,6.34677 -1.78887,15.14611 -1.37018,6.7801 -2.88978,13.37576 -3.37693,14.65702 -1.73877,4.57329 -2.6098,1.2788 -2.6098,-9.87092 0,-10.48102 -0.0989,-11.13494 -1.68444,-11.13494 -1.33771,0 -2.04616,1.21462 -3.44176,5.90074 -0.96652,3.2454 -1.75731,6.36583 -1.75731,6.93429 0,0.56846 -0.38719,0.79426 -0.86045,0.50178 -0.47323,-0.29247 -0.86042,-1.10216 -0.86042,-1.79929 0,-0.69713 -0.61291,-2.70707 -1.362,-4.46653 l -1.36197,-3.19901 -1.59541,4.3022 c -0.87746,2.36621 -2.27158,6.62538 -3.09801,9.46483 l -1.50264,5.16264 -0.92078,-5.16264 -0.9208,-5.16263 -1.85203,4.30219 c -2.19999,5.11046 -3.43218,13.38616 -4.13036,27.74063 -0.28173,5.79251 -0.7366,11.11648 -1.01079,11.83104 -0.66918,1.74387 -1.81827,1.64337 -2.3617,-0.20656 z"
       id="path3184"
       inkscape:connector-curvature="0" />
    <path
       style="opacity:1;fill:#092543;fill-opacity:1;fill-rule:nonzero;stroke:none;stroke-width:4.76425934;stroke-miterlimit:4;stroke-dasharray:none;stroke-opacity:1"
       d="m -114.33036,-176.42682 c -0.3489,-2.83945 -1.01034,-11.74499 -1.46989,-19.7901 -1.61475,-28.26844 -2.09772,-31.10233 -5.16401,-30.30048 -1.02457,0.26793 -1.93659,-0.30109 -2.66546,-1.66301 -0.60939,-1.13866 -1.93458,-2.27776 -2.94487,-2.53132 -1.7386,-0.43636 -1.79284,-0.7343 -1.01415,-5.56964 0.45252,-2.80974 1.15195,-5.10862 1.55433,-5.10862 0.40235,0 0.99094,-1.62195 1.30794,-3.60435 0.50741,-3.17335 0.66286,-3.37051 1.29974,-1.64882 0.39788,1.07555 1.15988,1.81005 1.69333,1.63223 0.53345,-0.17782 3.11277,-5.43741 5.73183,-11.68799 2.61905,-6.25058 5.08703,-11.36468 5.48444,-11.36468 0.39738,0 0.72252,2.12958 0.72252,4.73241 0,3.67607 0.29414,4.73242 1.31768,4.73242 0.72469,0 1.54054,-0.5808 1.81293,-1.29066 0.27241,-0.70986 1.00462,-1.29066 1.62716,-1.29066 0.62251,0 1.57911,-1.35519 2.12577,-3.01154 1.30442,-3.95247 2.67562,-3.79348 4.488145,0.52039 1.66087,3.95285 3.18098,4.05199 4.38983,0.28627 1.17462,-3.659 3.11296,-5.53907 5.71074,-5.53907 2.80038,0 4.34092,1.4352 4.34092,4.04406 0,2.66481 1.55247,2.5194 2.23739,-0.20956 0.82418,-3.28375 2.31437,-2.08997 3.34463,2.67938 0.68085,3.15178 1.0763,3.83664 1.5391,2.66547 0.34256,-0.86688 0.62283,-2.39631 0.62283,-3.39874 0,-4.13779 1.88714,0.38394 3.54293,8.48911 0.95578,4.67861 1.87984,8.64864 2.05349,8.82228 0.17364,0.17364 0.56036,-1.17585 0.85939,-2.99887 1.13297,-6.90703 1.44703,-8.04698 2.21697,-8.04698 0.43564,0 0.79206,2.88113 0.79206,6.40251 0,5.87492 0.86323,8.58792 2.09719,6.59131 0.27236,-0.4407 0.7384,-3.2542 1.03563,-6.25222 0.59434,-5.99495 1.62232,-9.00805 2.30003,-6.7416 0.21227,0.70986 0.80327,4.9495 1.31333,9.42143 0.87128,7.63844 0.79489,8.60231 -1.26142,15.91813 -1.20386,4.28304 -2.31037,7.90943 -2.45893,8.05865 -0.14854,0.14921 -0.72316,-2.56117 -1.27694,-6.02308 -0.55377,-3.4619 -1.30352,-7.26236 -1.6661,-8.44547 -0.60624,-1.97822 -0.77071,-1.80535 -2.04653,2.1511 -0.76303,2.36621 -1.66619,6.23819 -2.00702,8.60439 l -0.61968,4.3022 -1.1847,-4.3022 c -0.65157,-2.3662 -1.34541,-9.04145 -1.54181,-14.83387 -0.33766,-9.95697 -1.20208,-13.99084 -2.99815,-13.99084 -1.4732,0 -2.60964,6.41228 -3.58357,20.22032 -0.91141,12.92138 -1.71815,16.13339 -3.58354,14.268 -0.39492,-0.39491 -0.89903,-5.31556 -1.12025,-10.93477 -0.22124,-5.61921 -0.6174,-11.95913 -0.8804,-14.08872 l -0.47816,-3.87198 -1.78884,3.44176 c -0.98386,1.89297 -2.88706,6.53934 -4.22934,10.32527 l -2.44052,6.88351 0.5605,-6.02307 c 0.30826,-3.31269 0.35004,-5.82948 0.0929,-5.59286 -0.25717,0.23663 -1.71418,6.23819 -3.23778,13.33681 -1.52363,7.09863 -3.108535,13.27443 -3.522055,13.72401 -0.43232,0.47005 -0.79507,-4.2834 -0.85362,-11.18571 -0.056,-6.60172 -0.3715,-13.16472 -0.70115,-14.58445 -1.25846,-5.41997 -2.19543,4.8966 -1.99276,21.94121 0.19804,16.65671 -0.28511,22.30176 -1.93696,22.63047 -0.4731,0.0941 -1.19351,-2.31756 -1.60092,-5.35934 -0.4668,-3.48523 -0.99208,-5.07626 -1.42036,-4.3022 -1.08471,1.96052 -2.75772,14.18381 -3.34788,24.46018 -0.53078,9.24264 -0.55843,9.34363 -1.17787,4.30219 z"
       id="path3186"
       inkscape:connector-curvature="0" />
    <path
       style="opacity:1;fill:#092543;fill-opacity:1;fill-rule:nonzero;stroke:none;stroke-width:4.76425934;stroke-miterlimit:4;stroke-dasharray:none;stroke-opacity:1"
       d="m -137.6156,-208.50287 c -0.39285,-4.27699 -0.97388,-6.14642 -2.23083,-7.17753 -1.57099,-1.28872 -1.62809,-1.82602 -0.75441,-7.09863 0.51991,-3.1374 1.27521,-5.70437 1.67849,-5.70437 0.40328,0 0.73324,-0.91959 0.73324,-2.04354 0,-3.16577 1.00158,-7.42129 1.74668,-7.42129 0.36912,0 1.70344,1.76151 2.96515,3.91445 l 2.29402,3.91445 -1.35181,5.39025 c -0.7435,2.96463 -1.35183,7.22683 -1.35183,9.47156 0,4.33986 -1.51104,11.49562 -2.56503,12.14702 -0.34788,0.21499 -0.87151,-2.21157 -1.16367,-5.39237 z"
       id="path3188"
       inkscape:connector-curvature="0" />
    <path
       style="opacity:1;fill:#092543;fill-opacity:1;fill-rule:nonzero;stroke:none;stroke-width:4.76425934;stroke-miterlimit:4;stroke-dasharray:none;stroke-opacity:1"
       d="m -56.478905,-216.08997 c -1.12778,-2.96631 -0.85476,-17.81278 0.34174,-18.5838 0.51001,-0.32863 1.1788,-3.83223 1.48622,-7.78578 0.30742,-3.95355 0.82947,-8.04065 1.16012,-9.08243 0.65084,-2.05066 2.57979,-2.51739 3.59764,-0.87049 0.89961,1.45563 2.72159,13.6038 2.04026,13.6038 -0.31123,0 -1.26688,4.93677 -2.12363,10.9706 -0.85677,6.03383 -1.90241,11.6482 -2.32368,12.47637 -1.11992,2.20171 -3.2027,1.83871 -4.17867,-0.72827 z"
       id="path3190"
       inkscape:connector-curvature="0" />
    <path
       style="opacity:1;fill:#092543;fill-opacity:1;fill-rule:nonzero;stroke:none;stroke-width:4.76425934;stroke-miterlimit:4;stroke-dasharray:none;stroke-opacity:1"
       d="m -36.170385,-227.3411 c -0.30152,-5.12406 -0.84931,-10.47806 -1.21729,-11.89779 -0.64844,-2.50182 -0.77976,-2.35608 -4.26339,4.73242 -3.39651,6.91116 -3.60225,7.14797 -3.73801,4.3022 -0.19127,-4.00925 -0.22725,-3.71945 1.46913,-11.83105 0.8165,-3.90424 1.74638,-7.09862 2.06639,-7.09862 0.32004,0 1.15964,1.21998 1.86582,2.71107 l 1.28394,2.71106 1.55173,-5.73254 c 0.85344,-3.15289 1.86618,-5.92689 2.25054,-6.16444 0.38436,-0.23754 0.96817,1.79971 1.29736,4.52724 0.90596,7.50687 1.77083,8.19115 2.93103,2.319 0.55462,-2.80709 1.1103,-5.48309 1.23484,-5.94667 0.12456,-0.46357 0.82973,0.11722 1.56704,1.29066 0.8358,1.33016 1.53842,5.21146 1.86603,10.3077 0.45212,7.03377 0.367,7.89527 -0.61005,6.17505 -1.08222,-1.90535 -1.18742,-1.76706 -2.24269,2.94838 -1.17866,5.26683 -3.57798,11.4139 -5.559,14.24218 -1.07585,1.536 -1.26399,0.72099 -1.75342,-7.59585 z"
       id="path3192"
       inkscape:connector-curvature="0" />
    <path
       style="opacity:1;fill:#092543;fill-opacity:1;fill-rule:nonzero;stroke:none;stroke-width:4.76425934;stroke-miterlimit:4;stroke-dasharray:none;stroke-opacity:1"
       d="m -19.894935,-220.21537 c -0.78777,-1.8854 -1.26429,-5.77135 -1.24786,-10.17638 0.0275,-7.37833 1.31781,-19.51293 2.16493,-20.36006 0.92811,-0.92811 2.08447,2.07468 2.09754,5.44682 0.0156,4.01195 0.96044,3.2631 2.65999,-2.10807 0.73271,-2.31563 1.29349,-3.18027 1.39514,-2.1511 0.0935,0.94649 0.41715,4.72396 0.71922,8.3944 0.57232,6.95407 2.05851,8.36385 2.2087701,2.0952 l 0.0864,-3.60608 0.67627,3.01153 c 0.37196,1.65635 0.86728,4.85949 1.10072,7.11809 0.35367,3.42183 0.22659,3.94232 -0.76226,3.12167 -0.96057,-0.79721 -1.6065501,-0.0221 -3.3900501,4.06762 -3.11341,7.13927 -3.40495,7.6004 -5.00465,7.91515 -0.95528,0.18797 -1.85272,-0.73091 -2.7042,-2.76879 z"
       id="path3194"
       inkscape:connector-curvature="0" />
    <path
       style="opacity:1;fill:#092543;fill-opacity:1;fill-rule:nonzero;stroke:none;stroke-width:4.76425934;stroke-miterlimit:4;stroke-dasharray:none;stroke-opacity:1"
       d="m -5.0014649,-207.81185 c -0.20666,-1.40817 0.022,-2.69292 0.50827,-2.85499 0.51684,-0.17229 1.08363,-5.27384 1.36461,-12.28227 0.46967,-11.71563 1.04728,-14.67414 2.66922996,-13.67171 1.04589,0.64639 1.03862,15.75327 -0.009,18.97963 -0.44558,1.37203 -1.24742996,4.72099 -1.78188996,7.44213 -1.06429,5.41861 -2.16588,6.37449 -2.75108,2.38721 z"
       id="path3196"
       inkscape:connector-curvature="0" />
    <path
       style="opacity:1;fill:#092543;fill-opacity:1;fill-rule:nonzero;stroke:none;stroke-width:4.76425934;stroke-miterlimit:4;stroke-dasharray:none;stroke-opacity:1"
       d="m 10.262985,-203.07903 c -0.5674199,-6.81202 -1.9263199,-13.75833 -2.1082499,-10.7769 -0.16656,2.72978 -1.90892,7.74396 -2.69092,7.74396 -0.45098,0 -0.82,-0.94515 -0.82,-2.10032 0,-1.15517 -0.30898,-2.29128 -0.68662,-2.52467 -0.61867,-0.38237 1.06445,-17.50246 1.97734,-20.11264 0.20688,-0.59156 0.9189,-1.07555 1.58226,-1.07555 0.88675,0 1.69357,3.13252 3.0472299,11.83104 1.01264,6.50707 1.83724,12.48939 1.83246,13.29405 -0.005,0.80466 0.66675,1.84102 1.4923,2.30302 1.38374,0.77439 1.40054,1.12571 0.2151,4.49722 -2.09523,5.95909 -3.15904,5.10624 -3.8409,-3.07921 z"
       id="path3198"
       inkscape:connector-curvature="0" />
    <path
       style="opacity:1;fill:#092543;fill-opacity:1;fill-rule:nonzero;stroke:none;stroke-width:1.68442011;stroke-miterlimit:4;stroke-dasharray:none;stroke-opacity:1"
       d="m 14.463535,-204.21476 c -0.31991,-0.20223 -0.33938,-0.2898 -0.0651,-0.29307 0.31147,-0.004 0.38029,-1.97101 0.33801,-9.66336 -0.0582,-10.59954 0.13245,-12.33731 1.74924,-15.94001 0.66804,-1.4886 0.88093,-1.74867 1.05598,-1.29002 0.27955,0.73256 1.60882,15.30644 1.41385,15.50142 -0.0802,0.0802 -0.52163,-1.19215 -0.98097,-2.82741 -0.45934,-1.63527 -0.93509,-3.08028 -1.05722,-3.21113 -0.12213,-0.13086 -0.37804,0.28279 -0.56872,0.91922 -0.66384,2.21568 -0.96044,5.43693 -0.98767,10.72662 -0.0294,5.70317 -0.15404,6.54762 -0.89736,6.07774 z"
       id="path3200"
       inkscape:connector-curvature="0" />
    <path
       style="opacity:1;fill:#092543;fill-opacity:1;fill-rule:nonzero;stroke:none;stroke-width:1.68442011;stroke-miterlimit:4;stroke-dasharray:none;stroke-opacity:1"
       d="m 22.373095,-192.22634 c 0,-2.24682 -0.80796,-11.20725 -1.07751,-11.94988 -0.0847,-0.23334 0.0331,-0.64402 0.26183,-0.91263 0.22868,-0.26861 0.73051,-2.02034 1.11516,-3.89274 0.38468,-1.8724 0.932,-3.92582 1.21632,-4.56317 l 0.51692,-1.1588 0.21177,1.97737 c 0.41796,3.90266 1.36506,17.17823 1.23481,17.30846 -0.0731,0.0731 -0.14065,-0.19784 -0.15005,-0.60219 -0.0101,-0.42873 -0.2596,0.0295 -0.59891,1.09922 -0.32001,1.00891 -1.06524,2.51432 -1.65608,3.34535 l -1.07426,1.51095 z"
       id="path3202"
       inkscape:connector-curvature="0" />
    <path
       style="opacity:1;fill:#092543;fill-opacity:1;fill-rule:nonzero;stroke:none;stroke-width:1.68442011;stroke-miterlimit:4;stroke-dasharray:none;stroke-opacity:1"
       d="m 31.518845,-168.27507 c -0.17481,-0.32665 -0.38605,-4.73199 -0.49234,-10.26713 -0.10239,-5.33224 -0.30633,-10.74417 -0.45323,-12.02651 -0.18738,-1.63591 -0.13504,-3.58471 0.17542,-6.532 0.77959,-7.40062 1.37546,-9.25832 2.82234,-8.79909 0.81089,0.25736 0.8908,0.61383 1.13501,5.06334 0.28477,5.18823 0.74099,5.46537 2.72552,1.65567 l 1.21685,-2.33598 0.19396,1.62031 c 0.37555,3.13709 0.52719,5.56663 0.30049,4.81452 -0.20804,-0.69021 -0.29363,-0.59177 -0.92562,1.06474 -0.97287,2.54994 -1.43663,5.46635 -1.98556,12.48645 -0.50009,6.39578 -0.59786,7.30565 -1.1261,10.4815 -0.44026,2.64694 -0.90707,3.34633 -2.2335,3.34633 -0.71356,0 -1.14456,-0.18223 -1.35324,-0.57215 z"
       id="path3204"
       inkscape:connector-curvature="0" />
    <path
       style="opacity:1;fill:#092543;fill-opacity:1;fill-rule:nonzero;stroke:none;stroke-width:1.68442011;stroke-miterlimit:4;stroke-dasharray:none;stroke-opacity:1"
       d="m 73.261545,-119.33944 c -0.37147,-0.14947 -0.74051,-0.58571 -0.82013,-0.96941 -0.77628,-3.74148 -1.20628,-9.20619 -1.69468,-21.53612 -0.43556,-10.99581 -1.40065,-16.49046 -3.83558,-21.83723 -1.13028,-2.48194 -3.16469,-5.83886 -3.54127,-5.84333 -0.4682,-0.006 -1.74085,2.38155 -2.63194,4.9367 -1.28863,3.69509 -1.56353,6.2591 -1.86767,17.42017 -0.39356,14.44195 -1.11265,17.20645 -4.46823,17.17826 -1.13556,-0.01 -1.71296,-0.29956 -2.42932,-1.22019 -0.54033,-0.6944 -1.48233,-6.3354 -2.34223,-14.02607 -1.05822,-9.46478 -1.36128,-14.78143 -1.59705,-28.01812 -0.1125,-6.31619 -0.29114,-11.48397 -0.39698,-11.48397 -0.10586,0 -0.34697,0.73667 -0.53581,1.63705 -0.18886,0.90038 -0.63608,2.61986 -0.99382,3.82107 -0.61331,2.0594 -0.6971,2.17863 -1.46863,2.08954 -0.80171,-0.0926 -0.8256,-0.15786 -1.18501,-3.23901 -0.43617,-3.73942 -1.16091,-7.8129 -1.77768,-9.99178 -0.34243,-1.2097 -0.60482,-1.60685 -1.12824,-1.70778 l -0.68202,-0.13152 0.67376,-0.0414 c 0.37058,-0.0228 0.8119,-0.2995 0.98071,-0.61492 0.1688,-0.31542 0.4517,-2.73713 0.62865,-5.38158 0.32956,-4.92525 0.94573,-8.46632 1.6379,-9.41291 0.32184,-0.44017 0.42468,1.15864 0.58716,9.12915 0.13698,6.71926 0.30645,9.79463 0.55627,10.09566 0.54975,0.6624 1.87192,0.36764 2.28991,-0.5105 0.1991,-0.41829 0.5833,-2.40327 0.85378,-4.41107 0.57656,-4.27961 1.24275,-7.14395 1.7892,-7.69251 1.06709,-1.07124 1.72103,0.51461 2.64885,6.42347 0.44878,2.85811 1.14032,3.75572 2.31703,3.0075 0.56264,-0.35776 1.6087,-2.9943 2.36993,-5.97327 0.43254,-1.69262 0.7557,-2.4939 0.85889,-2.12948 0.091,0.32136 0.60237,2.50081 1.13646,4.84324 1.67087,7.32821 1.54186,6.98352 2.65393,7.09179 0.8871,0.0864 1.03471,-0.0278 1.63611,-1.26565 1.11051,-2.28579 2.87967,-2.53104 3.89122,-0.53942 0.30777,0.60594 0.86376,2.19687 1.23555,3.5354 1.39827,5.03396 2.29045,6.21499 6.06997,8.03516 3.12251,1.50379 3.85188,2.41517 6.13614,7.66738 2.97555,6.84182 4.14528,11.24595 4.82669,18.1732 0.52355,5.32255 0.28323,5.03901 -0.46784,-0.55192 -0.63058,-4.69427 -0.83955,-5.56619 -1.79941,-7.5083 -0.74914,-1.51579 -1.40178,-2.39246 -2.10425,-2.82663 -0.5601,-0.34614 -1.08353,-0.62936 -1.16322,-0.62936 -0.0797,0 -0.22971,3.79884 -0.33343,8.44187 -0.20447,9.15365 -0.46595,12.572 -1.59258,20.82059 -1.11458,8.16027 -2.43173,14.27308 -3.21579,14.92423 -0.71782,0.59615 -0.76145,0.60183 -1.7053,0.22205 z"
       id="path3206"
       inkscape:connector-curvature="0" />
    <path
       style="opacity:1;fill:#092543;fill-opacity:1;fill-rule:nonzero;stroke:none;stroke-width:1.68442011;stroke-miterlimit:4;stroke-dasharray:none;stroke-opacity:1"
       d="m 22.106975,161.8339 c -0.2101,-4.81034 -0.51146,-10.81807 -0.66968,-13.35056 l -0.28768,-4.60446 1.06092,-2.47873 c 0.58351,-1.36331 1.81081,-5.10934 2.72735,-8.3245 2.12641,-7.45948 3.17286,-10.0697 4.09091,-10.20413 1.2995,-0.19029 1.54104,0.37637 1.34496,3.15518 l -0.18013,2.55227 5.59633,-3.05527 c 10.60048,-5.78721 20.82623,-10.62387 28.56429,-13.51053 3.55118,-1.32476 4.86362,-1.73685 13.53741,-4.25055 2.67705,-0.77584 5.68875,-1.76951 6.69266,-2.20822 7.01667,-3.06615 11.77488,-8.621364 14.4618,-16.884204 2.359935,-7.25723 3.243725,-15.57959 3.933095,-37.03682 0.16931,-5.27045 0.38044,-10.54222 0.46913,-11.71501 0.35915,-4.7484 0.15571,-34.2300698 -0.29279,-42.4345898 -0.25154,-4.60119 -0.52705,-8.9818402 -0.61227,-9.7347602 -1.1308,-9.99088 -1.83861,-15.48076 -2.45136,-19.0132 -1.129465,-6.51127 -2.801395,-18.87473 -3.332275,-24.64111 -0.26186,-2.84438 -0.541,-5.51383 -0.62032,-5.93212 -0.0793,-0.41829 -0.4859,-4.11445 -0.90352,-8.2137 -0.41762,-4.09925 -1.0998,-10.12263 -1.51599,-13.3853 -0.41619,-3.26266 -1.23303,-9.83363 -1.81522,-14.60214 -0.58222,-4.768506 -1.2709,-10.381196 -1.53043,-12.472656 -0.25953,-2.09145 -0.81362,-6.67743 -1.23129,-10.19107 -0.41767,-3.51364 -1.10157,-8.98945 -1.51972,-12.16845 -0.41817,-3.17901 -0.74549,-6.1907 -0.72734,-6.69265 0.0317,-0.8775 0.0447,-0.86813 0.33952,0.24329 0.34239,1.29099 1.38856,2.16174 2.21583,1.84429 0.80708,-0.3097 2.53775,-4.32725 3.22956,-7.49704 0.33475,-1.53371 0.64312,-2.82308 0.68532,-2.86526 0.0422,-0.0422 0.31456,1.73393 0.60529,3.94691 0.8423,6.41149 2.58146,19.56948 3.54753,26.83944 5.915775,44.518456 9.593265,77.584736 11.689345,105.104976 1.30779,17.1706702 1.28633,16.8146002 2.36514,39.24324 0.60116,12.49818 0.50768,48.1982 -0.15891,60.69016 -0.66624,12.485424 -1.04481,17.732644 -1.44856,20.077964 -1.40587,8.16631 -4.42357,12.79538 -9.24971,14.1887 -0.50673,0.14629 -3.933005,0.4041 -7.613945,0.57288 -11.42902,0.52406 -17.3446,1.44639 -21.21426,3.30763 -2.36035,1.1353 -3.14397,1.86381 -5.27275,4.90178 -3.33986,4.76633 -5.65409,5.81353 -14.12521,6.39167 -6.92263,0.47247 -9.45528,0.80277 -11.4024,1.48714 -2.36696,0.83191 -3.5973,1.8432 -4.53723,3.72939 -0.92044,1.84705 -1.01849,3.79433 -0.43035,8.54524 0.66776,5.39401 -0.55583,8.64127 -4.91291,13.03814 -2.17615,2.19604 -7.74124,6.35283 -8.50514,6.35283 -0.11713,0 -0.38489,-3.93573 -0.595,-8.74609 z"
       id="path3208"
       inkscape:connector-curvature="0" />
    <path
       style="opacity:1;fill:#092543;fill-opacity:1;fill-rule:nonzero;stroke:none;stroke-width:1.68442011;stroke-miterlimit:4;stroke-dasharray:none;stroke-opacity:1"
       d="m -12.409605,177.19659 c -0.10253,-0.87842 -0.27512,-3.3083 -0.38354,-5.39975 l -0.19717,-3.80265 1.78668,-1.25185 c 0.98266,-0.68852 3.9085301,-3.26916 6.5019501,-5.73476 l 4.71526996,-4.48289 0.0698,1.78001 c 0.18177,4.63288 0.7983,10.97423 1.45775004,14.99325 0.39957,2.43544 0.61034,4.54422 0.46837,4.68622 -0.59304,0.59304 -1.38732004,0.0463 -1.47929004,-1.01825 -0.12017,-1.39128 -1.55886996,-10.65003 -1.75606996,-11.30128 -0.19753,-0.65228 -1.01496,-0.96176 -1.49283,-0.56515 -0.24207,0.2009 -0.44458,1.78208 -0.57536,4.49236 -0.11099,2.30029 -0.2866,5.31172 -0.39026,6.69208 l -0.18844,2.50976 h -4.17525 -4.1752401 z"
       id="path3210"
       inkscape:connector-curvature="0" />
    <path
       style="opacity:1;fill:#092543;fill-opacity:1;fill-rule:nonzero;stroke:none;stroke-width:0.42110503;stroke-miterlimit:4;stroke-dasharray:none;stroke-opacity:1"
       d="m -20.112795,176.08753 c -0.0352,-2.76347 -0.15637,-5.2768 -0.28048,-5.81805 -0.30517,-1.33065 -0.35701,-1.6374 -0.37913,-2.24356 l -0.0235,-0.64643 0.0688,0.57038 c 0.0378,0.31372 0.10321,0.66961 0.14531,0.7909 0.0421,0.12126 0.0765,0.36695 0.0765,0.54594 0,0.38417 0.14695,0.56449 0.46001,0.56449 0.30747,0 0.47998,-0.29266 0.53573,-0.90887 l 0.0451,-0.49811 0.0119,0.51713 c 0.008,0.35065 -0.0282,0.59481 -0.11282,0.75843 -0.0973,0.18812 -0.1393,0.6096 -0.19079,1.91291 -0.0363,0.9194 -0.10528,1.79305 -0.15322,1.94146 -0.0482,0.14909 -0.10941,1.06947 -0.13679,2.05706 l -0.0496,1.78723 z"
       id="path3212"
       inkscape:connector-curvature="0" />
    <path
       style="opacity:1;fill:#092543;fill-opacity:1;fill-rule:nonzero;stroke:none;stroke-width:0.42110503;stroke-miterlimit:4;stroke-dasharray:none;stroke-opacity:1"
       d="m -27.536555,177.66561 c -0.0161,-0.0523 -0.051,-0.60841 -0.0772,-1.23584 -0.0262,-0.62743 -0.0791,-1.46592 -0.11748,-1.8633 -0.0384,-0.39738 -0.0938,-1.42399 -0.12311,-2.28137 -0.0449,-1.31501 -0.075,-1.59459 -0.19251,-1.78724 -0.11912,-0.19531 -0.13719,-0.37708 -0.12478,-1.2551 l 0.0145,-1.02671 0.0423,1.04269 c 0.0375,0.92536 0.0594,1.05564 0.19436,1.15766 0.0837,0.0632 0.20344,0.0948 0.26617,0.0701 0.0628,-0.0246 0.45633,-0.077 0.87461,-0.11642 0.48778,-0.0459 0.80145,-0.11197 0.87461,-0.18428 0.0972,-0.0961 0.11408,-0.51953 0.11408,-2.86655 0,-3.0539 -0.0182,-2.93229 0.5311,-3.53994 0.36431,-0.40296 0.62045,-0.55279 1.18489,-0.69305 0.4994,-0.12411 0.55575,-0.12411 1.05513,0 0.29017,0.0721 0.63005,0.20408 0.75528,0.29324 0.27479,0.19566 0.69434,0.71162 0.695,0.85468 0,0.0567 0.0448,0.18871 0.0991,0.29327 0.11621,0.22407 0.66474,2.56812 0.6585,2.81395 -0.008,0.30125 -0.21976,-0.32599 -0.2662,-0.78719 -0.0289,-0.28657 -0.0998,-0.61169 -0.15761,-0.72252 -0.0578,-0.11081 -0.10533,-0.31441 -0.10559,-0.45241 0,-0.13804 -0.0489,-0.34455 -0.10803,-0.45895 -0.0592,-0.11441 -0.13195,-0.33809 -0.1618,-0.4971 -0.0633,-0.33753 -0.73803,-1.08265 -1.03195,-1.13964 -0.0999,-0.0193 -0.35068,-0.0693 -0.55721,-0.11089 -0.22919,-0.0462 -0.44593,-0.0489 -0.55632,-0.007 -0.0995,0.0378 -0.2908,0.0688 -0.42518,0.0688 -0.40987,0 -1.07646,0.55668 -1.36319,1.13847 -0.16515,0.33505 -0.17042,0.4222 -0.19105,3.15852 -0.0117,1.54765 -0.0172,4.3198 -0.0124,6.16027 0.007,2.68824 -0.0111,3.37209 -0.0928,3.47739 -0.056,0.0721 -0.3242,0.18561 -0.59608,0.25228 -0.27189,0.0667 -0.60219,0.17026 -0.73398,0.23019 -0.29279,0.13311 -0.32761,0.13443 -0.36507,0.014 z"
       id="path3214"
       inkscape:connector-curvature="0" />
    <path
       style="opacity:1;fill:#092543;fill-opacity:1;fill-rule:nonzero;stroke:none;stroke-width:3.36884022;stroke-miterlimit:4;stroke-dasharray:none;stroke-opacity:1"
       d="m -142.27838,223.53537 c -0.18975,-2.09267 -0.19912,-5.04291 -0.0209,-6.55606 0.36886,-3.1297 -0.71779,-18.45289 -1.72095,-24.26814 -0.49623,-2.8765 -0.48972,-3.9829 0.0254,-4.30123 0.51509,-0.31832 0.46738,-2.21702 -0.18545,-7.38311 -0.48339,-3.82503 -1.06439,-9.75043 -1.29114,-13.1676 -0.51663,-7.78576 0.008,-9.59258 6.79836,-23.39904 5.49535,-11.17391 5.47032,-10.36785 0.34684,-11.16528 -3.356,-0.52232 -4.18697,-1.83589 -4.73143,-7.47914 -0.23612,-2.44753 -0.80291,-4.82364 -1.2595,-5.28023 -0.45659,-0.4566 -0.83018,-1.29532 -0.83018,-1.86384 0,-1.18281 3.57873,-16.3464 6.09462,-25.823864 0.93274,-3.51364 2.24687,-9.40011 2.92031,-13.08108 0.67342,-3.68096 1.71644,-9.40337 2.31781,-12.71648 0.60139,-3.31314 1.51458,-6.51142 2.0293,-7.10734 0.52414,-0.60683 3.5574,-1.76776 6.89448,-2.6388 4.20273,-1.09699 6.65007,-2.11095 8.30501,-3.44091 3.39159,-2.72555 3.41953,-4.08757 0.18016,-8.77927 -1.99314,-2.88668 -2.55778,-4.15692 -2.09484,-4.71249 0.34859,-0.41833 2.70168,-2.26645 5.22912,-4.10692 4.46288,-3.24987 5.6634,-5.1172 3.75959,-5.84776 -0.47839,-0.18357 -2.94558,0.23571 -5.48259,0.93173 -2.53703,0.69604 -4.74665,1.2655 -4.91021,1.2655 -0.73959,0 -0.18013,-2.92283 0.89781,-4.69072 2.80881,-4.60663 10.51073,-5.97016 17.1464,-3.03557 3.152585,1.39425 3.428175,1.68609 4.095825,4.33756 0.3937,1.5635 0.56536,3.08615 0.38147,3.38367 -0.18388,0.29755 -0.3584,2.25103 -0.38782,4.34108 -0.0415,2.94777 -0.51607,4.81515 -2.11598,8.3259 -2.497025,5.47942 -2.541105,6.35696 -0.389305,7.75375 0.920245,0.59735 2.030915,1.5871 2.468185,2.19946 0.64077,0.89733 1.6224,1.11334 5.05947,1.11334 2.34545,0 4.75562,0.26286 5.35594,0.58414 1.54646,0.82765 3.41148,5.50633 5.47684,13.73931 1.12972,4.50337 2.21835,7.51002 2.97408,8.2141 0.93242,0.86865 1.19896,1.94765 1.22367,4.9534 0.0175,2.11354 0.30679,7.40208 0.64315,11.75231 0.33637,4.35023 0.79658,11.671944 1.02275,16.270504 0.48807,9.92479 0.74305,9.31545 -7.06771,16.88851 -4.80314,4.65699 -5.36964,5.44404 -5.69299,7.90951 -0.19748,1.50585 -0.49845,15.60602 -0.66879,31.33376 -0.30628,28.27975 -0.32403,28.60667 -1.60446,29.57377 -1.29315,0.97674 -1.29259,0.97835 0.46136,1.31363 2.7941,0.53412 5.46891,-0.95252 6.95507,-3.86564 1.13504,-2.22485 1.38634,-4.13086 1.83103,-13.88763 0.49048,-10.76151 1.88822,-22.20828 3.81825,-31.26902 0.97933,-4.59756 1.18679,-4.97919 2.44438,-4.49662 0.68742,0.26379 0.95322,2.50264 1.25497,10.57045 0.21059,5.62967 0.53306,12.17059 0.71665,14.53539 l 0.33378,4.29961 1.77318,-0.26027 c 2.03557,-0.29874 2.54717,0.5801 3.29179,5.65478 0.2455,1.67315 0.5915,3.27774 0.76888,3.56576 0.17737,0.288 1.33336,-0.65005 2.56886,-2.0846 2.80342,-3.25501 4.29123,-3.03686 4.29123,0.62921 0,2.03155 0.20505,2.45279 1.19401,2.45279 2.27544,0 7.66847,-2.43308 16.14604,-7.28429 4.68484,-2.68089 8.86013,-4.87654 9.27843,-4.87924 1.01359,-0.007 0.97343,0.65418 -0.50628,8.33001 -0.92694,4.80833 -1.92206,7.83169 -3.70898,11.26868 -2.80233,5.3901 -6.77399,9.4887 -8.1157,8.3752 -1.5127,-1.25542 -3.5261,-0.45897 -4.05804,1.60526 -0.38249,1.4842 -0.9071,1.98427 -2.39361,2.28158 -3.12941,0.62587 -8.41179,0.43143 -14.22432,-0.52358 -7.02961,-1.15499 -10.8708,-1.15036 -14.80449,0.0177 -5.69688,1.69178 -9.22819,5.99308 -9.22819,11.24035 0,5.23081 -3.25176,7.92379 -10.128835,8.3884 -4.24203,0.28657 -3.9081,0.67456 -5.13421,-5.96537 -0.90784,-4.91652 -1.48862,-6.08423 -3.02609,-6.08423 -1.68127,0 -2.39723,2.2638 -2.39723,7.57978 0,5.21277 0.0185,5.19708 -6.13397,5.19708 h -4.2092 l -0.008,-8.97421 c -0.01,-10.52098 -0.24447,-11.84937 -2.04837,-11.59196 -1.23108,0.17566 -1.27588,0.43268 -0.98626,5.65984 0.16687,3.01167 0.30376,7.64548 0.30421,10.29734 0,5.4559 0.26689,5.19766 -6.23551,6.05502 l -3.19421,0.42116 -0.0606,-6.25729 c -0.0729,-7.51903 -0.4689,-9.23649 -2.18726,-9.48613 -1.52852,-0.22206 -1.93223,0.84183 -3.8803,10.2257 -0.7294,3.51364 -1.38993,6.46385 -1.46785,6.55605 -0.0779,0.0922 -0.29689,-1.54458 -0.48663,-3.63725 z m 36.83064,-32.6126 1.67317,-0.6972 -0.008,-13.55246 c -0.007,-11.7483 -0.69154,-24.14098 -2.18504,-39.56254 l -0.39772,-4.10684 h -2.61255 c -2.55074,0 -2.67702,0.0972 -5.33648,4.10684 -1.49815,2.25877 -5.48913,9.02266 -8.86884,15.03087 -5.76109,10.2416 -6.14381,11.13476 -6.12677,14.29793 0.0209,3.88564 1.59719,23.76305 1.90545,24.02895 1.67693,1.44645 18.7293,1.79938 21.95695,0.45445 z m -25.10618,-63.98591 c 1.00872,-1.99826 1.83401,-4.51609 1.83401,-5.59522 0,-1.14141 0.68816,-2.955 1.64531,-4.33618 1.62745,-2.34844 1.64352,-2.47057 1.48154,-11.2773 -0.09,-4.89675 -0.26377,-9.003194 -0.386,-9.125434 -1.10146,-1.10146 -9.11747,23.365254 -8.60862,26.275594 1.24061,7.09583 1.38666,7.69172 1.88518,7.69172 0.17301,0 1.13986,-1.63494 2.14858,-3.63318 z"
       id="path3220"
       inkscape:connector-curvature="0" />
    <path
       style="opacity:1;fill:#092543;fill-opacity:1;fill-rule:nonzero;stroke:none;stroke-width:3.36884022;stroke-miterlimit:4;stroke-dasharray:none;stroke-opacity:1"
       d="m -119.59356,37.581856 c 0,-1.67367 -0.14615,-3.42389 -0.32475,-3.88935 -0.23997,-0.62534 0.8323,-1.11694 4.10684,-1.88283 5.40724,-1.2647 6.56108,-1.28513 6.56108,-0.11607 0,0.78264 -8.2891,8.16663 -9.79839,8.7285 -0.29961,0.11155 -0.54478,-1.16657 -0.54478,-2.84025 z"
       id="path3222"
       inkscape:connector-curvature="0" />
    <path
       style="opacity:1;fill:#092543;fill-opacity:1;fill-rule:nonzero;stroke:none;stroke-width:3.36884022;stroke-miterlimit:4;stroke-dasharray:none;stroke-opacity:1"
       d="m -162.07982,218.3408 c -0.39973,-7.9507 -0.7234,-16.41115 -0.71927,-18.80095 0.007,-4.05937 0.10224,-4.36887 1.44762,-4.70656 0.79205,-0.19878 2.8013,-1.29776 4.46497,-2.44216 2.44637,-1.6828 7.69289,-4.02095 9.02256,-4.02095 0.41672,0 0.34406,18.94239 -0.11756,30.64676 -0.27252,6.90992 -0.61274,10.08436 -1.06473,9.93442 -0.3773,-0.12517 -1.18989,-4.66696 -1.88108,-10.51391 -1.6686,-14.11491 -2.25891,-13.94171 -5.35414,1.5707 -1.30201,6.52532 -2.40961,11.89866 -2.46134,11.94076 -0.0517,0.0421 -0.66019,0.25005 -1.35215,0.46214 -1.23383,0.37817 -1.27214,0.10663 -1.98488,-14.07025 z"
       id="path3224"
       inkscape:connector-curvature="0" />
    <path
       style="opacity:1;fill:#092543;fill-opacity:1;fill-rule:nonzero;stroke:none;stroke-width:3.36884022;stroke-miterlimit:4;stroke-dasharray:none;stroke-opacity:1"
       d="m -212.26421,233.87626 c -0.55901,-12.84163 -1.70064,-18.30464 -3.45795,-16.54733 -0.33345,0.33345 -0.78512,3.1261 -1.00375,6.20591 -0.33837,4.76713 -0.55515,5.59964 -1.45812,5.59964 -1.18237,0 -1.76916,1.1194 -1.85989,3.54819 l -0.0606,1.62341 -0.48712,-1.52107 c -0.26795,-0.83658 -0.51986,-4.66963 -0.55983,-8.51791 -0.04,-3.84826 -0.37704,-8.91339 -0.74899,-11.2558 -1.14876,-7.23429 -1.1576,-7.19222 1.61301,-7.6745 1.33853,-0.23302 5.51939,-0.51811 9.29079,-0.63355 l 6.85707,-0.20987 -0.30961,4.25895 c -0.17031,2.34243 -0.47596,6.93851 -0.67924,10.21352 -0.33033,5.32228 -0.48345,5.91842 -1.44206,5.61417 -2.03157,-0.64479 -2.62199,1.23812 -3.0049,9.58284 -0.30681,6.68716 -0.53213,8.07045 -1.33953,8.2246 -0.83812,0.16002 -1.02238,-1.00224 -1.34924,-8.5112 z"
       id="path3226"
       inkscape:connector-curvature="0" />
    <path
       style="opacity:1;fill:#092543;fill-opacity:1;fill-rule:nonzero;stroke:none;stroke-width:3.36884022;stroke-miterlimit:4;stroke-dasharray:none;stroke-opacity:1"
       d="m -198.59073,235.86773 c -1.78065,-5.52871 -2.52116,-12.32779 -2.52683,-23.20007 l -0.004,-8.86156 1.97739,-0.94133 1.97736,-0.94134 0.0394,19.08133 c 0.0217,10.49472 0.007,19.08133 -0.0324,19.08133 -0.0394,0 -0.6831,-1.89826 -1.43034,-4.21836 z"
       id="path3228"
       inkscape:connector-curvature="0" />
    <path
       style="opacity:1;fill:#092543;fill-opacity:1;fill-rule:nonzero;stroke:none;stroke-width:0.42110503;stroke-miterlimit:4;stroke-dasharray:none;stroke-opacity:1"
       d="m -191.69119,203.98869 c -0.22572,-0.25545 -0.55867,-0.67313 -0.73986,-0.92816 -0.36515,-0.51398 -1.30643,-2.0684 -1.30643,-2.15744 0,-0.11144 -0.40299,-0.81711 -0.49884,-0.87352 -0.0537,-0.0316 -0.12071,-0.16227 -0.14883,-0.2903 -0.0281,-0.12806 -0.099,-0.32464 -0.15759,-0.43685 -0.0585,-0.11221 -0.1043,-0.30671 -0.10168,-0.4322 0.003,-0.1661 0.058,-0.0664 0.20058,0.36666 0.13401,0.40709 0.25363,0.6327 0.37902,0.71485 0.17063,0.11181 0.19836,0.10882 0.40428,-0.0434 0.1216,-0.0899 0.26964,-0.16346 0.32896,-0.16346 0.0593,0 0.14861,-0.0491 0.19846,-0.1092 0.0498,-0.06 0.18857,-0.1307 0.30827,-0.15697 0.1197,-0.0262 0.25842,-0.0969 0.30826,-0.15701 0.0498,-0.0601 0.13671,-0.10919 0.19304,-0.10919 0.0951,0 0.4749,-0.16886 0.95544,-0.42484 0.11102,-0.0591 0.25403,-0.10753 0.31779,-0.10753 0.0638,0 0.16129,-0.0454 0.21678,-0.10083 0.0555,-0.0555 0.21531,-0.12375 0.35522,-0.15171 0.13994,-0.028 0.38603,-0.15513 0.54685,-0.2825 0.24278,-0.1923 0.30054,-0.29242 0.34009,-0.58981 0.0262,-0.19698 0.0957,-0.5293 0.15439,-0.73845 0.0587,-0.20913 0.12006,-0.4658 0.13634,-0.57039 0.0161,-0.10456 0.0342,-0.0254 0.0399,0.17613 0.006,0.20143 -0.027,0.43598 -0.0726,0.52123 -0.0456,0.0852 -0.11198,0.36031 -0.14746,0.6113 -0.0355,0.25095 -0.1193,0.51686 -0.18629,0.59089 -0.067,0.074 -0.15028,0.30149 -0.1851,0.50549 -0.0349,0.20399 -0.0998,0.5249 -0.14441,0.71313 -0.26448,1.11628 -0.3946,1.75056 -0.3946,1.92333 0,0.10793 -0.0367,0.29258 -0.0815,0.41035 -0.0448,0.11774 -0.12626,0.45365 -0.18092,0.74646 -0.4208,2.25388 -0.41624,2.24711 -1.03759,1.54398 z"
       id="path3230"
       inkscape:connector-curvature="0" />
    <path
       style="opacity:1;fill:#092543;fill-opacity:1;fill-rule:nonzero;stroke:none;stroke-width:2.38212967;stroke-miterlimit:4;stroke-dasharray:none;stroke-opacity:1"
       d="m -228.71304,244.01793 c -0.15835,-0.59156 -0.4227,-2.87505 -0.58746,-5.07445 -0.25026,-3.34097 -0.41301,-3.97719 -0.98925,-3.86688 -0.57306,0.10972 -0.71043,0.9222 -0.81235,4.80523 l -0.12263,4.67317 -2.23576,-0.29659 c -1.22967,-0.16312 -2.30806,-0.36889 -2.39646,-0.45728 -0.0884,-0.0884 0.1723,-2.85422 0.57928,-6.1463 0.83783,-6.77722 0.61875,-7.99224 -1.39793,-7.75237 -1.34625,0.16012 -1.47539,0.54054 -2.46909,7.27297 -0.40497,2.74368 -0.89207,5.24055 -1.08244,5.54858 -0.37809,0.61177 -3.26906,0.35007 -3.97933,-0.36021 -0.21709,-0.21709 -0.64799,-1.43412 -0.95755,-2.70449 -0.30957,-1.27037 -0.58426,-1.96135 -0.61042,-1.53553 -0.0886,1.44208 -1.33644,3.31285 -2.20972,3.31285 -1.3861,0 -4.10544,-3.09079 -4.94604,-5.62169 -0.41715,-1.25589 -1.5788,-7.12115 -2.58147,-13.03393 -1.43864,-8.48383 -1.98731,-10.87059 -2.6022,-11.32022 -2.19009,-1.60144 -2.96436,-0.42627 -5.10926,7.75454 -1.70013,6.48438 -2.37321,8.54652 -2.39668,7.34285 -0.004,-0.21691 -0.76731,-3.66731 -1.69574,-7.66757 -1.68505,-7.26038 -2.35439,-8.78073 -3.64741,-8.28456 -1.37229,0.5266 -1.63529,2.41769 -1.35591,9.74979 0.28797,7.55738 -0.0869,11.07102 -1.4672,13.75339 -0.83227,1.61737 -3.28641,4.18462 -3.65135,3.81966 -0.1201,-0.1201 -0.90972,-5.04275 -1.75469,-10.93923 -1.5798,-11.02408 -2.07574,-12.68616 -3.38696,-11.35086 -1.46105,1.48794 -4.09826,12.03706 -4.12409,16.4969 -0.006,0.97465 -0.18306,2.51677 -0.39428,3.42699 -0.38679,1.6668 -1.93135,3.72605 -2.78953,3.71906 -0.70733,-0.006 -3.49879,-4.58036 -4.99168,-8.18031 -1.70503,-4.11151 -3.22667,-10.44429 -4.06612,-16.92243 -0.70728,-5.45811 -0.82663,-5.8693 -1.70346,-5.8693 -0.89752,0 -2.78453,5.82107 -2.85345,8.80234 -0.0167,0.7193 -0.17317,1.67169 -0.34785,2.11643 -0.2009,0.51149 -0.70353,-1.67759 -1.36798,-5.95789 -1.05123,-6.77209 -1.54904,-8.00028 -2.90334,-7.16327 -0.31855,0.19687 -1.08836,4.99962 -2.01221,12.55389 -0.82293,6.72926 -1.73648,13.00943 -2.03012,13.9559 l -0.53387,1.72088 -0.14449,-1.36618 c -0.0795,-0.75139 -0.39915,-1.57752 -0.71041,-1.83584 -1.16657,-0.96816 -1.84549,0.0225 -2.8734,4.19293 l -1.02822,4.17174 -1.78705,0.37505 c -2.23957,0.47003 -7.06449,-0.53541 -10.63871,-2.21694 l -2.51104,-1.18134 -0.1185,-4.51147 c -0.12652,-4.81689 -0.81191,-7.57727 -2.07114,-8.34146 -1.18257,-0.71766 -1.78768,0.44204 -2.44908,4.69376 -0.3159,2.0307 -0.75301,3.80259 -0.97136,3.93753 -0.54488,0.33676 -4.23623,-3.67165 -6.34285,-6.88766 -2.00251,-3.05705 -4.08716,-8.18975 -4.52567,-11.14288 -0.33632,-2.26485 -0.44535,-2.34431 -1.85873,-1.35434 -0.5412,0.37906 -1.04952,0.62108 -1.12961,0.53779 -0.0801,-0.0833 -0.67111,-4.50742 -1.31337,-9.83139 -0.64227,-5.32397 -1.42059,-10.21236 -1.72961,-10.86313 -0.52873,-1.11342 -0.49647,-1.19957 0.54734,-1.46156 2.54809,-0.63952 3.09467,1.0296 4.16575,12.72125 0.37765,4.12234 0.77777,7.58632 0.88916,7.69771 0.11138,0.11139 0.4492,0.008 0.75069,-0.23022 1.41067,-1.1136 35.89239,-26.66981 36.37351,-26.95831 0.34787,-0.20863 1.36681,0.41129 2.79641,1.70129 1.23703,1.11623 3.5075,2.85806 5.04554,3.87075 3.48845,2.29688 19.46912,10.92417 19.82634,10.70338 0.14475,-0.0895 0.5148,-2.20221 0.82235,-4.69504 0.8691,-7.04445 2.00131,-7.05008 3.00051,-0.0151 0.6464,4.55115 1.33836,6.12257 2.86474,6.50566 0.61344,0.15396 2.94503,-0.0645 5.18134,-0.48541 5.75151,-1.08262 9.45213,-0.69739 20.53032,2.13723 12.60755,3.22593 16.08815,3.60632 23.22568,2.53828 l 1.66862,-0.24969 -0.31758,16.73384 c -0.32615,17.18596 -0.64566,22.79885 -1.18348,20.78958 z"
       id="path3232"
       inkscape:connector-curvature="0" />
    <path
       style="opacity:1;fill:#092543;fill-opacity:1;fill-rule:nonzero;stroke:none;stroke-width:2.38212967;stroke-miterlimit:4;stroke-dasharray:none;stroke-opacity:1"
       d="m -362.14689,218.30238 c -0.7406,-2.56979 -1.23719,-8.64862 -2.1481,-26.29537 -0.52143,-10.10142 -0.57869,-10.52465 -1.52789,-11.29327 -1.18084,-0.95617 -2.15562,-1.01189 -3.28238,-0.18761 -0.78101,0.57134 -0.83683,1.21936 -0.86165,10.0026 -0.0212,7.50493 -0.18251,10.0399 -0.80288,12.61835 -0.42699,1.77464 -0.94155,3.51702 -1.14348,3.87196 -0.20812,0.36582 -0.39459,-6.80873 -0.4305,-16.56344 -0.0348,-9.46484 -0.18592,-20.75045 -0.33574,-25.07917 -0.14982,-4.32871 -0.12503,-8.39428 0.0551,-9.03462 0.54577,-1.94024 2.43588,-13.39924 3.11514,-18.88596 0.98524,-7.95816 1.9254,-20.4471 1.96936,-26.16068 0.0481,-6.25919 0.49433,-5.28182 1.46294,3.20461 0.36597,3.20651 0.93656,7.95959 1.26798,10.56241 0.33141,2.60283 1.48185,11.99239 2.55652,20.86567 2.53264,20.91124 3.25628,24.27304 6.59718,30.64807 2.57325,4.91024 7.61673,9.36236 10.60596,9.36236 1.3348,0 3.4912,-2.41091 4.89077,-5.46799 1.99367,-4.35475 3.96628,-3.94242 5.69888,1.19116 0.70434,2.0869 1.58928,3.70302 2.62226,4.7889 1.3464,1.41536 1.81774,1.6388 3.4542,1.6374 2.26465,-0.003 4.38858,-1.17626 5.29397,-2.92711 0.35436,-0.68524 0.92879,-3.01334 1.27653,-5.17361 0.84026,-5.22007 2.36238,-7.38558 5.19131,-7.38558 1.03399,0 1.10384,0.13269 1.10384,2.09701 0,2.49505 0.78975,4.90847 2.40477,7.34896 1.16247,1.75662 1.16835,1.79888 0.35658,2.56696 -1.96863,1.86272 -36.01466,26.72398 -36.26091,26.4786 -0.14998,-0.14941 -0.69931,-3.98277 -1.22074,-8.51855 -1.06866,-9.29608 -1.04956,-9.18311 -1.77665,-10.50552 -0.56372,-1.02529 -2.08272,-1.2787 -3.41177,-0.5692 -0.41087,0.21937 -1.075,0.49951 -1.47584,0.62259 -1.57602,0.4839 -1.83635,3.22104 -1.06059,11.15095 0.3983,4.07146 0.72185,8.98358 0.71901,10.91581 l -0.005,3.51316 -1.61332,1.25463 c -2.56526,1.99488 -2.51847,2.00422 -3.28468,-0.65448 z"
       id="path3234"
       inkscape:connector-curvature="0" />
    <path
       style="opacity:1;fill:#092543;fill-opacity:1;fill-rule:nonzero;stroke:none;stroke-width:2.38212967;stroke-miterlimit:4;stroke-dasharray:none;stroke-opacity:1"
       d="m -389.66442,209.50623 c -0.15607,-3.60585 -0.40802,-12.85213 -0.55988,-20.54733 -0.15185,-7.69517 -0.43687,-14.42683 -0.63337,-14.95922 -0.52049,-1.4102 -2.7006,-1.33345 -3.65871,0.1288 -0.66215,1.0106 -0.68054,2.48171 -0.23387,18.71374 0.5311,19.3004 0.49056,19.76969 -1.70777,19.76969 -0.78266,0 -1.43678,-0.34356 -1.84742,-0.97025 -1.14369,-1.74551 -2.00559,-14.73211 -2.27105,-34.21883 l -0.24786,-18.19539 1.52438,1.52437 c 2.54483,2.54484 2.70492,2.46475 8.82286,-4.4141 1.48232,-1.66666 3.16067,-3.8499 3.72966,-4.85164 l 1.03452,-1.82131 0.47954,1.89598 c 1.82197,7.2037 3.72873,12.06134 5.01753,12.7826 0.63092,0.35306 0.68357,1.75517 0.5255,13.99484 -0.17274,13.3757 -0.19155,13.61723 -1.12799,14.48967 -1.85464,1.72786 -3.91886,6.98278 -6.75753,17.20273 -0.88725,3.19437 -1.6563,5.85833 -1.70898,5.91987 -0.0527,0.0615 -0.22348,-2.83834 -0.37956,-6.44422 z"
       id="path3236"
       inkscape:connector-curvature="0" />
    <path
       style="opacity:1;fill:#092543;fill-opacity:1;fill-rule:nonzero;stroke:none;stroke-width:2.38212967;stroke-miterlimit:4;stroke-dasharray:none;stroke-opacity:1"
       d="m -415.8914,180.04064 c -0.15436,-1.46904 -0.41077,-6.42844 -0.5698,-11.0209 l -0.28915,-8.34988 1.09198,-1.4555 c 2.18357,-2.91041 4.02609,-7.36025 5.32335,-12.85628 0.58589,-2.48225 0.78043,-5.35316 0.84324,-12.44389 0.0739,-8.34781 0.1552,-9.271 0.86153,-9.78749 1.10862,-0.81063 2.94095,-0.70557 3.77541,0.21648 1.0309,1.13914 0.87498,2.09061 -0.39483,2.4093 -0.78524,0.19708 -1.37299,0.86693 -2.02278,2.30531 -0.82721,1.83108 -0.94563,3.1111 -1.22244,13.21319 -0.16857,6.15214 -0.32312,13.65411 -0.34343,16.67102 -0.0289,4.28977 -0.16305,5.48529 -0.61558,5.48529 -0.31826,0 -0.88077,0.3388 -1.25002,0.7529 -0.85161,0.95499 -2.70249,7.03143 -3.946,12.95469 l -0.96082,4.57676 z"
       id="path3238"
       inkscape:connector-curvature="0" />
    <path
       style="opacity:1;fill:#092543;fill-opacity:1;fill-rule:nonzero;stroke:none;stroke-width:2.38212967;stroke-miterlimit:4;stroke-dasharray:none;stroke-opacity:1"
       d="m -435.76398,197.31093 c -2.12959,-1.2903 -4.69477,-2.66089 -5.70041,-3.04578 -1.7109,-0.65482 -1.82843,-0.80571 -1.82843,-2.34709 0,-1.18637 -0.23205,-1.7715 -0.82928,-2.09111 -1.04392,-0.5587 -2.07186,-0.18185 -2.40999,0.88349 -0.14326,0.45138 -0.44419,0.82069 -0.66873,0.82069 -0.88708,0 -8.56837,-3.84273 -8.56837,-4.28652 0,-0.26029 -0.31245,-4.38748 -0.69432,-9.17151 -0.57612,-7.21754 -0.63104,-11.29821 -0.32266,-23.97107 0.2044,-8.40004 0.35304,-19.75802 0.33029,-25.23995 l -0.0413,-9.96715 1.54385,-0.28964 c 0.84911,-0.15927 1.73891,-0.41232 1.97734,-0.56231 0.23842,-0.15 0.8428,-0.32912 1.34306,-0.39807 0.81124,-0.11179 1.3407,0.95671 4.89773,9.88415 5.36512,13.46541 6.12837,14.85534 10.7367,19.55223 4.03718,4.11477 4.77838,5.36088 5.62321,9.45382 0.75756,3.67012 1.64762,5.62991 3.05831,6.73394 l 1.24863,0.97721 -0.84186,3.42472 c -1.92722,7.83995 -3.69793,19.39189 -4.17405,27.23113 -0.16045,2.64175 -0.40782,4.79231 -0.54971,4.77898 -0.14189,-0.0132 -2.00037,-1.0799 -4.12996,-2.37016 z"
       id="path3240"
       inkscape:connector-curvature="0" />
    <path
       style="opacity:1;fill:#092543;fill-opacity:1;fill-rule:nonzero;stroke:none;stroke-width:3.36884022;stroke-miterlimit:4;stroke-dasharray:none;stroke-opacity:1"
       d="m -468.2824,177.61 c -3.42574,-4.02096 -10.25205,-14.57529 -10.3106,-15.94147 -0.0179,-0.41828 -0.32254,-0.76051 -0.67692,-0.76051 -0.35438,0 -0.47392,-0.27573 -0.26565,-0.61273 0.20828,-0.337 -0.0478,-0.77636 -0.56902,-0.97639 -0.52124,-0.20002 -0.8078,-0.59005 -0.63681,-0.86672 0.171,-0.27665 -0.18904,-0.864 -0.80007,-1.30519 -3.87599,-2.79858 -8.08227,-10.55365 -8.85016,-16.31693 -0.20064,-1.50585 -0.54039,-3.96994 -0.75499,-5.47579 -0.2146,-1.50585 -0.41807,-3.69618 -0.45214,-4.86738 -0.0724,-2.48886 -0.67,-2.24642 17.23213,-6.99128 14.39844,-3.81621 12.99125,-3.66323 12.53102,-1.36212 -0.67287,3.36439 -1.49938,18.97869 -1.90751,36.03662 -0.21617,9.03507 -0.57302,17.98897 -0.793,19.89754 l -0.39996,3.47011 z"
       id="path3242"
       inkscape:connector-curvature="0" />
    <path
       style="opacity:1;fill:#092543;fill-opacity:1;fill-rule:nonzero;stroke:none;stroke-width:3.36884022;stroke-miterlimit:4;stroke-dasharray:none;stroke-opacity:1"
       d="m -451.18177,219.48608 c -2.38797,-15.16563 -4.48204,-30.63518 -4.18695,-30.93024 0.15944,-0.15947 2.11935,0.56618 4.35535,1.61253 3.0294,1.41763 3.9921,2.15683 3.7776,2.90057 -0.15831,0.54896 -0.64187,2.23015 -1.07457,3.736 -0.53811,1.87264 -0.7899,7.09594 -0.79675,16.52799 -0.005,7.58454 -0.17756,13.95801 -0.38234,14.16322 -0.20478,0.20524 -0.96634,-3.39928 -1.69234,-8.01007 z"
       id="path3244"
       inkscape:connector-curvature="0" />
    <path
       style="opacity:1;fill:#092543;fill-opacity:1;fill-rule:nonzero;stroke:none;stroke-width:3.36884022;stroke-miterlimit:4;stroke-dasharray:none;stroke-opacity:1"
       d="m -442.3274,223.26189 c -0.21817,-2.33725 -0.57774,-9.9737 -0.79904,-16.96992 l -0.40237,-12.72037 6.18009,3.27263 6.18009,3.27263 -0.0829,10.05618 c -0.0456,5.53087 -0.19633,9.50856 -0.33501,8.8393 -0.13868,-0.66926 -0.71743,-4.44391 -1.28609,-8.38814 -0.56867,-3.94422 -1.30773,-7.22971 -1.64237,-7.30107 -0.33463,-0.0714 -0.75146,1.10228 -0.92628,2.60813 -0.26477,2.2805 -0.39867,2.5092 -0.80153,1.36896 -0.26602,-0.75293 -0.71725,-1.36896 -1.00275,-1.36896 -0.61522,0 -0.81367,0.9067 -2.46356,11.25583 -1.6578,10.39868 -2.11557,11.46077 -2.61832,6.0748 z"
       id="path3246"
       inkscape:connector-curvature="0" />
    <path
       style="opacity:1;fill:#092543;fill-opacity:1;fill-rule:nonzero;stroke:none;stroke-width:0.84221005;stroke-miterlimit:4;stroke-dasharray:none;stroke-opacity:1"
       d="m -512.02474,132.90282 c -0.0474,-0.0768 0.0829,-1.18904 0.28975,-2.47171 0.20681,-1.28267 0.58432,-4.65936 0.83892,-7.50374 0.68138,-7.6123 1.09449,-10.62223 1.60578,-11.69969 0.5775,-1.217 0.94229,-0.74988 2.05294,2.62885 1.42745,4.34247 3.30877,12.32736 3.57154,15.15869 0.0867,0.93427 0.0627,1.10133 -0.19147,1.33136 -0.27448,0.24839 -7.41936,2.69581 -7.87004,2.69581 -0.11614,0 -0.24998,-0.0628 -0.29742,-0.13957 z"
       id="path3248"
       inkscape:connector-curvature="0" />
    <path
       style="opacity:1;fill:#092543;fill-opacity:1;fill-rule:nonzero;stroke:none;stroke-width:0.84221005;stroke-miterlimit:4;stroke-dasharray:none;stroke-opacity:1"
       d="m -498.19604,144.82706 c -0.3111,-0.1556 -0.61823,-0.53959 -0.94251,-1.17837 -0.66999,-1.31982 -1.23758,-2.62475 -1.32007,-3.03498 -0.22697,-1.12877 -0.43124,-2.04568 -0.77184,-3.46446 -1.50427,-6.2662 -1.47452,-6.11523 -1.24666,-6.32708 0.0987,-0.0918 0.57297,-0.25067 1.054,-0.35314 0.48104,-0.1025 0.87461,-0.2404 0.87461,-0.30644 0,-0.0661 0.17112,-0.0874 0.38026,-0.0474 0.2312,0.0442 0.38027,0.003 0.38027,-0.10612 0,-0.0983 0.0551,-0.14476 0.12247,-0.10314 0.0674,0.0417 0.35827,0.0146 0.64645,-0.0599 1.16893,-0.30242 4.89459,-1.2147 4.96079,-1.2147 0.0391,0 -0.0593,0.18822 -0.21867,0.41828 -0.17227,0.24876 -0.36255,0.94236 -0.46943,1.71119 -0.20439,1.4701 -0.74263,5.13768 -0.93756,6.38844 -0.0717,0.46011 -0.2509,1.48683 -0.3982,2.28158 -0.1473,0.79476 -0.27134,1.68458 -0.27564,1.97737 -0.004,0.29281 -0.0715,0.5783 -0.1494,0.63439 -0.0779,0.0561 -0.15475,0.37375 -0.17085,0.70583 -0.0161,0.3321 -0.0756,0.67871 -0.13216,0.77025 -0.0566,0.0916 -0.15245,0.45839 -0.21306,0.81524 -0.12654,0.74501 -0.42137,0.86899 -1.1728,0.49315 z"
       id="path3250"
       inkscape:connector-curvature="0" />
    <path
       style="opacity:1;fill:#092543;fill-opacity:1;fill-rule:nonzero;stroke:none;stroke-width:0.29776621;stroke-miterlimit:4;stroke-dasharray:none;stroke-opacity:1"
       d="m -512.76549,135.24327 c -0.24178,-0.19663 -0.68914,-0.58951 -0.95907,-0.84227 -0.14074,-0.13179 -0.15007,-0.16222 -0.10252,-0.33443 0.066,-0.23898 0.29526,-0.51549 0.42741,-0.51549 0.0554,0 0.22311,-0.0482 0.37263,-0.10713 0.14951,-0.059 0.41056,-0.1134 0.5801,-0.12102 l 0.30825,-0.0138 0.0153,0.18822 c 0.008,0.10354 -0.0238,0.45443 -0.0715,0.77978 -0.0477,0.32534 -0.0997,0.68834 -0.11545,0.80667 -0.0284,0.21328 -0.0984,0.34954 -0.1794,0.34954 -0.0231,0 -0.14724,-0.0855 -0.27575,-0.19003 z"
       id="path3252"
       inkscape:connector-curvature="0" />
    <path
       style="opacity:1;fill:#092543;fill-opacity:1;fill-rule:nonzero;stroke:none;stroke-width:0.29776621;stroke-miterlimit:4;stroke-dasharray:none;stroke-opacity:1"
       d="m -512.32584,135.33918 c 5.3e-4,-0.0222 0.0386,-0.24603 0.0844,-0.49744 0.0458,-0.25141 0.0965,-0.70514 0.11258,-1.00833 l 0.0292,-0.5512 h -0.20991 c -0.11545,0 -0.35414,0.0392 -0.53043,0.0871 -0.539,0.14655 -0.61142,0.14425 -0.32052,-0.0103 0.45532,-0.24175 0.65093,-0.48496 0.92007,-1.14404 l 0.12424,-0.30424 -0.0327,0.47091 c -0.042,0.60396 0.0173,0.69371 0.43333,0.65585 0.15178,-0.0138 0.31227,-0.0282 0.35663,-0.0321 0.0444,-0.004 0.11092,-0.0308 0.14789,-0.06 0.037,-0.0292 0.0672,-0.035 0.0672,-0.013 0,0.022 0.0302,0.0156 0.0672,-0.014 0.0778,-0.0627 0.4121,-0.14652 0.51089,-0.12814 0.037,0.007 0.0672,-0.008 0.0672,-0.0343 0,-0.0257 0.0733,-0.0361 0.16286,-0.023 0.15983,0.0236 0.15664,0.0275 -0.17146,0.21926 -0.44139,0.25789 -0.99304,0.77446 -1.05919,0.99182 -0.0287,0.0943 -0.0676,0.30461 -0.0865,0.46728 -0.0455,0.39243 -0.21111,0.72384 -0.42885,0.85841 -0.18993,0.1174 -0.24591,0.13325 -0.2442,0.0692 z"
       id="path3254"
       inkscape:connector-curvature="0" />
    <path
       style="opacity:1;fill:#092543;fill-opacity:1;fill-rule:nonzero;stroke:none;stroke-width:0.29776621;stroke-miterlimit:4;stroke-dasharray:none;stroke-opacity:1"
       d="m -500.68266,140.12378 c -0.0848,-0.25792 -0.15154,-0.51131 -0.14835,-0.56306 0.003,-0.0517 -0.0133,-0.0941 -0.0367,-0.0941 -0.0537,0 -0.23698,-0.66972 -0.2425,-0.88617 -0.002,-0.0894 -0.0257,-0.16248 -0.052,-0.16248 -0.0822,0 -0.19966,-0.47009 -0.19671,-0.78743 0.002,-0.21741 -0.0193,-0.31189 -0.0752,-0.33332 -0.10919,-0.0419 -0.20611,-0.43564 -0.19637,-0.79769 0.007,-0.2426 -0.0124,-0.31975 -0.0922,-0.37645 -0.13512,-0.096 -0.18455,-0.31711 -0.17523,-0.78389 0.007,-0.35176 -0.002,-0.38989 -0.0958,-0.38989 -0.12712,0 -0.18662,-0.25156 -0.17327,-0.73247 0.008,-0.29059 -0.004,-0.33253 -0.10103,-0.35795 -0.0606,-0.0159 -0.11202,-0.0735 -0.11428,-0.12798 -0.002,-0.0545 -0.0157,-0.14753 -0.0299,-0.20669 -0.0142,-0.0592 -0.0231,-0.23572 -0.0199,-0.39238 0.005,-0.2223 -0.0176,-0.30496 -0.10092,-0.37645 -0.11608,-0.0996 -0.17578,-0.37632 -0.16768,-0.77727 0.004,-0.1901 -0.0149,-0.25545 -0.0731,-0.25545 -0.0685,0 -0.12305,-0.20032 -0.16838,-0.61844 -0.003,-0.0296 0.0374,-0.11107 0.0901,-0.18108 0.0528,-0.07 0.084,-0.14674 0.0693,-0.17044 -0.0367,-0.0594 0.34735,-0.19397 0.58894,-0.20641 0.0718,-0.004 0.16258,-0.037 0.20167,-0.074 0.0391,-0.037 0.11946,-0.0744 0.17861,-0.0832 0.0592,-0.009 0.14386,-0.0292 0.18822,-0.0452 0.0444,-0.0161 0.19358,-0.0376 0.33159,-0.0478 0.13801,-0.0103 0.34844,-0.0684 0.46763,-0.12917 0.12334,-0.0629 0.2302,-0.0887 0.24802,-0.0599 0.0494,0.0799 -0.12869,0.15029 -0.89621,0.35436 -0.39363,0.10467 -0.80039,0.23162 -0.90391,0.28212 -0.351,0.17124 -0.33885,0.25406 0.6446,4.39402 0.95613,4.02495 1.26513,5.39504 1.22565,5.43451 -0.0114,0.0114 -0.0901,-0.19031 -0.17483,-0.44825 z"
       id="path3256"
       inkscape:connector-curvature="0" />
    <path
       style="opacity:1;fill:#092543;fill-opacity:1;fill-rule:nonzero;stroke:none;stroke-width:0.29776621;stroke-miterlimit:4;stroke-dasharray:none;stroke-opacity:1"
       d="m -497.79634,145.45349 c -0.0977,-0.0481 -0.30941,-0.23318 -0.47055,-0.41127 -0.30287,-0.33467 -0.38344,-0.4926 -0.17199,-0.33713 0.0666,0.049 0.2541,0.15161 0.41677,0.22818 0.75547,0.35552 0.87286,0.29054 1.02275,-0.56621 0.033,-0.18857 0.10693,-0.49107 0.16432,-0.6722 0.0574,-0.18116 0.13875,-0.5855 0.18081,-0.8985 0.0421,-0.31303 0.12396,-0.66392 0.182,-0.77978 0.0699,-0.13946 0.12599,-0.42381 0.16607,-0.84132 0.0333,-0.34687 0.11071,-0.90347 0.17202,-1.23688 0.0613,-0.33342 0.13385,-0.75141 0.1612,-0.92887 0.0274,-0.17748 0.0865,-0.51628 0.13147,-0.7529 0.114,-0.59999 0.34757,-2.07097 0.40561,-2.55442 0.0266,-0.22182 0.0845,-0.59692 0.12858,-0.83354 0.0441,-0.23664 0.11712,-0.73274 0.1623,-1.10244 0.0452,-0.36973 0.10565,-0.79322 0.13437,-0.94112 0.0287,-0.14788 0.12803,-0.81338 0.22068,-1.47886 0.18335,-1.31707 0.33784,-1.94818 0.57034,-2.33008 0.1608,-0.26411 0.28457,-0.35711 0.28457,-0.21384 0,0.0813 -1.07238,6.15691 -1.56434,8.86275 -0.54668,3.00685 -1.25099,6.35381 -1.53006,7.27107 -0.18141,0.59623 -0.36103,0.71741 -0.76692,0.51736 z"
       id="path3258"
       inkscape:connector-curvature="0" />
  </g>
</svg>
