<?xml version="1.0" encoding="UTF-8" standalone="no"?>
<!-- Created with Inkscape (http://www.inkscape.org/) -->

<svg
   xmlns:dc="http://purl.org/dc/elements/1.1/"
   xmlns:cc="http://creativecommons.org/ns#"
   xmlns:rdf="http://www.w3.org/1999/02/22-rdf-syntax-ns#"
   xmlns:svg="http://www.w3.org/2000/svg"
   xmlns="http://www.w3.org/2000/svg"
   xmlns:sodipodi="http://sodipodi.sourceforge.net/DTD/sodipodi-0.dtd"
   xmlns:inkscape="http://www.inkscape.org/namespaces/inkscape"
   width="378.8829mm"
   height="264.84793mm"
   viewBox="0 0 378.8829 264.84793"
   version="1.1"
   id="svg8375"
   inkscape:version="0.92.4 (5da689c313, 2019-01-14)"
   sodipodi:docname="parallax7.svg">
  <defs
     id="defs8369" />
  <sodipodi:namedview
     id="base"
     pagecolor="#ffffff"
     bordercolor="#666666"
     borderopacity="1.0"
     inkscape:pageopacity="0.0"
     inkscape:pageshadow="2"
     inkscape:zoom="0.35"
     inkscape:cx="917.70285"
     inkscape:cy="109.57144"
     inkscape:document-units="mm"
     inkscape:current-layer="layer1"
     showgrid="false"
     inkscape:window-width="1858"
     inkscape:window-height="1057"
     inkscape:window-x="54"
     inkscape:window-y="-8"
     inkscape:window-maximized="1" />
  <metadata
     id="metadata8372">
    <rdf:RDF>
      <cc:Work
         rdf:about="">
        <dc:format>image/svg+xml</dc:format>
        <dc:type
           rdf:resource="http://purl.org/dc/dcmitype/StillImage" />
        <dc:title></dc:title>
      </cc:Work>
    </rdf:RDF>
  </metadata>
  <g
     inkscape:label="Calque 1"
     inkscape:groupmode="layer"
     id="layer1"
     transform="translate(402.31482,147.49999)">
    <path
       style="opacity:1;fill:#0e1b3c;fill-opacity:1;fill-rule:nonzero;stroke:none;stroke-width:2.1969223;stroke-miterlimit:4;stroke-dasharray:none;stroke-opacity:1"
       d="m -402.30882,117.34282 c 0.004,-16.5717 0.0657,-0.009 0.004,-16.5717 0.082,-0.0124 -0.01,-23.679052 -0.01,-23.679052 2.44303,-4.732952 13.86237,5.260493 16.74238,1.530839 1.76016,-2.279441 -0.31561,-1.577261 1.46716,-2.860701 2.7558,-1.983934 3.40859,2.835613 6.94967,-0.189715 0.56836,-0.485584 0.45774,-4.688773 2.52605,-6.228633 1.6549,-1.232079 -0.94884,7.240321 0.53631,8.089019 1.32296,0.75601 4.1112,-1.561126 5.52171,-3.865006 2.13359,-3.484952 0.76332,-12.773031 1.68666,-13.619158 1.58866,-1.455814 0.62514,14.197711 1.45049,13.441863 1.1492,-1.052409 2.41764,-2.544778 2.79463,-2.797842 3.87212,-2.599222 3.69328,0.541634 6.18826,-2.061752 5.42939,-4.300144 5.3435,-28.159287 8.75351,-30.501278 0.59458,0.5593 0.47977,31.514156 0.73891,31.25501 3.71256,1.681969 6.05951,3.190266 10.66137,1.297672 7.63943,-3.141847 4.88381,-25.466905 7.71443,-28.189457 2.86564,3.324694 0.0922,6.046057 1.74871,11.282013 1.68071,5.312408 1.99578,10.978134 1.89108,13.336292 -0.18515,4.170473 0.70418,7.959719 0.9566,8.431376 1.70742,3.190335 2.26814,-2.373262 1.5531,-15.410032 -0.54348,-9.908661 -0.54469,-13.035968 -0.005,-13.575376 0.67468,-0.674688 1.13099,2.057733 1.63759,9.806053 0.25681,3.928031 0.83796,9.19516 1.29143,11.704736 0.45348,2.509575 0.93388,5.266785 1.06755,6.127136 l 0.24306,1.564267 2.61232,0.481592 c 1.43678,0.264877 4.40165,1.301784 6.58859,2.304243 4.18797,1.9197 6.87492,2.32415 9.48729,1.428075 2.47096,-0.847569 6.40806,-1.096912 11.50233,-0.728461 4.13967,0.29941 6.5156,0.240001 11.70474,-0.292659 3.58091,-0.367577 6.907,-0.665014 7.3913,-0.660971 0.48431,0.004 1.73414,0.628393 2.7774,1.387443 2.6874,1.955284 3.85027,2.485104 8.03959,3.662982 4.46405,1.25512 6.30482,2.155282 8.47801,4.145846 0.90576,0.829643 2.58125,1.97902 3.7233,2.554174 2.15211,1.083823 4.90818,4.092115 5.89688,6.436515 0.3104,0.73602 1.94544,2.35786 4.06445,4.031647 5.20971,4.11509 6.45299,4.84986 8.64577,5.10956 1.70635,0.20209 2.11666,0.10245 3.14654,-0.76414 2.12095,-1.78466 4.27067,-2.61822 8.30832,-3.22156 2.18224,-0.32609 5.12826,-0.9774 6.54672,-1.44735 3.77583,-1.250987 5.4773,-1.209737 7.48502,0.18145 0.91541,0.63431 2.26733,1.97341 3.00425,2.97578 1.37599,1.8716 2.2771,2.76167 6.8691,5.92924 l 2.66582,1.83888 8.0525,4.06434 154.082958,-0.20233 3.69406,-262.37368 v 264.84792 l -378.877508,-0.005 z"
       id="path8358"
       inkscape:connector-curvature="0"
       sodipodi:nodetypes="ccsssssssssscccscsscscsccccssssccssccsssccscsccccccc" />
  </g>
</svg>
