<?xml version="1.0" encoding="UTF-8" standalone="no"?>
<!-- Created with Inkscape (http://www.inkscape.org/) -->

<svg
   xmlns:dc="http://purl.org/dc/elements/1.1/"
   xmlns:cc="http://creativecommons.org/ns#"
   xmlns:rdf="http://www.w3.org/1999/02/22-rdf-syntax-ns#"
   xmlns:svg="http://www.w3.org/2000/svg"
   xmlns="http://www.w3.org/2000/svg"
   xmlns:sodipodi="http://sodipodi.sourceforge.net/DTD/sodipodi-0.dtd"
   xmlns:inkscape="http://www.inkscape.org/namespaces/inkscape"
   width="378.91733mm"
   height="265.02902mm"
   viewBox="0 0 378.91733 265.02902"
   version="1.1"
   id="svg12773"
   inkscape:version="0.92.4 (5da689c313, 2019-01-14)"
   sodipodi:docname="parallax8.svg">
  <defs
     id="defs12767" />
  <sodipodi:namedview
     id="base"
     pagecolor="#ffffff"
     bordercolor="#666666"
     borderopacity="1.0"
     inkscape:pageopacity="0.0"
     inkscape:pageshadow="2"
     inkscape:zoom="0.49497475"
     inkscape:cx="769.28179"
     inkscape:cy="717.95973"
     inkscape:document-units="mm"
     inkscape:current-layer="layer1"
     showgrid="false"
     inkscape:window-width="1858"
     inkscape:window-height="1057"
     inkscape:window-x="54"
     inkscape:window-y="-8"
     inkscape:window-maximized="1" />
  <metadata
     id="metadata12770">
    <rdf:RDF>
      <cc:Work
         rdf:about="">
        <dc:format>image/svg+xml</dc:format>
        <dc:type
           rdf:resource="http://purl.org/dc/dcmitype/StillImage" />
        <dc:title></dc:title>
      </cc:Work>
    </rdf:RDF>
  </metadata>
  <g
     inkscape:label="Calque 1"
     inkscape:groupmode="layer"
     id="layer1"
     transform="translate(489.57175,-123.66413)">
    <path
       style="opacity:1;fill:#1a314c;fill-opacity:1;fill-rule:nonzero;stroke:none;stroke-width:2.1969223;stroke-miterlimit:4;stroke-dasharray:none;stroke-opacity:1"
       d="m -213.04312,345.36986 c -1.03208,-3.57276 2.83988,-15.84002 4.14634,-20.98865 0.44299,-1.74579 0.80817,-3.40062 0.81153,-3.6774 0.013,-1.06517 2.15188,-5.24994 2.68343,-5.24994 0.45987,0 0.51597,0.68638 0.31509,3.85417 -0.1344,2.11979 -0.76851,3.23155 -0.59073,4.06821 0.55758,0.68057 1.71484,2.96545 1.93884,4.13726 0.26318,1.37675 0.49646,10.45477 -0.19434,12.7809 -0.32276,1.0869 1.38951,48.2181 1.38951,48.2181 -23.42761,0.0111 0,0 -23.42761,0.0111 z"
       id="path8930"
       inkscape:connector-curvature="0"
       sodipodi:nodetypes="cscsccccscc" />
    <path
       style="opacity:1;fill:#1a314c;fill-opacity:1;fill-rule:nonzero;stroke:none;stroke-width:2.1969223;stroke-miterlimit:4;stroke-dasharray:none;stroke-opacity:1"
       d="m -225.97106,388.52352 c -3.59452,0.38343 -263.55539,-0.003 -263.55539,-0.003 l -0.0453,-6.91166 142.836,-8.11776 19.9374,-4.70385 5.00446,-2.1016 c 2.75245,-1.15588 6.74419,-3.22444 8.87053,-4.5968 2.12634,-1.37236 5.1159,-3.22843 6.64347,-4.12461 3.40967,-2.00034 3.90243,-2.42161 6.33052,-5.41202 4.21828,-5.19521 7.28392,-8.28583 9.93608,-10.017 1.52811,-0.99747 4.20676,-2.75196 5.95255,-3.89886 1.74579,-1.1469 5.00224,-3.78216 7.23654,-5.85612 2.46536,-2.28843 4.52295,-3.872 5.23394,-4.02816 1.21509,-0.26688 2.80519,0.31377 2.80519,1.02435 0,0.22406 0.47197,1.40505 1.04883,2.62442 l 1.04883,2.21703 -0.64879,2.9897 c -0.35684,1.64433 -1.09663,3.84616 -1.64398,4.89296 -0.54736,1.0468 -0.99453,2.39756 -0.99371,3.00169 0.002,1.58856 1.37082,3.60854 2.66441,3.93231 0.60688,0.1519 1.63906,0.60239 2.29374,1.0011 2.87826,1.7529 7.18922,0.17216 13.68164,-5.01674 2.06931,-1.65385 4.02531,-2.95635 4.34667,-2.89447 0.39517,0.0761 0.81546,1.2677 1.29848,3.68146 0.99376,4.96598 2.14358,6.27409 4.90559,5.58087 1.20182,-0.30164 2.20399,-1.36509 4.39708,-4.66594 2.67876,-4.03185 5.13491,-4.49107 7.86399,-1.47031 1.176,1.30171 1.39815,1.83979 1.39815,3.3867 v 1.83912 l 2.58345,-0.26468 c 1.42089,-0.14557 6.37707,-0.82155 6.89171,-1.01722 l 4.60589,-4.22429 c -1.24552,32.92228 -6.58937,32.88838 -12.92794,43.15366 z"
       id="path8926"
       inkscape:connector-curvature="0"
       sodipodi:nodetypes="cscccsssssscsscccscssscssscscsccc" />
    <path
       style="opacity:1;fill:#1a314c;fill-opacity:1;fill-rule:nonzero;stroke:none;stroke-width:2.1969223;stroke-miterlimit:4;stroke-dasharray:none;stroke-opacity:1"
       d="m -202.54345,388.51251 c -1.42269,-1.64325 -1.56802,-22.47238 -1.56802,-41.57996 0,-10.91564 0.15565,-19.08157 0.37137,-19.48175 0.20423,-0.37893 0.8183,-1.99396 1.19311,-3.47107 0.73737,-2.90595 1.39922,-4.12467 2.02867,-3.73564 0.2277,0.14071 0.49659,3.19135 0.62616,7.10329 0.17915,5.40944 0.3919,7.31036 1.0079,9.00623 0.56965,1.56822 0.0932,5.51474 0.88985,7.19147 0.87334,-0.0247 3.59087,2.70458 4.80904,-4.11115 -0.28038,5.18655 0.048,45.75704 0.0122,49.07557 -9.37019,0.003 0,0 -9.37019,0.003 z"
       id="path8932"
       inkscape:connector-curvature="0"
       sodipodi:nodetypes="cscsccccccc" />
    <path
       style="opacity:1;fill:#1a314c;fill-opacity:1;fill-rule:nonzero;stroke:none;stroke-width:2.1969223;stroke-miterlimit:4;stroke-dasharray:none;stroke-opacity:1"
       d="m -193.1732,388.5095 c -0.21008,-0.37148 -0.58505,-23.6253 -0.78801,-24.52863 -0.68199,-3.03523 -0.19389,-13.65658 0.17354,-17.97566 0.19495,-2.29135 0.36222,-4.7569 0.37171,-5.47901 0.01,-0.72211 0.16894,-1.2192 0.35428,-1.10466 0.18534,0.11454 0.58423,-0.25374 0.88643,-0.81841 0.73306,-1.36977 5.01111,-4.62961 5.71911,-4.35793 0.4364,0.16746 0.5969,-0.33047 0.72376,-2.24539 0.0897,-1.35332 0.0976,-0.6027 0.0177,1.66804 -0.0799,2.27074 -0.15666,7.62715 -0.17047,11.90312 -0.0175,5.37593 0.50231,7.63009 0.23945,6.97295 0.1329,4.79598 -0.4459,-0.0605 0.23098,5.56158 0.57221,4.75274 0.45532,5.55051 0.0369,6.56076 -0.56669,1.36811 0.63177,21.30727 0.70302,23.85094 l -8.49839,-0.008 z"
       id="path8934"
       inkscape:connector-curvature="0"
       sodipodi:nodetypes="ccccsccccccscccc" />
    <path
       style="opacity:1;fill:#1a314c;fill-opacity:1;fill-rule:nonzero;stroke:none;stroke-width:2.1969223;stroke-miterlimit:4;stroke-dasharray:none;stroke-opacity:1"
       d="m -184.67481,388.5172 c -1.09794,-2.62588 -1.13223,-37.75447 -1.35168,-47.27323 -0.0956,-4.14626 0.25866,-8.31889 0.34354,-9.8043 0.107,-1.23305 2.21914,7.16803 2.60032,7.62829 0.5433,0.65599 0.61659,0.46223 0.8408,-2.22281 0.13512,-1.61779 0.17142,-0.44179 0.0807,2.61335 -0.11935,4.01868 0.0103,6.48742 0.4685,8.92734 0.88331,4.70259 6.46547,39.83007 6.41863,40.13429 0,0 0,0 -9.4008,-0.003 z"
       id="path8936"
       inkscape:connector-curvature="0"
       sodipodi:nodetypes="cccccccsc" />
    <path
       style="opacity:1;fill:#1a314c;fill-opacity:1;fill-rule:nonzero;stroke:none;stroke-width:2.1969223;stroke-miterlimit:4;stroke-dasharray:none;stroke-opacity:1"
       d="m -181.85808,348.17725 c -1.51159,-3.66313 8.96093,-7.48099 9.5192,-13.08323 0.91427,-9.17439 1.47222,-11.70473 2.58099,-11.70473 0.61555,0 1.17776,1.64706 1.96286,5.75041 -0.11096,0.67 0.84458,3.75523 0.54338,3.87002 0.19449,1.0143 -1.14546,5.45225 -1.15666,7.1264 -0.004,0.53996 -0.008,-0.32898 -0.15726,0.77889 -0.11356,1.26821 -0.43183,3.12555 -0.43183,7.90558 0,4.78002 3.64424,39.69563 3.46943,39.69565 l -9.74604,0.004 z"
       id="path8938"
       inkscape:connector-curvature="0"
       sodipodi:nodetypes="ccsccccsccc" />
    <path
       style="opacity:1;fill:#1a314c;fill-opacity:1;fill-rule:nonzero;stroke:none;stroke-width:2.1969223;stroke-miterlimit:4;stroke-dasharray:none;stroke-opacity:1"
       d="m -165.52509,388.51905 c -0.13562,-0.51863 -3.64249,-18.42317 -4.09787,-33.86208 -0.34782,-11.79258 2.29267,-22.22459 2.39938,-21.90859 0.26601,0.78773 2.27108,10.60953 2.49462,9.63585 1.5393,-3.5078 0.57216,0.27819 0.47784,3.22421 -0.1723,5.38176 4.32917,41.45932 4.40629,42.91624 0,0 -5.21176,-0.003 -5.68026,-0.006 z"
       id="path8940"
       inkscape:connector-curvature="0"
       sodipodi:nodetypes="cscccsc" />
    <path
       style="opacity:1;fill:#1a314c;fill-opacity:1;fill-rule:nonzero;stroke:none;stroke-width:2.1969223;stroke-miterlimit:4;stroke-dasharray:none;stroke-opacity:1"
       d="m -159.84483,388.52468 c -1.18554,-1.26197 -3.54729,-21.0836 -3.5275,-22.84974 -2.87449,-2.35353 -1.35663,-23.29071 -0.64926,-24.49596 -0.18217,-1.65933 10.16439,4.59373 11.20092,5.1588 0.68188,0.37175 2.14627,1.34257 3.25416,2.15739 1.10789,0.81482 2.10206,1.51348 2.27997,1.57279 0.17793,0.0593 3.44567,37.10366 2.99093,38.45021 -15.54922,0.007 0,0 -15.54922,0.007 z"
       id="path8942"
       inkscape:connector-curvature="0"
       sodipodi:nodetypes="ccccsccc" />
    <path
       style="opacity:1;fill:#1a314c;fill-opacity:1;fill-rule:nonzero;stroke:none;stroke-width:2.1969223;stroke-miterlimit:4;stroke-dasharray:none;stroke-opacity:1"
       d="m -144.29561,388.51817 c 0.0172,-1.81853 -3.18029,-38.31298 -3.0027,-38.4212 0.15668,-0.0955 5.47653,1.8598 5.8766,1.8598 0.40008,0 30.60716,-13.82367 30.71723,-14.09645 0.0421,50.65973 0,0 0.0421,50.65973 -33.6332,-0.003 0,0 -33.6332,-0.003 z"
       id="path8944"
       inkscape:connector-curvature="0"
       sodipodi:nodetypes="cssccc" />
    <path
       style="opacity:1;fill:#1a314c;fill-opacity:1;fill-rule:nonzero;stroke:none;stroke-width:2.1969223;stroke-miterlimit:4;stroke-dasharray:none;stroke-opacity:1"
       d="m -489.54576,123.67213 c 17.89169,-0.008 0,0 17.89169,-0.008 -1.51999,15.24955 2.39794,43.66019 -4.58942,61.18109 -0.34029,0.80294 -2.31819,4.763 -4.39532,8.80014 l -3.77661,7.34026 -0.002,3.17416 c -0.002,2.33147 0.25265,3.91153 0.95751,5.95156 0.63836,1.84757 0.96872,3.70723 0.98678,5.55479 0.024,2.45495 -0.11973,3.01533 -1.23802,4.82685 -2.2179,3.59279 -2.32292,4.68673 -0.86223,8.98088 l 1.26668,3.72376 -0.86869,1.79447 c -0.86318,1.78306 -5.32949,6.0075 -5.32753,5.30695 0.0298,-10.64948 0,0 -0.0355,-17.86577 -0.007,-98.76105 0,0 -0.007,-98.76105 z"
       id="path8946"
       inkscape:connector-curvature="0"
       sodipodi:nodetypes="cccscsssssccscc" />
    <path
       style="opacity:1;fill:#1a314c;fill-opacity:1;fill-rule:nonzero;stroke:none;stroke-width:2.1969223;stroke-miterlimit:4;stroke-dasharray:none;stroke-opacity:1"
       d="m -453.25109,241.21389 c -0.0178,-0.13323 -0.89769,-3.70417 -1.95529,-7.93541 -3.58851,-14.35676 -3.45118,-13.54539 -3.24946,-19.19952 0.33412,-9.36494 0.18188,-17.00757 -0.41493,-20.83046 -0.59627,-3.81941 -0.50074,-6.09829 0.45002,-10.73572 0.37878,-1.84751 0.34417,-2.55533 -0.21341,-4.36447 -1.31253,-4.25868 -1.81315,-7.40372 -2.04898,-12.87214 -0.37132,-8.6103 -12.33729,-29.16108 -11.47374,-32.1414 0.15315,-9.46712 0.15315,-9.46712 0.15315,-9.46712 26.12791,0.009 0.0165,0.0413 26.12791,0.009 0.12097,4.2547 0.35376,31.63024 0.52933,31.08467 0.48607,-1.51034 0.001,4.86073 -0.66423,8.72896 -1.18468,6.88607 -2.30701,14.68829 -2.88225,20.03692 -1.08304,10.07001 -1.21633,13.09594 -1.21633,27.61388 0,14.91481 -0.11251,16.88899 -1.39124,24.40996 -0.45666,2.68593 -1.63779,6.50645 -1.75055,5.66243 z"
       id="path8948"
       inkscape:connector-curvature="0"
       sodipodi:nodetypes="csssssscccscsssc" />
    <path
       style="opacity:1;fill:#1a314c;fill-opacity:1;fill-rule:nonzero;stroke:none;stroke-width:1.09846115;stroke-miterlimit:4;stroke-dasharray:none;stroke-opacity:1"
       d="m -424.24475,203.46356 c -0.1919,-0.46794 -0.90603,-3.51139 -1.23358,-5.25721 -0.16376,-0.87289 -0.47136,-2.39054 -0.68353,-3.37255 -0.21218,-0.98201 -0.53186,-2.49965 -0.71041,-3.37255 -0.17854,-0.87289 -0.40747,-1.67189 -0.50871,-1.77555 -0.10125,-0.10365 -0.18409,-0.39104 -0.18409,-0.63862 0,-0.73303 -1.54888,-5.2112 -2.24788,-6.49916 -0.47916,-0.88287 -1.9724,-3.08897 -2.09073,-3.08884 -0.0688,9e-5 -0.0656,-1.00424 0.007,-2.23183 0.0727,-1.22759 0.13963,-2.98494 0.14878,-3.90522 0.013,-1.31108 0.11326,-1.86928 0.46301,-2.57901 0.38095,-0.77303 0.44637,-1.22558 0.44637,-3.08801 0,-1.62119 -10.19682,-25.90408 -10.41789,-26.21552 7.16933,-17.76721 0,0 7.16933,-17.76721 11.83411,0.0536 0,0 11.83411,0.0536 0.0444,0.19095 -1.66382,51.96378 -1.76623,51.96378 -0.10242,0 -0.45165,0.57348 -0.77608,1.2744 -0.87064,1.88101 -1.10345,5.10775 -0.7941,11.00622 0.12931,2.46561 0.31837,5.06321 0.42013,5.77244 0.10177,0.70923 0.31425,2.53933 0.47218,4.0669 0.15793,1.52757 0.38917,3.27327 0.51388,3.87933 0.22786,1.10744 0.18389,2.37337 -0.0616,1.77465 z"
       id="path8950"
       inkscape:connector-curvature="0"
       sodipodi:nodetypes="cssccsccccsscccsssscscc" />
    <path
       style="opacity:1;fill:#1a314c;fill-opacity:1;fill-rule:nonzero;stroke:none;stroke-width:1.09846115;stroke-miterlimit:4;stroke-dasharray:none;stroke-opacity:1"
       d="m -422.25288,123.72584 7.44902,-0.0611 c 0,0 0.2702,27.55023 0.71473,33.40681 l -3.50208,10.81456 c -0.52797,1.53234 -2.09863,2.97531 -3.70384,4.67347 l -2.72813,3.1314 c 0.5336,0.47157 -1.0224,-35.3569 1.7703,-51.96511 z"
       id="path8952"
       inkscape:connector-curvature="0"
       sodipodi:nodetypes="csccccc" />
    <path
       style="opacity:1;fill:#1a314c;fill-opacity:1;fill-rule:nonzero;stroke:none;stroke-width:1.09846115;stroke-miterlimit:4;stroke-dasharray:none;stroke-opacity:1"
       d="m -445.96248,145.37873 c -0.56183,-5.9759 -0.76567,-17.54081 0.0453,-21.69339 11.83017,-0.0131 0.0413,-0.008 11.83017,-0.0131 -2.44359,9.5095 -8.75386,21.10308 -8.75498,21.32332 -7.9e-4,0.13303 -0.14044,0.50888 -0.3106,0.83522 -0.17017,0.32634 -2.10362,9.17485 -2.19461,9.55773 -0.11557,0.48634 -0.60138,-8.05262 -0.6153,-10.00982 z"
       id="path8954"
       inkscape:connector-curvature="0"
       sodipodi:nodetypes="ccccssc" />
    <path
       style="opacity:1;fill:#1a314c;fill-opacity:1;fill-rule:nonzero;stroke:none;stroke-width:1.09846115;stroke-miterlimit:4;stroke-dasharray:none;stroke-opacity:1"
       d="m -407.46518,166.40746 c -1.06808,-0.70743 -1.4993,-1.26942 -2.25858,-2.94345 -1.32073,-2.91191 -2.04078,-5.14268 -4.36537,-6.39249 -0.71473,-33.40681 0,0 -0.71473,-33.40681 9.3522,0.0242 0,0 9.3522,0.0242 0.19629,12.55767 1.98177,17.87134 1.22597,31.01385 -0.38382,1.93134 -1.28898,3.70097 -3.07301,6.10793 -0.61059,0.82378 -0.65556,0.98466 -0.58222,2.08304 0.0552,0.82719 0.27425,1.57837 0.71792,2.46233 0.35113,0.69961 0.61349,1.34603 0.583,1.43648 -0.0305,0.0905 -0.42881,-0.0829 -0.88518,-0.38511 z"
       id="path8956"
       inkscape:connector-curvature="0"
       sodipodi:nodetypes="ccccccscccc" />
    <path
       style="opacity:1;fill:#1a314c;fill-opacity:1;fill-rule:nonzero;stroke:none;stroke-width:1.09846115;stroke-miterlimit:4;stroke-dasharray:none;stroke-opacity:1"
       d="m -405.20583,156.54653 c 0.0564,-0.98201 -0.31987,-31.43914 -0.24583,-32.85759 4.95354,-0.0168 0,0 4.95354,-0.0168 0.22793,1.32109 -1.3234,25.37092 -1.83486,26.70151 -1.0675,2.77717 -2.85575,8.22974 -2.87285,6.17287 z"
       id="path8958"
       inkscape:connector-curvature="0"
       sodipodi:nodetypes="cccsc" />
    <path
       style="opacity:1;fill:#1a314c;fill-opacity:1;fill-rule:nonzero;stroke:none;stroke-width:1.09846115;stroke-miterlimit:4;stroke-dasharray:none;stroke-opacity:1"
       d="m -392.35737,155.84187 c -0.11102,-0.17963 0.0398,-1.52596 0.67678,-6.04154 0.14206,-1.00715 -0.41092,-4.91555 -0.75654,-5.34713 -0.0915,-0.11421 -0.23136,-0.52012 -0.31087,-0.90201 -0.0795,-0.38189 -0.31301,-1.06886 -0.51887,-1.5266 -0.20587,-0.45774 -0.37431,-0.92642 -0.37431,-1.04152 0,-0.1151 -2.34329,-6.78312 -7.69395,-7.83314 0,0 0.32381,-8.01225 0.83701,-9.47778 l 11.87374,-0.001 c 4.56434,6.29364 0.99783,0.95799 8.57347,11.16519 l -8.23426,18.36146 c -1.738,1.75249 -3.2611,3.60435 -4.0722,2.64428 z"
       id="path8960"
       inkscape:connector-curvature="0"
       sodipodi:nodetypes="cccccssccccc" />
    <path
       style="opacity:1;fill:#1a314c;fill-opacity:1;fill-rule:nonzero;stroke:none;stroke-width:1.09846115;stroke-miterlimit:4;stroke-dasharray:none;stroke-opacity:1"
       d="m -372.50805,153.48031 c -0.16647,-0.32192 -0.30267,-0.79962 -0.30267,-1.06157 0,-0.52733 -0.78444,-2.10728 -1.4534,-2.92731 -0.2372,-0.29075 -0.55911,-0.71482 -0.71538,-0.94238 -0.15626,-0.22756 -0.84793,-0.4215 -0.93071,-0.82509 -1.06151,-10.14178 -1.57771,-20.85863 -1.59899,-24.05424 9.79085,2.4e-4 0,0 9.79085,2.4e-4 4.10699,1.94133 0,0 4.10699,1.94133 0.56816,1.16931 -5.4298,7.86937 -5.4295,8.16942 2.6e-4,0.30006 0.25749,1.57221 0.57156,2.827 0.75594,3.0202 0.86932,4.15089 0.60676,6.05075 -0.12063,0.87289 -0.33074,2.65836 -0.4669,3.96771 -0.13617,1.30934 -0.34362,2.55917 -0.461,2.77739 -0.11738,0.21822 -0.512,1.00867 -0.87694,1.75654 -0.72862,1.49318 -1.82765,2.90552 -2.26097,2.90552 -0.15236,0 -0.41323,-0.26339 -0.5797,-0.58531 z"
       id="path8962"
       inkscape:connector-curvature="0"
       sodipodi:nodetypes="cscccccccsscccsc" />
    <path
       style="opacity:1;fill:#1a314c;fill-opacity:1;fill-rule:nonzero;stroke:none;stroke-width:1.09846115;stroke-miterlimit:4;stroke-dasharray:none;stroke-opacity:1"
       d="m -377.61905,139.13347 c -0.0796,-0.52029 -0.32474,-1.34117 -0.54478,-1.82418 -0.22003,-0.48301 -0.40007,-0.95097 -0.40007,-1.0399 0,-0.20356 -1.21425,-1.33991 -1.48701,-1.43326 -0.13264,-0.0454 -9.49577,-11.15306 -8.63182,-11.15365 l 11.20325,-0.008 c 0.74237,3.63756 0.27403,4.10018 0.47737,4.58419 0.21919,0.52173 1.34088,17.9867 1.18337,19.59277 -0.0654,0.66715 -1.66126,-7.80938 -1.80031,-8.7183 z"
       id="path8964"
       inkscape:connector-curvature="0"
       sodipodi:nodetypes="csscscssc" />
    <path
       style="opacity:1;fill:#1a314c;fill-opacity:1;fill-rule:nonzero;stroke:none;stroke-width:1.09846115;stroke-miterlimit:4;stroke-dasharray:none;stroke-opacity:1"
       d="m -355.19314,147.5189 c -0.074,-0.27278 -0.2322,-1.25479 -0.3515,-2.18224 -0.1193,-0.92745 -0.29831,-1.86482 -0.3978,-2.08305 -0.0995,-0.21822 -0.28336,-1.04368 -0.40859,-1.83436 -0.12524,-0.79067 -0.30896,-1.48781 -0.40828,-1.54919 -0.0993,-0.0614 -0.18058,-0.26328 -0.18058,-0.44865 0,-0.37089 -12.35901,-15.70545 -10.74996,-15.74469 13.65932,-0.007 0,0 13.65932,-0.007 1.09567,3.6883 -0.24798,12.66983 -0.56282,17.46497 -0.42689,6.50178 -0.46315,6.88771 -0.59979,6.38416 z"
       id="path8966"
       inkscape:connector-curvature="0"
       sodipodi:nodetypes="ccssssccsc" />
    <path
       style="opacity:1;fill:#1a314c;fill-opacity:1;fill-rule:nonzero;stroke:none;stroke-width:1.09846115;stroke-miterlimit:4;stroke-dasharray:none;stroke-opacity:1"
       d="m -347.71497,170.79548 c -1.65109,-0.36145 -2.60086,-1.44665 -3.0958,-3.53724 -0.12915,-0.54556 -0.30207,-1.0812 -0.38426,-1.19031 -0.0822,-0.10911 -0.25527,-0.91257 -0.38463,-1.78547 -0.12936,-0.8729 -0.31111,-1.76563 -0.40389,-1.98386 -0.0928,-0.21822 -0.25707,-1.67386 -0.36511,-3.23475 -0.10803,-1.56089 -0.28243,-2.94463 -0.38754,-3.07497 -0.10512,-0.13034 -0.2513,-0.60217 -0.32484,-1.0485 -0.0735,-0.44632 -0.26171,-1.05821 -0.41815,-1.35974 -0.15644,-0.30154 -1.75822,-5.99012 -1.71395,-6.06174 -0.79329,-10.30649 -1.09976,-16.26113 1.16261,-23.84913 15.20914,0.0105 0,0 15.20914,0.0105 0.62795,1.92279 -0.64077,16.17205 -0.48222,22.15237 0.0839,3.16425 0.22716,5.92405 0.31837,6.13289 0.11799,0.27017 0.0989,0.33834 -0.0663,0.23628 -0.16189,-0.10005 -0.2321,0.0881 -0.2321,0.62213 0,0.42106 -0.0768,0.85038 -0.17069,0.95404 -0.0939,0.10365 -0.28016,1.12583 -0.41395,2.27151 -0.13379,1.14567 -0.31304,2.17232 -0.39833,2.28143 -0.0853,0.10911 -0.26621,0.80098 -0.40205,1.53749 -0.13584,0.7365 -0.30666,1.3391 -0.3796,1.3391 -0.0729,0 -0.24987,0.39712 -0.39318,0.88249 -0.14331,0.48537 -0.31903,0.90942 -0.39048,0.94233 -0.37795,0.17407 -1.6624,3.38129 -2.01025,5.01947 -0.29059,1.36854 -0.95588,2.62079 -1.46491,2.75738 -0.4734,0.12702 -1.79962,0.11949 -2.40793,-0.0137 z"
       id="path8968"
       inkscape:connector-curvature="0"
       sodipodi:nodetypes="cscccccsccccsccscsccscccccc" />
    <path
       style="opacity:1;fill:#1a314c;fill-opacity:1;fill-rule:nonzero;stroke:none;stroke-width:1.09846115;stroke-miterlimit:4;stroke-dasharray:none;stroke-opacity:1"
       d="m -334.16134,170.49934 c -0.0499,-0.26095 0.032,-1.36476 0.18186,-2.45293 0.48362,-3.51056 0.49663,-3.71173 0.28695,-4.43746 -0.11365,-0.39335 -0.34179,-1.74183 -0.507,-2.99662 -0.48616,-3.69269 -0.93144,-6.41912 -1.11781,-6.84429 -0.0957,-0.21823 -0.27638,-1.04369 -0.40162,-1.83436 -0.12523,-0.79068 -0.30896,-1.48782 -0.40828,-1.5492 -0.0993,-0.0614 -0.18058,-0.29015 -0.18058,-0.50837 0,-0.21823 -3.26449,-3.01088 -3.36714,-2.94744 -0.10758,0.0665 0.0342,-3.76111 0.08,-4.13531 0.0951,-11.16666 -2.27907,-13.00437 0.7255,-19.12059 21.25514,-0.005 0,0 21.25514,-0.005 2.11443,0 -1.36696,1.91578 -0.26026,12.8405 0.0995,0.98201 0.15394,1.81263 0.12102,1.84582 -0.0329,0.0332 -0.1977,-0.34422 -0.36618,-0.83869 -0.40846,-1.19877 -1.54803,-2.88683 -2.3482,-3.47842 -0.75753,-0.56007 -2.46325,-0.76906 -2.95216,-0.36171 -0.83328,0.69424 -1.13967,1.4665 -1.36014,3.42816 -0.26258,2.33643 -0.60183,3.41051 -2.00513,6.34833 -1.48664,3.11228 -1.77488,4.08417 -1.78059,6.00385 -0.003,0.90165 0.0754,1.79438 0.17354,1.98385 0.0981,0.18947 0.32576,1.10331 0.50583,2.03076 0.6537,3.36685 1.00964,4.93418 1.15314,5.07769 0.21306,0.21305 0.17975,3.99151 -0.0388,4.3979 -0.10188,0.18947 -0.2792,0.75857 -0.39405,1.26467 -0.61823,2.72419 -3.99515,6.43514 -6.06858,6.66884 -0.75787,0.0854 -0.84432,0.0499 -0.92655,-0.38022 z"
       id="path8970"
       inkscape:connector-curvature="0"
       sodipodi:nodetypes="cscccscscccccccscsscsccccsc" />
    <path
       style="opacity:1;fill:#1a314c;fill-opacity:1;fill-rule:nonzero;stroke:none;stroke-width:1.09846115;stroke-miterlimit:4;stroke-dasharray:none;stroke-opacity:1"
       d="m -311.80723,150.21272 c -0.8366,-0.37452 -1.80714,-1.38424 -2.8019,-2.91501 l -3.36095,-9.39221 c -1.96487,-11.22674 -1.26742,-10.0459 0.22586,-14.22745 10.86107,-1.9e-4 0,0 10.86107,-1.9e-4 0.90796,-2e-5 -3.86425,5.73695 -2.64712,9.12878 0.55185,1.53789 1.39761,3.64557 1.87945,4.68373 0.48185,1.03817 0.79517,1.9376 0.69626,1.99873 -0.0989,0.0611 -0.27526,0.48678 -0.39189,0.9459 -0.11663,0.45912 -0.29208,1.01331 -0.38989,1.23153 -0.0978,0.21823 -0.27815,1.20023 -0.40076,2.18224 -0.12261,0.98201 -0.30136,1.96402 -0.39724,2.18224 -0.0959,0.21822 -0.27249,0.88777 -0.39249,1.48789 -0.29424,1.47144 -0.80119,2.50759 -1.35225,2.76386 -0.5776,0.26861 -0.7938,0.2587 -1.52815,-0.07 z"
       id="path8972"
       inkscape:connector-curvature="0"
       sodipodi:nodetypes="csccssccssccssc" />
    <path
       style="opacity:1;fill:#1a314c;fill-opacity:1;fill-rule:nonzero;stroke:none;stroke-width:1.09846115;stroke-miterlimit:4;stroke-dasharray:none;stroke-opacity:1"
       d="m -299.28773,164.06785 c -0.20799,-0.54203 -0.11859,-1.9185 0.21154,-3.25713 0.39811,-1.61424 0.56185,-4.49121 0.28701,-5.04286 -0.1131,-0.227 -0.30106,-0.78838 -0.41769,-1.2475 -0.11663,-0.45912 -0.2989,-0.88844 -0.40505,-0.95404 -0.32777,-0.20257 -0.2134,-1.56618 0.20378,-2.42964 0.21822,-0.45167 0.39676,-0.91481 0.39676,-1.02919 0,-0.11438 0.0893,-0.20797 0.19839,-0.20797 0.24303,0 0.26697,-2.11643 0.0256,-2.26559 -0.095,-0.0587 -0.22758,-0.38089 -0.29459,-0.71593 -0.067,-0.33504 -0.49371,-1.25195 -0.94823,-2.03758 -0.88796,-1.53483 -0.92989,-1.59132 -2.13111,-2.87119 l -5.93836,-3.19578 5.34065,1.21193 c 0.1088,-0.62493 0.27201,-2.47534 0.36269,-4.11202 0.18363,-3.31429 -0.11294,-4.47973 1.67513,-6.10586 2.72884,1.53306 2.66339,-3.28626 8.11571,-1.8587 0.55365,-0.0149 -0.17457,9.25199 -0.87261,10.57702 -0.22482,0.42675 -0.20759,0.63109 0.21456,2.54556 0.64961,2.94591 0.60004,4.80576 -0.17332,6.5034 -0.22461,0.49305 -0.4663,1.38924 -0.53709,1.99153 -0.13238,1.12638 0.2206,3.62155 0.54028,3.81913 0.23342,0.14425 0.2265,2.80745 -0.008,2.95217 -0.10072,0.0622 -0.24475,0.40229 -0.32008,0.75566 -0.2616,1.2272 -1.5454,3.84871 -2.67965,5.47183 -1.07182,1.53379 -2.5378,2.30767 -2.84668,1.50275 z"
       id="path8974"
       inkscape:connector-curvature="0"
       sodipodi:nodetypes="cssscssscccccccccccccccsccc" />
    <path
       style="opacity:1;fill:#1a314c;fill-opacity:1;fill-rule:nonzero;stroke:none;stroke-width:1.09846115;stroke-miterlimit:4;stroke-dasharray:none;stroke-opacity:1"
       d="m -281.75185,178.7362 c -0.5355,-0.21649 -1.35473,-1.09663 -1.611,-1.73079 -0.13812,-0.3418 -0.31487,-0.66623 -0.39276,-0.72096 -0.17035,-0.11969 -0.74203,-2.61044 -0.9789,-4.26496 -0.0937,-0.65468 -0.23358,-2.68889 -0.31077,-4.52048 -0.0772,-1.8316 -0.21585,-3.37683 -0.30812,-3.43386 -0.0923,-0.057 -0.16808,-0.70101 -0.16845,-1.43108 -2.6e-4,-0.73006 -0.0968,-2.3535 -0.21426,-3.60763 -0.68594,-6.71583 -1.51424,-16.65595 -2.89162,-21.66816 -1.45065,-5.27886 -1.68015,-4.67631 -4.6953,-9.06191 7.19644,2.95926 6.95813,3.97624 10.08019,2.0622 0.002,-1.96402 -0.0415,-4.06194 -0.0961,-4.66206 -0.0974,-1.07164 -0.0903,-1.08988 0.39677,-1.02195 1.01818,0.14201 3.73032,1.60484 4.33459,2.33792 l 0.59755,0.72493 0.003,3.19524 c 0.003,3.25293 4.69223,-7.78212 5.40578,-4.14709 0.68388,3.48388 -1.19681,14.36513 -2.7199,18.45911 -0.57562,1.77652 -0.1654,0.47912 -0.90303,1.77652 -1.55152,2.72892 -1.65669,3.05122 -1.65779,5.08001 -5.3e-4,1.12572 0.091,2.01779 0.22403,2.18223 0.34865,0.43088 0.66712,3.35357 0.66712,6.12238 0,1.56719 0.0823,2.59006 0.21936,2.72715 0.31032,0.31032 0.36168,11.79108 0.0545,12.17782 -0.12217,0.15381 -0.3236,0.59514 -0.44761,0.98074 -0.2058,0.63988 -0.85308,1.45483 -1.7044,2.14589 -0.35362,0.28704 -2.39007,0.49809 -2.88308,0.29879 z"
       id="path8976"
       inkscape:connector-curvature="0"
       sodipodi:nodetypes="cccsccccscccssccscscsssccccc" />
    <path
       style="opacity:1;fill:#1a314c;fill-opacity:1;fill-rule:nonzero;stroke:none;stroke-width:1.09846115;stroke-miterlimit:4;stroke-dasharray:none;stroke-opacity:1"
       d="m -268.4316,181.77063 c -0.68936,-0.73379 -0.88196,-2.50249 -0.61689,-5.66501 0.12387,-1.47784 0.29501,-2.82325 0.38031,-2.98979 0.0853,-0.16654 0.27254,-1.32944 0.4161,-2.58423 0.14355,-1.25479 0.3226,-2.32607 0.39787,-2.38063 0.19554,-0.14171 0.58449,-4.82297 0.58449,-7.03471 0,-1.03215 0.0888,-1.92412 0.19838,-1.99182 0.25831,-0.15964 0.25831,-2.0226 0,-2.18224 -0.11771,-0.0728 -0.2009,-1.34814 -0.20459,-3.13628 -0.009,-4.51862 -0.3323,-11.15294 -0.56337,-11.57184 -0.112,-0.20304 -0.25831,-0.79321 -0.32514,-1.31149 -0.0668,-0.51828 -0.19051,-0.94233 -0.27483,-0.94233 -0.0843,0 -4.32906,-10.58195 -4.45931,-12.08224 -0.25868,-2.97972 3.94165,5.03804 4.57606,4.18832 1.1062,-1.48163 1.61501,-1.02421 1.85547,1.66807 0.0963,1.07831 0.17829,2.16143 0.18218,2.40693 0.0209,1.31963 1.05377,-0.27541 1.4914,-2.3032 0.44781,-2.07494 1.61716,-3.6067 3.03788,-3.97939 1.16198,-0.30482 4.0552,-0.81001 4.6379,-0.80984 0.91751,2.6e-4 1.69603,0.85481 1.94945,2.13982 0.12297,0.62353 0.35421,1.60199 0.51387,2.17435 l 4.52361,0.37921 -5.03379,1.70384 c -0.68469,0.23175 -0.88207,1.14278 -0.98181,1.26549 -0.0997,0.12271 -0.29317,0.61371 -0.42987,1.09112 -0.13669,0.47741 -0.31149,0.95729 -0.38843,1.0664 -0.0769,0.10911 -0.24575,1.00184 -0.37512,1.98385 -0.12937,0.98201 -0.31933,2.09793 -0.42213,2.47982 -0.1028,0.38189 -0.3189,2.39054 -0.48022,4.46367 -0.61501,7.90352 -0.91914,11.123 -1.08694,11.50635 -0.0955,0.21822 -0.27416,1.2411 -0.39696,2.27306 -0.12281,1.03196 -0.2913,1.96933 -0.37443,2.08305 -0.0831,0.11371 -0.26948,0.69113 -0.41412,1.28316 -0.23408,0.95814 -0.86927,2.32287 -1.2072,2.59372 -0.15473,0.12401 -1.06551,1.84217 -1.48739,2.8059 -0.38764,0.88554 -0.82736,3.25872 -1.18935,6.41902 -0.48054,4.19518 -1.11089,5.45559 -2.72841,5.45559 -0.65345,0 -0.975,-0.11477 -1.30467,-0.4657 z"
       id="path8978"
       inkscape:connector-curvature="0"
       sodipodi:nodetypes="cccccsccsccsscscssccccscccscscsccscssc" />
    <path
       style="opacity:1;fill:#1a314c;fill-opacity:1;fill-rule:nonzero;stroke:none;stroke-width:1.09846115;stroke-miterlimit:4;stroke-dasharray:none;stroke-opacity:1"
       d="m -245.34814,159.93569 c -1.15013,-0.50453 -1.39305,-0.987 -1.34911,-2.67952 0.0218,-0.83874 0.13336,-1.77164 0.24798,-2.07311 0.11462,-0.30146 0.21754,-1.72518 0.22872,-3.16381 0.0203,-2.6156 -4.16358,-19.41629 -3.91021,-18.25696 2.89783,-0.61619 4.58197,18.10465 4.75876,18.28144 0.29124,0.29124 0.35052,0.29236 0.63097,0.0119 0.23395,-0.23395 0.35189,-1.02275 0.48301,-3.23033 0.1685,-2.83713 1.08428,-12.18827 1.64484,-12.18827 0.60833,0 2.16499,10.6058 2.5756,16.06089 -0.14528,0.58673 -0.82245,3.45836 -1.44205,4.55519 -0.51446,0.66211 -0.5816,0.72289 -0.92874,1.22643 -0.98258,1.42526 -1.93488,1.89696 -2.93977,1.45614 z"
       id="path8980"
       inkscape:connector-curvature="0"
       sodipodi:nodetypes="cccccccsscccc" />
    <path
       style="opacity:1;fill:#1a314c;fill-opacity:1;fill-rule:nonzero;stroke:none;stroke-width:1.09846115;stroke-miterlimit:4;stroke-dasharray:none;stroke-opacity:1"
       d="m -221.34995,164.79675 c -0.0661,-0.20814 -0.23167,-0.42125 -0.36804,-0.47357 -0.19637,-0.0754 -0.18542,-0.54295 0.0528,-2.25017 l -2.47259,-38.40727 c 0.59846,4.97853 8.70169,8.92106 10.8255,9.7266 -0.71379,1.37272 -3.96457,15.81727 -3.89461,19.17118 0.07,3.3539 -0.0726,7.46252 0.007,8.96857 l -0.58356,2.67213 -0.86866,0.48549 c -1.10233,0.61611 -2.51809,0.67229 -2.69748,0.10704 z"
       id="path8982"
       inkscape:connector-curvature="0"
       sodipodi:nodetypes="cccccscccc" />
    <path
       style="opacity:1;fill:#1a314c;fill-opacity:1;fill-rule:nonzero;stroke:none;stroke-width:1.09846115;stroke-miterlimit:4;stroke-dasharray:none;stroke-opacity:1"
       d="m -210.03753,151.03549 c -0.41336,-0.76755 -0.35478,-1.84249 0.25622,-4.70229 0.3088,-1.44535 0.3664,-2.17296 0.24913,-3.1469 -0.12739,-1.05823 -0.0904,-1.38571 0.2245,-1.98847 0.34957,-0.66904 0.36714,-1.02714 0.24133,-4.91532 -0.13031,-4.02712 -0.11774,-4.24777 0.3166,-5.55478 0.55682,-1.67557 1.76181,-3.72056 3.03215,-5.14586 1.24934,-1.40171 1.72053,-1.38386 1.72053,0.0652 0,0.2823 0.41114,1.77032 0.91364,3.30673 0.7771,2.37617 0.92593,3.08984 0.99615,4.77733 0.0454,1.09112 0.11602,2.5544 0.15693,3.25173 0.0457,0.77943 0.007,1.16157 -0.10041,0.99193 -0.12171,-0.19219 -0.17569,-0.0803 -0.1778,0.3688 -0.003,0.35461 -0.0799,0.64475 -0.17378,0.64475 -0.0939,0 -0.22389,0.44876 -0.28887,0.99725 -0.24966,2.10802 -1.36954,4.68207 -2.84668,6.54312 -0.56367,0.71018 -1.35451,1.91537 -1.75739,2.6782 -1.26317,2.3917 -1.32911,2.47809 -1.89132,2.47809 -0.38526,0 -0.61235,-0.16935 -0.87093,-0.6495 z"
       id="path8984"
       inkscape:connector-curvature="0" />
    <path
       style="opacity:1;fill:#1a314c;fill-opacity:1;fill-rule:nonzero;stroke:none;stroke-width:1.09846115;stroke-miterlimit:4;stroke-dasharray:none;stroke-opacity:1"
       d="m -212.29554,135.57581 c -0.25424,-0.52546 -1.04817,-1.72322 -1.18827,-1.86333 -0.2074,-0.20741 0.3129,-0.0305 0.73515,-1.91002 0.28524,-1.26965 0.57777,-2.36651 0.65008,-2.43746 0.48699,-0.47795 3.06983,11.98677 2.64141,13.39409 -0.14898,0.48941 -2.39241,-6.26158 -2.83837,-7.18328 z"
       id="path8986"
       inkscape:connector-curvature="0"
       sodipodi:nodetypes="cccccc" />
    <path
       style="opacity:1;fill:#1a314c;fill-opacity:1;fill-rule:nonzero;stroke:none;stroke-width:1.09846115;stroke-miterlimit:4;stroke-dasharray:none;stroke-opacity:1"
       d="m -195.61388,161.0587 c -0.30953,-3.51135 -0.56115,-4.69133 -1.82967,-8.58017 -0.42794,-1.31184 -1.59811,-5.33784 -2.17839,-7.49477 -0.1256,-0.46688 -0.31195,-0.79721 -0.4141,-0.73408 -0.10539,0.0651 -2.0659,-6.81387 -2.01674,-7.12906 0.0476,-0.30549 2.05285,5.29865 2.11223,4.27889 0.10427,-1.79071 1.02928,-5.98212 1.32021,-5.98212 0.0784,0 0.19923,0.78115 0.26864,1.73588 0.0694,0.95472 0.21611,2.71787 0.32601,3.91811 0.14539,1.58751 0.13343,2.86197 -0.0439,4.67643 -0.25654,2.62504 -0.19367,3.23091 0.31502,3.0357 0.53268,-0.2044 1.63557,-4.76522 1.99757,-8.26045 0.36217,-3.49709 0.48893,-0.70925 0.48893,10.75345 0,6.77138 4.71834,23.9698 -0.0614,12.3116 -0.0127,-0.0312 -0.16172,-1.13823 -0.28438,-2.52941 z"
       id="path8988"
       inkscape:connector-curvature="0"
       sodipodi:nodetypes="ccccccssccccssc" />
    <path
       style="opacity:1;fill:#1a314c;fill-opacity:1;fill-rule:nonzero;stroke:none;stroke-width:1.09846115;stroke-miterlimit:4;stroke-dasharray:none;stroke-opacity:1"
       d="m -189.15116,184.46817 c -0.73957,-0.80056 -0.78534,-1.02315 -0.96917,-4.71166 -0.22633,-4.54099 -0.51015,-6.89523 -0.95181,-7.89529 -0.20249,-0.45851 -0.42307,-0.98966 -0.49017,-1.18033 -0.0671,-0.19066 -0.43736,-0.83963 -0.82278,-1.44214 -0.38541,-0.60251 -0.70077,-1.142 -0.70077,-1.19885 0,-0.0569 -0.18108,-0.34829 -0.40238,-0.64762 l -2.12564,-6.33358 2.13122,0.73723 c 0.22437,-2.77867 0.49475,-6.21267 0.60085,-7.63112 0.10609,-1.41846 0.28437,-3.7842 0.39616,-5.25721 0.11181,-1.47301 0.28948,-3.92803 0.39486,-5.4556 0.37806,-5.48102 0.62434,-8.96654 0.79902,-11.30796 0.0977,-1.30935 0.18946,-3.05018 0.20394,-3.86852 0.0485,-2.74068 0.35398,-0.57411 0.67132,4.76125 0.27128,4.56069 0.63,7.61883 1.00645,8.58017 0.41799,1.06737 1.04476,-0.29299 1.66809,-3.62054 0.34121,-1.82148 0.54981,-3.25113 1.18677,-8.1338 l 0.14234,-1.09112 0.12208,0.89274 c 0.0671,0.491 0.3475,2.54429 0.62304,4.56286 0.27557,2.01857 0.64117,4.12477 0.81248,4.68044 0.32732,1.06162 0.97777,1.93792 1.34708,1.81482 0.83989,-0.27997 1.61787,-2.99321 1.8624,-6.49526 0.13483,-1.93103 0.15616,-2.01066 0.29236,-1.09112 0.0808,0.54556 0.28824,2.37567 0.46093,4.0669 0.32063,3.1396 0.72589,5.02696 1.13353,5.27891 0.42675,0.26372 1.11874,-0.8362 1.2265,-1.94948 0.39463,-4.07699 0.93012,-8.2945 1.35004,-10.63273 l 0.23821,-1.32646 0.44614,2.77739 c 0.71823,4.47143 1.26634,7.24669 1.71421,8.67936 0.35361,1.13129 0.4877,1.3391 0.86399,1.3391 0.26601,0 0.65006,-0.25967 0.95353,-0.64475 0.27948,-0.35461 1.8982,-4.24284 1.89942,-4.11319 0.003,0.22013 -2.06933,6.22484 -2.67242,8.0313 -0.14574,0.43645 -0.50626,1.597 -0.80121,2.57901 -0.29496,0.98201 -0.70491,2.2575 -0.91104,2.83443 -0.34145,0.95574 -0.37476,1.69338 -0.37476,8.29913 0,6.6737 -0.0325,7.37762 -0.40926,8.85311 -0.60446,2.36747 -1.33188,3.66278 -3.11401,5.545 -1.88251,1.98827 -2.50825,2.95786 -2.72735,4.22613 -0.3147,1.82141 -1.48992,5.00078 -2.13339,5.77146 -1.49807,1.79426 -2.21803,2.26315 -3.47501,2.26315 -0.79478,0 -1.04929,-0.0947 -1.46579,-0.54556 z"
       id="path8990"
       inkscape:connector-curvature="0"
       sodipodi:nodetypes="csccsscccscccccccccccccsccccccccscccscsccccsc" />
    <path
       style="opacity:1;fill:#1a314c;fill-opacity:1;fill-rule:nonzero;stroke:none;stroke-width:1.09846115;stroke-miterlimit:4;stroke-dasharray:none;stroke-opacity:1"
       d="m -166.46256,178.42734 c -0.13092,-0.13094 -0.24291,-0.73354 -0.24887,-1.33911 -0.006,-0.60557 -0.13414,-1.81522 -0.28487,-2.68812 -0.25094,-1.45302 -0.45747,-2.5172 -1.38621,-7.14187 -0.17531,-0.8729 -0.40121,-1.76563 -0.50199,-1.98385 -0.10081,-0.21823 -0.28144,-0.96531 -0.4014,-1.66017 -0.11994,-0.69487 -0.29467,-1.40906 -0.38828,-1.58709 -0.0936,-0.17802 -0.30205,-0.85932 -0.4632,-1.51399 -0.16119,-0.65467 -0.48813,-1.85986 -0.72658,-2.6782 -0.23841,-0.81834 -0.51085,-1.9789 -0.60536,-2.57901 -0.29287,-1.85912 -0.45241,-8.67894 -0.27618,-11.80393 l 0.30009,-6.21693 c 7.04993,7.86134 7.5778,5.9558 8.50411,4.99646 1.5218,-1.47291 2.39075,-1.50929 2.77762,-0.1163 0.2699,0.97185 0.26916,2.82466 0,2.82466 -0.11512,0 -0.44918,0.51332 -0.74239,1.14072 l -0.53308,1.14071 -0.0454,6.10676 c -0.0357,4.80505 -0.11017,6.32499 -0.34941,7.13056 -0.21204,0.71401 -0.33943,2.34789 -0.42108,5.39959 -0.17198,6.42858 -0.60275,8.56054 -2.33609,11.56137 -0.27723,0.47997 -1.17181,1.2458 -1.45523,1.2458 -0.0973,0 -0.28414,-0.10713 -0.41508,-0.23806 z"
       id="path8992"
       inkscape:connector-curvature="0"
       sodipodi:nodetypes="ccccccccccccccsccccccscc" />
    <path
       style="opacity:1;fill:#1a314c;fill-opacity:1;fill-rule:nonzero;stroke:none;stroke-width:1.09846115;stroke-miterlimit:4;stroke-dasharray:none;stroke-opacity:1"
       d="m -149.59098,187.54314 c -0.83325,-1.48463 -1.93842,-3.88179 -2.21798,-4.81084 -0.13134,-0.43645 -0.32125,-0.97209 -0.42206,-1.19032 -0.10081,-0.21822 -0.31443,-1.15559 -0.47469,-2.08304 -0.61785,-3.5752 -0.9339,-5.0658 -1.11265,-5.24729 -0.10208,-0.10366 -0.18558,-0.34916 -0.18558,-0.54556 0,-0.19641 -0.2654,-25.09562 -6.4988,-29.39507 4.5856,0.47423 8.36446,0.18139 9.67242,2.10716 0.23144,0.35227 0.31893,1.55466 0.41514,5.70358 0.10908,4.70606 0.16777,5.3924 0.55977,6.54672 1.22002,3.5926 2.99141,12.21561 2.97501,14.48213 -0.29467,5.68885 -0.91303,5.61195 1.63057,8.4962 -0.10435,0.0364 -2.80249,5.15051 -2.80249,5.30138 0,0.36965 -0.63244,1.67647 -0.81135,1.67647 -0.0785,0 -0.40574,-0.46868 -0.72723,-1.04152 z"
       id="path8994"
       inkscape:connector-curvature="0"
       sodipodi:nodetypes="ccsccsccccccsscc" />
    <path
       style="opacity:1;fill:#1a314c;fill-opacity:1;fill-rule:nonzero;stroke:none;stroke-width:0.38836467;stroke-miterlimit:4;stroke-dasharray:none;stroke-opacity:1"
       d="m -131.7269,211.00707 c -0.0872,-0.10179 -0.2069,-0.14028 -0.43643,-0.14028 -0.44743,0 -0.62693,-0.19147 -0.62693,-0.66872 0,-0.26345 0.041,-0.41029 0.15531,-0.55555 0.0854,-0.10859 0.15531,-0.24053 0.15531,-0.2932 0,-0.0527 0.0473,-0.0958 0.1052,-0.0958 0.0584,0 0.10523,-0.0624 0.10523,-0.14028 0,-0.0816 0.0467,-0.14027 0.11176,-0.14027 0.0615,0 0.12829,-0.0631 0.14845,-0.14028 0.0204,-0.0776 0.0957,-0.14028 0.16881,-0.14028 0.0727,0 0.13208,-0.0316 0.13208,-0.0701 0,-0.0386 0.0652,-0.13532 0.14486,-0.21499 0.11308,-0.11308 0.13427,-0.19385 0.0967,-0.36824 -0.0265,-0.12286 -0.0917,-0.24862 -0.14486,-0.27947 -0.065,-0.0377 -0.0967,-0.19273 -0.0967,-0.47344 0,-0.32384 -0.0314,-0.44879 -0.14028,-0.55764 -0.10631,-0.10633 -0.14026,-0.2338 -0.14026,-0.52673 0,-0.29966 -0.0315,-0.41344 -0.14028,-0.50657 -0.10959,-0.0938 -0.14028,-0.20691 -0.14028,-0.51677 0,-0.24859 -0.0356,-0.42618 -0.0953,-0.47572 -0.0524,-0.0435 -0.11563,-0.27379 -0.1405,-0.5118 -0.0249,-0.23802 -0.0925,-0.48497 -0.15023,-0.54879 -0.062,-0.0685 -0.10501,-0.2515 -0.10501,-0.44686 0,-0.25773 -0.038,-0.36886 -0.17216,-0.50298 -0.0947,-0.0947 -3.62279,-8.81702 -12.86029,-22.09951 -0.59508,-12.87973 27.77561,-54.10482 35.13029,-56.92068 0.008,92.37128 0,0 0.008,92.37128 -7.322,-4.48777 -21.00622,-4.95919 -21.07229,-5.03634 z"
       id="path8996"
       inkscape:connector-curvature="0"
       sodipodi:nodetypes="csscsssscsscccscscscscscccccc" />
  </g>
</svg>
