<?xml version="1.0" encoding="UTF-8" standalone="no"?>
<!-- Created with Inkscape (http://www.inkscape.org/) -->

<svg
   xmlns:dc="http://purl.org/dc/elements/1.1/"
   xmlns:cc="http://creativecommons.org/ns#"
   xmlns:rdf="http://www.w3.org/1999/02/22-rdf-syntax-ns#"
   xmlns:svg="http://www.w3.org/2000/svg"
   xmlns="http://www.w3.org/2000/svg"
   xmlns:sodipodi="http://sodipodi.sourceforge.net/DTD/sodipodi-0.dtd"
   xmlns:inkscape="http://www.inkscape.org/namespaces/inkscape"
   width="377.98566mm"
   height="264.3085mm"
   viewBox="0 0 377.98566 264.3085"
   version="1.1"
   id="svg6023"
   inkscape:version="0.92.4 (5da689c313, 2019-01-14)"
   sodipodi:docname="parallax5.svg">
  <defs
     id="defs6017" />
  <sodipodi:namedview
     id="base"
     pagecolor="#ffffff"
     bordercolor="#666666"
     borderopacity="1.0"
     inkscape:pageopacity="0.0"
     inkscape:pageshadow="2"
     inkscape:zoom="0.49497475"
     inkscape:cx="507.16512"
     inkscape:cy="802.29589"
     inkscape:document-units="mm"
     inkscape:current-layer="layer1"
     showgrid="false"
     inkscape:window-width="1858"
     inkscape:window-height="1057"
     inkscape:window-x="54"
     inkscape:window-y="-8"
     inkscape:window-maximized="1" />
  <metadata
     id="metadata6020">
    <rdf:RDF>
      <cc:Work
         rdf:about="">
        <dc:format>image/svg+xml</dc:format>
        <dc:type
           rdf:resource="http://purl.org/dc/dcmitype/StillImage" />
        <dc:title></dc:title>
      </cc:Work>
    </rdf:RDF>
  </metadata>
  <g
     inkscape:label="Calque 1"
     inkscape:groupmode="layer"
     id="layer1"
     transform="translate(-101.94002,-345.44307)">
    <path
       style="opacity:1;fill:#000000;fill-opacity:1;fill-rule:nonzero;stroke:none;stroke-width:2.1969223;stroke-miterlimit:4;stroke-dasharray:none;stroke-opacity:1"
       d="m 102.20006,561.64314 5e-5,-48.10844 1.96804,3.07161 c 1.08243,1.68939 2.19242,3.47486 2.46664,3.96771 0.62725,1.12731 0.59469,7.65886 -0.0596,11.95181 -0.56403,3.70086 -0.13128,4.69302 1.13719,2.6072 1.13304,-1.86313 1.62624,-4.49507 2.03986,-10.88553 0.36652,-5.66263 0.63545,-7.34025 1.1767,-7.34025 0.89816,0 1.06337,6.01576 0.3283,11.95415 -0.42313,3.41839 -0.39903,4.01377 0.22911,5.65851 0.70543,1.84715 2.00304,2.9983 2.65024,2.35109 0.18978,-0.18977 0.46367,-1.88818 0.60864,-3.77421 0.14497,-1.88604 0.40719,-3.66151 0.5827,-3.94549 1.06258,-1.7193 1.13327,2.4859 0.17102,10.17349 -0.89094,7.11783 -0.7797,11.92431 0.40965,17.70092 0.55658,2.70326 1.22613,7.01051 1.48789,9.57169 0.26177,2.56117 0.37392,5.59568 0.59215,5.6289 0.21822,0.0332 -0.11434,15.40453 0.6734,15.80093 2.98529,1.5022 2.653,-7.05491 3.18107,-7.05491 0.48527,0 -0.0355,-12.86947 0.18979,-13.46202 0.40675,-1.06986 1.1717,-17.08994 1.22268,-25.6065 0.0176,-2.94603 0.15964,-6.15987 0.31556,-7.14187 l 0.28349,-1.78547 0.29301,1.98385 c 0.16115,1.09112 0.46814,4.70591 0.6822,8.03287 0.2308,3.58714 0.7391,7.46269 1.24892,9.5225 0.65808,2.6588 0.86671,4.74521 0.88955,8.89567 0.0164,2.9822 0.10604,5.34614 0.19918,5.25319 0.0931,-0.0929 -1.86439,10.06681 0.022,12.11861 3.65603,2.90265 3.86311,-1.32972 11.20523,3.04542 1.34202,0.0795 2.74885,-3.5091 3.1029,-5.79254 l 0.85415,-13.30177 -0.19352,-8.50211 c -0.11059,-4.85881 -0.0469,-8.24006 0.1487,-7.89059 0.18822,0.33633 0.65141,4.11764 1.02931,8.40291 0.62262,7.06034 1.89537,27.71862 2.26079,28.27223 0.95382,1.44501 3.155,2.04086 3.88714,0.86086 0.80828,-1.30273 -0.19569,-5.84581 0.52687,-9.07137 1.1048,-4.93191 0.87686,-14.53108 0.46365,-16.54059 0.15428,-0.54555 -0.14342,-4.60747 -0.0615,-8.42639 0.14323,-6.67459 0.76885,-15.38477 1.25393,-17.45791 l 0.23211,-0.99192 0.30054,1.05209 c 0.1653,0.57865 0.42854,2.49803 0.58498,4.26529 1.66174,16.99343 1.97872,33.08655 3.50494,43.00966 0.65405,1.57236 7.80855,4.49471 7.80943,5.68362 0.002,2.05744 -0.32657,1.81204 0.0711,2.45547 0.10371,0.1678 0.64916,0.71938 2.06936,1.39719 1.49365,1.7968 -5.13295,8.34989 -5.13295,8.34989 15.32244,8.00446 25.5596,6.71643 37.09536,8.27868 4.35693,-0.75834 10.09991,-1.88165 11.77411,-3.70019 1.16334,0.0873 7.7476,4.10372 14.35106,4.8351 8.02271,1.60985 15.53107,-0.80019 20.89265,-0.72826 3.17572,0 9.66202,0.7658 11.97913,1.38017 1.45263,0.38516 7.10061,1.8524 11.90896,1.57231 2.58836,-0.15078 7.91948,-0.89879 7.91948,-0.89879 6.58676,1.67351 10.09967,1.11921 10.81966,0.89418 4.08823,-1.27783 8.27904,-2.75306 9.69749,-2.74661 0.57389,-0.76495 0.25737,-0.61426 0.41361,-1.24877 2.95146,-1.17019 9.13273,-1.97544 14.92704,-1.60718 8.58465,0.54559 9.33724,0.47073 13.33352,-1.32639 3.71726,-1.67163 5.64299,-2.1538 11.46465,-2.87052 6.77829,-0.83449 8.27933,-2.2755 8.93054,-8.57336 0.88902,-8.59777 2.25118,-14.44011 3.36676,-14.44011 0.79445,0 0.92496,1.98024 0.69433,10.53475 -0.11797,4.37565 -0.0915,8.61119 0.0588,9.41229 0.24378,1.29945 0.45342,1.5053 1.94361,1.90847 3.40903,0.92233 8.32682,-0.27922 9.8792,-2.41375 1.04631,-1.43869 1.80579,-6.02705 2.337,-14.11896 0.25664,-3.90955 0.59971,-7.25521 0.76237,-7.43481 0.29124,-0.32157 0.57429,1.01147 1.79522,8.45471 0.7533,4.59231 1.46854,5.82346 1.87719,7.54285 0.1034,2.22994 -0.38536,7.866 0.59852,9.55707 0.86196,-0.23469 1.52384,-1.28121 2.83442,-3.43822 0.99852,-1.68966 2.26243,-4.61564 2.44129,-4.79656 0.17886,-0.18092 0.9053,-2.02514 1.61433,-4.09826 l 1.28913,-3.76933 -0.2331,-10.86159 c -0.0735,-3.42272 -0.32525,-10.69143 0.95382,-15.82123 0.70737,-2.83691 2.73458,-7.60023 2.8076,-7.6755 0.073,-0.0753 -0.59338,6.06476 -0.63227,10.61362 -0.0578,6.76356 -0.005,8.45923 0.51202,9.75071 l 0.68199,1.67844 1.26825,4.96746 c 0.35036,3.50582 0.74912,5.69158 1.11205,9.48074 0.55888,4.7758 0.48291,5.23297 1.64922,7.79872 0.95803,1.21793 2.91211,1.76215 5.66021,1.67651 2.87327,-0.24138 4.77776,-0.55107 10.09531,-2.35123 4.05251,-2.6406 4.60832,-3.71756 5.1871,-4.23702 0.85455,-1.35005 2.08817,-3.71179 3.33965,-8.11417 -0.17407,-5.33443 0.46342,-2.84536 -0.69435,-8.66555 -1.27346,-6.2377 -0.73477,-16.78946 1.61767,-31.6863 l 0.90852,-5.75317 0.27903,5.75317 c 0.1686,3.47539 0.10885,7.32407 -0.15086,9.72089 -0.42884,3.95777 -0.19339,9.94715 0.40563,10.31736 0.43077,0.26623 1.64931,5.96326 3.32534,11.52603 -1.25193,3.46792 -1.43844,6.21595 -0.9288,8.1486 0.43821,1.78279 1.84441,5.24642 2.18562,6.37482 3.27247,3.08503 7.59436,2.55492 10.82125,2.87315 1.64782,0.5348 3.07636,2.36431 4.28654,2.7571 4.95498,-0.30157 7.58917,1.2395 14.15986,1.75225 6.33119,-2.30694 7.49941,-4.32756 10.47118,-9.94057 0.37812,-8.79041 -0.25233,-14.06425 -0.52279,-19.43557 0.13266,0.13267 0.2395,-0.99374 0.23738,-2.50312 -0.0106,-7.59815 1.10816,-15.20192 3.25896,-18.88246 l 1.67145,-3.09096 -0.33417,-3.62237 -0.19391,-3.76265 2.65049,-0.8254 c 2.46914,-0.76894 1.96799,-2.39142 1.3223,-4.88733 -0.28225,-1.09112 -0.0781,-3.6088 -0.23227,-6.79502 -0.26694,-5.5193 -0.23794,-5.87563 0.61338,-7.53864 0.7194,-1.40533 0.97496,-2.86677 1.31128,-7.49869 0.57462,-7.91433 0.50546,-12.43525 -0.32481,-21.22724 -0.58012,-6.14337 -0.63439,-8.3087 -0.2931,-11.69929 0.36946,-3.67096 0.3344,-4.41814 -0.29784,-6.34833 -0.39826,-1.21572 -0.63572,-2.81026 -0.53452,-3.58898 0.1002,-0.77072 -0.10067,-2.49268 -0.44632,-3.82659 -0.42037,-1.62231 -0.63974,-4.31114 -0.66254,-8.1212 -0.0427,-7.12141 -0.55047,-5.98644 -1.32342,2.95789 -0.50189,5.80731 -0.72925,7.04801 -1.20447,6.57278 -0.0997,-0.0998 -0.37586,-2.40598 -0.61359,-5.12496 -0.2377,-2.71897 -0.63315,-6.72906 -0.87874,-8.9113 -0.24558,-2.18224 -0.48064,-7.53864 -0.52239,-11.90312 -0.0565,-5.91565 -0.24416,-8.58641 -0.7371,-10.4931 -0.81881,-3.16721 -1.03452,-3.4161 -1.03452,-1.19364 0,1.24695 -0.49374,2.74953 -1.74924,5.32334 -0.96208,1.9723 -1.85582,4.30019 -1.9861,5.17309 -0.26471,1.77348 -0.74948,19.61458 -0.79679,29.32463 -0.0206,4.26942 -0.17418,6.36083 -0.474,6.46302 -0.4653,0.1586 -0.72046,-2.69947 -1.31757,-14.75881 -0.31187,-6.29872 -0.95282,-10.10598 -2.19258,-13.02368 -0.44926,-1.05738 -0.62037,-2.50068 -0.56438,-4.76125 0.0442,-1.78415 -0.13682,-5.65429 -0.40225,-8.60032 -0.26543,-2.94602 -0.63447,-8.68152 -0.82005,-12.74555 -0.25468,-5.57654 -0.49805,-7.69969 -0.99208,-8.65507 -1.00102,-1.93577 -1.58551,-1.32255 -1.70804,1.7921 -0.12904,3.27887 -0.36357,4.18285 -0.87186,3.3604 -0.66916,-1.08269 -0.84748,-5.8011 -0.35314,-9.34359 0.27406,-1.96401 0.46842,-4.7712 0.43191,-6.23819 -0.0747,-3.0022 -1.69183,-11.4808 -2.70746,-14.19549 -0.45288,-1.21056 -0.74602,-3.63796 -0.91032,-7.53865 -0.19974,-4.74171 -0.347,-5.75317 -0.83751,-5.75317 -0.49226,0 -0.61439,0.87858 -0.70636,5.08174 -0.10618,4.85085 -0.14674,5.07048 -0.89276,4.83371 -0.64728,-0.20544 -0.787,-0.056 -0.81354,0.86981 -0.24175,8.43422 -1.17729,21.70386 -1.55689,22.08277 -0.11012,0.10993 -0.13806,-1.79473 -0.0621,-4.23258 0.15354,-4.92562 -1.29336,-21.62086 -1.92886,-22.25636 -0.26017,-0.26018 -0.6087,-0.17832 -1.02865,0.2416 -0.53353,0.53355 -0.62672,1.6375 -0.58259,6.90315 0.0876,10.45145 -0.3842,6.57767 -0.7272,-5.97083 -0.26538,-9.70876 -0.42815,-11.88727 -0.92536,-12.38446 -0.53991,-0.53991 -0.71165,-0.53234 -1.63409,0.0721 -0.56692,0.37147 -1.41166,1.29169 -1.87719,2.04495 -0.7792,1.26074 -0.824,1.69881 -0.56399,5.51373 0.2957,4.338 0.0641,4.96423 -1.20266,3.25145 -0.62807,-0.84923 -0.64831,-0.72279 -0.41572,2.59501 0.429,6.11949 -0.53803,7.16757 -2.06795,2.24128 -2.77194,-8.92542 -2.87608,-9.39256 -3.12357,-14.01039 l -0.25019,-4.66871 -0.80936,1.41621 c -1.63417,2.85947 -2.17284,1.95586 -3.4921,-5.85798 -0.49946,-2.95835 -0.95234,-5.3346 -1.0064,-5.28054 -0.19896,0.19895 -1.31297,8.22697 -1.31511,9.47715 -0.003,1.91214 -0.76904,4.34093 -1.31273,4.16363 -0.55726,-0.18172 -1.35908,-4.36206 -1.41962,-7.40131 -0.0567,-2.84359 -0.40185,-2.37227 -0.89162,1.21742 -0.45276,3.31854 -1.27828,5.00868 -2.10947,4.31886 -0.6867,-0.56992 -1.23293,-2.87582 -1.83624,-7.75159 -0.27,-2.18223 -0.5408,-3.78916 -0.60179,-3.57093 -0.061,0.21822 -0.39841,2.45006 -0.74986,4.95963 -0.73652,5.25887 -1.27415,7.53864 -1.77784,7.53864 -0.1951,0 -0.45093,-0.31245 -0.56848,-0.69434 -0.32438,-1.05368 -1.02934,-9.11215 -1.02971,-11.77087 0,-5.14631 -0.44786,-1.2864 -1.40205,12.10334 -1.21973,17.1161 -2.67012,32.33992 -3.12433,32.79414 -0.49361,0.4936 -0.57706,-0.19405 -0.28488,-2.34721 0.26149,-1.92679 0.069,-34.06868 -0.19439,-32.46568 -0.98832,6.01447 -1.4904,8.38208 -1.89479,8.9351 -0.39885,0.5455 -0.50032,-0.39463 -0.54221,-5.02475 -0.0284,-3.1327 -0.20804,-6.23022 -0.39933,-6.88337 -0.34602,-1.18158 -0.35028,-1.17759 -0.84863,0.79354 -0.27548,1.0896 -0.65018,3.41976 -0.83264,5.17813 -0.18248,1.75837 -0.59957,3.81165 -0.92686,4.56286 -0.5715,1.31178 -0.59899,1.15387 -0.69453,-3.99057 -0.0547,-2.94603 -0.12401,-6.51696 -0.15396,-7.93542 -0.0619,-2.93011 -2.11334,-10.31306 -2.86608,-10.31488 -0.52728,-10e-4 -1.92645,1.73667 -3.35306,4.16494 -0.84783,1.4431 -0.93327,2.05503 -0.94165,6.7451 -0.005,2.83691 -0.14955,5.3812 -0.321,5.65398 -1.07815,1.71515 -1.94873,-1.03317 -2.01538,-6.36215 -0.0741,-5.92692 -0.5153,-6.51963 -1.66791,-2.2409 -2.39704,8.89826 -2.85284,12.32022 -3.11465,23.38276 -0.13686,5.78293 -0.38147,11.49643 -0.54356,12.69666 l -0.29471,2.18224 -0.25506,-1.58708 c -0.14028,-0.8729 -0.45194,-6.49712 -0.69258,-12.49828 -0.48397,-12.06946 -0.68974,-14.20593 -0.76427,-7.93541 -0.0695,5.8525 -0.77158,15.0329 -1.20917,15.81222 -0.33658,0.59945 -0.38942,0.59579 -0.6359,-0.044 -0.14785,-0.38375 -0.3855,-1.63358 -0.52814,-2.77739 l -0.25932,-2.07966 -0.50368,3.17417 c -0.36965,2.32927 -0.39519,3.80783 -0.096,5.55479 0.44812,2.61657 0.53721,7.42891 0.16338,8.82368 -0.47405,1.76875 -0.81968,0.46098 -0.63572,-2.40545 0.16394,-2.55464 0.0161,-3.46205 -1.14987,-7.05558 l -1.33802,-4.1239 0.006,-8.62976 c 0.01,-14.32216 -0.58627,-10.56576 -1.36871,8.62976 -0.46969,11.52284 -0.94155,16.46598 -1.57182,16.46598 -0.17591,0 -0.42143,-2.06294 -0.54561,-4.58432 -0.16435,-3.33705 -0.40811,-4.86261 -0.89594,-5.60712 -1.01295,-1.54596 -1.36458,-0.49835 -1.09846,3.27261 0.15628,2.21449 0.0859,3.32117 -0.22349,3.51236 -0.3135,0.19374 -0.45167,-0.29748 -0.45167,-1.60569 0,-3.14327 -0.88705,-10.85867 -1.24844,-10.85867 -0.18625,0 -0.34138,1.20519 -0.34472,2.67821 -0.01,4.28349 -0.9837,4.88546 -1.45576,0.89971 -0.19782,-1.67029 -0.32868,-1.91917 -0.80238,-1.52603 -0.48617,0.40348 -0.52657,-0.0165 -0.28636,-2.97683 0.25128,-3.09688 -0.0814,-9.11348 -0.96907,-17.52489 l -0.2931,-2.7774 -0.53705,1.68628 c -0.29539,0.92745 -0.66414,1.68627 -0.81946,1.68627 -0.15532,0 -0.51048,-0.84809 -0.78923,-1.88466 -0.70614,-2.62577 -1.18339,-2.97674 -1.18339,-0.87027 0,0.97253 -0.18362,2.39198 -0.40804,3.15432 -0.22443,0.76235 -0.42458,3.1067 -0.4448,5.20968 -0.0616,6.41223 -0.73902,5.888 -1.3519,-1.0462 -0.55184,-6.24374 -1.75025,-7.59636 -2.25639,-2.54675 -0.16227,1.61893 -0.39131,3.19656 -0.50897,3.50583 -0.42406,1.11461 -1.04759,-0.2629 -1.26643,-2.79785 -0.11993,-1.38914 -0.40073,-2.87882 -0.62401,-3.3104 -0.40442,-0.78175 -0.4071,-0.78175 -0.71252,0 -0.16862,0.43158 -0.32257,3.19507 -0.34212,6.14109 -0.0351,5.29652 -0.65949,9.28814 -1.41557,9.05014 -0.24039,-0.0757 -0.33474,-2.25483 -0.24582,-5.67759 0.14207,-5.4683 -0.3489,-9.21555 -1.14312,-8.7247 -0.49302,0.30471 -0.71842,-0.93969 -0.89911,-4.96389 -0.14189,-3.15985 -0.25548,-3.53519 -1.80119,-5.95156 -0.90737,-1.41845 -1.65145,-2.97233 -1.65352,-3.45307 -0.006,-1.4225 -0.86825,-2.89794 -1.83509,-3.1406 -0.49594,-0.12448 -2.10914,0.0491 -3.58488,0.38571 -3.12192,0.71211 -3.75024,1.34396 -4.69904,4.72544 -0.73263,2.61109 -1.39111,2.65978 -1.39111,0.10286 0,-3.06751 -0.95057,-3.92835 -2.21198,-2.00319 -0.5368,0.81926 -0.60168,1.68883 -0.39227,5.25721 0.2246,3.82727 0.19353,4.15078 -0.29638,3.08528 -0.5165,-1.12333 -1.03884,-3.11451 -1.76941,-6.7451 -0.26397,-1.31181 -0.4814,-1.58709 -1.25358,-1.58709 -0.55844,0 -1.26379,0.44141 -1.75353,1.09736 -0.79168,1.06037 -0.96302,2.40216 -1.43055,11.20253 -0.0774,1.45764 -0.67178,-0.20294 -1.42008,-3.9677 -0.39037,-1.96402 -0.81489,-5.79504 -0.94336,-8.51339 l -0.23368,-4.94245 -1.58708,-1.09161 c -0.87289,-0.60038 -2.06658,-1.20486 -2.65264,-1.34328 l -1.06557,-0.25168 0.0522,4.69865 c 0.0373,3.3576 -0.13988,5.3736 -0.62071,7.06345 -0.37009,1.30063 -0.68072,2.99683 -0.6903,3.76932 -0.01,0.77249 -0.28494,2.11872 -0.61192,2.99161 -0.38894,1.03833 -0.77776,4.78744 -1.12453,10.84299 -0.5038,8.79784 -0.95136,11.29343 -1.63822,9.13468 -0.48134,-1.51279 -0.30623,-13.22806 0.24881,-16.64583 0.54849,-3.37746 0.33143,-5.04627 -1.20746,-9.2834 -0.39629,-1.09112 -1.02263,-2.83195 -1.39187,-3.86851 -0.59044,-1.65751 -0.80927,-1.88466 -1.81562,-1.88466 -1.48104,0 -3.73392,2.20895 -4.10142,4.02143 -0.14886,0.73424 -0.36138,3.03117 -0.47225,5.10429 -0.33631,6.28854 -0.5841,8.07479 -1.05484,7.60405 -0.26045,-0.26045 -0.4938,-3.80492 -0.61029,-9.27008 -0.10373,-4.86661 -0.34768,-9.1542 -0.5421,-9.52796 -0.54447,-1.04673 -1.3976,-0.43902 -2.5059,1.78505 -0.77707,1.55936 -1.00965,2.63336 -1.00965,4.66213 0,1.44981 -0.33998,3.96532 -0.75551,5.59002 -0.78101,3.05372 -1.62512,10.10506 -1.62512,13.57557 0,1.0896 -0.0803,1.90078 -0.17843,1.80264 -0.42161,-0.42161 -1.45231,-9.02296 -1.25442,-10.46824 0.11952,-0.8729 0.32835,-2.31789 0.46405,-3.21109 0.20938,-1.37815 0.01,-2.09895 -1.32008,-4.76125 -0.86175,-1.72548 -1.97498,-4.37641 -2.47384,-5.89096 -0.49886,-1.51454 -1.33573,-3.18242 -1.85972,-3.70641 -0.85813,-0.85813 -1.0365,-0.89704 -1.79709,-0.39203 -1.57416,1.0452 -1.96863,3.17883 -2.32116,12.55471 -0.18357,4.88219 -0.43094,8.97388 -0.5497,9.09266 -0.55273,0.55272 -0.78641,-0.73364 -1.04981,-5.77895 -0.32156,-6.15951 -1.33979,-15.53913 -1.88806,-17.39233 -0.20082,-0.67881 -0.56957,-1.61618 -0.81942,-2.08305 l -0.45429,-0.84885 H 375.36263 479.92567 V 477.62695 609.75158 H 291.06284 102.2 Z"
       id="path7198"
       inkscape:connector-curvature="0"
       sodipodi:nodetypes="ccscsssssscscssscssssscsssscccccsccsssccccccccccsccccssssccscsssscssccscccsccssccccccccccccccccccccccccccccccscccccccccccccsccsccccccsscccccccssccscsccssccccscccccccccccccccsccscccccccccccsccccccccssccccccccccccssssccsscscscccscsscsscscscsscscscssssscsscssccscccsccssscsscsccscscssccccccscscccccccccc" />
    <path
       style="opacity:1;fill:#000000;fill-opacity:1;fill-rule:nonzero;stroke:none;stroke-width:3.10691738;stroke-miterlimit:4;stroke-dasharray:none;stroke-opacity:1"
       d="m 155.06351,396.34498 c -0.52037,-4.4953 -0.63776,7.92537 -2.3372,16.68348 -1.6198,-10.85418 -1.89293,-16.80384 -1.87694,-20.48082 -0.09,-15.68583 -1.20072,-39.44846 -1.98261,-42.71514 -1.60017,3.37907 -1.07157,12.66985 -3.90014,15.71291 -1.28456,-1.97917 -1.37192,-2.64962 -2.12546,-5.19035 -1.39825,-4.71445 -1.86846,-9.89023 -2.10647,-10.14609 -1.52508,3.22082 -2.50733,4.94969 -3.86262,5.78485 -1.61105,-2.46673 -3.07707,-3.02639 -4.61448,-3.42587 -2.56454,0.77877 -7.56966,6.69174 -7.7926,8.62719 -0.28336,2.45999 -2.46086,23.84134 -2.46086,23.00586 -0.95434,-8.55048 -0.76915,-11.84545 -1.52387,-18.86172 -0.23123,-0.42111 -1.14946,25.93743 -1.35469,30.37054 -0.96129,20.76386 -1.62123,33.32536 -1.75901,33.48159 -0.14707,0.16675 -0.30834,-2.10815 -1.42423,-20.09078 -0.59144,-9.53106 -1.6577,-35.37766 -1.6577,-40.18325 0,-1.66258 -0.31089,-6.81042 -0.31089,-6.81042 -0.95072,2.86438 -2.76974,11.86627 -4.11145,14.3382 -1.3157,-2.93408 -2.62834,-9.84525 -3.31846,-13.218 -0.3333,-0.33329 -2.91599,50.94271 -2.91873,57.72854 -0.001,3.11823 -0.23018,4.46956 -0.8434,4.97849 -0.74684,0.61981 -0.84168,-3.86167 -0.84168,-39.77071 v -40.46923 h 49.09787 l 51.56429,-0.25118 c -0.74702,4.81404 -3.96304,6.95368 -5.97654,9.86037 -0.56271,-2.29357 -1.16788,-6.4516 -1.47701,-7.5645 -0.42028,3.07415 -1.19514,9.34678 -2.64757,9.39873 -1.73341,-2.22899 -1.79122,-3.96027 -2.91137,-7.09472 -0.61798,-3.47377 -2.20399,15.31885 -2.27199,19.35859 -0.0325,1.92885 -0.22703,5.39779 -0.43236,7.70876 -0.64014,7.20478 -1.42432,2.63308 -1.75774,-10.24746 -0.16596,-6.41128 0.27004,-13.84187 0.11163,-13.68347 -0.15841,0.15841 -2.02878,7.59237 -2.20025,10.88534 -1.32324,1.87157 -1.71665,-7.8818 -2.46802,-13.46064 -2.30357,21.40092 -4.20787,34.4583 -4.52751,37.03382 -0.36515,3.009 -0.81528,5.97592 -1.00028,6.59314 -0.52407,1.74838 -1.76006,-4.90962 -1.82291,-9.81957 -0.35563,-4.11585 -0.13366,-19.33965 -0.24186,-30.86152 -0.0892,-0.92584 -2.5238,23.25837 -2.75259,26.65313 -0.22879,3.39477 -0.70987,9.3014 -1.06907,13.12586 -0.64547,6.87254 -0.66192,6.9281 -1.41188,4.7695 -0.41734,-1.20122 -0.90902,-4.58282 -1.09262,-7.51466 -0.67652,-10.83984 -1.62529,-16.09238 -3.91296,-29.66915 l -1.61215,-10.80153 -0.56752,11.43279 c -0.19642,1.69739 -0.36499,6.85968 -0.54606,11.64321 -2.79289,6.8198 -3.49646,11.02688 -4.95004,23.15589 z"
       id="path7200"
       inkscape:connector-curvature="0"
       sodipodi:nodetypes="cccccscccsccscsssccscsccccccccsscccccccssccccccc" />
    <path
       style="opacity:1;fill:#000000;fill-opacity:1;fill-rule:nonzero;stroke:none;stroke-width:0.77672935;stroke-miterlimit:4;stroke-dasharray:none;stroke-opacity:1"
       d="m 202.83606,374.80614 c -0.17748,-0.354 -0.0919,-5.82562 0.16844,-10.77545 0.18274,-3.47391 0.0919,-6.63002 -0.23358,-8.11809 -0.63434,-2.8999 -0.78234,-5.24875 -0.47586,-7.55243 0.0748,-0.56252 0.17456,-1.44898 0.22162,-1.96993 l 0.0855,-0.94717 34.10013,0.0353 c 30.16857,0.0313 34.10754,0.0596 34.16442,0.24578 0.0519,0.16982 0.0284,0.17659 -0.12158,0.0351 -0.31421,-0.29643 -1.9996,-0.22339 -2.59777,0.11258 -0.62279,0.3498 -0.72641,0.45244 -1.2671,1.25514 -0.48438,0.7191 -0.72347,1.2894 -1.41149,3.36671 -0.70134,2.11753 -0.88116,3.5715 -0.69741,5.63901 0.15951,1.79472 0.0964,2.11024 -0.43833,2.19009 -0.18966,0.0283 -0.35285,-0.0699 -0.46617,-0.28055 -0.19493,-0.36239 -0.52902,-3.20004 -0.54188,-4.60267 -0.0128,-1.39465 -0.35966,-2.19933 -1.11616,-2.58931 -0.83619,-0.43107 -2.69787,0.77508 -4.33363,2.80767 -0.53511,0.66492 -1.05836,1.37702 -1.16279,1.58246 -0.10442,0.20543 -0.32883,0.59445 -0.49868,0.86449 -0.50904,0.8093 -0.96856,2.53375 -1.30833,4.90978 -0.16779,1.17344 -0.4121,10.05019 -0.41821,15.19529 -0.003,2.58228 -0.0462,3.38389 -0.18975,3.52746 -0.15421,0.15421 -0.21912,0.13462 -0.38177,-0.11523 -0.38387,-0.58965 -0.55468,-0.96807 -0.55468,-1.22888 0,-0.14549 -0.0631,-0.26452 -0.14028,-0.26452 -0.0771,0 -0.14028,-0.21721 -0.14028,-0.4827 0,-0.26549 -0.0631,-0.52171 -0.14028,-0.5694 -0.0772,-0.0477 -0.14027,-0.30391 -0.14027,-0.5694 0,-0.26548 -0.0631,-0.4827 -0.14028,-0.4827 -0.0771,0 -0.14028,-0.33456 -0.14028,-0.74348 0,-0.40891 -0.0535,-0.80345 -0.11894,-0.87675 -0.29519,-0.33074 -0.47179,-2.42734 -0.51661,-6.13317 -0.0524,-4.33369 -0.14288,-6.41477 -0.35815,-8.23847 -0.42746,-3.62137 -0.9519,-6.33829 -1.26024,-6.52885 -0.43108,-0.26642 -0.6414,1.81514 -1.53847,15.22618 -0.56208,8.40303 -0.79054,10.33329 -1.00449,8.48692 -0.2228,-1.92273 -0.41569,-5.30784 -0.53555,-9.39873 -0.11694,-3.9909 -0.18062,-4.80258 -0.53926,-6.87371 -0.21893,-1.2643 -0.73542,-3.57135 -1.23588,-5.52046 -0.27035,-1.05289 -0.54507,-2.1353 -0.61048,-2.40533 -0.10974,-0.453 -0.24268,-0.9413 -0.55378,-2.03406 -0.0659,-0.23146 -0.25655,-0.9252 -0.42367,-1.54164 -0.16713,-0.61645 -0.36989,-1.20036 -0.45058,-1.29759 -0.25272,-0.30451 -0.64575,-0.19441 -1.00979,0.28287 -0.39083,0.5124 -1.6276,3.06804 -1.6276,3.36323 0,0.10401 -0.0528,0.24909 -0.11731,0.32238 -0.13676,0.15538 -0.73376,2.05665 -1.12102,3.57012 -0.53648,2.09667 -0.76314,3.8971 -1.0066,7.99594 -0.0802,1.35019 -0.20795,3.08615 -0.2839,3.85769 -0.0759,0.77153 -0.13772,1.70626 -0.13728,2.07717 5.3e-4,0.37091 -0.0634,1.12842 -0.14194,1.68335 -0.0785,0.55494 -0.20783,1.48243 -0.2874,2.06108 -0.15571,1.13238 -0.37133,1.82364 -0.56884,1.82364 -0.0678,0 -0.12326,0.12625 -0.12326,0.28056 0,0.18703 -0.0935,0.28055 -0.28056,0.28055 -0.20574,0 -0.28056,-0.0935 -0.28056,-0.35069 0,-0.19289 -0.0688,-0.3507 -0.15284,-0.3507 -0.22141,0 -0.0802,-6.27096 0.21947,-9.74944 0.45638,-5.29668 0.29038,-9.87787 -0.50322,-13.88768 -0.68193,-3.44554 -1.60132,-5.2466 -2.3143,-4.53363 -0.49402,0.49403 -0.7893,2.92227 -1.04596,8.60174 -0.0802,1.77454 -0.2056,3.2864 -0.27867,3.3597 -0.0773,0.0775 -0.13287,1.78121 -0.13287,4.07512 0,2.3093 -0.0553,3.99718 -0.13359,4.07545 -0.0735,0.0735 -0.1635,1.20658 -0.20006,2.51802 -0.11792,4.22981 -0.47803,6.94351 -0.9214,6.94351 -0.47848,0 -0.59073,-0.85622 -0.50574,-3.85769 0.2407,-8.50016 0.24044,-9.16351 -0.004,-9.53629 -0.23401,-0.35714 -0.80383,-0.48337 -0.9698,-0.21482 -0.19871,0.32152 -0.51199,1.83018 -0.58994,2.84094 -0.0462,0.59871 -0.13772,1.08857 -0.20344,1.08857 -0.0657,0 -0.11948,0.22094 -0.11948,0.49098 0,0.58635 -0.14562,0.62833 -0.38577,0.11122 -0.12511,-0.2694 -0.17535,-1.35424 -0.17535,-3.78646 0,-2.17907 -0.0506,-3.40888 -0.14028,-3.40888 -0.0888,0 -0.14028,-1.02872 -0.14028,-2.8056 0,-1.77687 -0.0514,-2.80559 -0.14028,-2.80559 -0.0772,0 -0.14028,-0.30304 -0.14028,-0.67343 0,-0.99738 -0.24873,-1.44868 -0.77154,-1.39989 -0.32949,0.0307 -0.43103,0.11539 -0.46779,0.38997 -0.0258,0.19288 -0.10472,0.41067 -0.17534,0.48396 -0.0706,0.0733 -0.12841,0.62565 -0.12841,1.22745 0,0.63593 -0.0588,1.09418 -0.14028,1.09418 -0.0873,0 -0.14027,0.79216 -0.14027,2.09591 0,1.24596 -0.0569,2.13108 -0.14028,2.18262 -0.0772,0.0477 -0.14028,0.43431 -0.14028,0.85918 0,0.7766 -0.17436,1.31515 -0.42578,1.31515 -0.0744,0 -0.13534,-0.0947 -0.13534,-0.21042 0,-0.11573 -0.0631,-0.21042 -0.14028,-0.21042 -0.0772,0 -0.14028,-0.15781 -0.14028,-0.3507 0,-0.19288 -0.0496,-0.3507 -0.11011,-0.3507 -0.0606,0 -0.18797,-0.36297 -0.28313,-0.8066 -0.0952,-0.44364 -0.23907,-1.09068 -0.3198,-1.43787 -0.0807,-0.34719 -0.18093,-0.86837 -0.22267,-1.15818 -0.0417,-0.28982 -0.13234,-0.56183 -0.20134,-0.60447 -0.069,-0.0427 -0.12547,-0.35416 -0.12547,-0.69224 0,-0.33809 -0.0631,-0.65372 -0.14028,-0.7014 -0.0772,-0.0477 -0.14028,-0.24905 -0.14028,-0.44747 0,-0.33395 -0.0365,-0.35485 -0.49078,-0.28113 -0.66307,0.1076 -0.73496,-0.0595 -1.01554,-2.36075 l -0.23052,-1.89058 h -0.40751 c -0.5727,0 -1.22236,0.49519 -1.22236,0.93171 0,0.44285 -0.62988,2.33572 -0.92931,2.79272 -0.12386,0.18903 -0.3067,0.34368 -0.40631,0.34368 -0.19651,0 -0.28285,0.5324 -0.42087,2.59518 -0.11262,1.68322 -0.31941,2.69297 -1.16351,5.68132 -0.58427,2.06849 -0.68963,2.63108 -0.8801,4.69937 -0.21782,2.36533 -0.34432,4.48402 -0.54025,9.04803 -0.0878,2.04458 -0.22024,3.98209 -0.29437,4.30558 -0.0741,0.32349 -0.13478,1.02993 -0.13478,1.56987 0,0.53993 -0.0631,1.02071 -0.14028,1.06839 -0.0772,0.0477 -0.14028,0.36704 -0.14028,0.70968 0,0.34264 -0.0631,0.62298 -0.14028,0.62298 -0.0771,0 -0.14028,0.15009 -0.14028,0.33352 0,0.3482 -0.30917,0.71335 -0.46882,0.5537 -0.0508,-0.0508 -0.0923,-0.20803 -0.0923,-0.34948 0,-0.14145 -0.0631,-0.25718 -0.14028,-0.25718 -0.0831,0 -0.14028,-0.51436 -0.14028,-1.26252 0,-0.74816 0.0571,-1.26251 0.14028,-1.26251 0.0811,0 0.14028,-0.44422 0.14028,-1.0521 0,-0.60788 0.0592,-1.0521 0.14028,-1.0521 0.08,0 0.14028,-0.41808 0.14028,-0.97368 0,-0.53552 0.0631,-1.01269 0.14028,-1.06037 0.18234,-0.11269 0.18972,-4.93912 0.008,-5.00331 -0.081,-0.0286 -0.16041,-4.33568 -0.20395,-11.05871 -0.0577,-8.9142 -0.11039,-11.19773 -0.27645,-11.98719 -0.19652,-0.93427 -0.50955,-1.4088 -0.85424,-1.29494 -0.0803,0.0265 -0.31305,1.0216 -0.51729,2.21129 -0.20423,1.1897 -0.44732,2.51028 -0.54019,2.93462 -0.0929,0.42435 -0.21667,1.00569 -0.27511,1.29187 -0.0584,0.28618 -0.21579,0.6875 -0.34967,0.89183 -0.39226,0.59868 -0.7783,2.22413 -0.7783,3.27715 0,0.5365 -0.0631,1.01447 -0.14028,1.06215 -0.1916,0.11842 -0.1916,7.50496 0,7.50496 0.0871,0 0.14028,0.77793 0.14028,2.05323 0,1.12927 0.0631,2.59695 0.1402,3.2615 0.0771,0.66455 0.20939,2.1236 0.29395,3.24233 0.34648,4.75208 -0.30655,9.892 -2.6347,14.04917 -3.44683,-7.22816 -3.25519,-8.67699 -5.25872,-16.24956 z"
       id="path7202"
       inkscape:connector-curvature="0"
       sodipodi:nodetypes="cccccccccccsccccccccccccssscsssccccssccccccccscccccccssssscccccscssscccsscssssscccssscssssssccccscscccsscscccccscssssssssssscccscccccscsssccc" />
  </g>
</svg>
