<?xml version="1.0" encoding="UTF-8" standalone="no"?>
<!-- Created with Inkscape (http://www.inkscape.org/) -->

<svg
   xmlns:dc="http://purl.org/dc/elements/1.1/"
   xmlns:cc="http://creativecommons.org/ns#"
   xmlns:rdf="http://www.w3.org/1999/02/22-rdf-syntax-ns#"
   xmlns:svg="http://www.w3.org/2000/svg"
   xmlns="http://www.w3.org/2000/svg"
   xmlns:sodipodi="http://sodipodi.sourceforge.net/DTD/sodipodi-0.dtd"
   xmlns:inkscape="http://www.inkscape.org/namespaces/inkscape"
   width="515.28644mm"
   height="365.42984mm"
   viewBox="0 0 515.28644 365.42984"
   version="1.1"
   id="svg1926"
   inkscape:version="0.92.4 (5da689c313, 2019-01-14)"
   sodipodi:docname="parallax0.svg">
  <defs
     id="defs1920" />
  <sodipodi:namedview
     id="base"
     pagecolor="#ffffff"
     bordercolor="#666666"
     borderopacity="1.0"
     inkscape:pageopacity="0.0"
     inkscape:pageshadow="2"
     inkscape:zoom="0.35"
     inkscape:cx="1163.692"
     inkscape:cy="587.71893"
     inkscape:document-units="mm"
     inkscape:current-layer="layer1"
     showgrid="false"
     inkscape:window-width="1858"
     inkscape:window-height="1057"
     inkscape:window-x="54"
     inkscape:window-y="-8"
     inkscape:window-maximized="1" />
  <metadata
     id="metadata1923">
    <rdf:RDF>
      <cc:Work
         rdf:about="">
        <dc:format>image/svg+xml</dc:format>
        <dc:type
           rdf:resource="http://purl.org/dc/dcmitype/StillImage" />
        <dc:title></dc:title>
      </cc:Work>
    </rdf:RDF>
  </metadata>
  <g
     inkscape:label="Calque 1"
     inkscape:groupmode="layer"
     id="layer1"
     transform="translate(532.05394,212.28634)">
    <path
       style="opacity:1;fill:#327097;fill-opacity:1;fill-rule:nonzero;stroke:none;stroke-width:4.76425934;stroke-miterlimit:4;stroke-dasharray:none;stroke-opacity:1"
       d="m -512.85048,68.555526 c -4.47417,-12.14056 -11.16087,-42.9628 -13.84047,-63.7974696 -0.79125,-6.15214 -2.21384,-14.28329 -3.16131,-18.0692104 -0.94747,-3.78592 -1.92395,-7.76507 -2.16995,-8.84256 -0.47611,-2.08539 4.50871,-26.43884 8.05279,-39.34205 2.25817,-8.22148 6.707,-17.31908 9.22314,-18.86078 2.51714,-1.54232 3.98445,1.50688 4.08299,8.48486 0.0903,6.39474 0.93885,10.94203 1.77403,9.50681 0.27261,-0.46847 0.75096,-3.17495 1.06301,-6.0144 1.38358,-12.58989 4.90287,-24.55788 7.20718,-24.50935 2.2488,0.0474 2.74967,2.04152 3.30822,13.1712 0.32655,6.50679 0.95506,12.05385 1.39668,12.32678 1.48085,0.91522 2.48527,-1.14983 4.08872,-8.40621 1.95735,-8.85797 3.63832,-13.857 4.62221,-13.74598 0.4093,0.0462 0.67918,11.0833 0.59972,24.52694 -0.14311,24.21633 0.18829,27.28486 2.67792,24.79524 1.49463,-1.49463 3.1535,-15.77816 3.73355,-32.14725 0.58237,-16.43479 2.02875,-24.83609 4.27583,-24.83609 0.73266,0 1.46655,1.27356 1.82021,3.15873 0.61416,3.27373 -0.0772,22.04968 -1.04802,28.46242 -0.44161,2.91708 -0.29362,3.65686 0.73156,3.65686 1.97897,0 3.31628,-8.1148 3.86401,-23.44697 0.26628,-7.45355 0.81641,-13.55192 1.22253,-13.55192 0.40612,0 0.73839,1.52594 0.73839,3.39098 0,1.86504 0.39532,3.6353 0.87847,3.9339 1.72146,1.06393 3.46553,-5.78804 4.33003,-17.011466 1.01067,-13.12094 1.2664,-14.29806 2.77788,-12.78658 0.73995,0.73994 1.13726,6.71648 1.35646,20.40458 0.22358,13.960796 0.58281,19.267176 1.28844,19.031966 1.38409,-0.46136 2.16812,-5.77274 2.22573,-15.07817 0.0316,-5.109036 0.36119,-7.817256 0.91002,-7.478056 0.50231,0.31044 0.86044,5.192596 0.86044,11.729796 0,10.20101 0.13407,11.17235 1.50577,10.90967 1.3308,-0.25484 1.55576,-1.78686 1.93599,-13.18479 0.40527,-12.148406 0.47346,-12.559556 1.17579,-7.088466 1.14214,8.897246 2.43836,7.717906 3.53367,-3.21507 0.99671,-9.94888 1.99857,-6.53597 2.62449,8.940576 0.47123,11.65148 0.90375,15.57036 1.71847,15.57036 1.77572,0 2.2187,-2.38941 2.75174,-14.84258 0.67236,-15.707936 1.39828,-15.700726 3.34985,0.0333 0.98851,7.96962 3.35814,4.28797 3.75962,-5.841236 0.4671,-11.78505 1.50889,-7.70037 2.08479,8.174166 0.34337,9.46483 0.78062,17.69278 0.97165,18.28434 0.49258,1.52533 2.69912,1.33467 3.3214,-0.28699 1.02348,-2.66718 4.73686,-31.114476 5.71881,-43.810526 0.90749,-11.73337 1.68642,-17.01573 1.68642,-11.43668 0,3.32437 0.99031,7.5647 1.76671,7.5647 0.38015,0 1.18901,-2.22449 1.79744,-4.94331 l 1.10628,-4.9433 0.81142,2.82928 c 0.5298,1.84731 1.27363,2.74027 2.14313,2.57282 1.48561,-0.28611 2.57402,-3.41038 8.02986,-23.04955 l 3.70504,-13.33681 0.4666,4.73242 c 0.53046,5.38023 0.12702,6.22029 4.33903,-9.03462 l 2.37575,-8.60439 0.0737,9.46483 c 0.0931,11.96889 0.86968,18.65829 2.11814,18.24654 0.52364,-0.1727 1.92009,-5.70401 3.1032,-12.29181 l 2.15109,-11.9778 0.43182,9.03461 c 0.23749,4.96904 0.66876,8.06662 0.95835,6.88352 0.28961,-1.18311 0.5793,1.43048 0.64376,5.80796 0.0646,4.38874 0.48501,7.95907 0.93715,7.95907 0.86072,0 2.56998,-5.22997 2.6715,-8.17418 0.0545,-1.57877 0.12367,-1.56086 0.83823,0.21699 0.42836,1.06582 1.04163,6.00259 1.36284,10.9706 0.32118,4.968 0.71612,9.03274 0.87762,9.03274 0.16153,0 1.05333,-0.65045 1.98181,-1.44543 1.07537,-0.92078 1.93783,-3.18507 2.37604,-6.23819 0.66167,-4.60997 0.70432,-4.4482 1.11813,4.24186 0.67177,14.10723 2.64882,11.40573 4.72276,-6.4533 l 1.09913,-9.46483 0.10059,7.02825 c 0.17452,12.19361 1.99956,13.3308 3.56518,2.22147 1.2354,-8.76609 2.07973,-11.40082 3.65364,-11.40082 0.8074,0 1.43248,2.63775 2.15299,9.0854 0.5584,4.99697 1.24433,9.45606 1.52434,9.90909 1.32226,2.13947 2.1122,-0.86325 2.12421,-8.07467 0.0127,-7.65911 0.82635,-11.3211 2.06865,-9.31101 0.31683,0.51264 0.81287,7.52354 1.1023,15.57977 0.41061,11.42938 0.78031,14.64768 1.68259,14.64768 0.92144,0 1.15636,-2.88396 1.15636,-14.19725 0,-12.93205 0.68763,-17.08737 2.09423,-12.6555 0.82056,2.5853 2.17663,30.23608 1.61949,33.02176 -0.30305,1.51528 -0.12922,2.85227 0.41455,3.18834 0.64844,0.40076 0.31388,2.95424 -1.08773,8.30219 l -2.02422,7.723416 -0.0911,-7.313726 c -0.0631,-5.0635 -0.34774,-6.91664 -0.9252,-6.02308 -0.5806,0.8984 -0.84605,-0.67062 -0.87344,-5.16264 -0.0485,-7.96075 -0.95528,-6.6577 -2.99381,4.3022 -0.83619,4.4958 -1.85695,8.54201 -2.26833,8.99159 -0.42756,0.4673 -0.75358,-3.58675 -0.76112,-9.46483 -0.007,-5.65524 -0.32795,-10.77832 -0.71269,-11.38462 -0.44505,-0.70136 -1.45187,1.57999 -2.76775,6.27133 -1.97284,7.03359 -2.10862,7.25596 -2.94418,4.82099 -1.43891,-4.19334 -1.85258,-3.87144 -3.44392,2.67975 -2.39019,9.840076 -2.89647,10.446306 -3.07213,3.67865 -0.086,-3.31269 -0.42796,-7.18467 -0.75993,-8.6044 -0.55484,-2.37282 -0.75923,-2.06007 -2.53029,3.87198 -1.05966,3.54931 -2.2265,7.42129 -2.59295,8.6044 -0.98443,3.178306 -2.11034,2.337796 -3.11137,-2.32266 -1.13069,-5.26424 -2.11812,-3.832 -2.63853,3.827076 -0.21709,3.19512 -0.7834,11.61727 -1.25846,18.7159 -1.26349,18.88012 -4.66138,39.11304 -6.28158,37.40418 -0.21137,-0.22291 -0.81457,-9.69803 -1.34048,-21.05583 -0.52592,-11.3578 -1.20203,-24.63082 -1.50252,-29.49559 -0.53091,-8.595796 -0.59203,-8.803686 -2.16805,-7.377396 -2.00697,1.816266 -3.79561,7.981116 -5.03526,17.354786 -1.07497,8.12847 -1.56546,9.8135 -2.65972,9.1372 -0.42368,-0.26183 -0.81611,-4.80918 -0.87209,-10.10522 -0.056,-5.29604 -0.38399,-10.79075 -0.72888,-12.21048 l -0.62704,-2.58132 -1.38443,3.10851 c -1.73569,3.89721 -3.1619,12.51585 -3.18762,19.26292 -0.0109,2.83945 -0.35584,5.6933 -0.76668,6.34188 -1.04111,1.64349 -2.14657,-14.94894 -1.37147,-20.58475 0.49083,-3.56864 0.37925,-4.38918 -0.55663,-4.09359 -0.64378,0.20334 -1.77906,1.56421 -2.52283,3.02414 -1.12638,2.21103 -1.49259,2.43203 -2.19212,1.32304 -1.70686,-2.70595 -7.75902,9.54725 -9.31503,18.85923 -0.28943,1.73198 -0.89136,9.86314 -1.33763,18.06922 -0.44627,8.20609 -1.16401,16.08174 -1.59496,17.50147 -0.51557,1.69846 -0.62857,-1.27556 -0.33041,-8.69548 0.49141,-12.22875 0.0351,-15.82703 -2.00705,-15.82703 -2.63102,0 -3.92475,5.81919 -4.66905,21.00117 -0.39656,8.08889 -0.92236,15.67505 -1.16851,16.85816 -0.24608,1.18309 -0.67672,3.23173 -0.95689,4.5525 -0.30358,1.43103 -0.88764,2.16763 -1.44544,1.8229 -0.64373,-0.39785 -0.83735,-6.38283 -0.6201,-19.16721 0.27995,-16.47399 0.1601,-18.61886 -1.0536,-18.85344 -1.28339,-0.24806 -3.34643,5.1743 -5.57451,14.65157 -1.04878,4.46108 -1.84512,2.35852 -2.44418,-6.4533 -0.65189,-9.58898 -1.64459,-11.80374 -4.58525,-10.22994 -1.78936,0.95764 -4.06265,7.68476 -5.06285,14.98197 -0.73593,5.36919 -1.88915,5.18109 -2.21462,-0.36121 -0.18674,-3.17989 -0.70386,-4.6963 -1.83388,-5.37775 -1.3245,-0.79872 -2.03779,-0.41786 -4.50288,2.40426 -3.78227,4.33009 -5.67582,9.52976 -9.94174,27.29997 -2.4751,10.3103304 -3.8389,14.5197804 -4.7042,14.5197804 -1.54679,0 -1.52398,-2.72908 0.0971,-11.6159304 2.53971,-13.92293 2.53293,-13.00818 0.1143,-15.42682 -1.21671,-1.21671 -2.78148,-2.21218 -3.47727,-2.21218 -0.69579,0 -2.84731,1.64557 -4.78117,3.65686 -4.31551,4.48828 -6.07812,9.86689 -6.07812,18.54732 0,5.5174604 -0.43203,7.3607604 -3.12092,13.3160504 -1.97842,4.38177 -3.86471,10.7211596 -5.15273,17.3170896 -1.75317,8.97802 -2.80113,11.93898 -7.64152,21.59068 -6.96639,13.89092 -7.27774,15.36245 -4.65007,21.97793 1.11981,2.81925 2.32095,5.12591 2.66922,5.12591 1.29019,0 -0.34975,2.42676 -1.91688,2.83657 -1.27415,0.33322 -1.90818,-0.34457 -2.93906,-3.14185 z"
       id="path1838"
       inkscape:connector-curvature="0" />
    <path
       style="opacity:1;fill:#327097;fill-opacity:1;fill-rule:nonzero;stroke:none;stroke-width:4.76425934;stroke-miterlimit:4;stroke-dasharray:none;stroke-opacity:1"
       d="m -338.03716,-108.17459 c -0.6199,-23.95862 0.0523,-42.98233 1.53897,-43.55281 0.71678,-0.27506 1.21206,1.16283 1.56559,4.54515 0.62397,5.96991 1.26458,7.81673 2.7114,7.81673 2.09278,0 2.88242,-2.20588 3.9524,-11.04075 1.20425,-9.94365 2.00588,-9.87754 2.88361,0.23781 0.86723,9.99444 1.80123,10.51801 2.94802,1.65256 1.15758,-8.94874 2.46618,-14.08148 3.59013,-14.08148 0.44199,0 0.98417,0.87119 1.20486,1.93599 0.42251,2.03841 2.21924,19.97452 2.2152,22.11329 -0.003,0.79602 0.29628,0.94901 0.82264,0.42265 0.45373,-0.45375 1.2528,-7.21035 1.7757,-15.01467 0.52289,-7.80432 1.3549,-15.24159 1.84888,-16.52727 0.93199,-2.42573 3.80973,-3.96912 5.02573,-2.69541 0.96552,1.01137 4.13436,16.09939 5.6547,26.92429 0.69406,4.94159 1.41994,9.14273 1.61309,9.33588 0.89532,0.89531 2.0991,-1.01667 2.73436,-4.34295 l 0.69752,-3.65235 0.47078,4.30219 c 0.25892,2.36621 0.13552,4.77341 -0.27422,5.34933 -0.40973,0.57591 -1.28333,6.96468 -1.94133,14.19724 -1.48664,16.34124 -2.92354,26.373776 -3.86024,26.952686 -1.61824,1.00014 -2.71907,-3.84032 -3.11367,-13.691376 -0.4858,-12.12746 -1.39832,-16.02931 -3.7488,-16.02931 -2.24907,0 -3.16103,2.08214 -4.86892,11.11666 -0.81235,4.29715 -1.78334,7.81301 -2.15778,7.81301 -0.37444,0 -0.69765,-2.03279 -0.71826,-4.51731 -0.045,-5.4183 -1.1656,-11.6574 -2.29709,-12.7889 -1.66661,-1.66661 -3.53131,0.34531 -4.92559,5.31446 -2.14103,7.63058 -3.40331,6.62501 -4.66556,-3.71673 -0.49694,-4.07165 -0.75739,-4.51185 -2.66956,-4.51185 -2.725,0 -3.07774,1.48283 -4.2984,18.06923 -1.01213,13.753026 -1.58109,17.638996 -2.58259,17.638996 -0.34383,0 -0.85302,-8.80874 -1.13157,-19.574986 z"
       id="path1840"
       inkscape:connector-curvature="0" />
    <path
       style="opacity:1;fill:#327097;fill-opacity:1;fill-rule:nonzero;stroke:none;stroke-width:4.76425934;stroke-miterlimit:4;stroke-dasharray:none;stroke-opacity:1"
       d="m -271.11324,-122.74423 c -0.36042,-0.85998 -0.89583,-6.67557 -1.18981,-12.92353 -0.69786,-14.83096 -2.37683,-16.80776 -6.54066,-7.70098 l -2.02705,4.43344 -0.0705,-3.12129 c -0.0395,-1.74893 -0.68133,-3.62824 -1.45979,-4.27429 -1.18959,-0.98729 -1.61446,-0.8749 -2.95611,0.78196 -0.86175,1.06423 -2.02094,4.14925 -2.57593,6.85561 -1.17824,5.74529 -2.47613,8.61501 -2.51732,5.56598 -0.0143,-1.0648 -0.36338,-1.93599 -0.77552,-1.93599 -0.42532,0 -0.4259,-1.7314 0,-4.00403 0.41142,-2.20221 1.12127,-8.9086 1.57747,-14.90307 0.45617,-5.99448 1.079,-11.54942 1.38403,-12.34432 0.88498,-2.30622 2.76466,-1.67482 3.38201,1.13604 0.31184,1.41973 0.89263,2.58132 1.29067,2.58132 0.7797,0 1.31268,-2.26244 2.12833,-9.03461 0.87329,-7.25078 1.40097,-9.03462 2.67245,-9.03462 0.67226,0 1.23296,0.2904 1.24598,0.64533 0.16298,4.44093 3.28001,28.75835 3.74597,29.22432 1.30993,1.30993 2.23102,-2.1562 2.33556,-8.78888 l 0.10848,-6.88352 1.14892,4.73242 c 2.03004,8.36176 2.77094,19.9148 1.91119,29.80212 -0.82118,9.44401 -1.61946,12.04834 -2.81704,9.19059 z"
       id="path1842"
       inkscape:connector-curvature="0" />
    <path
       style="opacity:1;fill:#327097;fill-opacity:1;fill-rule:nonzero;stroke:none;stroke-width:4.76425934;stroke-miterlimit:4;stroke-dasharray:none;stroke-opacity:1"
       d="m -245.73374,-156.72708 c 0,-5.65788 -0.34618,-8.5282 -1.10442,-9.15748 -1.76922,-1.46833 -2.89846,-0.0894 -4.67442,5.70792 l -1.6641,5.43227 -1.0796,-4.57183 c -1.47659,-6.2529 -0.98224,-13.93123 0.92019,-14.29266 0.8423,-0.16002 1.66362,0.45688 1.99395,1.49771 0.91046,2.86858 2.07227,2.04619 3.14873,-2.22882 0.88125,-3.49974 1.14086,-3.81538 2.0809,-2.52983 0.78882,1.0788 1.24425,1.19333 1.71521,0.43132 0.39193,-0.63416 1.37216,0.92143 2.52143,4.00139 l 1.88023,5.0389 -2.03843,8.62538 c -2.75939,11.67603 -3.69967,12.19596 -3.69967,2.04573 z"
       id="path1844"
       inkscape:connector-curvature="0" />
    <path
       style="opacity:1;fill:#327097;fill-opacity:1;fill-rule:nonzero;stroke:none;stroke-width:4.76425934;stroke-miterlimit:4;stroke-dasharray:none;stroke-opacity:1"
       d="m -213.84287,-149.69079 c -0.0447,-1.65635 -0.47866,-8.8195 -0.96438,-15.91813 -0.9616,-14.05318 -0.0138,-24.52252 2.22017,-24.52252 0.63524,0 1.4075,0.79571 1.71617,1.76825 0.92921,2.92771 2.26785,1.47683 4.04775,-4.38715 1.92318,-6.33595 2.92793,-7.82843 3.77833,-5.61231 0.35168,0.91645 0.10631,1.8159 -0.61711,2.26209 -0.93512,0.57676 -1.31361,4.60473 -1.70993,18.1975 -0.27993,9.60123 -0.57033,17.55358 -0.64532,17.67189 -0.075,0.11831 -0.52355,0.21511 -0.99679,0.21511 -0.47323,0 -0.86635,-1.45199 -0.8736,-3.22665 -0.0159,-3.8656 -1.17702,-6.28088 -1.99496,-4.14936 -0.28971,0.75497 -0.97213,4.7562 -1.51646,8.89164 -0.54432,4.13544 -1.2986,8.48698 -1.67616,9.67008 -0.62934,1.97208 -0.69323,1.90048 -0.76771,-0.86044 z"
       id="path1846"
       inkscape:connector-curvature="0" />
    <path
       style="opacity:1;fill:#327097;fill-opacity:1;fill-rule:nonzero;stroke:none;stroke-width:4.76425934;stroke-miterlimit:4;stroke-dasharray:none;stroke-opacity:1"
       d="m -202.71177,-185.22861 c 0,-9.14768 0.19801,-10.79591 1.24862,-10.39276 0.90617,0.34774 2.31603,-1.80512 5.1408,-7.84993 3.90054,-8.34694 5.5353,-9.74907 6.51716,-5.5898 0.72203,3.0585 2.31286,3.01499 3.92753,-0.10743 l 1.44717,-2.79849 1.16035,2.21462 c 0.97925,1.86895 0.96502,3.13659 -0.0911,8.12137 -0.68829,3.2487 -1.25815,7.69189 -1.26638,9.87373 -0.0246,6.51656 -1.01904,11.95113 -2.18702,11.95113 -0.77697,0 -1.25394,-3.16779 -1.70913,-11.35179 -0.70117,-12.60595 -0.96599,-12.79467 -5.2008,-3.70589 l -2.00457,4.30219 -0.0496,-2.93983 c -0.0273,-1.61691 -0.25096,-2.73843 -0.49713,-2.49227 -0.24614,0.24616 -1.55106,4.97132 -2.8998,10.50036 -1.34874,5.52904 -2.69613,10.29667 -2.99419,10.59474 -0.29808,0.29807 -0.54194,-4.35041 -0.54194,-10.32995 z"
       id="path1848"
       inkscape:connector-curvature="0" />
    <path
       style="opacity:1;fill:#327097;fill-opacity:1;fill-rule:nonzero;stroke:none;stroke-width:4.76425934;stroke-miterlimit:4;stroke-dasharray:none;stroke-opacity:1"
       d="m -163.11844,-175.47944 c -0.48045,-0.89775 -0.87357,-4.48771 -0.87357,-7.97768 0,-3.87544 -0.43905,-6.94585 -1.12795,-7.88797 -1.00719,-1.3774 -1.29982,-0.97488 -2.73322,3.75932 -1.72805,5.70734 -2.44745,5.53131 -3.37061,-0.82479 -0.93308,-6.42423 -1.90436,-6.90535 -3.44786,-1.70787 -0.75158,2.53084 -1.41251,5.59605 -1.46873,6.81157 -0.22278,4.81679 -2.31701,-6.64782 -2.39649,-13.11933 -0.0454,-3.69873 -0.41577,-7.37711 -0.82294,-8.17417 -1.1395,-2.23057 1.18743,-6.90553 3.75836,-7.55079 2.33799,-0.5868 4.72593,0.8104 4.72593,2.76518 0,0.65192 0.38719,1.18531 0.86043,1.18531 0.47326,0 0.86045,-0.7744 0.86045,-1.72088 0,-3.146 1.55985,-1.77703 2.20594,1.93599 l 0.63629,3.65686 1.04643,-2.50874 1.04643,-2.50874 0.949,2.93896 c 0.52197,1.61643 1.20343,4.58455 1.51443,6.59583 0.59295,3.83517 2.05787,5.04829 2.07806,1.72088 0.006,-1.06479 0.25379,-2.83992 0.54959,-3.94471 0.84466,-3.15457 1.89892,-0.46066 1.36822,3.49609 -0.25226,1.88057 -0.0914,3.67044 0.35737,3.97747 0.49977,0.34189 0.16227,4.29417 -0.87085,10.19807 -1.6931,9.67563 -3.06991,12.20038 -4.84471,8.88414 z"
       id="path1850"
       inkscape:connector-curvature="0" />
    <path
       style="opacity:1;fill:#327097;fill-opacity:1;fill-rule:nonzero;stroke:none;stroke-width:4.76425934;stroke-miterlimit:4;stroke-dasharray:none;stroke-opacity:1"
       d="m -154.46312,-189.86444 c -1.06244,-4.42872 -0.53467,-14.03403 0.7711,-14.03403 0.35028,0 0.8717,2.51465 1.15872,5.5881 0.28699,3.07346 0.93739,6.36464 1.44533,7.31374 0.50795,0.9491 0.5819,1.72563 0.16431,1.72563 -0.41756,0 -1.14522,0.86506 -1.617,1.92235 -0.77063,1.72704 -0.96594,1.47146 -1.92246,-2.51579 z"
       id="path1852"
       inkscape:connector-curvature="0" />
    <path
       style="opacity:1;fill:#327097;fill-opacity:1;fill-rule:nonzero;stroke:none;stroke-width:4.76425934;stroke-miterlimit:4;stroke-dasharray:none;stroke-opacity:1"
       d="m -145.91272,-181.95726 c -0.0246,-2.36621 -0.40793,-6.81595 -0.8519,-9.88831 -0.89072,-6.16389 -0.43418,-9.47158 1.30736,-9.47158 1.31297,0 1.78776,1.33202 2.60699,7.31374 0.32406,2.3662 0.93581,4.97095 1.35943,5.78831 0.82539,1.59261 -0.601,5.76465 -3.02207,8.83915 -1.28294,1.6292 -1.35753,1.49168 -1.39981,-2.58131 z"
       id="path1854"
       inkscape:connector-curvature="0" />
    <path
       style="opacity:1;fill:#327097;fill-opacity:1;fill-rule:nonzero;stroke:none;stroke-width:4.76425934;stroke-miterlimit:4;stroke-dasharray:none;stroke-opacity:1"
       d="m -131.8713,-178.73062 c -0.2871,-0.82817 -2.03592,-4.79338 -3.88626,-8.81158 -2.41395,-5.24214 -3.20355,-7.91567 -2.79527,-9.46483 l 0.56899,-2.15902 0.89442,1.93599 c 1.29609,2.80533 1.88934,2.42839 3.38556,-2.1511 l 1.33535,-4.08709 0.64961,3.67594 c 0.79094,4.47553 1.91111,5.40164 2.62133,2.16722 1.58956,-7.23893 3.03874,-5.32568 3.61447,4.77191 0.3605,6.32232 0.14449,8.46103 -1.1797,11.68064 -1.6987,4.13022 -4.21439,5.30966 -5.2085,2.44192 z"
       id="path1856"
       inkscape:connector-curvature="0" />
    <path
       style="opacity:1;fill:#327097;fill-opacity:1;fill-rule:nonzero;stroke:none;stroke-width:1.19106483;stroke-miterlimit:4;stroke-dasharray:none;stroke-opacity:1"
       d="m -262.03694,-148.82095 c -0.0498,-0.15663 -0.14793,-1.01078 -0.21807,-1.89811 -0.0701,-0.88733 -0.21709,-2.67812 -0.32657,-3.97953 -0.27244,-3.23779 -0.27752,-8.43834 -0.008,-8.60464 0.30541,-0.18876 0.5238,0.48576 1.72204,5.31926 l 1.06159,4.28211 -0.42132,1.33007 c -0.23173,0.73153 -0.54952,1.86229 -0.70623,2.51279 -0.19053,0.79087 -0.40545,1.20594 -0.64871,1.25278 -0.20005,0.0385 -0.40449,-0.0581 -0.45431,-0.21473 z"
       id="path1858"
       inkscape:connector-curvature="0" />
    <path
       style="opacity:1;fill:#327097;fill-opacity:1;fill-rule:nonzero;stroke:none;stroke-width:1.19106483;stroke-miterlimit:4;stroke-dasharray:none;stroke-opacity:1"
       d="m -233.09702,-168.08326 c -0.31909,-3.32466 -0.94253,-6.32337 -1.46598,-7.05142 -0.3869,-0.53809 -1.11826,-0.85468 -1.85632,-0.80354 -0.35391,0.0245 -0.3792,-0.0888 -0.24323,-1.08999 0.30866,-2.27254 1.57901,-5.2085 2.3591,-5.45229 0.1183,-0.037 0.6023,1.30057 1.07554,2.9723 0.90204,3.18648 1.344,3.90967 1.91785,3.13822 0.15362,-0.20654 0.33769,-0.93394 0.40902,-1.61645 0.19924,-1.90611 0.58058,-3.46608 0.93364,-3.81913 0.51615,-0.51615 0.70358,-0.36988 0.48638,0.37957 -0.11144,0.38451 -0.34382,2.7319 -0.51641,5.21641 -0.1818,2.61674 -0.4975,5.32721 -0.75036,6.44229 -0.41685,1.83824 -1.44169,4.21803 -1.87928,4.36389 -0.1156,0.0385 -0.322,-1.13839 -0.46995,-2.67986 z"
       id="path1860"
       inkscape:connector-curvature="0" />
    <path
       style="opacity:1;fill:#327097;fill-opacity:1;fill-rule:nonzero;stroke:none;stroke-width:4.76425934;stroke-miterlimit:4;stroke-dasharray:none;stroke-opacity:1"
       d="m -422.8566,136.81041 c -5.91378,-2.95425 -10.68866,-6.16852 -15.35967,-10.3396 -3.72798,-3.32896 -9.03456,-7.13565 -11.79241,-8.45928 l -5.01426,-2.4066 3.85139,-4.24749 c 2.11826,-2.33608 3.87387,-4.63465 3.90137,-5.10788 0.0275,-0.47326 0.76493,1.37652 1.63875,4.11059 2.44384,7.64643 4.91599,9.42843 8.13914,5.86687 1.83724,-2.03012 5.25007,-20.180884 6.16333,-32.779124 l 0.65493,-9.0346 2.86512,21.08076 c 1.57583,11.594414 3.48731,23.074874 4.24778,25.512134 2.2316,7.15227 9.15746,14.06268 12.72291,12.6945 0.71803,-0.27554 2.08468,-1.82161 3.03702,-3.43567 0.95231,-1.61409 2.12272,-2.93471 2.60088,-2.93471 0.47815,0 1.61766,1.54879 2.53225,3.44176 0.91458,1.89296 1.38075,3.44175 1.03592,3.44175 -0.3448,0 -2.7028,1.54879 -5.23994,3.44175 -2.53714,1.89299 -5.24076,3.44178 -6.008,3.44178 -0.76724,0 -5.25669,-1.92913 -9.97651,-4.28694 z"
       id="path1862"
       inkscape:connector-curvature="0" />
    <path
       style="opacity:1;fill:#327097;fill-opacity:1;fill-rule:nonzero;stroke:none;stroke-width:4.76425934;stroke-miterlimit:4;stroke-dasharray:none;stroke-opacity:1"
       d="m -465.25551,111.23288 c -3.30153,-1.70117 -4.33633,-2.66221 -3.92644,-3.64665 1.38999,-3.33833 2.03962,-7.900934 2.05858,-14.458394 0.0189,-6.54714 0.15587,-7.09861 1.7627,-7.09861 2.57519,0 3.4273,3.21907 4.20484,15.884814 0.37879,6.17048 0.62,11.31123 0.53602,11.42392 -0.084,0.11268 -2.17004,-0.83461 -4.6357,-2.10508 z"
       id="path1864"
       inkscape:connector-curvature="0" />
    <path
       style="opacity:1;fill:#327097;fill-opacity:1;fill-rule:nonzero;stroke:none;stroke-width:4.76425934;stroke-miterlimit:4;stroke-dasharray:none;stroke-opacity:1"
       d="m -357.39683,149.62514 c -4.25919,-0.38521 -12.58393,-1.49347 -18.49946,-2.46282 -5.9155,-0.96933 -13.65946,-1.7647 -17.20876,-1.76747 -4.24529,-0.003 -8.59126,-0.66578 -12.70188,-1.93617 l -6.24856,-1.93112 5.21761,-3.56528 c 4.68151,-3.199 5.46931,-3.4703 7.66749,-2.64057 3.4901,1.31736 6.65523,-0.89443 7.42477,-5.18845 0.54618,-3.04771 2.49179,-6.2447 3.80034,-6.2447 0.32499,0 1.04418,1.51289 1.59816,3.36195 1.37949,4.60434 5.39091,7.85829 16.64671,13.50328 10.16355,5.0972 10.97204,5.10664 10.99974,0.12845 0.019,-3.41452 1.42049,-2.91105 2.01006,0.72211 0.8123,5.00557 1.50874,5.36964 9.42899,4.92889 4.98998,-0.2777 9.34058,0.0895 14.76983,1.24667 l 7.69628,1.64028 -8.5567,0.56655 c -9.88349,0.65437 -13.39506,0.60156 -24.04462,-0.3616 z"
       id="path1866"
       inkscape:connector-curvature="0" />
    <path
       style="opacity:1;fill:#327097;fill-opacity:1;fill-rule:nonzero;stroke:none;stroke-width:4.76425934;stroke-miterlimit:4;stroke-dasharray:none;stroke-opacity:1"
       d="m -275.40405,148.19596 c 0.21598,-2.72113 0.56902,-5.13963 0.78457,-5.37448 0.21556,-0.23482 3.4008,-0.56359 7.07835,-0.73059 l 6.68646,-0.30364 0.55885,4.07734 c 0.80018,5.83787 0.72649,6.42879 -0.73179,5.86917 -0.70987,-0.27239 -1.29066,-0.0667 -1.29066,0.45723 0,0.61531 -2.3858,0.9525 -6.73921,0.9525 h -6.73921 z"
       id="path1868"
       inkscape:connector-curvature="0" />
    <path
       style="opacity:1;fill:#327097;fill-opacity:1;fill-rule:nonzero;stroke:none;stroke-width:4.76425934;stroke-miterlimit:4;stroke-dasharray:none;stroke-opacity:1"
       d="m -243.40035,143.79224 c -0.006,-2.19205 -0.25985,-4.91263 -0.56306,-6.04573 l -0.55131,-2.06018 8.09191,0.46932 c 9.90653,0.57454 17.1265,2.10341 17.1265,3.62656 0,0.61799 -1.34167,1.37531 -2.98148,1.68294 -1.63981,0.30763 -7.06056,1.85383 -12.04613,3.43601 l -9.06468,2.87666 z"
       id="path1870"
       inkscape:connector-curvature="0" />
    <path
       style="opacity:1;fill:#327097;fill-opacity:1;fill-rule:nonzero;stroke:none;stroke-width:4.76425934;stroke-miterlimit:4;stroke-dasharray:none;stroke-opacity:1"
       d="m -185.7188,137.01025 c 0.401,-12.69973 3.66831,-34.63269 5.15916,-34.63269 1.09948,0 1.70397,5.10742 1.70397,14.39688 0,7.66347 0.19399,8.94467 1.29067,8.52385 0.70987,-0.27242 1.8615,-0.27623 2.5592,-0.008 1.07993,0.41439 1.0916,0.66373 0.0785,1.67682 -0.65452,0.6545 -1.45917,2.78305 -1.78813,4.73007 -0.50054,2.96264 -1.07021,3.73731 -3.49263,4.74948 -3.17585,1.32699 -5.5425,1.56924 -5.51077,0.56412 z"
       id="path1872"
       inkscape:connector-curvature="0" />
    <path
       style="opacity:1;fill:#327097;fill-opacity:1;fill-rule:nonzero;stroke:none;stroke-width:1.68442011;stroke-miterlimit:4;stroke-dasharray:none;stroke-opacity:1"
       d="m -204.40444,137.79485 c 0.004,-0.58444 0.31707,-0.8613 1.5971,-1.41317 2.00626,-0.86495 2.68743,-0.86079 3.51626,0.0214 1.08474,1.15465 0.87529,1.72916 -0.63145,1.73226 -0.7111,0.003 -2.01161,0.0889 -2.89002,0.19447 -1.53548,0.18444 -1.59689,0.1638 -1.59189,-0.53502 z"
       id="path1874"
       inkscape:connector-curvature="0" />
    <path
       style="opacity:1;fill:#327097;fill-opacity:1;fill-rule:nonzero;stroke:none;stroke-width:1.68442011;stroke-miterlimit:4;stroke-dasharray:none;stroke-opacity:1"
       d="m -95.310277,102.46398 c -0.43302,-1.61579 -0.131,-3.504224 1.17721,-7.360904 0.75293,-2.21964 1.36895,-4.20277 1.36895,-4.4069 0,-0.20415 0.49848,-1.53154 1.10774,-2.94976 1.01814,-2.37 1.17191,-2.57111 1.90132,-2.48644 0.77732,0.0902 0.79187,0.13422 0.71083,2.14553 -0.0488,1.21081 0.0411,2.05343 0.21907,2.05343 0.16598,0 1.09305,-0.40008 2.0601,-0.88908 5.28294,-2.67131 9.65068,-4.57343 9.90889,-4.31525 0.15591,0.15595 0.30236,1.49339 0.32543,2.97209 0.0369,2.36771 -0.0582,2.8924 -0.79687,4.39658 -0.73207,1.49064 -1.08048,1.83595 -2.73791,2.71344 -1.04449,0.55298 -2.40974,1.32442 -3.03384,1.71434 -0.62413,0.38994 -1.24016,0.70927 -1.36896,0.70967 -0.12882,0 -0.18997,-1.16161 -0.13591,-2.58218 0.097,-2.54857 0.0874,-2.58786 -0.72023,-2.95585 -0.7426,-0.33834 -0.88513,-0.29546 -1.53717,0.46255 -0.42217,0.49083 -1.31731,2.70962 -2.1698,5.37834 l -1.4511,4.542874 -2.07084,0.771 c -2.51815,0.93752 -2.52876,0.93787 -2.75691,0.0865 z"
       id="path1876"
       inkscape:connector-curvature="0" />
    <path
       style="opacity:1;fill:#327097;fill-opacity:1;fill-rule:nonzero;stroke:none;stroke-width:2.38212967;stroke-miterlimit:4;stroke-dasharray:none;stroke-opacity:1"
       d="m -110.71276,-168.39896 c 0,-2.64164 -3.11071,-9.51892 -4.30554,-9.51892 -0.20624,0 -0.91413,2.32319 -1.57311,5.16263 -1.78969,7.71191 -2.32566,6.96434 -3.15481,-4.40031 -0.26238,-3.59618 -0.64664,-5.95374 -1.1194,-6.86799 -0.59716,-1.15479 -0.67193,-2.12823 -0.43846,-5.70985 0.38989,-5.98128 1.07809,-9.69546 1.79649,-9.69546 0.33327,0 0.68186,0.64304 0.81629,1.50577 l 0.46919,3.01153 c 0.12904,0.82818 0.37552,1.50577 0.54774,1.50577 0.17222,0 0.79211,-1.40359 1.37753,-3.11909 l 1.06439,-3.11909 0.29197,1.93598 c 0.1606,1.0648 0.30633,3.61856 0.32387,5.67503 0.0439,5.14519 1.32895,5.85391 1.98361,1.09397 0.15822,-1.15042 0.34393,-2.03087 0.41264,-1.95657 0.0687,0.0743 0.63609,4.87827 1.26077,10.67548 0.62471,5.79721 1.32887,10.88595 1.5648,11.30832 0.30808,0.55145 0.22958,1.18816 -0.2784,2.25865 -0.86024,1.81285 -1.03957,1.85669 -1.03957,0.25415 z"
       id="path1878"
       inkscape:connector-curvature="0" />
    <path
       style="opacity:1;fill:#327097;fill-opacity:1;fill-rule:nonzero;stroke:none;stroke-width:2.38212967;stroke-miterlimit:4;stroke-dasharray:none;stroke-opacity:1"
       d="m -105.26536,-159.73598 c -0.11774,-0.19051 -0.53628,-3.1452 -0.93009,-6.56597 -0.39381,-3.42077 -0.81367,-6.37762 -0.93303,-6.57076 -0.39761,-0.64333 -0.12234,-13.40897 0.32504,-15.07473 0.31904,-1.18785 0.64165,-1.6018 1.16962,-1.50076 0.64916,0.12423 0.75314,1.12891 0.94909,9.16912 0.14991,6.15102 0.39476,9.3382 0.76803,9.9976 0.65696,1.16054 1.23148,1.24049 1.54591,0.21511 0.12697,-0.41409 0.16452,0.9102 0.0834,2.94285 -0.0811,2.03266 -0.39325,4.16225 -0.69368,4.73242 -0.87657,1.66355 -2.05246,3.03029 -2.28431,2.65512 z"
       id="path1880"
       inkscape:connector-curvature="0" />
    <path
       style="opacity:1;fill:#327097;fill-opacity:1;fill-rule:nonzero;stroke:none;stroke-width:2.38212967;stroke-miterlimit:4;stroke-dasharray:none;stroke-opacity:1"
       d="m -87.342427,-138.67322 c -0.34261,-0.21789 -0.6377,-3.38798 -0.91051,-9.78091 -0.43691,-10.23814 -0.88347,-12.32472 -2.99278,-13.9839 -1.49318,-1.17454 -1.82653,-1.07553 -1.83748,0.54583 -0.01,1.44031 -1.30395,4.75247 -2.03309,5.2031 -0.24415,0.15089 -0.52517,-1.4447 -0.69154,-3.92645 -0.38666,-5.76768 -2.57307,-15.23147 -4.473603,-19.3638 -0.94311,-2.05056 -0.28935,-5.84084 1.040103,-6.03023 1.16607,-0.16612 1.10988,-0.36014 2.7178,9.38236 1.77597,10.76071 1.68633,10.39685 2.52124,10.23408 0.63096,-0.12302 0.71343,-0.98361 0.71343,-7.44524 0,-7.21091 0.36838,-9.83144 1.62327,-11.54762 0.48196,-0.65913 0.70617,0.60934 1.52045,8.60204 0.52531,5.15634 1.12919,9.54926 1.34197,9.76204 0.68212,0.68212 1.16313,-0.0404 1.72741,-2.5946 1.22767,-5.55706 1.48368,-4.75116 2.41964,7.61677 0.76835,10.15278 0.75015,14.54913 -0.0802,19.34594 -0.68003,3.92867 -1.27026,4.83021 -2.60614,3.98059 z"
       id="path1882"
       inkscape:connector-curvature="0" />
    <path
       style="opacity:1;fill:#327097;fill-opacity:1;fill-rule:nonzero;stroke:none;stroke-width:2.38212967;stroke-miterlimit:4;stroke-dasharray:none;stroke-opacity:1"
       d="m -33.273207,65.822146 c 0,-0.17489 0.36237,-0.83188 0.80526,-1.45995 1.32958,-1.8855 2.9147,-5.29677 3.62926,-7.81036 1.92796,-6.78204 3.1061,-26.04865 3.0648,-50.1205996 -0.0348,-20.2824104 -0.60965,-27.0420304 -3.82318,-44.9579504 -1.05092,-5.85903 -1.86359,-11.82438 -2.84078,-20.85261 -0.22971,-2.12241 -0.72006,-6.09118 -1.08963,-8.8195 -1.41528,-10.44812 -1.84602,-13.68211 -2.29375,-17.22183 -0.2544,-2.01128 -0.65016,-4.81846 -0.8795,-6.23818 -0.22934,-1.41973 -0.71956,-4.90451 -1.0894,-7.74396 -0.36983,-2.839446 -0.86164,-6.421026 -1.09289,-7.959056 -0.23127,-1.53804 -1.00869,-7.15241 -1.72765,-12.47638 -0.71892,-5.32397 -1.58927,-10.53947 -1.93407,-11.59001 -0.72404,-2.20594 -2.14771,-3.89789 -3.27983,-3.89789 -0.71985,0 -0.78544,0.46336 -0.78544,5.54727 0,5.70312 -0.50808,12.33259 -1.32234,17.25437 -0.76956,4.65165 -1.71929,9.19308 -2.1368,10.21772 -0.54083,1.32736 -2.04332,1.26178 -2.56564,-0.11198 -0.22582,-0.594 -0.7154,-6.15996 -1.08796,-12.36882 -0.679,-11.31602 -0.93316,-13.31399 -2.20226,-17.31192 -0.82751,-2.60683 -4.05181,-8.01911 -4.66003,-7.82227 -0.69548,0.22507 -2.40787,3.57783 -3.07319,6.01714 -0.37401,1.37127 -0.70347,5.47824 -0.8523,10.62464 -0.32398,11.20385 -1.0586,13.76703 -3.94573,13.76703 -1.75456,0 -2.39334,-1.85105 -3.56317,-10.32528 -0.77163,-5.58945 -1.68746,-19.75826 -1.69101,-26.16123 -0.003,-3.38581 -0.16422,-6.05663 -0.36078,-5.93516 -0.19656,0.12147 -0.59182,1.26854 -0.87839,2.54902 -0.28655,1.28049 -0.79965,2.69291 -1.14023,3.13873 -0.53744,0.70355 -0.67622,0.72537 -1.05103,0.16524 -0.23749,-0.35493 -0.43476,-1.35931 -0.43838,-2.23195 -0.008,-1.98229 -1.06643,-6.6666 -2.24208,-9.92505 -0.68866,-1.90864 -0.83072,-3.01326 -0.6191,-4.81373 0.73189,-6.2273 2.83136,-6.00649 2.84985,0.29972 0.006,2.01172 0.98325,2.17422 1.94072,0.32267 1.01417,-1.96119 1.50577,-1.55701 1.50577,1.23798 0,1.75371 0.20336,2.69741 0.66358,3.07935 1.09836,0.91157 1.48658,-0.0253 1.89187,-4.56559 0.20961,-2.34798 0.57928,-4.75305 0.82153,-5.3446 0.39235,-0.95808 0.44942,-0.84062 0.52248,1.07555 0.0451,1.1831 0.20256,4.28069 0.34993,6.88351 0.24951,4.40698 0.33116,4.74144 1.18735,4.86353 0.78018,0.11126 0.98893,-0.182 1.37827,-1.93598 0.25236,-1.13691 0.58711,-2.9383 0.74385,-4.00309 0.66735,-4.53303 1.89645,-4.25642 2.85464,0.64245 0.74721,3.8203 1.66708,4.23365 2.95288,1.3269 0.47913,-1.08315 1.14501,-1.96935 1.47976,-1.96935 0.56634,0 0.79447,0.59186 1.82401,4.73241 0.26678,1.07303 0.64527,1.54528 1.31697,1.64325 0.51839,0.0756 0.94255,-0.0696 0.94255,-0.32267 0,-0.25308 0.39163,-0.85177 0.87029,-1.33044 1.30749,-1.30748 2.33617,-0.48646 3.40151,2.7149 1.21608,3.65435 1.91556,4.53796 4.49953,5.68392 2.63449,1.16838 3.20416,1.77351 4.94417,5.25188 2.27417,4.54617 3.45969,8.77975 4.11699,14.70231 0.79753,7.18608 1.29799,9.08596 2.39337,9.08596 0.91559,0 1.82798,-1.4928 2.97519,-4.86787 l 0.71911,-2.11556 2.24684,15.43032 c 7.48157,51.379426 10.06792,74.287246 11.74827,104.0555464 1.06243,18.8214796 0.45175,52.6315996 -1.11506,61.7365196 -0.91173,5.2981 -3.03938,8.7544 -6.10701,9.92074 -1.30979,0.49797 -8.75199,1.04241 -8.75199,0.64024 z"
       id="path1884"
       inkscape:connector-curvature="0" />
  </g>
</svg>
