<?xml version="1.0" encoding="UTF-8" standalone="no"?>
<!-- Created with Inkscape (http://www.inkscape.org/) -->

<svg
   xmlns:dc="http://purl.org/dc/elements/1.1/"
   xmlns:cc="http://creativecommons.org/ns#"
   xmlns:rdf="http://www.w3.org/1999/02/22-rdf-syntax-ns#"
   xmlns:svg="http://www.w3.org/2000/svg"
   xmlns="http://www.w3.org/2000/svg"
   xmlns:sodipodi="http://sodipodi.sourceforge.net/DTD/sodipodi-0.dtd"
   xmlns:inkscape="http://www.inkscape.org/namespaces/inkscape"
   width="770.95361mm"
   height="539.49548mm"
   viewBox="0 0 770.95361 539.49548"
   version="1.1"
   id="svg1197"
   inkscape:version="0.92.4 (5da689c313, 2019-01-14)"
   sodipodi:docname="parallax6.svg">
  <defs
     id="defs1191" />
  <sodipodi:namedview
     id="base"
     pagecolor="#ffffff"
     bordercolor="#666666"
     borderopacity="1.0"
     inkscape:pageopacity="0.0"
     inkscape:pageshadow="2"
     inkscape:zoom="0.35"
     inkscape:cx="1435.4917"
     inkscape:cy="1090.9476"
     inkscape:document-units="mm"
     inkscape:current-layer="layer1"
     showgrid="false"
     inkscape:window-width="1858"
     inkscape:window-height="1057"
     inkscape:window-x="54"
     inkscape:window-y="-8"
     inkscape:window-maximized="1" />
  <metadata
     id="metadata1194">
    <rdf:RDF>
      <cc:Work
         rdf:about="">
        <dc:format>image/svg+xml</dc:format>
        <dc:type
           rdf:resource="http://purl.org/dc/dcmitype/StillImage" />
        <dc:title></dc:title>
      </cc:Work>
    </rdf:RDF>
  </metadata>
  <g
     inkscape:label="Calque 1"
     inkscape:groupmode="layer"
     id="layer1"
     transform="translate(406.6435,222.96797)">
    <path
       style="opacity:1;fill:#000010;fill-opacity:1;fill-rule:nonzero;stroke:none;stroke-width:4.76425934;stroke-miterlimit:4;stroke-dasharray:none;stroke-opacity:1"
       d="M -406.6435,46.779767 V -222.96797 h 237.21549 c 192.736258,0 236.933558,0.20615 235.711868,1.09947 -0.82698,0.60471 -1.88925,2.81585 -2.36061,4.91365 -1.48569,6.61229 -4.16168,7.57907 -4.19545,1.51572 -0.0138,-2.48955 -1.9151,-3.25901 -3.18904,-1.29066 -0.38286,0.59155 -0.88972,7.14266 -1.12634,14.55802 -0.40256,12.61574 -0.88661,15.60289 -2.29941,14.19009 -0.78671,-0.78672 -2.64713,-12.77902 -3.37598,-21.76157 -0.41915,-5.16594 -0.96298,-7.49177 -1.82946,-7.82427 -2.03803,-0.78206 -3.61709,1.66894 -4.57464,7.10067 -0.49819,2.82584 -1.1025,5.70783 -1.34295,6.40443 -0.91586,2.65337 -2.03901,-1.21829 -2.05229,-7.07451 -0.007,-3.19438 -0.35833,-5.80797 -0.78018,-5.80797 -1.38957,0 -3.61617,7.03828 -4.05561,12.81974 -0.67318,8.85649 -1.18875,11.27256 -2.40549,11.27256 -0.82992,0 -1.33003,-2.89226 -1.89701,-10.9706 -0.83412,-11.88525 -1.54736,-13.13797 -4.91326,-8.6297 -1.30609,1.74935 -1.91045,4.35858 -2.39154,10.32527 -0.75028,9.30478 -0.58857,8.41459 -1.52847,8.41459 -0.41228,0 -1.02323,-3.85948 -1.35766,-8.57664 -0.33443,-4.71715 -0.89776,-9.65392 -1.25185,-10.9706 -1.44949,-5.39 -2.67039,1.37175 -3.49586,19.36114 -0.87876,19.15046 -1.52276,25.13884 -2.70346,25.13884 -0.95811,0 -1.30204,-1.74775 -2.88552,-14.6641 -0.7277097,-5.93567 -1.3230697,-15.54574 -1.3230697,-21.35572 0,-10.45738 -0.0196,-10.56082 -1.93265,-10.28863 -1.27215,0.18099 -2.47584,1.43108 -3.52214,3.65793 -1.86491,3.96913 -5.68769,20.23321 -5.77768,24.5813 -0.0931,4.49742 -1.30092,0.90974 -2.037,-6.05061 -0.58827,-5.56263 -1.64081,-8.58086 -2.64295,-7.57872 -1.19959,1.19958 -2.07438,12.82677 -2.49962,33.22326 -0.47403,22.73799 -1.3106403,28.33354 -2.9794203,19.92745 -1.4093,-7.09896 -2.91849,-41.32713 -2.28317,-51.78264 0.30911,-5.08735 0.3565,-9.24973 0.10533,-9.24973 -0.90347,0 -2.47933,7.44839 -3.00172,14.18788 -0.42416,5.47225 -0.82601,6.93011 -1.97043,7.14859 -1.16227,0.22188 -1.54332,-0.6828 -1.98946,-4.72304 -1.37488,-12.45095 -3.24863,-23.87642 -4.15327,-25.32496 -1.46113,-2.33965 -5.27476,-3.43309 -13.84369,-3.96926 -12.21459,-0.76428 -14.58589,1.41684 -17.37672,15.98313 -0.66532,3.47264 -1.21497,10.63579 -1.22142,15.91813 -0.0119,9.75015 -0.49334,13.47623 -1.74115,13.47623 -1.17863,0 -1.92243,-5.12774 -2.49621,-17.20879 -0.47445,-9.98996 -0.63777,-10.9535 -1.16684,-6.88351 -0.33834,2.60283 -1.00499,11.70197 -1.4814,20.22032 -0.93451,16.70904 -1.39591,20.22033 -2.65716,20.22033 -1.75651,0 -2.49166,-4.93364 -2.49166,-16.72188 0,-7.2284 -0.54779,-15.44893 -1.32738,-19.91939 -0.73007,-4.18646 -1.24466,-9.65629 -1.14356,-12.15517 0.1011,-2.49889 -0.0824,-4.80967 -0.40783,-5.13508 -1.2202,-1.22021 -2.18271,1.21946 -3.09274,7.83942 -1.37673,10.01472 -2.06415,10.10322 -3.53597,0.45524 -0.53864,-3.53085 -1.18922,-7.00052 -1.44574,-7.71038 -0.25651,-0.70986 -1.5563,6.25426 -2.88843,15.47583 -2.70713,18.73995 -3.09067,20.66262 -4.12173,20.66262 -0.39698,0 -1.0855,-1.64559 -1.53006,-3.65687 -0.59938,-2.7118 -0.98253,3.68127 -1.48254,24.73763 -0.72858,30.68128 -1.34363,39.69646 -2.6861,39.37273 -0.49673,-0.11979 -1.07093,-5.57527 -1.35842,-12.90659 -0.27393,-6.98452 -1.01413,-14.6351 -1.64495,-17.0013 -0.78679,-2.95144 -1.10585,-9.30001 -1.01613,-20.22033 0.18497,-22.51921 -1.4987,-33.55713 -5.118648,-33.55713 -1.93958,0 -5.05341,9.43413 -5.07085,15.36343 -0.0257,8.74952 -2.70486,10.88294 -4.20833,3.35112 -4.51652,-22.62615 -5.36046,-25.59807 -7.26919,-25.59807 -2.17437,0 -3.03001,2.09745 -4.75371,11.65275 -3.03758,16.83879 -5.09823,25.75733 -7.45863,32.2813 -1.64553,4.54811 -2.47338,8.89297 -2.8592,15.00605 -0.43127,6.83337 -0.80867,8.60439 -1.83369,8.60439 -1.10244,0 -1.37195,-3.4505 -1.84809,-23.66208 -0.3066,-13.01415 -0.94594,-26.37247 -1.42073,-29.68516 -0.47482,-3.31269 -1.34845,-9.4182 -1.94138,-13.56781 -0.95807,-6.70467 -1.25487,-7.48863 -2.6657,-7.04085 -1.1592,0.36791 -1.81421,-0.0922 -2.42741,-1.70499 -1.85429,-4.87716 -5.3366,-1.51614 -6.80181,6.56491 -0.48883,2.69599 -1.81871,6.76156 -2.95531,9.03461 -1.3771,2.75403 -2.24683,6.35335 -2.60695,10.78871 -0.3449,4.24782 -1.36565,8.60605 -2.82138,12.04615 -1.50648,3.56004 -2.46007,7.72749 -2.80846,12.27377 -0.47007,6.13406 -0.71487,6.88351 -2.24838,6.88351 -1.57717,0 -1.72088,-0.57362 -1.72088,-6.86926 0,-5.76897 -0.23333,-6.9146 -1.45671,-7.15227 -1.53636,-0.29847 -2.17592,1.86014 -2.62476,8.8589 -0.17922,2.79456 -0.54432,3.44176 -1.9416,3.44176 -1.55123,0 -1.74565,-0.6574 -1.97218,-6.66841 -0.14116,-3.74542 -0.63185,-6.6684 -1.11946,-6.6684 -1.23921,0 -3.36166,5.47688 -3.36166,8.67463 0,4.07969 -2.75943,20.89354 -3.58232,21.82794 -0.40004,0.45425 -0.71987,-0.97932 -0.71987,-3.22665 0,-2.86689 -0.34601,-4.04406 -1.18867,-4.04406 -0.95377,0 -1.28198,3.27343 -1.66078,16.56346 -0.45946,16.1195 -1.85939,26.4604 -3.60459,26.62593 -1.92287,0.18239 -3.09409,-9.10465 -2.59828,-20.60286 0.53108,-12.31635 -0.54405,-15.40165 -1.79902,-5.16264 -0.56768,4.63161 -1.09699,6.23819 -2.05525,6.23819 -1.08967,0 -1.25445,-1.64141 -1.05809,-10.54038 0.12793,-5.79721 -0.0918,-10.54038 -0.48834,-10.54038 -0.3965,0 -1.13987,4.03963 -1.65193,8.97695 -0.51205,4.93733 -1.19025,9.39642 -1.5071,9.90909 -1.66231,2.68968 -2.17919,-1.62498 -2.19123,-18.2915 -0.0132,-18.20006 -0.56455,-22.40752 -2.46997,-18.84721 -1.44883,2.70716 -3.51297,12.22603 -3.52721,16.2659 -0.007,1.98335 -0.40064,3.84583 -0.87477,4.13886 -1.75663,1.08566 -2.70768,-4.26077 -2.14303,-12.04714 0.60816,-8.38631 -0.73888,-29.54302 -2.4105,-37.85934 -0.99137,-4.93203 -1.15302,-5.16263 -3.61904,-5.16263 -2.22519,0 -2.84607,0.55395 -4.50036,4.01516 -2.19024,4.5826 -4.53425,16.7991 -4.53425,23.63161 0,2.54083 -0.32981,4.6197 -0.7329,4.6197 -0.98205,0 -1.83693,-11.69073 -1.84326,-25.20696 -0.005,-10.53873 -0.0955,-11.10006 -2.11715,-13.1217 -3.01614,-3.01615 -4.47097,-2.64566 -7.33309,1.86743 -2.91483,4.5962 -3.76573,8.20874 -5.89987,25.04809 -1.46739,11.57839 -2.08251,14.06259 -3.2043,12.9408 -0.26402,-0.26401 -0.67533,-4.10372 -0.91401,-8.53269 -0.50274,-9.32841 -0.93029,-11.92463 -1.96376,-11.92463 -1.4187,0 -1.84686,3.97917 -2.68493,24.95274 -1.21651,30.44459 -2.92335,48.96859 -4.27193,46.36256 -1.28989,-2.49262 -2.78157,-19.26235 -2.31211,-25.99302 0.46701,-6.69526 0.43578,-6.86552 -0.65062,-3.54799 -0.62764,1.9166 -1.42197,5.90424 -1.76519,8.86142 -0.39911,3.43877 -0.97948,5.2588 -1.61023,5.04962 -1.38302,-0.45867 -2.13859,-6.36029 -2.21308,-17.28603 -0.0565,-8.27982 -0.21452,-9.22998 -1.37523,-8.26667 -0.7213,0.59863 -1.56539,0.83447 -1.87577,0.52409 -0.31038,-0.31037 -0.59141,-9.52799 -0.62453,-20.4836 -0.0377,-12.46839 -0.38207,-20.02236 -0.92066,-20.19485 -3.84948,-1.23287 -5.10553,7.77538 -4.45673,31.96293 0.4953,18.46445 -0.49125,63.7783 -1.64301,75.466887 -0.37763,3.83232 -0.95032,5.84463 -1.66334,5.84463 -0.59808,0 -1.32245,-0.61246 -1.6097,-1.36103 -0.28726,-0.74857 -0.52337,-14.39729 -0.5247,-30.330487 -0.003,-33.31279 -1.31143,-48.32934 -4.21175,-48.32934 -1.81576,0 -2.55051,6.57497 -2.91131,26.05196 -0.20845,11.25251 -0.63293,20.71304 -0.9433,21.0234 -1.22344,1.22344 -2.41225,-1.54856 -3.6232,-8.4483 -0.80648,-4.59522 -1.45803,-16.39161 -1.79177,-32.44037 -0.28845,-13.87065 -0.81907,-24.90578 -1.17916,-24.52253 -0.36009,0.38326 -0.80161,7.17482 -0.98115,15.09236 -0.21931,9.67168 -0.66608,14.73516 -1.36146,15.43054 -0.56926,0.56926 -1.25619,0.81386 -1.52651,0.54354 -0.77543,-0.77544 -2.79191,-20.62021 -3.39193,-33.38114 -0.30041,-6.38877 -0.73141,-12.51286 -0.95779,-13.60909 -0.54079,-2.6188 -3.08706,-2.15523 -3.88348,0.70701 -0.32851,1.18062 -0.64524,18.02169 -0.70386,37.4246 -0.15493,51.28927 -1.81706,89.915907 -3.86914,89.915907 -0.70763,0 -1.30624,-6.48775 -2.0443,-22.15631 -0.57401,-12.185977 -1.65511,-28.738677 -2.40245,-36.783787 -0.76909,-8.2793 -1.17733,-18.54839 -0.94067,-23.66208 0.36254,-7.83359 0.2785,-8.64118 -0.63216,-6.07502 -0.57767,1.62778 -1.50762,3.11204 -2.06657,3.29835 -1.14992,0.38331 -1.33328,-18.91285 -0.26113,-27.47986 0.33546,-2.68047 0.34543,-5.58445 0.0221,-6.4533 -1.23908,-3.33023 -2.49817,3.24854 -2.49817,13.05298 0,8.80853 -0.70318,12.05477 -2.2715,10.48645 -0.23987,-0.23987 -0.69811,-6.73289 -1.0183,-14.42892 -0.38293,-9.20387 -0.91647,-14.10349 -1.55895,-14.31627 -1.93978,-0.64243 -3.04491,10.85737 -3.73865,38.90405 -0.91438,36.96607 -3.21518,54.4925 -6.40525,48.79216 -0.45107,-0.80603 -1.29984,-11.7268 -1.88614,-24.26839 -1.05042,-22.4696 -3.70334,-47.46092 -5.66313,-53.34848 l -1.00244,-3.01154 -0.9193,3.70295 c -1.20695,4.86162 -2.53421,4.66485 -3.07039,-0.45519 -0.26471,-2.52772 -0.69803,-3.69442 -1.12633,-3.03265 -1.47515,2.27923 -2.31595,0.88115 -2.32861,-3.87198 -0.007,-2.72114 -0.33327,-5.4522 -0.72451,-6.06902 -0.40533,-0.63907 -0.94492,4.35777 -1.25435,11.61593 -0.59598,13.97953 -3.04562,33.81819 -4.17581,33.81819 -0.39362,0 -0.73596,-1.25839 -0.76077,-2.79643 -0.23735,-14.7165 -1.69583,-32.47332 -2.89761,-35.27801 -1.94476,-4.53866 -3.63612,-4.11828 -5.19281,1.29066 -2.37591,8.2554 -3.01588,16.36222 -3.03964,38.50466 -0.0208,19.35328 -0.72815,30.20659 -2.24323,34.41757 -1.05247,2.92524 -2.06466,-1.8921 -2.91581,-13.87722 -1.178,-16.58765 -1.47968,-19.0899 -3.92872,-32.5865 -1.15929,-6.38876 -2.40732,-13.55192 -2.77341,-15.91813 -0.45179,-2.92007 -1.07386,-4.3022 -1.93634,-4.3022 -2.72427,0 -2.97485,48.82288 -0.33343,64.96318 1.2464,7.61606 1.43511,15.47866 0.80539,33.557127 -1.52864,43.88528 -1.47092,54.59885 0.38472,71.41646 1.13023,10.2431899 2.03808,25.32484 2.33076,38.71977 0.44982,20.58619 0.32876,23.13682 -1.96023,41.3011 -2.10352,16.69251 -2.43442,22.26435 -2.40168,40.440643 0.0368,20.4135 2.16263,49.35858 3.74876,51.04223 0.36607,0.38856 0.91424,-9.87216 1.21815,-22.80164 0.74848,-31.84329 1.47586,-46.579633 2.25717,-45.729313 0.35889,0.39058 1.50776,8.454123 2.55305,17.918963 1.74258,15.77874 3.25187,52.28555 3.41321,82.55913 0.0287,5.37657 0.37054,9.07087 0.79629,8.60441 2.25163,-2.46695 3.71595,-10.34654 4.46925,-24.04928 0.78793,-14.33277 1.83601,-22.05117 3.31568,-24.41766 2.13832,-3.41989 2.44464,1.00614 2.00302,28.94177 -0.40988,25.92853 -0.30596,29.36073 0.96334,31.81527 1.63999,3.1714 3.39557,2.99278 4.69725,-0.47789 0.47534,-1.26738 1.26648,-7.72514 1.75809,-14.35052 0.49161,-6.62538 1.33882,-13.57376 1.88269,-15.44087 0.89986,-3.0892 1.07783,-3.24406 1.97755,-1.72088 0.63009,1.06675 0.99367,6.58548 1.00241,15.21558 0.013,12.80708 0.1167,13.64472 1.91209,15.4401 1.0441,1.0441 2.17528,1.62148 2.51372,1.28302 0.33844,-0.33843 0.89702,-8.64169 1.24128,-18.45164 0.56899,-16.21386 1.52227,-24.80562 4.34613,-39.17101 0.7501,-3.81585 1.30414,-4.92302 2.36015,-4.71641 1.1906,0.23294 1.3857,2.03875 1.42192,13.16056 0.0638,19.59988 1.74234,35.96828 8.11603,79.14439 6.77752,45.91185 7.91965,50.60556 13.07933,53.75129 3.76733,2.29688 6.0567,2.19994 9.13064,-0.3866 3.5111,-2.95442 4.30483,-5.57441 4.71028,-15.54806 0.19334,-4.75591 0.75711,-9.37186 1.25283,-10.25766 0.82943,-1.48211 1.01027,-1.3998 2.26798,1.03233 0.75167,1.45357 1.79222,5.48873 2.31234,8.96699 1.45636,9.73937 1.56942,10.08375 3.7874,11.53703 2.53429,1.66052 5.29361,0.53445 6.50633,-2.65523 1.76788,-4.64989 4.77155,-46.7264 5.58781,-78.27634 0.72081,-27.86058 2.46325,-44.31261 4.69315,-44.31261 1.37554,0 1.77918,10.37614 1.55641,40.01043 -0.19964,26.55951 -0.0394,30.52336 1.73945,43.02196 4.24555,29.8305 6.42112,40.3103 9.33315,44.95795 1.39518,2.22673 3.91725,2.52296 5.4772,0.64331 0.59006,-0.71096 2.12349,-9.51971 3.40764,-19.57499 2.59979,-20.35717 2.27532,-20.4687 5.63847,1.93799 2.98789,19.90657 2.92217,19.591 4.38429,21.05311 3.22822,3.22821 9.33913,-0.14909 11.91409,-6.58452 2.31692,-5.7906 4.83961,-36.88456 6.5142,-80.29218 0.51119,-13.25076 1.12345,-25.37106 1.36058,-26.93395 0.3874,-2.55334 2.3262,-4.48977 3.41007,-3.4059 1.13541,1.1354 2.18731,18.41526 2.90863,47.78097 0.43858,17.8554 1.13898,33.62595 1.55645,35.04568 0.57369,1.95098 1.2692,2.58132 2.84823,2.58132 h 2.08919 l 0.0258,-18.49945 c 0.0294,-21.02379 8e-4,-20.65055 1.57245,-20.65055 1.55895,0 2.25985,7.10502 2.32543,23.57319 0.0927,23.26465 1.28352,41.87031 2.93831,45.9073 2.79579,6.82053 4.20191,4.35925 5.5301,-9.67994 1.71103,-18.08597 2.65622,-42.27534 2.67287,-68.40493 0.009,-13.96063 0.24964,-26.25415 0.535,-27.31897 1.01564,-3.78984 2.7026,-2.05187 3.72892,3.84173 1.40441,8.06471 2.68757,42.25115 2.52828,67.35963 -0.085,13.40861 0.22754,22.60021 0.8589,25.2557 2.02144,8.50207 5.05321,11.47553 9.03824,8.86444 1.43367,-0.93935 2.25233,-2.69169 2.94776,-6.30952 1.97842,-10.29242 2.86983,-21.4635 2.58762,-32.42821 -0.24662,-9.58252 -0.0953,-11.30054 0.99508,-11.30054 1.35169,0 1.20324,-0.89765 6.30375,38.12056 1.19417,9.1353 2.63602,17.16963 3.2041,17.85411 1.2455,1.50077 3.92339,1.63121 4.78739,0.23323 0.56909,-0.92083 2.46525,-8.93334 4.74943,-20.06944 2.18066,-10.63146 4.53829,-4.94681 3.94943,9.52281 -0.4775,11.73339 0.42326,15.44082 3.96766,16.3304 3.16082,0.79332 6.93701,-1.57811 8.53269,-5.35848 1.89508,-4.48966 4.95099,-14.83929 4.95099,-16.76765 0,-0.8668 0.55705,-1.57599 1.23793,-1.57599 1.47156,0 2.35583,5.18885 2.00885,11.78756 -0.12938,2.4606 0.18209,4.89138 0.69218,5.40171 1.16964,1.17025 8.13501,2.27242 21.87421,3.46128 7.92102,0.6854 14.043498,0.6664 23.231868,-0.0721 8.66101,-0.69609 13.88817,-0.73721 17.09307,-0.13449 4.01121,0.75436 4.81806,0.66686 6.15211,-0.66717 1.8418,-1.84182 4.01276,-8.95104 4.81325,-15.762 0.46001,-3.91393 0.87254,-4.89561 1.96493,-4.67587 1.51453,0.30464 1.54461,0.83711 0.64455,11.41656 -0.48445,5.69449 -0.32266,7.39259 0.93668,9.83062 1.91183,3.7012 3.64739,4.77567 6.5409,4.04947 3.48927,-0.87577 4.95834,-4.02574 7.16999,-15.37398 1.11837,-5.73845 2.22787,-10.62805 2.4656,-10.86575 1.2931,-1.29313 1.9726,2.33947 2.31196,12.35964 0.21457,6.33597 0.82875,12.0251 1.41658,13.12172 4.15189,7.74578 8.42975,-8.84262 10.48443,-40.65577 0.82833,-12.82552 1.26643,-15.75652 2.21353,-14.80945 0.27199,0.27202 0.82082,7.58741 1.2196,16.2564 0.56181,12.2128 1.13358,17.02117 2.53934,21.35468 2.64482,8.15316 3.70728,9.46483 7.66661,9.46483 1.8241203,0 3.7379103,-0.50768 4.2528903,-1.12818 0.59849,-0.72112 1.05691,-8.87063 1.27048,-22.58653 0.46138,-29.625 2.10971,-70.06838 3.16854,-77.74196 0.94528,-6.85091 2.19168003,-9.41713 3.7905,-7.80436 0.63177,0.6373 0.8205,5.37424 0.57568,14.44884 -0.20034,7.42537 -0.39394,16.59826 -0.43021,20.38421 l -0.066,6.88351 h 2.58132 2.58133 l 0.5451,-6.71161 c 0.92427,-11.37967 2.6646697,-10.19582 4.0903997,2.78236 0.54242,4.93755 1.17978,9.17091 1.41634,9.40747 0.83307,0.83307 1.94731,-1.22967 3.424,-6.33867 1.34649,-4.65855 1.57866,-4.97364 2.37771,-3.22699 0.63211,1.38184 0.50363,4.58224 -0.44905,11.18571 -0.8621,5.97551 -1.22077,13.20988 -1.01317,20.43578 0.49016,17.06052 2.15566,38.37662 3.2536,41.64139 2.12762,6.32662 8.20161,4.41228 9.98165,-3.14592 0.52819,-2.24284 1.40044,-17.14299 1.93831,-33.11141 0.53784,-15.96845 1.11289,-28.89856 1.27786,-28.73359 1.23198,1.23198 2.97,15.50056 3.36814,27.65173 0.46199,14.09859 0.58616,14.89763 3.43419,22.09951 2.3133,5.84975 2.91134,8.51175 2.75444,12.26087 -0.24997,5.97398 1.38833,8.18166 5.10316,6.87666 1.70098,-0.59757 2.70123,-1.812 3.50694,-4.25794 2.2469,-6.82096 3.72838,-20.49238 3.488,-32.18755 -0.16549,-8.05127 0.0589,-11.65563 0.73981,-11.88259 1.29661,-0.43222 1.79829,4.06802 2.32523,20.85808 0.39008,12.42936 1.76345,22.5643 3.42109,25.24646 0.86757,1.40375 13.80207,1.33565 14.92457,-0.0787 1.4773,-1.86131 2.92356,-7.35322 3.51705,-13.35553 0.42696,-4.31787 0.90043,-5.78916 1.86309,-5.78916 1.04608,0 1.33366,1.63055 1.51765,8.60438 0.30321,11.49435 0.72731,11.8827 12.16694,11.14145 5.571922,-0.36103 11.587642,-0.0873 18.501052,0.84201 12.02242,1.61599 17.66472,1.14818 20.32672,-1.68537 2.08893,-2.22359 3.06329,-7.67083 5.99749,-33.5297 1.95966,-17.27059 2.26407,-19.29828 5.53045,-36.84129 1.21743,-6.5386 2.21351,-13.60496 2.21351,-15.70302 0,-3.88086 1.06185,-5.03608 2.12227,-2.30894 0.32203,0.82817 1.33118,10.41132 2.24251,21.29589 2.12095,25.33144 4.69836,49.36034 5.36614,50.02815 0.28607,0.28607 1.17086,0.27043 1.9662,-0.0348 1.26762,-0.48641 1.37771,-1.5348 0.89207,-8.49556 -1.69534,-24.29926 -1.61957,-40.50501 0.27644,-59.13681 2.10357,-20.67158 2.67539,-24.1971 3.91591,-24.14326 0.52163,0.0228 1.06873,6.86419 1.39689,17.46798 0.50568,16.34045 2.08553,30.36633 5.40404,47.97637 0.66884,3.5493 2.20742,11.79054 3.41905,18.31385 2.66914,14.37034 3.83508,18.87262 4.74218,18.31202 1.84835,-1.14234 2.81456,-62.74588 1.18253,-75.39752 -0.93054,-7.21368 -0.85323,-9.96683 0.62831,-22.37142 1.38885,-11.62878 1.69574,-19.8859 1.72487,-46.41186 0.033,-30.01883 0.99795,-56.354263 2.1055,-57.461843 0.93125,-0.93122 1.26196,0.44374 2.96156,12.313103 1.55133,10.83416 2.66414,22.31785 5.25047,54.18336 0.46093,5.67889 1.10355,21.74759 1.42806,35.70822 0.57058,24.5464 1.32009,28.7087 2.42507,13.46714 1.04947,-14.47578 1.49259,-17.93658 2.20459,-17.21758 1.28592,1.2986 3.40942,49.56741 3.53245,80.29607 0.0918,22.93342 0.29117,27.95058 0.87318,21.97468 1.876,-19.26225 2.88758,-20.11138 3.50506,-2.94201 0.33825,9.40551 0.73623,12.41621 1.77925,13.45922 1.21779,1.2178 1.38554,1.07032 1.79184,-1.57528 0.24653,-1.60538 0.67368,-5.62925 0.94919,-8.94193 0.27551,-3.31269 0.92673,-9.41105 1.44714,-13.55194 0.80962,-6.44207 1.17834,-7.52882 2.55452,-7.52882 1.21886,0 1.63431,0.67717 1.71569,2.79643 0.059,1.53803 0.34946,9.76599 0.64535,18.28433 0.57216,16.47354 1.89304,20.60511 2.75082,8.60438 0.27061,-3.78592 0.91601,-8.04511 1.43422,-9.46484 0.51822,-1.4197 1.16261,-6.84048 1.43198,-12.04613 0.49972,-9.65679 1.61513,-15.4337 3.16492,-16.39152 0.5791,-0.3579 0.6685,6.84496 0.26951,21.71234 l -0.59706,22.24789 2.22012,2.564 c 3.36298,3.88395 4.31884,2.16283 4.15956,-7.4897 -0.0942,-5.7056 0.49504,-10.9911 2.04457,-18.34081 1.19727,-5.67891 2.42197,-12.93886 2.72156,-16.13326 0.39978,-4.26246 0.8782,-5.80794 1.7979,-5.80794 1.06902,0 1.20893,2.83882 0.95199,19.31675 -0.3094,19.8434 0.007,22.01532 3.03528,20.85313 0.71554,-0.27458 1.54061,-1.97159 1.83348,-3.7711 0.29287,-1.79954 0.89503,-4.16129 1.33813,-5.24836 0.44312,-1.08704 0.80566,-4.22463 0.80566,-6.9724 0,-14.02191 2.61038,-21.18231 3.74941,-10.28478 0.30403,2.90886 0.55279,6.54436 0.55279,8.07884 0,3.78571 2.51891,6.83128 4.99893,6.04414 2.20806,-0.7008 2.46446,-1.62769 3.55227,-12.84168 0.45286,-4.66818 1.05831,-8.72255 1.34549,-9.0097 1.05103,-1.05106 1.94143,1.9068 2.50878,8.33406 1.10146,12.47814 1.25555,12.94609 4.87023,14.79018 6.223,3.17473 7.67705,0.72276 7.67705,-12.94598 0,-5.14692 0.34332,-9.57022 0.76292,-9.82957 1.52662,-0.9435 2.735,2.02219 3.17802,7.79974 0.72758,9.48883 1.18144,11.4999 2.59525,11.4999 1.85039,0 3.78907,-5.23999 3.78907,-10.24139 0,-5.63255 1.73373,-13.64676 6.90538,-31.92015 2.34387,-8.28172 4.5129,-16.99366 4.82002,-19.35988 0.58587,-4.51302 1.71464,-6.75696 2.99956,-5.96281 1.1901,0.73552 0.89942,10.58492 -0.61275,20.7636 -1.71646,11.55364 -1.47992,43.34984 0.33597,45.16506 1.8003,1.79965 2.72883,-0.70067 2.77746,-7.47905 0.0238,-3.31269 0.67117,-9.12064 1.43873,-12.90659 1.09786,-5.41504 1.50444,-14.73107 1.90598,-43.66927 0.32094,-23.1299 0.82669,-36.86489 1.36242,-36.99891 1.19634,-0.29924 1.9387,3.84403 2.05774,11.48456 0.0839,5.38731 0.40759,6.8118 1.84301,8.11083 3.7017,3.35002 4.43365,-0.4231 5.6257,-29.00077 0.34909,-8.36845 0.9639,-15.72522 1.36631,-16.34836 1.36612,-2.11559 2.42067,1.15641 2.54672,7.90162 0.10152,5.43457 0.29406,4.46283 1.21965,-6.15564 1.24679,-14.30372 1.7994,-16.89036 3.2889,-15.3951 0.70147,0.70419 0.99007,8.36549 0.99007,26.2826 0,19.08138 0.264,25.55378 1.07556,26.36864 0.86072,0.86423 1.07553,-0.64561 1.07553,-7.55949 0,-5.40176 0.66403,-11.8192 1.77189,-17.12442 1.39515,-6.68094 1.64986,-10.04879 1.19798,-15.84007 -0.38415,-4.92345 -0.21828,-8.63518 0.50173,-11.22707 0.59158,-2.12957 1.17994,-7.03916 1.30744,-10.9102 0.1275,-3.87101 1.10458,-10.81513 2.1713,-15.43139 1.78737,-7.73486 1.86206,-9.07249 0.95221,-17.05409 -0.543,-4.76348 -0.9557,-11.036383 -0.9171,-13.939763 0.0471,-3.54732 -0.64138,-7.35754 -2.09907,-11.61592 l -2.16924,-6.33709 -0.22085,-49.47527 c -0.12147,-27.2114001 0.0916,-51.79845 0.47353,-54.6379 0.38192,-2.83945 1.73976,-7.87302 3.01746,-11.18571 2.20435,-5.71519 2.31622,-6.72682 2.1884,-19.79011 -0.0741,-7.57186 -0.45186,-16.2021 -0.8395,-19.1783 -0.55676,-4.27449 -0.37838,-6.48946 0.84916,-10.54365 1.39808,-4.61762 1.43891,-5.75769 0.40693,-11.367287 -0.66533,-3.61662 -1.21772,-13.64225 -1.31541,-23.87393 -0.15851,-16.60428 -0.56411,-20.65054 -2.07007,-20.65054 -1.06624,0 -2.62546,6.41841 -2.62546,10.80748 0,5.23609 -2.72579,16.80798 -3.87199,16.43793 -1.29376,-0.41768 -1.97078,-8.05839 -2.07098,-23.37344 -0.0925,-14.13578 -0.85008,-21.28826 -2.73409,-25.81318 l -1.07477,-2.58131 -0.62357,3.44175 c -0.34295,1.89297 -1.20973,6.15214 -1.92614,9.46483 -0.71644,3.3127 -1.53839,9.70146 -1.8266,14.19726 -0.56968,8.886 -2.19972,18.06922 -3.20736,18.06922 -0.34769,0 -0.83497,-0.32814 -1.08283,-0.72919 -0.24787,-0.40106 -0.089,-11.53299 0.35306,-24.73763 0.60957,-18.20865 0.55028,-25.23958 -0.24546,-29.10478 -1.17419,-5.7037 -2.7341,-6.99726 -4.10136,-3.40107 -1.57337,4.13827 -3.36835,19.3061 -3.39852,28.71773 -0.0402,12.54496 -1.36747,13.75574 -2.13865,1.9509 -0.77997,-11.93938 -2.13495,-14.62476 -2.15294,-4.26681 -0.014,8.0469 -1.34586,18.49969 -2.81475,22.09075 l -0.88611,2.16636 -0.73292,-3.01153 c -0.4031,-1.65635 -0.99457,-13.27228 -1.31437,-25.81318 -0.59243,-23.23136 -0.99992,-24.66758 -2.99046,-10.54039 -1.6053,11.39336 -2.87639,9.04615 -3.8441,-7.09862 -0.55309,-9.22749 -1.96117,-15.4484 -2.04494,-9.03461 -0.0552,4.22524 -1.25066,5.9524 -2.50182,3.61457 -0.52411,-0.97931 -0.95292,-2.77401 -0.95292,-3.98822 0,-1.21422 -0.38722,-2.20767 -0.86046,-2.20767 -0.47323,0 -0.86045,1.54879 -0.86045,3.44176 0,2.24534 -0.38772,3.44176 -1.11537,3.44176 -0.84998,0 -1.11663,-2.40579 -1.12062,-10.11017 -0.007,-13.35216 -1.35596,-16.03298 -2.88758,-5.7382 -1.27109,8.54362 -2.12426,8.15555 -2.99096,-1.36042 -1.31212,-14.40649 -1.57861,-14.15531 -3.65154,3.44176 -1.08707,9.22821 -2.23557,23.8572 -2.5522,32.50886 -0.39481,10.78736 -0.8718,15.63215 -1.51799,15.41795 -1.67754,-0.55608 -2.37231,-12.62476 -1.91699,-33.29935 0.32451,-14.73371 0.14158,-21.73789 -0.67416,-25.81318 -0.87765,-4.38461 -1.23131,-5.12814 -1.63711,-3.44175 -0.71088,2.95416 -1.31389,9.07298 -1.97151,20.00521 -0.42066,6.99288 -0.84437,9.24972 -1.73657,9.24972 -0.87326,0 -1.2066,-1.51019 -1.28193,-5.80796 -0.056,-3.19438 -0.36423,-6.96956 -0.68498,-8.38928 -0.57888,-2.56221 -0.58764,-2.55508 -1.18118,0.9638 -0.58423,3.46377 -2.60361,6.28152 -3.48252,4.85939 -0.2426,-0.39251 -0.71898,-4.49961 -1.05866,-9.12688 -0.33964,-4.62728 -0.91649,-8.10011 -1.28182,-7.71741 -0.36534,0.3827 -0.79463,4.43941 -0.95396,9.0149 -0.3824,10.98148 -1.94521,13.04144 -3.07927,4.05887 l -0.58507,-4.63399 -1.03513,7.74395 c -0.56933,4.25918 -1.07434,10.06714 -1.12229,12.90659 -0.0479,2.83945 -0.42,5.68797 -0.82685,6.33005 -1.60684,2.53592 -2.20474,-1.57043 -2.6757,-18.3762 -0.46741,-16.68022 -1.2151,-21.72549 -2.66928,-18.01211 -0.35832,0.91507 -0.67873,5.40727 -0.71199,9.98267 -0.0608,8.35961 -0.5012,11.04098 -1.81356,11.04098 -0.38971,0 -0.84802,-0.8712 -1.01846,-1.93599 -0.17047,-1.06479 -0.61455,2.37866 -0.98687,7.65211 -0.3723,5.27346 -1.15845,12.43662 -1.74694,15.91813 -0.96853,5.72956 -1.12546,6.05456 -1.65433,3.42605 -0.32134,-1.5972 -0.63008,-5.27557 -0.68607,-8.17418 -0.17827,-9.229 -1.40364,-1.26666 -1.51728,9.8592 -0.056,5.48172 -0.38457,10.24952 -0.73017,10.59512 -0.77546,0.77548 -4.29535,-19.35377 -5.32582,-30.45693 -0.90935,-9.7981 -2.70986,-19.7901 -3.56608,-19.7901 -1.49802,0 -3.69578,17.56918 -2.87907,23.01541 0.464,3.09424 0.34113,3.79811 -0.60822,3.48371 -0.91046,-0.30154 -1.30836,-3.40705 -1.69529,-13.23146 -0.45658,-11.59285 -0.81104,-13.81055 -3.65624,-22.87557 -1.73286,-5.521 -3.38595,-10.65137 -3.67356,-11.40082 -0.47474,-1.23719 6.81345,-1.36264 79.15982,-1.36264 h 79.68268 v 55.53461 c 0,60.0194 0.0236,59.65401 -4.83671,75.353297 l -2.2329,7.2126 0.0564,31.19754 c 0.0599,33.15266 0.28798,35.69806 4.54391,50.7186899 2.49827,8.81723 2.61077,9.88189 2.20927,20.9062701 -0.36343,9.97855 -0.9247,13.55653 -3.98188,25.38297 -2.0362,7.87694 -3.95642,17.81646 -4.48812,23.23185 -1.27352,12.97088 -0.37505,33.15816 1.93394,43.452203 1.27551,5.68643 2.0302,13.01872 2.47981,24.0923 0.51194,12.60954 1.02537,17.0806 2.4702,21.51097 1.80311,5.5291 1.82404,6.4784 1.83502,83.24752 l 0.0111,77.65465 H -21.166672 -406.6435 Z"
       id="path1180"
       inkscape:connector-curvature="0" />
  </g>
</svg>
