<?xml version="1.0" encoding="UTF-8" standalone="no"?>
<!-- Created with Inkscape (http://www.inkscape.org/) -->

<svg
   xmlns:dc="http://purl.org/dc/elements/1.1/"
   xmlns:cc="http://creativecommons.org/ns#"
   xmlns:rdf="http://www.w3.org/1999/02/22-rdf-syntax-ns#"
   xmlns:svg="http://www.w3.org/2000/svg"
   xmlns="http://www.w3.org/2000/svg"
   xmlns:sodipodi="http://sodipodi.sourceforge.net/DTD/sodipodi-0.dtd"
   xmlns:inkscape="http://www.inkscape.org/namespaces/inkscape"
   width="378.91504mm"
   height="264.89441mm"
   viewBox="0 0 378.91504 264.89441"
   version="1.1"
   id="svg13915"
   inkscape:version="0.92.4 (5da689c313, 2019-01-14)"
   sodipodi:docname="parallax9.svg">
  <defs
     id="defs13909" />
  <sodipodi:namedview
     id="base"
     pagecolor="#ffffff"
     bordercolor="#666666"
     borderopacity="1.0"
     inkscape:pageopacity="0.0"
     inkscape:pageshadow="2"
     inkscape:zoom="0.35"
     inkscape:cx="268.91708"
     inkscape:cy="446.30214"
     inkscape:document-units="mm"
     inkscape:current-layer="layer1"
     showgrid="false"
     inkscape:window-width="1858"
     inkscape:window-height="1057"
     inkscape:window-x="54"
     inkscape:window-y="-8"
     inkscape:window-maximized="1" />
  <metadata
     id="metadata13912">
    <rdf:RDF>
      <cc:Work
         rdf:about="">
        <dc:format>image/svg+xml</dc:format>
        <dc:type
           rdf:resource="http://purl.org/dc/dcmitype/StillImage" />
        <dc:title></dc:title>
      </cc:Work>
    </rdf:RDF>
  </metadata>
  <g
     inkscape:label="Calque 1"
     inkscape:groupmode="layer"
     id="layer1"
     transform="translate(97.987288,-2.0230381)">
    <path
       style="opacity:1;fill:#153d5b;fill-opacity:1;fill-rule:nonzero;stroke:none;stroke-width:2.93000007;stroke-miterlimit:4;stroke-dasharray:none;stroke-opacity:1"
       d="m -11.149432,225.67372 c -2.37617,-0.3099 -2.956997,-0.82364 -2.969406,-2.62648 -0.007,-1.02096 0.197996,-1.13617 1.543143,-0.86714 1.442532,0.2885 1.588206,0.16705 2.078659,-1.73302 0.290079,-1.1238 0.8146211,-3.94827 1.1656491,-6.27661 0.35103,-2.32833 0.812104,-4.42727 1.024606,-4.6643 0.556964,-0.62126 1.183077,6.63984 0.764797,8.86945 -0.220324,1.17444 -0.14628,1.88027 0.197242,1.88027 0.30249,0 0.686178,-1.30969 0.852643,-2.91042 0.166463,-1.60073 0.440553,-4.23367 0.609087,-5.85098 0.198617,-1.90599 0.524425,-2.86824 0.926042,-2.73501 0.411707,0.13659 0.669819,2.18862 0.769236,6.11557 0.08229,3.2505 0.246134,5.91001 0.364093,5.91001 0.63074,0 14.0702339,-8.11026 15.2475439,-9.20135 1.00705,-0.93331 1.48843,-2.04705 1.75575,-4.06219 0.33131,-2.4976 0.44004,-2.67822 1.08293,-1.79902 0.39306,0.53754 0.71464,2.10839 0.71464,3.4908 0,1.3824 0.23813,2.66063 0.52917,2.84051 0.29438,0.18193 0.52936,-0.21508 0.52961,-0.89482 7.9e-4,-2.40191 1.10044,-12.76884 1.40693,-13.26475 0.61223,-0.99062 1.22235,0.96667 1.23036,3.94706 0.004,1.65916 0.29647,4.27854 0.64891,5.82084 l 0.64082,2.80417 0.36518,-2.91042 c 0.20086,-1.60073 0.40548,-4.2201 0.45472,-5.82083 0.066,-2.14584 0.209,-2.63239 0.5443,-1.85209 0.25013,0.58209 0.47152,2.00386 0.49198,3.15951 0.0204,1.15564 0.33102,3.36499 0.69014,4.90965 0.63965,2.7513 0.68543,2.80154 2.24896,2.46793 2.40002,-0.5121 2.91171,-1.17094 2.99402,-3.85501 l 0.0751,-2.44874 0.37898,2.11666 c 0.30563,1.707 0.39352,1.82829 0.45408,0.62667 0.16231,-3.22073 2.18224,-4.61777 2.19986,-1.52148 0.0195,3.42145 0.91837,2.72605 2.78707,-2.15611 1.04527,-2.73088 2.06609,-5.62501 2.26848,-6.4314 0.54658,-2.17776 1.25686,-0.65055 1.33373,2.86774 l 0.0636,2.91042 0.68618,-2.11667 c 0.37739,-1.16417 0.85683,-3.37261 1.06543,-4.90765 0.29631,-2.18063 0.52708,-2.66829 1.05524,-2.22996 0.4563,0.37869 0.73697,2.57565 0.86361,6.75974 0.15358,5.07419 0.38478,6.53438 1.27446,8.04906 0.59775,1.01769 1.49066,1.92812 1.98422,2.02317 0.7546,0.14532 0.89739,-0.28342 0.89739,-2.69438 0,-2.1851 0.24916,-3.09268 1.0473,-3.815 1.008,-0.91222 1.06058,-0.91034 1.40105,0.0503 1.14034,3.21744 1.83345,4.48946 2.60825,4.78678 1.209,0.46394 1.8049,-0.70593 1.81447,-3.56215 0.008,-2.48798 1.39012,-7.37031 2.08593,-7.37031 0.21496,0 0.83392,2.41486 1.37546,5.36635 1.07595,5.86413 1.84255,7.08793 4.78579,7.64009 2.43408,0.45663 3.82617,-0.47856 4.20725,-2.82641 0.60088,-3.70201 1.00309,-4.18187 3.81814,-4.5553 3.98775,-0.52899 5.58104,0.0102 7.77079,2.62987 2.53436,3.03191 3.32708,2.9929 3.75519,-0.18481 0.47134,-3.49863 0.69275,-3.92822 0.75,-1.4552 0.0667,2.88015 0.55452,4.49791 1.35637,4.49791 0.65617,0 1.79216,-3.51202 1.91579,-5.92286 0.10074,-1.9646 0.85454,1.47559 0.94995,4.33536 0.0738,2.21371 0.1341,2.30898 0.85635,1.35407 0.45696,-0.60415 0.80958,-2.34759 0.85621,-4.23333 0.0436,-1.76339 0.16843,-2.49178 0.27739,-1.61865 0.35588,2.85174 0.72478,4.01691 1.18228,3.73416 0.24728,-0.15282 0.33006,-1.33832 0.18397,-2.63445 -0.27526,-2.44207 0.28352,-8.53008 0.74093,-8.07267 0.14294,0.14295 0.42096,1.87011 0.61782,3.83815 0.47354,4.73431 1.37928,4.92152 1.99229,0.41179 0.56343,-4.14498 1.6583,-5.10803 1.90544,-1.67602 l 0.16434,2.28237 0.93281,-2.91042 c 1.95798,-6.10904 2.30229,-6.03943 2.67883,0.54158 0.18705,3.26923 0.6112,6.27073 0.94256,6.66999 0.73331,0.88357 6.910457,0.9995 8.480657,0.15916 0.80654,-0.43165 1.36154,-0.36857 2.32784,0.26458 2.4247,1.58872 3.95103,0.60063 4.96674,-3.21527 0.5942,-2.23236 1.90567,-3.29868 2.87046,-2.33389 0.29334,0.29334 1.14743,1.67036 1.89799,3.06006 1.51392,2.80312 3.34268,3.47324 3.64621,1.33608 0.21731,-1.53014 2.20279,-1.60444 3.53507,-0.13229 1.32236,1.46119 4.20042,1.36158 7.5656,-0.26184 l 2.73659,-1.32017 1.72807,1.05361 c 2.4212,1.47621 3.42855,1.33733 6.72261,-0.92681 2.73783,-1.88181 3.07994,-1.97789 6.61917,-1.85891 4.02783,0.1354 10.8837,-1.134 11.49867,-2.12903 0.36335,-0.58791 2.92413,-0.16574 5.85949,0.96601 0.63492,0.24479 0.92605,0.10158 0.92605,-0.45553 0,-2.05753 1.27934,-2.38951 8.05823,-2.09108 3.57163,0.15724 8.66782,-0.24151 8.75241,-0.17153 0.30369,0.25126 1.98017,14.0679 1.26312,15.47279 -78.64424,38.89598 -135.000097,47.72998 -198.717082,13.54449 z"
       id="path13871"
       inkscape:connector-curvature="0"
       sodipodi:nodetypes="cccscccscscsscscsccccscssccscscsscssscsccscsscscsssssscssscccsccsccsccsscsscsccscccssccssccc" />
    <path
       style="opacity:1;fill:#153d5b;fill-opacity:1;fill-rule:nonzero;stroke:none;stroke-width:0.36625001;stroke-miterlimit:4;stroke-dasharray:none;stroke-opacity:1"
       d="m -19.137256,225.81814 c -0.286684,-0.32173 -0.632674,-1.2119 -0.783902,-2.01683 -0.04918,-0.26176 -0.110665,-0.51031 -0.136634,-0.55233 -0.04265,-0.069 -0.08216,-0.36786 -0.296883,-2.24595 -0.03535,-0.30924 -0.06292,-1.5237 -0.06125,-2.69882 l 0.003,-2.13658 0.145413,0.0431 c 0.07997,0.0237 0.176654,0.0823 0.214839,0.13018 0.03819,0.0479 0.177511,0.10733 0.309612,0.13211 0.132099,0.0248 0.255114,0.084 0.273368,0.13154 0.01826,0.0476 0.126505,0.10698 0.240562,0.13203 0.114056,0.0251 0.223432,0.0874 0.243057,0.13853 0.01963,0.0511 0.07689,0.093 0.127262,0.093 0.05037,0 0.128759,0.0595 0.174199,0.13229 0.04544,0.0728 0.119057,0.13229 0.163597,0.13229 0.04454,0 0.110736,0.0556 0.147103,0.12356 0.03637,0.068 0.15648,0.14162 0.266911,0.16371 0.192384,0.0385 2.817551,3.96105 5.63022,4.86872 -6.948691,3.29511 -4.371568,1.43092 -5.852099,2.84547 -0.186508,0.66087 -0.523134,0.90406 -0.808353,0.58397 z"
       id="path13873"
       inkscape:connector-curvature="0"
       sodipodi:nodetypes="ccccccccccccssscccccc" />
    <path
       style="opacity:1;fill:#153d5b;fill-opacity:1;fill-rule:nonzero;stroke:none;stroke-width:0.36625001;stroke-miterlimit:4;stroke-dasharray:none;stroke-opacity:1"
       d="m -34.541869,221.63218 c -0.181901,-0.0461 -1.491589,-0.47124 -2.910417,-0.94474 -1.418828,-0.47351 -2.728515,-0.89378 -2.910416,-0.93395 -0.892879,-0.19715 -1.237652,-0.32814 -1.541426,-0.58561 -0.331965,-0.28137 -0.733819,-0.88814 -0.738031,-1.11437 -0.0013,-0.0761 -0.05149,-0.28443 -0.111265,-0.46302 -0.09434,-0.28182 -0.114076,-0.87594 -0.149477,-4.49904 -0.03333,-3.41086 -0.05752,-4.1945 -0.132247,-4.28454 -0.118218,-0.14245 -0.05513,-0.20386 0.115573,-0.1125 0.10028,0.0537 0.15535,0.0494 0.222004,-0.0173 0.04875,-0.0487 0.154998,-0.12415 0.236104,-0.16756 0.0811,-0.0434 0.147463,-0.11905 0.147463,-0.16809 0,-0.0491 0.05953,-0.10475 0.132291,-0.12377 0.09553,-0.025 0.132292,-0.0902 0.132292,-0.23477 0,-0.14208 0.03839,-0.21236 0.132292,-0.24216 0.102369,-0.0325 0.132291,-0.10008 0.132291,-0.29883 0,-0.17038 0.03691,-0.2775 0.109644,-0.3182 0.07485,-0.0419 0.11943,-0.17937 0.140483,-0.43323 0.01696,-0.20454 0.05214,-0.37188 0.07818,-0.37188 0.10277,0 0.200864,-0.35685 0.200864,-0.73072 0,-0.30556 0.02963,-0.42339 0.132292,-0.52605 0.112582,-0.11258 0.132291,-0.22049 0.132291,-0.72432 0,-0.49133 0.01937,-0.60286 0.113872,-0.65575 0.09424,-0.0527 0.118033,-0.18731 0.137993,-0.7805 0.01879,-0.55798 0.04756,-0.73503 0.129908,-0.79918 0.08262,-0.0644 0.112167,-0.24909 0.134913,-0.84336 0.01601,-0.41852 0.05375,-0.76095 0.08384,-0.76095 0.0894,0 0.192458,-0.46836 0.192852,-0.87644 2.64e-4,-0.28082 0.02447,-0.38033 0.09251,-0.38033 0.107069,0 0.172443,-0.14102 0.172443,-0.37198 0,-0.0895 0.05953,-0.22662 0.132291,-0.30472 0.07276,-0.0781 0.132292,-0.19716 0.132292,-0.26458 0,-0.0674 0.05953,-0.18649 0.132292,-0.26459 0.07276,-0.0781 0.132291,-0.18103 0.132291,-0.22874 0,-0.0477 0.05953,-0.14628 0.132292,-0.21904 0.07276,-0.0728 0.132292,-0.19182 0.132292,-0.26458 0,-0.0747 0.0441,-0.1323 0.101293,-0.1323 0.05571,0 0.12025,-0.0521 0.143417,-0.11575 0.02318,-0.0637 0.131773,-0.19761 0.241348,-0.29766 0.24362,-0.22243 0.638421,-0.25862 0.638421,-0.0585 0,0.0679 0.05953,0.19906 0.132291,0.29156 0.12936,0.16445 0.132292,0.26834 0.132292,4.68972 0,4.39516 -0.0037,4.52843 -0.132292,4.76836 -0.186997,0.34889 -0.186997,1.06166 0,1.22177 0.109371,0.0936 0.132292,0.19513 0.132292,0.58574 0,0.37232 0.02804,0.50813 0.132292,0.64066 0.07276,0.0925 0.132291,0.24563 0.132291,0.34029 0,0.0947 0.05953,0.22309 0.132292,0.28539 0.07276,0.0623 0.132292,0.16375 0.132292,0.22546 0,0.18336 0.07407,0.32143 0.172442,0.32143 0.05068,0 0.09214,0.0575 0.09214,0.12784 0,0.0703 0.05953,0.14673 0.132292,0.16982 0.07276,0.0231 0.132291,0.0826 0.132291,0.13229 0,0.0497 0.05678,0.10833 0.12618,0.13035 0.0694,0.022 0.141804,0.0808 0.160896,0.13052 0.0191,0.0497 0.128034,0.11095 0.242091,0.13601 0.114057,0.025 0.22312,0.0866 0.242366,0.13673 0.01924,0.0502 0.138671,0.11063 0.265396,0.1344 0.126722,0.0238 0.24616,0.0843 0.265417,0.13447 0.01926,0.0502 0.148987,0.10946 0.28829,0.13174 0.139305,0.0223 0.267991,0.0788 0.285967,0.12568 0.01797,0.0469 0.131437,0.10547 0.252132,0.13026 0.120692,0.0248 0.338505,0.10066 0.484026,0.16859 0.145521,0.0679 0.404362,0.1323 0.575207,0.14305 l 13.090728,4.14693 c 2.420001,8.21912 -5.231262,6.71498 -13.728774,5.55568 -0.0382,-0.004 -0.218281,-0.045 -0.400182,-0.0911 z"
       id="path13875"
       inkscape:connector-curvature="0"
       sodipodi:nodetypes="csccccsccccscscsccssssccccscsssssssssccscscsscssssscscccccccccsccccc" />
    <path
       style="opacity:1;fill:#153d5b;fill-opacity:1;fill-rule:nonzero;stroke:none;stroke-width:0.36625001;stroke-miterlimit:4;stroke-dasharray:none;stroke-opacity:1"
       d="m -75.340117,208.8791 c -1.023793,-5.38813 1.602634,-13.88214 -0.281988,-19.06304 0.192731,-0.0349 0.27878,-0.1962 0.480833,-0.19923 0.05366,-0.13983 1.912941,-0.1422 2.097078,-0.003 0.06702,0.0508 0.240245,0.11233 0.384944,0.13677 0.144698,0.0245 0.278385,0.0843 0.297081,0.13304 0.01869,0.0487 0.120803,0.10765 0.226905,0.13095 0.106101,0.0233 0.192911,0.0657 0.192911,0.0942 0,0.0501 0.300015,0.46263 0.48382,0.6653 0.04949,0.0546 0.108773,0.1513 0.131736,0.21497 0.02297,0.0637 0.07014,0.11576 0.104841,0.11576 0.0347,0 0.09747,0.10418 0.139499,0.23151 0.04202,0.12733 0.104597,0.23151 0.139057,0.23151 0.03446,0 0.09095,0.0744 0.125526,0.16536 0.03458,0.0909 0.09137,0.16537 0.126196,0.16537 0.03483,0 0.08222,0.0595 0.105322,0.13231 0.0231,0.0728 0.14604,0.24264 0.273204,0.37747 0.211002,0.22373 0.267893,0.24749 0.65097,0.27188 l 0.419764,0.0267 0.369824,-0.36396 c 0.203404,-0.20018 0.369824,-0.3982 0.369824,-0.44004 0,-0.0418 0.05953,-0.13997 0.132292,-0.21807 0.07276,-0.0781 0.132292,-0.19716 0.132292,-0.26458 0,-0.0674 0.05953,-0.18649 0.132291,-0.26459 0.07857,-0.0843 0.132292,-0.23343 0.132292,-0.36714 0,-0.12498 0.05885,-0.29996 0.132292,-0.39332 0.09495,-0.12072 0.132291,-0.26834 0.132291,-0.52306 0,-0.26669 0.03288,-0.38776 0.132292,-0.48718 0.110241,-0.11024 0.132292,-0.22048 0.132292,-0.66146 0,-0.44097 0.02204,-0.55121 0.132291,-0.66145 0.117798,-0.1178 0.132292,-0.22049 0.132292,-0.93737 0,-0.67397 0.01884,-0.82589 0.115755,-0.93285 0.09749,-0.10761 0.119343,-0.29069 0.138488,-1.16 0.0191,-0.86721 0.04025,-1.04502 0.132292,-1.11221 0.08916,-0.0651 0.113668,-0.2288 0.131633,-0.87919 0.01214,-0.43957 0.04644,-0.79922 0.07621,-0.79922 0.08784,0 0.199369,-0.39405 0.199369,-0.7044 0,-0.21433 0.02585,-0.28779 0.101293,-0.28779 0.05571,0 0.118081,-0.0437 0.138599,-0.0972 0.02514,-0.0655 0.08923,5.3e-4 0.196361,0.20194 0.149029,0.28029 0.159059,0.36638 0.159059,1.36531 0,0.92261 0.01558,1.08337 0.115756,1.19397 0.105013,0.11595 0.118824,0.37622 0.148828,2.80459 0.0304,2.46031 0.04243,2.68202 0.148828,2.7415 0.09485,0.053 0.115755,0.15808 0.115755,0.58167 0,0.4168 0.02564,0.54954 0.132292,0.68514 0.07276,0.0925 0.132291,0.19751 0.132291,0.23335 0,0.13119 0.449565,0.19406 0.760678,0.10639 0.172312,-0.0486 0.496093,-0.55749 0.496093,-0.77978 0,-0.0953 0.05953,-0.23285 0.132292,-0.30562 0.100219,-0.10021 0.132292,-0.22048 0.132292,-0.49609 0,-0.20009 0.02837,-0.3638 0.06304,-0.3638 0.116623,0 0.200805,-0.4913 0.201176,-1.17409 1.98e-4,-0.38535 0.02758,-0.67799 0.06341,-0.67799 0.137168,0 0.200824,-0.55233 0.201176,-1.74558 2.64e-4,-1.08559 0.01471,-1.25996 0.109744,-1.32945 0.09528,-0.0697 0.113323,-0.2964 0.140041,-1.76016 0.02564,-1.40482 0.04775,-1.6996 0.134893,-1.7987 0.08501,-0.0967 0.109511,-0.35866 0.132884,-1.42094 0.02429,-1.10366 0.04505,-1.31439 0.13607,-1.38082 0.08889,-0.0649 0.111146,-0.24702 0.129042,-1.05596 0.01818,-0.82117 0.03933,-0.99049 0.132292,-1.05836 0.08952,-0.0654 0.115012,-0.22355 0.133424,-0.82787 0.01865,-0.61177 0.04559,-0.7761 0.148828,-0.90734 0.0984,-0.12509 0.126069,-0.26854 0.126069,-0.65355 0,-0.39311 0.02686,-0.52742 0.132292,-0.66145 0.09611,-0.12219 0.132291,-0.26834 0.132291,-0.5344 0,-0.25078 0.03518,-0.40508 0.111623,-0.48955 0.06139,-0.0678 0.128368,-0.24878 0.148828,-0.40208 0.03002,-0.2249 0.06595,-0.28282 0.186034,-0.29988 l 0.148828,-0.0211 v 2.80688 c 0,2.70672 0.0047,2.81288 0.132291,2.97506 0.100309,0.12752 0.132292,0.26834 0.132292,0.58249 0,0.2936 0.03207,0.44974 0.110069,0.53593 0.07077,0.0782 0.124169,0.29262 0.149559,0.60052 0.0241,0.29242 0.08428,0.54258 0.154514,0.64244 0.09001,0.12798 0.115025,0.30226 0.115025,0.80137 0,0.53766 0.02077,0.66423 0.132291,0.806 0.128233,0.16302 0.132292,0.26834 0.132292,3.4338 0,3.18377 -0.0033,3.26846 -0.132292,3.3789 -0.126642,0.10843 -0.132291,0.19512 -0.132291,2.02957 0,1.80187 0.0075,1.92336 0.126529,2.03463 0.06959,0.0651 0.136564,0.20566 0.148828,0.3124 0.01736,0.15097 0.06637,0.20625 0.220737,0.24892 0.303683,0.0839 0.496093,0.0143 0.496093,-0.17967 0,-0.0902 0.02685,-0.1641 0.05967,-0.1641 0.160325,0 0.20491,-0.49713 0.20491,-2.28482 0,-1.59962 0.01426,-1.87369 0.09922,-1.90629 0.08243,-0.0316 0.09922,-0.21573 0.09922,-1.08781 0,-0.57737 0.01961,-1.67963 0.04359,-2.44948 l 0.04359,-1.39973 h 0.154845 c 0.09753,0 0.154847,0.039 0.154847,0.10533 0,0.0579 0.05953,0.181 0.132292,0.2735 0.108373,0.13778 0.132291,0.26834 0.132291,0.72215 0,0.47211 0.01955,0.5707 0.132292,0.66724 0.126063,0.10794 0.132292,0.19513 0.132292,1.85208 0,1.65696 0.0062,1.74415 0.132291,1.85208 0.120291,0.103 0.132292,0.19513 0.132292,1.0157 0,0.80226 0.01468,0.92108 0.132292,1.0706 0.10805,0.13736 0.132291,0.26834 0.132291,0.71478 0,0.42021 0.02582,0.57514 0.111713,0.67004 0.07068,0.0781 0.122055,0.2744 0.139861,0.53437 0.01601,0.23366 0.07086,0.4595 0.127156,0.5235 0.0575,0.0654 0.113163,0.30108 0.132766,0.56224 0.02024,0.26959 0.08351,0.53228 0.158003,0.65592 0.07618,0.12645 0.124418,0.33118 0.124685,0.52917 2.65e-4,0.21093 0.04601,0.39174 0.131858,0.52136 0.08791,0.13274 0.131564,0.31045 0.131855,0.53678 2.65e-4,0.23769 0.03979,0.38838 0.132728,0.50653 0.07276,0.0925 0.132292,0.21266 0.132292,0.26703 0,0.0544 0.08185,0.13272 0.181901,0.17412 0.212463,0.0879 0.536443,0.24894 0.677995,0.337 0.05457,0.034 0.195956,0.10529 0.314193,0.15855 0.118234,0.0533 0.214974,0.12575 0.214974,0.1611 0,0.0353 0.09131,0.0843 0.202906,0.10883 0.111599,0.0245 0.218964,0.0864 0.238588,0.13755 0.01963,0.0511 0.07546,0.093 0.124071,0.093 0.04861,0 0.127286,0.0553 0.174823,0.1228 0.04754,0.0675 0.153882,0.14411 0.236316,0.17016 0.183795,0.0581 0.809233,0.6826 0.809233,0.80807 0,0.05 0.05953,0.14186 0.132292,0.20416 0.07794,0.0667 0.132469,0.19555 0.132725,0.31354 2.65e-4,0.11015 0.05958,0.28957 0.131858,0.39871 0.102624,0.15496 0.131514,0.31077 0.131855,0.71107 2.65e-4,0.42407 0.02328,0.53549 0.132728,0.64492 0.07276,0.0728 0.132292,0.17347 0.132292,0.2238 0,0.0503 0.05953,0.10707 0.132292,0.1261 0.07276,0.019 0.132291,0.08 0.132291,0.13555 0,0.0555 0.05678,0.11897 0.12618,0.141 0.0694,0.022 0.141804,0.0808 0.160896,0.13051 0.0191,0.0498 0.125844,0.11048 0.237225,0.13495 0.111385,0.0245 0.230344,0.0942 0.264356,0.15506 0.0513,0.0917 1.145826,-0.29072 1.511377,0.11059 l 0.226803,1.78012 0.769705,1.42067 0.767956,1.31059 1.349155,1.29217 1.461617,0.79383 1.645063,0.23135 c -34.336972,29.70156 -27.696065,21.9492 -32.357159,0.13041 z"
       id="path13877"
       inkscape:connector-curvature="0"
       sodipodi:nodetypes="cccccccsccscscssccccssscscssscsccccsssccscscscscsssscscccccsccccscsccccscsccsscscscccssscsccsscscscscscccccccccscccsccsccscccccscsccccsccccccc" />
    <path
       style="opacity:1;fill:#153d5b;fill-opacity:1;fill-rule:nonzero;stroke:none;stroke-width:0.36625001;stroke-miterlimit:4;stroke-dasharray:none;stroke-opacity:1"
       d="m -97.984088,266.90395 c -0.0032,-97.63936 0,0 -0.0032,-97.63936 0.03412,0 0.665509,0.18752 0.685596,0.23987 0.02009,0.0523 0.126364,0.11491 0.23617,0.13903 0.109805,0.0241 0.263588,0.10173 0.341739,0.17247 0.07815,0.0708 0.189239,0.1719 0.246861,0.22478 0.05762,0.0529 0.134289,0.0962 0.170371,0.0962 0.03608,0 0.135512,0.0744 0.220955,0.16536 0.08544,0.0909 0.194812,0.16537 0.243041,0.16537 0.04823,0 0.08769,0.0304 0.08769,0.0676 0,0.0372 0.07441,0.10147 0.165365,0.14291 0.09095,0.0414 0.165364,0.11321 0.165364,0.15949 0,0.0463 0.05953,0.10304 0.132292,0.12613 0.07276,0.0231 0.132292,0.0846 0.132292,0.13675 0,0.0521 0.03072,0.0948 0.06827,0.0948 0.03755,0 0.506359,0.43322 1.041796,0.96271 1.202966,1.1896 1.138665,1.132 1.355635,1.21449 0.09907,0.0377 0.180126,0.0986 0.180126,0.13549 0,0.0368 0.121614,0.0864 0.270252,0.11021 0.148638,0.0238 0.285768,0.0837 0.304733,0.13308 0.04428,0.11538 0.381004,0.11661 0.495816,0.002 0.04843,-0.0484 0.169623,-0.10853 0.269308,-0.13355 0.09969,-0.025 0.181246,-0.0861 0.181246,-0.13574 0,-0.0496 0.05953,-0.10581 0.132291,-0.12483 0.07276,-0.019 0.132292,-0.082 0.132292,-0.14001 0,-0.058 0.04264,-0.10541 0.09476,-0.10541 0.05212,0 0.114588,-0.0625 0.138821,-0.13883 0.02423,-0.0763 0.100654,-0.19541 0.169822,-0.26458 0.06917,-0.0692 0.125762,-0.18529 0.125762,-0.25805 0,-0.0728 0.05953,-0.19183 0.132292,-0.26459 0.09088,-0.0909 0.132291,-0.22048 0.132291,-0.41403 0,-0.21011 0.03364,-0.30275 0.132292,-0.36436 0.1156,-0.0722 0.132292,-0.15426 0.132292,-0.6504 0,-0.46763 0.02334,-0.59745 0.132291,-0.73597 0.07277,-0.0925 0.132292,-0.26834 0.132292,-0.39077 v -0.22259 h 0.719505 c 0.553122,0 0.738211,0.0225 0.800397,0.0975 0.04449,0.0536 0.186158,0.11721 0.314817,0.14135 0.257874,0.0484 0.246379,0.0399 0.92687,0.68432 0.263756,0.24977 0.479557,0.49682 0.479557,0.549 0,0.0522 0.05953,0.14873 0.132292,0.21458 0.07276,0.0658 0.132292,0.18551 0.132292,0.26591 0,0.0804 0.05953,0.22188 0.132291,0.31438 0.09559,0.12152 0.132292,0.26834 0.132292,0.52916 0,0.26083 0.0367,0.40765 0.132292,0.52917 0.111299,0.1415 0.132291,0.26834 0.132291,0.79938 0,0.52342 -0.01906,0.64187 -0.1116,0.69366 -0.0789,0.0442 -0.125142,0.1933 -0.157826,0.50907 -0.03171,0.30639 -0.07974,0.46537 -0.152983,0.50636 -0.06386,0.0357 -0.106757,0.14554 -0.106757,0.27327 0,0.13166 -0.05071,0.25694 -0.132292,0.32679 -0.07276,0.0623 -0.132292,0.19072 -0.132292,0.28539 0,0.0947 -0.05953,0.24779 -0.132291,0.3403 -0.116557,0.14817 -0.132292,0.26833 -0.132292,1.01023 0,0.7419 0.01573,0.86206 0.132292,1.01024 0.07276,0.0925 0.132291,0.2121 0.132291,0.26579 0,0.0537 0.05953,0.11317 0.132292,0.1322 0.07276,0.019 0.132292,0.08 0.132292,0.13555 0,0.0555 0.05953,0.11985 0.132291,0.14294 0.07276,0.0231 0.132292,0.0826 0.132292,0.13229 0,0.0497 0.05953,0.1092 0.132292,0.13229 0.07276,0.0231 0.132291,0.0846 0.132291,0.13675 0,0.0521 0.02764,0.0948 0.06142,0.0948 0.03378,0 0.110351,0.0489 0.170154,0.10874 0.78177,0.95472 1.874528,0.0771 2.654922,0.32121 0.02094,0.0546 0.08047,0.0992 0.132291,0.0992 0.05182,0 0.112932,0.0521 0.135806,0.11576 0.02287,0.0637 0.09635,0.169 0.163288,0.23408 0.06694,0.0651 0.121702,0.17566 0.121702,0.24572 0,0.0701 0.05953,0.15925 0.132291,0.19819 0.08466,0.0453 0.132292,0.1385 0.132292,0.25881 0,0.10341 0.04134,0.22232 0.09187,0.26426 0.05053,0.0419 0.124324,0.20513 0.16399,0.36266 0.03967,0.15753 0.117388,0.32398 0.172713,0.3699 0.05533,0.0459 0.100594,0.16943 0.100594,0.27447 0,0.10913 0.0567,0.23953 0.132291,0.30426 0.07276,0.0623 0.132292,0.18136 0.132292,0.26458 0,0.0832 0.05953,0.20229 0.132292,0.26459 0.07276,0.0623 0.132291,0.18136 0.132291,0.26458 0,0.0832 0.05953,0.20228 0.132292,0.26458 0.07276,0.0623 0.132292,0.16619 0.132292,0.23086 0,0.0647 0.05953,0.17713 0.132291,0.24989 0.07276,0.0728 0.132292,0.17032 0.132292,0.21681 0,0.0465 0.05953,0.13549 0.132292,0.19779 0.07276,0.0623 0.132291,0.17204 0.132291,0.24388 0,0.0718 0.05953,0.16247 0.132292,0.20141 0.07276,0.0389 0.132292,0.12467 0.132292,0.19052 0,0.0658 0.05953,0.17358 0.132291,0.23943 0.07276,0.0658 0.132292,0.17117 0.132292,0.23405 0,0.0629 0.05953,0.12989 0.132292,0.14892 0.0749,0.0196 0.132291,0.0902 0.132291,0.16283 0,0.0705 0.05953,0.1821 0.132292,0.24795 0.07276,0.0659 0.132292,0.15871 0.132292,0.20636 0,0.0477 0.05953,0.1185 0.132291,0.15744 0.07276,0.0389 0.132292,0.11293 0.132292,0.16441 0,0.0515 0.04062,0.11741 0.09026,0.1465 0.04964,0.0291 0.139703,0.14963 0.200137,0.26787 0.06043,0.11824 0.138879,0.21497 0.174326,0.21497 0.03545,0 0.06445,0.0436 0.06445,0.0969 0,0.0533 0.05953,0.12875 0.132291,0.16769 0.07276,0.0389 0.132292,0.11292 0.132292,0.1644 0,0.0515 0.04062,0.11741 0.09026,0.1465 0.04964,0.0291 0.139703,0.14964 0.200137,0.26787 0.06043,0.11824 0.136874,0.21498 0.169868,0.21498 0.033,0 0.07888,0.0595 0.101978,0.13229 0.02309,0.0728 0.08463,0.13229 0.136749,0.13229 0.05212,0 0.09476,0.0436 0.09476,0.0969 0,0.0533 0.05953,0.12875 0.132292,0.16769 0.07276,0.0389 0.13248,0.10696 0.132709,0.15116 1.99e-4,0.0442 0.08624,0.12917 0.191132,0.18884 0.172219,0.098 0.508369,0.27674 0.825045,0.28912 -0.0136,0.15861 1.974394,2.46697 1.936216,4.74073 -5.32415,-0.44015 9.041146,34.40175 5.01726,34.6351 -18.899493,-3.85338 -0.726998,32.94772 -29.315459,37.71206 z"
       id="path13879"
       inkscape:connector-curvature="0"
       sodipodi:nodetypes="cccccssssscscssssscsccscssccscscssscscccscscscscccscscscscscscssccsccscscscscssssssscscscscscscsccsscsccscssccccccc" />
    <path
       style="opacity:1;fill:#153d5b;fill-opacity:1;fill-rule:nonzero;stroke:none;stroke-width:1.03591144;stroke-miterlimit:4;stroke-dasharray:none;stroke-opacity:1"
       d="m 193.00677,220.793 c -0.11295,-0.52669 -0.15052,-1.50963 -0.0847,-2.21724 0.12403,-1.33469 -0.14968,-2.54239 -0.89374,-3.94324 -0.19047,-0.35863 -0.34631,-0.84825 -0.34631,-1.08806 0,-0.23981 -0.0967,-0.61664 -0.21482,-0.8374 -0.14219,-0.26567 -0.25784,-2.60368 -0.34211,-6.91533 -0.0829,-4.24308 -0.19761,-6.58428 -0.32903,-6.71569 -0.303,-0.30299 -0.70639,0.43811 -1.18491,2.17687 -0.22656,0.82319 -0.45802,1.62299 -0.51438,1.77734 -0.0564,0.15435 -0.20735,0.74368 -0.33552,1.30962 -0.80504,3.55416 -1.17665,4.54293 -1.19538,3.18051 -0.019,-1.38116 -0.67292,-4.76265 -1.02495,-5.29991 -0.18012,-0.27491 -0.48691,-0.49984 -0.68175,-0.49984 -0.27932,0 -0.31723,-0.0692 -0.17925,-0.32741 0.0962,-0.18007 0.27768,-1.46143 0.4032,-2.84746 0.15123,-1.67033 -0.061,-1.87066 0.23587,-1.89777 0.36862,-0.0337 0.46937,0.18882 1.65637,0.26009 0.75242,0.0452 1.74689,0.18448 2.20993,0.30958 0.95015,0.25669 3.79159,0.32941 4.46681,0.11431 0.28469,-0.0907 1.01039,-0.35419 0.93543,-0.23293 3.88009,5.8374 1.71953,10.33126 1.31149,15.3558 -0.0947,1.13189 0.73141,3.44477 0.66397,5.68282 -0.0675,2.23805 -4.1194,3.60145 -4.20238,3.60145 -0.083,0 -0.2422,-0.42575 -0.3538,-0.94611 z"
       id="path13881"
       inkscape:connector-curvature="0"
       sodipodi:nodetypes="cccsccccccccsccsccccccsc" />
    <path
       style="opacity:1;fill:#153d5b;fill-opacity:1;fill-rule:nonzero;stroke:none;stroke-width:1.03591144;stroke-miterlimit:4;stroke-dasharray:none;stroke-opacity:1"
       d="m 196.19318,219.35373 c -0.83662,-5.72799 -0.97415,-11.37982 -0.47483,-19.51091 0.11356,-1.84944 0.0896,-2.2014 -0.16748,-2.45847 -0.27532,-0.27531 -0.26209,-0.30728 0.1605,-0.38807 0.25328,-0.0484 0.81838,-0.007 1.25576,0.0918 1.11041,0.25107 3.75021,1.08989 3.97574,1.26332 0.56081,0.43129 3.22728,1.68545 3.58344,1.68545 0.22928,0 0.46892,0.0842 0.5325,0.18709 0.0636,0.1029 0.46008,0.18709 0.88106,0.18709 0.91501,0 3.66271,-0.50453 4.12102,-0.7567 0.1787,-0.0983 3.42516,0.17679 3.63701,0.17679 -0.19137,2.8034 0.0498,12.37769 -0.23524,14.7051 -7.37396,1.53738 -9.28084,-4.054 -16.91957,6.26747 -0.076,0 -0.23345,-0.65247 -0.34991,-1.44994 z"
       id="path13883"
       inkscape:connector-curvature="0"
       sodipodi:nodetypes="ccccccscsccccc" />
    <path
       style="opacity:1;fill:#153d5b;fill-opacity:1;fill-rule:nonzero;stroke:none;stroke-width:1.03591144;stroke-miterlimit:4;stroke-dasharray:none;stroke-opacity:1"
       d="m 213.04356,215.08069 c -0.29289,-2.70395 -0.27747,-4.96598 0.0586,-8.5893 0.15271,-1.64638 0.27958,-3.49856 0.28194,-4.11595 0.003,-0.61739 0.0578,-1.44673 0.12329,-1.84296 l 0.11901,-0.72043 1.2142,0.13003 c 1.16589,0.12485 1.2318,0.10955 1.65627,-0.38443 0.40793,-0.47473 0.44206,-0.67676 0.44206,-2.61616 0,-1.72684 0.0587,-2.17416 0.32904,-2.50804 0.21159,-0.26128 0.44164,-0.36315 0.64444,-0.28533 0.44281,0.16993 1.67175,1.82802 2.42261,3.26865 0.86545,1.66043 1.25217,1.83337 3.13007,1.39973 0.7838,-0.18099 1.53093,-0.41221 1.66029,-0.51382 0.16711,-0.13128 0.48662,0.0111 1.104,0.49216 0.47786,0.37229 1.1907,0.82509 1.58411,1.00622 l 9.65105,-0.37947 c 14.9578,39.32088 -21.8658,42.02715 -24.42099,15.6591 z"
       id="path13885"
       inkscape:connector-curvature="0"
       sodipodi:nodetypes="cccccccsccccccccc" />
    <path
       style="opacity:1;fill:#153d5b;fill-opacity:1;fill-rule:nonzero;stroke:none;stroke-width:1.03591144;stroke-miterlimit:4;stroke-dasharray:none;stroke-opacity:1"
       d="m 256.00533,243.31404 c -0.64807,-0.54856 -15.91675,-17.32296 -16.54871,-17.63112 -1.42181,-0.69329 -2.34508,-1.51378 -2.36135,-2.09848 -0.007,-0.24319 0.0833,-1.11568 0.20005,-1.93887 0.54078,-3.81141 0.89488,-14.15821 0.59547,-17.39924 -0.11408,-1.23479 -0.25664,-2.8255 -0.31683,-3.5349 l -0.10941,-1.28984 0.54158,0.13059 c 1.51616,0.36558 2.40172,0.46317 4.28334,0.47204 2.05549,0.01 2.05824,0.009 2.29182,-0.49387 0.12864,-0.27696 0.23386,-0.61232 0.23386,-0.74524 0,-0.3466 0.95425,-3.11094 1.14671,-3.3219 0.19118,-0.20956 0.64905,0.34619 0.81409,0.98818 0.12586,0.4895 0.32396,0.76888 1.09919,1.55023 0.4088,0.41204 0.70765,0.5385 1.27256,0.5385 0.65215,0 0.76116,-0.0655 0.93398,-0.56127 0.18045,-0.51762 0.26332,-0.56045 1.06601,-0.55081 0.87693,0.0105 1.8551,0.34774 2.97394,1.02524 0.50559,0.30615 0.82204,1.51474 3.22906,1.25578 -3.73865,9.17405 4.93019,48.02094 -1.34536,43.60498 z"
       id="path13887"
       inkscape:connector-curvature="0"
       sodipodi:nodetypes="ccccccccscsccssccccc" />
    <path
       style="opacity:1;fill:#153d5b;fill-opacity:1;fill-rule:nonzero;stroke:none;stroke-width:2.07182288;stroke-miterlimit:4;stroke-dasharray:none;stroke-opacity:1"
       d="m 252.63393,266.91744 c -0.0353,-0.51449 4.03313,-51.88287 3.84292,-53.94084 -0.19019,-2.05798 -0.24244,-5.88862 -0.1161,-8.51254 0.22722,-4.71923 0.23939,-4.77076 1.12561,-4.77076 0.49274,0 1.56126,-0.32148 2.37451,-0.7144 1.299,-0.62761 9.13296,-3.02213 15.74432,-4.50418 1.07495,-0.24097 5.32254,-1.00323 5.24605,-192.4516819 0,0 -0.61124,191.5423719 0.0765,191.4484519 l -0.0285,73.43246 z"
       id="path13889"
       inkscape:connector-curvature="0"
       sodipodi:nodetypes="ccsscssccc" />
  </g>
</svg>
