<?xml version="1.0" encoding="UTF-8" standalone="no"?>
<!-- Created with Inkscape (http://www.inkscape.org/) -->

<svg
   xmlns:dc="http://purl.org/dc/elements/1.1/"
   xmlns:cc="http://creativecommons.org/ns#"
   xmlns:rdf="http://www.w3.org/1999/02/22-rdf-syntax-ns#"
   xmlns:svg="http://www.w3.org/2000/svg"
   xmlns="http://www.w3.org/2000/svg"
   xmlns:sodipodi="http://sodipodi.sourceforge.net/DTD/sodipodi-0.dtd"
   xmlns:inkscape="http://www.inkscape.org/namespaces/inkscape"
   width="378.66776mm"
   height="264.84793mm"
   viewBox="0 0 378.66776 264.84793"
   version="1.1"
   id="svg7801"
   inkscape:version="0.92.4 (5da689c313, 2019-01-14)"
   sodipodi:docname="parallax6.svg">
  <defs
     id="defs7795" />
  <sodipodi:namedview
     id="base"
     pagecolor="#ffffff"
     bordercolor="#666666"
     borderopacity="1.0"
     inkscape:pageopacity="0.0"
     inkscape:pageshadow="2"
     inkscape:zoom="0.35"
     inkscape:cx="882.73326"
     inkscape:cy="220.49999"
     inkscape:document-units="mm"
     inkscape:current-layer="layer1"
     showgrid="false"
     inkscape:window-width="1858"
     inkscape:window-height="1057"
     inkscape:window-x="54"
     inkscape:window-y="-8"
     inkscape:window-maximized="1" />
  <metadata
     id="metadata7798">
    <rdf:RDF>
      <cc:Work
         rdf:about="">
        <dc:format>image/svg+xml</dc:format>
        <dc:type
           rdf:resource="http://purl.org/dc/dcmitype/StillImage" />
        <dc:title></dc:title>
      </cc:Work>
    </rdf:RDF>
  </metadata>
  <g
     inkscape:label="Calque 1"
     inkscape:groupmode="layer"
     id="layer1"
     transform="translate(260.39282,148.38825)">
    <path
       style="opacity:1;fill:#0b1331;fill-opacity:1;fill-rule:nonzero;stroke:none;stroke-width:0.77672935;stroke-miterlimit:4;stroke-dasharray:none;stroke-opacity:1"
       d="m -247.18793,79.005294 c 7.2e-4,1.04098 3.85138,-1.50599 4.18857,-2.73554 0.10116,-0.36885 0.64768,-1.45457 0.72954,-1.62467 4.36408,-0.90395 6.69048,0.66828 6.97201,-0.29221 0.67674,-2.35024 1.25306,-6.3225 2.52276,-5.78966 0.39081,0.20916 0.50745,0.79437 0.38457,2.52749 -0.0609,0.8594 -0.11688,2.44535 -0.12433,3.52433 l -0.0135,1.9618 0.39891,0.19142 c 0.25738,0.12351 0.6058,0.15968 0.98196,0.10195 0.5061,-0.0777 0.80679,-0.30628 2.2786,-1.73238 2.30768,-2.23601 2.57195,-2.81722 2.85189,-6.27213 0.0813,-1.003 0.18135,-2.64427 0.2224,-3.64727 0.14359,-3.5084 0.46673,-6.10217 0.76024,-6.10217 0.23857,0 0.31322,0.70191 0.44013,4.13825 0.1767,4.78465 0.38697,8.53771 0.49395,8.81651 0.0489,0.12734 0.15543,0.23153 0.2368,0.23153 0.0814,0 0.6901,-0.55885 1.35272,-1.24188 2.53357,-2.45261 3.30324,-2.24114 6.88609,-2.92521 5.34329,-1.01322 7.18782,-30.76096 9.52186,-30.97988 0,0 0.35199,5.54546 -0.39663,11.25793 -0.22835,1.74251 0.89027,8.45558 1.04933,19.11954 0.12707,0.41062 0.59448,1.1181 0.90238,1.36581 2.49571,0.58 1.7123,3.54971 3.46922,5.71298 1.10528,1.36092 3.6416,0.0233 4.31732,-0.97577 0.38569,-3.80096 0.68169,-5.43281 1.00122,-12.24554 0.0544,-1.1795 0.15215,-2.17746 0.21723,-2.21768 0.0651,-0.0402 0.11833,-1.72962 0.11833,-3.75421 0,-2.17271 0.0554,-3.73643 0.13509,-3.81616 0.0745,-0.0745 0.166,-1.58122 0.20401,-3.3597 0.0672,-3.14272 0.26551,-7.03484 0.44132,-8.66044 0.0951,-0.87915 0.34182,-1.10699 0.34182,-0.31563 0,0.27004 0.0631,0.49098 0.14028,0.49098 0.0772,0 0.14229,0.29984 0.14474,0.66632 0.002,0.36648 0.0974,0.78927 0.21108,0.93953 0.11364,0.15026 0.1705,0.38698 0.12636,0.52605 -0.0504,0.15869 -0.01,0.25285 0.10982,0.25285 0.22189,0 0.31264,-1.06677 0.10182,-1.19706 -0.1852,-0.11446 -0.17777,-11.52397 0.008,-11.63853 0.0771,-0.0477 0.14028,-0.42644 0.14028,-0.84167 0,-0.41524 0.0631,-0.794 0.14028,-0.84168 0.0772,-0.0477 0.14028,-0.26863 0.14028,-0.49098 0,-0.22236 0.0631,-0.4433 0.14028,-0.49098 0.0771,-0.0477 0.14028,-0.26862 0.14028,-0.49098 0,-0.22235 0.0631,-0.44329 0.14028,-0.49098 0.0771,-0.0477 0.14028,-0.29129 0.14028,-0.54134 0,-0.25005 0.0567,-0.51461 0.12591,-0.58791 0.0692,-0.0733 0.15919,-0.38577 0.19985,-0.69438 0.0407,-0.30862 0.20185,-1.2555 0.35816,-2.1042 0.15633,-0.84869 0.28733,-1.99701 0.29113,-2.55182 0.004,-0.55481 0.07,-1.04776 0.14719,-1.09545 0.0796,-0.0492 0.14028,-0.74685 0.14028,-1.61321 0,-0.86636 0.0607,-1.56401 0.14028,-1.61322 0.0797,-0.0493 0.14028,-0.74961 0.14028,-1.62149 0,-0.92968 0.0553,-1.5348 0.14028,-1.5348 0.0831,0 0.14028,-0.5116 0.14028,-1.25424 0,-0.6898297 0.0631,-1.2932497 0.14027,-1.3409297 0.0772,-0.0477 0.14229,-0.35126 0.14475,-0.67461 0.004,-0.53391 0.2399,-1.07889 0.46691,-1.07889 0.0494,0 0.0898,0.0947 0.0898,0.21042 0,0.11573 0.0631,0.21042 0.14028,0.21042 0.0771,0 0.14028,0.18565 0.14028,0.41256 0,0.22691 0.0631,0.45158 0.14028,0.49926 0.0771,0.0477 0.14028,0.32285 0.14028,0.61148 0,0.28863 0.0578,0.58475 0.12846,0.65805 0.0707,0.0733 0.16255,0.5120197 0.20422,0.9749397 0.0417,0.46293 0.14641,1.56763 0.23276,2.4549 0.17738,1.82277 0.0863,6.16167 -0.13814,6.58106 -0.20708,0.38693 -0.19434,6.25239 0.0149,6.8867 0.10948,0.3318 0.1661,2.19792 0.17535,5.77837 0.0144,5.56326 0.0465,5.85125 0.6137,5.49574 0.1329,-0.0833 0.26004,-0.30282 0.28253,-0.48783 0.0225,-0.185 0.0971,-0.46262 0.1658,-0.61693 0.0687,-0.15431 0.15516,-0.46993 0.19216,-0.70139 0.11503,-0.7195 0.48266,-2.22752 0.63266,-2.59518 0.10715,-0.26264 0.1453,0.16674 0.15196,1.71015 0.005,1.23254 -0.0475,2.09569 -0.13138,2.14754 -0.0801,0.0495 -0.14028,0.76364 -0.14028,1.66358 -0.28362,3.85088 -0.12934,4.02333 -0.0938,8.67125 0.12186,0.73296 2.13862,11.40807 2.1782,11.65954 -0.002,4.81645 -1.59229,8.84815 0.007,12.95022 0,0.10377 1.02268,7.59694 1.18151,7.74067 0.39462,0.35714 2.77358,1.38122 5.74044,3.44248 2.07284,3.16739 3.27779,8.92541 5.70847,12.73498 6.08013,3.863466 8.79191,4.758926 13.45418,6.542566 1.35167,0.37168 6.74684,3.41658 11.73695,2.82389 0.33368,-0.056 6.38243,2.34839 6.65247,2.31227 0.27004,-0.0361 8.54365,1.11631 10.04812,1.32105 1.40527,0.40311 9.11529,2.02478 9.42391,1.95599 2.38734,0.32779 10.20372,-0.0772 13.15189,0.082 3.12263,1.28565 32.974541,0.86161 43.050511,-0.0685 14.13884,-4.31494 23.04118,1.48248 29.61293,-3.40976 0.69438,-0.32686 1.83958,-0.79044 2.54487,-1.03018 1.94523,-0.66121 2.67106,-0.7846 7.99944,-1.35988 7.22166,-1.11223 18.6782402,-0.35874 34.3986802,0.80758 9.7508198,4.52144 14.0775598,3.102 29.1569498,2.925 3.24231,-0.8435 29.28305,-1.43132 31.35493,-1.63717 l 35.174759,-3.49477 9.9889,-0.0527 2.67049,-252.5517 v 264.84792 l -250.71387,-0.38988 h -127.79473 c -0.29829,-12.44294 -0.71248,-65.952746 4.28504,-70.293126 0,0 -0.64739,29.07726 8.76128,33.22863 z"
       id="path7784"
       inkscape:connector-curvature="0"
       sodipodi:nodetypes="ccccccccsccsssscsccssccscccssccsscccsccscscscscccccscsssccsssscsccsccscccccsccccccccccscccccccccsccccccsc" />
  </g>
</svg>
