<?xml version="1.0" encoding="UTF-8" standalone="no"?>
<!-- Created with Inkscape (http://www.inkscape.org/) -->

<svg
   xmlns:dc="http://purl.org/dc/elements/1.1/"
   xmlns:cc="http://creativecommons.org/ns#"
   xmlns:rdf="http://www.w3.org/1999/02/22-rdf-syntax-ns#"
   xmlns:svg="http://www.w3.org/2000/svg"
   xmlns="http://www.w3.org/2000/svg"
   xmlns:sodipodi="http://sodipodi.sourceforge.net/DTD/sodipodi-0.dtd"
   xmlns:inkscape="http://www.inkscape.org/namespaces/inkscape"
   width="730.86731mm"
   height="538.42657mm"
   viewBox="0 0 730.86731 538.42657"
   version="1.1"
   id="svg4082"
   inkscape:version="0.92.4 (5da689c313, 2019-01-14)"
   sodipodi:docname="parallax3.svg">
  <defs
     id="defs4076" />
  <sodipodi:namedview
     id="base"
     pagecolor="#ffffff"
     bordercolor="#666666"
     borderopacity="1.0"
     inkscape:pageopacity="0.0"
     inkscape:pageshadow="2"
     inkscape:zoom="0.175"
     inkscape:cx="1232.5331"
     inkscape:cy="1170.5123"
     inkscape:document-units="mm"
     inkscape:current-layer="layer1"
     showgrid="false"
     inkscape:window-width="1858"
     inkscape:window-height="1057"
     inkscape:window-x="54"
     inkscape:window-y="-8"
     inkscape:window-maximized="1" />
  <metadata
     id="metadata4079">
    <rdf:RDF>
      <cc:Work
         rdf:about="">
        <dc:format>image/svg+xml</dc:format>
        <dc:type
           rdf:resource="http://purl.org/dc/dcmitype/StillImage" />
        <dc:title></dc:title>
      </cc:Work>
    </rdf:RDF>
  </metadata>
  <g
     inkscape:label="Calque 1"
     inkscape:groupmode="layer"
     id="layer1"
     transform="translate(392.26996,120.38015)">
    <path
       style="opacity:1;fill:#061526;fill-opacity:1;fill-rule:nonzero;stroke:none;stroke-width:4.76425934;stroke-miterlimit:4;stroke-dasharray:none;stroke-opacity:1"
       d="m -297.82355,379.51984 c -0.49045,-0.59155 -1.31175,-6.49631 -1.82511,-13.12169 -1.64504,-21.23054 -1.85611,-22.80163 -3.06318,-22.80163 -1.66952,0 -2.18425,2.02536 -2.76619,10.88458 -0.29343,4.46712 -0.87105,7.7745 -1.31034,7.50301 -1.93537,-1.19613 -2.75444,-6.00385 -3.20592,-18.81783 -0.39662,-11.25683 -0.7135,-13.76701 -1.73789,-13.76701 -1.94176,0 -3.55138,6.7279 -4.10149,17.14341 -0.48377,9.15958 -0.5353,9.35149 -2.01919,7.51895 -2.06933,-2.5555 -3.38075,-9.20371 -3.38811,-17.17587 -0.009,-10.05184 -0.9584,-18.35052 -2.05703,-17.98574 -0.6256,0.20772 -1.09481,5.85504 -1.37861,16.59279 l -0.43022,16.27788 h -2.1395 c -2.48091,0 -3.58735,-1.88222 -5.59348,-9.51535 -1.58008,-6.01204 -7.84628,-49.51703 -7.21393,-50.54018 1.63535,-0.38253 4.29513,-1.02422 4.29513,-1.02422 1.17761,1.39009 1.83613,1.88103 1.87523,1.59012 l 0.32581,-2.42435 c 9.34653,-2.29159 0,0 9.34653,-2.29159 0,0 1.47511,6.106 2.19849,9.95802 0.64991,3.46075 2.58044,4.90821 3.33589,4.48712 0,0 1.24066,-10.79627 2.69615,-15.52204 0.56679,-1.84031 2.24728,-0.73703 2.93346,-0.89752 0.0818,4.72421 1.48902,14.50787 2.49806,17.3678 0.70067,1.98591 3.24267,5.97641 5.64889,8.86778 2.40622,2.89136 5.70352,7.89522 7.32733,11.11969 1.62382,3.22445 4.91404,8.21981 7.31161,11.10081 l 4.35924,5.23814 -0.87939,12.26595 c -0.48366,6.74627 -0.88322,13.78249 -0.8879,15.63603 -0.004,1.85351 -0.20327,3.17529 -0.44131,2.93724 -0.36385,-0.36385 -3.00895,-18.52993 -3.00895,-20.66496 0,-0.38502 -0.33366,-0.70003 -0.74145,-0.70003 -0.40781,0 -0.93113,6.57024 -1.16296,14.60055 -0.28848,9.99276 -0.7666,15.01635 -1.515,15.91813 -1.32697,1.59888 -2.11178,1.65671 -3.28467,0.24201 z"
       id="path3972"
       inkscape:connector-curvature="0"
       sodipodi:nodetypes="cssscssscscscsscsscsssscsscccsccssscc" />
    <path
       style="opacity:1;fill:#061526;fill-opacity:1;fill-rule:nonzero;stroke:none;stroke-width:1.68442011;stroke-miterlimit:4;stroke-dasharray:none;stroke-opacity:1"
       d="m -271.15071,385.32226 c -0.0183,-0.13049 -0.49889,-3.00527 -1.06792,-6.38842 -1.73429,-10.31115 -2.57138,-15.83364 -3.67603,-24.25176 -0.58183,-4.43389 -1.12751,-8.55607 -1.21263,-9.16045 l -0.15475,-1.09885 1.89821,0.94877 c 3.24654,1.62272 6.40802,3.0235 6.8238,3.0235 0.49499,0 0.4941,0.0448 -0.0208,1.0545 -0.625,1.22563 -1.66987,6.19302 -2.0285,9.64361 -0.19561,1.88212 -0.2453,6.98603 -0.13031,13.38527 0.11169,6.21552 0.0694,10.88951 -0.10593,11.71216 -0.16049,0.75292 -0.30679,1.26216 -0.32513,1.13167 z"
       id="path3974"
       inkscape:connector-curvature="0" />
    <path
       style="opacity:1;fill:#061526;fill-opacity:1;fill-rule:nonzero;stroke:none;stroke-width:1.68442011;stroke-miterlimit:4;stroke-dasharray:none;stroke-opacity:1"
       d="m -263.3808,382.82163 c -0.65781,-5.02682 -1.78564,-27.54662 -1.66066,-33.15904 0.0391,-1.75561 0.0857,-2.00988 0.1674,-0.91262 l 0.1132,1.52106 3.2529,1.5685 c 1.7891,0.86268 4.4433,2.32034 5.89823,3.2393 l 2.64534,1.67079 0.0926,-1.10983 c 0.0509,-0.61039 0.0926,3.20239 0.0926,8.47284 0,5.27047 0.0884,11.22539 0.19646,13.23318 l 0.19646,3.65054 -0.69738,-4.71527 c -0.38356,-2.59339 -1.05753,-7.17939 -1.4977,-10.19106 -0.90494,-6.1917 -0.91557,-6.23634 -1.48542,-6.23634 -0.29882,0 -0.53335,0.88191 -0.8292,3.11817 -0.40656,3.07311 -0.41649,3.09838 -0.68703,1.74921 -0.41031,-2.04621 -0.45272,-2.12947 -1.08409,-2.12947 -0.652,0 -0.85921,0.94872 -2.92352,13.3853 -0.5971,3.59727 -1.19936,6.95121 -1.33836,7.45315 -0.24096,0.87019 -0.26197,0.8419 -0.45176,-0.60841 z"
       id="path3976"
       inkscape:connector-curvature="0" />
    <path
       style="opacity:1;fill:#061526;fill-opacity:1;fill-rule:nonzero;stroke:none;stroke-width:1.68442011;stroke-miterlimit:4;stroke-dasharray:none;stroke-opacity:1"
       d="m -333.44106,288.90312 c 0.0975,-0.37277 0.54779,-5.26677 1.0007,-10.87554 0.85445,-10.58156 0.99228,-11.26254 2.27948,-11.26254 0.82026,0 1.34383,1.05124 2.04542,4.10686 0.59221,2.57921 2.58037,11.00619 3.4927,14.80407 l 0.41391,1.72299 -4.35802,1.09096 c -2.39691,0.60002 -4.51404,1.09096 -4.70472,1.09096 -0.20876,0 -0.27619,-0.26967 -0.16947,-0.67776 z"
       id="path3978"
       inkscape:connector-curvature="0" />
    <path
       style="opacity:1;fill:#061526;fill-opacity:1;fill-rule:nonzero;stroke:none;stroke-width:1.68442011;stroke-miterlimit:4;stroke-dasharray:none;stroke-opacity:1"
       d="m -340.38248,290.68633 c -0.2819,-1.71386 -0.77066,-9.08679 -0.74785,-11.28128 l 0.0223,-2.14473 0.71194,2.5858 c 1.01681,3.6931 2.47181,7.54917 3.34828,8.87359 0.4146,0.62651 0.79001,1.30167 0.83425,1.50035 0.0476,0.21402 -0.75365,0.57697 -1.96583,0.89045 l -2.04628,0.52917 z"
       id="path3980"
       inkscape:connector-curvature="0" />
    <path
       style="opacity:1;fill:#061526;fill-opacity:1;fill-rule:nonzero;stroke:none;stroke-width:1.68442011;stroke-miterlimit:4;stroke-dasharray:none;stroke-opacity:1"
       d="m -354.9481,300.98881 c 0.0738,-2.50976 0.19418,-4.94604 0.26744,-5.41396 0.27605,-1.76307 -0.93473,-10.87712 -1.71727,-12.92659 -0.29834,-0.78134 -0.33675,-0.79504 -0.72973,-0.25992 -0.50612,0.68916 -1.77542,5.95098 -2.43221,10.08255 -0.26598,1.67315 -0.54251,3.32838 -0.6145,3.67829 -0.10815,0.52557 -0.68862,0.78399 -3.33917,1.48654 -1.76455,0.4677 -3.28132,0.96856 -3.3706,1.11305 -0.0893,0.14446 -0.27889,0.26265 -0.42134,0.26265 -0.14244,0 -0.18179,-9.95913 -0.0874,-22.13139 0.16099,-20.76728 0.13898,-22.15843 -0.35697,-22.57004 -1.076,-0.893 -1.68083,0.10419 -2.91995,4.81417 -0.92319,3.50912 -1.18702,6.38125 -1.66601,18.13616 -0.30886,7.57978 -0.63138,12.07812 -1.04755,14.6105 -0.75789,4.61177 -2.76824,10.32904 -4.38279,12.46431 -0.41355,0.54692 -0.46306,-0.48318 -0.48987,-10.19109 -0.0432,-15.63381 -0.85823,-55.72927 -1.23061,-60.53802 -0.68851,-8.89116 -3.6328,-36.27837 -4.18619,-38.93904 -0.13419,-0.64522 -0.40125,-1.06474 -0.67776,-1.06474 -0.68119,0 -0.81302,2.06714 -1.03801,16.27529 -0.18685,11.80036 -0.44289,22.39499 -1.07704,44.56694 -0.16418,5.74033 -0.39763,9.49892 -0.62922,10.13056 -0.20251,0.55231 -0.41662,0.9558 -0.47581,0.89659 -0.22826,-0.22826 -1.05042,-6.51909 -1.93812,-14.82979 -1.2539,-11.73909 -1.19008,-10.97629 -1.69279,-20.23004 -0.86369,-15.89828 -0.45042,-38.13344 0.91315,-49.13011 0.23859,-1.92413 0.98136,-7.83161 1.6506,-13.12775 1.45657,-11.52671 1.75876,-15.08763 2.00968,-23.68182 0.19531,-6.68921 -0.21668,-22.75522 -0.7723,-30.1169 -1.00074,-13.25915 -2.21909,-26.224837 -3.04439,-32.398497 -0.54106,-4.04742 -0.8966,-10.97596 -0.89761,-17.49214 -10e-4,-6.48687 0.4291,-18.44141 0.77484,-21.53631 l 0.17991,-1.61047 2.02857,0.0894 2.02858,0.0894 0.64565,4.04138 c 0.3551,2.22276 0.71009,4.10583 0.78885,4.18459 0.0788,0.0788 0.32,-0.85005 0.53609,-2.06401 0.74237,-4.17055 0.90306,-3.41887 0.73128,3.42069 -0.13321,5.30409 -0.0645,7.6322 0.30523,10.34318 0.26243,1.92414 0.74762,5.48376 1.07821,7.91027 1.07283,7.87467 2.23646,20.36351 2.7635,29.65982 0.38261,6.748727 0.6933,9.170407 1.8734,14.602137 1.51084,6.95411 3.55522,13.58796 7.78122,25.24953 3.77317,10.41199 4.39433,12.18792 5.88348,16.82136 2.91569,9.07208 4.48354,16.02899 5.29311,23.48664 1.78363,16.43062 4.88718,38.27997 7.46706,52.56905 1.99998,11.07724 5.14628,26.36809 5.56496,27.04553 0.0852,0.13792 0.0244,0.933 -0.13511,1.76686 -1.37802,7.2022 -3.49844,25.05488 -3.67564,30.94678 -0.0561,1.86605 -0.21105,2.96494 -0.41818,2.96606 -0.18097,0 -1.2298,0.2845 -2.33074,0.63007 l -2.0017,0.62831 -0.19508,2.94619 c -0.38693,5.84348 -0.7157,7.18452 -0.57312,2.33775 z m -22.14176,1.52104 c 0.62212,-1.05439 0.54068,-1.23764 -0.39112,-0.88009 -0.41011,0.15738 -0.74019,1.94485 -0.35914,1.94485 0.0671,0 0.40475,-0.47913 0.75026,-1.06476 z"
       id="path3982"
       inkscape:connector-curvature="0" />
    <path
       style="opacity:1;fill:#061526;fill-opacity:1;fill-rule:nonzero;stroke:none;stroke-width:1.68442011;stroke-miterlimit:4;stroke-dasharray:none;stroke-opacity:1"
       d="m -351.99294,315.15939 c -1.2136,-0.74001 -2.35931,-2.27071 -2.86481,-3.82741 -0.4533,-1.39597 -0.45777,-7.03487 -0.006,-7.57923 0.16133,-0.19436 0.38853,-1.94587 0.50489,-3.89223 0.11636,-1.94633 0.2948,-3.67162 0.39653,-3.83397 0.1787,-0.28519 4.04954,-1.59732 4.2275,-1.43304 0.0483,0.0446 -0.0542,2.93915 -0.2277,6.4324 -0.17353,3.49324 -0.31571,8.23364 -0.31596,10.53422 -5.3e-4,4.57179 -0.0273,4.62804 -1.71444,3.59926 z"
       id="path3984"
       inkscape:connector-curvature="0" />
    <path
       style="opacity:1;fill:#061526;fill-opacity:1;fill-rule:nonzero;stroke:none;stroke-width:1.68442011;stroke-miterlimit:4;stroke-dasharray:none;stroke-opacity:1"
       d="m -362.85233,314.5318 c -1.20325,-1.42997 -1.9701,-3.05782 -2.47167,-5.24677 -0.44454,-1.94005 -1.48675,-10.27062 -1.30736,-10.45001 0.054,-0.054 1.50715,-0.55853 3.22914,-1.12112 l 3.13088,-1.02285 -0.18853,1.69257 c -0.1037,0.93091 -0.30207,4.70424 -0.44083,8.3852 -0.17161,4.55237 -0.38954,7.0236 -0.68146,7.72755 l -0.42917,1.03492 z"
       id="path3986"
       inkscape:connector-curvature="0" />
    <path
       style="opacity:1;fill:#061526;fill-opacity:1;fill-rule:nonzero;stroke:none;stroke-width:1.68442011;stroke-miterlimit:4;stroke-dasharray:none;stroke-opacity:1"
       d="m -390.32872,39.138983 c 0.10453,-1.21304 0.33582,-5.62791 0.51398,-9.81081 0.32709,-7.67953 0.4961,-9.78248 0.56233,-6.99686 0.0199,0.83658 0.3107,3.1638 0.64626,5.17159 0.84462,5.05376 2.12605,13.2294 2.12605,13.56442 0,0.15245 -0.9087,0.27719 -2.01933,0.27719 h -2.01933 z"
       id="path3988"
       inkscape:connector-curvature="0" />
    <path
       style="opacity:1;fill:#061526;fill-opacity:1;fill-rule:nonzero;stroke:none;stroke-width:1.68442011;stroke-miterlimit:4;stroke-dasharray:none;stroke-opacity:1"
       d="m -378.226,29.321813 c -0.75356,-2.39776 -3.47438,-18.60121 -4.01399,-23.9046397 -0.19227,-1.88975 -0.24525,-2.00927 -0.64048,-1.445 -0.4921,0.70257 -1.08883,0.79067 -1.55457,0.22949 -0.45841,-0.55235 -3.14231,-19.0067703 -3.54969,-24.4075603 -0.28525,-3.781716 -0.79035,-6.916504 -1.26135,-7.828288 -0.39634,-0.767249 -1.80998,-1.754367 -2.51241,-1.754367 -0.16398,0 -0.35687,0.308015 -0.42863,0.684477 -0.23539,1.23485 0.0802,-42.427689 0.33202,-45.944083 0.20648,-2.882644 0.34797,-3.532807 0.88589,-4.070724 0.46064,-0.460642 0.85457,-0.586351 1.40473,-0.44827 0.9638,0.241898 1.26694,1.180764 1.72667,5.347671 0.43347,3.928774 1.38242,9.365927 3.18849,18.268762 1.62664,8.018402 2.41695,15.067296 2.8821,25.705851 0.58778,13.443531 1.65786,19.923701 3.05842,18.521231 0.4013,-0.40185 1.72718,-7.95269 2.15715,-12.284899 0.25762,-2.595676 0.38646,-10.6582 0.40594,-25.40164 0.0207,-15.648935 0.13539,-22.395133 0.41646,-24.489006 0.47421,-3.53279 2.43342,-13.003368 2.86335,-13.841132 0.96019,-1.871009 2.68436,-2.554623 3.6457,-1.445482 0.66803,0.770739 1.95112,4.728025 2.49698,7.701172 0.66187,3.605035 1.0841,10.356027 1.08763,17.390044 0.003,6.527135 0.50635,14.826842 0.97274,16.047902 0.26607,0.696619 0.32687,0.719291 0.67138,0.250378 0.57451,-0.781958 1.95822,-11.87192 2.91528,-23.364978 0.4585,-5.505911 1.22362,-19.8891 1.22362,-23.002258 0,-0.682859 0.90465,-0.482835 1.18704,0.262466 0.14265,0.376462 0.36087,3.080139 0.48493,6.008171 0.21279,5.021847 0.36011,5.759905 1.15279,5.775357 0.13144,0.0026 0.50679,-0.620133 0.83412,-1.383768 0.90411,-2.10919 1.24472,-1.454108 1.17056,2.251297 -0.0357,1.784189 0.0359,3.55214 0.15922,3.928779 0.268,0.818822 1.16976,1.361747 1.83668,1.105824 0.53423,-0.205007 0.61573,-0.488715 1.08232,-3.767995 0.41684,-2.92962 0.55414,-3.346326 1.10259,-3.346326 1.0097,0 1.61197,2.593769 3.14338,13.537401 1.61379,11.532238 2.62183,21.758929 2.17246,22.039776 -0.61525,0.384522 -3.02189,9.660837 -3.83186,14.769785 -1.30112,8.206881 -1.82095,14.724462 -2.43845,30.5732323 -0.26403,6.7763 -0.54668,12.6374497 -0.62813,13.0247797 -0.10872,0.51702 -0.32389,0.67876 -0.80942,0.60842 -0.82003,-0.11879 -0.91474,-0.55244 -1.6487,-7.5489797 -0.50398,-4.80427 -0.56088,-8.55897 -0.5832,-38.4827193 -0.0153,-20.493951 -0.14431,-34.252554 -0.33778,-36.022045 -0.3401,-3.1105 -0.75552,-3.785931 -2.22301,-3.614364 -0.74262,0.08682 -0.77897,0.210452 -1.52133,5.174231 -0.41829,2.796905 -0.93165,5.254172 -1.14079,5.460592 -0.28914,0.285372 -0.3806,2.821091 -0.38168,10.581595 -0.002,14.537407 -0.5914,22.984839 -2.41291,34.58305 -1.14293,7.27745 -2.08196,11.7023203 -2.59667,12.2359103 -0.22315,0.23134 -0.657,0.32899 -0.99087,0.22303 -0.55878,-0.17735 -0.60571,-0.60642 -0.79375,-7.2562803 -0.10991,-3.88729 -0.20226,-16.376654 -0.2052,-27.754156 -0.005,-19.965106 -0.29908,-26.646121 -0.74783,-16.999405 -0.27387,5.887366 -1.24098,18.364923 -1.69784,21.905476 -0.41916,3.248332 -0.64099,3.75992 -1.42041,3.275785 -1.01327,-0.62939 -1.19888,-2.914639 -1.10925,-13.657659 0.0558,-6.690453 -0.0113,-9.913448 -0.18997,-9.126336 -0.49872,2.196824 -0.87803,14.287402 -1.05935,33.767448 -0.22163,23.8101073 -1.02579,48.520897 -1.65641,50.898827 -0.16764,0.63212 -0.43008,0.83822 -1.15932,0.91047 -0.69449,0.0688 -0.98811,-0.0513 -1.11539,-0.45632 z"
       id="path3990"
       inkscape:connector-curvature="0" />
    <path
       style="opacity:1;fill:#061526;fill-opacity:1;fill-rule:nonzero;stroke:none;stroke-width:4.76425934;stroke-miterlimit:4;stroke-dasharray:none;stroke-opacity:1"
       d="m -121.126,407.9162 c -13.10178,-1.54284 -13.42666,-1.83955 -12.89305,-11.77468 0.20804,-3.87405 1.14967,-12.85168 2.09246,-19.95029 0.94281,-7.09864 1.72585,-13.0034 1.74008,-13.12172 0.0143,-0.1183 0.57854,-0.21511 1.25402,-0.21511 0.86543,0 1.54504,1.96466 2.30133,6.65276 l 1.0732,6.65274 0.98888,-4.95242 c 1.04058,-5.21129 2.63393,-7.92416 3.34807,-5.70053 0.21539,0.6707 0.95945,4.70422 1.65348,8.96337 1.35927,8.34189 3.93301,15.93887 6.54445,19.3175 2.4567,3.17844 4.07543,1.22481 4.80692,-5.80144 0.80237,-7.70726 3.15449,-15.23693 4.75972,-15.23693 0.95277,0 1.67997,2.71309 2.98154,11.12371 1.66917,10.78614 1.76929,11.07583 3.29869,9.54644 2.61636,-2.61639 3.15405,-5.27413 3.15405,-15.59052 0,-8.09864 0.23786,-9.95733 1.32778,-10.37556 0.73025,-0.28022 1.52649,-0.31078 1.7694,-0.0679 0.24289,0.24289 1.26402,3.87231 2.2692,8.06535 l 1.82756,7.62373 1.08439,-3.87199 c 0.59643,-2.12958 1.51598,-5.54167 2.04348,-7.58243 0.80251,-3.10465 1.26744,-3.6666 2.84748,-3.44178 1.60972,0.22908 2.05163,1.15761 2.99455,6.29179 2.88843,15.72782 3.71409,19.06728 5.21004,21.07303 2.15017,2.8829 4.13631,3.16519 4.93962,0.70202 0.61415,-1.88322 0.68532,-1.84163 1.38877,0.81151 0.58346,2.20059 1.19451,2.7964 2.86792,2.7964 1.16959,0 2.12651,0.12465 2.12651,0.27697 0,0.15229 -0.61164,2.072 -1.35922,4.26596 -1.62361,4.76509 -3.04019,5.38099 -9.35894,4.06923 -3.40519,-0.70691 -6.91722,-0.72323 -12.86693,-0.0598 -10.68303,1.19124 -23.40314,1.01934 -36.21545,-0.48942 z"
       id="path3998"
       inkscape:connector-curvature="0" />
    <path
       style="opacity:1;fill:#061526;fill-opacity:1;fill-rule:nonzero;stroke:none;stroke-width:1.19106483;stroke-miterlimit:4;stroke-dasharray:none;stroke-opacity:1"
       d="m -52.7936,412.99448 c -2.1259,-0.79301 -3.83045,-2.97247 -4.49135,-5.74273 -0.32044,-1.34311 -0.31176,-8.5222 0.0122,-10.09613 0.1497,-0.72734 0.16941,-0.42574 0.0793,1.21314 -0.1383,2.51595 -0.36999,2.26356 2.4647,2.68459 0.97541,0.14489 1.8466,0.1905 1.93598,0.10139 0.0894,-0.0891 0.19243,-2.15976 0.229,-4.60139 0.0677,-4.52189 0.15417,-4.9906 0.92027,-4.9906 0.56888,0 0.84167,0.65715 0.84167,2.02745 0,1.74432 0.64743,7.72821 0.85987,7.94734 0.28043,0.2893 0.40081,-1.25653 0.52549,-6.74814 0.32729,-14.41728 0.79592,-30.07188 0.96453,-32.21977 0.10478,-1.3349 0.30838,-2.56908 0.45242,-2.74265 0.27839,-0.33543 1.22055,-0.4182 1.65033,-0.14499 0.29787,0.18934 1.12851,1.9404 1.13549,2.39379 0.003,0.16815 0.13721,0.45853 0.29914,0.64532 0.48231,0.55637 1.39396,4.88143 1.86965,8.87013 0.40698,3.4127 0.51025,5.82716 0.85881,20.07907 0.0251,1.02891 0.0698,1.18161 0.22005,0.7529 0.13174,-0.37594 0.15127,-0.21407 0.0649,0.53777 -0.068,0.59155 -0.20095,1.22076 -0.29549,1.39821 -0.0945,0.17746 -0.38031,1.91985 -0.63508,3.87197 -0.98499,7.54766 -1.89341,10.66117 -3.73628,12.80589 -1.52419,1.77384 -4.34237,2.65993 -6.2256,1.95744 z"
       id="path4000"
       inkscape:connector-curvature="0" />
    <path
       style="opacity:1;fill:#061526;fill-opacity:1;fill-rule:nonzero;stroke:none;stroke-width:1.19106483;stroke-miterlimit:4;stroke-dasharray:none;stroke-opacity:1"
       d="m -35.85759,413.66218 c -0.75034,-0.75031 -1.01722,-1.24963 -1.46606,-2.74265 -0.87836,-2.9219 -1.0278,-4.75461 -1.13866,-13.96386 -0.083,-6.89443 -0.16883,-8.85023 -0.41413,-9.43731 -0.36068,-0.86318 -0.39364,-1.19568 -0.10062,-1.01458 0.29888,0.18474 0.35552,-0.23286 0.87474,-6.4494 0.25691,-3.07607 0.56565,-5.71386 0.68612,-5.86174 0.36835,-0.45225 1.41253,-0.32395 1.75061,0.21511 0.36,0.57396 1.34623,6.93748 1.64193,10.59415 0.1148,1.41973 0.21175,5.0981 0.21542,8.17417 0.004,3.07608 0.0778,5.69937 0.16473,5.82954 0.0869,0.13018 0.37031,0.34843 0.62976,0.48501 0.61101,0.32163 1.54464,-0.0718 1.67236,-0.7048 0.0496,-0.2459 0.1474,-2.1895 0.21727,-4.31908 0.20791,-6.33609 0.54039,-11.36097 0.79404,-12.0006 0.13081,-0.32986 0.41177,-0.69287 0.62439,-0.80666 0.59836,-0.32023 2.04827,-0.24882 2.35085,0.11578 0.1473,0.17745 0.33933,0.32266 0.42678,0.32266 0.0874,0 0.28884,-2.49259 0.44754,-5.53908 0.1587,-3.04649 0.32742,-5.354 0.37491,-5.12784 0.11163,0.53142 -0.34861,10.37016 -0.60965,13.03314 -0.11017,1.12395 -0.35015,3.68914 -0.53327,5.70039 -0.18312,2.01129 -0.41912,4.18928 -0.52448,4.83997 -0.10536,0.65072 -0.34385,2.15112 -0.52999,3.33423 -0.41431,2.63345 -1.27201,6.47888 -1.99112,8.92704 -0.51721,1.7608 -0.71832,2.37847 -1.60838,4.94027 -0.5417,1.55922 -1.32969,2.37348 -2.29684,2.37348 -0.58529,0 -0.93367,-0.19273 -1.65825,-0.91734 z"
       id="path4002"
       inkscape:connector-curvature="0" />
    <path
       style="opacity:1;fill:#061526;fill-opacity:1;fill-rule:nonzero;stroke:none;stroke-width:1.19106483;stroke-miterlimit:4;stroke-dasharray:none;stroke-opacity:1"
       d="m -14.20314,404.22253 c -2.4814,-0.71408 -4.69548,-3.4045 -4.56581,-5.54815 0.1429,-2.36254 0.10811,-14.17524 -0.0656,-22.27686 -0.13541,-6.31531 -0.1179,-9.79675 0.0617,-12.26127 0.26517,-3.63884 0.97539,-8.51125 1.3399,-9.19234 0.34788,-0.64997 0.87712,-0.3503 1.24537,0.70515 0.44291,1.26939 1.96501,3.98272 2.76019,4.9204 0.62963,0.74242 1.12892,0.76824 1.13162,0.0585 0,-0.20005 0.34459,-1.86412 0.76404,-3.69795 0.41944,-1.8338 0.99076,-4.38184 1.2696,-5.66232 0.3425603,-1.57297 0.6354803,-2.42546 0.9030803,-2.62824 1.05426,-0.79883 1.86544,0.0309 2.21681,2.26751 0.13938,0.8873 0.35832,1.95056 0.48654,2.36278 0.20648,0.66379 0.25403,0.70067 0.41622,0.32266 0.10747,-0.25051 0.13829,0.55057 0.0746,1.93942 -0.30178,6.58048 -0.58478,28.01025 -0.48019,36.35978 0.082,6.5499 0.0474,9.60187 -0.11216,9.89508 -1.03812,1.90701 -4.8968303,3.16933 -7.4459303,2.4358 z"
       id="path4004"
       inkscape:connector-curvature="0" />
    <path
       style="opacity:1;fill:#061526;fill-opacity:1;fill-rule:nonzero;stroke:none;stroke-width:1.19106483;stroke-miterlimit:4;stroke-dasharray:none;stroke-opacity:1"
       d="m 21.94058,409.42604 c -1.43764,-0.48956 -2.3885,-1.40031 -3.23262,-3.09615 -0.77282,-1.55266 -1.07501,-3.30687 -1.32094,-7.6685 -0.24825,-4.40306 -0.42386,-10.09407 -0.29368,-9.51862 0.12946,0.57226 0.49223,0.59182 1.77818,0.0958 l 0.94576,-0.36472 0.50733,-2.25867 c 0.64117,-2.85425 3.09939,-15.15653 3.73955,-18.71456 0.26609,-1.47887 0.57864,-2.80988 0.69458,-2.95775 0.3138,-0.40027 1.18848,-0.32505 1.42819,0.12284 0.11531,0.21545 0.46027,2.61125 0.76655,5.32397 0.30631,2.71272 0.6018,5.17422 0.65665,5.47 0.0548,0.29578 0.34245,2.66247 0.6391,5.25933 0.29665,2.59686 0.62666,4.80883 0.73334,4.91551 0.10668,0.10668 0.48059,0.131 0.83095,0.0541 l 0.63696,-0.13991 0.14028,-5.20581 c 0.0772,-2.86322 0.2435,-11.98155 0.36968,-20.26299 0.12618,-8.28145 0.26998,-15.09773 0.31956,-15.14731 0.13526,-0.13528 0.11608,3.24932 -0.12004,21.16984 -0.23606,17.91586 -0.62635,27.67983 -1.31445,32.88395 -0.76234,5.76564 -2.60315,9.21771 -5.37779,10.08499 -0.66108,0.20664 -1.2419,0.36891 -1.29066,0.36063 -0.0487,-0.008 -0.60515,-0.19101 -1.23648,-0.40598 z"
       id="path4006"
       inkscape:connector-curvature="0" />
    <path
       style="opacity:1;fill:#061526;fill-opacity:1;fill-rule:nonzero;stroke:none;stroke-width:1.19106483;stroke-miterlimit:4;stroke-dasharray:none;stroke-opacity:1"
       d="m 44.39813,410.02715 c -1.21894,-0.27348 -2.08736,-1.02878 -2.79821,-2.43375 -0.59997,-1.18583 -0.61931,-1.31963 -0.53975,-3.73649 0.0454,-1.37867 0.0758,-3.61985 0.0677,-4.98042 -0.0164,-2.72123 -0.24066,-3.47667 -2.22678,-7.49866 -1.42381,-2.88335 -2.59665,-6.30949 -2.55075,-7.45148 0.0146,-0.35955 0.0335,-0.36838 0.11568,-0.0538 0.13822,0.52893 0.46971,0.46847 0.58952,-0.10755 0.0553,-0.2662 0.44902,-2.27478 0.87482,-4.46352 1.02383,-5.26307 2.24043,-10.51071 2.59969,-11.21344 0.31699,-0.62008 0.70511,-0.83272 1.51982,-0.83272 0.80444,0 1.29513,0.34626 1.55757,1.0991 0.46109,1.32265 0.72641,5.66402 0.61976,10.1404 -0.082,3.44204 -0.0459,4.46352 0.15777,4.46352 0.14526,0 1.70492,-0.20109 3.46594,-0.44683 1.76101,-0.24575 3.75658,-0.51816 4.4346,-0.60537 0.67802,-0.0872 1.30723,-0.23272 1.39822,-0.32337 0.41965,-0.41815 0.26741,-9.86584 -0.26723,-16.5861 -0.0781,-0.98115 -0.0548,-1.14501 0.0969,-0.68323 0.56102,1.70773 0.85984,14.71271 0.45315,19.72043 -0.31956,3.93443 -1.07902,10.37688 -1.40739,11.93861 -0.17415,0.82817 -0.50541,2.47377 -0.73613,3.65686 -1.48471,7.61309 -1.99199,8.75432 -4.42711,9.95979 -1.1134,0.55118 -1.94898,0.67326 -2.9977,0.43799 z"
       id="path4008"
       inkscape:connector-curvature="0" />
    <path
       style="opacity:1;fill:#061526;fill-opacity:1;fill-rule:nonzero;stroke:none;stroke-width:3.36884022;stroke-miterlimit:4;stroke-dasharray:none;stroke-opacity:1"
       d="m 111.39221,408.29153 c -6.00154,-1.00367 -8.93971,-1.15892 -16.50748,-0.87227 l -9.20639,0.34869 -1.8973,-1.59647 -1.8973,-1.59647 v -8.42793 c 0,-5.19811 -0.24339,-8.57832 -0.63508,-8.82041 -1.4587,-0.90152 -2.23729,1.06992 -2.58974,6.55732 -0.39982,6.22528 -2.0914,11.69922 -4.13634,13.38498 -1.01727,0.83863 -2.44867,1.06474 -6.73997,1.06474 -2.99662,0 -5.96868,-0.27845 -6.60458,-0.61876 -1.8101,-0.96874 -3.66403,-9.54812 -4.56655,-21.13235 l -0.43844,-5.6279 h 5.25004 5.25008 l 0.072,-4.41105 c 0.10787,-6.61085 0.53364,-8.02545 2.48322,-8.2509 1.80904,-0.2092 2.06433,0.381 3.56881,8.2509 l 0.72694,3.80262 2.81085,-0.003 c 3.72814,-0.005 7.01972,-0.96708 8.9321,-2.61205 1.27571,-1.0973 1.66333,-2.16408 2.12643,-5.85229 0.62973,-5.01526 1.38964,-6.51891 4.48924,-8.88309 4.37644,-3.33809 9.80202,-4.00958 19.50947,-2.41462 5.6655,0.93086 12.27349,1.093 14.88416,0.36518 0.88437,-0.24656 1.63836,-1.00875 1.83912,-1.85915 0.49673,-2.10425 2.12619,-2.95902 3.73068,-1.95701 1.17126,0.73146 1.51953,0.58798 3.70274,-1.52549 1.32546,-1.28309 3.47887,-4.24942 4.78544,-6.59185 2.69317,-4.82841 2.7173,-4.78184 1.50161,2.89658 -0.8197,5.17728 -2.71123,20.75082 -4.89495,40.30144 -1.30114,11.64918 -1.95963,13.59614 -5.34331,15.79864 -2.56614,1.67037 -11.18547,1.7908 -20.20549,0.28236 z"
       id="path4010"
       inkscape:connector-curvature="0" />
    <path
       style="opacity:1;fill:#061526;fill-opacity:1;fill-rule:nonzero;stroke:none;stroke-width:3.36884022;stroke-miterlimit:4;stroke-dasharray:none;stroke-opacity:1"
       d="m 176.85383,397.22999 c -1.66317,-6.05403 -9.41469,-50.0294 -10.1296,-57.46639 l -0.42119,-4.38155 4.18256,-0.18161 4.18256,-0.18164 0.17275,-6.17897 c 0.12549,-4.48797 0.4141,-6.37926 1.05466,-6.91089 1.17895,-0.97843 1.73886,0.56258 2.71118,7.46197 0.41265,2.92801 0.99576,5.32368 1.29585,5.32368 0.30006,0 0.58412,-0.47914 0.63124,-1.06474 0.0471,-0.5856 0.29382,0.44111 0.54825,2.28158 0.61843,4.47382 0.60515,20.08077 -0.0209,24.64112 -0.27566,2.00779 -0.85296,11.6589 -1.28288,21.44689 -0.56224,12.80115 -0.98266,17.79635 -1.49783,17.79635 -0.39391,0 -1.03585,-1.16361 -1.42656,-2.5858 z"
       id="path4012"
       inkscape:connector-curvature="0" />
    <path
       style="opacity:1;fill:#061526;fill-opacity:1;fill-rule:nonzero;stroke:none;stroke-width:3.36884022;stroke-miterlimit:4;stroke-dasharray:none;stroke-opacity:1"
       d="m 156.16418,389.84058 c -0.7824,-0.94274 -1.80766,-9.52262 -3.64281,-30.48487 -2.20345,-25.16915 -2.20289,-25.15341 -0.89532,-25.04218 1.03664,0.0882 1.1662,-0.53128 1.44312,-6.90001 0.28776,-6.61866 0.37597,-7.00707 1.63197,-7.18588 1.71432,-0.24405 2.4878,1.22481 3.01726,5.72977 0.28382,2.41482 0.54933,3.16 0.83571,2.34556 0.23085,-0.65652 0.2944,5.5142 0.14124,13.71269 -0.1605,8.59057 0.0217,18.77316 0.43032,24.03268 1.45166,18.69149 1.51045,22.46305 0.3679,23.60557 -1.25717,1.25717 -2.38832,1.32059 -3.32939,0.18667 z"
       id="path4016"
       inkscape:connector-curvature="0" />
    <path
       style="opacity:1;fill:#061526;fill-opacity:1;fill-rule:nonzero;stroke:none;stroke-width:3.36884022;stroke-miterlimit:4;stroke-dasharray:none;stroke-opacity:1"
       d="m 228.04899,416.69952 c -2.5291,-2.6941 -2.71886,-5.43246 -1.85933,-26.82873 0.71249,-17.73512 0.62317,-21.41191 -0.49298,-20.29576 -1.07148,1.07148 -2.19937,8.19832 -2.61942,16.55127 -0.35238,7.00781 -0.79547,10.50169 -1.58179,12.47265 -0.67556,1.69338 -1.22804,5.17271 -1.44817,9.12013 -0.29019,5.2043 -0.53684,6.41668 -1.33641,6.56892 -1.48706,0.28318 -1.7421,-2.60731 -1.76001,-19.948 -0.009,-8.53313 -0.24995,-15.88397 -0.53591,-16.33516 -0.28594,-0.45122 -1.03431,-0.72133 -1.66304,-0.60026 -0.92342,0.17785 -1.28886,1.15408 -1.90135,5.07936 -0.74112,4.7498 -2.58053,22.3601 -2.59903,24.88274 -0.005,0.69919 -0.269,1.68193 -0.58642,2.18387 -0.50377,0.79666 -0.7152,0.77465 -1.66383,-0.17319 -0.94935,-0.94853 -1.12522,-2.64084 -1.39097,-13.3853 -0.25704,-10.39204 -0.44574,-12.29945 -1.21684,-12.29945 -0.74253,0 -1.09324,2.07061 -1.88156,11.1093 -0.53293,6.11013 -1.08051,11.22087 -1.21685,11.35721 -0.13636,0.13634 -0.26106,-10.06488 -0.2771,-22.66934 -0.0161,-12.60448 -0.24365,-30.32691 -0.50577,-39.38317 l -0.4766,-16.46592 2.56456,-1.69715 c 3.89527,-2.57775 7.79335,-6.38339 9.47136,-9.24668 1.40021,-2.38927 1.4958,-3.06509 1.33882,-9.46555 -0.14213,-5.79633 0.004,-7.15036 0.91848,-8.51334 1.73291,-2.58254 4.78896,-3.6368 12.20361,-4.20986 3.71862,-0.28739 7.71938,-0.68776 8.89058,-0.88972 3.27224,-0.5642 6.8075,-2.95013 8.81687,-5.9504 3.57746,-5.34167 7.71054,-6.78847 22.2127,-7.77549 13.47626,-0.91723 13.32537,-0.88146 16.15631,-3.83122 4.39459,-4.57907 5.22218,-9.15258 6.39855,-35.36035 1.61448,-35.96886 -0.41172,-82.16011 -5.85767,-133.53634 -2.18524,-20.615167 -10.98412,-90.972097 -12.02216,-96.130747 -0.10102,-0.50195 -0.64482,0.62907 -1.20846,2.51338 -0.56361,1.88431 -1.55652,4.07463 -2.20641,4.86738 -2.16583,2.64182 -2.92682,0.74495 -4.2513,-10.5967697 -1.29196,-11.06337 -2.62258,-16.12854 -6.04779,-23.0219703 -1.85714,-3.73755 -2.62806,-4.66287 -4.75062,-5.70199 -3.71658,-1.819513 -4.90794,-3.131817 -6.00485,-6.614313 -2.26463,-7.189997 -3.05861,-7.89113 -5.48712,-4.8455 -2.02366,2.537923 -2.96378,1.57448 -4.19677,-4.300935 -0.60388,-2.877624 -1.27195,-5.232042 -1.4846,-5.232042 -0.21265,0 -0.79378,1.409689 -1.2914,3.13265 -0.81127,2.809002 -2.48386,4.921605 -3.27229,4.133168 -0.16304,-0.163034 -0.71716,-2.314268 -1.23137,-4.780516 -0.51425,-2.466252 -1.08302,-4.63214 -1.26397,-4.813085 -0.81285,-0.812864 -1.65423,1.335749 -2.45137,6.260036 -0.90601,5.596774 -1.63512,7.165806 -3.0734,6.613879 -0.65878,-0.252793 -0.8692,-1.601422 -0.87249,-5.591743 -0.003,-2.892227 -0.18346,-7.155924 -0.4024,-9.474872 -0.51514,-5.455968 -1.2419,-3.727136 -1.80586,4.295761 -0.28845,4.103373 -0.65678,5.905897 -1.25365,6.134936 -1.22547,0.470263 -1.33202,0.218414 -1.8742,-4.430445 l -0.49189,-4.21767 -1.36612,2.607284 c -0.75137,1.43401 -1.58901,2.469539 -1.8614,2.301182 -0.27241,-0.168358 -0.66688,-2.143589 -0.87659,-4.389414 -0.74634,-7.992362 -2.39765,-6.325288 -3.72126,3.756782 -1.24955,9.51785 -1.65351,10.934729 -3.11769,10.934729 -1.06225,0 -1.21224,-0.632201 -1.58761,-6.692649 -0.56557,-9.130887 -1.62578,-20.495808 -1.94148,-20.811506 -0.14256,-0.142565 -0.7489,1.817931 -1.34742,4.356658 -0.59849,2.538722 -1.37387,4.520629 -1.72307,4.404231 -0.69228,-0.230757 -1.67039,-6.719009 -2.84165,-18.849875 -0.41318,-4.279241 -0.95578,-7.56472 -1.20579,-7.301068 -1.55593,1.640895 -2.3903,7.580868 -2.3903,17.017201 0,8.172939 -0.15282,9.928542 -0.86428,9.928542 -1.03722,0 -1.13623,-0.446643 -3.10214,-13.993717 -1.9826,-13.662073 -1.91426,-13.385295 -3.30523,-13.385295 -1.41404,0 -1.59181,0.574212 -2.44856,7.909494 -1.08521,9.291365 -1.97665,14.614893 -2.50163,14.939346 -1.09104,0.674307 -1.8437,-4.9008 -2.134,-15.806658 -0.30202,-11.347932 -0.4355,-12.517983 -1.42809,-12.517983 -0.98906,0 -1.38708,2.903646 -1.87653,13.689505 -0.27334,6.023383 -0.69016,11.578828 -0.92628,12.345435 -0.97398,3.162366 -1.82565,0.590359 -2.79474,-8.440158 -0.55372,-5.159595 -1.36459,-12.392769 -1.80197,-16.073726 l -0.79521,-6.692646 -0.63544,3.954745 c -0.34947,2.175111 -0.90922,3.892077 -1.24384,3.815482 -0.33464,-0.07659 -0.89339,-3.772762 -1.24169,-8.213703 l -0.63322,-8.074441 -1.40341,4.411065 c -0.77184,2.426083 -1.65049,4.411062 -1.95254,4.411062 -0.30202,0 -0.58156,-1.163609 -0.62114,-2.585794 -0.1624,-5.833536 -1.57633,-8.067342 -2.52291,-3.985819 -0.25619,1.104646 -0.73996,7.894931 -1.07503,15.089529 -0.81369,17.470686 -2.1019,27.379012 -3.55965,27.379012 -0.2695,0 -0.66892,-5.818042 -0.88759,-12.928978 -0.65863,-21.416712 -1.43772,-31.806887 -2.54569,-33.949436 -0.5428,-1.049658 -1.17205,-1.726807 -1.39835,-1.504777 -0.2263,0.222031 -0.82569,2.484611 -1.33199,5.027957 -0.50628,2.543347 -1.23214,4.728142 -1.61301,4.855097 -0.43738,0.14579 -0.94888,-1.405517 -1.38837,-4.210889 -1.2205,-7.790104 -1.25352,-7.863956 -2.25836,-5.050141 -0.47799,1.338529 -1.30124,4.14488 -1.82943,6.236332 -0.52821,2.091451 -1.16366,3.802639 -1.41216,3.802639 -0.2485,0 -0.9312,-1.255295 -1.51712,-2.789542 -0.58595,-1.534247 -1.28831,-2.56096 -1.56081,-2.281584 -0.27249,0.279376 -1.15056,3.656544 -1.95124,7.504816 -0.80071,3.848272 -1.6986,6.996859 -1.99536,6.996859 -0.65217,0 -1.17277,-2.247908 -2.46584,-10.647394 -1.06907,-6.94437 -1.63131,-8.517915 -3.04342,-8.517915 -1.53826,0 -2.72254,4.020196 -3.10602,10.543726 -0.38135,6.48652 -0.93586,8.925795 -2.02912,8.925795 -1.46383,0 -3.33507,-8.03979 -4.56687,-19.621627 -0.37814,-3.555502 -1.25137,-4.614172 -1.75646,-2.129478 -0.15306,0.752923 -0.44,3.220089 -0.63764,5.482591 -0.80844,9.253786 -2.98191,9.72871 -3.22374,0.704421 -0.26109,-9.743296 -1.30519,-10.121186 -2.60792,-0.943877 -0.92919,6.545871 -1.72299,5.79951 -3.27168,-3.076109 -0.60208,-3.45063 -1.53614,-7.36904 -2.07565,-8.70757 l -0.98097,-2.43369 -0.65527,3.04212 c -0.36042,1.67316 -0.91437,3.01846 -1.23105,2.98955 -0.31666,-0.0289 -0.76767,-1.39411 -1.00222,-3.03379 -0.65511,-4.5798 -1.04629,-5.73578 -1.94106,-5.73578 -0.49001,0 -0.98081,0.98515 -1.21246,2.43369 -0.47847,2.99222 -2.20003,3.44668 -2.20003,0.58077 0,-2.08421 -2.32476,-4.8411 -4.07919,-4.83745 -2.51468,0.005 -4.74231,2.16935 -5.84994,5.68308 -1.4818,4.70085 -2.77479,4.64533 -4.88029,-0.20955 -0.87077,-2.0078 -1.82832,-3.65054 -2.12791,-3.65054 -0.29956,0 -1.12371,1.39326 -1.83137,3.09613 -0.76972,1.85211 -1.75754,3.21925 -2.45856,3.40257 -0.64452,0.16855 -1.3141,0.85038 -1.48796,1.51518 -0.22331,0.85394 -0.73091,1.14995 -1.72942,1.00848 -1.31213,-0.1859 -1.4351,-0.54496 -1.71752,-5.01496 -0.23662,-3.74496 -0.45913,-4.62365 -1.0015,-3.95474 -0.38352,0.47298 -2.63189,5.49035 -4.99645,11.149689 -2.36452,5.659345 -4.56491,10.555472 -4.88971,10.880288 -0.89683,0.896821 -2.44427,0.0402 -3.1152,-1.724498 -0.85876,-2.25873 -0.77084,-21.749619 0.10678,-23.675829 0.44972,-0.98702 1.19928,-1.54969 2.06439,-1.54969 1.54816,0 2.09693,1.0386 2.09693,3.9686 0,1.1241 0.26175,2.20559 0.58168,2.40332 0.78751,0.4867 2.25063,-1.93856 2.74297,-4.54665 0.67971,-3.60082 1.56032,-5.2885 3.13354,-6.0053 1.09288,-0.49796 20.40204,-0.68588 70.07955,-0.68202 l 68.571,0.005 3.29483,10.79417 3.29483,10.794169 0.70771,13.534485 c 0.38923,7.443964 0.87334,13.700106 1.07577,13.902536 1.01677,1.016781 1.44089,-0.775721 1.19539,-5.052123 -0.30679,-5.343322 0.54689,-13.503977 2.11082,-20.178257 l 1.05116,-4.48601 1.37612,7.223912 c 0.7569,3.97315 1.64677,10.783179 1.97753,15.1334 0.33075,4.350221 1.00097,9.552233 1.48939,11.560026 0.48839,2.007796 1.34046,6.936018 1.89346,10.951607 1.75557,12.747789 2.32815,11.981942 2.7563,-3.686688 0.22135,-8.100809 0.5556,-12.034512 1.06593,-12.544843 0.58568,-0.585661 0.75091,0.4123 0.77853,4.701924 0.0376,5.843415 0.76317,10.920076 1.34345,9.400127 0.19161,-0.501949 0.52086,-2.692268 0.73165,-4.867378 0.2108,-2.175111 0.62638,-6.145067 0.92353,-8.822127 0.29715,-2.677059 0.5575,-7.94752 0.57857,-11.712133 0.023,-4.132032 0.2794,-6.844752 0.64669,-6.844752 0.33462,0 0.60841,1.079 0.60841,2.397781 0,1.318781 0.26006,2.558505 0.5779,2.754942 1.29019,0.797383 1.89643,-2.564635 2.08455,-11.560701 0.20058,-9.590127 0.66474,-11.570637 2.26115,-9.647977 0.66514,0.80106 0.94435,4.64599 1.25008,17.213719 0.21651,8.900252 0.5951,17.082788 0.84132,18.183415 0.82585,3.691467 1.7956,1.724591 2.21062,-4.483581 0.22191,-3.319511 0.69562,-7.952005 1.05267,-10.29443 0.35709,-2.342428 0.65464,-5.751113 0.66128,-7.574859 0.0159,-4.344274 0.84764,-3.30393 1.80001,2.251162 0.75684,4.414668 1.59248,5.613495 2.12048,3.042113 0.15459,-0.752925 0.4023,-5.011002 0.55046,-9.4624 0.25429,-7.640229 0.52898,-9.328889 1.37928,-8.478609 0.19931,0.19931 0.68029,4.19394 1.06886,8.87696 0.38857,4.683023 0.91649,8.724591 1.17316,8.981261 1.84531,1.845294 4.38859,-7.848032 3.88938,-14.823561 -0.18018,-2.51743 -0.0747,-4.41107 0.24577,-4.41107 0.31398,0 0.58814,3.82222 0.6219,8.670024 0.0903,12.96877 0.65141,19.013202 1.76488,19.013202 0.74967,0 0.98052,-1.521012 1.29281,-8.517913 0.35171,-7.880407 1.27402,-17.136913 2.10663,-21.142683 0.45898,-2.20808 1.46794,-2.14826 1.46794,0.087 0,0.9681 0.44635,3.91135 0.9919,6.54054 0.88643,4.272188 0.91048,6.252234 0.22621,18.62641 -0.70339,12.720251 -0.63338,18.612104 0.38709,32.576429 0.28832,3.945067 0.56065,5.009853 1.245,4.86738 0.71363,-0.148576 0.92001,-2.268254 1.1136,-11.438191 0.2994,-14.181024 4.19211,-52.955948 5.20946,-51.890898 0.25175,0.26356 0.90617,4.85143 1.45426,10.19527 0.54811,5.343837 1.10569,9.825235 1.23912,9.958659 0.13343,0.133421 0.38018,-0.40575 0.54835,-1.198158 1.12276,-5.290665 1.57874,-8.142052 1.57874,-9.872321 0,-1.09078 0.36634,-2.48425 0.8141,-3.09659 0.71125,-0.97269 0.91077,-0.29773 1.57914,5.342007 0.48083,4.057106 0.60357,8.609228 0.33038,12.252884 -0.38354,5.115994 -0.31885,5.797516 0.55034,5.797516 0.76816,0 0.98705,-0.636215 0.9943,-2.890007 0.0111,-3.448706 0.86254,-5.2408 1.80666,-3.802642 0.32948,0.501949 0.60327,1.647735 0.6084,2.546189 0.005,0.898453 0.28766,2.36561 0.62783,3.260346 0.94983,2.498292 2.42113,0.873459 2.43293,-2.686814 0.005,-1.54853 0.2572,-3.20725 0.5602,-3.686048 0.71639,-1.132033 0.97753,0.670615 1.84491,12.734777 0.74819,10.405991 1.23585,13.454541 2.14892,13.433258 0.33454,-0.0078 0.80346,-1.869861 1.04206,-4.137922 0.23858,-2.268059 0.93658,-6.724751 1.55104,-9.903756 l 1.11726,-5.780016 0.43281,16.73162 c 0.49469,19.123575 1.45184,34.130207 2.22628,34.904651 1.38118,1.381172 3.66085,-13.01958 3.66575,-23.156609 0.003,-6.872509 0.55036,-9.504423 1.47476,-7.09545 0.21003,0.547291 0.55581,5.210752 0.7684,10.36325 0.37246,9.026287 1.01867,12.143341 1.65209,7.969015 0.16645,-1.096852 0.45908,-6.648715 0.65032,-12.337466 0.38401,-11.42425 1.01952,-17.406961 2.50163,-23.551131 1.7467,-7.241027 3.79709,-6.930403 5.17573,0.784109 0.57933,3.241632 0.61685,9.789049 0.16452,28.694068 -0.32235,13.471747 -0.4734,24.836318 -0.33565,25.254608 0.13774,0.418291 0.60306,0.760529 1.03404,0.760529 0.821,0 1.07884,-1.306674 2.10098,-10.647394 0.32956,-3.011691 0.87963,-7.118543 1.22237,-9.126336 0.34274,-2.007796 0.62476,-5.312029 0.62669,-7.342749 0.003,-2.030714 0.44241,-5.170117 0.97886,-6.976456 0.53641,-1.806335 1.30815,-5.07306 1.71497,-7.259392 0.70583,-3.793286 0.77656,-3.906845 1.54618,-2.482159 2.13743,3.956851 2.61315,7.631845 2.79955,21.627065 0.17187,12.90396 1.1707,27.836558 1.94945,29.144338 0.57087,0.95868 1.96612,-1.61764 1.96612,-3.63039 0,-1.06518 0.44815,-3.134722 0.99589,-4.598982 0.54774,-1.46426 1.19393,-5.673984 1.43597,-9.354939 0.41043,-6.241971 1.36044,-10.038972 2.51177,-10.038972 1.63685,0 2.00322,3.432112 2.40292,22.511631 0.24617,11.7505923 0.69128,20.6361323 1.09702,21.8991923 1.01976,3.17451 0.81454,7.7473 -0.54192,12.0745597 -1.43108,4.5653 -1.50032,7.24397 -0.35647,13.78741 0.59732,3.4169 0.79618,8.67491 0.66735,17.64425 l -0.18351,12.77688 -2.2556,5.4758 c -1.82645,4.43402 -2.36122,6.69122 -2.81091,11.86424 -0.30546,3.51364 -0.82076,8.05169 -1.14517,10.08456 -0.40177,2.51767 -0.36729,5.81543 0.10814,10.34318 0.44034,4.19373 0.71906,20.906577 0.75517,45.281877 l 0.0573,38.63482 2.07425,4.86739 c 1.99419,4.67955 2.0795,5.19609 2.20991,13.38529 0.0746,4.68485 0.47712,10.40797 0.89445,12.71805 0.9281,5.13725 0.50289,10.34923 -1.52834,18.7334 -1.13784,4.69664 -1.51942,7.91747 -1.52001,12.83083 0,4.89297 -0.26461,7.13494 -1.03893,8.82214 -0.86868,1.89277 -1.01733,3.96076 -0.91065,12.66833 0.11097,9.05896 -0.0697,11.35808 -1.39554,17.75764 -1.09747,5.29714 -1.54316,9.4448 -1.59502,14.84323 -0.0396,4.12054 -0.26564,8.31326 -0.50233,9.31717 l -0.43035,1.82525 -0.78404,-2.7379 c -1.26415,-4.41442 -1.74088,-13.08431 -1.20438,-21.90319 0.5942,-9.76746 0.71247,-28.09743 0.19007,-29.45874 -0.20312,-0.52932 -0.72241,-0.96239 -1.154,-0.96239 -0.96171,0 -1.85656,6.10433 -2.94333,20.07793 l -0.78074,10.03898 -0.49233,-8.37557 c -0.46244,-7.86738 -0.96028,-9.8262 -2.17985,-8.57684 -0.28184,0.28877 -0.81037,7.23286 -1.17451,15.43135 -0.76981,17.33211 -1.74877,29.06233 -2.55149,30.57324 -0.73019,1.37435 -1.86272,1.34866 -3.62995,-0.0824 -1.30273,-1.05489 -1.45063,-1.77625 -1.83988,-8.97421 -0.23278,-4.30493 -0.44702,-8.46326 -0.47607,-9.24071 -0.0375,-1.00481 -0.36068,-1.35438 -1.11752,-1.20891 -0.9951,0.1913 -1.08688,2.5522 -1.40332,36.09367 -0.3184,33.74845 -0.4182,36.28604 -1.67317,42.54685 -0.80312,4.00661 -1.34036,8.97345 -1.34909,12.47267 -0.013,5.20457 -0.62293,10.00133 -1.36625,10.74468 -0.74571,0.74567 -2.31611,-0.74023 -2.86293,-2.70886 -0.35012,-1.26053 -0.61425,-9.58837 -0.61079,-19.25688 0.005,-13.70481 0.2422,-18.69792 1.21346,-25.53621 1.50646,-10.60635 1.6175,-18.45521 0.26845,-18.9729 -0.51636,-0.19814 -1.04373,-0.25543 -1.17187,-0.12726 -0.12816,0.12816 -0.93131,3.65281 -1.78475,7.83256 -0.85344,4.17973 -2.94018,12.4917 -4.63719,18.47102 -4.6655,16.43851 -5.98255,22.50609 -6.60588,30.43348 -0.58841,7.48303 -1.5757,10.14283 -3.93734,10.60731 -1.44346,0.2839 -2.0755,-1.90606 -2.53844,-8.79584 -0.4885,-7.26966 -1.24664,-10.56584 -2.4302,-10.56584 -1.25113,0 -1.456,1.54106 -1.64515,12.37517 -0.16433,9.41279 -0.20315,9.66549 -1.66656,10.84966 -1.78147,1.44153 -3.83299,1.19401 -7.01074,-0.84587 -2.54059,-1.63087 -2.45272,-1.32824 -3.67078,-12.6442 -0.52231,-4.85217 -1.06704,-9.16437 -1.21055,-9.58265 -0.42285,-1.23248 -2.12439,-0.8762 -2.12439,0.44482 0,3.79023 -1.39618,17.00209 -1.9486,18.43952 -1.28456,3.34232 -4.62603,3.60273 -6.23769,0.48607 -0.47956,-0.92731 -1.03473,-3.85114 -1.23375,-6.49743 -0.71316,-9.48219 -0.98975,-11.19984 -1.80351,-11.19984 -1.08971,0 -1.41107,2.04708 -1.86716,11.89411 -0.22548,4.8678 -0.76139,9.46642 -1.25651,10.78195 -0.47484,1.26164 -0.86336,3.23136 -0.86336,4.37714 0,2.64448 -2.24023,5.46272 -3.85104,4.8446 -1.98022,-0.75988 -2.22072,-2.89118 -1.52696,-13.53301 0.38904,-5.96789 0.48146,-13.73979 0.22119,-18.59942 -0.38973,-7.27691 -0.57547,-8.32329 -1.44777,-8.15649 -0.79806,0.15258 -1.08212,1.2579 -1.40277,5.45864 -0.22114,2.897 -1.29839,9.60176 -2.3939,14.8994 -1.6724,8.08723 -2.01086,11.11049 -2.11026,18.84977 -0.0651,5.0697 -0.30453,9.5188 -0.532,9.88687 -0.67511,1.09233 -2.473,0.76544 -3.84844,-0.69977 z"
       id="path4018"
       inkscape:connector-curvature="0" />
    <path
       style="opacity:1;fill:#061526;fill-opacity:1;fill-rule:nonzero;stroke:none;stroke-width:3.36884022;stroke-miterlimit:4;stroke-dasharray:none;stroke-opacity:1"
       d="m 33.54087,-54.024097 c -0.19209,-0.310835 -0.89675,-5.033716 -1.56588,-10.495291 -0.66916,-5.461571 -1.35848,-10.318152 -1.53184,-10.792399 -0.52803,-1.444344 -1.50381,0.08895 -3.30602,5.194874 -0.92001,2.606493 -1.97183,4.838775 -2.33738,4.960626 -0.36555,0.121848 -1.08122,-0.775462 -1.59036,-1.994027 -0.73326,-1.754934 -1.21298,-2.174801 -2.30735,-2.019485 -1.18531,0.168222 -1.46807,0.729644 -1.99004,3.951353 -0.33464,2.065399 -0.79158,3.936931 -1.01544,4.158959 -0.60471,0.599747 -1.48585,-1.391438 -2.35797,-5.328436 -0.8137,-3.673244 -1.44806,-4.343204 -2.11696,-2.235731 -0.73011,2.300435 -0.80499,0.926218 -0.21801,-4.001159 0.31887,-2.67675 0.81274,-11.848468 1.09746,-20.381593 0.51343,-15.387844 1.10072,-19.469524 2.80138,-19.469524 0.53711,0 0.93282,1.17677 1.17645,3.49843 0.2019,1.92414 0.6323,5.4946 0.95641,7.93435 0.32412,2.439752 0.58931,5.656786 0.58931,7.148964 0,1.492176 0.26138,2.713048 0.58087,2.713048 0.69178,0 1.05801,-2.171052 1.53953,-9.126342 0.4781,-6.90617 1.15157,-9.14581 3.39336,-11.28479 l 1.88261,-1.79629 1.1692,1.43635 c 0.99581,1.22336 1.1771,2.48651 1.22251,8.51792 0.07,9.306005 0.58951,13.165785 1.77194,13.165785 0.72051,0 1.00703,-1.280912 1.36101,-6.084226 0.56378,-7.650449 1.92924,-13.993879 3.60289,-16.737509 1.1838,-1.94064 1.33659,-2.01875 1.77353,-0.90674 0.26297,0.66926 0.49736,3.42328 0.52088,6.12004 0.0274,3.14406 0.34359,5.31458 0.8812,6.04983 0.95342,1.30388 0.92858,1.37634 2.25964,-6.59047 0.85297,-5.10527 2.65502,-7.64611 4.66133,-6.57237 1.41327,0.75637 1.44044,0.89681 2.58371,13.36253 0.37843,4.126199 1.10717,9.465107 1.61943,11.864237 0.51226,2.399133 0.90332,5.276059 0.869,6.39317 -0.0607,1.978138 -2.4121,14.184222 -2.81427,14.609326 -0.66728,0.705289 -1.46941,-0.978475 -1.82607,-3.83304 -0.2372,-1.898505 -0.76319,-3.431421 -1.24021,-3.614471 -0.45556,-0.17482 -1.23367,-1.288034 -1.72913,-2.473806 -1.5258,-3.651793 -2.62536,-2.785459 -3.11648,2.455476 -0.28392,3.029948 -0.71905,4.721532 -1.26875,4.932476 -0.46014,0.176573 -0.83664,0.864772 -0.83664,1.529326 0,1.766412 -2.35358,13.335342 -3.03877,14.93683 -0.61089,1.427901 -1.5086,1.770523 -2.10608,0.803799 z"
       id="path4020"
       inkscape:connector-curvature="0" />
    <path
       style="opacity:1;fill:#061526;fill-opacity:1;fill-rule:nonzero;stroke:none;stroke-width:3.36884022;stroke-miterlimit:4;stroke-dasharray:none;stroke-opacity:1"
       d="m 7.8443503,-47.887327 c -0.33777,-0.220012 -1.86563,-4.096192 -3.39524,-8.61373 -1.93611,-5.718181 -2.79569,-7.623839 -2.82911,-6.272237 -0.0707,2.857098 -1.14972004,3.038465 -2.28404004,0.383906 l -0.99363996,-2.325373 -1.37573,5.393812 c -0.75666,2.966598 -1.64886,5.666954 -1.98271,6.000792 -0.79923,0.799229 -1.92984,0.0633 -1.92984,-1.256162 0,-1.578303 -1.83589,-3.876114 -2.80102,-3.505759 -1.2612103,0.483974 -1.2056503,-29.797115 0.0657,-35.798553 0.49173,-2.321301 1.13744,-4.463917 1.43489,-4.76137 0.83926,-0.839238 1.862,2.829685 2.57749,9.246158 0.35568,3.189906 0.85172,6.166157 1.10228,6.613887 0.2536,0.453184 0.91768,-2.451698 1.49802,-6.552843 1.67923,-11.867131 5.44825,-23.200851 7.864,-23.647681 2.48872,-0.46033 2.76484,0.67885 2.74875,11.34043 -0.0114,7.564975 0.38857,13.184141 1.56747,22.020939 0.87054,6.525331 1.5836697,12.206475 1.5847497,12.624766 0,0.41829 0.40582,0.760529 0.89951,0.760529 0.68754,0 0.77195,0.330427 0.36068,1.412092 -0.29528,0.776652 -0.71374,4.267477 -0.92991,7.757387 -0.21616,3.489912 -0.513,6.93112 -0.65966,7.647136 -0.28911,1.411623 -1.5405597,2.171575 -2.5226397,1.531874 z"
       id="path4022"
       inkscape:connector-curvature="0" />
    <path
       style="opacity:1;fill:#061526;fill-opacity:1;fill-rule:nonzero;stroke:none;stroke-width:3.36884022;stroke-miterlimit:4;stroke-dasharray:none;stroke-opacity:1"
       d="m -61.52884,-3.3757667 c -0.58561,-2.10475 -0.60026,-8.3350403 -0.0441,-18.7494203 l 0.42238,-7.909491 -0.81613,7.024375 c -1.40584,12.099996 -3.04131,18.2251563 -4.86625,18.2251563 -1.06902,0 -1.35583,-1.07114 -1.87348,-6.9968603 -1.00947,-11.555694 -6.11804,-40.733719 -7.62469,-43.548915 -0.84616,-1.581076 -3.12549,-1.47661 -4.71577,0.216138 -2.61729,2.785984 -3.28922,6.148364 -3.79616,18.99588 -0.76597,19.413177 -2.02645,30.7079373 -3.28634,29.4480473 -0.18119,-0.18117 -0.87874,-6.7442103 -1.55014,-14.5845173 -0.67138,-7.840308 -1.40573,-15.487164 -1.63187,-16.993008 -0.38071,-2.535023 -0.43739,-2.605193 -0.76454,-0.946967 -0.19437,0.985012 -0.34415,-7.831127 -0.33287,-19.59143 0.022,-22.920648 0.34615,-26.134685 1.77921,-17.640115 0.40788,2.417842 1.24704,2.987384 1.79285,1.216845 0.48577,-1.575771 2.54584,-14.908117 4.01899,-26.010061 0.71043,-5.35412 1.50918,-9.95678 1.77496,-10.22815 0.26577,-0.27136 0.95432,2.74033 1.53014,6.69265 0.57578,3.95232 1.17988,7.665167 1.34244,8.250774 0.29556,1.064705 1.43042,1.510763 1.43042,0.562224 0,-2.832538 2.05848,-13.985188 2.69964,-14.626338 1.57451,-1.5745 2.12416,-0.14948 2.03031,5.26383 -0.0506,2.91602 0.375,7.90286 0.94565,11.081868 0.65452,3.646296 1.21142,11.340096 1.50855,20.841667 0.40537,12.963909 0.61518,15.205869 1.50643,16.097123 0.67262,0.672605 1.24336,0.827587 1.62869,0.442256 0.32626,-0.326265 1.16121,-10.147607 1.85545,-21.825204 0.69421,-11.677594 1.4805,-21.62206 1.74731,-22.09881 0.26887,-0.48043 0.65717,3.302935 0.87108,8.487538 0.47501,11.511692 1.4717,18.741794 2.58361,18.741794 1.07656,0 1.39036,-2.965817 1.70595,-16.123195 0.21992,-9.169506 0.51155,-11.904917 1.79208,-16.810007 0.84116,-3.22212 1.95762,-6.68651 2.48102,-7.69865 2.31468,-4.4761 8.99324,-5.9105 19.22656,-4.1294 6.32666,1.10114 8.05328,1.92804 9.379,4.49171 0.80767,1.56183 2.65483,13.34336 3.8335,24.45056 0.43203,4.07116 0.62952,4.583827 1.83168,4.754772 1.58231,0.225001 2.31868,-1.751238 1.83121,-4.914668 -0.5419,-3.516905 1.93474,-16.267514 3.15976,-16.267514 0.24164,0 0.31625,6.011354 0.16581,13.358563 -0.34491,16.84495 0.79989,41.377437 2.2016,47.179477 0.71419,2.956086 1.00671,6.585516 0.95626,11.864236 -0.0752,7.871778 -0.7392,10.951607 -2.36101,10.951607 -1.22267,0 -1.54988,-0.966419 -4.01672,-11.864239 l -2.06587,-9.126337 -0.43267,8.213704 c -0.72951,13.849326 -2.83594,29.0034023 -4.29101,30.8707423 -1.171,1.50272 -1.55094,0.0235 -1.95131,-7.5965603 -0.76393,-14.539646 -3.55052,-34.905535 -4.62571,-33.806985 -0.26582,0.271605 -0.57017,4.628012 -0.67635,9.6809 -0.14063,6.693057 -0.4214,9.461664 -1.03428,10.198579 -1.38002,1.659308 -2.34969,0.131165 -2.76188,-4.352557 -2.14683,-23.3528 -3.56534,-36.41983 -4.00198,-36.864983 -0.83148,-0.847749 -2.39665,0.0558 -3.04343,1.756934 -0.3252,0.855371 -1.00044,5.722162 -1.50053,10.81509 -0.50006,5.092927 -1.1394,10.081238 -1.42071,11.085136 -0.83973,2.996565 -2.13957,2.239389 -2.84006,-1.654357 -0.67164,-3.733311 -1.54689,-5.094576 -2.93351,-4.562475 -1.43471,0.550545 -2.3,5.558726 -2.90748,16.828085 -0.53237,9.875908 -1.70971,21.412853 -2.85925,28.0183133 -0.57531,3.30587 -2.25973,4.09845 -3.00643,1.41464 z"
       id="path4024"
       inkscape:connector-curvature="0" />
    <path
       style="opacity:1;fill:#061526;fill-opacity:1;fill-rule:nonzero;stroke:none;stroke-width:3.36884022;stroke-miterlimit:4;stroke-dasharray:none;stroke-opacity:1"
       d="m -177.53143,41.579623 c -0.74185,-1.20034 -1.62778,-30.85176 -1.55798,-52.14478 0.0778,-23.735919 0.008,-24.528079 -2.94837,-33.677963 -1.3632,-4.218425 -1.7184,-4.838814 -2.09006,-3.650536 -0.30323,0.969491 -0.35044,0.744223 -0.14626,-0.69791 0.16582,-1.171213 0.67504,-5.41496 1.1316,-9.430546 0.83467,-7.34109 1.67347,-10.561977 2.95725,-11.355396 1.35494,-0.837401 1.66414,0.240099 1.66414,5.799212 0,6.043218 0.71204,7.989006 2.77812,7.591737 1.29367,-0.248751 1.96209,-3.12815 2.04417,-8.80581 0.0482,-3.337467 1.106,-4.909063 2.85287,-4.238725 0.87174,0.334518 0.94486,1.132443 0.57799,6.307246 -0.45834,6.464924 -0.16874,8.048059 1.47221,8.048059 1.87874,0 2.39703,-1.437873 2.31469,-6.421539 -0.0723,-4.377901 0.17086,-5.466093 2.57595,-11.526924 2.32849,-5.867797 2.70436,-7.480007 3.04972,-13.081085 0.34782,-5.640885 0.65852,-6.957997 2.65527,-11.255816 1.24375,-2.677059 2.65513,-6.920807 3.13642,-9.430547 0.98676,-5.14567 2.40947,-7.51861 4.67109,-7.79093 1.25803,-0.15148 1.66598,0.17063 2.21661,1.75018 0.59547,1.70814 0.87923,1.89494 2.41271,1.58824 l 1.73787,-0.34757 1.32534,9.85321 c 2.36712,17.598375 2.56916,20.515856 2.92163,42.186187 0.19127,11.759745 0.55986,21.724538 0.8191,22.143971 0.25921,0.419436 0.87178,0.608941 1.36123,0.421121 0.68802,-0.264019 0.96515,-2.044141 1.2215,-7.846046 0.29623,-6.70478 0.59505,-8.273913 2.80411,-14.723793 2.77741,-8.109458 4.0673,-13.656112 6.7482,-29.017878 1.01854,-5.836278 2.27862,-11.762204 2.80022,-13.168722 1.0032,-2.70529 2.77289,-3.81175 4.20098,-2.62656 0.98612,0.81841 3.41905,10.645972 5.41819,21.886205 0.77911,4.380587 1.58146,8.12959 1.78297,8.331115 0.20153,0.201525 0.75472,0.217405 1.22931,0.03529 0.6061,-0.232579 0.98949,-1.92982 1.28825,-5.70307 0.47546,-6.004911 1.6028,-11.559286 3.11137,-15.329579 0.78285,-1.956544 1.3263,-2.515032 2.44729,-2.515032 3.80251,0 5.1226,7.76024 5.11085,30.044504 -0.008,15.096278 0.12986,17.324229 1.62028,26.191482 1.41793,8.436147 1.53864,10.130745 0.93168,13.081082 -0.38351,1.864183 -0.88,6.195767 -1.10331,9.625746 -0.22331,3.42998 -0.64543,6.23633 -0.93803,6.23633 -1.11228,0 -1.79321,-3.56596 -2.31635,-12.130067 -0.30792,-5.04095 -0.94459,-9.988605 -1.47687,-11.477445 -1.07292,-3.00083 -2.86266,-6.205185 -3.46586,-6.205185 -0.81097,0 -3.00905,9.711129 -3.66649,16.198524 -0.78169,7.713663 -0.92147,8.343013 -1.74051,7.836823 -0.35137,-0.21718 -0.62767,-3.412423 -0.64778,-7.491743 -0.0193,-3.912182 -0.24114,-8.208216 -0.493,-9.546746 l -0.45794,-2.43369 -0.72384,4.004582 c -0.39812,2.202527 -0.72383,4.735084 -0.72383,5.627907 0,1.037344 -0.32945,1.623328 -0.91265,1.623328 -0.50194,0 -0.91263,-0.319424 -0.91263,-0.70983 0,-0.3904 -0.20534,-0.504674 -0.45632,-0.253931 -0.25096,0.250738 -0.60772,12.685373 -0.79277,27.6325133 -0.18505,14.9471497 -0.55661,27.6557697 -0.82564,28.2413697 -0.26902,0.58561 -0.82719,1.06474 -1.24034,1.06474 -0.56832,0 -0.84865,-4.11025 -1.15141,-16.88372 -0.37473,-15.8083397 -1.70524,-34.713931 -2.53786,-36.061131 -0.20269,-0.327978 -0.75229,-0.596321 -1.22134,-0.596321 -0.71038,0 -0.8822,3.306272 -1.02883,19.7964423 -0.14947,16.8098197 -0.31372,19.8814997 -1.08866,20.3601597 -2.24362,1.38578 -2.48264,-0.32858 -2.76435,-19.8256197 -0.27373,-18.9477833 -0.62399,-23.3870943 -1.87817,-23.8051603 -1.33217,-0.444052 -1.66642,2.085282 -1.77014,13.3952 -0.10528,11.4756303 -0.52602,13.8048103 -2.19263,12.1381903 -1.05695,-1.05695 -2.29372,-8.5502403 -2.96756,-17.9795103 -0.63323,-8.86126 -0.78277,-9.555505 -2.05828,-9.555505 -1.99318,0 -2.83419,2.38184 -4.31684,12.225845 -0.82685,5.48986 -1.50746,10.8378703 -1.51246,11.8844503 -0.005,1.04658 -0.4007,2.22787 -0.87931,2.62507 -1.81621,1.50733 -2.47397,-1.51171 -2.51092,-11.5248103 -0.0391,-10.582657 -0.0655,-10.951597 -0.78428,-10.951597 -0.28318,0 -0.70038,4.110873 -0.9271,9.135267 -0.41741,9.2500803 -2.43742,23.4200203 -3.52799,24.7481203 -0.32715,0.3984 -0.97322,0.57915 -1.43572,0.40167 -0.68107,-0.26134 -0.87501,-3.48723 -1.02026,-16.9702 -0.13763,-12.7755503 -0.36576,-16.8312603 -0.98083,-17.4375053 -0.65826,-0.648814 -0.95725,-0.578937 -1.67316,0.391041 -0.64125,0.86882 -0.87167,3.088791 -0.87167,8.397804 0,8.8162803 -1.8348,18.1043903 -3.5764,18.1043903 -0.27031,0 -0.69624,-4.44909 -0.94651,-9.88687 -0.25027,-5.4377703 -0.6429,-11.3927103 -0.8725,-13.2331843 -0.39448,-3.162197 -0.44283,-2.984712 -0.87858,3.225584 -0.25362,3.61455 -1.13604,10.1536503 -1.96095,14.5313303 -1.68188,8.92557 -1.80669,12.06354 -0.80425,20.2205797 0.83431,6.78892 0.45763,9.03412 -1.46942,8.75843 -1.95416,-0.27958 -2.19304,-2.61769 -2.2332,-21.8577897 -0.0335,-16.0649703 -0.36962,-22.4441803 -1.18251,-22.4446803 -0.20548,-1.2e-4 -0.37361,13.6167803 -0.37361,30.25979 0,27.68624 -0.0857,30.2766 -1.00801,30.45504 -0.55441,0.10726 -1.1613,-0.053 -1.34864,-0.35611 z"
       id="path4026"
       inkscape:connector-curvature="0" />
    <path
       style="opacity:1;fill:#061526;fill-opacity:1;fill-rule:nonzero;stroke:none;stroke-width:3.36884022;stroke-miterlimit:4;stroke-dasharray:none;stroke-opacity:1"
       d="m -250.52344,66.248183 c -0.21693,-3.76462 -0.39565,-13.62106 -0.39717,-21.90321 -0.002,-12.46434 -0.14878,-15.05846 -0.85031,-15.05846 -1.30388,0 -1.62409,1.41869 -2.53128,11.21469 -0.56865,6.14052 -1.12452,9.36838 -1.71499,9.95886 -1.66884,1.66883 -2.20644,0.19411 -2.24232,-6.151 -0.0193,-3.41024 -0.23791,-7.29558 -0.48583,-8.63411 l -0.45077,-2.43369 -0.4268,2.97492 c -0.23475,1.63621 -0.4541,9.57613 -0.48746,17.64425 -0.0334,8.06813 -0.25104,15.35381 -0.48374,16.19039 -0.30445,1.09449 -0.84197,1.52105 -1.91673,1.52105 h -1.49363 l -0.33008,-15.81898 c -0.18155,-8.70044 -0.3869,-15.88743 -0.45632,-15.97109 -0.43635,-0.52581 -1.88117,0.004 -2.18742,0.80197 -0.20136,0.52474 -0.36259,6.61657 -0.35829,13.5374 0.008,12.20286 -0.43033,16.58913 -1.79218,17.95098 -0.46868,0.46869 -0.87266,0.43878 -1.41625,-0.10482 -0.58045,-0.58046 -0.77949,-6.55188 -0.84062,-25.21911 -0.0769,-23.48061 -0.48591,-30.13532 -1.9417,-31.59111 -1.27985,-1.27986 -1.93288,2.51679 -2.83184,16.46394 -0.91677,14.2236 -1.47402,18.40818 -3.11231,23.37131 -0.775,2.34781 -1.21992,2.89001 -2.37152,2.89001 -1.34893,0 -1.43501,-0.25765 -1.77848,-5.3237 -0.54835,-8.08788 -3.627,-31.81253 -4.06365,-31.31524 -0.21143,0.24079 -0.84603,2.3263 -1.41021,4.63445 -2.71261,11.09767 -4.06172,10.88957 -5.03562,-0.77675 -0.71433,-8.55692 -1.92259,-15.8021397 -3.19041,-19.1310497 -0.75347,-1.97837 -2.71607,-2.04749 -2.88532,-0.10162 -1.32243,15.2041497 -2.10685,18.4240997 -4.08782,16.7800397 -0.83304,-0.69136 -0.97873,-2.45133 -0.98019,-11.84126 -10e-4,-6.0660697 -0.30215,-13.4933297 -0.66935,-16.5050197 -0.81006,-6.6439203 -3.18042,-16.0338453 -4.98986,-19.7667853 l -1.33048,-2.744851 -0.30694,7.605281 c -0.16881,4.182905 -0.26128,-10.464866 -0.20549,-32.550602 0.0671,-26.550149 0.31965,-40.722788 0.74547,-41.829046 0.73995,-1.922368 2.75928,-2.261959 3.6179,-0.608423 0.30408,0.585607 0.73896,4.897803 0.9664,9.582656 0.48819,10.056114 1.95768,27.564839 2.783,33.159025 0.32089,2.175111 0.58895,4.160089 0.59568,4.411062 0.0245,0.912069 1.71848,0.428191 2.13005,-0.608422 0.48964,-1.233268 0.89981,-9.091592 1.09296,-20.939961 0.12721,-7.803857 0.46253,-9.813304 1.46951,-8.806323 0.23173,0.231732 0.6059,11.434312 0.83149,24.894619 0.31056,18.530316 0.66476,26.086864 1.45861,31.118019 1.20019,7.606401 1.78502,9.478471 2.96106,9.478471 1.1028,0 1.62001,-8.442201 1.65521,-27.017346 0.022,-11.616788 0.20648,-14.571268 1.06474,-17.053118 1.87459,-5.420836 3.29479,-4.118353 4.83819,4.437166 0.74758,4.144052 1.02544,12.305506 1.31207,38.538948 0.36803,33.68235 0.54945,36.13621 2.52559,34.16006 1.69556,-1.69555 3.29796,-45.878172 2.79076,-76.949426 -0.48236,-29.549931 0.24685,-36.428055 3.86205,-36.428055 2.35456,0 2.50777,1.602912 2.06499,21.60393 l -0.42417,19.160376 h 1.31276 c 0.72201,0 1.31275,-0.27379 1.31275,-0.608422 0,-0.334632 0.27379,-0.608423 0.60843,-0.608423 0.37547,0 0.60842,3.135233 0.60842,8.188852 0,8.390331 0.92772,17.197332 1.92481,18.27244 0.87069,0.938821 1.70585,-0.877327 1.71641,-3.732478 0.0107,-2.886313 1.70032,-11.631527 2.51057,-12.994055 0.32413,-0.545073 0.39475,2.517926 0.17534,7.605281 -0.27585,6.395641 -0.12449,9.994294 0.60749,14.443483 0.53618,3.259067 0.97487,6.870627 0.97487,8.025697 0,2.46296 1.03725,3.45456 1.50242,1.43629 1.19402,-5.18055 2.47319,-23.658674 3.40283,-49.155004 0.64931,-17.808292 1.00963,-20.88271 2.48063,-21.166 1.50896,-0.290597 1.81088,1.270794 2.18616,11.305908 0.30227,8.082614 0.47571,9.280652 1.32009,9.118259 0.78878,-0.151699 1.28279,-2.594925 2.61958,-12.955749 2.0291,-15.726619 3.05066,-20.425725 5.28897,-24.328827 2.49275,-4.34679 3.8466,-5.43058 5.92031,-4.73934 0.91924,0.30641 2.2335,1.31005 2.92057,2.23031 1.16724,1.56339 1.27653,2.827623 1.66539,19.264672 0.22889,9.675315 0.58938,17.871739 0.80108,18.214279 1.00277,1.622521 1.53025,0.214853 1.53353,-4.092474 0.007,-9.839132 3.04746,-23.616378 5.88706,-26.680368 1.49759,-1.615927 4.48939,-1.968346 5.57768,-0.657024 1.78859,2.155112 3.72745,22.994132 3.73595,40.154261 0.006,11.927028 0.44627,15.570396 1.78213,14.74479 0.27387,-0.169262 0.68758,-2.298803 0.91934,-4.732314 0.71753,-7.534169 3.34932,-17.505648 4.6203,-17.505648 1.27424,0 1.46032,2.428997 1.2945,16.897324 -0.19083,16.649583 0.16711,22.041715 1.46318,22.041715 1.2047,0 1.29914,-0.351359 2.04418,-7.605281 1.09063,-10.618648 1.32681,-11.86424 2.24966,-11.86424 1.03134,0 1.04253,0.807717 0.13915,10.038972 -0.77186,7.887374 -0.41736,11.864239 1.05759,11.864239 0.66987,0 0.7611,0.277908 0.34949,1.064739 -1.65969,3.172761 -3.494,17.0927013 -3.90853,29.6606013 -0.12874,3.9035397 -0.25471,4.2751797 -1.50942,4.4533697 -1.29222,0.18353 -1.37126,-0.0211 -1.41013,-3.6505297 -0.0344,-3.21694 -0.14901,-3.62136 -0.7014,-2.47601 -0.72772,1.50891 -3.18878,1.88339 -3.69572,0.56234 -0.17023,-0.44363 -0.51638,-2.7024 -0.76921,-5.01948 l -0.45968,-4.21288 -1.09348,5.68703 c -1.40123,7.2875997 -2.25363,9.8277497 -3.29792,9.8277497 -0.93761,0 -1.10011,-0.76227 -2.43585,-11.4265297 -0.99821,-7.96939 -2.98548,-19.6481203 -3.98275,-23.4056613 -0.85546,-3.223233 -2.1983,-2.931745 -2.80295,0.608423 -0.27147,1.589498 -0.41993,15.2105583 -0.32989,30.2690183 0.17454,29.1934397 -0.56903,43.2149497 -2.66996,50.3469597 -0.32682,1.10947 -1.74972,1.44559 -2.30642,0.54483 -0.49931,-0.8079 -2.05895,-14.23876 -2.5361,-21.83962 -0.23633,-3.76461 -0.66452,-6.84475 -0.95152,-6.84475 -0.28701,0 -0.52183,0.21159 -0.52183,0.4702 0,2.62591 -1.93387,22.7831 -2.31895,24.17091 -0.57481,2.07162 -2.28644,2.75406 -2.75726,1.09934 -0.17204,-0.60464 -0.75695,-5.20619 -1.29978,-10.22568 -1.14602,-10.59704 -1.36908,-11.86424 -2.08842,-11.86424 -1.10791,0 -1.37998,2.56455 -1.87186,17.64426 -0.55409,16.98657 -1.06047,20.07794 -3.28888,20.07794 -1.35407,0 -1.41229,-0.22215 -1.79389,-6.84475 z"
       id="path4028"
       inkscape:connector-curvature="0" />
    <path
       style="opacity:1;fill:#061526;fill-opacity:1;fill-rule:nonzero;stroke:none;stroke-width:3.36884022;stroke-miterlimit:4;stroke-dasharray:none;stroke-opacity:1"
       d="m -324.05084,34.356693 c -0.22309,-0.22308 -0.40562,-3.61508 -0.40562,-7.53778 0,-22.0390797 -2.86206,-48.073525 -6.58696,-59.917543 l -1.14121,-3.628697 -0.35573,2.129478 c -0.19565,1.171215 -0.65397,5.141172 -1.0185,8.822127 -0.36452,3.680957 -1.33935,10.115025 -2.16629,14.297925 -0.82693,4.1829103 -1.50456,9.2969203 -1.50585,11.3644603 -0.002,2.60373 -0.2962,4.05306 -0.95842,4.71528 -1.91229,1.9123 -3.18722,0.59135 -3.71286,-3.84687 -0.31258,-2.63925 -0.21564,-3.10653 0.64452,-3.10653 1.49963,0 1.90953,-1.66021 3.36148,-13.6150403 1.88577,-15.526826 2.55386,-28.292684 2.12133,-40.53456 -0.48049,-13.599406 0.98367,-31.740256 2.79881,-34.677223 0.42769,-0.692013 0.6838,-0.699186 1.47645,-0.04134 0.7811,0.648253 0.95901,2.231845 0.95901,8.536249 0,4.257191 0.17923,10.669657 0.39829,14.249924 0.33663,5.501852 0.54856,6.480866 1.36895,6.324095 0.83129,-0.158853 1.01666,-1.756987 1.29104,-11.130206 0.3189,-10.893938 1.04738,-14.687711 2.53473,-13.200359 0.76499,0.764995 0.7512,2.920521 -0.0728,11.381978 -0.35848,3.680955 -0.64899,9.430549 -0.64559,12.776872 0.0109,10.75427 1.15921,13.395032 3.06916,7.058364 0.94397,-3.131836 0.96102,-2.953811 0.96646,10.08733 0.003,7.891285 0.4045,17.1002 0.98925,22.70598 0.54105,5.186796 1.30833,15.3542163 1.70506,22.5942663 0.68358,12.4749497 0.65158,13.6479597 -0.61158,22.4182097 -0.7331,5.08996 -1.58311,9.91255 -1.88891,10.71685 -0.53482,1.4067 -1.7664,1.90455 -2.61419,1.05676 z"
       id="path4030"
       inkscape:connector-curvature="0" />
    <path
       style="opacity:1;fill:#061526;fill-opacity:1;fill-rule:nonzero;stroke:none;stroke-width:0.84221005;stroke-miterlimit:4;stroke-dasharray:none;stroke-opacity:1"
       d="m -187.62838,401.06833 c -1.5888,-0.33353 -2.87303,-1.46674 -3.78597,-3.34079 -0.59035,-1.21182 -0.72555,-1.51011 -1.07949,-2.38146 -0.068,-0.16732 -0.23776,-0.7149 -0.37735,-1.21685 -0.13958,-0.50194 -0.31438,-1.06984 -0.38845,-1.262 -0.0741,-0.19217 -0.13467,-0.51824 -0.13467,-0.72459 0,-0.20635 -0.0616,-0.49401 -0.13684,-0.63929 -0.17812,-0.3438 -0.47772,-2.28399 -0.66321,-4.29493 -0.17122,-1.85634 -0.17183,-4.57718 -0.007,-31.5619 l 0.12262,-20.07794 0.076,15.4387 c 0.0418,8.4913 0.0255,19.16912 -0.0363,23.7285 -0.0618,4.55935 -0.0618,8.95988 0,9.77892 l 0.1124,1.48918 1.44501,-1.08085 c 0.79475,-0.59446 1.64204,-1.23036 1.88288,-1.41311 3.24674,-2.4637 7.50891,-5.57408 7.6417,-5.57665 0.0935,-0.003 0.42722,0.4364 0.7415,0.9738 0.70459,1.2048 1.42566,2.09558 1.60606,1.98408 0.37283,-0.2304 1.39209,-3.12653 1.77888,-5.05444 0.21788,-1.08603 0.26523,-2.11495 0.25891,-5.62621 -0.005,-2.66387 0.0463,-4.24307 0.13441,-4.15496 0.17517,0.17518 0.0208,9.90452 -0.20161,12.71103 -0.32556,4.10713 -0.90591,8.87318 -1.38912,11.40791 -0.0797,0.41831 -0.19988,1.10278 -0.26697,1.52106 -0.21322,1.3294 -0.50457,2.72632 -0.64388,3.0873 -0.0742,0.19216 -0.13484,0.54747 -0.13484,0.78959 0,0.24209 -0.0594,0.47686 -0.13193,0.52171 -0.0726,0.0448 -0.16578,0.37401 -0.20715,0.73149 -0.17334,1.49789 -1.29918,3.0176 -2.81253,3.79645 -0.8651,0.44524 -2.43014,0.65048 -3.40302,0.44625 z"
       id="path4032"
       inkscape:connector-curvature="0" />
    <path
       style="opacity:1;fill:#061526;fill-opacity:1;fill-rule:nonzero;stroke:none;stroke-width:0.84221005;stroke-miterlimit:4;stroke-dasharray:none;stroke-opacity:1"
       d="m -166.69977,407.4459 c -0.16732,-0.0629 -0.45822,-0.16674 -0.64645,-0.23074 -0.18823,-0.064 -0.34224,-0.17222 -0.34224,-0.24048 0,-0.0683 -0.13371,-0.16656 -0.29713,-0.21842 -0.4156,-0.13192 -1.28425,-1.39144 -1.51563,-2.19765 -0.10644,-0.3709 -0.26212,-1.29493 -0.34594,-2.05343 -0.0838,-0.75849 -0.20643,-1.78978 -0.27247,-2.29172 -0.066,-0.50194 -0.23451,-1.87089 -0.3744,-3.0421 -0.38167,-3.19545 -0.53726,-4.46056 -0.68279,-5.55186 -0.0725,-0.54377 -0.24816,-1.98117 -0.39033,-3.19423 -0.27495,-2.34596 -0.41716,-3.49057 -0.66144,-5.32368 -0.0836,-0.62744 -0.26741,-2.13329 -0.40843,-3.34632 -0.14103,-1.21306 -0.31249,-2.65044 -0.38103,-3.19424 -0.0685,-0.54377 -0.19222,-1.57048 -0.27484,-2.28158 -0.0826,-0.71109 -0.29282,-2.24086 -0.46711,-3.39947 -0.17429,-1.15861 -0.3169,-2.47624 -0.3169,-2.92804 0,-0.4518 -0.063,-0.82145 -0.14008,-0.82145 -0.077,0 -0.17198,-0.49625 -0.21095,-1.10276 -0.039,-0.60653 -0.18904,-2.06102 -0.33348,-3.23225 -0.14445,-1.17121 -0.29174,-2.5744 -0.32733,-3.11817 -0.0356,-0.54377 -0.12764,-1.12556 -0.20457,-1.29289 -0.0769,-0.16732 -0.17299,-0.7149 -0.21345,-1.21684 -0.27328,-3.38992 -0.4382,-4.90159 -0.55986,-5.13152 -0.0769,-0.14525 -0.13975,-0.67572 -0.13975,-1.17879 0,-0.5084 -0.0676,-0.91472 -0.15211,-0.91472 -0.0837,0 -0.15211,-0.1011 -0.15211,-0.22463 0,-0.40071 -0.70978,-0.73486 -1.37219,-0.64601 -0.34376,0.0461 -0.5685,0.0217 -0.52018,-0.0565 0.0468,-0.0757 0.44688,-0.13764 0.88909,-0.13764 1.31266,0 1.40872,0.21193 1.86165,4.10686 0.13132,1.12938 0.29598,2.49833 0.36589,3.0421 0.0699,0.5438 0.19748,1.60473 0.28348,2.35765 0.086,0.75293 0.26265,2.19033 0.39254,3.19421 0.12989,1.00391 0.30305,2.38996 0.38479,3.08015 0.0817,0.69016 0.21561,1.81957 0.29748,2.50973 0.26427,2.22798 0.43117,3.3306 0.51714,3.41659 0.0462,0.0462 0.59584,-0.30792 1.22134,-0.78703 0.62551,-0.47908 1.20571,-0.82878 1.28935,-0.77711 0.0836,0.0517 0.19663,0.41752 0.25109,0.81296 0.24734,1.79565 1.35708,5.71823 2.07531,7.33555 0.80808,1.81965 2.65361,5.197 3.2,5.85605 0.0694,0.0837 0.37953,0.49435 0.68928,0.91265 1.58269,2.13731 4.85438,5.55186 5.31959,5.55186 0.0798,0 0.2197,-0.39359 0.3108,-0.87461 l 0.16565,-0.8746 -0.0609,0.83656 c -0.0541,0.74332 -0.18427,1.50082 -0.67953,3.95475 -0.076,0.37645 -0.20652,1.06093 -0.2901,1.52106 -0.0836,0.46011 -0.2631,1.41838 -0.39896,2.12948 -0.13586,0.71109 -0.28213,1.60091 -0.32506,1.97736 -0.0429,0.37648 -0.13987,0.74951 -0.21541,0.82899 -0.0755,0.0795 -0.13736,0.32883 -0.13736,0.55412 0,0.77028 -0.48412,3.00106 -1.02024,4.70112 -0.47674,1.5118 -1.80346,3.05167 -2.80117,3.25122 -0.60571,0.12113 -1.49044,0.0978 -1.88255,-0.0496 z"
       id="path4034"
       inkscape:connector-curvature="0" />
    <path
       style="opacity:1;fill:#061526;fill-opacity:1;fill-rule:nonzero;stroke:none;stroke-width:1.68442011;stroke-miterlimit:4;stroke-dasharray:none;stroke-opacity:1"
       d="m -150.88368,412.23925 c -0.52917,-0.16253 -1.57482,-0.97697 -2.32367,-1.80986 -1.09398,-1.21679 -1.46471,-1.93534 -1.88652,-3.65659 -0.50022,-2.04121 -0.4987,-2.34625 0.0323,-6.46935 0.57883,-4.4943 0.77414,-13.63748 0.35236,-16.49561 -0.18581,-1.25915 -0.16515,-1.3901 0.12001,-0.76052 0.18946,0.41828 0.40965,2.92275 0.48932,5.56546 l 0.14483,4.80494 2.01674,0.9186 c 4.39301,2.00105 9.36517,2.93622 12.13176,2.28182 0.86035,-0.20351 0.9887,-0.15599 0.9887,0.36627 0,0.89966 -1.66527,7.25855 -2.42848,9.27325 -0.72861,1.92338 -3.07861,4.60991 -4.82033,5.51058 -1.23512,0.6387 -3.53792,0.86386 -4.81705,0.47101 z"
       id="path4036"
       inkscape:connector-curvature="0" />
    <path
       style="opacity:1;fill:#061526;fill-opacity:1;fill-rule:nonzero;stroke:none;stroke-width:1.68442011;stroke-miterlimit:4;stroke-dasharray:none;stroke-opacity:1"
       d="m -365.90987,316.61116 c -1.49534,-2.25959 -1.6938,-3.55896 -1.67232,-10.94906 0.0177,-6.10741 0.0747,-6.85441 0.55013,-7.21535 0.29168,-0.22146 0.87257,-0.38836 1.29086,-0.37089 0.71107,0.0297 0.71601,0.0403 0.0761,0.16359 -0.59255,0.11414 -0.68448,0.32144 -0.68448,1.54342 0,2.57032 0.95594,9.28642 1.54642,10.86461 0.75782,2.02544 2.33301,4.49556 2.7159,4.25892 0.64189,-0.39669 0.25148,0.40656 -0.78759,1.62049 -0.59865,0.69938 -1.34963,1.27159 -1.66885,1.27159 -0.33771,0 -0.90895,-0.49646 -1.36613,-1.18732 z"
       id="path4790"
       inkscape:connector-curvature="0" />
    <path
       style="opacity:1;fill:#061526;fill-opacity:1;fill-rule:nonzero;stroke:none;stroke-width:1.68442011;stroke-miterlimit:4;stroke-dasharray:none;stroke-opacity:1"
       d="m -351.99293,315.15939 c -1.26178,-0.62182 -2.65657,-2.61934 -3.12333,-4.47299 -0.22351,-0.88765 -0.28689,-2.41366 -0.16924,-4.07434 0.10346,-1.46035 0.27632,-4.60807 0.38412,-6.99495 l 0.196,-4.3398 0.79448,-0.1786 c 0.43696,-0.0982 1.54156,-0.3643 2.45468,-0.59124 0.91312,-0.22696 1.66933,-0.38401 1.68048,-0.34901 0.0111,0.035 -0.0698,2.11709 -0.17981,4.62682 -0.11003,2.50976 -0.21599,7.33531 -0.23547,10.72346 -0.0386,6.7092 0.0137,6.5454 -1.80191,5.65065 z"
       id="path4792"
       inkscape:connector-curvature="0" />
    <path
       style="opacity:1;fill:#061526;fill-opacity:1;fill-rule:nonzero;stroke:none;stroke-width:1.68442011;stroke-miterlimit:4;stroke-dasharray:none;stroke-opacity:1"
       d="m -318.37612,400.10469 c -5.01688,-1.78948 -7.29912,-6.30219 -9.16272,-18.11763 -0.2771,-1.75681 -0.98203,-6.20591 -1.56651,-9.88687 -2.73139,-17.20173 -5.36996,-35.39371 -5.2038,-35.87838 0.0609,-0.1775 0.48156,1.25154 0.9349,3.17569 1.07259,4.5524 3.10844,10.72039 3.84938,11.66233 1.23647,1.57192 3.33213,1.25434 4.17544,-0.63275 0.45554,-1.01938 0.51141,-2.77275 0.51765,-16.24465 0.007,-14.41833 0.0332,-15.13094 0.58651,-15.74292 0.70552,-0.78039 1.45173,-0.81949 2.07323,-0.10864 0.37199,0.42545 0.53718,2.18184 0.82257,8.74607 0.75619,17.39244 0.93057,20.08931 1.41624,21.90322 0.66445,2.4816 1.76049,4.72101 2.79637,5.71346 l 0.86085,0.82473 -0.12755,-5.40374 c -0.1503,-6.36805 0.56792,-12.34742 2.07748,-17.29552 1.01269,-3.31941 1.71804,-4.2341 3.01946,-3.9156 1.74102,0.42611 1.6924,0.0478 1.6924,13.16826 0,11.70752 0.0219,12.15972 0.7088,14.66578 0.38983,1.42219 1.07431,3.26038 1.52105,4.08487 l 0.81226,1.49911 0.21245,-3.47647 c 0.25963,-4.24855 1.08809,-11.81023 1.49604,-13.65509 0.39069,-1.76676 0.73613,-2.14191 1.97228,-2.14191 1.63056,0 1.84543,0.65595 2.24212,6.84474 0.31198,4.8673 1.50647,20.54942 2.02472,26.58187 0.13736,1.59896 0.35659,2.40869 0.76185,2.81395 0.78726,0.78727 2.26422,0.72668 3.11884,-0.12795 0.89781,-0.89781 1.02097,-2.4601 1.41963,-18.00818 0.26499,-10.33489 0.36773,-11.91572 0.79523,-12.23658 0.7182,-0.53906 1.51875,0.013 1.73522,1.19681 0.10027,0.5483 0.32637,2.36588 0.50246,4.03903 0.39826,3.78423 1.76538,13.60437 2.10525,15.1222 0.30686,1.37039 -0.89666,16.12221 -1.64813,20.2015 -0.63163,3.42873 -1.27075,4.5335 -3.08772,5.33723 -2.22405,0.9838 -4.88969,0.0577 -5.74824,-1.99711 -0.23496,-0.56234 -0.77845,-3.67371 -1.20776,-6.91414 -0.95294,-7.19286 -1.35917,-8.89693 -2.81864,-11.82383 -0.83843,-1.68143 -1.29524,-2.28158 -1.7366,-2.28158 -1.42028,0 -2.41781,5.60625 -2.11101,11.86423 0.1478,3.01477 0.0752,4.63471 -0.3054,6.81564 -1.30951,7.50361 -6.14955,11.54676 -11.5266,9.62882 z"
       id="path4794"
       inkscape:connector-curvature="0" />
    <path
       style="opacity:1;fill:#061526;fill-opacity:1;fill-rule:nonzero;stroke:none;stroke-width:1.68442011;stroke-miterlimit:4;stroke-dasharray:none;stroke-opacity:1"
       d="m -266.33398,398.64112 c -1.27358,-1.04748 -2.78802,-4.69545 -4.18003,-10.06887 -0.70544,-2.72312 -0.8008,-3.49608 -0.5442,-4.41106 0.20275,-0.72297 0.24179,-4.76498 0.11208,-11.60468 -0.21491,-11.33215 0.003,-15.42714 1.03722,-19.51386 0.76724,-3.03102 2.18694,-6.18652 2.90787,-6.46317 0.71149,-0.27302 1.55145,0.0365 1.79958,0.66302 0.11342,0.28644 0.3263,4.62765 0.47305,9.64714 0.28784,9.84506 1.09194,23.93018 1.46641,25.68659 0.22314,1.04659 0.23851,1.02103 0.44565,-0.74128 0.11799,-1.00388 0.614,-4.08403 1.10223,-6.84475 0.48824,-2.76071 1.12808,-6.57624 1.42188,-8.47894 0.29379,-1.9027 0.72255,-3.64784 0.9528,-3.87808 0.6821,-0.68209 1.48003,-0.007 1.73707,1.46992 0.3386,1.9453 0.31962,2.46134 -0.25492,6.93235 -0.29026,2.25878 -1.00095,8.00838 -1.57931,12.77689 -0.57836,4.76851 -1.12465,9.21761 -1.21398,9.88687 -0.30037,2.25055 -0.76641,3.5003 -1.70311,4.56716 -1.14581,1.305 -2.67426,1.44891 -3.98029,0.37475 z"
       id="path4796"
       inkscape:connector-curvature="0" />
    <path
       style="opacity:1;fill:#061526;fill-opacity:1;fill-rule:nonzero;stroke:none;stroke-width:1.68442011;stroke-miterlimit:4;stroke-dasharray:none;stroke-opacity:1"
       d="m -248.15939,401.70971 c -1.25362,-0.98608 -1.53286,-1.94892 -2.58796,-8.92315 -0.53156,-3.51364 -1.21649,-7.99426 -1.52206,-9.95694 -0.30557,-1.96268 -0.48328,-3.84497 -0.39491,-4.1829 0.0884,-0.33793 0.042,-0.61471 -0.10297,-0.61505 -0.40568,0 -0.52188,-16.80006 -0.14554,-21.03996 0.1832,-2.06393 0.55032,-6.21673 0.81583,-9.2284 0.8489,-9.62946 2.9098,-20.52929 5.7807,-30.57324 1.78094,-6.23073 2.8205,-9.12942 3.57298,-9.96291 0.84433,-0.93525 2.61055,-0.93525 3.46451,0 0.5866,0.64243 0.63734,1.18901 0.82608,8.89817 0.2239,9.14551 0.67147,19.56795 0.97978,22.81585 l 0.20214,2.12947 0.97474,-4.71527 c 1.06709,-5.16197 3.021,-12.44775 3.69049,-13.76114 0.3587,-0.70371 1.77342,-1.46754 2.04792,-1.1057 0.21388,0.28192 -1.224,28.01964 -1.9534,37.68268 -1.01688,13.47165 -2.1748,26.41446 -2.59793,29.03884 -1.19448,7.40852 -3.63391,11.80195 -7.53708,13.57431 -1.79593,0.81553 -4.42695,0.77989 -5.51332,-0.0747 z"
       id="path4798"
       inkscape:connector-curvature="0" />
    <path
       style="opacity:1;fill:#061526;fill-opacity:1;fill-rule:nonzero;stroke:none;stroke-width:1.68442011;stroke-miterlimit:4;stroke-dasharray:none;stroke-opacity:1"
       d="m -210.26294,395.60051 c -0.18861,-1.04572 -0.4887,-6.24655 -0.66688,-11.55743 l -0.32396,-9.65613 0.90898,-2.81654 c 0.49993,-1.54908 1.54474,-5.07531 2.32179,-7.83603 2.58148,-9.17157 5.38362,-15.26738 6.50341,-14.14759 0.2575,0.25749 -0.51901,18.83966 -1.18868,28.44554 -0.33244,4.76851 -0.68906,10.07539 -0.79249,11.79309 -0.10343,1.7177 -0.33843,3.31099 -0.52221,3.54065 -0.44345,0.55415 -5.33789,4.13576 -5.65169,4.13576 -0.13495,0 -0.39967,-0.85559 -0.58827,-1.90132 z"
       id="path4800"
       inkscape:connector-curvature="0" />
    <path
       style="opacity:1;fill:#061526;fill-opacity:1;fill-rule:nonzero;stroke:none;stroke-width:1.68442011;stroke-miterlimit:4;stroke-dasharray:none;stroke-opacity:1"
       d="m -194.07918,360.76832 c 0.0521,-22.38422 0.0759,-23.52183 0.21404,-10.26713 l 0.1554,14.90636 0.67943,-2.28158 c 1.64377,-5.5199 1.72824,-6.29206 1.74163,-15.92141 l 0.0126,-9.07669 0.7535,-0.61063 c 0.93115,-0.75462 2.64616,-0.57457 3.4085,0.35782 0.6625,0.81029 0.76546,1.88066 1.31696,13.69087 0.72246,15.47135 1.04304,19.71942 1.70196,22.55311 1.22024,3.81534 0,0 1.22024,3.81534 -0.15294,-0.005 -2.81075,1.87757 -5.70903,4.05268 -2.89829,2.17511 -5.33358,3.95475 -5.41176,3.95475 -0.0782,0 -0.11575,-11.32805 -0.0835,-25.17349 z"
       id="path4802"
       inkscape:connector-curvature="0"
       sodipodi:nodetypes="cscsscccsccsscc" />
    <path
       style="opacity:1;fill:#061526;fill-opacity:1;fill-rule:nonzero;stroke:none;stroke-width:0.59553242;stroke-miterlimit:4;stroke-dasharray:none;stroke-opacity:1"
       d="m -170.93755,368.89786 c -0.0316,0 -0.61025,0.39044 -1.18719,0.83476 -1.21759,0.93773 -1.32625,0.99295 -1.43823,0.73096 -0.0775,-0.18132 -0.29814,-1.79641 -0.43064,-3.15217 -0.0318,-0.32535 -0.10303,-0.90614 -0.15829,-1.29066 -0.0553,-0.38449 -0.17767,-1.3525 -0.27202,-2.15109 -0.0943,-0.79859 -0.21433,-1.76659 -0.26662,-2.15109 -0.0523,-0.38452 -0.17376,-1.3767 -0.26993,-2.20488 -0.0962,-0.82817 -0.19691,-1.65097 -0.22386,-1.82843 -0.027,-0.17748 -0.0931,-0.79396 -0.14697,-1.36998 -0.0539,-0.576 -0.12485,-1.09083 -0.15773,-1.14403 -0.0329,-0.0532 -0.10865,-0.59831 -0.16836,-1.21135 -0.23887,-2.45215 -0.48489,-4.15835 -0.65272,-4.5267 -0.17811,-0.39089 -0.51741,-0.55711 -1.28462,-0.6292 l -0.6991,-0.0657 0.62474,-0.0169 c 0.53021,-0.0143 0.6906,-0.0698 1.05989,-0.36648 0.41149,-0.33057 0.48276,-0.34949 1.31183,-0.34819 0.78842,0 0.91554,0.031 1.26236,0.29551 0.21212,0.1618 0.47307,0.47578 0.5799,0.69776 0.10683,0.22196 0.23551,0.48763 0.28596,0.59034 0.0504,0.10271 0.0917,0.31258 0.0917,0.46635 0,0.15375 0.0709,0.57793 0.15752,0.94256 0.0866,0.36465 0.2058,1.00179 0.26481,1.41586 0.059,0.4141 0.16235,1.11588 0.22963,1.55956 0.12167,0.80222 0.22451,1.83208 0.41886,4.19463 0.51162,6.21945 0.56159,6.77092 0.79441,8.76572 0.27464,1.96289 0,0 0.27464,1.96289 z"
       id="path4806"
       inkscape:connector-curvature="0"
       sodipodi:nodetypes="cccccscccscsccccccccsscccscc" />
  </g>
</svg>
