<?xml version="1.0" encoding="UTF-8" standalone="no"?>
<!-- Created with Inkscape (http://www.inkscape.org/) -->

<svg
   xmlns:dc="http://purl.org/dc/elements/1.1/"
   xmlns:cc="http://creativecommons.org/ns#"
   xmlns:rdf="http://www.w3.org/1999/02/22-rdf-syntax-ns#"
   xmlns:svg="http://www.w3.org/2000/svg"
   xmlns="http://www.w3.org/2000/svg"
   xmlns:sodipodi="http://sodipodi.sourceforge.net/DTD/sodipodi-0.dtd"
   xmlns:inkscape="http://www.inkscape.org/namespaces/inkscape"
   version="1.1"
   id="svg17332"
   width="1433"
   height="1100"
   viewBox="0 0 1433 1100"
   sodipodi:docname="parallax0.svg"
   inkscape:version="0.92.4 (5da689c313, 2019-01-14)">
  <metadata
     id="metadata17338">
    <rdf:RDF>
      <cc:Work
         rdf:about="">
        <dc:format>image/svg+xml</dc:format>
        <dc:type
           rdf:resource="http://purl.org/dc/dcmitype/StillImage" />
        <dc:title></dc:title>
      </cc:Work>
    </rdf:RDF>
  </metadata>
  <defs
     id="defs17336" />
  <sodipodi:namedview
     pagecolor="#ffffff"
     bordercolor="#666666"
     borderopacity="1"
     objecttolerance="10"
     gridtolerance="10"
     guidetolerance="10"
     inkscape:pageopacity="0"
     inkscape:pageshadow="2"
     inkscape:window-width="1858"
     inkscape:window-height="1057"
     id="namedview17334"
     showgrid="false"
     inkscape:pagecheckerboard="true"
     inkscape:zoom="0.25"
     inkscape:cx="1416.8893"
     inkscape:cy="-47.589845"
     inkscape:window-x="54"
     inkscape:window-y="-8"
     inkscape:window-maximized="1"
     inkscape:current-layer="svg17332" />
  <path
     style="opacity:1;fill:#153d5b;fill-opacity:1;fill-rule:nonzero;stroke:none;stroke-width:25.8080864;stroke-miterlimit:4;stroke-dasharray:none;stroke-opacity:1"
     d="M 0.0048914,936.32954 V 772.65788 l 11.7841956,7.7213 c 12.66162,8.29621 20.842923,6.38509 20.842923,-4.86882 0,-3.84534 2.097458,-5.69523 4.661017,-4.11086 2.56356,1.58437 4.661017,10.16381 4.661017,19.06543 0,9.66421 2.660495,17.20569 6.60365,18.71882 3.632009,1.39374 12.0516,10.76647 18.710203,20.82829 7.331709,11.07897 15.757085,18.29424 21.362447,18.29424 5.090746,0 9.255906,2.25125 9.255906,5.00278 0,9.80917 15.9635,1.72892 19.14034,-9.68827 3.07668,-11.05725 3.25832,-11.11325 3.70013,-1.14078 0.25551,5.76801 2.33766,10.48728 4.62695,10.48728 6.19355,0 9.72398,-12.12919 10.62519,-36.50409 0.70992,-19.20075 1.12087,-18.19706 3.49577,8.53799 1.83583,20.66657 4.5432,29.92623 8.51754,29.13136 3.20445,-0.64089 5.82628,2.92544 5.82628,7.92517 0,4.99974 2.67837,10.76774 5.95193,12.8178 3.27356,2.05005 12.88837,12.64156 21.36623,23.53669 8.53837,10.97287 19.37336,19.80932 24.2896,19.80932 6.78292,0 9.70379,-4.6701 12.38957,-19.80932 l 3.51428,-19.80932 2.36707,23.30508 2.36708,23.30509 33.43372,11.66838 c 18.38855,6.41761 38.44958,16.38054 44.58007,22.13983 14.24207,13.37973 26.06228,13.37325 28.91932,-0.0158 1.23081,-5.76801 3.12492,-14.68221 4.20914,-19.80933 1.08421,-5.12711 2.2146,-1.05568 2.51198,9.04764 0.506,17.19131 0.97966,17.78929 7.38397,9.32204 6.19203,-8.1866 6.8574,-8.27138 6.99153,-0.89086 0.0815,4.48623 1.04664,8.15678 2.14468,8.15678 8.02077,0 60.28956,-36.20774 63.41347,-43.92791 3.82773,-9.45949 3.921,-9.44146 4.2099,0.8135 0.58056,20.60812 9.62467,10.05408 9.98545,-11.65254 0.37912,-22.81 1.07128,-22.69286 6.88502,1.16525 l 3.40738,13.98305 3.52724,-11.65254 c 3.26605,-10.78972 3.56163,-10.89637 3.99184,-1.44033 0.84694,18.61588 20.55569,18.90958 26.43235,0.3939 2.33232,-7.34863 3.90253,-8.07524 6.9155,-3.20016 4.78687,7.74533 6.82401,5.84952 15.69961,-14.61052 4.67966,-10.7875 7.04466,-13.10124 7.16692,-7.01152 0.24284,12.08608 8.07335,3.81042 10.80554,-11.4195 1.31749,-7.34384 2.32515,-4.21445 2.72521,8.4632 1.06919,33.8836 15.09624,50.32771 21.6061,25.32918 3.28867,-12.62877 3.39704,-12.66314 7.34664,-2.33051 6.02651,15.76609 18.29216,13.42204 18.29216,-3.49577 0,-7.69068 2.09746,-13.98305 4.66102,-13.98305 2.56356,0 4.66102,3.72822 4.66102,8.28493 0,25.79163 31.80454,38.60525 37.28138,15.02016 3.58222,-15.4263 24.86093,-18.44187 38.94559,-5.51929 10.03773,9.20957 32.34755,11.24601 43.79421,3.99753 3.20445,-2.02918 6.06958,-9.33364 6.36695,-16.23214 0.34492,-7.9963 1.31735,-9.56541 2.68326,-4.32887 2.8249,10.82955 10.65877,5.67342 11.1271,-7.32367 0.22746,-6.30975 1.35622,-7.71614 2.95411,-3.68032 1.89219,4.77914 4.25061,3.5284 8.78891,-4.66101 5.95817,-10.75162 6.20926,-10.41541 6.36788,8.52761 0.18318,21.89864 3.36087,23.74153 40.47879,23.47724 16.25413,-0.11574 20.23832,-2.08506 24.97689,-12.3457 l 5.63788,-12.20799 7.05347,10.48728 c 7.50978,11.16572 19.89951,14.21284 19.89951,4.89407 0,-4.35028 1.24295,-4.35028 5.59322,0 6.59175,6.59177 26.52543,7.2466 36.1048,1.18606 4.11498,-2.60342 9.9989,-2.52052 15.10621,0.21282 5.75296,3.0789 12.38227,2.45307 21.22572,-2.00377 13.83226,-6.97108 53.29239,-13.79979 81.60993,-14.12286 9.6133,-0.10968 17.4788,-1.87471 17.4788,-3.92228 0,-6.22811 104.6832,-4.3325 120.1621,2.1759 20.7435,8.72199 57.4805,4.75704 60.43,-6.52209 2.1345,-8.1621 2.8081,-8.26416 7.9683,-1.20721 4.3298,5.92144 16.0842,8.25512 50.6991,10.06571 29.5146,1.5438 45.0625,0.68978 45.0625,-2.47519 0,-5.11407 28.6964,-4.07842 37.4843,1.3528 2.8294,1.74865 21.9965,-1.69015 42.5937,-7.64178 29.5536,-8.53966 38.3173,-13.10427 41.5664,-21.65002 2.2644,-5.95589 8.4004,-42.46427 10.6107,-81.45383 3.4017,-60.00725 4.9845,-40.2287 4.9794,128.44111 l 0.01,198.92043 H 715.47099 0.0048914 Z"
     id="path17885"
     inkscape:connector-curvature="0"
     sodipodi:nodetypes="ccsssscsssscsssssccsscccssscsscscsssccscccccccssssccccccsccsccssscccsssccssccccscccc" />
</svg>
