<?xml version="1.0" encoding="UTF-8" standalone="no"?>
<!-- Created with Inkscape (http://www.inkscape.org/) -->

<svg
   xmlns:dc="http://purl.org/dc/elements/1.1/"
   xmlns:cc="http://creativecommons.org/ns#"
   xmlns:rdf="http://www.w3.org/1999/02/22-rdf-syntax-ns#"
   xmlns:svg="http://www.w3.org/2000/svg"
   xmlns="http://www.w3.org/2000/svg"
   xmlns:sodipodi="http://sodipodi.sourceforge.net/DTD/sodipodi-0.dtd"
   xmlns:inkscape="http://www.inkscape.org/namespaces/inkscape"
   version="1.1"
   id="svg16218"
   width="1433"
   height="1300"
   viewBox="0 0 1433 1300"
   sodipodi:docname="parallax2.svg"
   inkscape:version="0.92.4 (5da689c313, 2019-01-14)">
  <metadata
     id="metadata16224">
    <rdf:RDF>
      <cc:Work
         rdf:about="">
        <dc:format>image/svg+xml</dc:format>
        <dc:type
           rdf:resource="http://purl.org/dc/dcmitype/StillImage" />
        <dc:title></dc:title>
      </cc:Work>
    </rdf:RDF>
  </metadata>
  <defs
     id="defs16222" />
  <sodipodi:namedview
     pagecolor="#ffffff"
     bordercolor="#666666"
     borderopacity="1"
     objecttolerance="10"
     gridtolerance="10"
     guidetolerance="10"
     inkscape:pageopacity="0"
     inkscape:pageshadow="2"
     inkscape:window-width="1858"
     inkscape:window-height="1057"
     id="namedview16220"
     showgrid="false"
     inkscape:zoom="0.35355339"
     inkscape:cx="857.77882"
     inkscape:cy="323.36062"
     inkscape:window-x="54"
     inkscape:window-y="-8"
     inkscape:window-maximized="1"
     inkscape:current-layer="svg16218"
     inkscape:pagecheckerboard="true" />
  <path
     style="opacity:1;fill:#1a314c;fill-opacity:1;fill-rule:nonzero;stroke:none;stroke-width:30.5004673;stroke-miterlimit:4;stroke-dasharray:none;stroke-opacity:1"
     d="m 0.00403865,1231.8402 c 0,-72.1791 5.19033865,-96.2956 28.44935535,-132.1878 13.993487,-21.5941 25.81541,-27.7303 14.629809,-7.5937 -9.229716,16.6156 -9.686842,116.7824 -0.574705,125.931 5.216046,5.237 14.973245,5.3149 44.067796,0.352 20.552626,-3.5058 65.949456,-8.7229 100.881826,-11.5936 52.72752,-4.3329 69.56568,-8.0825 99.15255,-22.0793 19.60152,-9.2729 38.54746,-16.8619 42.10208,-16.8643 3.55463,0 14.02277,-6.3655 23.26254,-14.1402 26.62438,-22.4029 71.28512,-35.4404 121.40391,-35.4404 24.19416,0 69.49442,-2.7213 100.66727,-6.0474 67.15464,-7.1653 96.40585,-21.1847 153.56029,-73.5977 19.95902,-18.3032 49.70479,-43.8034 66.1017,-56.66711 27.51406,-21.58536 30.3637,-22.64709 36.96192,-13.77119 3.93211,5.28956 5.69477,14.575 3.91696,20.63433 -11.12442,37.91497 -10.10463,44.74297 7.78932,52.15487 15.89685,6.5847 19.32472,5.8543 43.73293,-9.3187 l 26.48403,-16.4634 5.93858,15.7331 c 7.47037,19.7912 24.40987,20.6971 36.68561,1.9619 10.85396,-16.5652 25.24066,-17.9219 29.20709,-2.7542 2.11449,8.0856 7.51367,11.0169 20.2925,11.0169 23.8299,0 41.8633,-13.7201 42.0417,-31.9861 0.2022,-20.71718 21.1437,-95.6436 21.5575,-77.13133 0.4016,17.94912 8.8101,24.5394 15.6701,12.28128 3.5554,-6.35324 6.0057,1.85058 8.4861,28.41308 3.8726,41.47047 11.999,55.60967 22.1908,38.60987 3.4733,-5.7935 10.8922,-15.32839 16.4867,-21.1887 10.0197,-10.49582 10.4097,-10.37953 26.0951,7.77935 l 15.9234,18.43445 13.8413,-15.4555 c 9.2077,-10.28139 13.8414,-21.91575 13.8414,-34.75304 0,-26.43531 8.9107,-18.84267 13.4556,11.46531 3.4415,22.94963 5.5654,25.56043 29.3538,36.08323 14.1042,6.2389 29.4529,14.7739 34.1079,18.9666 16.2296,14.6173 36.5182,15.512 64.4364,2.8415 14.6602,-6.6533 39.6686,-17.9902 55.5743,-25.1929 l 35.2319,-15.90844 c -0.016,305.63574 0,0 -0.016,305.63574 l -719.64431,0 H 0.00403865 Z"
     id="path16771"
     inkscape:connector-curvature="0"
     sodipodi:nodetypes="sssccccccsscscccsccccscccccccccscccccccccs" />
  <path
     style="opacity:1;fill:#1a314c;fill-opacity:1;fill-rule:nonzero;stroke:none;stroke-width:30.5004673;stroke-miterlimit:4;stroke-dasharray:none;stroke-opacity:1"
     d="M 0.00403865,229.28048 V 0.00430345 H 481.20296 962.40191 L 957.4732,28.923795 C 945.3225,100.219 934.14344,146.6031 927.31767,154.04486 c -6.30941,6.87872 -7.47622,4.85168 -7.92719,-13.77118 -0.84264,-34.79772 -12.35243,-76.61622 -21.529,-78.221296 -17.50824,-3.062376 -23.15735,8.361225 -28.21539,57.057116 -2.79379,26.8968 -8.60468,57.57913 -12.91308,68.18294 -4.30845,10.60381 -9.40748,27.35744 -11.33115,37.23027 -5.76727,29.59858 -14.96306,14.47865 -10.44115,-17.16755 6.63766,-46.45311 3.30018,-116.571245 -6.74331,-141.672455 l -9.14253,-22.84941 -10.49309,37.801608 c -7.40488,26.676247 -10.2689,53.608257 -9.73138,91.509237 0.71561,50.45136 0.0876,53.70762 -10.35731,53.70762 -12.08851,0 -11.04278,4.66074 -22.50228,-100.2936 -9.08893,-83.24265 -27.18669,-111.196823 -28.68274,-44.303856 -1.44862,64.773656 -2.01164,69.998596 -8.7555,81.249996 -6.02297,10.04865 -6.69109,9.32241 -7.60153,-8.26271 -0.5492,-10.60381 -0.54038,-25.53892 0.0165,-33.18912 1.1006,-15.0169 -16.94081,-38.421048 -29.61493,-38.421048 -4.56961,0 -9.31472,8.081875 -11.46038,19.519368 -4.59424,24.48938 -13.65981,21.96616 -24.37974,-6.785592 C 644.69038,66.339244 633.83246,53.446417 625.81415,60.100996 613.7582,70.106556 604.56147,114.83912 608.341,145.08968 c 3.01704,24.14726 1.82226,31.54783 -6.81525,42.21471 l -10.47365,12.93439 -3.9737,-35.12286 c -4.13141,-36.51679 -10.8035,-54.94212 -19.89529,-54.94212 -2.92307,0 -5.3024,8.05614 -5.28742,17.90254 0.0165,9.8464 -4.22236,29.7587 -9.41624,44.24955 -11.54152,32.2004 -23.98314,32.66924 -30.73053,1.15802 C 503.38569,87.72507 497.57386,72.688069 469.61969,38.609514 c -5.60866,-6.837444 -15.1322,21.941579 -15.50415,46.8517 -0.22678,15.189866 -2.88764,32.040986 -5.91296,37.446946 -4.88501,8.72901 -6.50633,7.79584 -14.48727,-8.33827 -4.94268,-9.992 -10.40203,-24.984018 -12.1319,-33.315586 -1.72986,-8.331568 -5.55211,-15.148305 -8.49389,-15.148305 -2.94178,0 -13.18638,16.731991 -22.76578,37.182201 l -17.41711,37.18221 -4.11912,-25.495 c -4.93062,-30.517713 -12.92096,-46.704906 -26.69273,-54.075338 -9.26946,-4.960861 -10.54194,-2.33626 -13.95977,28.793248 -2.06834,18.83842 -9.0185,45.24274 -15.44481,58.67628 -11.00103,22.99652 -12.00213,23.71211 -17.1217,12.23873 -7.38275,-16.54538 -15.08785,-12.55824 -23.67749,12.25235 -3.95172,11.41427 -13.44841,28.19693 -21.10376,37.29479 -9.88908,11.75251 -13.98123,23.1971 -14.13442,39.52995 l -0.21561,22.98838 -8.0471,-18.53497 c -4.42591,-10.19424 -8.0471,-30.57992 -8.0471,-45.30153 0,-23.78441 -26.05974,-104.38143 -37.59359,-116.268634 -2.04598,-2.108671 -9.34054,0.413422 -16.21012,5.604643 -12.40019,9.370601 -16.74585,26.060011 -26.79109,102.890321 L 136.14718,228.606 125.67105,187.98272 C 119.90918,165.63992 109.39061,139.61238 102.29646,130.14374 95.202306,120.6751 83.537538,101.77337 76.374748,88.139897 L 63.351497,63.351761 60.428871,143.22464 c -2.872763,78.51018 -3.284841,80.64361 -24.153054,125.04798 -19.858011,42.2548 -20.983622,47.35655 -17.41252,78.92092 2.591253,22.90365 1.741391,36.24787 -2.645158,41.53334 -4.125872,4.97137 -5.162159,16.46258 -2.865657,31.77675 2.721668,18.14938 1.534791,25.70105 -4.8755183,31.02113 -7.60183635,6.30896 -8.47292505,-16.53965 -8.47292505,-222.24428 z"
     id="path16773"
     inkscape:connector-curvature="0" />
  <path
     style="opacity:1;fill:#1a314c;fill-opacity:1;fill-rule:nonzero;stroke:none;stroke-width:30.5004673;stroke-miterlimit:4;stroke-dasharray:none;stroke-opacity:1"
     d="m 1408.2045,358.05873 c -6.0593,-2.60378 -19.6928,-4.91329 -30.2966,-5.13225 -17.1997,-0.35517 -19.3985,-2.10536 -20.381,-16.22303 -1.0822,-15.5513 -20.0386,-54.21552 -41.8362,-85.33085 l -11.066,-15.7963 -6.7377,12.58939 -6.7376,12.5894 -6.2014,-11.58735 c -3.4107,-6.37304 -8.692,-35.60635 -11.7361,-64.96291 -5.564,-53.65791 -14.5296,-82.94345 -24.7532,-80.8554 -3.0296,0.61877 -6.1043,11.70374 -6.8324,24.63328 -2.9214,51.8713 -8.0198,92.36416 -11.6295,92.36416 -5.0853,0 -18.3985,-65.47788 -22.4,-110.16949 l -3.2059,-35.805091 -9.6398,27.146531 c -5.3019,14.93059 -9.6398,41.24355 -9.6398,58.47323 0,22.98581 -2.9334,35.05583 -11.017,45.3325 -6.0593,7.70317 -11.0169,16.16176 -11.0169,18.79685 0,2.6351 -4.1565,10.72521 -9.2365,17.97802 -8.7585,12.50441 -9.4512,12.63913 -13.3841,2.60279 -2.2811,-5.82129 -4.3217,-18.16653 -4.5347,-27.43386 -0.2129,-9.26735 -4.0265,-21.66141 -8.4746,-27.54238 -4.4482,-5.88096 -8.1664,-14.24207 -8.2628,-18.58025 -0.3098,-13.95054 -23.2919,-94.024191 -26.9438,-93.877091 -1.9404,0.0782 -8.4856,10.613119 -14.5449,23.411021 l -11.0169,23.26891 -1.5998,-16.52542 c -1.9874,-20.529201 -12.0344,-46.82204 -17.8917,-46.82204 -6.5301,0 -16.3136,51.36746 -16.3136,85.65249 0,16.51401 -2.1876,30.02548 -4.8613,30.02548 -4.6481,0 -7.0258,-20.38952 -14.9354,-128.072038 L 1007.537,0.00787835 h 212.7278 212.7278 V 181.78755 c 0,191.87047 0.6561,187.20494 -24.7881,176.27118 z"
     id="path16775"
     inkscape:connector-curvature="0" />
</svg>
