<?xml version="1.0" encoding="UTF-8" standalone="no"?>
<!-- Created with Inkscape (http://www.inkscape.org/) -->

<svg
   xmlns:dc="http://purl.org/dc/elements/1.1/"
   xmlns:cc="http://creativecommons.org/ns#"
   xmlns:rdf="http://www.w3.org/1999/02/22-rdf-syntax-ns#"
   xmlns:svg="http://www.w3.org/2000/svg"
   xmlns="http://www.w3.org/2000/svg"
   xmlns:sodipodi="http://sodipodi.sourceforge.net/DTD/sodipodi-0.dtd"
   xmlns:inkscape="http://www.inkscape.org/namespaces/inkscape"
   version="1.1"
   id="svg16777"
   width="1432"
   height="1100"
   viewBox="0 0 1432 1100"
   sodipodi:docname="parallax1.svg"
   inkscape:version="0.92.4 (5da689c313, 2019-01-14)">
  <metadata
     id="metadata16783">
    <rdf:RDF>
      <cc:Work
         rdf:about="">
        <dc:format>image/svg+xml</dc:format>
        <dc:type
           rdf:resource="http://purl.org/dc/dcmitype/StillImage" />
        <dc:title></dc:title>
      </cc:Work>
    </rdf:RDF>
  </metadata>
  <defs
     id="defs16781" />
  <sodipodi:namedview
     pagecolor="#ffffff"
     bordercolor="#666666"
     borderopacity="1"
     objecttolerance="10"
     gridtolerance="10"
     guidetolerance="10"
     inkscape:pageopacity="0"
     inkscape:pageshadow="2"
     inkscape:window-width="1858"
     inkscape:window-height="1057"
     id="namedview16779"
     showgrid="false"
     inkscape:pagecheckerboard="true"
     inkscape:zoom="0.5"
     inkscape:cx="882.28642"
     inkscape:cy="412.76871"
     inkscape:window-x="54"
     inkscape:window-y="-8"
     inkscape:window-maximized="1"
     inkscape:current-layer="svg16777" />
  <path
     style="opacity:1;fill:#0e1b3c;fill-opacity:1;fill-rule:nonzero;stroke:none;stroke-width:9.12453651;stroke-miterlimit:4;stroke-dasharray:none;stroke-opacity:1"
     d="M 0.00237993,1012.6254 V 925.24501 L 3.903011,923.76199 c 4.8560139,-1.84625 10.839922,-0.46061 30.705655,7.11025 8.610373,3.28143 17.554692,5.97153 19.876266,5.978 4.907274,0.0137 11.434182,-5.43399 11.434182,-9.54353 0,-1.55938 1.494303,-3.76845 3.320675,-4.90904 2.733217,-1.70692 4.226287,-1.60548 8.439777,0.5734 6.10446,3.15674 15.500692,1.96061 17.652822,-2.24718 0.79129,-1.54712 1.86464,-5.5853 2.38523,-8.97375 0.520591,-3.38845 2.156371,-7.83783 3.635072,-9.88751 2.57131,-3.56418 2.67606,-3.18772 2.40211,8.63269 -0.42739,18.44026 -0.50679,18.12726 4.59821,18.12581 2.81553,-8e-4 6.74147,-2.0291 10.36647,-5.35573 11.01248,-10.10605 12.03043,-13.01906 13.1005,-37.48886 1.11853,-25.57775 2.68982,-23.06171 4.0314,6.45526 0.51152,11.2544 1.25934,20.79186 1.66182,21.19434 0.40248,0.40248 2.68635,-1.37722 5.07526,-3.9549 6.90717,-7.45296 12.64252,-10.48882 19.83755,-10.50049 8.09599,-0.0132 13.53058,-4.95006 19.05931,-17.314 4.54738,-10.16939 5.98854,-16.91347 14.61411,-68.38861 1.84044,-10.98329 5.90899,-27.876 6.96916,-28.93618 1.37726,-1.37725 2.90843,35.55663 2.91609,70.34012 0.003,18.69358 0.45637,36.23267 1.00498,38.97577 0.84342,4.2171 2.39327,5.52158 10.03416,8.44558 9.82769,3.76085 22.31824,4.47726 29.64706,1.70044 14.11036,-5.34627 20.29854,-19.75141 23.66799,-55.09549 1.99969,-20.97577 4.77608,-43.40052 5.97717,-48.27712 l 0.93183,-3.78333 2.27427,4.38368 c 1.40808,2.71409 2.28926,9.80372 2.3136,18.61459 0.0216,7.827 0.81086,17.19717 1.75388,20.82259 3.89391,14.97019 4.93062,22.68085 6.46185,48.06101 1.68925,27.99927 3.19619,35.15887 7.40017,35.15887 6.27393,0 6.7232,-12.6409 3.22121,-90.63551 -0.73966,-16.4731 -0.52641,-19.95983 1.0646,-17.40793 1.09424,1.75508 2.94697,15.474 4.11719,30.48649 2.21405,28.40333 2.45629,30.44232 6.66924,56.13401 3.33381,20.33046 3.00765,19.52306 8.34004,20.64604 7.73888,1.62977 22.63256,6.10619 24.37736,7.32681 0.90635,0.63407 6.31503,2.85928 12.01929,4.9449 8.95289,3.27343 12.22091,3.64761 23.89481,2.7359 7.4379,-0.58088 17.97283,-1.75815 23.41096,-2.61615 6.29669,-0.99346 16.09268,-0.97304 26.97377,0.0562 11.1227,1.05213 21.47572,1.05558 29.66253,0.01 6.91695,-0.8835 19.36798,-2.09255 27.66896,-2.68677 l 15.09271,-1.08039 11.27398,6.64685 c 11.56405,6.81787 17.71654,9.43344 33.5209,14.2506 10.37475,3.16221 23.07086,9.12296 23.07086,10.83164 0,0.63594 6.21493,5.29177 13.81094,10.34627 12.48481,8.30755 19.96059,15.75243 25.08308,24.97943 2.66879,4.80714 24.15276,11.25574 33.42216,10.03194 5.5709,-0.7355 8.46623,-0.1855 12.65612,2.404 6.2935,3.8896 14.81636,13.1528 16.24597,17.657 2.74145,8.6376 23.09278,10.6209 30.98097,3.0192 13.56382,-13.0712 21.00336,-27.3428 21.12033,-40.51581 l 0.0659,-7.41563 2.40737,5.54493 c 3.18927,7.34586 3.05394,16.55191 -0.29772,20.25551 -2.50899,2.7723 -2.50398,3.5158 0.0692,10.2536 2.50998,6.5723 3.94256,7.8341 15.03544,13.2433 6.74363,3.2883 14.6843,6.4541 17.64593,7.0352 2.96164,0.581 9.83416,3.0901 15.27229,5.5758 14.71425,6.7256 26.57951,9.7762 38.02491,9.7762 6.75192,0 10.50929,0.712 11.03876,2.0918 1.00176,2.6105 22.29899,13.2161 33.33225,16.5988 16.6145,5.0939 48.48468,8.941 104.64282,12.6315 13.14216,0.8637 28.71496,2.3374 34.60626,3.2749 5.89127,0.9375 21.06407,3.2095 33.71727,5.0489 12.6532,1.8394 23.344,3.6827 23.7575,4.0961 0.4133,0.4135 -236.67224,0.7517 -526.85692,0.7517 H 0.00237993 Z"
     id="path17330"
     inkscape:connector-curvature="0" />
</svg>
