<?xml version="1.0" encoding="UTF-8" standalone="no"?>
<!-- Created with Inkscape (http://www.inkscape.org/) -->

<svg
   xmlns:dc="http://purl.org/dc/elements/1.1/"
   xmlns:cc="http://creativecommons.org/ns#"
   xmlns:rdf="http://www.w3.org/1999/02/22-rdf-syntax-ns#"
   xmlns:svg="http://www.w3.org/2000/svg"
   xmlns="http://www.w3.org/2000/svg"
   xmlns:sodipodi="http://sodipodi.sourceforge.net/DTD/sodipodi-0.dtd"
   xmlns:inkscape="http://www.inkscape.org/namespaces/inkscape"
   version="1.1"
   id="svg15663"
   width="1432"
   height="1100"
   viewBox="0 0 1432 1100"
   sodipodi:docname="parallax3.svg"
   inkscape:version="0.92.4 (5da689c313, 2019-01-14)">
  <metadata
     id="metadata15669">
    <rdf:RDF>
      <cc:Work
         rdf:about="">
        <dc:format>image/svg+xml</dc:format>
        <dc:type
           rdf:resource="http://purl.org/dc/dcmitype/StillImage" />
        <dc:title></dc:title>
      </cc:Work>
    </rdf:RDF>
  </metadata>
  <defs
     id="defs15667" />
  <sodipodi:namedview
     pagecolor="#ffffff"
     bordercolor="#666666"
     borderopacity="1"
     objecttolerance="10"
     gridtolerance="10"
     guidetolerance="10"
     inkscape:pageopacity="0"
     inkscape:pageshadow="2"
     inkscape:window-width="1858"
     inkscape:window-height="1057"
     id="namedview15665"
     showgrid="false"
     inkscape:pagecheckerboard="true"
     inkscape:zoom="0.70710678"
     inkscape:cx="890.41198"
     inkscape:cy="500.29434"
     inkscape:window-x="54"
     inkscape:window-y="-8"
     inkscape:window-maximized="1"
     inkscape:current-layer="svg15663" />
  <path
     style="opacity:1;fill:#0b1331;fill-opacity:1;fill-rule:nonzero;stroke:none;stroke-width:6.4520216;stroke-miterlimit:4;stroke-dasharray:none;stroke-opacity:1"
     d="m 0.01146309,980.2661 c 0.0066,-136.3228 0.653479,-154.64794 7.49676411,-212.36759 1.62218,-13.68226 4.0188798,-24.23274 6.3060498,-27.75976 1.510493,-2.3293 2.504254,7.22773 2.509646,24.13532 0.0072,22.69392 7.830526,65.84361 13.005709,71.73355 0.534961,0.60885 0.972656,1.79909 0.972656,2.64498 0,0.84589 1.431288,3.75611 3.180641,6.46716 1.749352,2.71104 3.715719,5.92644 4.369703,7.1453 0.653984,1.21888 2.225712,2.79198 3.492727,3.49577 1.267014,0.7038 2.840107,1.82974 3.495762,2.50208 4.240955,4.34891 7.95455,4.44809 12.421718,0.33171 0.927629,-0.85478 2.713183,-2.12734 3.967898,-2.8279 1.254713,-0.70055 3.456024,-3.71564 4.8918,-6.70021 2.923669,-6.07745 2.411989,-5.91022 18.26527,-5.96996 l 10.388491,-0.0392 2.989961,-10.7786 c 2.724281,-9.82084 4.951101,-13.14405 6.246521,-9.32204 0.27153,0.80112 0.24439,7.59008 -0.0603,15.0866 l -0.55399,13.63003 3.03455,0.76163 c 4.75752,1.19405 14.0445,-5.69953 19.69765,-14.62127 1.92644,-3.04029 3.76299,-15.92453 5.02465,-35.25043 0.40797,-6.24949 1.14354,-11.11441 1.63459,-10.81093 0.49104,0.30347 1.26371,9.08724 1.71705,19.5195 0.82552,18.9971 1.4364,24.21541 2.83371,24.2067 0.41119,-0.002 3.6247,-2.61221 7.14112,-5.7992 7.31766,-6.6321 9.68408,-7.72931 18.88332,-8.75544 5.73098,-0.63925 7.15682,-1.32539 10.48729,-5.04658 6.76255,-7.55592 11.49581,-24.02374 20.82372,-72.44921 1.41969,-7.37023 3.29624,-17.66927 4.17011,-22.88676 0.87387,-5.21747 2.35359,-11.24766 3.28828,-13.40042 1.63186,-3.75849 1.70123,-3.4265 1.74503,8.35164 0.0251,6.74616 -0.49061,16.5422 -1.14599,21.76896 -0.91243,7.27679 -0.77003,13.82156 0.60783,27.93554 0.98969,10.13777 2.11714,26.29778 2.50544,35.91113 l 0.70602,17.47881 4.92328,4.66102 c 3.53241,3.34423 5.50416,6.5332 6.97941,11.288 2.30961,7.44391 5.40395,11.43447 8.86652,11.43447 5.7406,0 19.71751,-10.48642 19.71751,-14.7934 0,-0.83609 0.52436,-1.52016 1.16525,-1.52016 0.64089,0 1.17329,1.70418 1.1831,3.78707 0.0195,4.13258 1.69977,7.70153 3.00937,6.39194 0.45288,-0.45288 0.73284,-11.18717 0.62215,-23.85397 -0.17229,-19.71568 0.15483,-24.62389 2.27267,-34.10047 4.80691,-21.50916 5.71726,-27.57336 6.90963,-46.02754 0.66255,-10.25424 1.63206,-20.47934 2.15445,-22.72246 l 0.94981,-4.07839 2.03275,6.4089 c 1.77514,5.59672 2.0882,12.96173 2.47034,58.11663 0.24068,28.43925 0.73431,52.00443 1.09695,52.36708 1.38491,1.38491 4.18151,-3.04059 5.05847,-8.00482 0.55378,-3.13481 0.90261,6.32215 0.88347,23.9512 -0.0312,28.73233 0.0198,29.35393 3.72405,45.38061 2.06562,8.9371 3.75567,16.34022 3.75567,16.45139 0,0.11116 15.33766,7.87147 34.08369,17.24509 18.74603,9.37363 35.3946,17.78921 36.99682,18.7013 4.23813,2.41261 13.53792,6.49221 21.55721,9.45666 3.84534,1.42147 11.44862,4.27954 16.89618,6.35127 16.10399,6.12439 19.74538,7.01749 28.61191,7.01749 6.70108,0 10.07203,0.69553 16.41968,3.38787 5.94945,2.52344 14.08251,4.33032 31.87519,7.08155 13.13824,2.03153 30.55629,5.22628 38.70678,7.09942 14.0088,3.21952 16.24041,3.40574 40.81447,3.40574 14.29747,0 30.43874,0.59761 35.86949,1.32801 13.7799,1.85334 100.09298,1.42295 132.22579,-0.65932 14.43496,-0.93541 28.34527,-2.44341 31.83741,-3.45145 12.56953,-3.62832 24.47287,-4.46142 52.06089,-3.64368 29.17055,0.86465 39.73643,-0.0869 45.11422,-4.06287 6.27546,-4.63964 21.83119,-9.43267 34.12307,-10.51399 6.4089,-0.5638 18.19972,-1.62312 26.20183,-2.35405 10.85307,-0.99134 20.77008,-0.99535 39.03601,-0.0157 13.46771,0.72225 35.33558,1.82528 48.59529,2.45117 22.11696,1.04399 24.58556,1.37759 29.88316,4.03844 3.1761,1.59526 6.3378,2.90046 7.0261,2.90046 0.6882,0 5.3313,1.41981 10.318,3.15511 8.9533,3.11564 9.51,3.16036 44.4799,3.57377 26.4773,0.31302 39.5615,-0.0354 51.8538,-1.38093 17.606,-1.92715 49.1533,-3.67485 95.0953,-5.26822 15.7018,-0.54457 40.8713,-2.33215 55.9322,-3.97239 15.061,-1.64023 40.4926,-4.4247 56.5149,-6.18771 17.6846,-1.94591 37.9225,-3.37717 51.5043,-3.64244 l 22.373,-0.43697 0.5733,-4.86396 c 0.691,-5.863 4.8535,-394.36809 6.7002,-625.36185 0.7302,-91.3268 3.9625,-292.738923 4.3969,-325.10386278 -0,1099.99783278 0,0 -0,1099.99783278 H 715.47178 0.00567809 Z"
     id="path16216"
     inkscape:connector-curvature="0"
     sodipodi:nodetypes="sscccscccccccccscsccsccscccsssccssccccsssccsssccsscsscsscccssscscsssscscscscscscssccsccccs" />
</svg>
