<?xml version="1.0" encoding="UTF-8" standalone="no"?>
<!-- Created with Inkscape (http://www.inkscape.org/) -->

<svg
   xmlns:dc="http://purl.org/dc/elements/1.1/"
   xmlns:cc="http://creativecommons.org/ns#"
   xmlns:rdf="http://www.w3.org/1999/02/22-rdf-syntax-ns#"
   xmlns:svg="http://www.w3.org/2000/svg"
   xmlns="http://www.w3.org/2000/svg"
   xmlns:sodipodi="http://sodipodi.sourceforge.net/DTD/sodipodi-0.dtd"
   xmlns:inkscape="http://www.inkscape.org/namespaces/inkscape"
   version="1.1"
   id="svg15084"
   width="1421"
   height="999"
   viewBox="0 0 1421 999"
   sodipodi:docname="parallax4.svg"
   inkscape:version="0.92.4 (5da689c313, 2019-01-14)">
  <metadata
     id="metadata15090">
    <rdf:RDF>
      <cc:Work
         rdf:about="">
        <dc:format>image/svg+xml</dc:format>
        <dc:type
           rdf:resource="http://purl.org/dc/dcmitype/StillImage" />
        <dc:title></dc:title>
      </cc:Work>
    </rdf:RDF>
  </metadata>
  <defs
     id="defs15088" />
  <sodipodi:namedview
     pagecolor="#ffffff"
     bordercolor="#666666"
     borderopacity="1"
     objecttolerance="10"
     gridtolerance="10"
     guidetolerance="10"
     inkscape:pageopacity="0"
     inkscape:pageshadow="2"
     inkscape:window-width="1858"
     inkscape:window-height="1057"
     id="namedview15086"
     showgrid="false"
     inkscape:zoom="0.5"
     inkscape:cx="724.26038"
     inkscape:cy="476.69714"
     inkscape:window-x="54"
     inkscape:window-y="-8"
     inkscape:window-maximized="1"
     inkscape:current-layer="svg15084"
     inkscape:pagecheckerboard="true" />
  <path
     style="opacity:1;fill:#000000;fill-opacity:1;fill-rule:nonzero;stroke:none;stroke-width:16.57347679;stroke-miterlimit:4;stroke-dasharray:none;stroke-opacity:1"
     d="m 0.02888328,819.63763 c 0.05149959,-98.77621 0.6167,-179.59314 1.37044002,-179.59314 0.75373,0 4.99015,6.1766 9.4142597,13.72577 7.66242,13.07493 7.95607,15.06196 6.19281,41.90507 -2.96235,45.09764 8.63541,31.9639 13.04031,-14.76734 3.53065,-37.45634 7.1087,-36.66308 4.76621,1.05667 -1.61405,25.99019 -1.13641,32.60938 2.75387,38.16354 6.49834,9.27768 9.74117,8.41527 11.3119,-3.00832 0.73568,-5.35038 0.68951,5.76195 -0.1026,24.69406 -1.03534,24.74542 -0.0108,42.41573 3.64426,62.8576 2.79645,15.63957 5.9586,47.29286 7.027,70.34064 1.59417,34.39012 2.74771,41.90507 6.43236,41.90507 7.94766,0 11.3099,-25.45971 13.70323,-103.76409 1.33692,-43.74144 3.25217,-72.02924 4.52609,-66.84939 5.91507,24.05113 8.96396,58.64878 8.32487,94.4674 -0.6432,36.04901 -0.19827,39.88269 5.07804,43.75404 3.180657,2.33372 8.248177,3.60301 11.261157,2.82064 3.01298,-0.78237 10.94789,0.50736 17.63314,2.86605 9.01243,3.17977 13.19342,3.42672 16.17145,0.95517 5.95766,-4.94441 10.04277,-22.63118 10.29906,-44.59047 0.43309,-37.10826 4.83557,-32.50314 7.11105,7.43837 2.43286,42.704 4.69499,50.27604 14.59862,48.86613 5.85248,-0.83318 6.72511,-3.26598 8.38591,-23.37909 1.01953,-12.34703 2.12441,-51.40853 2.45529,-86.80335 0.33089,-35.39481 1.75922,-67.0481 3.17407,-70.34064 2.36147,-5.49545 2.59322,-5.3727 2.82565,1.4966 0.57922,17.11917 9.19334,134.41361 10.93261,148.86441 1.78385,14.82115 2.67453,16.15162 16.51279,24.66639 9.78848,6.02291 14.62723,11.02079 14.62723,15.10827 0,3.35943 2.02043,6.88336 4.48983,7.83096 6.46846,2.48218 5.72265,4.99524 -6.06565,20.43877 l -10.55549,13.82843 16.30053,7.20887 c 22.60451,9.99678 47.10509,15.93826 80.01974,19.40506 40.35673,4.25067 58.82495,3.60839 77.03255,-2.67905 l 16.05039,-5.54251 17.68846,7.18747 c 25.23439,10.25366 49.61951,12.88928 85.77865,9.27122 29.91061,-2.99283 61.19914,1.19669 105.66685,9.6596 -619.97047481,-0.0588 0,0 -619.97047481,-0.0588 z"
     id="path15651"
     inkscape:connector-curvature="0"
     sodipodi:nodetypes="ssssssscscsssssssscsssssscssssccssscssccs" />
  <path
     style="opacity:1;fill:#000000;fill-opacity:1;fill-rule:nonzero;stroke:none;stroke-width:16.57347679;stroke-miterlimit:4;stroke-dasharray:none;stroke-opacity:1"
     d="m 722.93803,992.26118 c 9.87763,-3.40942 18.63279,-7.13655 19.45593,-8.28247 3.26665,-4.54775 21.08023,-6.62136 54.62227,-6.35841 27.81644,0.21821 38.1452,-0.89847 49.41893,-5.34215 7.83892,-3.08981 25.68777,-7.75315 39.66412,-10.36294 31.70764,-5.92077 37.12338,-11.07611 40.16723,-38.23589 3.00527,-26.81562 7.72502,-47.46856 10.84783,-47.46856 1.46207,0 3.03414,17.84707 3.49349,39.66015 l 0.83519,39.66015 14.06162,0.90593 c 8.42269,0.54264 17.597,-0.92227 22.87767,-3.65301 10.08428,-5.21479 13.6794,-17.09658 17.28219,-57.11729 l 2.15567,-23.94576 4.11303,20.95254 c 2.2622,11.52389 4.7964,29.03422 5.6315,38.91184 0.8351,9.87763 2.1896,21.14114 3.01,25.03005 1.4001,6.6368 1.8263,6.76794 6.9434,2.13701 2.9984,-2.71357 10.0007,-14.65055 15.5606,-26.52666 10.0134,-21.38873 10.1272,-22.11656 12.038,-76.96748 2.3795,-68.309 6.256,-84.44586 8.9881,-37.41524 1.052,18.10898 3.9601,42.35405 6.4625,53.87794 2.5024,11.5239 5.9382,31.01349 7.6352,43.31021 2.097,15.19516 4.7648,23.5856 8.3275,26.19066 12.1068,8.85278 53.0749,1.10914 70.1514,-13.25972 18.7629,-15.78797 23.9703,-39.10449 17.559,-78.62159 -2.2478,-13.85466 -2.1676,-30.08407 0.2811,-56.87116 4.9903,-54.59419 9.0251,-69.52847 7.2967,-27.00767 -1.2215,30.04896 -0.4684,37.76841 5.9277,60.76276 5.34,19.19752 6.8534,30.33963 5.5806,41.08666 -2.0356,17.18716 3.304,39.31061 11.2159,46.47075 3.0055,2.71993 13.576,5.90176 23.4901,7.07073 9.9141,1.16897 20.4316,4.18102 23.3723,6.69343 3.0505,2.60623 17.7134,6.20085 34.1422,8.36994 26.2461,3.46531 29.7931,3.32849 40.0638,-1.54528 6.8102,-3.23166 14.6211,-10.63377 19.7425,-18.70944 l 8.4741,-13.36227 -0.1452,-58.69068 c -0.1493,-60.40789 3.247,-84.91457 13.8708,-100.08217 3.2086,-4.58091 3.9356,-10.34166 2.5874,-20.50435 -1.7792,-13.41265 -1.4745,-14.23402 5.9741,-16.10349 4.3169,-1.08346 7.9628,-3.50761 8.1021,-5.38699 0.1391,-1.87935 0.5848,-18.23346 0.9903,-36.34243 0.4054,-18.10898 2.3844,-46.3949 4.3978,-62.8576 2.8056,-22.94021 2.8758,-39.62582 0.3008,-71.43 -1.8479,-22.82377 -2.4964,-46.60834 -1.4411,-52.85459 1.0553,-6.24625 0.4836,-16.53164 -1.2705,-22.85643 -1.754,-6.32476 -4.0717,-25.93528 -5.1505,-43.5789 -1.9544,-31.96594 -6.7406,-41.57683 -7.4138,-14.88723 -0.1948,7.72263 -1.2515,18.08198 -2.3481,23.02079 -2.1742,9.79085 -9.3533,-66.74477 -9.3005,-99.15038 0.035,-21.45548 -2.629,-37.04108 -6.331,-37.04108 -1.4405,0 -2.6486,3.03063 -2.6848,6.73474 -0.036,3.70411 -2.9777,12.79601 -6.5369,20.20423 -5.87,12.2182 -6.6102,19.72597 -7.9678,80.81691 -1.0062,45.28486 -2.2108,62.44462 -3.6771,52.38133 -1.1993,-8.23135 -2.3219,-23.04778 -2.4947,-32.92541 -0.1727,-9.87762 -2.316,-27.38795 -4.7626,-38.91184 -2.4466,-11.5239 -6.014,-46.54456 -7.9275,-77.8237 -1.9135,-31.27913 -4.5693,-59.90179 -5.9018,-63.6059 -3.6507,-10.14824 -8.0237,-8.10464 -9.6076,4.48983 -0.7764,6.17351 -0.9774,-2.71682 -0.4467,-19.75631 0.7473,-23.99139 -0.6632,-38.83271 -6.252,-65.78419 -3.9694,-19.14182 -7.2171,-41.15181 -7.2171,-48.91108 0,-14.358459 -3.8895,-21.249729 -7.1694,-12.702455 -0.9957,2.594594 -1.8103,11.342025 -1.8103,19.438735 0,8.0967 -1.3469,14.72128 -2.9932,14.72128 -1.6885,0 -2.9932,8.48079 -2.9932,19.45593 0,10.97513 -1.3048,19.45592 -2.9932,19.45592 -1.6463,0 -2.9933,-5.87327 -2.9933,-13.05172 0,-25.1464 -3.4085,-40.96591 -8.6432,-40.11455 -4.0031,0.65106 -4.9762,-2.91642 -5.7057,-20.915899 -0.7604,-18.762957 -1.6255,-21.700837 -6.3905,-21.700837 -8.219,0 -15.1792,12.990429 -15.1792,28.330269 0,7.466137 -1.2695,13.574797 -2.8211,13.574797 -1.5516,0 -3.2353,5.72453 -3.7415,12.72118 l -0.9204,12.72118 -5.6174,-17.95931 c -3.0895,-9.87763 -6.1992,-24.020586 -6.9105,-31.428803 -0.7114,-7.408217 -1.9975,-16.835228 -2.858,-20.948916 -1.4806,-7.077185 -1.7825,-7.181634 -5.6137,-1.942109 -3.7323,5.104202 -4.2763,4.63567 -6.9559,-5.990053 -1.5987,-6.340057 -3.7688,-16.578435 -4.8223,-22.751949 -3.044,-17.837635 -6.9436,-13.106524 -9.22,11.186109 -2.155,22.996778 -7.3904,28.325073 -7.3904,7.52151 0,-15.785162 -4.9817,-17.798075 -7.4782,-3.021625 -1.1123,6.583451 -3.1424,12.662196 -4.5115,13.508326 -2.5007,1.545494 -3.9596,-3.821808 -7.6353,-28.089786 -2.4983,-16.494476 -6.1249,-11.52289 -8.8742,12.165331 -2.7837,23.984681 -7.4194,18.856052 -7.4194,-8.208382 0,-12.24987 -1.226,-22.272492 -2.7245,-22.272492 -1.4985,0 -3.6249,11.112326 -4.7255,24.694057 -8.3678,103.269232 -9.6872,115.055562 -10.103,90.248182 -0.2236,-13.33335 -1.3555,-34.884527 -2.5156,-47.891506 l -2.1094,-23.649058 -3.5897,14.966095 -3.5898,14.966095 -0.2873,-21.700838 c -0.1581,-11.93546 -1.4902,-21.700837 -2.9603,-21.700837 -3.6445,0 -6.3067,7.68441 -6.3067,18.20412 0,4.804167 -1.347,8.734851 -2.9932,8.734851 -1.7038,0 -2.9933,-8.821086 -2.9933,-20.476818 0,-11.26225 -1.8886,-26.752158 -4.1968,-34.422018 l -5.5693,-16.1444027 352.1623,0.00491029 V 999.01542 l -724.50407,-0.0408 18.427,-6.71342 z"
     id="path15653"
     inkscape:connector-curvature="0"
     sodipodi:nodetypes="cccscssscsssccsccccsssccsccccssccscccsccccssscccccscccccssccccscsssssccssscccccccccsccsssscccccccssssccccccc" />
  <path
     style="opacity:1;fill:#000000;fill-opacity:1;fill-rule:nonzero;stroke:none;stroke-width:2.92980456;stroke-miterlimit:4;stroke-dasharray:none;stroke-opacity:1"
     d="m 493.20116,999.05052 c 187.94864,0.12057 93.76315,-1.02365 109.16895,-2.10519 2.53102,-0.2047 3.86586,-0.50607 3.43935,-0.77652 -0.49313,-0.31269 -0.34876,-0.44435 0.49352,-0.45008 0.6548,-0.004 1.19055,0.23001 1.19055,0.52103 0,0.31125 1.85196,0.52913 4.49762,0.52913 2.64565,0 4.49761,0.21788 4.49761,0.52913 0,0.33467 3.79211,0.52913 10.31806,0.52913 6.52595,0 10.31806,-0.19446 10.31806,-0.52913 0,-0.31125 1.85196,-0.52913 4.49762,-0.52913 2.64566,0 4.49762,-0.21788 4.49762,-0.52913 0,-0.31126 1.85196,-0.52913 4.49761,-0.52913 2.64566,0 4.49762,-0.21788 4.49762,-0.52913 0,-0.31563 2.02834,-0.52914 5.02675,-0.52914 2.99841,0 5.02675,0.21351 5.02675,0.52914 0,0.29102 0.95243,0.52913 2.11652,0.52913 1.16409,0 2.11653,0.23811 2.11653,0.52913 0,0.29102 1.3096,0.52913 2.91022,0.52913 1.60062,0 2.91022,0.23811 2.91022,0.52913 0,0.30535 1.66517,0.52913 3.93726,0.52913 2.16549,0 5.14268,0.83338 5.32254,1.1244 -191.28098,0.099 -255.04057,0.40661 -191.28098,0.099 z"
     id="path15655"
     inkscape:connector-curvature="0"
     sodipodi:nodetypes="ccccssssssssssssssssccc" />
  <path
     style="opacity:1;fill:#000000;fill-opacity:1;fill-rule:nonzero;stroke:none;stroke-width:11.71921825;stroke-miterlimit:4;stroke-dasharray:none;stroke-opacity:1"
     d="m 987.04882,193.64642 c -1.4091,-15.54986 -3.65727,-21.80936 -7.83313,-21.80936 -1.02157,0 -1.98408,4.04786 -2.13892,8.99523 -0.18626,5.95085 -0.87929,3.32372 -2.04776,-7.76238 -2.15746,-20.46955 -6.06031,-26.40881 -6.3039,-9.59312 -0.0919,6.34428 -0.68385,10.1064 -1.31544,8.36027 -0.6316,-1.74613 -2.37352,-6.0321 -3.87094,-9.52436 -1.60113,-3.73408 -3.2676,-20.29892 -4.04565,-40.21399 -0.72766,-18.62542 -1.89673,-37.101324 -2.59791,-41.057561 -1.24727,-7.037396 -1.33081,-7.088618 -3.85855,-2.365482 -2.58183,4.824167 -2.58538,4.822857 -4.89485,-1.802075 -1.27112,-3.646363 -3.18046,-6.629752 -4.24296,-6.629752 -2.0914,0 -4.58996,16.817465 -4.61957,31.09384 -0.0298,14.38617 -3.5837,12.33536 -4.79602,-2.76762 -1.02237,-12.736655 -4.00538,-20.248723 -6.89372,-17.360387 -0.63758,0.637595 -1.73855,6.050609 -2.44659,12.028919 -1.37691,11.625788 -4.93079,14.982958 -4.93079,4.657865 0,-3.416487 -1.05733,-8.892997 -2.34962,-12.170021 -2.18319,-5.536158 -2.4725,-5.658368 -4.0843,-1.72518 -0.95406,2.328178 -1.89653,13.281197 -2.09438,24.340044 -0.52389,29.28079 -3.68242,35.91342 -4.03169,8.4661 -0.21895,-17.206264 -1.20604,-24.134852 -4.37221,-30.689619 -2.31442,-4.791416 -4.12024,-13.059459 -4.16041,-19.048729 -0.0485,-7.230482 -2.01356,-14.6052 -6.20362,-23.281779 -3.37296,-6.984534 -7.2164,-15.436328 -8.54101,-18.781763 -2.29622,-5.799369 -2.90506,-6.034887 -13.07458,-5.057724 -12.83332,1.233118 -20.83643,6.717039 -24.15047,16.548438 l -2.45771,7.291049 -1.49163,-7.936971 c -1.51943,-8.084943 -5.27551,-10.172781 -9.38753,-5.218107 -1.24105,1.495376 -2.56009,8.40054 -2.93121,15.344809 l -0.67476,12.625947 -3.04272,-13.228284 c -2.67111,-11.612673 -3.65044,-13.228284 -8.01857,-13.228284 -6.9574,0 -11.05144,10.860865 -11.34347,30.092506 l -0.23404,15.41279 -2.89918,-11.640889 c -1.59455,-6.40249 -3.54159,-20.993029 -4.32676,-32.423422 l -1.42758,-20.782532 -7.5714,-5.1449043 c -13.57921,-9.2273068 -14.44742,-8.19977517 -15.77185,18.6660063 -0.64561,13.096001 -2.12214,29.049311 -3.28116,35.451801 -2.22156,12.271913 -5.44921,40.475391 -7.87211,68.787081 -1.33063,15.54859 -1.61141,16.33224 -3.4361,9.59006 -1.27966,-4.72828 -1.12062,-18.79978 0.44673,-39.52593 l 2.4338,-32.183788 -6.4724,-18.558853 c -3.55983,-10.207369 -7.36134,-19.447784 -8.44781,-20.534256 -3.47774,-3.477735 -12.87171,0.581659 -16.98027,7.337638 -2.82867,4.651386 -4.46529,13.058744 -5.6541,29.045423 -1.53917,20.697998 -1.79341,21.65199 -3.17577,11.916565 -0.82646,-5.820444 -1.5991,-19.630773 -1.71698,-30.689618 -0.22656,-21.255148 -1.54598,-29.631356 -4.66753,-29.631356 -2.93741,0 -10.18707,13.018504 -11.19706,20.106991 -2.6597,18.666859 -7.73549,56.34526 -8.7937,65.277134 -1.96272,16.56634 -3.3976,9.82776 -3.35119,-15.738057 0.0375,-20.639056 -0.60201,-25.0943 -4.80797,-33.497359 -2.66815,-5.330679 -6.4423,-14.454324 -8.38699,-20.274768 -4.4643,-13.361636 -8.38375,-18.563714 -13.27668,-17.621423 -6.7254,1.295194 -9.25567,11.257335 -11.22724,44.203733 -1.05551,17.63838 -2.26606,32.416733 -2.69011,32.840787 -0.42405,0.424053 -1.95092,-13.568942 -3.39304,-31.095544 -2.42076,-29.42032 -20.21607,-52.293391 -23.12181,-61.5305461 450.34607,-0.0100296 -0.0496,-0.08267677 450.34607,-0.0100296 -2.5644,1.0325395 -8.8086,8.4269195 -12.0415,13.3121847 -5.2807,7.979576 -5.9605,11.109288 -6.6892,30.79464 -1.113,30.065818 -6.4083,28.999474 -6.8005,-1.369438 -0.1849,-14.319376 -2.3917,-23.546416 -4.7276,-19.766889 -0.7395,1.196609 -3.7363,11.380728 -6.6594,22.63138 -5.6291,21.665177 -9.4946,59.267879 -9.9088,96.390429 -0.3684,33.02788 -3.4263,16.40476 -3.7322,-20.28944 -0.1378,-16.51956 -1.0752,-30.545294 -2.0832,-31.168287 -1.008,-0.622993 -2.5021,10.511927 -3.3202,24.744267 -0.818,14.23233 -2.1951,29.2105 -3.0601,33.28481 l -1.5727,7.40784 -1.5597,-9.48268 c -2.3921,-14.54436 -5.4898,-6.51134 -5.6972,14.77399 l -0.1752,17.99047 -3.3227,-10.58263 c -2.2135,-7.05 -3.6247,-21.88704 -4.2274,-44.44703 -0.4976,-18.62542 -1.67672,-34.650511 -2.62025,-35.611306 -2.41258,-2.456756 -3.90056,13.352726 -6.63856,70.533976 -1.30988,27.35609 -2.62801,50.00155 -2.92913,50.32324 -0.30114,0.3217 -1.21626,-6.79493 -2.03362,-15.81473 z"
     id="path15659"
     inkscape:connector-curvature="0"
     sodipodi:nodetypes="csccsccssccscsccscccscsccsccccscssscsscsscscscsccsssssscsssscscccccccccscccccccscsccc" />
  <path
     style="opacity:1;fill:#000000;fill-opacity:1;fill-rule:nonzero;stroke:none;stroke-width:11.71921825;stroke-miterlimit:4;stroke-dasharray:none;stroke-opacity:1"
     d="M 1.6400877,150.79672 -0.00444355,0.00397017 c 626.50637355,-0.00231727 0,0 626.50637355,-0.00231727 l -3.43065,5.6326979 c -5.06244,7.7262362 -9.78768,27.9377022 -8.28645,35.4438582 0.93281,4.664111 0.606,6.107943 -1.1385,5.029779 -1.34582,-0.83175 -2.44692,-5.328425 -2.44692,-9.992608 0,-10.457007 -3.11548,-16.66815 -8.3607,-16.66815 -5.42482,0 -20.72356,17.82905 -23.38712,27.255201 -1.19164,4.217109 -2.78463,24.181343 -3.53997,44.36497 -1.62604,43.450239 -4.16638,43.394469 -7.22286,-0.15857 -4.65159,-66.28251 -8.59967,-78.44061 -12.48769,-38.455796 -1.12125,11.531076 -2.13015,29.061303 -2.24201,38.95606 -0.25661,22.700905 -3.7752,16.757095 -3.99012,-6.740338 C 549.75788,61.593739 537.844,8.8646031 532.84136,8.8646031 c -2.30375,0 -8.92786,12.5607509 -12.278,23.2817799 -1.27316,4.074311 -3.3069,19.313294 -4.51946,33.864407 -2.91063,34.92908 -4.24353,44.44703 -6.22439,44.44703 -0.90411,0 -1.56009,-20.239271 -1.45771,-44.976162 0.15747,-38.067494 -0.36622,-46.195342 -3.40979,-52.913135 -3.93851,-8.6931236 -7.0766,-10.0893103 -9.00693,-4.007335 -0.68597,2.161299 -2.56083,26.512967 -4.16634,54.114819 -1.60553,27.601849 -3.48956,50.755603 -4.18674,51.452783 -0.69717,0.69717 -1.26759,-9.84417 -1.26759,-23.425203 0,-20.054138 -0.57121,-24.692797 -3.04069,-24.692797 -1.87227,0 -3.31646,2.643197 -3.75839,6.878707 -0.39476,3.783289 -1.64564,-5.026748 -2.77976,-19.57786 -1.64243,-21.07268 -2.70221,-26.456568 -5.20784,-26.456568 -1.7302,0 -3.33973,1.428655 -3.57674,3.174788 -0.23699,1.746134 -1.10887,9.841844 -1.93749,17.990466 l -1.50658,14.815678 -3.45242,-13.604238 c -1.89882,-7.48233 -4.61161,-13.990645 -6.02843,-14.462923 -1.41685,-0.472277 -2.57607,-4.112845 -2.57607,-8.090147 0,-4.813726 -0.99832,-7.231463 -2.98597,-7.231463 -3.3806,0 -11.8297,16.065254 -11.8297,22.493135 0,2.323452 -1.92706,11.581758 -4.28237,20.57402 -2.85873,10.914329 -4.85188,27.933212 -5.99557,51.193985 -0.94227,19.16444 -2.11064,35.24222 -2.59636,35.72841 -0.48572,0.48619 -0.88312,-28.99051 -0.88312,-65.50378 0,-49.333795 -0.6618,-67.049932 -2.57628,-68.965472 -2.93776,-2.93941 -2.41965,-4.074968 -8.32086,18.237118 -3.30392,12.491866 -3.91854,22.949021 -3.91854,66.67055 0,37.702704 -0.76684,54.021024 -2.80979,59.791844 -1.5454,4.36533 -3.57109,7.93697 -4.50155,7.93697 -2.64329,0 -9.89226,-18.39212 -14.73739,-37.39184 -3.54046,-13.88355 -4.45194,-24.29573 -4.63195,-52.913131 -0.12327,-19.595561 -0.86096,-44.20022 -1.63934,-54.677021 l -1.41523,-19.0487284 -3.39385,7.4078394 c -1.86661,4.074311 -6.72205,11.203044 -10.78984,15.841627 l -7.39598,8.433787 -1.56657,-9.492049 c -2.39191,-14.492957 -4.50316,-16.5686608 -6.13393,-6.030631 -0.78624,5.080753 -2.44227,12.376575 -3.68006,16.21294 -2.96974,9.204348 -6.43519,6.34347 -11.38735,-9.400746 -2.45972,-7.820087 -4.2866,-10.895071 -5.32912,-8.969926 -2.19397,4.051482 -5.92991,38.966238 -8.32294,77.783439 -1.10277,17.88796 -2.42367,32.94221 -2.93534,33.45388 -1.68463,1.68462 -4.05503,-77.223228 -2.6094,-86.863396 0.77763,-5.185584 0.57929,-9.944124 -0.44073,-10.574533 -1.97683,-1.221752 -8.98181,25.763922 -8.99066,34.635269 -0.0106,11.118482 -3.90167,-0.95312 -5.37521,-16.678181 -1.42093,-15.163247 -4.58685,-30.171035 -4.96495,-23.535802 -0.18689,3.278707 -13.25986,107.989203 -17.41451,139.484223 -1.66954,12.65613 -2.90041,16.79333 -4.26874,14.34821 -2.61863,-4.67919 -5.85243,-60.04981 -6.1412,-105.152349 -0.24484,-38.24183 -2.34211,-41.252278 -5.04669,-7.244142 -0.82604,10.386768 -3.79779,44.124601 -6.6039,74.972951 -2.80609,30.84836 -5.17429,57.04037 -5.26261,58.20445 -0.0883,1.16409 -1.10191,-0.24247 -2.25236,-3.1257 -1.15046,-2.88323 -2.96985,-18.12221 -4.0431,-33.86441 -2.07157,-30.38585 -18.9299,-140.029915 -21.30465,-138.562243 -0.77331,0.477944 -2.06962,17.790489 -2.88069,38.472324 -1.22327,31.193346 -2.32096,40.128869 -6.43955,52.419019 -5.16185,15.4034 -16.81755,81.39463 -19.2523,109.00106 -0.77,8.73066 -2.0623,17.1186 -2.87177,18.63988 -2.15562,4.05113 -6.19582,-54.84212 -7.52225,-109.65048 -1.15175,-47.5907 -4.92319,-114.567517 -6.54501,-116.232518 -2.06039,-2.115237 -3.39697,2.76877 -6.17488,22.563686 -2.8534,20.332831 -6.40188,32.289598 -9.58278,32.289598 -2.67787,0 -6.2106,-11.089228 -10.33423,-32.43906 -2.20939,-11.438995 -4.51267,-21.293764 -5.11839,-21.899489 -0.60573,-0.605725 -3.00302,2.626332 -5.32733,7.182345 -6.01887,11.79796 -9.97772,14.708722 -12.80921,9.418026 -1.2207,-2.280894 -5.0525,-5.134686 -8.5151,-6.341755 -8.03657,-2.801562 -16.75292,2.648385 -27.968135,17.487226 -6.146563,8.132514 -8.0712,12.877794 -8.993417,22.173662 -0.645322,6.504785 -2.357835,24.208558 -3.805587,39.341719 -2.695039,28.17093 -5.02239,29.01857 -5.811267,2.11652 -0.204817,-6.98453 -1.118749,-16.508898 -2.030963,-21.165253 -1.480093,-7.555069 -1.795292,-7.896706 -2.929098,-3.174789 -0.69879,2.910223 -2.288997,33.388192 -3.533789,67.728812 -4.188942,115.56195 -4.84922,130.13654 -6.280516,138.63242 C 57.257135,301.50502 53.585032,247.95584 50.175089,163.37096 48.931472,132.5226 47.215024,97.758671 46.360763,86.117781 L 44.807559,64.952527 42.12596,74.476891 C 33.7044,104.38814 30.881,112.58286 29.327726,111.62289 28.3765,111.035 25.894788,102.19854 23.812808,91.986314 18.779624,67.298274 17.153571,64.694476 15.585247,78.81151 13.765088,95.195402 8.4727847,200.60151 6.7952647,253.88042 6.0159232,278.63272 4.5371869,299.40443 3.5091839,300.03977 2.4347707,300.70379 1.6400877,237.25018 1.6400877,150.79672 Z"
     id="path15661"
     inkscape:connector-curvature="0"
     sodipodi:nodetypes="scccccsscssscssccscscsssscsscscccssscssscsscssssccscsccscscsscccscsssccccscscscssscscssssssssssscscssscs" />
</svg>
